<?xml version="1.0" encoding="UTF-8"?>
<svg xmlns="http://www.w3.org/2000/svg" xmlns:xlink="http://www.w3.org/1999/xlink" width="400pt" height="220pt" viewBox="0 0 400 220" version="1.1">
<g id="surface936">
<rect x="0" y="0" width="400" height="220" style="fill:rgb(0%,40%,100%);fill-opacity:0.2;stroke:none;"/>
<path style=" stroke:none;fill-rule:nonzero;fill:rgb(0%,0%,0%);fill-opacity:1;" d="M -13.691406 220 L -13.691406 200 L 6.308594 200 L 6.308594 220 Z M -13.691406 220 "/>
<path style=" stroke:none;fill-rule:nonzero;fill:rgb(0%,0%,0%);fill-opacity:1;" d="M -13.691406 180 L -13.691406 160 L 6.308594 160 L 6.308594 180 Z M -13.691406 180 "/>
<path style=" stroke:none;fill-rule:nonzero;fill:rgb(0%,0%,0%);fill-opacity:1;" d="M -13.691406 140 L -13.691406 120 L 6.308594 120 L 6.308594 140 Z M -13.691406 140 "/>
<path style=" stroke:none;fill-rule:nonzero;fill:rgb(0%,0%,0%);fill-opacity:1;" d="M -13.691406 100 L -13.691406 80 L 6.308594 80 L 6.308594 100 Z M -13.691406 100 "/>
<path style=" stroke:none;fill-rule:nonzero;fill:rgb(0%,0%,0%);fill-opacity:1;" d="M -13.691406 60 L -13.691406 40 L 6.308594 40 L 6.308594 60 Z M -13.691406 60 "/>
<path style=" stroke:none;fill-rule:nonzero;fill:rgb(0%,0%,0%);fill-opacity:1;" d="M -13.691406 20 L -13.691406 0 L 6.308594 0 L 6.308594 20 Z M -13.691406 20 "/>
<path style=" stroke:none;fill-rule:nonzero;fill:rgb(0%,0%,0%);fill-opacity:1;" d="M 22.308594 220 L 22.308594 200 L 42.308594 200 L 42.308594 220 Z M 22.308594 220 "/>
<path style=" stroke:none;fill-rule:nonzero;fill:rgb(0%,0%,0%);fill-opacity:1;" d="M 22.308594 180 L 22.308594 160 L 42.308594 160 L 42.308594 180 Z M 22.308594 180 "/>
<path style=" stroke:none;fill-rule:nonzero;fill:rgb(0%,0%,0%);fill-opacity:1;" d="M 22.308594 140 L 22.308594 120 L 42.308594 120 L 42.308594 140 Z M 22.308594 140 "/>
<path style=" stroke:none;fill-rule:nonzero;fill:rgb(0%,0%,0%);fill-opacity:1;" d="M 22.308594 100 L 22.308594 80 L 42.308594 80 L 42.308594 100 Z M 22.308594 100 "/>
<path style=" stroke:none;fill-rule:nonzero;fill:rgb(0%,0%,0%);fill-opacity:1;" d="M 22.308594 60 L 22.308594 40 L 42.308594 40 L 42.308594 60 Z M 22.308594 60 "/>
<path style=" stroke:none;fill-rule:nonzero;fill:rgb(0%,0%,0%);fill-opacity:1;" d="M 22.308594 20 L 22.308594 0 L 42.308594 0 L 42.308594 20 Z M 22.308594 20 "/>
<path style=" stroke:none;fill-rule:nonzero;fill:rgb(0%,0%,0%);fill-opacity:1;" d="M 58.308594 220 L 58.308594 200 L 78.308594 200 L 78.308594 220 Z M 58.308594 220 "/>
<path style=" stroke:none;fill-rule:nonzero;fill:rgb(0%,0%,0%);fill-opacity:1;" d="M 58.308594 180 L 58.308594 160 L 78.308594 160 L 78.308594 180 Z M 58.308594 180 "/>
<path style=" stroke:none;fill-rule:nonzero;fill:rgb(0%,0%,0%);fill-opacity:1;" d="M 58.308594 140 L 58.308594 120 L 78.308594 120 L 78.308594 140 Z M 58.308594 140 "/>
<path style=" stroke:none;fill-rule:nonzero;fill:rgb(0%,0%,0%);fill-opacity:1;" d="M 58.308594 100 L 58.308594 80 L 78.308594 80 L 78.308594 100 Z M 58.308594 100 "/>
<path style=" stroke:none;fill-rule:nonzero;fill:rgb(0%,0%,0%);fill-opacity:1;" d="M 58.308594 60 L 58.308594 40 L 78.308594 40 L 78.308594 60 Z M 58.308594 60 "/>
<path style=" stroke:none;fill-rule:nonzero;fill:rgb(0%,0%,0%);fill-opacity:1;" d="M 58.308594 20 L 58.308594 0 L 78.308594 0 L 78.308594 20 Z M 58.308594 20 "/>
<path style=" stroke:none;fill-rule:nonzero;fill:rgb(0%,0%,0%);fill-opacity:1;" d="M 94.308594 220 L 94.308594 200 L 114.308594 200 L 114.308594 220 Z M 94.308594 220 "/>
<path style=" stroke:none;fill-rule:nonzero;fill:rgb(0%,0%,0%);fill-opacity:1;" d="M 94.308594 180 L 94.308594 160 L 114.308594 160 L 114.308594 180 Z M 94.308594 180 "/>
<path style=" stroke:none;fill-rule:nonzero;fill:rgb(0%,0%,0%);fill-opacity:1;" d="M 94.308594 140 L 94.308594 120 L 114.308594 120 L 114.308594 140 Z M 94.308594 140 "/>
<path style=" stroke:none;fill-rule:nonzero;fill:rgb(0%,0%,0%);fill-opacity:1;" d="M 94.308594 100 L 94.308594 80 L 114.308594 80 L 114.308594 100 Z M 94.308594 100 "/>
<path style=" stroke:none;fill-rule:nonzero;fill:rgb(0%,0%,0%);fill-opacity:1;" d="M 94.308594 60 L 94.308594 40 L 114.308594 40 L 114.308594 60 Z M 94.308594 60 "/>
<path style=" stroke:none;fill-rule:nonzero;fill:rgb(0%,0%,0%);fill-opacity:1;" d="M 94.308594 20 L 94.308594 0 L 114.308594 0 L 114.308594 20 Z M 94.308594 20 "/>
<path style=" stroke:none;fill-rule:nonzero;fill:rgb(0%,0%,0%);fill-opacity:1;" d="M 130.308594 220 L 130.308594 200 L 150.308594 200 L 150.308594 220 Z M 130.308594 220 "/>
<path style=" stroke:none;fill-rule:nonzero;fill:rgb(0%,0%,0%);fill-opacity:1;" d="M 130.308594 180 L 130.308594 160 L 150.308594 160 L 150.308594 180 Z M 130.308594 180 "/>
<path style=" stroke:none;fill-rule:nonzero;fill:rgb(0%,0%,0%);fill-opacity:1;" d="M 130.308594 140 L 130.308594 120 L 150.308594 120 L 150.308594 140 Z M 130.308594 140 "/>
<path style=" stroke:none;fill-rule:nonzero;fill:rgb(0%,0%,0%);fill-opacity:1;" d="M 130.308594 100 L 130.308594 80 L 150.308594 80 L 150.308594 100 Z M 130.308594 100 "/>
<path style=" stroke:none;fill-rule:nonzero;fill:rgb(0%,0%,0%);fill-opacity:1;" d="M 130.308594 60 L 130.308594 40 L 150.308594 40 L 150.308594 60 Z M 130.308594 60 "/>
<path style=" stroke:none;fill-rule:nonzero;fill:rgb(0%,0%,0%);fill-opacity:1;" d="M 130.308594 20 L 130.308594 0 L 150.308594 0 L 150.308594 20 Z M 130.308594 20 "/>
<path style=" stroke:none;fill-rule:nonzero;fill:rgb(0%,0%,0%);fill-opacity:1;" d="M 166.308594 220 L 166.308594 200 L 186.308594 200 L 186.308594 220 Z M 166.308594 220 "/>
<path style=" stroke:none;fill-rule:nonzero;fill:rgb(0%,0%,0%);fill-opacity:1;" d="M 166.308594 180 L 166.308594 160 L 186.308594 160 L 186.308594 180 Z M 166.308594 180 "/>
<path style=" stroke:none;fill-rule:nonzero;fill:rgb(0%,0%,0%);fill-opacity:1;" d="M 166.308594 140 L 166.308594 120 L 186.308594 120 L 186.308594 140 Z M 166.308594 140 "/>
<path style=" stroke:none;fill-rule:nonzero;fill:rgb(0%,0%,0%);fill-opacity:1;" d="M 166.308594 100 L 166.308594 80 L 186.308594 80 L 186.308594 100 Z M 166.308594 100 "/>
<path style=" stroke:none;fill-rule:nonzero;fill:rgb(0%,0%,0%);fill-opacity:1;" d="M 166.308594 60 L 166.308594 40 L 186.308594 40 L 186.308594 60 Z M 166.308594 60 "/>
<path style=" stroke:none;fill-rule:nonzero;fill:rgb(0%,0%,0%);fill-opacity:1;" d="M 166.308594 20 L 166.308594 0 L 186.308594 0 L 186.308594 20 Z M 166.308594 20 "/>
<path style=" stroke:none;fill-rule:nonzero;fill:rgb(0%,0%,0%);fill-opacity:1;" d="M 202.308594 220 L 202.308594 200 L 222.308594 200 L 222.308594 220 Z M 202.308594 220 "/>
<path style=" stroke:none;fill-rule:nonzero;fill:rgb(0%,0%,0%);fill-opacity:1;" d="M 202.308594 180 L 202.308594 160 L 222.308594 160 L 222.308594 180 Z M 202.308594 180 "/>
<path style=" stroke:none;fill-rule:nonzero;fill:rgb(0%,0%,0%);fill-opacity:1;" d="M 202.308594 140 L 202.308594 120 L 222.308594 120 L 222.308594 140 Z M 202.308594 140 "/>
<path style=" stroke:none;fill-rule:nonzero;fill:rgb(0%,0%,0%);fill-opacity:1;" d="M 202.308594 100 L 202.308594 80 L 222.308594 80 L 222.308594 100 Z M 202.308594 100 "/>
<path style=" stroke:none;fill-rule:nonzero;fill:rgb(0%,0%,0%);fill-opacity:1;" d="M 202.308594 60 L 202.308594 40 L 222.308594 40 L 222.308594 60 Z M 202.308594 60 "/>
<path style=" stroke:none;fill-rule:nonzero;fill:rgb(0%,0%,0%);fill-opacity:1;" d="M 202.308594 20 L 202.308594 0 L 222.308594 0 L 222.308594 20 Z M 202.308594 20 "/>
<path style=" stroke:none;fill-rule:nonzero;fill:rgb(0%,0%,0%);fill-opacity:1;" d="M 238.308594 220 L 238.308594 200 L 258.308594 200 L 258.308594 220 Z M 238.308594 220 "/>
<path style=" stroke:none;fill-rule:nonzero;fill:rgb(0%,0%,0%);fill-opacity:1;" d="M 238.308594 180 L 238.308594 160 L 258.308594 160 L 258.308594 180 Z M 238.308594 180 "/>
<path style=" stroke:none;fill-rule:nonzero;fill:rgb(0%,0%,0%);fill-opacity:1;" d="M 238.308594 140 L 238.308594 120 L 258.308594 120 L 258.308594 140 Z M 238.308594 140 "/>
<path style=" stroke:none;fill-rule:nonzero;fill:rgb(0%,0%,0%);fill-opacity:1;" d="M 238.308594 100 L 238.308594 80 L 258.308594 80 L 258.308594 100 Z M 238.308594 100 "/>
<path style=" stroke:none;fill-rule:nonzero;fill:rgb(0%,0%,0%);fill-opacity:1;" d="M 238.308594 60 L 238.308594 40 L 258.308594 40 L 258.308594 60 Z M 238.308594 60 "/>
<path style=" stroke:none;fill-rule:nonzero;fill:rgb(0%,0%,0%);fill-opacity:1;" d="M 238.308594 20 L 238.308594 0 L 258.308594 0 L 258.308594 20 Z M 238.308594 20 "/>
<path style=" stroke:none;fill-rule:nonzero;fill:rgb(0%,0%,0%);fill-opacity:1;" d="M 274.308594 220 L 274.308594 200 L 294.308594 200 L 294.308594 220 Z M 274.308594 220 "/>
<path style=" stroke:none;fill-rule:nonzero;fill:rgb(0%,0%,0%);fill-opacity:1;" d="M 274.308594 180 L 274.308594 160 L 294.308594 160 L 294.308594 180 Z M 274.308594 180 "/>
<path style=" stroke:none;fill-rule:nonzero;fill:rgb(0%,0%,0%);fill-opacity:1;" d="M 274.308594 140 L 274.308594 120 L 294.308594 120 L 294.308594 140 Z M 274.308594 140 "/>
<path style=" stroke:none;fill-rule:nonzero;fill:rgb(0%,0%,0%);fill-opacity:1;" d="M 274.308594 100 L 274.308594 80 L 294.308594 80 L 294.308594 100 Z M 274.308594 100 "/>
<path style=" stroke:none;fill-rule:nonzero;fill:rgb(0%,0%,0%);fill-opacity:1;" d="M 274.308594 60 L 274.308594 40 L 294.308594 40 L 294.308594 60 Z M 274.308594 60 "/>
<path style=" stroke:none;fill-rule:nonzero;fill:rgb(0%,0%,0%);fill-opacity:1;" d="M 274.308594 20 L 274.308594 0 L 294.308594 0 L 294.308594 20 Z M 274.308594 20 "/>
<path style=" stroke:none;fill-rule:nonzero;fill:rgb(0%,0%,0%);fill-opacity:1;" d="M 310.308594 220 L 310.308594 200 L 330.308594 200 L 330.308594 220 Z M 310.308594 220 "/>
<path style=" stroke:none;fill-rule:nonzero;fill:rgb(0%,0%,0%);fill-opacity:1;" d="M 310.308594 180 L 310.308594 160 L 330.308594 160 L 330.308594 180 Z M 310.308594 180 "/>
<path style=" stroke:none;fill-rule:nonzero;fill:rgb(0%,0%,0%);fill-opacity:1;" d="M 310.308594 140 L 310.308594 120 L 330.308594 120 L 330.308594 140 Z M 310.308594 140 "/>
<path style=" stroke:none;fill-rule:nonzero;fill:rgb(0%,0%,0%);fill-opacity:1;" d="M 310.308594 100 L 310.308594 80 L 330.308594 80 L 330.308594 100 Z M 310.308594 100 "/>
<path style=" stroke:none;fill-rule:nonzero;fill:rgb(0%,0%,0%);fill-opacity:1;" d="M 310.308594 60 L 310.308594 40 L 330.308594 40 L 330.308594 60 Z M 310.308594 60 "/>
<path style=" stroke:none;fill-rule:nonzero;fill:rgb(0%,0%,0%);fill-opacity:1;" d="M 310.308594 20 L 310.308594 0 L 330.308594 0 L 330.308594 20 Z M 310.308594 20 "/>
<path style=" stroke:none;fill-rule:nonzero;fill:rgb(0%,0%,0%);fill-opacity:1;" d="M 346.308594 220 L 346.308594 200 L 366.308594 200 L 366.308594 220 Z M 346.308594 220 "/>
<path style=" stroke:none;fill-rule:nonzero;fill:rgb(0%,0%,0%);fill-opacity:1;" d="M 346.308594 180 L 346.308594 160 L 366.308594 160 L 366.308594 180 Z M 346.308594 180 "/>
<path style=" stroke:none;fill-rule:nonzero;fill:rgb(0%,0%,0%);fill-opacity:1;" d="M 346.308594 140 L 346.308594 120 L 366.308594 120 L 366.308594 140 Z M 346.308594 140 "/>
<path style=" stroke:none;fill-rule:nonzero;fill:rgb(0%,0%,0%);fill-opacity:1;" d="M 346.308594 100 L 346.308594 80 L 366.308594 80 L 366.308594 100 Z M 346.308594 100 "/>
<path style=" stroke:none;fill-rule:nonzero;fill:rgb(0%,0%,0%);fill-opacity:1;" d="M 346.308594 60 L 346.308594 40 L 366.308594 40 L 366.308594 60 Z M 346.308594 60 "/>
<path style=" stroke:none;fill-rule:nonzero;fill:rgb(0%,0%,0%);fill-opacity:1;" d="M 346.308594 20 L 346.308594 0 L 366.308594 0 L 366.308594 20 Z M 346.308594 20 "/>
<path style=" stroke:none;fill-rule:nonzero;fill:rgb(0%,0%,0%);fill-opacity:1;" d="M 382.308594 220 L 382.308594 200 L 402.308594 200 L 402.308594 220 Z M 382.308594 220 "/>
<path style=" stroke:none;fill-rule:nonzero;fill:rgb(0%,0%,0%);fill-opacity:1;" d="M 382.308594 180 L 382.308594 160 L 402.308594 160 L 402.308594 180 Z M 382.308594 180 "/>
<path style=" stroke:none;fill-rule:nonzero;fill:rgb(0%,0%,0%);fill-opacity:1;" d="M 382.308594 140 L 382.308594 120 L 402.308594 120 L 402.308594 140 Z M 382.308594 140 "/>
<path style=" stroke:none;fill-rule:nonzero;fill:rgb(0%,0%,0%);fill-opacity:1;" d="M 382.308594 100 L 382.308594 80 L 402.308594 80 L 402.308594 100 Z M 382.308594 100 "/>
<path style=" stroke:none;fill-rule:nonzero;fill:rgb(0%,0%,0%);fill-opacity:1;" d="M 382.308594 60 L 382.308594 40 L 402.308594 40 L 402.308594 60 Z M 382.308594 60 "/>
<path style=" stroke:none;fill-rule:nonzero;fill:rgb(0%,0%,0%);fill-opacity:1;" d="M 382.308594 20 L 382.308594 0 L 402.308594 0 L 402.308594 20 Z M 382.308594 20 "/>
<path style=" stroke:none;fill-rule:nonzero;fill:rgb(0%,0%,0%);fill-opacity:1;" d="M 1.421875 200 L 1.421875 180 L 21.421875 180 L 21.421875 200 Z M 1.421875 200 "/>
<path style=" stroke:none;fill-rule:nonzero;fill:rgb(0%,0%,0%);fill-opacity:1;" d="M 1.421875 160 L 1.421875 140 L 21.421875 140 L 21.421875 160 Z M 1.421875 160 "/>
<path style=" stroke:none;fill-rule:nonzero;fill:rgb(0%,0%,0%);fill-opacity:1;" d="M 1.421875 120 L 1.421875 100 L 21.421875 100 L 21.421875 120 Z M 1.421875 120 "/>
<path style=" stroke:none;fill-rule:nonzero;fill:rgb(0%,0%,0%);fill-opacity:1;" d="M 1.421875 80 L 1.421875 60 L 21.421875 60 L 21.421875 80 Z M 1.421875 80 "/>
<path style=" stroke:none;fill-rule:nonzero;fill:rgb(0%,0%,0%);fill-opacity:1;" d="M 1.421875 40 L 1.421875 20 L 21.421875 20 L 21.421875 40 Z M 1.421875 40 "/>
<path style=" stroke:none;fill-rule:nonzero;fill:rgb(0%,0%,0%);fill-opacity:1;" d="M 37.421875 200 L 37.421875 180 L 57.421875 180 L 57.421875 200 Z M 37.421875 200 "/>
<path style=" stroke:none;fill-rule:nonzero;fill:rgb(0%,0%,0%);fill-opacity:1;" d="M 37.421875 160 L 37.421875 140 L 57.421875 140 L 57.421875 160 Z M 37.421875 160 "/>
<path style=" stroke:none;fill-rule:nonzero;fill:rgb(0%,0%,0%);fill-opacity:1;" d="M 37.421875 120 L 37.421875 100 L 57.421875 100 L 57.421875 120 Z M 37.421875 120 "/>
<path style=" stroke:none;fill-rule:nonzero;fill:rgb(0%,0%,0%);fill-opacity:1;" d="M 37.421875 80 L 37.421875 60 L 57.421875 60 L 57.421875 80 Z M 37.421875 80 "/>
<path style=" stroke:none;fill-rule:nonzero;fill:rgb(0%,0%,0%);fill-opacity:1;" d="M 37.421875 40 L 37.421875 20 L 57.421875 20 L 57.421875 40 Z M 37.421875 40 "/>
<path style=" stroke:none;fill-rule:nonzero;fill:rgb(0%,0%,0%);fill-opacity:1;" d="M 73.421875 200 L 73.421875 180 L 93.421875 180 L 93.421875 200 Z M 73.421875 200 "/>
<path style=" stroke:none;fill-rule:nonzero;fill:rgb(0%,0%,0%);fill-opacity:1;" d="M 73.421875 160 L 73.421875 140 L 93.421875 140 L 93.421875 160 Z M 73.421875 160 "/>
<path style=" stroke:none;fill-rule:nonzero;fill:rgb(0%,0%,0%);fill-opacity:1;" d="M 73.421875 120 L 73.421875 100 L 93.421875 100 L 93.421875 120 Z M 73.421875 120 "/>
<path style=" stroke:none;fill-rule:nonzero;fill:rgb(0%,0%,0%);fill-opacity:1;" d="M 73.421875 80 L 73.421875 60 L 93.421875 60 L 93.421875 80 Z M 73.421875 80 "/>
<path style=" stroke:none;fill-rule:nonzero;fill:rgb(0%,0%,0%);fill-opacity:1;" d="M 73.421875 40 L 73.421875 20 L 93.421875 20 L 93.421875 40 Z M 73.421875 40 "/>
<path style=" stroke:none;fill-rule:nonzero;fill:rgb(0%,0%,0%);fill-opacity:1;" d="M 109.421875 200 L 109.421875 180 L 129.421875 180 L 129.421875 200 Z M 109.421875 200 "/>
<path style=" stroke:none;fill-rule:nonzero;fill:rgb(0%,0%,0%);fill-opacity:1;" d="M 109.421875 160 L 109.421875 140 L 129.421875 140 L 129.421875 160 Z M 109.421875 160 "/>
<path style=" stroke:none;fill-rule:nonzero;fill:rgb(0%,0%,0%);fill-opacity:1;" d="M 109.421875 120 L 109.421875 100 L 129.421875 100 L 129.421875 120 Z M 109.421875 120 "/>
<path style=" stroke:none;fill-rule:nonzero;fill:rgb(0%,0%,0%);fill-opacity:1;" d="M 109.421875 80 L 109.421875 60 L 129.421875 60 L 129.421875 80 Z M 109.421875 80 "/>
<path style=" stroke:none;fill-rule:nonzero;fill:rgb(0%,0%,0%);fill-opacity:1;" d="M 109.421875 40 L 109.421875 20 L 129.421875 20 L 129.421875 40 Z M 109.421875 40 "/>
<path style=" stroke:none;fill-rule:nonzero;fill:rgb(0%,0%,0%);fill-opacity:1;" d="M 145.421875 200 L 145.421875 180 L 165.421875 180 L 165.421875 200 Z M 145.421875 200 "/>
<path style=" stroke:none;fill-rule:nonzero;fill:rgb(0%,0%,0%);fill-opacity:1;" d="M 145.421875 160 L 145.421875 140 L 165.421875 140 L 165.421875 160 Z M 145.421875 160 "/>
<path style=" stroke:none;fill-rule:nonzero;fill:rgb(0%,0%,0%);fill-opacity:1;" d="M 145.421875 120 L 145.421875 100 L 165.421875 100 L 165.421875 120 Z M 145.421875 120 "/>
<path style=" stroke:none;fill-rule:nonzero;fill:rgb(0%,0%,0%);fill-opacity:1;" d="M 145.421875 80 L 145.421875 60 L 165.421875 60 L 165.421875 80 Z M 145.421875 80 "/>
<path style=" stroke:none;fill-rule:nonzero;fill:rgb(0%,0%,0%);fill-opacity:1;" d="M 145.421875 40 L 145.421875 20 L 165.421875 20 L 165.421875 40 Z M 145.421875 40 "/>
<path style=" stroke:none;fill-rule:nonzero;fill:rgb(0%,0%,0%);fill-opacity:1;" d="M 181.421875 200 L 181.421875 180 L 201.421875 180 L 201.421875 200 Z M 181.421875 200 "/>
<path style=" stroke:none;fill-rule:nonzero;fill:rgb(0%,0%,0%);fill-opacity:1;" d="M 181.421875 160 L 181.421875 140 L 201.421875 140 L 201.421875 160 Z M 181.421875 160 "/>
<path style=" stroke:none;fill-rule:nonzero;fill:rgb(0%,0%,0%);fill-opacity:1;" d="M 181.421875 120 L 181.421875 100 L 201.421875 100 L 201.421875 120 Z M 181.421875 120 "/>
<path style=" stroke:none;fill-rule:nonzero;fill:rgb(0%,0%,0%);fill-opacity:1;" d="M 181.421875 80 L 181.421875 60 L 201.421875 60 L 201.421875 80 Z M 181.421875 80 "/>
<path style=" stroke:none;fill-rule:nonzero;fill:rgb(0%,0%,0%);fill-opacity:1;" d="M 181.421875 40 L 181.421875 20 L 201.421875 20 L 201.421875 40 Z M 181.421875 40 "/>
<path style=" stroke:none;fill-rule:nonzero;fill:rgb(0%,0%,0%);fill-opacity:1;" d="M 217.421875 200 L 217.421875 180 L 237.421875 180 L 237.421875 200 Z M 217.421875 200 "/>
<path style=" stroke:none;fill-rule:nonzero;fill:rgb(0%,0%,0%);fill-opacity:1;" d="M 217.421875 160 L 217.421875 140 L 237.421875 140 L 237.421875 160 Z M 217.421875 160 "/>
<path style=" stroke:none;fill-rule:nonzero;fill:rgb(0%,0%,0%);fill-opacity:1;" d="M 217.421875 120 L 217.421875 100 L 237.421875 100 L 237.421875 120 Z M 217.421875 120 "/>
<path style=" stroke:none;fill-rule:nonzero;fill:rgb(0%,0%,0%);fill-opacity:1;" d="M 217.421875 80 L 217.421875 60 L 237.421875 60 L 237.421875 80 Z M 217.421875 80 "/>
<path style=" stroke:none;fill-rule:nonzero;fill:rgb(0%,0%,0%);fill-opacity:1;" d="M 217.421875 40 L 217.421875 20 L 237.421875 20 L 237.421875 40 Z M 217.421875 40 "/>
<path style=" stroke:none;fill-rule:nonzero;fill:rgb(0%,0%,0%);fill-opacity:1;" d="M 253.421875 200 L 253.421875 180 L 273.421875 180 L 273.421875 200 Z M 253.421875 200 "/>
<path style=" stroke:none;fill-rule:nonzero;fill:rgb(0%,0%,0%);fill-opacity:1;" d="M 253.421875 160 L 253.421875 140 L 273.421875 140 L 273.421875 160 Z M 253.421875 160 "/>
<path style=" stroke:none;fill-rule:nonzero;fill:rgb(0%,0%,0%);fill-opacity:1;" d="M 253.421875 120 L 253.421875 100 L 273.421875 100 L 273.421875 120 Z M 253.421875 120 "/>
<path style=" stroke:none;fill-rule:nonzero;fill:rgb(0%,0%,0%);fill-opacity:1;" d="M 253.421875 80 L 253.421875 60 L 273.421875 60 L 273.421875 80 Z M 253.421875 80 "/>
<path style=" stroke:none;fill-rule:nonzero;fill:rgb(0%,0%,0%);fill-opacity:1;" d="M 253.421875 40 L 253.421875 20 L 273.421875 20 L 273.421875 40 Z M 253.421875 40 "/>
<path style=" stroke:none;fill-rule:nonzero;fill:rgb(0%,0%,0%);fill-opacity:1;" d="M 289.421875 200 L 289.421875 180 L 309.421875 180 L 309.421875 200 Z M 289.421875 200 "/>
<path style=" stroke:none;fill-rule:nonzero;fill:rgb(0%,0%,0%);fill-opacity:1;" d="M 289.421875 160 L 289.421875 140 L 309.421875 140 L 309.421875 160 Z M 289.421875 160 "/>
<path style=" stroke:none;fill-rule:nonzero;fill:rgb(0%,0%,0%);fill-opacity:1;" d="M 289.421875 120 L 289.421875 100 L 309.421875 100 L 309.421875 120 Z M 289.421875 120 "/>
<path style=" stroke:none;fill-rule:nonzero;fill:rgb(0%,0%,0%);fill-opacity:1;" d="M 289.421875 80 L 289.421875 60 L 309.421875 60 L 309.421875 80 Z M 289.421875 80 "/>
<path style=" stroke:none;fill-rule:nonzero;fill:rgb(0%,0%,0%);fill-opacity:1;" d="M 289.421875 40 L 289.421875 20 L 309.421875 20 L 309.421875 40 Z M 289.421875 40 "/>
<path style=" stroke:none;fill-rule:nonzero;fill:rgb(0%,0%,0%);fill-opacity:1;" d="M 325.421875 200 L 325.421875 180 L 345.421875 180 L 345.421875 200 Z M 325.421875 200 "/>
<path style=" stroke:none;fill-rule:nonzero;fill:rgb(0%,0%,0%);fill-opacity:1;" d="M 325.421875 160 L 325.421875 140 L 345.421875 140 L 345.421875 160 Z M 325.421875 160 "/>
<path style=" stroke:none;fill-rule:nonzero;fill:rgb(0%,0%,0%);fill-opacity:1;" d="M 325.421875 120 L 325.421875 100 L 345.421875 100 L 345.421875 120 Z M 325.421875 120 "/>
<path style=" stroke:none;fill-rule:nonzero;fill:rgb(0%,0%,0%);fill-opacity:1;" d="M 325.421875 80 L 325.421875 60 L 345.421875 60 L 345.421875 80 Z M 325.421875 80 "/>
<path style=" stroke:none;fill-rule:nonzero;fill:rgb(0%,0%,0%);fill-opacity:1;" d="M 325.421875 40 L 325.421875 20 L 345.421875 20 L 345.421875 40 Z M 325.421875 40 "/>
<path style=" stroke:none;fill-rule:nonzero;fill:rgb(0%,0%,0%);fill-opacity:1;" d="M 361.421875 200 L 361.421875 180 L 381.421875 180 L 381.421875 200 Z M 361.421875 200 "/>
<path style=" stroke:none;fill-rule:nonzero;fill:rgb(0%,0%,0%);fill-opacity:1;" d="M 361.421875 160 L 361.421875 140 L 381.421875 140 L 381.421875 160 Z M 361.421875 160 "/>
<path style=" stroke:none;fill-rule:nonzero;fill:rgb(0%,0%,0%);fill-opacity:1;" d="M 361.421875 120 L 361.421875 100 L 381.421875 100 L 381.421875 120 Z M 361.421875 120 "/>
<path style=" stroke:none;fill-rule:nonzero;fill:rgb(0%,0%,0%);fill-opacity:1;" d="M 361.421875 80 L 361.421875 60 L 381.421875 60 L 381.421875 80 Z M 361.421875 80 "/>
<path style=" stroke:none;fill-rule:nonzero;fill:rgb(0%,0%,0%);fill-opacity:1;" d="M 361.421875 40 L 361.421875 20 L 381.421875 20 L 381.421875 40 Z M 361.421875 40 "/>
<path style="fill:none;stroke-width:1;stroke-linecap:square;stroke-linejoin:miter;stroke:rgb(100%,0%,0%);stroke-opacity:1;stroke-miterlimit:3.25;" d="M 0 220 L 400 220 "/>
<path style="fill:none;stroke-width:1;stroke-linecap:square;stroke-linejoin:miter;stroke:rgb(100%,0%,0%);stroke-opacity:1;stroke-miterlimit:3.25;" d="M 0 200 L 400 200 "/>
<path style="fill:none;stroke-width:1;stroke-linecap:square;stroke-linejoin:miter;stroke:rgb(100%,0%,0%);stroke-opacity:1;stroke-miterlimit:3.25;" d="M 0 180 L 400 180 "/>
<path style="fill:none;stroke-width:1;stroke-linecap:square;stroke-linejoin:miter;stroke:rgb(100%,0%,0%);stroke-opacity:1;stroke-miterlimit:3.25;" d="M 0 160 L 400 160 "/>
<path style="fill:none;stroke-width:1;stroke-linecap:square;stroke-linejoin:miter;stroke:rgb(100%,0%,0%);stroke-opacity:1;stroke-miterlimit:3.25;" d="M 0 140 L 400 140 "/>
<path style="fill:none;stroke-width:1;stroke-linecap:square;stroke-linejoin:miter;stroke:rgb(100%,0%,0%);stroke-opacity:1;stroke-miterlimit:3.25;" d="M 0 120 L 400 120 "/>
<path style="fill:none;stroke-width:1;stroke-linecap:square;stroke-linejoin:miter;stroke:rgb(100%,0%,0%);stroke-opacity:1;stroke-miterlimit:3.25;" d="M 0 100 L 400 100 "/>
<path style="fill:none;stroke-width:1;stroke-linecap:square;stroke-linejoin:miter;stroke:rgb(100%,0%,0%);stroke-opacity:1;stroke-miterlimit:3.25;" d="M 0 80 L 400 80 "/>
<path style="fill:none;stroke-width:1;stroke-linecap:square;stroke-linejoin:miter;stroke:rgb(100%,0%,0%);stroke-opacity:1;stroke-miterlimit:3.25;" d="M 0 60 L 400 60 "/>
<path style="fill:none;stroke-width:1;stroke-linecap:square;stroke-linejoin:miter;stroke:rgb(100%,0%,0%);stroke-opacity:1;stroke-miterlimit:3.25;" d="M 0 40 L 400 40 "/>
<path style="fill:none;stroke-width:1;stroke-linecap:square;stroke-linejoin:miter;stroke:rgb(100%,0%,0%);stroke-opacity:1;stroke-miterlimit:3.25;" d="M 0 20 L 400 20 "/>
</g>
</svg>
