<?xml version="1.0" encoding="UTF-8"?>
<svg xmlns="http://www.w3.org/2000/svg" xmlns:xlink="http://www.w3.org/1999/xlink" width="400pt" height="220pt" viewBox="0 0 400 220" version="1.1">
<g id="surface516">
<rect x="0" y="0" width="400" height="220" style="fill:rgb(0%,40%,100%);fill-opacity:0.2;stroke:none;"/>
<path style=" stroke:none;fill-rule:nonzero;fill:rgb(0%,0%,0%);fill-opacity:1;" d="M 4.972656 220 L 4.972656 200 L 24.972656 200 L 24.972656 220 Z M 4.972656 220 "/>
<path style=" stroke:none;fill-rule:nonzero;fill:rgb(0%,0%,0%);fill-opacity:1;" d="M 4.972656 180 L 4.972656 160 L 24.972656 160 L 24.972656 180 Z M 4.972656 180 "/>
<path style=" stroke:none;fill-rule:nonzero;fill:rgb(0%,0%,0%);fill-opacity:1;" d="M 4.972656 140 L 4.972656 120 L 24.972656 120 L 24.972656 140 Z M 4.972656 140 "/>
<path style=" stroke:none;fill-rule:nonzero;fill:rgb(0%,0%,0%);fill-opacity:1;" d="M 4.972656 100 L 4.972656 80 L 24.972656 80 L 24.972656 100 Z M 4.972656 100 "/>
<path style=" stroke:none;fill-rule:nonzero;fill:rgb(0%,0%,0%);fill-opacity:1;" d="M 4.972656 60 L 4.972656 40 L 24.972656 40 L 24.972656 60 Z M 4.972656 60 "/>
<path style=" stroke:none;fill-rule:nonzero;fill:rgb(0%,0%,0%);fill-opacity:1;" d="M 4.972656 20 L 4.972656 0 L 24.972656 0 L 24.972656 20 Z M 4.972656 20 "/>
<path style=" stroke:none;fill-rule:nonzero;fill:rgb(0%,0%,0%);fill-opacity:1;" d="M 40.972656 220 L 40.972656 200 L 60.972656 200 L 60.972656 220 Z M 40.972656 220 "/>
<path style=" stroke:none;fill-rule:nonzero;fill:rgb(0%,0%,0%);fill-opacity:1;" d="M 40.972656 180 L 40.972656 160 L 60.972656 160 L 60.972656 180 Z M 40.972656 180 "/>
<path style=" stroke:none;fill-rule:nonzero;fill:rgb(0%,0%,0%);fill-opacity:1;" d="M 40.972656 140 L 40.972656 120 L 60.972656 120 L 60.972656 140 Z M 40.972656 140 "/>
<path style=" stroke:none;fill-rule:nonzero;fill:rgb(0%,0%,0%);fill-opacity:1;" d="M 40.972656 100 L 40.972656 80 L 60.972656 80 L 60.972656 100 Z M 40.972656 100 "/>
<path style=" stroke:none;fill-rule:nonzero;fill:rgb(0%,0%,0%);fill-opacity:1;" d="M 40.972656 60 L 40.972656 40 L 60.972656 40 L 60.972656 60 Z M 40.972656 60 "/>
<path style=" stroke:none;fill-rule:nonzero;fill:rgb(0%,0%,0%);fill-opacity:1;" d="M 40.972656 20 L 40.972656 0 L 60.972656 0 L 60.972656 20 Z M 40.972656 20 "/>
<path style=" stroke:none;fill-rule:nonzero;fill:rgb(0%,0%,0%);fill-opacity:1;" d="M 76.972656 220 L 76.972656 200 L 96.972656 200 L 96.972656 220 Z M 76.972656 220 "/>
<path style=" stroke:none;fill-rule:nonzero;fill:rgb(0%,0%,0%);fill-opacity:1;" d="M 76.972656 180 L 76.972656 160 L 96.972656 160 L 96.972656 180 Z M 76.972656 180 "/>
<path style=" stroke:none;fill-rule:nonzero;fill:rgb(0%,0%,0%);fill-opacity:1;" d="M 76.972656 140 L 76.972656 120 L 96.972656 120 L 96.972656 140 Z M 76.972656 140 "/>
<path style=" stroke:none;fill-rule:nonzero;fill:rgb(0%,0%,0%);fill-opacity:1;" d="M 76.972656 100 L 76.972656 80 L 96.972656 80 L 96.972656 100 Z M 76.972656 100 "/>
<path style=" stroke:none;fill-rule:nonzero;fill:rgb(0%,0%,0%);fill-opacity:1;" d="M 76.972656 60 L 76.972656 40 L 96.972656 40 L 96.972656 60 Z M 76.972656 60 "/>
<path style=" stroke:none;fill-rule:nonzero;fill:rgb(0%,0%,0%);fill-opacity:1;" d="M 76.972656 20 L 76.972656 0 L 96.972656 0 L 96.972656 20 Z M 76.972656 20 "/>
<path style=" stroke:none;fill-rule:nonzero;fill:rgb(0%,0%,0%);fill-opacity:1;" d="M 112.972656 220 L 112.972656 200 L 132.972656 200 L 132.972656 220 Z M 112.972656 220 "/>
<path style=" stroke:none;fill-rule:nonzero;fill:rgb(0%,0%,0%);fill-opacity:1;" d="M 112.972656 180 L 112.972656 160 L 132.972656 160 L 132.972656 180 Z M 112.972656 180 "/>
<path style=" stroke:none;fill-rule:nonzero;fill:rgb(0%,0%,0%);fill-opacity:1;" d="M 112.972656 140 L 112.972656 120 L 132.972656 120 L 132.972656 140 Z M 112.972656 140 "/>
<path style=" stroke:none;fill-rule:nonzero;fill:rgb(0%,0%,0%);fill-opacity:1;" d="M 112.972656 100 L 112.972656 80 L 132.972656 80 L 132.972656 100 Z M 112.972656 100 "/>
<path style=" stroke:none;fill-rule:nonzero;fill:rgb(0%,0%,0%);fill-opacity:1;" d="M 112.972656 60 L 112.972656 40 L 132.972656 40 L 132.972656 60 Z M 112.972656 60 "/>
<path style=" stroke:none;fill-rule:nonzero;fill:rgb(0%,0%,0%);fill-opacity:1;" d="M 112.972656 20 L 112.972656 0 L 132.972656 0 L 132.972656 20 Z M 112.972656 20 "/>
<path style=" stroke:none;fill-rule:nonzero;fill:rgb(0%,0%,0%);fill-opacity:1;" d="M 148.972656 220 L 148.972656 200 L 168.972656 200 L 168.972656 220 Z M 148.972656 220 "/>
<path style=" stroke:none;fill-rule:nonzero;fill:rgb(0%,0%,0%);fill-opacity:1;" d="M 148.972656 180 L 148.972656 160 L 168.972656 160 L 168.972656 180 Z M 148.972656 180 "/>
<path style=" stroke:none;fill-rule:nonzero;fill:rgb(0%,0%,0%);fill-opacity:1;" d="M 148.972656 140 L 148.972656 120 L 168.972656 120 L 168.972656 140 Z M 148.972656 140 "/>
<path style=" stroke:none;fill-rule:nonzero;fill:rgb(0%,0%,0%);fill-opacity:1;" d="M 148.972656 100 L 148.972656 80 L 168.972656 80 L 168.972656 100 Z M 148.972656 100 "/>
<path style=" stroke:none;fill-rule:nonzero;fill:rgb(0%,0%,0%);fill-opacity:1;" d="M 148.972656 60 L 148.972656 40 L 168.972656 40 L 168.972656 60 Z M 148.972656 60 "/>
<path style=" stroke:none;fill-rule:nonzero;fill:rgb(0%,0%,0%);fill-opacity:1;" d="M 148.972656 20 L 148.972656 0 L 168.972656 0 L 168.972656 20 Z M 148.972656 20 "/>
<path style=" stroke:none;fill-rule:nonzero;fill:rgb(0%,0%,0%);fill-opacity:1;" d="M 184.972656 220 L 184.972656 200 L 204.972656 200 L 204.972656 220 Z M 184.972656 220 "/>
<path style=" stroke:none;fill-rule:nonzero;fill:rgb(0%,0%,0%);fill-opacity:1;" d="M 184.972656 180 L 184.972656 160 L 204.972656 160 L 204.972656 180 Z M 184.972656 180 "/>
<path style=" stroke:none;fill-rule:nonzero;fill:rgb(0%,0%,0%);fill-opacity:1;" d="M 184.972656 140 L 184.972656 120 L 204.972656 120 L 204.972656 140 Z M 184.972656 140 "/>
<path style=" stroke:none;fill-rule:nonzero;fill:rgb(0%,0%,0%);fill-opacity:1;" d="M 184.972656 100 L 184.972656 80 L 204.972656 80 L 204.972656 100 Z M 184.972656 100 "/>
<path style=" stroke:none;fill-rule:nonzero;fill:rgb(0%,0%,0%);fill-opacity:1;" d="M 184.972656 60 L 184.972656 40 L 204.972656 40 L 204.972656 60 Z M 184.972656 60 "/>
<path style=" stroke:none;fill-rule:nonzero;fill:rgb(0%,0%,0%);fill-opacity:1;" d="M 184.972656 20 L 184.972656 0 L 204.972656 0 L 204.972656 20 Z M 184.972656 20 "/>
<path style=" stroke:none;fill-rule:nonzero;fill:rgb(0%,0%,0%);fill-opacity:1;" d="M 220.972656 220 L 220.972656 200 L 240.972656 200 L 240.972656 220 Z M 220.972656 220 "/>
<path style=" stroke:none;fill-rule:nonzero;fill:rgb(0%,0%,0%);fill-opacity:1;" d="M 220.972656 180 L 220.972656 160 L 240.972656 160 L 240.972656 180 Z M 220.972656 180 "/>
<path style=" stroke:none;fill-rule:nonzero;fill:rgb(0%,0%,0%);fill-opacity:1;" d="M 220.972656 140 L 220.972656 120 L 240.972656 120 L 240.972656 140 Z M 220.972656 140 "/>
<path style=" stroke:none;fill-rule:nonzero;fill:rgb(0%,0%,0%);fill-opacity:1;" d="M 220.972656 100 L 220.972656 80 L 240.972656 80 L 240.972656 100 Z M 220.972656 100 "/>
<path style=" stroke:none;fill-rule:nonzero;fill:rgb(0%,0%,0%);fill-opacity:1;" d="M 220.972656 60 L 220.972656 40 L 240.972656 40 L 240.972656 60 Z M 220.972656 60 "/>
<path style=" stroke:none;fill-rule:nonzero;fill:rgb(0%,0%,0%);fill-opacity:1;" d="M 220.972656 20 L 220.972656 0 L 240.972656 0 L 240.972656 20 Z M 220.972656 20 "/>
<path style=" stroke:none;fill-rule:nonzero;fill:rgb(0%,0%,0%);fill-opacity:1;" d="M 256.972656 220 L 256.972656 200 L 276.972656 200 L 276.972656 220 Z M 256.972656 220 "/>
<path style=" stroke:none;fill-rule:nonzero;fill:rgb(0%,0%,0%);fill-opacity:1;" d="M 256.972656 180 L 256.972656 160 L 276.972656 160 L 276.972656 180 Z M 256.972656 180 "/>
<path style=" stroke:none;fill-rule:nonzero;fill:rgb(0%,0%,0%);fill-opacity:1;" d="M 256.972656 140 L 256.972656 120 L 276.972656 120 L 276.972656 140 Z M 256.972656 140 "/>
<path style=" stroke:none;fill-rule:nonzero;fill:rgb(0%,0%,0%);fill-opacity:1;" d="M 256.972656 100 L 256.972656 80 L 276.972656 80 L 276.972656 100 Z M 256.972656 100 "/>
<path style=" stroke:none;fill-rule:nonzero;fill:rgb(0%,0%,0%);fill-opacity:1;" d="M 256.972656 60 L 256.972656 40 L 276.972656 40 L 276.972656 60 Z M 256.972656 60 "/>
<path style=" stroke:none;fill-rule:nonzero;fill:rgb(0%,0%,0%);fill-opacity:1;" d="M 256.972656 20 L 256.972656 0 L 276.972656 0 L 276.972656 20 Z M 256.972656 20 "/>
<path style=" stroke:none;fill-rule:nonzero;fill:rgb(0%,0%,0%);fill-opacity:1;" d="M 292.972656 220 L 292.972656 200 L 312.972656 200 L 312.972656 220 Z M 292.972656 220 "/>
<path style=" stroke:none;fill-rule:nonzero;fill:rgb(0%,0%,0%);fill-opacity:1;" d="M 292.972656 180 L 292.972656 160 L 312.972656 160 L 312.972656 180 Z M 292.972656 180 "/>
<path style=" stroke:none;fill-rule:nonzero;fill:rgb(0%,0%,0%);fill-opacity:1;" d="M 292.972656 140 L 292.972656 120 L 312.972656 120 L 312.972656 140 Z M 292.972656 140 "/>
<path style=" stroke:none;fill-rule:nonzero;fill:rgb(0%,0%,0%);fill-opacity:1;" d="M 292.972656 100 L 292.972656 80 L 312.972656 80 L 312.972656 100 Z M 292.972656 100 "/>
<path style=" stroke:none;fill-rule:nonzero;fill:rgb(0%,0%,0%);fill-opacity:1;" d="M 292.972656 60 L 292.972656 40 L 312.972656 40 L 312.972656 60 Z M 292.972656 60 "/>
<path style=" stroke:none;fill-rule:nonzero;fill:rgb(0%,0%,0%);fill-opacity:1;" d="M 292.972656 20 L 292.972656 0 L 312.972656 0 L 312.972656 20 Z M 292.972656 20 "/>
<path style=" stroke:none;fill-rule:nonzero;fill:rgb(0%,0%,0%);fill-opacity:1;" d="M 328.972656 220 L 328.972656 200 L 348.972656 200 L 348.972656 220 Z M 328.972656 220 "/>
<path style=" stroke:none;fill-rule:nonzero;fill:rgb(0%,0%,0%);fill-opacity:1;" d="M 328.972656 180 L 328.972656 160 L 348.972656 160 L 348.972656 180 Z M 328.972656 180 "/>
<path style=" stroke:none;fill-rule:nonzero;fill:rgb(0%,0%,0%);fill-opacity:1;" d="M 328.972656 140 L 328.972656 120 L 348.972656 120 L 348.972656 140 Z M 328.972656 140 "/>
<path style=" stroke:none;fill-rule:nonzero;fill:rgb(0%,0%,0%);fill-opacity:1;" d="M 328.972656 100 L 328.972656 80 L 348.972656 80 L 348.972656 100 Z M 328.972656 100 "/>
<path style=" stroke:none;fill-rule:nonzero;fill:rgb(0%,0%,0%);fill-opacity:1;" d="M 328.972656 60 L 328.972656 40 L 348.972656 40 L 348.972656 60 Z M 328.972656 60 "/>
<path style=" stroke:none;fill-rule:nonzero;fill:rgb(0%,0%,0%);fill-opacity:1;" d="M 328.972656 20 L 328.972656 0 L 348.972656 0 L 348.972656 20 Z M 328.972656 20 "/>
<path style=" stroke:none;fill-rule:nonzero;fill:rgb(0%,0%,0%);fill-opacity:1;" d="M 364.972656 220 L 364.972656 200 L 384.972656 200 L 384.972656 220 Z M 364.972656 220 "/>
<path style=" stroke:none;fill-rule:nonzero;fill:rgb(0%,0%,0%);fill-opacity:1;" d="M 364.972656 180 L 364.972656 160 L 384.972656 160 L 384.972656 180 Z M 364.972656 180 "/>
<path style=" stroke:none;fill-rule:nonzero;fill:rgb(0%,0%,0%);fill-opacity:1;" d="M 364.972656 140 L 364.972656 120 L 384.972656 120 L 384.972656 140 Z M 364.972656 140 "/>
<path style=" stroke:none;fill-rule:nonzero;fill:rgb(0%,0%,0%);fill-opacity:1;" d="M 364.972656 100 L 364.972656 80 L 384.972656 80 L 384.972656 100 Z M 364.972656 100 "/>
<path style=" stroke:none;fill-rule:nonzero;fill:rgb(0%,0%,0%);fill-opacity:1;" d="M 364.972656 60 L 364.972656 40 L 384.972656 40 L 384.972656 60 Z M 364.972656 60 "/>
<path style=" stroke:none;fill-rule:nonzero;fill:rgb(0%,0%,0%);fill-opacity:1;" d="M 364.972656 20 L 364.972656 0 L 384.972656 0 L 384.972656 20 Z M 364.972656 20 "/>
<path style=" stroke:none;fill-rule:nonzero;fill:rgb(0%,0%,0%);fill-opacity:1;" d="M -3.371094 200 L -3.371094 180 L 16.628906 180 L 16.628906 200 Z M -3.371094 200 "/>
<path style=" stroke:none;fill-rule:nonzero;fill:rgb(0%,0%,0%);fill-opacity:1;" d="M -3.371094 160 L -3.371094 140 L 16.628906 140 L 16.628906 160 Z M -3.371094 160 "/>
<path style=" stroke:none;fill-rule:nonzero;fill:rgb(0%,0%,0%);fill-opacity:1;" d="M -3.371094 120 L -3.371094 100 L 16.628906 100 L 16.628906 120 Z M -3.371094 120 "/>
<path style=" stroke:none;fill-rule:nonzero;fill:rgb(0%,0%,0%);fill-opacity:1;" d="M -3.371094 80 L -3.371094 60 L 16.628906 60 L 16.628906 80 Z M -3.371094 80 "/>
<path style=" stroke:none;fill-rule:nonzero;fill:rgb(0%,0%,0%);fill-opacity:1;" d="M -3.371094 40 L -3.371094 20 L 16.628906 20 L 16.628906 40 Z M -3.371094 40 "/>
<path style=" stroke:none;fill-rule:nonzero;fill:rgb(0%,0%,0%);fill-opacity:1;" d="M 32.628906 200 L 32.628906 180 L 52.628906 180 L 52.628906 200 Z M 32.628906 200 "/>
<path style=" stroke:none;fill-rule:nonzero;fill:rgb(0%,0%,0%);fill-opacity:1;" d="M 32.628906 160 L 32.628906 140 L 52.628906 140 L 52.628906 160 Z M 32.628906 160 "/>
<path style=" stroke:none;fill-rule:nonzero;fill:rgb(0%,0%,0%);fill-opacity:1;" d="M 32.628906 120 L 32.628906 100 L 52.628906 100 L 52.628906 120 Z M 32.628906 120 "/>
<path style=" stroke:none;fill-rule:nonzero;fill:rgb(0%,0%,0%);fill-opacity:1;" d="M 32.628906 80 L 32.628906 60 L 52.628906 60 L 52.628906 80 Z M 32.628906 80 "/>
<path style=" stroke:none;fill-rule:nonzero;fill:rgb(0%,0%,0%);fill-opacity:1;" d="M 32.628906 40 L 32.628906 20 L 52.628906 20 L 52.628906 40 Z M 32.628906 40 "/>
<path style=" stroke:none;fill-rule:nonzero;fill:rgb(0%,0%,0%);fill-opacity:1;" d="M 68.628906 200 L 68.628906 180 L 88.628906 180 L 88.628906 200 Z M 68.628906 200 "/>
<path style=" stroke:none;fill-rule:nonzero;fill:rgb(0%,0%,0%);fill-opacity:1;" d="M 68.628906 160 L 68.628906 140 L 88.628906 140 L 88.628906 160 Z M 68.628906 160 "/>
<path style=" stroke:none;fill-rule:nonzero;fill:rgb(0%,0%,0%);fill-opacity:1;" d="M 68.628906 120 L 68.628906 100 L 88.628906 100 L 88.628906 120 Z M 68.628906 120 "/>
<path style=" stroke:none;fill-rule:nonzero;fill:rgb(0%,0%,0%);fill-opacity:1;" d="M 68.628906 80 L 68.628906 60 L 88.628906 60 L 88.628906 80 Z M 68.628906 80 "/>
<path style=" stroke:none;fill-rule:nonzero;fill:rgb(0%,0%,0%);fill-opacity:1;" d="M 68.628906 40 L 68.628906 20 L 88.628906 20 L 88.628906 40 Z M 68.628906 40 "/>
<path style=" stroke:none;fill-rule:nonzero;fill:rgb(0%,0%,0%);fill-opacity:1;" d="M 104.628906 200 L 104.628906 180 L 124.628906 180 L 124.628906 200 Z M 104.628906 200 "/>
<path style=" stroke:none;fill-rule:nonzero;fill:rgb(0%,0%,0%);fill-opacity:1;" d="M 104.628906 160 L 104.628906 140 L 124.628906 140 L 124.628906 160 Z M 104.628906 160 "/>
<path style=" stroke:none;fill-rule:nonzero;fill:rgb(0%,0%,0%);fill-opacity:1;" d="M 104.628906 120 L 104.628906 100 L 124.628906 100 L 124.628906 120 Z M 104.628906 120 "/>
<path style=" stroke:none;fill-rule:nonzero;fill:rgb(0%,0%,0%);fill-opacity:1;" d="M 104.628906 80 L 104.628906 60 L 124.628906 60 L 124.628906 80 Z M 104.628906 80 "/>
<path style=" stroke:none;fill-rule:nonzero;fill:rgb(0%,0%,0%);fill-opacity:1;" d="M 104.628906 40 L 104.628906 20 L 124.628906 20 L 124.628906 40 Z M 104.628906 40 "/>
<path style=" stroke:none;fill-rule:nonzero;fill:rgb(0%,0%,0%);fill-opacity:1;" d="M 140.628906 200 L 140.628906 180 L 160.628906 180 L 160.628906 200 Z M 140.628906 200 "/>
<path style=" stroke:none;fill-rule:nonzero;fill:rgb(0%,0%,0%);fill-opacity:1;" d="M 140.628906 160 L 140.628906 140 L 160.628906 140 L 160.628906 160 Z M 140.628906 160 "/>
<path style=" stroke:none;fill-rule:nonzero;fill:rgb(0%,0%,0%);fill-opacity:1;" d="M 140.628906 120 L 140.628906 100 L 160.628906 100 L 160.628906 120 Z M 140.628906 120 "/>
<path style=" stroke:none;fill-rule:nonzero;fill:rgb(0%,0%,0%);fill-opacity:1;" d="M 140.628906 80 L 140.628906 60 L 160.628906 60 L 160.628906 80 Z M 140.628906 80 "/>
<path style=" stroke:none;fill-rule:nonzero;fill:rgb(0%,0%,0%);fill-opacity:1;" d="M 140.628906 40 L 140.628906 20 L 160.628906 20 L 160.628906 40 Z M 140.628906 40 "/>
<path style=" stroke:none;fill-rule:nonzero;fill:rgb(0%,0%,0%);fill-opacity:1;" d="M 176.628906 200 L 176.628906 180 L 196.628906 180 L 196.628906 200 Z M 176.628906 200 "/>
<path style=" stroke:none;fill-rule:nonzero;fill:rgb(0%,0%,0%);fill-opacity:1;" d="M 176.628906 160 L 176.628906 140 L 196.628906 140 L 196.628906 160 Z M 176.628906 160 "/>
<path style=" stroke:none;fill-rule:nonzero;fill:rgb(0%,0%,0%);fill-opacity:1;" d="M 176.628906 120 L 176.628906 100 L 196.628906 100 L 196.628906 120 Z M 176.628906 120 "/>
<path style=" stroke:none;fill-rule:nonzero;fill:rgb(0%,0%,0%);fill-opacity:1;" d="M 176.628906 80 L 176.628906 60 L 196.628906 60 L 196.628906 80 Z M 176.628906 80 "/>
<path style=" stroke:none;fill-rule:nonzero;fill:rgb(0%,0%,0%);fill-opacity:1;" d="M 176.628906 40 L 176.628906 20 L 196.628906 20 L 196.628906 40 Z M 176.628906 40 "/>
<path style=" stroke:none;fill-rule:nonzero;fill:rgb(0%,0%,0%);fill-opacity:1;" d="M 212.628906 200 L 212.628906 180 L 232.628906 180 L 232.628906 200 Z M 212.628906 200 "/>
<path style=" stroke:none;fill-rule:nonzero;fill:rgb(0%,0%,0%);fill-opacity:1;" d="M 212.628906 160 L 212.628906 140 L 232.628906 140 L 232.628906 160 Z M 212.628906 160 "/>
<path style=" stroke:none;fill-rule:nonzero;fill:rgb(0%,0%,0%);fill-opacity:1;" d="M 212.628906 120 L 212.628906 100 L 232.628906 100 L 232.628906 120 Z M 212.628906 120 "/>
<path style=" stroke:none;fill-rule:nonzero;fill:rgb(0%,0%,0%);fill-opacity:1;" d="M 212.628906 80 L 212.628906 60 L 232.628906 60 L 232.628906 80 Z M 212.628906 80 "/>
<path style=" stroke:none;fill-rule:nonzero;fill:rgb(0%,0%,0%);fill-opacity:1;" d="M 212.628906 40 L 212.628906 20 L 232.628906 20 L 232.628906 40 Z M 212.628906 40 "/>
<path style=" stroke:none;fill-rule:nonzero;fill:rgb(0%,0%,0%);fill-opacity:1;" d="M 248.628906 200 L 248.628906 180 L 268.628906 180 L 268.628906 200 Z M 248.628906 200 "/>
<path style=" stroke:none;fill-rule:nonzero;fill:rgb(0%,0%,0%);fill-opacity:1;" d="M 248.628906 160 L 248.628906 140 L 268.628906 140 L 268.628906 160 Z M 248.628906 160 "/>
<path style=" stroke:none;fill-rule:nonzero;fill:rgb(0%,0%,0%);fill-opacity:1;" d="M 248.628906 120 L 248.628906 100 L 268.628906 100 L 268.628906 120 Z M 248.628906 120 "/>
<path style=" stroke:none;fill-rule:nonzero;fill:rgb(0%,0%,0%);fill-opacity:1;" d="M 248.628906 80 L 248.628906 60 L 268.628906 60 L 268.628906 80 Z M 248.628906 80 "/>
<path style=" stroke:none;fill-rule:nonzero;fill:rgb(0%,0%,0%);fill-opacity:1;" d="M 248.628906 40 L 248.628906 20 L 268.628906 20 L 268.628906 40 Z M 248.628906 40 "/>
<path style=" stroke:none;fill-rule:nonzero;fill:rgb(0%,0%,0%);fill-opacity:1;" d="M 284.628906 200 L 284.628906 180 L 304.628906 180 L 304.628906 200 Z M 284.628906 200 "/>
<path style=" stroke:none;fill-rule:nonzero;fill:rgb(0%,0%,0%);fill-opacity:1;" d="M 284.628906 160 L 284.628906 140 L 304.628906 140 L 304.628906 160 Z M 284.628906 160 "/>
<path style=" stroke:none;fill-rule:nonzero;fill:rgb(0%,0%,0%);fill-opacity:1;" d="M 284.628906 120 L 284.628906 100 L 304.628906 100 L 304.628906 120 Z M 284.628906 120 "/>
<path style=" stroke:none;fill-rule:nonzero;fill:rgb(0%,0%,0%);fill-opacity:1;" d="M 284.628906 80 L 284.628906 60 L 304.628906 60 L 304.628906 80 Z M 284.628906 80 "/>
<path style=" stroke:none;fill-rule:nonzero;fill:rgb(0%,0%,0%);fill-opacity:1;" d="M 284.628906 40 L 284.628906 20 L 304.628906 20 L 304.628906 40 Z M 284.628906 40 "/>
<path style=" stroke:none;fill-rule:nonzero;fill:rgb(0%,0%,0%);fill-opacity:1;" d="M 320.628906 200 L 320.628906 180 L 340.628906 180 L 340.628906 200 Z M 320.628906 200 "/>
<path style=" stroke:none;fill-rule:nonzero;fill:rgb(0%,0%,0%);fill-opacity:1;" d="M 320.628906 160 L 320.628906 140 L 340.628906 140 L 340.628906 160 Z M 320.628906 160 "/>
<path style=" stroke:none;fill-rule:nonzero;fill:rgb(0%,0%,0%);fill-opacity:1;" d="M 320.628906 120 L 320.628906 100 L 340.628906 100 L 340.628906 120 Z M 320.628906 120 "/>
<path style=" stroke:none;fill-rule:nonzero;fill:rgb(0%,0%,0%);fill-opacity:1;" d="M 320.628906 80 L 320.628906 60 L 340.628906 60 L 340.628906 80 Z M 320.628906 80 "/>
<path style=" stroke:none;fill-rule:nonzero;fill:rgb(0%,0%,0%);fill-opacity:1;" d="M 320.628906 40 L 320.628906 20 L 340.628906 20 L 340.628906 40 Z M 320.628906 40 "/>
<path style=" stroke:none;fill-rule:nonzero;fill:rgb(0%,0%,0%);fill-opacity:1;" d="M 356.628906 200 L 356.628906 180 L 376.628906 180 L 376.628906 200 Z M 356.628906 200 "/>
<path style=" stroke:none;fill-rule:nonzero;fill:rgb(0%,0%,0%);fill-opacity:1;" d="M 356.628906 160 L 356.628906 140 L 376.628906 140 L 376.628906 160 Z M 356.628906 160 "/>
<path style=" stroke:none;fill-rule:nonzero;fill:rgb(0%,0%,0%);fill-opacity:1;" d="M 356.628906 120 L 356.628906 100 L 376.628906 100 L 376.628906 120 Z M 356.628906 120 "/>
<path style=" stroke:none;fill-rule:nonzero;fill:rgb(0%,0%,0%);fill-opacity:1;" d="M 356.628906 80 L 356.628906 60 L 376.628906 60 L 376.628906 80 Z M 356.628906 80 "/>
<path style=" stroke:none;fill-rule:nonzero;fill:rgb(0%,0%,0%);fill-opacity:1;" d="M 356.628906 40 L 356.628906 20 L 376.628906 20 L 376.628906 40 Z M 356.628906 40 "/>
<path style="fill:none;stroke-width:1;stroke-linecap:square;stroke-linejoin:miter;stroke:rgb(100%,0%,0%);stroke-opacity:1;stroke-miterlimit:3.25;" d="M 0 220 L 400 220 "/>
<path style="fill:none;stroke-width:1;stroke-linecap:square;stroke-linejoin:miter;stroke:rgb(100%,0%,0%);stroke-opacity:1;stroke-miterlimit:3.25;" d="M 0 200 L 400 200 "/>
<path style="fill:none;stroke-width:1;stroke-linecap:square;stroke-linejoin:miter;stroke:rgb(100%,0%,0%);stroke-opacity:1;stroke-miterlimit:3.25;" d="M 0 180 L 400 180 "/>
<path style="fill:none;stroke-width:1;stroke-linecap:square;stroke-linejoin:miter;stroke:rgb(100%,0%,0%);stroke-opacity:1;stroke-miterlimit:3.25;" d="M 0 160 L 400 160 "/>
<path style="fill:none;stroke-width:1;stroke-linecap:square;stroke-linejoin:miter;stroke:rgb(100%,0%,0%);stroke-opacity:1;stroke-miterlimit:3.25;" d="M 0 140 L 400 140 "/>
<path style="fill:none;stroke-width:1;stroke-linecap:square;stroke-linejoin:miter;stroke:rgb(100%,0%,0%);stroke-opacity:1;stroke-miterlimit:3.25;" d="M 0 120 L 400 120 "/>
<path style="fill:none;stroke-width:1;stroke-linecap:square;stroke-linejoin:miter;stroke:rgb(100%,0%,0%);stroke-opacity:1;stroke-miterlimit:3.25;" d="M 0 100 L 400 100 "/>
<path style="fill:none;stroke-width:1;stroke-linecap:square;stroke-linejoin:miter;stroke:rgb(100%,0%,0%);stroke-opacity:1;stroke-miterlimit:3.25;" d="M 0 80 L 400 80 "/>
<path style="fill:none;stroke-width:1;stroke-linecap:square;stroke-linejoin:miter;stroke:rgb(100%,0%,0%);stroke-opacity:1;stroke-miterlimit:3.25;" d="M 0 60 L 400 60 "/>
<path style="fill:none;stroke-width:1;stroke-linecap:square;stroke-linejoin:miter;stroke:rgb(100%,0%,0%);stroke-opacity:1;stroke-miterlimit:3.25;" d="M 0 40 L 400 40 "/>
<path style="fill:none;stroke-width:1;stroke-linecap:square;stroke-linejoin:miter;stroke:rgb(100%,0%,0%);stroke-opacity:1;stroke-miterlimit:3.25;" d="M 0 20 L 400 20 "/>
</g>
</svg>
