<?xml version="1.0" encoding="UTF-8"?>
<svg xmlns="http://www.w3.org/2000/svg" xmlns:xlink="http://www.w3.org/1999/xlink" width="400pt" height="220pt" viewBox="0 0 400 220" version="1.1">
<g id="surface511">
<rect x="0" y="0" width="400" height="220" style="fill:rgb(0%,40%,100%);fill-opacity:0.2;stroke:none;"/>
<path style=" stroke:none;fill-rule:nonzero;fill:rgb(0%,0%,0%);fill-opacity:1;" d="M 3.746094 220 L 3.746094 200 L 23.746094 200 L 23.746094 220 Z M 3.746094 220 "/>
<path style=" stroke:none;fill-rule:nonzero;fill:rgb(0%,0%,0%);fill-opacity:1;" d="M 3.746094 180 L 3.746094 160 L 23.746094 160 L 23.746094 180 Z M 3.746094 180 "/>
<path style=" stroke:none;fill-rule:nonzero;fill:rgb(0%,0%,0%);fill-opacity:1;" d="M 3.746094 140 L 3.746094 120 L 23.746094 120 L 23.746094 140 Z M 3.746094 140 "/>
<path style=" stroke:none;fill-rule:nonzero;fill:rgb(0%,0%,0%);fill-opacity:1;" d="M 3.746094 100 L 3.746094 80 L 23.746094 80 L 23.746094 100 Z M 3.746094 100 "/>
<path style=" stroke:none;fill-rule:nonzero;fill:rgb(0%,0%,0%);fill-opacity:1;" d="M 3.746094 60 L 3.746094 40 L 23.746094 40 L 23.746094 60 Z M 3.746094 60 "/>
<path style=" stroke:none;fill-rule:nonzero;fill:rgb(0%,0%,0%);fill-opacity:1;" d="M 3.746094 20 L 3.746094 0 L 23.746094 0 L 23.746094 20 Z M 3.746094 20 "/>
<path style=" stroke:none;fill-rule:nonzero;fill:rgb(0%,0%,0%);fill-opacity:1;" d="M 39.746094 220 L 39.746094 200 L 59.746094 200 L 59.746094 220 Z M 39.746094 220 "/>
<path style=" stroke:none;fill-rule:nonzero;fill:rgb(0%,0%,0%);fill-opacity:1;" d="M 39.746094 180 L 39.746094 160 L 59.746094 160 L 59.746094 180 Z M 39.746094 180 "/>
<path style=" stroke:none;fill-rule:nonzero;fill:rgb(0%,0%,0%);fill-opacity:1;" d="M 39.746094 140 L 39.746094 120 L 59.746094 120 L 59.746094 140 Z M 39.746094 140 "/>
<path style=" stroke:none;fill-rule:nonzero;fill:rgb(0%,0%,0%);fill-opacity:1;" d="M 39.746094 100 L 39.746094 80 L 59.746094 80 L 59.746094 100 Z M 39.746094 100 "/>
<path style=" stroke:none;fill-rule:nonzero;fill:rgb(0%,0%,0%);fill-opacity:1;" d="M 39.746094 60 L 39.746094 40 L 59.746094 40 L 59.746094 60 Z M 39.746094 60 "/>
<path style=" stroke:none;fill-rule:nonzero;fill:rgb(0%,0%,0%);fill-opacity:1;" d="M 39.746094 20 L 39.746094 0 L 59.746094 0 L 59.746094 20 Z M 39.746094 20 "/>
<path style=" stroke:none;fill-rule:nonzero;fill:rgb(0%,0%,0%);fill-opacity:1;" d="M 75.746094 220 L 75.746094 200 L 95.746094 200 L 95.746094 220 Z M 75.746094 220 "/>
<path style=" stroke:none;fill-rule:nonzero;fill:rgb(0%,0%,0%);fill-opacity:1;" d="M 75.746094 180 L 75.746094 160 L 95.746094 160 L 95.746094 180 Z M 75.746094 180 "/>
<path style=" stroke:none;fill-rule:nonzero;fill:rgb(0%,0%,0%);fill-opacity:1;" d="M 75.746094 140 L 75.746094 120 L 95.746094 120 L 95.746094 140 Z M 75.746094 140 "/>
<path style=" stroke:none;fill-rule:nonzero;fill:rgb(0%,0%,0%);fill-opacity:1;" d="M 75.746094 100 L 75.746094 80 L 95.746094 80 L 95.746094 100 Z M 75.746094 100 "/>
<path style=" stroke:none;fill-rule:nonzero;fill:rgb(0%,0%,0%);fill-opacity:1;" d="M 75.746094 60 L 75.746094 40 L 95.746094 40 L 95.746094 60 Z M 75.746094 60 "/>
<path style=" stroke:none;fill-rule:nonzero;fill:rgb(0%,0%,0%);fill-opacity:1;" d="M 75.746094 20 L 75.746094 0 L 95.746094 0 L 95.746094 20 Z M 75.746094 20 "/>
<path style=" stroke:none;fill-rule:nonzero;fill:rgb(0%,0%,0%);fill-opacity:1;" d="M 111.746094 220 L 111.746094 200 L 131.746094 200 L 131.746094 220 Z M 111.746094 220 "/>
<path style=" stroke:none;fill-rule:nonzero;fill:rgb(0%,0%,0%);fill-opacity:1;" d="M 111.746094 180 L 111.746094 160 L 131.746094 160 L 131.746094 180 Z M 111.746094 180 "/>
<path style=" stroke:none;fill-rule:nonzero;fill:rgb(0%,0%,0%);fill-opacity:1;" d="M 111.746094 140 L 111.746094 120 L 131.746094 120 L 131.746094 140 Z M 111.746094 140 "/>
<path style=" stroke:none;fill-rule:nonzero;fill:rgb(0%,0%,0%);fill-opacity:1;" d="M 111.746094 100 L 111.746094 80 L 131.746094 80 L 131.746094 100 Z M 111.746094 100 "/>
<path style=" stroke:none;fill-rule:nonzero;fill:rgb(0%,0%,0%);fill-opacity:1;" d="M 111.746094 60 L 111.746094 40 L 131.746094 40 L 131.746094 60 Z M 111.746094 60 "/>
<path style=" stroke:none;fill-rule:nonzero;fill:rgb(0%,0%,0%);fill-opacity:1;" d="M 111.746094 20 L 111.746094 0 L 131.746094 0 L 131.746094 20 Z M 111.746094 20 "/>
<path style=" stroke:none;fill-rule:nonzero;fill:rgb(0%,0%,0%);fill-opacity:1;" d="M 147.746094 220 L 147.746094 200 L 167.746094 200 L 167.746094 220 Z M 147.746094 220 "/>
<path style=" stroke:none;fill-rule:nonzero;fill:rgb(0%,0%,0%);fill-opacity:1;" d="M 147.746094 180 L 147.746094 160 L 167.746094 160 L 167.746094 180 Z M 147.746094 180 "/>
<path style=" stroke:none;fill-rule:nonzero;fill:rgb(0%,0%,0%);fill-opacity:1;" d="M 147.746094 140 L 147.746094 120 L 167.746094 120 L 167.746094 140 Z M 147.746094 140 "/>
<path style=" stroke:none;fill-rule:nonzero;fill:rgb(0%,0%,0%);fill-opacity:1;" d="M 147.746094 100 L 147.746094 80 L 167.746094 80 L 167.746094 100 Z M 147.746094 100 "/>
<path style=" stroke:none;fill-rule:nonzero;fill:rgb(0%,0%,0%);fill-opacity:1;" d="M 147.746094 60 L 147.746094 40 L 167.746094 40 L 167.746094 60 Z M 147.746094 60 "/>
<path style=" stroke:none;fill-rule:nonzero;fill:rgb(0%,0%,0%);fill-opacity:1;" d="M 147.746094 20 L 147.746094 0 L 167.746094 0 L 167.746094 20 Z M 147.746094 20 "/>
<path style=" stroke:none;fill-rule:nonzero;fill:rgb(0%,0%,0%);fill-opacity:1;" d="M 183.746094 220 L 183.746094 200 L 203.746094 200 L 203.746094 220 Z M 183.746094 220 "/>
<path style=" stroke:none;fill-rule:nonzero;fill:rgb(0%,0%,0%);fill-opacity:1;" d="M 183.746094 180 L 183.746094 160 L 203.746094 160 L 203.746094 180 Z M 183.746094 180 "/>
<path style=" stroke:none;fill-rule:nonzero;fill:rgb(0%,0%,0%);fill-opacity:1;" d="M 183.746094 140 L 183.746094 120 L 203.746094 120 L 203.746094 140 Z M 183.746094 140 "/>
<path style=" stroke:none;fill-rule:nonzero;fill:rgb(0%,0%,0%);fill-opacity:1;" d="M 183.746094 100 L 183.746094 80 L 203.746094 80 L 203.746094 100 Z M 183.746094 100 "/>
<path style=" stroke:none;fill-rule:nonzero;fill:rgb(0%,0%,0%);fill-opacity:1;" d="M 183.746094 60 L 183.746094 40 L 203.746094 40 L 203.746094 60 Z M 183.746094 60 "/>
<path style=" stroke:none;fill-rule:nonzero;fill:rgb(0%,0%,0%);fill-opacity:1;" d="M 183.746094 20 L 183.746094 0 L 203.746094 0 L 203.746094 20 Z M 183.746094 20 "/>
<path style=" stroke:none;fill-rule:nonzero;fill:rgb(0%,0%,0%);fill-opacity:1;" d="M 219.746094 220 L 219.746094 200 L 239.746094 200 L 239.746094 220 Z M 219.746094 220 "/>
<path style=" stroke:none;fill-rule:nonzero;fill:rgb(0%,0%,0%);fill-opacity:1;" d="M 219.746094 180 L 219.746094 160 L 239.746094 160 L 239.746094 180 Z M 219.746094 180 "/>
<path style=" stroke:none;fill-rule:nonzero;fill:rgb(0%,0%,0%);fill-opacity:1;" d="M 219.746094 140 L 219.746094 120 L 239.746094 120 L 239.746094 140 Z M 219.746094 140 "/>
<path style=" stroke:none;fill-rule:nonzero;fill:rgb(0%,0%,0%);fill-opacity:1;" d="M 219.746094 100 L 219.746094 80 L 239.746094 80 L 239.746094 100 Z M 219.746094 100 "/>
<path style=" stroke:none;fill-rule:nonzero;fill:rgb(0%,0%,0%);fill-opacity:1;" d="M 219.746094 60 L 219.746094 40 L 239.746094 40 L 239.746094 60 Z M 219.746094 60 "/>
<path style=" stroke:none;fill-rule:nonzero;fill:rgb(0%,0%,0%);fill-opacity:1;" d="M 219.746094 20 L 219.746094 0 L 239.746094 0 L 239.746094 20 Z M 219.746094 20 "/>
<path style=" stroke:none;fill-rule:nonzero;fill:rgb(0%,0%,0%);fill-opacity:1;" d="M 255.746094 220 L 255.746094 200 L 275.746094 200 L 275.746094 220 Z M 255.746094 220 "/>
<path style=" stroke:none;fill-rule:nonzero;fill:rgb(0%,0%,0%);fill-opacity:1;" d="M 255.746094 180 L 255.746094 160 L 275.746094 160 L 275.746094 180 Z M 255.746094 180 "/>
<path style=" stroke:none;fill-rule:nonzero;fill:rgb(0%,0%,0%);fill-opacity:1;" d="M 255.746094 140 L 255.746094 120 L 275.746094 120 L 275.746094 140 Z M 255.746094 140 "/>
<path style=" stroke:none;fill-rule:nonzero;fill:rgb(0%,0%,0%);fill-opacity:1;" d="M 255.746094 100 L 255.746094 80 L 275.746094 80 L 275.746094 100 Z M 255.746094 100 "/>
<path style=" stroke:none;fill-rule:nonzero;fill:rgb(0%,0%,0%);fill-opacity:1;" d="M 255.746094 60 L 255.746094 40 L 275.746094 40 L 275.746094 60 Z M 255.746094 60 "/>
<path style=" stroke:none;fill-rule:nonzero;fill:rgb(0%,0%,0%);fill-opacity:1;" d="M 255.746094 20 L 255.746094 0 L 275.746094 0 L 275.746094 20 Z M 255.746094 20 "/>
<path style=" stroke:none;fill-rule:nonzero;fill:rgb(0%,0%,0%);fill-opacity:1;" d="M 291.746094 220 L 291.746094 200 L 311.746094 200 L 311.746094 220 Z M 291.746094 220 "/>
<path style=" stroke:none;fill-rule:nonzero;fill:rgb(0%,0%,0%);fill-opacity:1;" d="M 291.746094 180 L 291.746094 160 L 311.746094 160 L 311.746094 180 Z M 291.746094 180 "/>
<path style=" stroke:none;fill-rule:nonzero;fill:rgb(0%,0%,0%);fill-opacity:1;" d="M 291.746094 140 L 291.746094 120 L 311.746094 120 L 311.746094 140 Z M 291.746094 140 "/>
<path style=" stroke:none;fill-rule:nonzero;fill:rgb(0%,0%,0%);fill-opacity:1;" d="M 291.746094 100 L 291.746094 80 L 311.746094 80 L 311.746094 100 Z M 291.746094 100 "/>
<path style=" stroke:none;fill-rule:nonzero;fill:rgb(0%,0%,0%);fill-opacity:1;" d="M 291.746094 60 L 291.746094 40 L 311.746094 40 L 311.746094 60 Z M 291.746094 60 "/>
<path style=" stroke:none;fill-rule:nonzero;fill:rgb(0%,0%,0%);fill-opacity:1;" d="M 291.746094 20 L 291.746094 0 L 311.746094 0 L 311.746094 20 Z M 291.746094 20 "/>
<path style=" stroke:none;fill-rule:nonzero;fill:rgb(0%,0%,0%);fill-opacity:1;" d="M 327.746094 220 L 327.746094 200 L 347.746094 200 L 347.746094 220 Z M 327.746094 220 "/>
<path style=" stroke:none;fill-rule:nonzero;fill:rgb(0%,0%,0%);fill-opacity:1;" d="M 327.746094 180 L 327.746094 160 L 347.746094 160 L 347.746094 180 Z M 327.746094 180 "/>
<path style=" stroke:none;fill-rule:nonzero;fill:rgb(0%,0%,0%);fill-opacity:1;" d="M 327.746094 140 L 327.746094 120 L 347.746094 120 L 347.746094 140 Z M 327.746094 140 "/>
<path style=" stroke:none;fill-rule:nonzero;fill:rgb(0%,0%,0%);fill-opacity:1;" d="M 327.746094 100 L 327.746094 80 L 347.746094 80 L 347.746094 100 Z M 327.746094 100 "/>
<path style=" stroke:none;fill-rule:nonzero;fill:rgb(0%,0%,0%);fill-opacity:1;" d="M 327.746094 60 L 327.746094 40 L 347.746094 40 L 347.746094 60 Z M 327.746094 60 "/>
<path style=" stroke:none;fill-rule:nonzero;fill:rgb(0%,0%,0%);fill-opacity:1;" d="M 327.746094 20 L 327.746094 0 L 347.746094 0 L 347.746094 20 Z M 327.746094 20 "/>
<path style=" stroke:none;fill-rule:nonzero;fill:rgb(0%,0%,0%);fill-opacity:1;" d="M 363.746094 220 L 363.746094 200 L 383.746094 200 L 383.746094 220 Z M 363.746094 220 "/>
<path style=" stroke:none;fill-rule:nonzero;fill:rgb(0%,0%,0%);fill-opacity:1;" d="M 363.746094 180 L 363.746094 160 L 383.746094 160 L 383.746094 180 Z M 363.746094 180 "/>
<path style=" stroke:none;fill-rule:nonzero;fill:rgb(0%,0%,0%);fill-opacity:1;" d="M 363.746094 140 L 363.746094 120 L 383.746094 120 L 383.746094 140 Z M 363.746094 140 "/>
<path style=" stroke:none;fill-rule:nonzero;fill:rgb(0%,0%,0%);fill-opacity:1;" d="M 363.746094 100 L 363.746094 80 L 383.746094 80 L 383.746094 100 Z M 363.746094 100 "/>
<path style=" stroke:none;fill-rule:nonzero;fill:rgb(0%,0%,0%);fill-opacity:1;" d="M 363.746094 60 L 363.746094 40 L 383.746094 40 L 383.746094 60 Z M 363.746094 60 "/>
<path style=" stroke:none;fill-rule:nonzero;fill:rgb(0%,0%,0%);fill-opacity:1;" d="M 363.746094 20 L 363.746094 0 L 383.746094 0 L 383.746094 20 Z M 363.746094 20 "/>
<path style=" stroke:none;fill-rule:nonzero;fill:rgb(0%,0%,0%);fill-opacity:1;" d="M 399.746094 220 L 399.746094 200 L 419.746094 200 L 419.746094 220 Z M 399.746094 220 "/>
<path style=" stroke:none;fill-rule:nonzero;fill:rgb(0%,0%,0%);fill-opacity:1;" d="M 399.746094 180 L 399.746094 160 L 419.746094 160 L 419.746094 180 Z M 399.746094 180 "/>
<path style=" stroke:none;fill-rule:nonzero;fill:rgb(0%,0%,0%);fill-opacity:1;" d="M 399.746094 140 L 399.746094 120 L 419.746094 120 L 419.746094 140 Z M 399.746094 140 "/>
<path style=" stroke:none;fill-rule:nonzero;fill:rgb(0%,0%,0%);fill-opacity:1;" d="M 399.746094 100 L 399.746094 80 L 419.746094 80 L 419.746094 100 Z M 399.746094 100 "/>
<path style=" stroke:none;fill-rule:nonzero;fill:rgb(0%,0%,0%);fill-opacity:1;" d="M 399.746094 60 L 399.746094 40 L 419.746094 40 L 419.746094 60 Z M 399.746094 60 "/>
<path style=" stroke:none;fill-rule:nonzero;fill:rgb(0%,0%,0%);fill-opacity:1;" d="M 399.746094 20 L 399.746094 0 L 419.746094 0 L 419.746094 20 Z M 399.746094 20 "/>
<path style=" stroke:none;fill-rule:nonzero;fill:rgb(0%,0%,0%);fill-opacity:1;" d="M -3.644531 200 L -3.644531 180 L 16.355469 180 L 16.355469 200 Z M -3.644531 200 "/>
<path style=" stroke:none;fill-rule:nonzero;fill:rgb(0%,0%,0%);fill-opacity:1;" d="M -3.644531 160 L -3.644531 140 L 16.355469 140 L 16.355469 160 Z M -3.644531 160 "/>
<path style=" stroke:none;fill-rule:nonzero;fill:rgb(0%,0%,0%);fill-opacity:1;" d="M -3.644531 120 L -3.644531 100 L 16.355469 100 L 16.355469 120 Z M -3.644531 120 "/>
<path style=" stroke:none;fill-rule:nonzero;fill:rgb(0%,0%,0%);fill-opacity:1;" d="M -3.644531 80 L -3.644531 60 L 16.355469 60 L 16.355469 80 Z M -3.644531 80 "/>
<path style=" stroke:none;fill-rule:nonzero;fill:rgb(0%,0%,0%);fill-opacity:1;" d="M -3.644531 40 L -3.644531 20 L 16.355469 20 L 16.355469 40 Z M -3.644531 40 "/>
<path style=" stroke:none;fill-rule:nonzero;fill:rgb(0%,0%,0%);fill-opacity:1;" d="M 32.355469 200 L 32.355469 180 L 52.355469 180 L 52.355469 200 Z M 32.355469 200 "/>
<path style=" stroke:none;fill-rule:nonzero;fill:rgb(0%,0%,0%);fill-opacity:1;" d="M 32.355469 160 L 32.355469 140 L 52.355469 140 L 52.355469 160 Z M 32.355469 160 "/>
<path style=" stroke:none;fill-rule:nonzero;fill:rgb(0%,0%,0%);fill-opacity:1;" d="M 32.355469 120 L 32.355469 100 L 52.355469 100 L 52.355469 120 Z M 32.355469 120 "/>
<path style=" stroke:none;fill-rule:nonzero;fill:rgb(0%,0%,0%);fill-opacity:1;" d="M 32.355469 80 L 32.355469 60 L 52.355469 60 L 52.355469 80 Z M 32.355469 80 "/>
<path style=" stroke:none;fill-rule:nonzero;fill:rgb(0%,0%,0%);fill-opacity:1;" d="M 32.355469 40 L 32.355469 20 L 52.355469 20 L 52.355469 40 Z M 32.355469 40 "/>
<path style=" stroke:none;fill-rule:nonzero;fill:rgb(0%,0%,0%);fill-opacity:1;" d="M 68.355469 200 L 68.355469 180 L 88.355469 180 L 88.355469 200 Z M 68.355469 200 "/>
<path style=" stroke:none;fill-rule:nonzero;fill:rgb(0%,0%,0%);fill-opacity:1;" d="M 68.355469 160 L 68.355469 140 L 88.355469 140 L 88.355469 160 Z M 68.355469 160 "/>
<path style=" stroke:none;fill-rule:nonzero;fill:rgb(0%,0%,0%);fill-opacity:1;" d="M 68.355469 120 L 68.355469 100 L 88.355469 100 L 88.355469 120 Z M 68.355469 120 "/>
<path style=" stroke:none;fill-rule:nonzero;fill:rgb(0%,0%,0%);fill-opacity:1;" d="M 68.355469 80 L 68.355469 60 L 88.355469 60 L 88.355469 80 Z M 68.355469 80 "/>
<path style=" stroke:none;fill-rule:nonzero;fill:rgb(0%,0%,0%);fill-opacity:1;" d="M 68.355469 40 L 68.355469 20 L 88.355469 20 L 88.355469 40 Z M 68.355469 40 "/>
<path style=" stroke:none;fill-rule:nonzero;fill:rgb(0%,0%,0%);fill-opacity:1;" d="M 104.355469 200 L 104.355469 180 L 124.355469 180 L 124.355469 200 Z M 104.355469 200 "/>
<path style=" stroke:none;fill-rule:nonzero;fill:rgb(0%,0%,0%);fill-opacity:1;" d="M 104.355469 160 L 104.355469 140 L 124.355469 140 L 124.355469 160 Z M 104.355469 160 "/>
<path style=" stroke:none;fill-rule:nonzero;fill:rgb(0%,0%,0%);fill-opacity:1;" d="M 104.355469 120 L 104.355469 100 L 124.355469 100 L 124.355469 120 Z M 104.355469 120 "/>
<path style=" stroke:none;fill-rule:nonzero;fill:rgb(0%,0%,0%);fill-opacity:1;" d="M 104.355469 80 L 104.355469 60 L 124.355469 60 L 124.355469 80 Z M 104.355469 80 "/>
<path style=" stroke:none;fill-rule:nonzero;fill:rgb(0%,0%,0%);fill-opacity:1;" d="M 104.355469 40 L 104.355469 20 L 124.355469 20 L 124.355469 40 Z M 104.355469 40 "/>
<path style=" stroke:none;fill-rule:nonzero;fill:rgb(0%,0%,0%);fill-opacity:1;" d="M 140.355469 200 L 140.355469 180 L 160.355469 180 L 160.355469 200 Z M 140.355469 200 "/>
<path style=" stroke:none;fill-rule:nonzero;fill:rgb(0%,0%,0%);fill-opacity:1;" d="M 140.355469 160 L 140.355469 140 L 160.355469 140 L 160.355469 160 Z M 140.355469 160 "/>
<path style=" stroke:none;fill-rule:nonzero;fill:rgb(0%,0%,0%);fill-opacity:1;" d="M 140.355469 120 L 140.355469 100 L 160.355469 100 L 160.355469 120 Z M 140.355469 120 "/>
<path style=" stroke:none;fill-rule:nonzero;fill:rgb(0%,0%,0%);fill-opacity:1;" d="M 140.355469 80 L 140.355469 60 L 160.355469 60 L 160.355469 80 Z M 140.355469 80 "/>
<path style=" stroke:none;fill-rule:nonzero;fill:rgb(0%,0%,0%);fill-opacity:1;" d="M 140.355469 40 L 140.355469 20 L 160.355469 20 L 160.355469 40 Z M 140.355469 40 "/>
<path style=" stroke:none;fill-rule:nonzero;fill:rgb(0%,0%,0%);fill-opacity:1;" d="M 176.355469 200 L 176.355469 180 L 196.355469 180 L 196.355469 200 Z M 176.355469 200 "/>
<path style=" stroke:none;fill-rule:nonzero;fill:rgb(0%,0%,0%);fill-opacity:1;" d="M 176.355469 160 L 176.355469 140 L 196.355469 140 L 196.355469 160 Z M 176.355469 160 "/>
<path style=" stroke:none;fill-rule:nonzero;fill:rgb(0%,0%,0%);fill-opacity:1;" d="M 176.355469 120 L 176.355469 100 L 196.355469 100 L 196.355469 120 Z M 176.355469 120 "/>
<path style=" stroke:none;fill-rule:nonzero;fill:rgb(0%,0%,0%);fill-opacity:1;" d="M 176.355469 80 L 176.355469 60 L 196.355469 60 L 196.355469 80 Z M 176.355469 80 "/>
<path style=" stroke:none;fill-rule:nonzero;fill:rgb(0%,0%,0%);fill-opacity:1;" d="M 176.355469 40 L 176.355469 20 L 196.355469 20 L 196.355469 40 Z M 176.355469 40 "/>
<path style=" stroke:none;fill-rule:nonzero;fill:rgb(0%,0%,0%);fill-opacity:1;" d="M 212.355469 200 L 212.355469 180 L 232.355469 180 L 232.355469 200 Z M 212.355469 200 "/>
<path style=" stroke:none;fill-rule:nonzero;fill:rgb(0%,0%,0%);fill-opacity:1;" d="M 212.355469 160 L 212.355469 140 L 232.355469 140 L 232.355469 160 Z M 212.355469 160 "/>
<path style=" stroke:none;fill-rule:nonzero;fill:rgb(0%,0%,0%);fill-opacity:1;" d="M 212.355469 120 L 212.355469 100 L 232.355469 100 L 232.355469 120 Z M 212.355469 120 "/>
<path style=" stroke:none;fill-rule:nonzero;fill:rgb(0%,0%,0%);fill-opacity:1;" d="M 212.355469 80 L 212.355469 60 L 232.355469 60 L 232.355469 80 Z M 212.355469 80 "/>
<path style=" stroke:none;fill-rule:nonzero;fill:rgb(0%,0%,0%);fill-opacity:1;" d="M 212.355469 40 L 212.355469 20 L 232.355469 20 L 232.355469 40 Z M 212.355469 40 "/>
<path style=" stroke:none;fill-rule:nonzero;fill:rgb(0%,0%,0%);fill-opacity:1;" d="M 248.355469 200 L 248.355469 180 L 268.355469 180 L 268.355469 200 Z M 248.355469 200 "/>
<path style=" stroke:none;fill-rule:nonzero;fill:rgb(0%,0%,0%);fill-opacity:1;" d="M 248.355469 160 L 248.355469 140 L 268.355469 140 L 268.355469 160 Z M 248.355469 160 "/>
<path style=" stroke:none;fill-rule:nonzero;fill:rgb(0%,0%,0%);fill-opacity:1;" d="M 248.355469 120 L 248.355469 100 L 268.355469 100 L 268.355469 120 Z M 248.355469 120 "/>
<path style=" stroke:none;fill-rule:nonzero;fill:rgb(0%,0%,0%);fill-opacity:1;" d="M 248.355469 80 L 248.355469 60 L 268.355469 60 L 268.355469 80 Z M 248.355469 80 "/>
<path style=" stroke:none;fill-rule:nonzero;fill:rgb(0%,0%,0%);fill-opacity:1;" d="M 248.355469 40 L 248.355469 20 L 268.355469 20 L 268.355469 40 Z M 248.355469 40 "/>
<path style=" stroke:none;fill-rule:nonzero;fill:rgb(0%,0%,0%);fill-opacity:1;" d="M 284.355469 200 L 284.355469 180 L 304.355469 180 L 304.355469 200 Z M 284.355469 200 "/>
<path style=" stroke:none;fill-rule:nonzero;fill:rgb(0%,0%,0%);fill-opacity:1;" d="M 284.355469 160 L 284.355469 140 L 304.355469 140 L 304.355469 160 Z M 284.355469 160 "/>
<path style=" stroke:none;fill-rule:nonzero;fill:rgb(0%,0%,0%);fill-opacity:1;" d="M 284.355469 120 L 284.355469 100 L 304.355469 100 L 304.355469 120 Z M 284.355469 120 "/>
<path style=" stroke:none;fill-rule:nonzero;fill:rgb(0%,0%,0%);fill-opacity:1;" d="M 284.355469 80 L 284.355469 60 L 304.355469 60 L 304.355469 80 Z M 284.355469 80 "/>
<path style=" stroke:none;fill-rule:nonzero;fill:rgb(0%,0%,0%);fill-opacity:1;" d="M 284.355469 40 L 284.355469 20 L 304.355469 20 L 304.355469 40 Z M 284.355469 40 "/>
<path style=" stroke:none;fill-rule:nonzero;fill:rgb(0%,0%,0%);fill-opacity:1;" d="M 320.355469 200 L 320.355469 180 L 340.355469 180 L 340.355469 200 Z M 320.355469 200 "/>
<path style=" stroke:none;fill-rule:nonzero;fill:rgb(0%,0%,0%);fill-opacity:1;" d="M 320.355469 160 L 320.355469 140 L 340.355469 140 L 340.355469 160 Z M 320.355469 160 "/>
<path style=" stroke:none;fill-rule:nonzero;fill:rgb(0%,0%,0%);fill-opacity:1;" d="M 320.355469 120 L 320.355469 100 L 340.355469 100 L 340.355469 120 Z M 320.355469 120 "/>
<path style=" stroke:none;fill-rule:nonzero;fill:rgb(0%,0%,0%);fill-opacity:1;" d="M 320.355469 80 L 320.355469 60 L 340.355469 60 L 340.355469 80 Z M 320.355469 80 "/>
<path style=" stroke:none;fill-rule:nonzero;fill:rgb(0%,0%,0%);fill-opacity:1;" d="M 320.355469 40 L 320.355469 20 L 340.355469 20 L 340.355469 40 Z M 320.355469 40 "/>
<path style=" stroke:none;fill-rule:nonzero;fill:rgb(0%,0%,0%);fill-opacity:1;" d="M 356.355469 200 L 356.355469 180 L 376.355469 180 L 376.355469 200 Z M 356.355469 200 "/>
<path style=" stroke:none;fill-rule:nonzero;fill:rgb(0%,0%,0%);fill-opacity:1;" d="M 356.355469 160 L 356.355469 140 L 376.355469 140 L 376.355469 160 Z M 356.355469 160 "/>
<path style=" stroke:none;fill-rule:nonzero;fill:rgb(0%,0%,0%);fill-opacity:1;" d="M 356.355469 120 L 356.355469 100 L 376.355469 100 L 376.355469 120 Z M 356.355469 120 "/>
<path style=" stroke:none;fill-rule:nonzero;fill:rgb(0%,0%,0%);fill-opacity:1;" d="M 356.355469 80 L 356.355469 60 L 376.355469 60 L 376.355469 80 Z M 356.355469 80 "/>
<path style=" stroke:none;fill-rule:nonzero;fill:rgb(0%,0%,0%);fill-opacity:1;" d="M 356.355469 40 L 356.355469 20 L 376.355469 20 L 376.355469 40 Z M 356.355469 40 "/>
<path style="fill:none;stroke-width:1;stroke-linecap:square;stroke-linejoin:miter;stroke:rgb(100%,0%,0%);stroke-opacity:1;stroke-miterlimit:3.25;" d="M 0 220 L 400 220 "/>
<path style="fill:none;stroke-width:1;stroke-linecap:square;stroke-linejoin:miter;stroke:rgb(100%,0%,0%);stroke-opacity:1;stroke-miterlimit:3.25;" d="M 0 200 L 400 200 "/>
<path style="fill:none;stroke-width:1;stroke-linecap:square;stroke-linejoin:miter;stroke:rgb(100%,0%,0%);stroke-opacity:1;stroke-miterlimit:3.25;" d="M 0 180 L 400 180 "/>
<path style="fill:none;stroke-width:1;stroke-linecap:square;stroke-linejoin:miter;stroke:rgb(100%,0%,0%);stroke-opacity:1;stroke-miterlimit:3.25;" d="M 0 160 L 400 160 "/>
<path style="fill:none;stroke-width:1;stroke-linecap:square;stroke-linejoin:miter;stroke:rgb(100%,0%,0%);stroke-opacity:1;stroke-miterlimit:3.25;" d="M 0 140 L 400 140 "/>
<path style="fill:none;stroke-width:1;stroke-linecap:square;stroke-linejoin:miter;stroke:rgb(100%,0%,0%);stroke-opacity:1;stroke-miterlimit:3.25;" d="M 0 120 L 400 120 "/>
<path style="fill:none;stroke-width:1;stroke-linecap:square;stroke-linejoin:miter;stroke:rgb(100%,0%,0%);stroke-opacity:1;stroke-miterlimit:3.25;" d="M 0 100 L 400 100 "/>
<path style="fill:none;stroke-width:1;stroke-linecap:square;stroke-linejoin:miter;stroke:rgb(100%,0%,0%);stroke-opacity:1;stroke-miterlimit:3.25;" d="M 0 80 L 400 80 "/>
<path style="fill:none;stroke-width:1;stroke-linecap:square;stroke-linejoin:miter;stroke:rgb(100%,0%,0%);stroke-opacity:1;stroke-miterlimit:3.25;" d="M 0 60 L 400 60 "/>
<path style="fill:none;stroke-width:1;stroke-linecap:square;stroke-linejoin:miter;stroke:rgb(100%,0%,0%);stroke-opacity:1;stroke-miterlimit:3.25;" d="M 0 40 L 400 40 "/>
<path style="fill:none;stroke-width:1;stroke-linecap:square;stroke-linejoin:miter;stroke:rgb(100%,0%,0%);stroke-opacity:1;stroke-miterlimit:3.25;" d="M 0 20 L 400 20 "/>
</g>
</svg>
