<?xml version="1.0" encoding="UTF-8"?>
<svg xmlns="http://www.w3.org/2000/svg" xmlns:xlink="http://www.w3.org/1999/xlink" width="400pt" height="220pt" viewBox="0 0 400 220" version="1.1">
<g id="surface821">
<rect x="0" y="0" width="400" height="220" style="fill:rgb(0%,40%,100%);fill-opacity:0.2;stroke:none;"/>
<path style=" stroke:none;fill-rule:nonzero;fill:rgb(0%,0%,0%);fill-opacity:1;" d="M -16.179688 220 L -16.179688 200 L 3.820312 200 L 3.820312 220 Z M -16.179688 220 "/>
<path style=" stroke:none;fill-rule:nonzero;fill:rgb(0%,0%,0%);fill-opacity:1;" d="M -16.179688 180 L -16.179688 160 L 3.820312 160 L 3.820312 180 Z M -16.179688 180 "/>
<path style=" stroke:none;fill-rule:nonzero;fill:rgb(0%,0%,0%);fill-opacity:1;" d="M -16.179688 140 L -16.179688 120 L 3.820312 120 L 3.820312 140 Z M -16.179688 140 "/>
<path style=" stroke:none;fill-rule:nonzero;fill:rgb(0%,0%,0%);fill-opacity:1;" d="M -16.179688 100 L -16.179688 80 L 3.820312 80 L 3.820312 100 Z M -16.179688 100 "/>
<path style=" stroke:none;fill-rule:nonzero;fill:rgb(0%,0%,0%);fill-opacity:1;" d="M -16.179688 60 L -16.179688 40 L 3.820312 40 L 3.820312 60 Z M -16.179688 60 "/>
<path style=" stroke:none;fill-rule:nonzero;fill:rgb(0%,0%,0%);fill-opacity:1;" d="M -16.179688 20 L -16.179688 0 L 3.820312 0 L 3.820312 20 Z M -16.179688 20 "/>
<path style=" stroke:none;fill-rule:nonzero;fill:rgb(0%,0%,0%);fill-opacity:1;" d="M 19.820312 220 L 19.820312 200 L 39.820312 200 L 39.820312 220 Z M 19.820312 220 "/>
<path style=" stroke:none;fill-rule:nonzero;fill:rgb(0%,0%,0%);fill-opacity:1;" d="M 19.820312 180 L 19.820312 160 L 39.820312 160 L 39.820312 180 Z M 19.820312 180 "/>
<path style=" stroke:none;fill-rule:nonzero;fill:rgb(0%,0%,0%);fill-opacity:1;" d="M 19.820312 140 L 19.820312 120 L 39.820312 120 L 39.820312 140 Z M 19.820312 140 "/>
<path style=" stroke:none;fill-rule:nonzero;fill:rgb(0%,0%,0%);fill-opacity:1;" d="M 19.820312 100 L 19.820312 80 L 39.820312 80 L 39.820312 100 Z M 19.820312 100 "/>
<path style=" stroke:none;fill-rule:nonzero;fill:rgb(0%,0%,0%);fill-opacity:1;" d="M 19.820312 60 L 19.820312 40 L 39.820312 40 L 39.820312 60 Z M 19.820312 60 "/>
<path style=" stroke:none;fill-rule:nonzero;fill:rgb(0%,0%,0%);fill-opacity:1;" d="M 19.820312 20 L 19.820312 0 L 39.820312 0 L 39.820312 20 Z M 19.820312 20 "/>
<path style=" stroke:none;fill-rule:nonzero;fill:rgb(0%,0%,0%);fill-opacity:1;" d="M 55.820312 220 L 55.820312 200 L 75.820312 200 L 75.820312 220 Z M 55.820312 220 "/>
<path style=" stroke:none;fill-rule:nonzero;fill:rgb(0%,0%,0%);fill-opacity:1;" d="M 55.820312 180 L 55.820312 160 L 75.820312 160 L 75.820312 180 Z M 55.820312 180 "/>
<path style=" stroke:none;fill-rule:nonzero;fill:rgb(0%,0%,0%);fill-opacity:1;" d="M 55.820312 140 L 55.820312 120 L 75.820312 120 L 75.820312 140 Z M 55.820312 140 "/>
<path style=" stroke:none;fill-rule:nonzero;fill:rgb(0%,0%,0%);fill-opacity:1;" d="M 55.820312 100 L 55.820312 80 L 75.820312 80 L 75.820312 100 Z M 55.820312 100 "/>
<path style=" stroke:none;fill-rule:nonzero;fill:rgb(0%,0%,0%);fill-opacity:1;" d="M 55.820312 60 L 55.820312 40 L 75.820312 40 L 75.820312 60 Z M 55.820312 60 "/>
<path style=" stroke:none;fill-rule:nonzero;fill:rgb(0%,0%,0%);fill-opacity:1;" d="M 55.820312 20 L 55.820312 0 L 75.820312 0 L 75.820312 20 Z M 55.820312 20 "/>
<path style=" stroke:none;fill-rule:nonzero;fill:rgb(0%,0%,0%);fill-opacity:1;" d="M 91.820312 220 L 91.820312 200 L 111.820312 200 L 111.820312 220 Z M 91.820312 220 "/>
<path style=" stroke:none;fill-rule:nonzero;fill:rgb(0%,0%,0%);fill-opacity:1;" d="M 91.820312 180 L 91.820312 160 L 111.820312 160 L 111.820312 180 Z M 91.820312 180 "/>
<path style=" stroke:none;fill-rule:nonzero;fill:rgb(0%,0%,0%);fill-opacity:1;" d="M 91.820312 140 L 91.820312 120 L 111.820312 120 L 111.820312 140 Z M 91.820312 140 "/>
<path style=" stroke:none;fill-rule:nonzero;fill:rgb(0%,0%,0%);fill-opacity:1;" d="M 91.820312 100 L 91.820312 80 L 111.820312 80 L 111.820312 100 Z M 91.820312 100 "/>
<path style=" stroke:none;fill-rule:nonzero;fill:rgb(0%,0%,0%);fill-opacity:1;" d="M 91.820312 60 L 91.820312 40 L 111.820312 40 L 111.820312 60 Z M 91.820312 60 "/>
<path style=" stroke:none;fill-rule:nonzero;fill:rgb(0%,0%,0%);fill-opacity:1;" d="M 91.820312 20 L 91.820312 0 L 111.820312 0 L 111.820312 20 Z M 91.820312 20 "/>
<path style=" stroke:none;fill-rule:nonzero;fill:rgb(0%,0%,0%);fill-opacity:1;" d="M 127.820312 220 L 127.820312 200 L 147.820312 200 L 147.820312 220 Z M 127.820312 220 "/>
<path style=" stroke:none;fill-rule:nonzero;fill:rgb(0%,0%,0%);fill-opacity:1;" d="M 127.820312 180 L 127.820312 160 L 147.820312 160 L 147.820312 180 Z M 127.820312 180 "/>
<path style=" stroke:none;fill-rule:nonzero;fill:rgb(0%,0%,0%);fill-opacity:1;" d="M 127.820312 140 L 127.820312 120 L 147.820312 120 L 147.820312 140 Z M 127.820312 140 "/>
<path style=" stroke:none;fill-rule:nonzero;fill:rgb(0%,0%,0%);fill-opacity:1;" d="M 127.820312 100 L 127.820312 80 L 147.820312 80 L 147.820312 100 Z M 127.820312 100 "/>
<path style=" stroke:none;fill-rule:nonzero;fill:rgb(0%,0%,0%);fill-opacity:1;" d="M 127.820312 60 L 127.820312 40 L 147.820312 40 L 147.820312 60 Z M 127.820312 60 "/>
<path style=" stroke:none;fill-rule:nonzero;fill:rgb(0%,0%,0%);fill-opacity:1;" d="M 127.820312 20 L 127.820312 0 L 147.820312 0 L 147.820312 20 Z M 127.820312 20 "/>
<path style=" stroke:none;fill-rule:nonzero;fill:rgb(0%,0%,0%);fill-opacity:1;" d="M 163.820312 220 L 163.820312 200 L 183.820312 200 L 183.820312 220 Z M 163.820312 220 "/>
<path style=" stroke:none;fill-rule:nonzero;fill:rgb(0%,0%,0%);fill-opacity:1;" d="M 163.820312 180 L 163.820312 160 L 183.820312 160 L 183.820312 180 Z M 163.820312 180 "/>
<path style=" stroke:none;fill-rule:nonzero;fill:rgb(0%,0%,0%);fill-opacity:1;" d="M 163.820312 140 L 163.820312 120 L 183.820312 120 L 183.820312 140 Z M 163.820312 140 "/>
<path style=" stroke:none;fill-rule:nonzero;fill:rgb(0%,0%,0%);fill-opacity:1;" d="M 163.820312 100 L 163.820312 80 L 183.820312 80 L 183.820312 100 Z M 163.820312 100 "/>
<path style=" stroke:none;fill-rule:nonzero;fill:rgb(0%,0%,0%);fill-opacity:1;" d="M 163.820312 60 L 163.820312 40 L 183.820312 40 L 183.820312 60 Z M 163.820312 60 "/>
<path style=" stroke:none;fill-rule:nonzero;fill:rgb(0%,0%,0%);fill-opacity:1;" d="M 163.820312 20 L 163.820312 0 L 183.820312 0 L 183.820312 20 Z M 163.820312 20 "/>
<path style=" stroke:none;fill-rule:nonzero;fill:rgb(0%,0%,0%);fill-opacity:1;" d="M 199.820312 220 L 199.820312 200 L 219.820312 200 L 219.820312 220 Z M 199.820312 220 "/>
<path style=" stroke:none;fill-rule:nonzero;fill:rgb(0%,0%,0%);fill-opacity:1;" d="M 199.820312 180 L 199.820312 160 L 219.820312 160 L 219.820312 180 Z M 199.820312 180 "/>
<path style=" stroke:none;fill-rule:nonzero;fill:rgb(0%,0%,0%);fill-opacity:1;" d="M 199.820312 140 L 199.820312 120 L 219.820312 120 L 219.820312 140 Z M 199.820312 140 "/>
<path style=" stroke:none;fill-rule:nonzero;fill:rgb(0%,0%,0%);fill-opacity:1;" d="M 199.820312 100 L 199.820312 80 L 219.820312 80 L 219.820312 100 Z M 199.820312 100 "/>
<path style=" stroke:none;fill-rule:nonzero;fill:rgb(0%,0%,0%);fill-opacity:1;" d="M 199.820312 60 L 199.820312 40 L 219.820312 40 L 219.820312 60 Z M 199.820312 60 "/>
<path style=" stroke:none;fill-rule:nonzero;fill:rgb(0%,0%,0%);fill-opacity:1;" d="M 199.820312 20 L 199.820312 0 L 219.820312 0 L 219.820312 20 Z M 199.820312 20 "/>
<path style=" stroke:none;fill-rule:nonzero;fill:rgb(0%,0%,0%);fill-opacity:1;" d="M 235.820312 220 L 235.820312 200 L 255.820312 200 L 255.820312 220 Z M 235.820312 220 "/>
<path style=" stroke:none;fill-rule:nonzero;fill:rgb(0%,0%,0%);fill-opacity:1;" d="M 235.820312 180 L 235.820312 160 L 255.820312 160 L 255.820312 180 Z M 235.820312 180 "/>
<path style=" stroke:none;fill-rule:nonzero;fill:rgb(0%,0%,0%);fill-opacity:1;" d="M 235.820312 140 L 235.820312 120 L 255.820312 120 L 255.820312 140 Z M 235.820312 140 "/>
<path style=" stroke:none;fill-rule:nonzero;fill:rgb(0%,0%,0%);fill-opacity:1;" d="M 235.820312 100 L 235.820312 80 L 255.820312 80 L 255.820312 100 Z M 235.820312 100 "/>
<path style=" stroke:none;fill-rule:nonzero;fill:rgb(0%,0%,0%);fill-opacity:1;" d="M 235.820312 60 L 235.820312 40 L 255.820312 40 L 255.820312 60 Z M 235.820312 60 "/>
<path style=" stroke:none;fill-rule:nonzero;fill:rgb(0%,0%,0%);fill-opacity:1;" d="M 235.820312 20 L 235.820312 0 L 255.820312 0 L 255.820312 20 Z M 235.820312 20 "/>
<path style=" stroke:none;fill-rule:nonzero;fill:rgb(0%,0%,0%);fill-opacity:1;" d="M 271.820312 220 L 271.820312 200 L 291.820312 200 L 291.820312 220 Z M 271.820312 220 "/>
<path style=" stroke:none;fill-rule:nonzero;fill:rgb(0%,0%,0%);fill-opacity:1;" d="M 271.820312 180 L 271.820312 160 L 291.820312 160 L 291.820312 180 Z M 271.820312 180 "/>
<path style=" stroke:none;fill-rule:nonzero;fill:rgb(0%,0%,0%);fill-opacity:1;" d="M 271.820312 140 L 271.820312 120 L 291.820312 120 L 291.820312 140 Z M 271.820312 140 "/>
<path style=" stroke:none;fill-rule:nonzero;fill:rgb(0%,0%,0%);fill-opacity:1;" d="M 271.820312 100 L 271.820312 80 L 291.820312 80 L 291.820312 100 Z M 271.820312 100 "/>
<path style=" stroke:none;fill-rule:nonzero;fill:rgb(0%,0%,0%);fill-opacity:1;" d="M 271.820312 60 L 271.820312 40 L 291.820312 40 L 291.820312 60 Z M 271.820312 60 "/>
<path style=" stroke:none;fill-rule:nonzero;fill:rgb(0%,0%,0%);fill-opacity:1;" d="M 271.820312 20 L 271.820312 0 L 291.820312 0 L 291.820312 20 Z M 271.820312 20 "/>
<path style=" stroke:none;fill-rule:nonzero;fill:rgb(0%,0%,0%);fill-opacity:1;" d="M 307.820312 220 L 307.820312 200 L 327.820312 200 L 327.820312 220 Z M 307.820312 220 "/>
<path style=" stroke:none;fill-rule:nonzero;fill:rgb(0%,0%,0%);fill-opacity:1;" d="M 307.820312 180 L 307.820312 160 L 327.820312 160 L 327.820312 180 Z M 307.820312 180 "/>
<path style=" stroke:none;fill-rule:nonzero;fill:rgb(0%,0%,0%);fill-opacity:1;" d="M 307.820312 140 L 307.820312 120 L 327.820312 120 L 327.820312 140 Z M 307.820312 140 "/>
<path style=" stroke:none;fill-rule:nonzero;fill:rgb(0%,0%,0%);fill-opacity:1;" d="M 307.820312 100 L 307.820312 80 L 327.820312 80 L 327.820312 100 Z M 307.820312 100 "/>
<path style=" stroke:none;fill-rule:nonzero;fill:rgb(0%,0%,0%);fill-opacity:1;" d="M 307.820312 60 L 307.820312 40 L 327.820312 40 L 327.820312 60 Z M 307.820312 60 "/>
<path style=" stroke:none;fill-rule:nonzero;fill:rgb(0%,0%,0%);fill-opacity:1;" d="M 307.820312 20 L 307.820312 0 L 327.820312 0 L 327.820312 20 Z M 307.820312 20 "/>
<path style=" stroke:none;fill-rule:nonzero;fill:rgb(0%,0%,0%);fill-opacity:1;" d="M 343.820312 220 L 343.820312 200 L 363.820312 200 L 363.820312 220 Z M 343.820312 220 "/>
<path style=" stroke:none;fill-rule:nonzero;fill:rgb(0%,0%,0%);fill-opacity:1;" d="M 343.820312 180 L 343.820312 160 L 363.820312 160 L 363.820312 180 Z M 343.820312 180 "/>
<path style=" stroke:none;fill-rule:nonzero;fill:rgb(0%,0%,0%);fill-opacity:1;" d="M 343.820312 140 L 343.820312 120 L 363.820312 120 L 363.820312 140 Z M 343.820312 140 "/>
<path style=" stroke:none;fill-rule:nonzero;fill:rgb(0%,0%,0%);fill-opacity:1;" d="M 343.820312 100 L 343.820312 80 L 363.820312 80 L 363.820312 100 Z M 343.820312 100 "/>
<path style=" stroke:none;fill-rule:nonzero;fill:rgb(0%,0%,0%);fill-opacity:1;" d="M 343.820312 60 L 343.820312 40 L 363.820312 40 L 363.820312 60 Z M 343.820312 60 "/>
<path style=" stroke:none;fill-rule:nonzero;fill:rgb(0%,0%,0%);fill-opacity:1;" d="M 343.820312 20 L 343.820312 0 L 363.820312 0 L 363.820312 20 Z M 343.820312 20 "/>
<path style=" stroke:none;fill-rule:nonzero;fill:rgb(0%,0%,0%);fill-opacity:1;" d="M 379.820312 220 L 379.820312 200 L 399.820312 200 L 399.820312 220 Z M 379.820312 220 "/>
<path style=" stroke:none;fill-rule:nonzero;fill:rgb(0%,0%,0%);fill-opacity:1;" d="M 379.820312 180 L 379.820312 160 L 399.820312 160 L 399.820312 180 Z M 379.820312 180 "/>
<path style=" stroke:none;fill-rule:nonzero;fill:rgb(0%,0%,0%);fill-opacity:1;" d="M 379.820312 140 L 379.820312 120 L 399.820312 120 L 399.820312 140 Z M 379.820312 140 "/>
<path style=" stroke:none;fill-rule:nonzero;fill:rgb(0%,0%,0%);fill-opacity:1;" d="M 379.820312 100 L 379.820312 80 L 399.820312 80 L 399.820312 100 Z M 379.820312 100 "/>
<path style=" stroke:none;fill-rule:nonzero;fill:rgb(0%,0%,0%);fill-opacity:1;" d="M 379.820312 60 L 379.820312 40 L 399.820312 40 L 399.820312 60 Z M 379.820312 60 "/>
<path style=" stroke:none;fill-rule:nonzero;fill:rgb(0%,0%,0%);fill-opacity:1;" d="M 379.820312 20 L 379.820312 0 L 399.820312 0 L 399.820312 20 Z M 379.820312 20 "/>
<path style=" stroke:none;fill-rule:nonzero;fill:rgb(0%,0%,0%);fill-opacity:1;" d="M -8.246094 200 L -8.246094 180 L 11.753906 180 L 11.753906 200 Z M -8.246094 200 "/>
<path style=" stroke:none;fill-rule:nonzero;fill:rgb(0%,0%,0%);fill-opacity:1;" d="M -8.246094 160 L -8.246094 140 L 11.753906 140 L 11.753906 160 Z M -8.246094 160 "/>
<path style=" stroke:none;fill-rule:nonzero;fill:rgb(0%,0%,0%);fill-opacity:1;" d="M -8.246094 120 L -8.246094 100 L 11.753906 100 L 11.753906 120 Z M -8.246094 120 "/>
<path style=" stroke:none;fill-rule:nonzero;fill:rgb(0%,0%,0%);fill-opacity:1;" d="M -8.246094 80 L -8.246094 60 L 11.753906 60 L 11.753906 80 Z M -8.246094 80 "/>
<path style=" stroke:none;fill-rule:nonzero;fill:rgb(0%,0%,0%);fill-opacity:1;" d="M -8.246094 40 L -8.246094 20 L 11.753906 20 L 11.753906 40 Z M -8.246094 40 "/>
<path style=" stroke:none;fill-rule:nonzero;fill:rgb(0%,0%,0%);fill-opacity:1;" d="M 27.753906 200 L 27.753906 180 L 47.753906 180 L 47.753906 200 Z M 27.753906 200 "/>
<path style=" stroke:none;fill-rule:nonzero;fill:rgb(0%,0%,0%);fill-opacity:1;" d="M 27.753906 160 L 27.753906 140 L 47.753906 140 L 47.753906 160 Z M 27.753906 160 "/>
<path style=" stroke:none;fill-rule:nonzero;fill:rgb(0%,0%,0%);fill-opacity:1;" d="M 27.753906 120 L 27.753906 100 L 47.753906 100 L 47.753906 120 Z M 27.753906 120 "/>
<path style=" stroke:none;fill-rule:nonzero;fill:rgb(0%,0%,0%);fill-opacity:1;" d="M 27.753906 80 L 27.753906 60 L 47.753906 60 L 47.753906 80 Z M 27.753906 80 "/>
<path style=" stroke:none;fill-rule:nonzero;fill:rgb(0%,0%,0%);fill-opacity:1;" d="M 27.753906 40 L 27.753906 20 L 47.753906 20 L 47.753906 40 Z M 27.753906 40 "/>
<path style=" stroke:none;fill-rule:nonzero;fill:rgb(0%,0%,0%);fill-opacity:1;" d="M 63.753906 200 L 63.753906 180 L 83.753906 180 L 83.753906 200 Z M 63.753906 200 "/>
<path style=" stroke:none;fill-rule:nonzero;fill:rgb(0%,0%,0%);fill-opacity:1;" d="M 63.753906 160 L 63.753906 140 L 83.753906 140 L 83.753906 160 Z M 63.753906 160 "/>
<path style=" stroke:none;fill-rule:nonzero;fill:rgb(0%,0%,0%);fill-opacity:1;" d="M 63.753906 120 L 63.753906 100 L 83.753906 100 L 83.753906 120 Z M 63.753906 120 "/>
<path style=" stroke:none;fill-rule:nonzero;fill:rgb(0%,0%,0%);fill-opacity:1;" d="M 63.753906 80 L 63.753906 60 L 83.753906 60 L 83.753906 80 Z M 63.753906 80 "/>
<path style=" stroke:none;fill-rule:nonzero;fill:rgb(0%,0%,0%);fill-opacity:1;" d="M 63.753906 40 L 63.753906 20 L 83.753906 20 L 83.753906 40 Z M 63.753906 40 "/>
<path style=" stroke:none;fill-rule:nonzero;fill:rgb(0%,0%,0%);fill-opacity:1;" d="M 99.753906 200 L 99.753906 180 L 119.753906 180 L 119.753906 200 Z M 99.753906 200 "/>
<path style=" stroke:none;fill-rule:nonzero;fill:rgb(0%,0%,0%);fill-opacity:1;" d="M 99.753906 160 L 99.753906 140 L 119.753906 140 L 119.753906 160 Z M 99.753906 160 "/>
<path style=" stroke:none;fill-rule:nonzero;fill:rgb(0%,0%,0%);fill-opacity:1;" d="M 99.753906 120 L 99.753906 100 L 119.753906 100 L 119.753906 120 Z M 99.753906 120 "/>
<path style=" stroke:none;fill-rule:nonzero;fill:rgb(0%,0%,0%);fill-opacity:1;" d="M 99.753906 80 L 99.753906 60 L 119.753906 60 L 119.753906 80 Z M 99.753906 80 "/>
<path style=" stroke:none;fill-rule:nonzero;fill:rgb(0%,0%,0%);fill-opacity:1;" d="M 99.753906 40 L 99.753906 20 L 119.753906 20 L 119.753906 40 Z M 99.753906 40 "/>
<path style=" stroke:none;fill-rule:nonzero;fill:rgb(0%,0%,0%);fill-opacity:1;" d="M 135.753906 200 L 135.753906 180 L 155.753906 180 L 155.753906 200 Z M 135.753906 200 "/>
<path style=" stroke:none;fill-rule:nonzero;fill:rgb(0%,0%,0%);fill-opacity:1;" d="M 135.753906 160 L 135.753906 140 L 155.753906 140 L 155.753906 160 Z M 135.753906 160 "/>
<path style=" stroke:none;fill-rule:nonzero;fill:rgb(0%,0%,0%);fill-opacity:1;" d="M 135.753906 120 L 135.753906 100 L 155.753906 100 L 155.753906 120 Z M 135.753906 120 "/>
<path style=" stroke:none;fill-rule:nonzero;fill:rgb(0%,0%,0%);fill-opacity:1;" d="M 135.753906 80 L 135.753906 60 L 155.753906 60 L 155.753906 80 Z M 135.753906 80 "/>
<path style=" stroke:none;fill-rule:nonzero;fill:rgb(0%,0%,0%);fill-opacity:1;" d="M 135.753906 40 L 135.753906 20 L 155.753906 20 L 155.753906 40 Z M 135.753906 40 "/>
<path style=" stroke:none;fill-rule:nonzero;fill:rgb(0%,0%,0%);fill-opacity:1;" d="M 171.753906 200 L 171.753906 180 L 191.753906 180 L 191.753906 200 Z M 171.753906 200 "/>
<path style=" stroke:none;fill-rule:nonzero;fill:rgb(0%,0%,0%);fill-opacity:1;" d="M 171.753906 160 L 171.753906 140 L 191.753906 140 L 191.753906 160 Z M 171.753906 160 "/>
<path style=" stroke:none;fill-rule:nonzero;fill:rgb(0%,0%,0%);fill-opacity:1;" d="M 171.753906 120 L 171.753906 100 L 191.753906 100 L 191.753906 120 Z M 171.753906 120 "/>
<path style=" stroke:none;fill-rule:nonzero;fill:rgb(0%,0%,0%);fill-opacity:1;" d="M 171.753906 80 L 171.753906 60 L 191.753906 60 L 191.753906 80 Z M 171.753906 80 "/>
<path style=" stroke:none;fill-rule:nonzero;fill:rgb(0%,0%,0%);fill-opacity:1;" d="M 171.753906 40 L 171.753906 20 L 191.753906 20 L 191.753906 40 Z M 171.753906 40 "/>
<path style=" stroke:none;fill-rule:nonzero;fill:rgb(0%,0%,0%);fill-opacity:1;" d="M 207.753906 200 L 207.753906 180 L 227.753906 180 L 227.753906 200 Z M 207.753906 200 "/>
<path style=" stroke:none;fill-rule:nonzero;fill:rgb(0%,0%,0%);fill-opacity:1;" d="M 207.753906 160 L 207.753906 140 L 227.753906 140 L 227.753906 160 Z M 207.753906 160 "/>
<path style=" stroke:none;fill-rule:nonzero;fill:rgb(0%,0%,0%);fill-opacity:1;" d="M 207.753906 120 L 207.753906 100 L 227.753906 100 L 227.753906 120 Z M 207.753906 120 "/>
<path style=" stroke:none;fill-rule:nonzero;fill:rgb(0%,0%,0%);fill-opacity:1;" d="M 207.753906 80 L 207.753906 60 L 227.753906 60 L 227.753906 80 Z M 207.753906 80 "/>
<path style=" stroke:none;fill-rule:nonzero;fill:rgb(0%,0%,0%);fill-opacity:1;" d="M 207.753906 40 L 207.753906 20 L 227.753906 20 L 227.753906 40 Z M 207.753906 40 "/>
<path style=" stroke:none;fill-rule:nonzero;fill:rgb(0%,0%,0%);fill-opacity:1;" d="M 243.753906 200 L 243.753906 180 L 263.753906 180 L 263.753906 200 Z M 243.753906 200 "/>
<path style=" stroke:none;fill-rule:nonzero;fill:rgb(0%,0%,0%);fill-opacity:1;" d="M 243.753906 160 L 243.753906 140 L 263.753906 140 L 263.753906 160 Z M 243.753906 160 "/>
<path style=" stroke:none;fill-rule:nonzero;fill:rgb(0%,0%,0%);fill-opacity:1;" d="M 243.753906 120 L 243.753906 100 L 263.753906 100 L 263.753906 120 Z M 243.753906 120 "/>
<path style=" stroke:none;fill-rule:nonzero;fill:rgb(0%,0%,0%);fill-opacity:1;" d="M 243.753906 80 L 243.753906 60 L 263.753906 60 L 263.753906 80 Z M 243.753906 80 "/>
<path style=" stroke:none;fill-rule:nonzero;fill:rgb(0%,0%,0%);fill-opacity:1;" d="M 243.753906 40 L 243.753906 20 L 263.753906 20 L 263.753906 40 Z M 243.753906 40 "/>
<path style=" stroke:none;fill-rule:nonzero;fill:rgb(0%,0%,0%);fill-opacity:1;" d="M 279.753906 200 L 279.753906 180 L 299.753906 180 L 299.753906 200 Z M 279.753906 200 "/>
<path style=" stroke:none;fill-rule:nonzero;fill:rgb(0%,0%,0%);fill-opacity:1;" d="M 279.753906 160 L 279.753906 140 L 299.753906 140 L 299.753906 160 Z M 279.753906 160 "/>
<path style=" stroke:none;fill-rule:nonzero;fill:rgb(0%,0%,0%);fill-opacity:1;" d="M 279.753906 120 L 279.753906 100 L 299.753906 100 L 299.753906 120 Z M 279.753906 120 "/>
<path style=" stroke:none;fill-rule:nonzero;fill:rgb(0%,0%,0%);fill-opacity:1;" d="M 279.753906 80 L 279.753906 60 L 299.753906 60 L 299.753906 80 Z M 279.753906 80 "/>
<path style=" stroke:none;fill-rule:nonzero;fill:rgb(0%,0%,0%);fill-opacity:1;" d="M 279.753906 40 L 279.753906 20 L 299.753906 20 L 299.753906 40 Z M 279.753906 40 "/>
<path style=" stroke:none;fill-rule:nonzero;fill:rgb(0%,0%,0%);fill-opacity:1;" d="M 315.753906 200 L 315.753906 180 L 335.753906 180 L 335.753906 200 Z M 315.753906 200 "/>
<path style=" stroke:none;fill-rule:nonzero;fill:rgb(0%,0%,0%);fill-opacity:1;" d="M 315.753906 160 L 315.753906 140 L 335.753906 140 L 335.753906 160 Z M 315.753906 160 "/>
<path style=" stroke:none;fill-rule:nonzero;fill:rgb(0%,0%,0%);fill-opacity:1;" d="M 315.753906 120 L 315.753906 100 L 335.753906 100 L 335.753906 120 Z M 315.753906 120 "/>
<path style=" stroke:none;fill-rule:nonzero;fill:rgb(0%,0%,0%);fill-opacity:1;" d="M 315.753906 80 L 315.753906 60 L 335.753906 60 L 335.753906 80 Z M 315.753906 80 "/>
<path style=" stroke:none;fill-rule:nonzero;fill:rgb(0%,0%,0%);fill-opacity:1;" d="M 315.753906 40 L 315.753906 20 L 335.753906 20 L 335.753906 40 Z M 315.753906 40 "/>
<path style=" stroke:none;fill-rule:nonzero;fill:rgb(0%,0%,0%);fill-opacity:1;" d="M 351.753906 200 L 351.753906 180 L 371.753906 180 L 371.753906 200 Z M 351.753906 200 "/>
<path style=" stroke:none;fill-rule:nonzero;fill:rgb(0%,0%,0%);fill-opacity:1;" d="M 351.753906 160 L 351.753906 140 L 371.753906 140 L 371.753906 160 Z M 351.753906 160 "/>
<path style=" stroke:none;fill-rule:nonzero;fill:rgb(0%,0%,0%);fill-opacity:1;" d="M 351.753906 120 L 351.753906 100 L 371.753906 100 L 371.753906 120 Z M 351.753906 120 "/>
<path style=" stroke:none;fill-rule:nonzero;fill:rgb(0%,0%,0%);fill-opacity:1;" d="M 351.753906 80 L 351.753906 60 L 371.753906 60 L 371.753906 80 Z M 351.753906 80 "/>
<path style=" stroke:none;fill-rule:nonzero;fill:rgb(0%,0%,0%);fill-opacity:1;" d="M 351.753906 40 L 351.753906 20 L 371.753906 20 L 371.753906 40 Z M 351.753906 40 "/>
<path style=" stroke:none;fill-rule:nonzero;fill:rgb(0%,0%,0%);fill-opacity:1;" d="M 387.753906 200 L 387.753906 180 L 407.753906 180 L 407.753906 200 Z M 387.753906 200 "/>
<path style=" stroke:none;fill-rule:nonzero;fill:rgb(0%,0%,0%);fill-opacity:1;" d="M 387.753906 160 L 387.753906 140 L 407.753906 140 L 407.753906 160 Z M 387.753906 160 "/>
<path style=" stroke:none;fill-rule:nonzero;fill:rgb(0%,0%,0%);fill-opacity:1;" d="M 387.753906 120 L 387.753906 100 L 407.753906 100 L 407.753906 120 Z M 387.753906 120 "/>
<path style=" stroke:none;fill-rule:nonzero;fill:rgb(0%,0%,0%);fill-opacity:1;" d="M 387.753906 80 L 387.753906 60 L 407.753906 60 L 407.753906 80 Z M 387.753906 80 "/>
<path style=" stroke:none;fill-rule:nonzero;fill:rgb(0%,0%,0%);fill-opacity:1;" d="M 387.753906 40 L 387.753906 20 L 407.753906 20 L 407.753906 40 Z M 387.753906 40 "/>
<path style="fill:none;stroke-width:1;stroke-linecap:square;stroke-linejoin:miter;stroke:rgb(100%,0%,0%);stroke-opacity:1;stroke-miterlimit:3.25;" d="M 0 220 L 400 220 "/>
<path style="fill:none;stroke-width:1;stroke-linecap:square;stroke-linejoin:miter;stroke:rgb(100%,0%,0%);stroke-opacity:1;stroke-miterlimit:3.25;" d="M 0 200 L 400 200 "/>
<path style="fill:none;stroke-width:1;stroke-linecap:square;stroke-linejoin:miter;stroke:rgb(100%,0%,0%);stroke-opacity:1;stroke-miterlimit:3.25;" d="M 0 180 L 400 180 "/>
<path style="fill:none;stroke-width:1;stroke-linecap:square;stroke-linejoin:miter;stroke:rgb(100%,0%,0%);stroke-opacity:1;stroke-miterlimit:3.25;" d="M 0 160 L 400 160 "/>
<path style="fill:none;stroke-width:1;stroke-linecap:square;stroke-linejoin:miter;stroke:rgb(100%,0%,0%);stroke-opacity:1;stroke-miterlimit:3.25;" d="M 0 140 L 400 140 "/>
<path style="fill:none;stroke-width:1;stroke-linecap:square;stroke-linejoin:miter;stroke:rgb(100%,0%,0%);stroke-opacity:1;stroke-miterlimit:3.25;" d="M 0 120 L 400 120 "/>
<path style="fill:none;stroke-width:1;stroke-linecap:square;stroke-linejoin:miter;stroke:rgb(100%,0%,0%);stroke-opacity:1;stroke-miterlimit:3.25;" d="M 0 100 L 400 100 "/>
<path style="fill:none;stroke-width:1;stroke-linecap:square;stroke-linejoin:miter;stroke:rgb(100%,0%,0%);stroke-opacity:1;stroke-miterlimit:3.25;" d="M 0 80 L 400 80 "/>
<path style="fill:none;stroke-width:1;stroke-linecap:square;stroke-linejoin:miter;stroke:rgb(100%,0%,0%);stroke-opacity:1;stroke-miterlimit:3.25;" d="M 0 60 L 400 60 "/>
<path style="fill:none;stroke-width:1;stroke-linecap:square;stroke-linejoin:miter;stroke:rgb(100%,0%,0%);stroke-opacity:1;stroke-miterlimit:3.25;" d="M 0 40 L 400 40 "/>
<path style="fill:none;stroke-width:1;stroke-linecap:square;stroke-linejoin:miter;stroke:rgb(100%,0%,0%);stroke-opacity:1;stroke-miterlimit:3.25;" d="M 0 20 L 400 20 "/>
</g>
</svg>
