<?xml version="1.0" encoding="UTF-8"?>
<svg xmlns="http://www.w3.org/2000/svg" xmlns:xlink="http://www.w3.org/1999/xlink" width="400pt" height="220pt" viewBox="0 0 400 220" version="1.1">
<g id="surface751">
<rect x="0" y="0" width="400" height="220" style="fill:rgb(0%,40%,100%);fill-opacity:0.2;stroke:none;"/>
<path style=" stroke:none;fill-rule:nonzero;fill:rgb(0%,0%,0%);fill-opacity:1;" d="M -1.253906 220 L -1.253906 200 L 18.746094 200 L 18.746094 220 Z M -1.253906 220 "/>
<path style=" stroke:none;fill-rule:nonzero;fill:rgb(0%,0%,0%);fill-opacity:1;" d="M -1.253906 180 L -1.253906 160 L 18.746094 160 L 18.746094 180 Z M -1.253906 180 "/>
<path style=" stroke:none;fill-rule:nonzero;fill:rgb(0%,0%,0%);fill-opacity:1;" d="M -1.253906 140 L -1.253906 120 L 18.746094 120 L 18.746094 140 Z M -1.253906 140 "/>
<path style=" stroke:none;fill-rule:nonzero;fill:rgb(0%,0%,0%);fill-opacity:1;" d="M -1.253906 100 L -1.253906 80 L 18.746094 80 L 18.746094 100 Z M -1.253906 100 "/>
<path style=" stroke:none;fill-rule:nonzero;fill:rgb(0%,0%,0%);fill-opacity:1;" d="M -1.253906 60 L -1.253906 40 L 18.746094 40 L 18.746094 60 Z M -1.253906 60 "/>
<path style=" stroke:none;fill-rule:nonzero;fill:rgb(0%,0%,0%);fill-opacity:1;" d="M -1.253906 20 L -1.253906 0 L 18.746094 0 L 18.746094 20 Z M -1.253906 20 "/>
<path style=" stroke:none;fill-rule:nonzero;fill:rgb(0%,0%,0%);fill-opacity:1;" d="M 34.746094 220 L 34.746094 200 L 54.746094 200 L 54.746094 220 Z M 34.746094 220 "/>
<path style=" stroke:none;fill-rule:nonzero;fill:rgb(0%,0%,0%);fill-opacity:1;" d="M 34.746094 180 L 34.746094 160 L 54.746094 160 L 54.746094 180 Z M 34.746094 180 "/>
<path style=" stroke:none;fill-rule:nonzero;fill:rgb(0%,0%,0%);fill-opacity:1;" d="M 34.746094 140 L 34.746094 120 L 54.746094 120 L 54.746094 140 Z M 34.746094 140 "/>
<path style=" stroke:none;fill-rule:nonzero;fill:rgb(0%,0%,0%);fill-opacity:1;" d="M 34.746094 100 L 34.746094 80 L 54.746094 80 L 54.746094 100 Z M 34.746094 100 "/>
<path style=" stroke:none;fill-rule:nonzero;fill:rgb(0%,0%,0%);fill-opacity:1;" d="M 34.746094 60 L 34.746094 40 L 54.746094 40 L 54.746094 60 Z M 34.746094 60 "/>
<path style=" stroke:none;fill-rule:nonzero;fill:rgb(0%,0%,0%);fill-opacity:1;" d="M 34.746094 20 L 34.746094 0 L 54.746094 0 L 54.746094 20 Z M 34.746094 20 "/>
<path style=" stroke:none;fill-rule:nonzero;fill:rgb(0%,0%,0%);fill-opacity:1;" d="M 70.746094 220 L 70.746094 200 L 90.746094 200 L 90.746094 220 Z M 70.746094 220 "/>
<path style=" stroke:none;fill-rule:nonzero;fill:rgb(0%,0%,0%);fill-opacity:1;" d="M 70.746094 180 L 70.746094 160 L 90.746094 160 L 90.746094 180 Z M 70.746094 180 "/>
<path style=" stroke:none;fill-rule:nonzero;fill:rgb(0%,0%,0%);fill-opacity:1;" d="M 70.746094 140 L 70.746094 120 L 90.746094 120 L 90.746094 140 Z M 70.746094 140 "/>
<path style=" stroke:none;fill-rule:nonzero;fill:rgb(0%,0%,0%);fill-opacity:1;" d="M 70.746094 100 L 70.746094 80 L 90.746094 80 L 90.746094 100 Z M 70.746094 100 "/>
<path style=" stroke:none;fill-rule:nonzero;fill:rgb(0%,0%,0%);fill-opacity:1;" d="M 70.746094 60 L 70.746094 40 L 90.746094 40 L 90.746094 60 Z M 70.746094 60 "/>
<path style=" stroke:none;fill-rule:nonzero;fill:rgb(0%,0%,0%);fill-opacity:1;" d="M 70.746094 20 L 70.746094 0 L 90.746094 0 L 90.746094 20 Z M 70.746094 20 "/>
<path style=" stroke:none;fill-rule:nonzero;fill:rgb(0%,0%,0%);fill-opacity:1;" d="M 106.746094 220 L 106.746094 200 L 126.746094 200 L 126.746094 220 Z M 106.746094 220 "/>
<path style=" stroke:none;fill-rule:nonzero;fill:rgb(0%,0%,0%);fill-opacity:1;" d="M 106.746094 180 L 106.746094 160 L 126.746094 160 L 126.746094 180 Z M 106.746094 180 "/>
<path style=" stroke:none;fill-rule:nonzero;fill:rgb(0%,0%,0%);fill-opacity:1;" d="M 106.746094 140 L 106.746094 120 L 126.746094 120 L 126.746094 140 Z M 106.746094 140 "/>
<path style=" stroke:none;fill-rule:nonzero;fill:rgb(0%,0%,0%);fill-opacity:1;" d="M 106.746094 100 L 106.746094 80 L 126.746094 80 L 126.746094 100 Z M 106.746094 100 "/>
<path style=" stroke:none;fill-rule:nonzero;fill:rgb(0%,0%,0%);fill-opacity:1;" d="M 106.746094 60 L 106.746094 40 L 126.746094 40 L 126.746094 60 Z M 106.746094 60 "/>
<path style=" stroke:none;fill-rule:nonzero;fill:rgb(0%,0%,0%);fill-opacity:1;" d="M 106.746094 20 L 106.746094 0 L 126.746094 0 L 126.746094 20 Z M 106.746094 20 "/>
<path style=" stroke:none;fill-rule:nonzero;fill:rgb(0%,0%,0%);fill-opacity:1;" d="M 142.746094 220 L 142.746094 200 L 162.746094 200 L 162.746094 220 Z M 142.746094 220 "/>
<path style=" stroke:none;fill-rule:nonzero;fill:rgb(0%,0%,0%);fill-opacity:1;" d="M 142.746094 180 L 142.746094 160 L 162.746094 160 L 162.746094 180 Z M 142.746094 180 "/>
<path style=" stroke:none;fill-rule:nonzero;fill:rgb(0%,0%,0%);fill-opacity:1;" d="M 142.746094 140 L 142.746094 120 L 162.746094 120 L 162.746094 140 Z M 142.746094 140 "/>
<path style=" stroke:none;fill-rule:nonzero;fill:rgb(0%,0%,0%);fill-opacity:1;" d="M 142.746094 100 L 142.746094 80 L 162.746094 80 L 162.746094 100 Z M 142.746094 100 "/>
<path style=" stroke:none;fill-rule:nonzero;fill:rgb(0%,0%,0%);fill-opacity:1;" d="M 142.746094 60 L 142.746094 40 L 162.746094 40 L 162.746094 60 Z M 142.746094 60 "/>
<path style=" stroke:none;fill-rule:nonzero;fill:rgb(0%,0%,0%);fill-opacity:1;" d="M 142.746094 20 L 142.746094 0 L 162.746094 0 L 162.746094 20 Z M 142.746094 20 "/>
<path style=" stroke:none;fill-rule:nonzero;fill:rgb(0%,0%,0%);fill-opacity:1;" d="M 178.746094 220 L 178.746094 200 L 198.746094 200 L 198.746094 220 Z M 178.746094 220 "/>
<path style=" stroke:none;fill-rule:nonzero;fill:rgb(0%,0%,0%);fill-opacity:1;" d="M 178.746094 180 L 178.746094 160 L 198.746094 160 L 198.746094 180 Z M 178.746094 180 "/>
<path style=" stroke:none;fill-rule:nonzero;fill:rgb(0%,0%,0%);fill-opacity:1;" d="M 178.746094 140 L 178.746094 120 L 198.746094 120 L 198.746094 140 Z M 178.746094 140 "/>
<path style=" stroke:none;fill-rule:nonzero;fill:rgb(0%,0%,0%);fill-opacity:1;" d="M 178.746094 100 L 178.746094 80 L 198.746094 80 L 198.746094 100 Z M 178.746094 100 "/>
<path style=" stroke:none;fill-rule:nonzero;fill:rgb(0%,0%,0%);fill-opacity:1;" d="M 178.746094 60 L 178.746094 40 L 198.746094 40 L 198.746094 60 Z M 178.746094 60 "/>
<path style=" stroke:none;fill-rule:nonzero;fill:rgb(0%,0%,0%);fill-opacity:1;" d="M 178.746094 20 L 178.746094 0 L 198.746094 0 L 198.746094 20 Z M 178.746094 20 "/>
<path style=" stroke:none;fill-rule:nonzero;fill:rgb(0%,0%,0%);fill-opacity:1;" d="M 214.746094 220 L 214.746094 200 L 234.746094 200 L 234.746094 220 Z M 214.746094 220 "/>
<path style=" stroke:none;fill-rule:nonzero;fill:rgb(0%,0%,0%);fill-opacity:1;" d="M 214.746094 180 L 214.746094 160 L 234.746094 160 L 234.746094 180 Z M 214.746094 180 "/>
<path style=" stroke:none;fill-rule:nonzero;fill:rgb(0%,0%,0%);fill-opacity:1;" d="M 214.746094 140 L 214.746094 120 L 234.746094 120 L 234.746094 140 Z M 214.746094 140 "/>
<path style=" stroke:none;fill-rule:nonzero;fill:rgb(0%,0%,0%);fill-opacity:1;" d="M 214.746094 100 L 214.746094 80 L 234.746094 80 L 234.746094 100 Z M 214.746094 100 "/>
<path style=" stroke:none;fill-rule:nonzero;fill:rgb(0%,0%,0%);fill-opacity:1;" d="M 214.746094 60 L 214.746094 40 L 234.746094 40 L 234.746094 60 Z M 214.746094 60 "/>
<path style=" stroke:none;fill-rule:nonzero;fill:rgb(0%,0%,0%);fill-opacity:1;" d="M 214.746094 20 L 214.746094 0 L 234.746094 0 L 234.746094 20 Z M 214.746094 20 "/>
<path style=" stroke:none;fill-rule:nonzero;fill:rgb(0%,0%,0%);fill-opacity:1;" d="M 250.746094 220 L 250.746094 200 L 270.746094 200 L 270.746094 220 Z M 250.746094 220 "/>
<path style=" stroke:none;fill-rule:nonzero;fill:rgb(0%,0%,0%);fill-opacity:1;" d="M 250.746094 180 L 250.746094 160 L 270.746094 160 L 270.746094 180 Z M 250.746094 180 "/>
<path style=" stroke:none;fill-rule:nonzero;fill:rgb(0%,0%,0%);fill-opacity:1;" d="M 250.746094 140 L 250.746094 120 L 270.746094 120 L 270.746094 140 Z M 250.746094 140 "/>
<path style=" stroke:none;fill-rule:nonzero;fill:rgb(0%,0%,0%);fill-opacity:1;" d="M 250.746094 100 L 250.746094 80 L 270.746094 80 L 270.746094 100 Z M 250.746094 100 "/>
<path style=" stroke:none;fill-rule:nonzero;fill:rgb(0%,0%,0%);fill-opacity:1;" d="M 250.746094 60 L 250.746094 40 L 270.746094 40 L 270.746094 60 Z M 250.746094 60 "/>
<path style=" stroke:none;fill-rule:nonzero;fill:rgb(0%,0%,0%);fill-opacity:1;" d="M 250.746094 20 L 250.746094 0 L 270.746094 0 L 270.746094 20 Z M 250.746094 20 "/>
<path style=" stroke:none;fill-rule:nonzero;fill:rgb(0%,0%,0%);fill-opacity:1;" d="M 286.746094 220 L 286.746094 200 L 306.746094 200 L 306.746094 220 Z M 286.746094 220 "/>
<path style=" stroke:none;fill-rule:nonzero;fill:rgb(0%,0%,0%);fill-opacity:1;" d="M 286.746094 180 L 286.746094 160 L 306.746094 160 L 306.746094 180 Z M 286.746094 180 "/>
<path style=" stroke:none;fill-rule:nonzero;fill:rgb(0%,0%,0%);fill-opacity:1;" d="M 286.746094 140 L 286.746094 120 L 306.746094 120 L 306.746094 140 Z M 286.746094 140 "/>
<path style=" stroke:none;fill-rule:nonzero;fill:rgb(0%,0%,0%);fill-opacity:1;" d="M 286.746094 100 L 286.746094 80 L 306.746094 80 L 306.746094 100 Z M 286.746094 100 "/>
<path style=" stroke:none;fill-rule:nonzero;fill:rgb(0%,0%,0%);fill-opacity:1;" d="M 286.746094 60 L 286.746094 40 L 306.746094 40 L 306.746094 60 Z M 286.746094 60 "/>
<path style=" stroke:none;fill-rule:nonzero;fill:rgb(0%,0%,0%);fill-opacity:1;" d="M 286.746094 20 L 286.746094 0 L 306.746094 0 L 306.746094 20 Z M 286.746094 20 "/>
<path style=" stroke:none;fill-rule:nonzero;fill:rgb(0%,0%,0%);fill-opacity:1;" d="M 322.746094 220 L 322.746094 200 L 342.746094 200 L 342.746094 220 Z M 322.746094 220 "/>
<path style=" stroke:none;fill-rule:nonzero;fill:rgb(0%,0%,0%);fill-opacity:1;" d="M 322.746094 180 L 322.746094 160 L 342.746094 160 L 342.746094 180 Z M 322.746094 180 "/>
<path style=" stroke:none;fill-rule:nonzero;fill:rgb(0%,0%,0%);fill-opacity:1;" d="M 322.746094 140 L 322.746094 120 L 342.746094 120 L 342.746094 140 Z M 322.746094 140 "/>
<path style=" stroke:none;fill-rule:nonzero;fill:rgb(0%,0%,0%);fill-opacity:1;" d="M 322.746094 100 L 322.746094 80 L 342.746094 80 L 342.746094 100 Z M 322.746094 100 "/>
<path style=" stroke:none;fill-rule:nonzero;fill:rgb(0%,0%,0%);fill-opacity:1;" d="M 322.746094 60 L 322.746094 40 L 342.746094 40 L 342.746094 60 Z M 322.746094 60 "/>
<path style=" stroke:none;fill-rule:nonzero;fill:rgb(0%,0%,0%);fill-opacity:1;" d="M 322.746094 20 L 322.746094 0 L 342.746094 0 L 342.746094 20 Z M 322.746094 20 "/>
<path style=" stroke:none;fill-rule:nonzero;fill:rgb(0%,0%,0%);fill-opacity:1;" d="M 358.746094 220 L 358.746094 200 L 378.746094 200 L 378.746094 220 Z M 358.746094 220 "/>
<path style=" stroke:none;fill-rule:nonzero;fill:rgb(0%,0%,0%);fill-opacity:1;" d="M 358.746094 180 L 358.746094 160 L 378.746094 160 L 378.746094 180 Z M 358.746094 180 "/>
<path style=" stroke:none;fill-rule:nonzero;fill:rgb(0%,0%,0%);fill-opacity:1;" d="M 358.746094 140 L 358.746094 120 L 378.746094 120 L 378.746094 140 Z M 358.746094 140 "/>
<path style=" stroke:none;fill-rule:nonzero;fill:rgb(0%,0%,0%);fill-opacity:1;" d="M 358.746094 100 L 358.746094 80 L 378.746094 80 L 378.746094 100 Z M 358.746094 100 "/>
<path style=" stroke:none;fill-rule:nonzero;fill:rgb(0%,0%,0%);fill-opacity:1;" d="M 358.746094 60 L 358.746094 40 L 378.746094 40 L 378.746094 60 Z M 358.746094 60 "/>
<path style=" stroke:none;fill-rule:nonzero;fill:rgb(0%,0%,0%);fill-opacity:1;" d="M 358.746094 20 L 358.746094 0 L 378.746094 0 L 378.746094 20 Z M 358.746094 20 "/>
<path style=" stroke:none;fill-rule:nonzero;fill:rgb(0%,0%,0%);fill-opacity:1;" d="M 394.746094 220 L 394.746094 200 L 414.746094 200 L 414.746094 220 Z M 394.746094 220 "/>
<path style=" stroke:none;fill-rule:nonzero;fill:rgb(0%,0%,0%);fill-opacity:1;" d="M 394.746094 180 L 394.746094 160 L 414.746094 160 L 414.746094 180 Z M 394.746094 180 "/>
<path style=" stroke:none;fill-rule:nonzero;fill:rgb(0%,0%,0%);fill-opacity:1;" d="M 394.746094 140 L 394.746094 120 L 414.746094 120 L 414.746094 140 Z M 394.746094 140 "/>
<path style=" stroke:none;fill-rule:nonzero;fill:rgb(0%,0%,0%);fill-opacity:1;" d="M 394.746094 100 L 394.746094 80 L 414.746094 80 L 414.746094 100 Z M 394.746094 100 "/>
<path style=" stroke:none;fill-rule:nonzero;fill:rgb(0%,0%,0%);fill-opacity:1;" d="M 394.746094 60 L 394.746094 40 L 414.746094 40 L 414.746094 60 Z M 394.746094 60 "/>
<path style=" stroke:none;fill-rule:nonzero;fill:rgb(0%,0%,0%);fill-opacity:1;" d="M 394.746094 20 L 394.746094 0 L 414.746094 0 L 414.746094 20 Z M 394.746094 20 "/>
<path style=" stroke:none;fill-rule:nonzero;fill:rgb(0%,0%,0%);fill-opacity:1;" d="M -0.0390625 200 L -0.0390625 180 L 19.960938 180 L 19.960938 200 Z M -0.0390625 200 "/>
<path style=" stroke:none;fill-rule:nonzero;fill:rgb(0%,0%,0%);fill-opacity:1;" d="M -0.0390625 160 L -0.0390625 140 L 19.960938 140 L 19.960938 160 Z M -0.0390625 160 "/>
<path style=" stroke:none;fill-rule:nonzero;fill:rgb(0%,0%,0%);fill-opacity:1;" d="M -0.0390625 120 L -0.0390625 100 L 19.960938 100 L 19.960938 120 Z M -0.0390625 120 "/>
<path style=" stroke:none;fill-rule:nonzero;fill:rgb(0%,0%,0%);fill-opacity:1;" d="M -0.0390625 80 L -0.0390625 60 L 19.960938 60 L 19.960938 80 Z M -0.0390625 80 "/>
<path style=" stroke:none;fill-rule:nonzero;fill:rgb(0%,0%,0%);fill-opacity:1;" d="M -0.0390625 40 L -0.0390625 20 L 19.960938 20 L 19.960938 40 Z M -0.0390625 40 "/>
<path style=" stroke:none;fill-rule:nonzero;fill:rgb(0%,0%,0%);fill-opacity:1;" d="M 35.960938 200 L 35.960938 180 L 55.960938 180 L 55.960938 200 Z M 35.960938 200 "/>
<path style=" stroke:none;fill-rule:nonzero;fill:rgb(0%,0%,0%);fill-opacity:1;" d="M 35.960938 160 L 35.960938 140 L 55.960938 140 L 55.960938 160 Z M 35.960938 160 "/>
<path style=" stroke:none;fill-rule:nonzero;fill:rgb(0%,0%,0%);fill-opacity:1;" d="M 35.960938 120 L 35.960938 100 L 55.960938 100 L 55.960938 120 Z M 35.960938 120 "/>
<path style=" stroke:none;fill-rule:nonzero;fill:rgb(0%,0%,0%);fill-opacity:1;" d="M 35.960938 80 L 35.960938 60 L 55.960938 60 L 55.960938 80 Z M 35.960938 80 "/>
<path style=" stroke:none;fill-rule:nonzero;fill:rgb(0%,0%,0%);fill-opacity:1;" d="M 35.960938 40 L 35.960938 20 L 55.960938 20 L 55.960938 40 Z M 35.960938 40 "/>
<path style=" stroke:none;fill-rule:nonzero;fill:rgb(0%,0%,0%);fill-opacity:1;" d="M 71.960938 200 L 71.960938 180 L 91.960938 180 L 91.960938 200 Z M 71.960938 200 "/>
<path style=" stroke:none;fill-rule:nonzero;fill:rgb(0%,0%,0%);fill-opacity:1;" d="M 71.960938 160 L 71.960938 140 L 91.960938 140 L 91.960938 160 Z M 71.960938 160 "/>
<path style=" stroke:none;fill-rule:nonzero;fill:rgb(0%,0%,0%);fill-opacity:1;" d="M 71.960938 120 L 71.960938 100 L 91.960938 100 L 91.960938 120 Z M 71.960938 120 "/>
<path style=" stroke:none;fill-rule:nonzero;fill:rgb(0%,0%,0%);fill-opacity:1;" d="M 71.960938 80 L 71.960938 60 L 91.960938 60 L 91.960938 80 Z M 71.960938 80 "/>
<path style=" stroke:none;fill-rule:nonzero;fill:rgb(0%,0%,0%);fill-opacity:1;" d="M 71.960938 40 L 71.960938 20 L 91.960938 20 L 91.960938 40 Z M 71.960938 40 "/>
<path style=" stroke:none;fill-rule:nonzero;fill:rgb(0%,0%,0%);fill-opacity:1;" d="M 107.960938 200 L 107.960938 180 L 127.960938 180 L 127.960938 200 Z M 107.960938 200 "/>
<path style=" stroke:none;fill-rule:nonzero;fill:rgb(0%,0%,0%);fill-opacity:1;" d="M 107.960938 160 L 107.960938 140 L 127.960938 140 L 127.960938 160 Z M 107.960938 160 "/>
<path style=" stroke:none;fill-rule:nonzero;fill:rgb(0%,0%,0%);fill-opacity:1;" d="M 107.960938 120 L 107.960938 100 L 127.960938 100 L 127.960938 120 Z M 107.960938 120 "/>
<path style=" stroke:none;fill-rule:nonzero;fill:rgb(0%,0%,0%);fill-opacity:1;" d="M 107.960938 80 L 107.960938 60 L 127.960938 60 L 127.960938 80 Z M 107.960938 80 "/>
<path style=" stroke:none;fill-rule:nonzero;fill:rgb(0%,0%,0%);fill-opacity:1;" d="M 107.960938 40 L 107.960938 20 L 127.960938 20 L 127.960938 40 Z M 107.960938 40 "/>
<path style=" stroke:none;fill-rule:nonzero;fill:rgb(0%,0%,0%);fill-opacity:1;" d="M 143.960938 200 L 143.960938 180 L 163.960938 180 L 163.960938 200 Z M 143.960938 200 "/>
<path style=" stroke:none;fill-rule:nonzero;fill:rgb(0%,0%,0%);fill-opacity:1;" d="M 143.960938 160 L 143.960938 140 L 163.960938 140 L 163.960938 160 Z M 143.960938 160 "/>
<path style=" stroke:none;fill-rule:nonzero;fill:rgb(0%,0%,0%);fill-opacity:1;" d="M 143.960938 120 L 143.960938 100 L 163.960938 100 L 163.960938 120 Z M 143.960938 120 "/>
<path style=" stroke:none;fill-rule:nonzero;fill:rgb(0%,0%,0%);fill-opacity:1;" d="M 143.960938 80 L 143.960938 60 L 163.960938 60 L 163.960938 80 Z M 143.960938 80 "/>
<path style=" stroke:none;fill-rule:nonzero;fill:rgb(0%,0%,0%);fill-opacity:1;" d="M 143.960938 40 L 143.960938 20 L 163.960938 20 L 163.960938 40 Z M 143.960938 40 "/>
<path style=" stroke:none;fill-rule:nonzero;fill:rgb(0%,0%,0%);fill-opacity:1;" d="M 179.960938 200 L 179.960938 180 L 199.960938 180 L 199.960938 200 Z M 179.960938 200 "/>
<path style=" stroke:none;fill-rule:nonzero;fill:rgb(0%,0%,0%);fill-opacity:1;" d="M 179.960938 160 L 179.960938 140 L 199.960938 140 L 199.960938 160 Z M 179.960938 160 "/>
<path style=" stroke:none;fill-rule:nonzero;fill:rgb(0%,0%,0%);fill-opacity:1;" d="M 179.960938 120 L 179.960938 100 L 199.960938 100 L 199.960938 120 Z M 179.960938 120 "/>
<path style=" stroke:none;fill-rule:nonzero;fill:rgb(0%,0%,0%);fill-opacity:1;" d="M 179.960938 80 L 179.960938 60 L 199.960938 60 L 199.960938 80 Z M 179.960938 80 "/>
<path style=" stroke:none;fill-rule:nonzero;fill:rgb(0%,0%,0%);fill-opacity:1;" d="M 179.960938 40 L 179.960938 20 L 199.960938 20 L 199.960938 40 Z M 179.960938 40 "/>
<path style=" stroke:none;fill-rule:nonzero;fill:rgb(0%,0%,0%);fill-opacity:1;" d="M 215.960938 200 L 215.960938 180 L 235.960938 180 L 235.960938 200 Z M 215.960938 200 "/>
<path style=" stroke:none;fill-rule:nonzero;fill:rgb(0%,0%,0%);fill-opacity:1;" d="M 215.960938 160 L 215.960938 140 L 235.960938 140 L 235.960938 160 Z M 215.960938 160 "/>
<path style=" stroke:none;fill-rule:nonzero;fill:rgb(0%,0%,0%);fill-opacity:1;" d="M 215.960938 120 L 215.960938 100 L 235.960938 100 L 235.960938 120 Z M 215.960938 120 "/>
<path style=" stroke:none;fill-rule:nonzero;fill:rgb(0%,0%,0%);fill-opacity:1;" d="M 215.960938 80 L 215.960938 60 L 235.960938 60 L 235.960938 80 Z M 215.960938 80 "/>
<path style=" stroke:none;fill-rule:nonzero;fill:rgb(0%,0%,0%);fill-opacity:1;" d="M 215.960938 40 L 215.960938 20 L 235.960938 20 L 235.960938 40 Z M 215.960938 40 "/>
<path style=" stroke:none;fill-rule:nonzero;fill:rgb(0%,0%,0%);fill-opacity:1;" d="M 251.960938 200 L 251.960938 180 L 271.960938 180 L 271.960938 200 Z M 251.960938 200 "/>
<path style=" stroke:none;fill-rule:nonzero;fill:rgb(0%,0%,0%);fill-opacity:1;" d="M 251.960938 160 L 251.960938 140 L 271.960938 140 L 271.960938 160 Z M 251.960938 160 "/>
<path style=" stroke:none;fill-rule:nonzero;fill:rgb(0%,0%,0%);fill-opacity:1;" d="M 251.960938 120 L 251.960938 100 L 271.960938 100 L 271.960938 120 Z M 251.960938 120 "/>
<path style=" stroke:none;fill-rule:nonzero;fill:rgb(0%,0%,0%);fill-opacity:1;" d="M 251.960938 80 L 251.960938 60 L 271.960938 60 L 271.960938 80 Z M 251.960938 80 "/>
<path style=" stroke:none;fill-rule:nonzero;fill:rgb(0%,0%,0%);fill-opacity:1;" d="M 251.960938 40 L 251.960938 20 L 271.960938 20 L 271.960938 40 Z M 251.960938 40 "/>
<path style=" stroke:none;fill-rule:nonzero;fill:rgb(0%,0%,0%);fill-opacity:1;" d="M 287.960938 200 L 287.960938 180 L 307.960938 180 L 307.960938 200 Z M 287.960938 200 "/>
<path style=" stroke:none;fill-rule:nonzero;fill:rgb(0%,0%,0%);fill-opacity:1;" d="M 287.960938 160 L 287.960938 140 L 307.960938 140 L 307.960938 160 Z M 287.960938 160 "/>
<path style=" stroke:none;fill-rule:nonzero;fill:rgb(0%,0%,0%);fill-opacity:1;" d="M 287.960938 120 L 287.960938 100 L 307.960938 100 L 307.960938 120 Z M 287.960938 120 "/>
<path style=" stroke:none;fill-rule:nonzero;fill:rgb(0%,0%,0%);fill-opacity:1;" d="M 287.960938 80 L 287.960938 60 L 307.960938 60 L 307.960938 80 Z M 287.960938 80 "/>
<path style=" stroke:none;fill-rule:nonzero;fill:rgb(0%,0%,0%);fill-opacity:1;" d="M 287.960938 40 L 287.960938 20 L 307.960938 20 L 307.960938 40 Z M 287.960938 40 "/>
<path style=" stroke:none;fill-rule:nonzero;fill:rgb(0%,0%,0%);fill-opacity:1;" d="M 323.960938 200 L 323.960938 180 L 343.960938 180 L 343.960938 200 Z M 323.960938 200 "/>
<path style=" stroke:none;fill-rule:nonzero;fill:rgb(0%,0%,0%);fill-opacity:1;" d="M 323.960938 160 L 323.960938 140 L 343.960938 140 L 343.960938 160 Z M 323.960938 160 "/>
<path style=" stroke:none;fill-rule:nonzero;fill:rgb(0%,0%,0%);fill-opacity:1;" d="M 323.960938 120 L 323.960938 100 L 343.960938 100 L 343.960938 120 Z M 323.960938 120 "/>
<path style=" stroke:none;fill-rule:nonzero;fill:rgb(0%,0%,0%);fill-opacity:1;" d="M 323.960938 80 L 323.960938 60 L 343.960938 60 L 343.960938 80 Z M 323.960938 80 "/>
<path style=" stroke:none;fill-rule:nonzero;fill:rgb(0%,0%,0%);fill-opacity:1;" d="M 323.960938 40 L 323.960938 20 L 343.960938 20 L 343.960938 40 Z M 323.960938 40 "/>
<path style=" stroke:none;fill-rule:nonzero;fill:rgb(0%,0%,0%);fill-opacity:1;" d="M 359.960938 200 L 359.960938 180 L 379.960938 180 L 379.960938 200 Z M 359.960938 200 "/>
<path style=" stroke:none;fill-rule:nonzero;fill:rgb(0%,0%,0%);fill-opacity:1;" d="M 359.960938 160 L 359.960938 140 L 379.960938 140 L 379.960938 160 Z M 359.960938 160 "/>
<path style=" stroke:none;fill-rule:nonzero;fill:rgb(0%,0%,0%);fill-opacity:1;" d="M 359.960938 120 L 359.960938 100 L 379.960938 100 L 379.960938 120 Z M 359.960938 120 "/>
<path style=" stroke:none;fill-rule:nonzero;fill:rgb(0%,0%,0%);fill-opacity:1;" d="M 359.960938 80 L 359.960938 60 L 379.960938 60 L 379.960938 80 Z M 359.960938 80 "/>
<path style=" stroke:none;fill-rule:nonzero;fill:rgb(0%,0%,0%);fill-opacity:1;" d="M 359.960938 40 L 359.960938 20 L 379.960938 20 L 379.960938 40 Z M 359.960938 40 "/>
<path style=" stroke:none;fill-rule:nonzero;fill:rgb(0%,0%,0%);fill-opacity:1;" d="M 395.960938 200 L 395.960938 180 L 415.960938 180 L 415.960938 200 Z M 395.960938 200 "/>
<path style=" stroke:none;fill-rule:nonzero;fill:rgb(0%,0%,0%);fill-opacity:1;" d="M 395.960938 160 L 395.960938 140 L 415.960938 140 L 415.960938 160 Z M 395.960938 160 "/>
<path style=" stroke:none;fill-rule:nonzero;fill:rgb(0%,0%,0%);fill-opacity:1;" d="M 395.960938 120 L 395.960938 100 L 415.960938 100 L 415.960938 120 Z M 395.960938 120 "/>
<path style=" stroke:none;fill-rule:nonzero;fill:rgb(0%,0%,0%);fill-opacity:1;" d="M 395.960938 80 L 395.960938 60 L 415.960938 60 L 415.960938 80 Z M 395.960938 80 "/>
<path style=" stroke:none;fill-rule:nonzero;fill:rgb(0%,0%,0%);fill-opacity:1;" d="M 395.960938 40 L 395.960938 20 L 415.960938 20 L 415.960938 40 Z M 395.960938 40 "/>
<path style="fill:none;stroke-width:1;stroke-linecap:square;stroke-linejoin:miter;stroke:rgb(100%,0%,0%);stroke-opacity:1;stroke-miterlimit:3.25;" d="M 0 220 L 400 220 "/>
<path style="fill:none;stroke-width:1;stroke-linecap:square;stroke-linejoin:miter;stroke:rgb(100%,0%,0%);stroke-opacity:1;stroke-miterlimit:3.25;" d="M 0 200 L 400 200 "/>
<path style="fill:none;stroke-width:1;stroke-linecap:square;stroke-linejoin:miter;stroke:rgb(100%,0%,0%);stroke-opacity:1;stroke-miterlimit:3.25;" d="M 0 180 L 400 180 "/>
<path style="fill:none;stroke-width:1;stroke-linecap:square;stroke-linejoin:miter;stroke:rgb(100%,0%,0%);stroke-opacity:1;stroke-miterlimit:3.25;" d="M 0 160 L 400 160 "/>
<path style="fill:none;stroke-width:1;stroke-linecap:square;stroke-linejoin:miter;stroke:rgb(100%,0%,0%);stroke-opacity:1;stroke-miterlimit:3.25;" d="M 0 140 L 400 140 "/>
<path style="fill:none;stroke-width:1;stroke-linecap:square;stroke-linejoin:miter;stroke:rgb(100%,0%,0%);stroke-opacity:1;stroke-miterlimit:3.25;" d="M 0 120 L 400 120 "/>
<path style="fill:none;stroke-width:1;stroke-linecap:square;stroke-linejoin:miter;stroke:rgb(100%,0%,0%);stroke-opacity:1;stroke-miterlimit:3.25;" d="M 0 100 L 400 100 "/>
<path style="fill:none;stroke-width:1;stroke-linecap:square;stroke-linejoin:miter;stroke:rgb(100%,0%,0%);stroke-opacity:1;stroke-miterlimit:3.25;" d="M 0 80 L 400 80 "/>
<path style="fill:none;stroke-width:1;stroke-linecap:square;stroke-linejoin:miter;stroke:rgb(100%,0%,0%);stroke-opacity:1;stroke-miterlimit:3.25;" d="M 0 60 L 400 60 "/>
<path style="fill:none;stroke-width:1;stroke-linecap:square;stroke-linejoin:miter;stroke:rgb(100%,0%,0%);stroke-opacity:1;stroke-miterlimit:3.25;" d="M 0 40 L 400 40 "/>
<path style="fill:none;stroke-width:1;stroke-linecap:square;stroke-linejoin:miter;stroke:rgb(100%,0%,0%);stroke-opacity:1;stroke-miterlimit:3.25;" d="M 0 20 L 400 20 "/>
</g>
</svg>
