<?xml version="1.0" encoding="UTF-8"?>
<svg xmlns="http://www.w3.org/2000/svg" xmlns:xlink="http://www.w3.org/1999/xlink" width="400pt" height="220pt" viewBox="0 0 400 220" version="1.1">
<g id="surface896">
<rect x="0" y="0" width="400" height="220" style="fill:rgb(0%,40%,100%);fill-opacity:0.2;stroke:none;"/>
<path style=" stroke:none;fill-rule:nonzero;fill:rgb(0%,0%,0%);fill-opacity:1;" d="M -19.019531 220 L -19.019531 200 L 0.980469 200 L 0.980469 220 Z M -19.019531 220 "/>
<path style=" stroke:none;fill-rule:nonzero;fill:rgb(0%,0%,0%);fill-opacity:1;" d="M -19.019531 180 L -19.019531 160 L 0.980469 160 L 0.980469 180 Z M -19.019531 180 "/>
<path style=" stroke:none;fill-rule:nonzero;fill:rgb(0%,0%,0%);fill-opacity:1;" d="M -19.019531 140 L -19.019531 120 L 0.980469 120 L 0.980469 140 Z M -19.019531 140 "/>
<path style=" stroke:none;fill-rule:nonzero;fill:rgb(0%,0%,0%);fill-opacity:1;" d="M -19.019531 100 L -19.019531 80 L 0.980469 80 L 0.980469 100 Z M -19.019531 100 "/>
<path style=" stroke:none;fill-rule:nonzero;fill:rgb(0%,0%,0%);fill-opacity:1;" d="M -19.019531 60 L -19.019531 40 L 0.980469 40 L 0.980469 60 Z M -19.019531 60 "/>
<path style=" stroke:none;fill-rule:nonzero;fill:rgb(0%,0%,0%);fill-opacity:1;" d="M -19.019531 20 L -19.019531 0 L 0.980469 0 L 0.980469 20 Z M -19.019531 20 "/>
<path style=" stroke:none;fill-rule:nonzero;fill:rgb(0%,0%,0%);fill-opacity:1;" d="M 16.980469 220 L 16.980469 200 L 36.980469 200 L 36.980469 220 Z M 16.980469 220 "/>
<path style=" stroke:none;fill-rule:nonzero;fill:rgb(0%,0%,0%);fill-opacity:1;" d="M 16.980469 180 L 16.980469 160 L 36.980469 160 L 36.980469 180 Z M 16.980469 180 "/>
<path style=" stroke:none;fill-rule:nonzero;fill:rgb(0%,0%,0%);fill-opacity:1;" d="M 16.980469 140 L 16.980469 120 L 36.980469 120 L 36.980469 140 Z M 16.980469 140 "/>
<path style=" stroke:none;fill-rule:nonzero;fill:rgb(0%,0%,0%);fill-opacity:1;" d="M 16.980469 100 L 16.980469 80 L 36.980469 80 L 36.980469 100 Z M 16.980469 100 "/>
<path style=" stroke:none;fill-rule:nonzero;fill:rgb(0%,0%,0%);fill-opacity:1;" d="M 16.980469 60 L 16.980469 40 L 36.980469 40 L 36.980469 60 Z M 16.980469 60 "/>
<path style=" stroke:none;fill-rule:nonzero;fill:rgb(0%,0%,0%);fill-opacity:1;" d="M 16.980469 20 L 16.980469 0 L 36.980469 0 L 36.980469 20 Z M 16.980469 20 "/>
<path style=" stroke:none;fill-rule:nonzero;fill:rgb(0%,0%,0%);fill-opacity:1;" d="M 52.980469 220 L 52.980469 200 L 72.980469 200 L 72.980469 220 Z M 52.980469 220 "/>
<path style=" stroke:none;fill-rule:nonzero;fill:rgb(0%,0%,0%);fill-opacity:1;" d="M 52.980469 180 L 52.980469 160 L 72.980469 160 L 72.980469 180 Z M 52.980469 180 "/>
<path style=" stroke:none;fill-rule:nonzero;fill:rgb(0%,0%,0%);fill-opacity:1;" d="M 52.980469 140 L 52.980469 120 L 72.980469 120 L 72.980469 140 Z M 52.980469 140 "/>
<path style=" stroke:none;fill-rule:nonzero;fill:rgb(0%,0%,0%);fill-opacity:1;" d="M 52.980469 100 L 52.980469 80 L 72.980469 80 L 72.980469 100 Z M 52.980469 100 "/>
<path style=" stroke:none;fill-rule:nonzero;fill:rgb(0%,0%,0%);fill-opacity:1;" d="M 52.980469 60 L 52.980469 40 L 72.980469 40 L 72.980469 60 Z M 52.980469 60 "/>
<path style=" stroke:none;fill-rule:nonzero;fill:rgb(0%,0%,0%);fill-opacity:1;" d="M 52.980469 20 L 52.980469 0 L 72.980469 0 L 72.980469 20 Z M 52.980469 20 "/>
<path style=" stroke:none;fill-rule:nonzero;fill:rgb(0%,0%,0%);fill-opacity:1;" d="M 88.980469 220 L 88.980469 200 L 108.980469 200 L 108.980469 220 Z M 88.980469 220 "/>
<path style=" stroke:none;fill-rule:nonzero;fill:rgb(0%,0%,0%);fill-opacity:1;" d="M 88.980469 180 L 88.980469 160 L 108.980469 160 L 108.980469 180 Z M 88.980469 180 "/>
<path style=" stroke:none;fill-rule:nonzero;fill:rgb(0%,0%,0%);fill-opacity:1;" d="M 88.980469 140 L 88.980469 120 L 108.980469 120 L 108.980469 140 Z M 88.980469 140 "/>
<path style=" stroke:none;fill-rule:nonzero;fill:rgb(0%,0%,0%);fill-opacity:1;" d="M 88.980469 100 L 88.980469 80 L 108.980469 80 L 108.980469 100 Z M 88.980469 100 "/>
<path style=" stroke:none;fill-rule:nonzero;fill:rgb(0%,0%,0%);fill-opacity:1;" d="M 88.980469 60 L 88.980469 40 L 108.980469 40 L 108.980469 60 Z M 88.980469 60 "/>
<path style=" stroke:none;fill-rule:nonzero;fill:rgb(0%,0%,0%);fill-opacity:1;" d="M 88.980469 20 L 88.980469 0 L 108.980469 0 L 108.980469 20 Z M 88.980469 20 "/>
<path style=" stroke:none;fill-rule:nonzero;fill:rgb(0%,0%,0%);fill-opacity:1;" d="M 124.980469 220 L 124.980469 200 L 144.980469 200 L 144.980469 220 Z M 124.980469 220 "/>
<path style=" stroke:none;fill-rule:nonzero;fill:rgb(0%,0%,0%);fill-opacity:1;" d="M 124.980469 180 L 124.980469 160 L 144.980469 160 L 144.980469 180 Z M 124.980469 180 "/>
<path style=" stroke:none;fill-rule:nonzero;fill:rgb(0%,0%,0%);fill-opacity:1;" d="M 124.980469 140 L 124.980469 120 L 144.980469 120 L 144.980469 140 Z M 124.980469 140 "/>
<path style=" stroke:none;fill-rule:nonzero;fill:rgb(0%,0%,0%);fill-opacity:1;" d="M 124.980469 100 L 124.980469 80 L 144.980469 80 L 144.980469 100 Z M 124.980469 100 "/>
<path style=" stroke:none;fill-rule:nonzero;fill:rgb(0%,0%,0%);fill-opacity:1;" d="M 124.980469 60 L 124.980469 40 L 144.980469 40 L 144.980469 60 Z M 124.980469 60 "/>
<path style=" stroke:none;fill-rule:nonzero;fill:rgb(0%,0%,0%);fill-opacity:1;" d="M 124.980469 20 L 124.980469 0 L 144.980469 0 L 144.980469 20 Z M 124.980469 20 "/>
<path style=" stroke:none;fill-rule:nonzero;fill:rgb(0%,0%,0%);fill-opacity:1;" d="M 160.980469 220 L 160.980469 200 L 180.980469 200 L 180.980469 220 Z M 160.980469 220 "/>
<path style=" stroke:none;fill-rule:nonzero;fill:rgb(0%,0%,0%);fill-opacity:1;" d="M 160.980469 180 L 160.980469 160 L 180.980469 160 L 180.980469 180 Z M 160.980469 180 "/>
<path style=" stroke:none;fill-rule:nonzero;fill:rgb(0%,0%,0%);fill-opacity:1;" d="M 160.980469 140 L 160.980469 120 L 180.980469 120 L 180.980469 140 Z M 160.980469 140 "/>
<path style=" stroke:none;fill-rule:nonzero;fill:rgb(0%,0%,0%);fill-opacity:1;" d="M 160.980469 100 L 160.980469 80 L 180.980469 80 L 180.980469 100 Z M 160.980469 100 "/>
<path style=" stroke:none;fill-rule:nonzero;fill:rgb(0%,0%,0%);fill-opacity:1;" d="M 160.980469 60 L 160.980469 40 L 180.980469 40 L 180.980469 60 Z M 160.980469 60 "/>
<path style=" stroke:none;fill-rule:nonzero;fill:rgb(0%,0%,0%);fill-opacity:1;" d="M 160.980469 20 L 160.980469 0 L 180.980469 0 L 180.980469 20 Z M 160.980469 20 "/>
<path style=" stroke:none;fill-rule:nonzero;fill:rgb(0%,0%,0%);fill-opacity:1;" d="M 196.980469 220 L 196.980469 200 L 216.980469 200 L 216.980469 220 Z M 196.980469 220 "/>
<path style=" stroke:none;fill-rule:nonzero;fill:rgb(0%,0%,0%);fill-opacity:1;" d="M 196.980469 180 L 196.980469 160 L 216.980469 160 L 216.980469 180 Z M 196.980469 180 "/>
<path style=" stroke:none;fill-rule:nonzero;fill:rgb(0%,0%,0%);fill-opacity:1;" d="M 196.980469 140 L 196.980469 120 L 216.980469 120 L 216.980469 140 Z M 196.980469 140 "/>
<path style=" stroke:none;fill-rule:nonzero;fill:rgb(0%,0%,0%);fill-opacity:1;" d="M 196.980469 100 L 196.980469 80 L 216.980469 80 L 216.980469 100 Z M 196.980469 100 "/>
<path style=" stroke:none;fill-rule:nonzero;fill:rgb(0%,0%,0%);fill-opacity:1;" d="M 196.980469 60 L 196.980469 40 L 216.980469 40 L 216.980469 60 Z M 196.980469 60 "/>
<path style=" stroke:none;fill-rule:nonzero;fill:rgb(0%,0%,0%);fill-opacity:1;" d="M 196.980469 20 L 196.980469 0 L 216.980469 0 L 216.980469 20 Z M 196.980469 20 "/>
<path style=" stroke:none;fill-rule:nonzero;fill:rgb(0%,0%,0%);fill-opacity:1;" d="M 232.980469 220 L 232.980469 200 L 252.980469 200 L 252.980469 220 Z M 232.980469 220 "/>
<path style=" stroke:none;fill-rule:nonzero;fill:rgb(0%,0%,0%);fill-opacity:1;" d="M 232.980469 180 L 232.980469 160 L 252.980469 160 L 252.980469 180 Z M 232.980469 180 "/>
<path style=" stroke:none;fill-rule:nonzero;fill:rgb(0%,0%,0%);fill-opacity:1;" d="M 232.980469 140 L 232.980469 120 L 252.980469 120 L 252.980469 140 Z M 232.980469 140 "/>
<path style=" stroke:none;fill-rule:nonzero;fill:rgb(0%,0%,0%);fill-opacity:1;" d="M 232.980469 100 L 232.980469 80 L 252.980469 80 L 252.980469 100 Z M 232.980469 100 "/>
<path style=" stroke:none;fill-rule:nonzero;fill:rgb(0%,0%,0%);fill-opacity:1;" d="M 232.980469 60 L 232.980469 40 L 252.980469 40 L 252.980469 60 Z M 232.980469 60 "/>
<path style=" stroke:none;fill-rule:nonzero;fill:rgb(0%,0%,0%);fill-opacity:1;" d="M 232.980469 20 L 232.980469 0 L 252.980469 0 L 252.980469 20 Z M 232.980469 20 "/>
<path style=" stroke:none;fill-rule:nonzero;fill:rgb(0%,0%,0%);fill-opacity:1;" d="M 268.980469 220 L 268.980469 200 L 288.980469 200 L 288.980469 220 Z M 268.980469 220 "/>
<path style=" stroke:none;fill-rule:nonzero;fill:rgb(0%,0%,0%);fill-opacity:1;" d="M 268.980469 180 L 268.980469 160 L 288.980469 160 L 288.980469 180 Z M 268.980469 180 "/>
<path style=" stroke:none;fill-rule:nonzero;fill:rgb(0%,0%,0%);fill-opacity:1;" d="M 268.980469 140 L 268.980469 120 L 288.980469 120 L 288.980469 140 Z M 268.980469 140 "/>
<path style=" stroke:none;fill-rule:nonzero;fill:rgb(0%,0%,0%);fill-opacity:1;" d="M 268.980469 100 L 268.980469 80 L 288.980469 80 L 288.980469 100 Z M 268.980469 100 "/>
<path style=" stroke:none;fill-rule:nonzero;fill:rgb(0%,0%,0%);fill-opacity:1;" d="M 268.980469 60 L 268.980469 40 L 288.980469 40 L 288.980469 60 Z M 268.980469 60 "/>
<path style=" stroke:none;fill-rule:nonzero;fill:rgb(0%,0%,0%);fill-opacity:1;" d="M 268.980469 20 L 268.980469 0 L 288.980469 0 L 288.980469 20 Z M 268.980469 20 "/>
<path style=" stroke:none;fill-rule:nonzero;fill:rgb(0%,0%,0%);fill-opacity:1;" d="M 304.980469 220 L 304.980469 200 L 324.980469 200 L 324.980469 220 Z M 304.980469 220 "/>
<path style=" stroke:none;fill-rule:nonzero;fill:rgb(0%,0%,0%);fill-opacity:1;" d="M 304.980469 180 L 304.980469 160 L 324.980469 160 L 324.980469 180 Z M 304.980469 180 "/>
<path style=" stroke:none;fill-rule:nonzero;fill:rgb(0%,0%,0%);fill-opacity:1;" d="M 304.980469 140 L 304.980469 120 L 324.980469 120 L 324.980469 140 Z M 304.980469 140 "/>
<path style=" stroke:none;fill-rule:nonzero;fill:rgb(0%,0%,0%);fill-opacity:1;" d="M 304.980469 100 L 304.980469 80 L 324.980469 80 L 324.980469 100 Z M 304.980469 100 "/>
<path style=" stroke:none;fill-rule:nonzero;fill:rgb(0%,0%,0%);fill-opacity:1;" d="M 304.980469 60 L 304.980469 40 L 324.980469 40 L 324.980469 60 Z M 304.980469 60 "/>
<path style=" stroke:none;fill-rule:nonzero;fill:rgb(0%,0%,0%);fill-opacity:1;" d="M 304.980469 20 L 304.980469 0 L 324.980469 0 L 324.980469 20 Z M 304.980469 20 "/>
<path style=" stroke:none;fill-rule:nonzero;fill:rgb(0%,0%,0%);fill-opacity:1;" d="M 340.980469 220 L 340.980469 200 L 360.980469 200 L 360.980469 220 Z M 340.980469 220 "/>
<path style=" stroke:none;fill-rule:nonzero;fill:rgb(0%,0%,0%);fill-opacity:1;" d="M 340.980469 180 L 340.980469 160 L 360.980469 160 L 360.980469 180 Z M 340.980469 180 "/>
<path style=" stroke:none;fill-rule:nonzero;fill:rgb(0%,0%,0%);fill-opacity:1;" d="M 340.980469 140 L 340.980469 120 L 360.980469 120 L 360.980469 140 Z M 340.980469 140 "/>
<path style=" stroke:none;fill-rule:nonzero;fill:rgb(0%,0%,0%);fill-opacity:1;" d="M 340.980469 100 L 340.980469 80 L 360.980469 80 L 360.980469 100 Z M 340.980469 100 "/>
<path style=" stroke:none;fill-rule:nonzero;fill:rgb(0%,0%,0%);fill-opacity:1;" d="M 340.980469 60 L 340.980469 40 L 360.980469 40 L 360.980469 60 Z M 340.980469 60 "/>
<path style=" stroke:none;fill-rule:nonzero;fill:rgb(0%,0%,0%);fill-opacity:1;" d="M 340.980469 20 L 340.980469 0 L 360.980469 0 L 360.980469 20 Z M 340.980469 20 "/>
<path style=" stroke:none;fill-rule:nonzero;fill:rgb(0%,0%,0%);fill-opacity:1;" d="M 376.980469 220 L 376.980469 200 L 396.980469 200 L 396.980469 220 Z M 376.980469 220 "/>
<path style=" stroke:none;fill-rule:nonzero;fill:rgb(0%,0%,0%);fill-opacity:1;" d="M 376.980469 180 L 376.980469 160 L 396.980469 160 L 396.980469 180 Z M 376.980469 180 "/>
<path style=" stroke:none;fill-rule:nonzero;fill:rgb(0%,0%,0%);fill-opacity:1;" d="M 376.980469 140 L 376.980469 120 L 396.980469 120 L 396.980469 140 Z M 376.980469 140 "/>
<path style=" stroke:none;fill-rule:nonzero;fill:rgb(0%,0%,0%);fill-opacity:1;" d="M 376.980469 100 L 376.980469 80 L 396.980469 80 L 396.980469 100 Z M 376.980469 100 "/>
<path style=" stroke:none;fill-rule:nonzero;fill:rgb(0%,0%,0%);fill-opacity:1;" d="M 376.980469 60 L 376.980469 40 L 396.980469 40 L 396.980469 60 Z M 376.980469 60 "/>
<path style=" stroke:none;fill-rule:nonzero;fill:rgb(0%,0%,0%);fill-opacity:1;" d="M 376.980469 20 L 376.980469 0 L 396.980469 0 L 396.980469 20 Z M 376.980469 20 "/>
<path style=" stroke:none;fill-rule:nonzero;fill:rgb(0%,0%,0%);fill-opacity:1;" d="M 9.820312 200 L 9.820312 180 L 29.820312 180 L 29.820312 200 Z M 9.820312 200 "/>
<path style=" stroke:none;fill-rule:nonzero;fill:rgb(0%,0%,0%);fill-opacity:1;" d="M 9.820312 160 L 9.820312 140 L 29.820312 140 L 29.820312 160 Z M 9.820312 160 "/>
<path style=" stroke:none;fill-rule:nonzero;fill:rgb(0%,0%,0%);fill-opacity:1;" d="M 9.820312 120 L 9.820312 100 L 29.820312 100 L 29.820312 120 Z M 9.820312 120 "/>
<path style=" stroke:none;fill-rule:nonzero;fill:rgb(0%,0%,0%);fill-opacity:1;" d="M 9.820312 80 L 9.820312 60 L 29.820312 60 L 29.820312 80 Z M 9.820312 80 "/>
<path style=" stroke:none;fill-rule:nonzero;fill:rgb(0%,0%,0%);fill-opacity:1;" d="M 9.820312 40 L 9.820312 20 L 29.820312 20 L 29.820312 40 Z M 9.820312 40 "/>
<path style=" stroke:none;fill-rule:nonzero;fill:rgb(0%,0%,0%);fill-opacity:1;" d="M 45.820312 200 L 45.820312 180 L 65.820312 180 L 65.820312 200 Z M 45.820312 200 "/>
<path style=" stroke:none;fill-rule:nonzero;fill:rgb(0%,0%,0%);fill-opacity:1;" d="M 45.820312 160 L 45.820312 140 L 65.820312 140 L 65.820312 160 Z M 45.820312 160 "/>
<path style=" stroke:none;fill-rule:nonzero;fill:rgb(0%,0%,0%);fill-opacity:1;" d="M 45.820312 120 L 45.820312 100 L 65.820312 100 L 65.820312 120 Z M 45.820312 120 "/>
<path style=" stroke:none;fill-rule:nonzero;fill:rgb(0%,0%,0%);fill-opacity:1;" d="M 45.820312 80 L 45.820312 60 L 65.820312 60 L 65.820312 80 Z M 45.820312 80 "/>
<path style=" stroke:none;fill-rule:nonzero;fill:rgb(0%,0%,0%);fill-opacity:1;" d="M 45.820312 40 L 45.820312 20 L 65.820312 20 L 65.820312 40 Z M 45.820312 40 "/>
<path style=" stroke:none;fill-rule:nonzero;fill:rgb(0%,0%,0%);fill-opacity:1;" d="M 81.820312 200 L 81.820312 180 L 101.820312 180 L 101.820312 200 Z M 81.820312 200 "/>
<path style=" stroke:none;fill-rule:nonzero;fill:rgb(0%,0%,0%);fill-opacity:1;" d="M 81.820312 160 L 81.820312 140 L 101.820312 140 L 101.820312 160 Z M 81.820312 160 "/>
<path style=" stroke:none;fill-rule:nonzero;fill:rgb(0%,0%,0%);fill-opacity:1;" d="M 81.820312 120 L 81.820312 100 L 101.820312 100 L 101.820312 120 Z M 81.820312 120 "/>
<path style=" stroke:none;fill-rule:nonzero;fill:rgb(0%,0%,0%);fill-opacity:1;" d="M 81.820312 80 L 81.820312 60 L 101.820312 60 L 101.820312 80 Z M 81.820312 80 "/>
<path style=" stroke:none;fill-rule:nonzero;fill:rgb(0%,0%,0%);fill-opacity:1;" d="M 81.820312 40 L 81.820312 20 L 101.820312 20 L 101.820312 40 Z M 81.820312 40 "/>
<path style=" stroke:none;fill-rule:nonzero;fill:rgb(0%,0%,0%);fill-opacity:1;" d="M 117.820312 200 L 117.820312 180 L 137.820312 180 L 137.820312 200 Z M 117.820312 200 "/>
<path style=" stroke:none;fill-rule:nonzero;fill:rgb(0%,0%,0%);fill-opacity:1;" d="M 117.820312 160 L 117.820312 140 L 137.820312 140 L 137.820312 160 Z M 117.820312 160 "/>
<path style=" stroke:none;fill-rule:nonzero;fill:rgb(0%,0%,0%);fill-opacity:1;" d="M 117.820312 120 L 117.820312 100 L 137.820312 100 L 137.820312 120 Z M 117.820312 120 "/>
<path style=" stroke:none;fill-rule:nonzero;fill:rgb(0%,0%,0%);fill-opacity:1;" d="M 117.820312 80 L 117.820312 60 L 137.820312 60 L 137.820312 80 Z M 117.820312 80 "/>
<path style=" stroke:none;fill-rule:nonzero;fill:rgb(0%,0%,0%);fill-opacity:1;" d="M 117.820312 40 L 117.820312 20 L 137.820312 20 L 137.820312 40 Z M 117.820312 40 "/>
<path style=" stroke:none;fill-rule:nonzero;fill:rgb(0%,0%,0%);fill-opacity:1;" d="M 153.820312 200 L 153.820312 180 L 173.820312 180 L 173.820312 200 Z M 153.820312 200 "/>
<path style=" stroke:none;fill-rule:nonzero;fill:rgb(0%,0%,0%);fill-opacity:1;" d="M 153.820312 160 L 153.820312 140 L 173.820312 140 L 173.820312 160 Z M 153.820312 160 "/>
<path style=" stroke:none;fill-rule:nonzero;fill:rgb(0%,0%,0%);fill-opacity:1;" d="M 153.820312 120 L 153.820312 100 L 173.820312 100 L 173.820312 120 Z M 153.820312 120 "/>
<path style=" stroke:none;fill-rule:nonzero;fill:rgb(0%,0%,0%);fill-opacity:1;" d="M 153.820312 80 L 153.820312 60 L 173.820312 60 L 173.820312 80 Z M 153.820312 80 "/>
<path style=" stroke:none;fill-rule:nonzero;fill:rgb(0%,0%,0%);fill-opacity:1;" d="M 153.820312 40 L 153.820312 20 L 173.820312 20 L 173.820312 40 Z M 153.820312 40 "/>
<path style=" stroke:none;fill-rule:nonzero;fill:rgb(0%,0%,0%);fill-opacity:1;" d="M 189.820312 200 L 189.820312 180 L 209.820312 180 L 209.820312 200 Z M 189.820312 200 "/>
<path style=" stroke:none;fill-rule:nonzero;fill:rgb(0%,0%,0%);fill-opacity:1;" d="M 189.820312 160 L 189.820312 140 L 209.820312 140 L 209.820312 160 Z M 189.820312 160 "/>
<path style=" stroke:none;fill-rule:nonzero;fill:rgb(0%,0%,0%);fill-opacity:1;" d="M 189.820312 120 L 189.820312 100 L 209.820312 100 L 209.820312 120 Z M 189.820312 120 "/>
<path style=" stroke:none;fill-rule:nonzero;fill:rgb(0%,0%,0%);fill-opacity:1;" d="M 189.820312 80 L 189.820312 60 L 209.820312 60 L 209.820312 80 Z M 189.820312 80 "/>
<path style=" stroke:none;fill-rule:nonzero;fill:rgb(0%,0%,0%);fill-opacity:1;" d="M 189.820312 40 L 189.820312 20 L 209.820312 20 L 209.820312 40 Z M 189.820312 40 "/>
<path style=" stroke:none;fill-rule:nonzero;fill:rgb(0%,0%,0%);fill-opacity:1;" d="M 225.820312 200 L 225.820312 180 L 245.820312 180 L 245.820312 200 Z M 225.820312 200 "/>
<path style=" stroke:none;fill-rule:nonzero;fill:rgb(0%,0%,0%);fill-opacity:1;" d="M 225.820312 160 L 225.820312 140 L 245.820312 140 L 245.820312 160 Z M 225.820312 160 "/>
<path style=" stroke:none;fill-rule:nonzero;fill:rgb(0%,0%,0%);fill-opacity:1;" d="M 225.820312 120 L 225.820312 100 L 245.820312 100 L 245.820312 120 Z M 225.820312 120 "/>
<path style=" stroke:none;fill-rule:nonzero;fill:rgb(0%,0%,0%);fill-opacity:1;" d="M 225.820312 80 L 225.820312 60 L 245.820312 60 L 245.820312 80 Z M 225.820312 80 "/>
<path style=" stroke:none;fill-rule:nonzero;fill:rgb(0%,0%,0%);fill-opacity:1;" d="M 225.820312 40 L 225.820312 20 L 245.820312 20 L 245.820312 40 Z M 225.820312 40 "/>
<path style=" stroke:none;fill-rule:nonzero;fill:rgb(0%,0%,0%);fill-opacity:1;" d="M 261.820312 200 L 261.820312 180 L 281.820312 180 L 281.820312 200 Z M 261.820312 200 "/>
<path style=" stroke:none;fill-rule:nonzero;fill:rgb(0%,0%,0%);fill-opacity:1;" d="M 261.820312 160 L 261.820312 140 L 281.820312 140 L 281.820312 160 Z M 261.820312 160 "/>
<path style=" stroke:none;fill-rule:nonzero;fill:rgb(0%,0%,0%);fill-opacity:1;" d="M 261.820312 120 L 261.820312 100 L 281.820312 100 L 281.820312 120 Z M 261.820312 120 "/>
<path style=" stroke:none;fill-rule:nonzero;fill:rgb(0%,0%,0%);fill-opacity:1;" d="M 261.820312 80 L 261.820312 60 L 281.820312 60 L 281.820312 80 Z M 261.820312 80 "/>
<path style=" stroke:none;fill-rule:nonzero;fill:rgb(0%,0%,0%);fill-opacity:1;" d="M 261.820312 40 L 261.820312 20 L 281.820312 20 L 281.820312 40 Z M 261.820312 40 "/>
<path style=" stroke:none;fill-rule:nonzero;fill:rgb(0%,0%,0%);fill-opacity:1;" d="M 297.820312 200 L 297.820312 180 L 317.820312 180 L 317.820312 200 Z M 297.820312 200 "/>
<path style=" stroke:none;fill-rule:nonzero;fill:rgb(0%,0%,0%);fill-opacity:1;" d="M 297.820312 160 L 297.820312 140 L 317.820312 140 L 317.820312 160 Z M 297.820312 160 "/>
<path style=" stroke:none;fill-rule:nonzero;fill:rgb(0%,0%,0%);fill-opacity:1;" d="M 297.820312 120 L 297.820312 100 L 317.820312 100 L 317.820312 120 Z M 297.820312 120 "/>
<path style=" stroke:none;fill-rule:nonzero;fill:rgb(0%,0%,0%);fill-opacity:1;" d="M 297.820312 80 L 297.820312 60 L 317.820312 60 L 317.820312 80 Z M 297.820312 80 "/>
<path style=" stroke:none;fill-rule:nonzero;fill:rgb(0%,0%,0%);fill-opacity:1;" d="M 297.820312 40 L 297.820312 20 L 317.820312 20 L 317.820312 40 Z M 297.820312 40 "/>
<path style=" stroke:none;fill-rule:nonzero;fill:rgb(0%,0%,0%);fill-opacity:1;" d="M 333.820312 200 L 333.820312 180 L 353.820312 180 L 353.820312 200 Z M 333.820312 200 "/>
<path style=" stroke:none;fill-rule:nonzero;fill:rgb(0%,0%,0%);fill-opacity:1;" d="M 333.820312 160 L 333.820312 140 L 353.820312 140 L 353.820312 160 Z M 333.820312 160 "/>
<path style=" stroke:none;fill-rule:nonzero;fill:rgb(0%,0%,0%);fill-opacity:1;" d="M 333.820312 120 L 333.820312 100 L 353.820312 100 L 353.820312 120 Z M 333.820312 120 "/>
<path style=" stroke:none;fill-rule:nonzero;fill:rgb(0%,0%,0%);fill-opacity:1;" d="M 333.820312 80 L 333.820312 60 L 353.820312 60 L 353.820312 80 Z M 333.820312 80 "/>
<path style=" stroke:none;fill-rule:nonzero;fill:rgb(0%,0%,0%);fill-opacity:1;" d="M 333.820312 40 L 333.820312 20 L 353.820312 20 L 353.820312 40 Z M 333.820312 40 "/>
<path style=" stroke:none;fill-rule:nonzero;fill:rgb(0%,0%,0%);fill-opacity:1;" d="M 369.820312 200 L 369.820312 180 L 389.820312 180 L 389.820312 200 Z M 369.820312 200 "/>
<path style=" stroke:none;fill-rule:nonzero;fill:rgb(0%,0%,0%);fill-opacity:1;" d="M 369.820312 160 L 369.820312 140 L 389.820312 140 L 389.820312 160 Z M 369.820312 160 "/>
<path style=" stroke:none;fill-rule:nonzero;fill:rgb(0%,0%,0%);fill-opacity:1;" d="M 369.820312 120 L 369.820312 100 L 389.820312 100 L 389.820312 120 Z M 369.820312 120 "/>
<path style=" stroke:none;fill-rule:nonzero;fill:rgb(0%,0%,0%);fill-opacity:1;" d="M 369.820312 80 L 369.820312 60 L 389.820312 60 L 389.820312 80 Z M 369.820312 80 "/>
<path style=" stroke:none;fill-rule:nonzero;fill:rgb(0%,0%,0%);fill-opacity:1;" d="M 369.820312 40 L 369.820312 20 L 389.820312 20 L 389.820312 40 Z M 369.820312 40 "/>
<path style="fill:none;stroke-width:1;stroke-linecap:square;stroke-linejoin:miter;stroke:rgb(100%,0%,0%);stroke-opacity:1;stroke-miterlimit:3.25;" d="M 0 220 L 400 220 "/>
<path style="fill:none;stroke-width:1;stroke-linecap:square;stroke-linejoin:miter;stroke:rgb(100%,0%,0%);stroke-opacity:1;stroke-miterlimit:3.25;" d="M 0 200 L 400 200 "/>
<path style="fill:none;stroke-width:1;stroke-linecap:square;stroke-linejoin:miter;stroke:rgb(100%,0%,0%);stroke-opacity:1;stroke-miterlimit:3.25;" d="M 0 180 L 400 180 "/>
<path style="fill:none;stroke-width:1;stroke-linecap:square;stroke-linejoin:miter;stroke:rgb(100%,0%,0%);stroke-opacity:1;stroke-miterlimit:3.25;" d="M 0 160 L 400 160 "/>
<path style="fill:none;stroke-width:1;stroke-linecap:square;stroke-linejoin:miter;stroke:rgb(100%,0%,0%);stroke-opacity:1;stroke-miterlimit:3.25;" d="M 0 140 L 400 140 "/>
<path style="fill:none;stroke-width:1;stroke-linecap:square;stroke-linejoin:miter;stroke:rgb(100%,0%,0%);stroke-opacity:1;stroke-miterlimit:3.25;" d="M 0 120 L 400 120 "/>
<path style="fill:none;stroke-width:1;stroke-linecap:square;stroke-linejoin:miter;stroke:rgb(100%,0%,0%);stroke-opacity:1;stroke-miterlimit:3.25;" d="M 0 100 L 400 100 "/>
<path style="fill:none;stroke-width:1;stroke-linecap:square;stroke-linejoin:miter;stroke:rgb(100%,0%,0%);stroke-opacity:1;stroke-miterlimit:3.25;" d="M 0 80 L 400 80 "/>
<path style="fill:none;stroke-width:1;stroke-linecap:square;stroke-linejoin:miter;stroke:rgb(100%,0%,0%);stroke-opacity:1;stroke-miterlimit:3.25;" d="M 0 60 L 400 60 "/>
<path style="fill:none;stroke-width:1;stroke-linecap:square;stroke-linejoin:miter;stroke:rgb(100%,0%,0%);stroke-opacity:1;stroke-miterlimit:3.25;" d="M 0 40 L 400 40 "/>
<path style="fill:none;stroke-width:1;stroke-linecap:square;stroke-linejoin:miter;stroke:rgb(100%,0%,0%);stroke-opacity:1;stroke-miterlimit:3.25;" d="M 0 20 L 400 20 "/>
</g>
</svg>
