<?xml version="1.0" encoding="UTF-8"?>
<svg xmlns="http://www.w3.org/2000/svg" xmlns:xlink="http://www.w3.org/1999/xlink" width="400pt" height="220pt" viewBox="0 0 400 220" version="1.1">
<g id="surface951">
<rect x="0" y="0" width="400" height="220" style="fill:rgb(0%,40%,100%);fill-opacity:0.2;stroke:none;"/>
<path style=" stroke:none;fill-rule:nonzero;fill:rgb(0%,0%,0%);fill-opacity:1;" d="M -10.714844 220 L -10.714844 200 L 9.285156 200 L 9.285156 220 Z M -10.714844 220 "/>
<path style=" stroke:none;fill-rule:nonzero;fill:rgb(0%,0%,0%);fill-opacity:1;" d="M -10.714844 180 L -10.714844 160 L 9.285156 160 L 9.285156 180 Z M -10.714844 180 "/>
<path style=" stroke:none;fill-rule:nonzero;fill:rgb(0%,0%,0%);fill-opacity:1;" d="M -10.714844 140 L -10.714844 120 L 9.285156 120 L 9.285156 140 Z M -10.714844 140 "/>
<path style=" stroke:none;fill-rule:nonzero;fill:rgb(0%,0%,0%);fill-opacity:1;" d="M -10.714844 100 L -10.714844 80 L 9.285156 80 L 9.285156 100 Z M -10.714844 100 "/>
<path style=" stroke:none;fill-rule:nonzero;fill:rgb(0%,0%,0%);fill-opacity:1;" d="M -10.714844 60 L -10.714844 40 L 9.285156 40 L 9.285156 60 Z M -10.714844 60 "/>
<path style=" stroke:none;fill-rule:nonzero;fill:rgb(0%,0%,0%);fill-opacity:1;" d="M -10.714844 20 L -10.714844 0 L 9.285156 0 L 9.285156 20 Z M -10.714844 20 "/>
<path style=" stroke:none;fill-rule:nonzero;fill:rgb(0%,0%,0%);fill-opacity:1;" d="M 25.285156 220 L 25.285156 200 L 45.285156 200 L 45.285156 220 Z M 25.285156 220 "/>
<path style=" stroke:none;fill-rule:nonzero;fill:rgb(0%,0%,0%);fill-opacity:1;" d="M 25.285156 180 L 25.285156 160 L 45.285156 160 L 45.285156 180 Z M 25.285156 180 "/>
<path style=" stroke:none;fill-rule:nonzero;fill:rgb(0%,0%,0%);fill-opacity:1;" d="M 25.285156 140 L 25.285156 120 L 45.285156 120 L 45.285156 140 Z M 25.285156 140 "/>
<path style=" stroke:none;fill-rule:nonzero;fill:rgb(0%,0%,0%);fill-opacity:1;" d="M 25.285156 100 L 25.285156 80 L 45.285156 80 L 45.285156 100 Z M 25.285156 100 "/>
<path style=" stroke:none;fill-rule:nonzero;fill:rgb(0%,0%,0%);fill-opacity:1;" d="M 25.285156 60 L 25.285156 40 L 45.285156 40 L 45.285156 60 Z M 25.285156 60 "/>
<path style=" stroke:none;fill-rule:nonzero;fill:rgb(0%,0%,0%);fill-opacity:1;" d="M 25.285156 20 L 25.285156 0 L 45.285156 0 L 45.285156 20 Z M 25.285156 20 "/>
<path style=" stroke:none;fill-rule:nonzero;fill:rgb(0%,0%,0%);fill-opacity:1;" d="M 61.285156 220 L 61.285156 200 L 81.285156 200 L 81.285156 220 Z M 61.285156 220 "/>
<path style=" stroke:none;fill-rule:nonzero;fill:rgb(0%,0%,0%);fill-opacity:1;" d="M 61.285156 180 L 61.285156 160 L 81.285156 160 L 81.285156 180 Z M 61.285156 180 "/>
<path style=" stroke:none;fill-rule:nonzero;fill:rgb(0%,0%,0%);fill-opacity:1;" d="M 61.285156 140 L 61.285156 120 L 81.285156 120 L 81.285156 140 Z M 61.285156 140 "/>
<path style=" stroke:none;fill-rule:nonzero;fill:rgb(0%,0%,0%);fill-opacity:1;" d="M 61.285156 100 L 61.285156 80 L 81.285156 80 L 81.285156 100 Z M 61.285156 100 "/>
<path style=" stroke:none;fill-rule:nonzero;fill:rgb(0%,0%,0%);fill-opacity:1;" d="M 61.285156 60 L 61.285156 40 L 81.285156 40 L 81.285156 60 Z M 61.285156 60 "/>
<path style=" stroke:none;fill-rule:nonzero;fill:rgb(0%,0%,0%);fill-opacity:1;" d="M 61.285156 20 L 61.285156 0 L 81.285156 0 L 81.285156 20 Z M 61.285156 20 "/>
<path style=" stroke:none;fill-rule:nonzero;fill:rgb(0%,0%,0%);fill-opacity:1;" d="M 97.285156 220 L 97.285156 200 L 117.285156 200 L 117.285156 220 Z M 97.285156 220 "/>
<path style=" stroke:none;fill-rule:nonzero;fill:rgb(0%,0%,0%);fill-opacity:1;" d="M 97.285156 180 L 97.285156 160 L 117.285156 160 L 117.285156 180 Z M 97.285156 180 "/>
<path style=" stroke:none;fill-rule:nonzero;fill:rgb(0%,0%,0%);fill-opacity:1;" d="M 97.285156 140 L 97.285156 120 L 117.285156 120 L 117.285156 140 Z M 97.285156 140 "/>
<path style=" stroke:none;fill-rule:nonzero;fill:rgb(0%,0%,0%);fill-opacity:1;" d="M 97.285156 100 L 97.285156 80 L 117.285156 80 L 117.285156 100 Z M 97.285156 100 "/>
<path style=" stroke:none;fill-rule:nonzero;fill:rgb(0%,0%,0%);fill-opacity:1;" d="M 97.285156 60 L 97.285156 40 L 117.285156 40 L 117.285156 60 Z M 97.285156 60 "/>
<path style=" stroke:none;fill-rule:nonzero;fill:rgb(0%,0%,0%);fill-opacity:1;" d="M 97.285156 20 L 97.285156 0 L 117.285156 0 L 117.285156 20 Z M 97.285156 20 "/>
<path style=" stroke:none;fill-rule:nonzero;fill:rgb(0%,0%,0%);fill-opacity:1;" d="M 133.285156 220 L 133.285156 200 L 153.285156 200 L 153.285156 220 Z M 133.285156 220 "/>
<path style=" stroke:none;fill-rule:nonzero;fill:rgb(0%,0%,0%);fill-opacity:1;" d="M 133.285156 180 L 133.285156 160 L 153.285156 160 L 153.285156 180 Z M 133.285156 180 "/>
<path style=" stroke:none;fill-rule:nonzero;fill:rgb(0%,0%,0%);fill-opacity:1;" d="M 133.285156 140 L 133.285156 120 L 153.285156 120 L 153.285156 140 Z M 133.285156 140 "/>
<path style=" stroke:none;fill-rule:nonzero;fill:rgb(0%,0%,0%);fill-opacity:1;" d="M 133.285156 100 L 133.285156 80 L 153.285156 80 L 153.285156 100 Z M 133.285156 100 "/>
<path style=" stroke:none;fill-rule:nonzero;fill:rgb(0%,0%,0%);fill-opacity:1;" d="M 133.285156 60 L 133.285156 40 L 153.285156 40 L 153.285156 60 Z M 133.285156 60 "/>
<path style=" stroke:none;fill-rule:nonzero;fill:rgb(0%,0%,0%);fill-opacity:1;" d="M 133.285156 20 L 133.285156 0 L 153.285156 0 L 153.285156 20 Z M 133.285156 20 "/>
<path style=" stroke:none;fill-rule:nonzero;fill:rgb(0%,0%,0%);fill-opacity:1;" d="M 169.285156 220 L 169.285156 200 L 189.285156 200 L 189.285156 220 Z M 169.285156 220 "/>
<path style=" stroke:none;fill-rule:nonzero;fill:rgb(0%,0%,0%);fill-opacity:1;" d="M 169.285156 180 L 169.285156 160 L 189.285156 160 L 189.285156 180 Z M 169.285156 180 "/>
<path style=" stroke:none;fill-rule:nonzero;fill:rgb(0%,0%,0%);fill-opacity:1;" d="M 169.285156 140 L 169.285156 120 L 189.285156 120 L 189.285156 140 Z M 169.285156 140 "/>
<path style=" stroke:none;fill-rule:nonzero;fill:rgb(0%,0%,0%);fill-opacity:1;" d="M 169.285156 100 L 169.285156 80 L 189.285156 80 L 189.285156 100 Z M 169.285156 100 "/>
<path style=" stroke:none;fill-rule:nonzero;fill:rgb(0%,0%,0%);fill-opacity:1;" d="M 169.285156 60 L 169.285156 40 L 189.285156 40 L 189.285156 60 Z M 169.285156 60 "/>
<path style=" stroke:none;fill-rule:nonzero;fill:rgb(0%,0%,0%);fill-opacity:1;" d="M 169.285156 20 L 169.285156 0 L 189.285156 0 L 189.285156 20 Z M 169.285156 20 "/>
<path style=" stroke:none;fill-rule:nonzero;fill:rgb(0%,0%,0%);fill-opacity:1;" d="M 205.285156 220 L 205.285156 200 L 225.285156 200 L 225.285156 220 Z M 205.285156 220 "/>
<path style=" stroke:none;fill-rule:nonzero;fill:rgb(0%,0%,0%);fill-opacity:1;" d="M 205.285156 180 L 205.285156 160 L 225.285156 160 L 225.285156 180 Z M 205.285156 180 "/>
<path style=" stroke:none;fill-rule:nonzero;fill:rgb(0%,0%,0%);fill-opacity:1;" d="M 205.285156 140 L 205.285156 120 L 225.285156 120 L 225.285156 140 Z M 205.285156 140 "/>
<path style=" stroke:none;fill-rule:nonzero;fill:rgb(0%,0%,0%);fill-opacity:1;" d="M 205.285156 100 L 205.285156 80 L 225.285156 80 L 225.285156 100 Z M 205.285156 100 "/>
<path style=" stroke:none;fill-rule:nonzero;fill:rgb(0%,0%,0%);fill-opacity:1;" d="M 205.285156 60 L 205.285156 40 L 225.285156 40 L 225.285156 60 Z M 205.285156 60 "/>
<path style=" stroke:none;fill-rule:nonzero;fill:rgb(0%,0%,0%);fill-opacity:1;" d="M 205.285156 20 L 205.285156 0 L 225.285156 0 L 225.285156 20 Z M 205.285156 20 "/>
<path style=" stroke:none;fill-rule:nonzero;fill:rgb(0%,0%,0%);fill-opacity:1;" d="M 241.285156 220 L 241.285156 200 L 261.285156 200 L 261.285156 220 Z M 241.285156 220 "/>
<path style=" stroke:none;fill-rule:nonzero;fill:rgb(0%,0%,0%);fill-opacity:1;" d="M 241.285156 180 L 241.285156 160 L 261.285156 160 L 261.285156 180 Z M 241.285156 180 "/>
<path style=" stroke:none;fill-rule:nonzero;fill:rgb(0%,0%,0%);fill-opacity:1;" d="M 241.285156 140 L 241.285156 120 L 261.285156 120 L 261.285156 140 Z M 241.285156 140 "/>
<path style=" stroke:none;fill-rule:nonzero;fill:rgb(0%,0%,0%);fill-opacity:1;" d="M 241.285156 100 L 241.285156 80 L 261.285156 80 L 261.285156 100 Z M 241.285156 100 "/>
<path style=" stroke:none;fill-rule:nonzero;fill:rgb(0%,0%,0%);fill-opacity:1;" d="M 241.285156 60 L 241.285156 40 L 261.285156 40 L 261.285156 60 Z M 241.285156 60 "/>
<path style=" stroke:none;fill-rule:nonzero;fill:rgb(0%,0%,0%);fill-opacity:1;" d="M 241.285156 20 L 241.285156 0 L 261.285156 0 L 261.285156 20 Z M 241.285156 20 "/>
<path style=" stroke:none;fill-rule:nonzero;fill:rgb(0%,0%,0%);fill-opacity:1;" d="M 277.285156 220 L 277.285156 200 L 297.285156 200 L 297.285156 220 Z M 277.285156 220 "/>
<path style=" stroke:none;fill-rule:nonzero;fill:rgb(0%,0%,0%);fill-opacity:1;" d="M 277.285156 180 L 277.285156 160 L 297.285156 160 L 297.285156 180 Z M 277.285156 180 "/>
<path style=" stroke:none;fill-rule:nonzero;fill:rgb(0%,0%,0%);fill-opacity:1;" d="M 277.285156 140 L 277.285156 120 L 297.285156 120 L 297.285156 140 Z M 277.285156 140 "/>
<path style=" stroke:none;fill-rule:nonzero;fill:rgb(0%,0%,0%);fill-opacity:1;" d="M 277.285156 100 L 277.285156 80 L 297.285156 80 L 297.285156 100 Z M 277.285156 100 "/>
<path style=" stroke:none;fill-rule:nonzero;fill:rgb(0%,0%,0%);fill-opacity:1;" d="M 277.285156 60 L 277.285156 40 L 297.285156 40 L 297.285156 60 Z M 277.285156 60 "/>
<path style=" stroke:none;fill-rule:nonzero;fill:rgb(0%,0%,0%);fill-opacity:1;" d="M 277.285156 20 L 277.285156 0 L 297.285156 0 L 297.285156 20 Z M 277.285156 20 "/>
<path style=" stroke:none;fill-rule:nonzero;fill:rgb(0%,0%,0%);fill-opacity:1;" d="M 313.285156 220 L 313.285156 200 L 333.285156 200 L 333.285156 220 Z M 313.285156 220 "/>
<path style=" stroke:none;fill-rule:nonzero;fill:rgb(0%,0%,0%);fill-opacity:1;" d="M 313.285156 180 L 313.285156 160 L 333.285156 160 L 333.285156 180 Z M 313.285156 180 "/>
<path style=" stroke:none;fill-rule:nonzero;fill:rgb(0%,0%,0%);fill-opacity:1;" d="M 313.285156 140 L 313.285156 120 L 333.285156 120 L 333.285156 140 Z M 313.285156 140 "/>
<path style=" stroke:none;fill-rule:nonzero;fill:rgb(0%,0%,0%);fill-opacity:1;" d="M 313.285156 100 L 313.285156 80 L 333.285156 80 L 333.285156 100 Z M 313.285156 100 "/>
<path style=" stroke:none;fill-rule:nonzero;fill:rgb(0%,0%,0%);fill-opacity:1;" d="M 313.285156 60 L 313.285156 40 L 333.285156 40 L 333.285156 60 Z M 313.285156 60 "/>
<path style=" stroke:none;fill-rule:nonzero;fill:rgb(0%,0%,0%);fill-opacity:1;" d="M 313.285156 20 L 313.285156 0 L 333.285156 0 L 333.285156 20 Z M 313.285156 20 "/>
<path style=" stroke:none;fill-rule:nonzero;fill:rgb(0%,0%,0%);fill-opacity:1;" d="M 349.285156 220 L 349.285156 200 L 369.285156 200 L 369.285156 220 Z M 349.285156 220 "/>
<path style=" stroke:none;fill-rule:nonzero;fill:rgb(0%,0%,0%);fill-opacity:1;" d="M 349.285156 180 L 349.285156 160 L 369.285156 160 L 369.285156 180 Z M 349.285156 180 "/>
<path style=" stroke:none;fill-rule:nonzero;fill:rgb(0%,0%,0%);fill-opacity:1;" d="M 349.285156 140 L 349.285156 120 L 369.285156 120 L 369.285156 140 Z M 349.285156 140 "/>
<path style=" stroke:none;fill-rule:nonzero;fill:rgb(0%,0%,0%);fill-opacity:1;" d="M 349.285156 100 L 349.285156 80 L 369.285156 80 L 369.285156 100 Z M 349.285156 100 "/>
<path style=" stroke:none;fill-rule:nonzero;fill:rgb(0%,0%,0%);fill-opacity:1;" d="M 349.285156 60 L 349.285156 40 L 369.285156 40 L 369.285156 60 Z M 349.285156 60 "/>
<path style=" stroke:none;fill-rule:nonzero;fill:rgb(0%,0%,0%);fill-opacity:1;" d="M 349.285156 20 L 349.285156 0 L 369.285156 0 L 369.285156 20 Z M 349.285156 20 "/>
<path style=" stroke:none;fill-rule:nonzero;fill:rgb(0%,0%,0%);fill-opacity:1;" d="M 385.285156 220 L 385.285156 200 L 405.285156 200 L 405.285156 220 Z M 385.285156 220 "/>
<path style=" stroke:none;fill-rule:nonzero;fill:rgb(0%,0%,0%);fill-opacity:1;" d="M 385.285156 180 L 385.285156 160 L 405.285156 160 L 405.285156 180 Z M 385.285156 180 "/>
<path style=" stroke:none;fill-rule:nonzero;fill:rgb(0%,0%,0%);fill-opacity:1;" d="M 385.285156 140 L 385.285156 120 L 405.285156 120 L 405.285156 140 Z M 385.285156 140 "/>
<path style=" stroke:none;fill-rule:nonzero;fill:rgb(0%,0%,0%);fill-opacity:1;" d="M 385.285156 100 L 385.285156 80 L 405.285156 80 L 405.285156 100 Z M 385.285156 100 "/>
<path style=" stroke:none;fill-rule:nonzero;fill:rgb(0%,0%,0%);fill-opacity:1;" d="M 385.285156 60 L 385.285156 40 L 405.285156 40 L 405.285156 60 Z M 385.285156 60 "/>
<path style=" stroke:none;fill-rule:nonzero;fill:rgb(0%,0%,0%);fill-opacity:1;" d="M 385.285156 20 L 385.285156 0 L 405.285156 0 L 405.285156 20 Z M 385.285156 20 "/>
<path style=" stroke:none;fill-rule:nonzero;fill:rgb(0%,0%,0%);fill-opacity:1;" d="M -0.886719 200 L -0.886719 180 L 19.113281 180 L 19.113281 200 Z M -0.886719 200 "/>
<path style=" stroke:none;fill-rule:nonzero;fill:rgb(0%,0%,0%);fill-opacity:1;" d="M -0.886719 160 L -0.886719 140 L 19.113281 140 L 19.113281 160 Z M -0.886719 160 "/>
<path style=" stroke:none;fill-rule:nonzero;fill:rgb(0%,0%,0%);fill-opacity:1;" d="M -0.886719 120 L -0.886719 100 L 19.113281 100 L 19.113281 120 Z M -0.886719 120 "/>
<path style=" stroke:none;fill-rule:nonzero;fill:rgb(0%,0%,0%);fill-opacity:1;" d="M -0.886719 80 L -0.886719 60 L 19.113281 60 L 19.113281 80 Z M -0.886719 80 "/>
<path style=" stroke:none;fill-rule:nonzero;fill:rgb(0%,0%,0%);fill-opacity:1;" d="M -0.886719 40 L -0.886719 20 L 19.113281 20 L 19.113281 40 Z M -0.886719 40 "/>
<path style=" stroke:none;fill-rule:nonzero;fill:rgb(0%,0%,0%);fill-opacity:1;" d="M 35.113281 200 L 35.113281 180 L 55.113281 180 L 55.113281 200 Z M 35.113281 200 "/>
<path style=" stroke:none;fill-rule:nonzero;fill:rgb(0%,0%,0%);fill-opacity:1;" d="M 35.113281 160 L 35.113281 140 L 55.113281 140 L 55.113281 160 Z M 35.113281 160 "/>
<path style=" stroke:none;fill-rule:nonzero;fill:rgb(0%,0%,0%);fill-opacity:1;" d="M 35.113281 120 L 35.113281 100 L 55.113281 100 L 55.113281 120 Z M 35.113281 120 "/>
<path style=" stroke:none;fill-rule:nonzero;fill:rgb(0%,0%,0%);fill-opacity:1;" d="M 35.113281 80 L 35.113281 60 L 55.113281 60 L 55.113281 80 Z M 35.113281 80 "/>
<path style=" stroke:none;fill-rule:nonzero;fill:rgb(0%,0%,0%);fill-opacity:1;" d="M 35.113281 40 L 35.113281 20 L 55.113281 20 L 55.113281 40 Z M 35.113281 40 "/>
<path style=" stroke:none;fill-rule:nonzero;fill:rgb(0%,0%,0%);fill-opacity:1;" d="M 71.113281 200 L 71.113281 180 L 91.113281 180 L 91.113281 200 Z M 71.113281 200 "/>
<path style=" stroke:none;fill-rule:nonzero;fill:rgb(0%,0%,0%);fill-opacity:1;" d="M 71.113281 160 L 71.113281 140 L 91.113281 140 L 91.113281 160 Z M 71.113281 160 "/>
<path style=" stroke:none;fill-rule:nonzero;fill:rgb(0%,0%,0%);fill-opacity:1;" d="M 71.113281 120 L 71.113281 100 L 91.113281 100 L 91.113281 120 Z M 71.113281 120 "/>
<path style=" stroke:none;fill-rule:nonzero;fill:rgb(0%,0%,0%);fill-opacity:1;" d="M 71.113281 80 L 71.113281 60 L 91.113281 60 L 91.113281 80 Z M 71.113281 80 "/>
<path style=" stroke:none;fill-rule:nonzero;fill:rgb(0%,0%,0%);fill-opacity:1;" d="M 71.113281 40 L 71.113281 20 L 91.113281 20 L 91.113281 40 Z M 71.113281 40 "/>
<path style=" stroke:none;fill-rule:nonzero;fill:rgb(0%,0%,0%);fill-opacity:1;" d="M 107.113281 200 L 107.113281 180 L 127.113281 180 L 127.113281 200 Z M 107.113281 200 "/>
<path style=" stroke:none;fill-rule:nonzero;fill:rgb(0%,0%,0%);fill-opacity:1;" d="M 107.113281 160 L 107.113281 140 L 127.113281 140 L 127.113281 160 Z M 107.113281 160 "/>
<path style=" stroke:none;fill-rule:nonzero;fill:rgb(0%,0%,0%);fill-opacity:1;" d="M 107.113281 120 L 107.113281 100 L 127.113281 100 L 127.113281 120 Z M 107.113281 120 "/>
<path style=" stroke:none;fill-rule:nonzero;fill:rgb(0%,0%,0%);fill-opacity:1;" d="M 107.113281 80 L 107.113281 60 L 127.113281 60 L 127.113281 80 Z M 107.113281 80 "/>
<path style=" stroke:none;fill-rule:nonzero;fill:rgb(0%,0%,0%);fill-opacity:1;" d="M 107.113281 40 L 107.113281 20 L 127.113281 20 L 127.113281 40 Z M 107.113281 40 "/>
<path style=" stroke:none;fill-rule:nonzero;fill:rgb(0%,0%,0%);fill-opacity:1;" d="M 143.113281 200 L 143.113281 180 L 163.113281 180 L 163.113281 200 Z M 143.113281 200 "/>
<path style=" stroke:none;fill-rule:nonzero;fill:rgb(0%,0%,0%);fill-opacity:1;" d="M 143.113281 160 L 143.113281 140 L 163.113281 140 L 163.113281 160 Z M 143.113281 160 "/>
<path style=" stroke:none;fill-rule:nonzero;fill:rgb(0%,0%,0%);fill-opacity:1;" d="M 143.113281 120 L 143.113281 100 L 163.113281 100 L 163.113281 120 Z M 143.113281 120 "/>
<path style=" stroke:none;fill-rule:nonzero;fill:rgb(0%,0%,0%);fill-opacity:1;" d="M 143.113281 80 L 143.113281 60 L 163.113281 60 L 163.113281 80 Z M 143.113281 80 "/>
<path style=" stroke:none;fill-rule:nonzero;fill:rgb(0%,0%,0%);fill-opacity:1;" d="M 143.113281 40 L 143.113281 20 L 163.113281 20 L 163.113281 40 Z M 143.113281 40 "/>
<path style=" stroke:none;fill-rule:nonzero;fill:rgb(0%,0%,0%);fill-opacity:1;" d="M 179.113281 200 L 179.113281 180 L 199.113281 180 L 199.113281 200 Z M 179.113281 200 "/>
<path style=" stroke:none;fill-rule:nonzero;fill:rgb(0%,0%,0%);fill-opacity:1;" d="M 179.113281 160 L 179.113281 140 L 199.113281 140 L 199.113281 160 Z M 179.113281 160 "/>
<path style=" stroke:none;fill-rule:nonzero;fill:rgb(0%,0%,0%);fill-opacity:1;" d="M 179.113281 120 L 179.113281 100 L 199.113281 100 L 199.113281 120 Z M 179.113281 120 "/>
<path style=" stroke:none;fill-rule:nonzero;fill:rgb(0%,0%,0%);fill-opacity:1;" d="M 179.113281 80 L 179.113281 60 L 199.113281 60 L 199.113281 80 Z M 179.113281 80 "/>
<path style=" stroke:none;fill-rule:nonzero;fill:rgb(0%,0%,0%);fill-opacity:1;" d="M 179.113281 40 L 179.113281 20 L 199.113281 20 L 199.113281 40 Z M 179.113281 40 "/>
<path style=" stroke:none;fill-rule:nonzero;fill:rgb(0%,0%,0%);fill-opacity:1;" d="M 215.113281 200 L 215.113281 180 L 235.113281 180 L 235.113281 200 Z M 215.113281 200 "/>
<path style=" stroke:none;fill-rule:nonzero;fill:rgb(0%,0%,0%);fill-opacity:1;" d="M 215.113281 160 L 215.113281 140 L 235.113281 140 L 235.113281 160 Z M 215.113281 160 "/>
<path style=" stroke:none;fill-rule:nonzero;fill:rgb(0%,0%,0%);fill-opacity:1;" d="M 215.113281 120 L 215.113281 100 L 235.113281 100 L 235.113281 120 Z M 215.113281 120 "/>
<path style=" stroke:none;fill-rule:nonzero;fill:rgb(0%,0%,0%);fill-opacity:1;" d="M 215.113281 80 L 215.113281 60 L 235.113281 60 L 235.113281 80 Z M 215.113281 80 "/>
<path style=" stroke:none;fill-rule:nonzero;fill:rgb(0%,0%,0%);fill-opacity:1;" d="M 215.113281 40 L 215.113281 20 L 235.113281 20 L 235.113281 40 Z M 215.113281 40 "/>
<path style=" stroke:none;fill-rule:nonzero;fill:rgb(0%,0%,0%);fill-opacity:1;" d="M 251.113281 200 L 251.113281 180 L 271.113281 180 L 271.113281 200 Z M 251.113281 200 "/>
<path style=" stroke:none;fill-rule:nonzero;fill:rgb(0%,0%,0%);fill-opacity:1;" d="M 251.113281 160 L 251.113281 140 L 271.113281 140 L 271.113281 160 Z M 251.113281 160 "/>
<path style=" stroke:none;fill-rule:nonzero;fill:rgb(0%,0%,0%);fill-opacity:1;" d="M 251.113281 120 L 251.113281 100 L 271.113281 100 L 271.113281 120 Z M 251.113281 120 "/>
<path style=" stroke:none;fill-rule:nonzero;fill:rgb(0%,0%,0%);fill-opacity:1;" d="M 251.113281 80 L 251.113281 60 L 271.113281 60 L 271.113281 80 Z M 251.113281 80 "/>
<path style=" stroke:none;fill-rule:nonzero;fill:rgb(0%,0%,0%);fill-opacity:1;" d="M 251.113281 40 L 251.113281 20 L 271.113281 20 L 271.113281 40 Z M 251.113281 40 "/>
<path style=" stroke:none;fill-rule:nonzero;fill:rgb(0%,0%,0%);fill-opacity:1;" d="M 287.113281 200 L 287.113281 180 L 307.113281 180 L 307.113281 200 Z M 287.113281 200 "/>
<path style=" stroke:none;fill-rule:nonzero;fill:rgb(0%,0%,0%);fill-opacity:1;" d="M 287.113281 160 L 287.113281 140 L 307.113281 140 L 307.113281 160 Z M 287.113281 160 "/>
<path style=" stroke:none;fill-rule:nonzero;fill:rgb(0%,0%,0%);fill-opacity:1;" d="M 287.113281 120 L 287.113281 100 L 307.113281 100 L 307.113281 120 Z M 287.113281 120 "/>
<path style=" stroke:none;fill-rule:nonzero;fill:rgb(0%,0%,0%);fill-opacity:1;" d="M 287.113281 80 L 287.113281 60 L 307.113281 60 L 307.113281 80 Z M 287.113281 80 "/>
<path style=" stroke:none;fill-rule:nonzero;fill:rgb(0%,0%,0%);fill-opacity:1;" d="M 287.113281 40 L 287.113281 20 L 307.113281 20 L 307.113281 40 Z M 287.113281 40 "/>
<path style=" stroke:none;fill-rule:nonzero;fill:rgb(0%,0%,0%);fill-opacity:1;" d="M 323.113281 200 L 323.113281 180 L 343.113281 180 L 343.113281 200 Z M 323.113281 200 "/>
<path style=" stroke:none;fill-rule:nonzero;fill:rgb(0%,0%,0%);fill-opacity:1;" d="M 323.113281 160 L 323.113281 140 L 343.113281 140 L 343.113281 160 Z M 323.113281 160 "/>
<path style=" stroke:none;fill-rule:nonzero;fill:rgb(0%,0%,0%);fill-opacity:1;" d="M 323.113281 120 L 323.113281 100 L 343.113281 100 L 343.113281 120 Z M 323.113281 120 "/>
<path style=" stroke:none;fill-rule:nonzero;fill:rgb(0%,0%,0%);fill-opacity:1;" d="M 323.113281 80 L 323.113281 60 L 343.113281 60 L 343.113281 80 Z M 323.113281 80 "/>
<path style=" stroke:none;fill-rule:nonzero;fill:rgb(0%,0%,0%);fill-opacity:1;" d="M 323.113281 40 L 323.113281 20 L 343.113281 20 L 343.113281 40 Z M 323.113281 40 "/>
<path style=" stroke:none;fill-rule:nonzero;fill:rgb(0%,0%,0%);fill-opacity:1;" d="M 359.113281 200 L 359.113281 180 L 379.113281 180 L 379.113281 200 Z M 359.113281 200 "/>
<path style=" stroke:none;fill-rule:nonzero;fill:rgb(0%,0%,0%);fill-opacity:1;" d="M 359.113281 160 L 359.113281 140 L 379.113281 140 L 379.113281 160 Z M 359.113281 160 "/>
<path style=" stroke:none;fill-rule:nonzero;fill:rgb(0%,0%,0%);fill-opacity:1;" d="M 359.113281 120 L 359.113281 100 L 379.113281 100 L 379.113281 120 Z M 359.113281 120 "/>
<path style=" stroke:none;fill-rule:nonzero;fill:rgb(0%,0%,0%);fill-opacity:1;" d="M 359.113281 80 L 359.113281 60 L 379.113281 60 L 379.113281 80 Z M 359.113281 80 "/>
<path style=" stroke:none;fill-rule:nonzero;fill:rgb(0%,0%,0%);fill-opacity:1;" d="M 359.113281 40 L 359.113281 20 L 379.113281 20 L 379.113281 40 Z M 359.113281 40 "/>
<path style="fill:none;stroke-width:1;stroke-linecap:square;stroke-linejoin:miter;stroke:rgb(100%,0%,0%);stroke-opacity:1;stroke-miterlimit:3.25;" d="M 0 220 L 400 220 "/>
<path style="fill:none;stroke-width:1;stroke-linecap:square;stroke-linejoin:miter;stroke:rgb(100%,0%,0%);stroke-opacity:1;stroke-miterlimit:3.25;" d="M 0 200 L 400 200 "/>
<path style="fill:none;stroke-width:1;stroke-linecap:square;stroke-linejoin:miter;stroke:rgb(100%,0%,0%);stroke-opacity:1;stroke-miterlimit:3.25;" d="M 0 180 L 400 180 "/>
<path style="fill:none;stroke-width:1;stroke-linecap:square;stroke-linejoin:miter;stroke:rgb(100%,0%,0%);stroke-opacity:1;stroke-miterlimit:3.25;" d="M 0 160 L 400 160 "/>
<path style="fill:none;stroke-width:1;stroke-linecap:square;stroke-linejoin:miter;stroke:rgb(100%,0%,0%);stroke-opacity:1;stroke-miterlimit:3.25;" d="M 0 140 L 400 140 "/>
<path style="fill:none;stroke-width:1;stroke-linecap:square;stroke-linejoin:miter;stroke:rgb(100%,0%,0%);stroke-opacity:1;stroke-miterlimit:3.25;" d="M 0 120 L 400 120 "/>
<path style="fill:none;stroke-width:1;stroke-linecap:square;stroke-linejoin:miter;stroke:rgb(100%,0%,0%);stroke-opacity:1;stroke-miterlimit:3.25;" d="M 0 100 L 400 100 "/>
<path style="fill:none;stroke-width:1;stroke-linecap:square;stroke-linejoin:miter;stroke:rgb(100%,0%,0%);stroke-opacity:1;stroke-miterlimit:3.25;" d="M 0 80 L 400 80 "/>
<path style="fill:none;stroke-width:1;stroke-linecap:square;stroke-linejoin:miter;stroke:rgb(100%,0%,0%);stroke-opacity:1;stroke-miterlimit:3.25;" d="M 0 60 L 400 60 "/>
<path style="fill:none;stroke-width:1;stroke-linecap:square;stroke-linejoin:miter;stroke:rgb(100%,0%,0%);stroke-opacity:1;stroke-miterlimit:3.25;" d="M 0 40 L 400 40 "/>
<path style="fill:none;stroke-width:1;stroke-linecap:square;stroke-linejoin:miter;stroke:rgb(100%,0%,0%);stroke-opacity:1;stroke-miterlimit:3.25;" d="M 0 20 L 400 20 "/>
</g>
</svg>
