<?xml version="1.0" encoding="UTF-8"?>
<svg xmlns="http://www.w3.org/2000/svg" xmlns:xlink="http://www.w3.org/1999/xlink" width="400pt" height="220pt" viewBox="0 0 400 220" version="1.1">
<g id="surface671">
<rect x="0" y="0" width="400" height="220" style="fill:rgb(0%,40%,100%);fill-opacity:0.2;stroke:none;"/>
<path style=" stroke:none;fill-rule:nonzero;fill:rgb(0%,0%,0%);fill-opacity:1;" d="M 16.179688 220 L 16.179688 200 L 36.179688 200 L 36.179688 220 Z M 16.179688 220 "/>
<path style=" stroke:none;fill-rule:nonzero;fill:rgb(0%,0%,0%);fill-opacity:1;" d="M 16.179688 180 L 16.179688 160 L 36.179688 160 L 36.179688 180 Z M 16.179688 180 "/>
<path style=" stroke:none;fill-rule:nonzero;fill:rgb(0%,0%,0%);fill-opacity:1;" d="M 16.179688 140 L 16.179688 120 L 36.179688 120 L 36.179688 140 Z M 16.179688 140 "/>
<path style=" stroke:none;fill-rule:nonzero;fill:rgb(0%,0%,0%);fill-opacity:1;" d="M 16.179688 100 L 16.179688 80 L 36.179688 80 L 36.179688 100 Z M 16.179688 100 "/>
<path style=" stroke:none;fill-rule:nonzero;fill:rgb(0%,0%,0%);fill-opacity:1;" d="M 16.179688 60 L 16.179688 40 L 36.179688 40 L 36.179688 60 Z M 16.179688 60 "/>
<path style=" stroke:none;fill-rule:nonzero;fill:rgb(0%,0%,0%);fill-opacity:1;" d="M 16.179688 20 L 16.179688 0 L 36.179688 0 L 36.179688 20 Z M 16.179688 20 "/>
<path style=" stroke:none;fill-rule:nonzero;fill:rgb(0%,0%,0%);fill-opacity:1;" d="M 52.179688 220 L 52.179688 200 L 72.179688 200 L 72.179688 220 Z M 52.179688 220 "/>
<path style=" stroke:none;fill-rule:nonzero;fill:rgb(0%,0%,0%);fill-opacity:1;" d="M 52.179688 180 L 52.179688 160 L 72.179688 160 L 72.179688 180 Z M 52.179688 180 "/>
<path style=" stroke:none;fill-rule:nonzero;fill:rgb(0%,0%,0%);fill-opacity:1;" d="M 52.179688 140 L 52.179688 120 L 72.179688 120 L 72.179688 140 Z M 52.179688 140 "/>
<path style=" stroke:none;fill-rule:nonzero;fill:rgb(0%,0%,0%);fill-opacity:1;" d="M 52.179688 100 L 52.179688 80 L 72.179688 80 L 72.179688 100 Z M 52.179688 100 "/>
<path style=" stroke:none;fill-rule:nonzero;fill:rgb(0%,0%,0%);fill-opacity:1;" d="M 52.179688 60 L 52.179688 40 L 72.179688 40 L 72.179688 60 Z M 52.179688 60 "/>
<path style=" stroke:none;fill-rule:nonzero;fill:rgb(0%,0%,0%);fill-opacity:1;" d="M 52.179688 20 L 52.179688 0 L 72.179688 0 L 72.179688 20 Z M 52.179688 20 "/>
<path style=" stroke:none;fill-rule:nonzero;fill:rgb(0%,0%,0%);fill-opacity:1;" d="M 88.179688 220 L 88.179688 200 L 108.179688 200 L 108.179688 220 Z M 88.179688 220 "/>
<path style=" stroke:none;fill-rule:nonzero;fill:rgb(0%,0%,0%);fill-opacity:1;" d="M 88.179688 180 L 88.179688 160 L 108.179688 160 L 108.179688 180 Z M 88.179688 180 "/>
<path style=" stroke:none;fill-rule:nonzero;fill:rgb(0%,0%,0%);fill-opacity:1;" d="M 88.179688 140 L 88.179688 120 L 108.179688 120 L 108.179688 140 Z M 88.179688 140 "/>
<path style=" stroke:none;fill-rule:nonzero;fill:rgb(0%,0%,0%);fill-opacity:1;" d="M 88.179688 100 L 88.179688 80 L 108.179688 80 L 108.179688 100 Z M 88.179688 100 "/>
<path style=" stroke:none;fill-rule:nonzero;fill:rgb(0%,0%,0%);fill-opacity:1;" d="M 88.179688 60 L 88.179688 40 L 108.179688 40 L 108.179688 60 Z M 88.179688 60 "/>
<path style=" stroke:none;fill-rule:nonzero;fill:rgb(0%,0%,0%);fill-opacity:1;" d="M 88.179688 20 L 88.179688 0 L 108.179688 0 L 108.179688 20 Z M 88.179688 20 "/>
<path style=" stroke:none;fill-rule:nonzero;fill:rgb(0%,0%,0%);fill-opacity:1;" d="M 124.179688 220 L 124.179688 200 L 144.179688 200 L 144.179688 220 Z M 124.179688 220 "/>
<path style=" stroke:none;fill-rule:nonzero;fill:rgb(0%,0%,0%);fill-opacity:1;" d="M 124.179688 180 L 124.179688 160 L 144.179688 160 L 144.179688 180 Z M 124.179688 180 "/>
<path style=" stroke:none;fill-rule:nonzero;fill:rgb(0%,0%,0%);fill-opacity:1;" d="M 124.179688 140 L 124.179688 120 L 144.179688 120 L 144.179688 140 Z M 124.179688 140 "/>
<path style=" stroke:none;fill-rule:nonzero;fill:rgb(0%,0%,0%);fill-opacity:1;" d="M 124.179688 100 L 124.179688 80 L 144.179688 80 L 144.179688 100 Z M 124.179688 100 "/>
<path style=" stroke:none;fill-rule:nonzero;fill:rgb(0%,0%,0%);fill-opacity:1;" d="M 124.179688 60 L 124.179688 40 L 144.179688 40 L 144.179688 60 Z M 124.179688 60 "/>
<path style=" stroke:none;fill-rule:nonzero;fill:rgb(0%,0%,0%);fill-opacity:1;" d="M 124.179688 20 L 124.179688 0 L 144.179688 0 L 144.179688 20 Z M 124.179688 20 "/>
<path style=" stroke:none;fill-rule:nonzero;fill:rgb(0%,0%,0%);fill-opacity:1;" d="M 160.179688 220 L 160.179688 200 L 180.179688 200 L 180.179688 220 Z M 160.179688 220 "/>
<path style=" stroke:none;fill-rule:nonzero;fill:rgb(0%,0%,0%);fill-opacity:1;" d="M 160.179688 180 L 160.179688 160 L 180.179688 160 L 180.179688 180 Z M 160.179688 180 "/>
<path style=" stroke:none;fill-rule:nonzero;fill:rgb(0%,0%,0%);fill-opacity:1;" d="M 160.179688 140 L 160.179688 120 L 180.179688 120 L 180.179688 140 Z M 160.179688 140 "/>
<path style=" stroke:none;fill-rule:nonzero;fill:rgb(0%,0%,0%);fill-opacity:1;" d="M 160.179688 100 L 160.179688 80 L 180.179688 80 L 180.179688 100 Z M 160.179688 100 "/>
<path style=" stroke:none;fill-rule:nonzero;fill:rgb(0%,0%,0%);fill-opacity:1;" d="M 160.179688 60 L 160.179688 40 L 180.179688 40 L 180.179688 60 Z M 160.179688 60 "/>
<path style=" stroke:none;fill-rule:nonzero;fill:rgb(0%,0%,0%);fill-opacity:1;" d="M 160.179688 20 L 160.179688 0 L 180.179688 0 L 180.179688 20 Z M 160.179688 20 "/>
<path style=" stroke:none;fill-rule:nonzero;fill:rgb(0%,0%,0%);fill-opacity:1;" d="M 196.179688 220 L 196.179688 200 L 216.179688 200 L 216.179688 220 Z M 196.179688 220 "/>
<path style=" stroke:none;fill-rule:nonzero;fill:rgb(0%,0%,0%);fill-opacity:1;" d="M 196.179688 180 L 196.179688 160 L 216.179688 160 L 216.179688 180 Z M 196.179688 180 "/>
<path style=" stroke:none;fill-rule:nonzero;fill:rgb(0%,0%,0%);fill-opacity:1;" d="M 196.179688 140 L 196.179688 120 L 216.179688 120 L 216.179688 140 Z M 196.179688 140 "/>
<path style=" stroke:none;fill-rule:nonzero;fill:rgb(0%,0%,0%);fill-opacity:1;" d="M 196.179688 100 L 196.179688 80 L 216.179688 80 L 216.179688 100 Z M 196.179688 100 "/>
<path style=" stroke:none;fill-rule:nonzero;fill:rgb(0%,0%,0%);fill-opacity:1;" d="M 196.179688 60 L 196.179688 40 L 216.179688 40 L 216.179688 60 Z M 196.179688 60 "/>
<path style=" stroke:none;fill-rule:nonzero;fill:rgb(0%,0%,0%);fill-opacity:1;" d="M 196.179688 20 L 196.179688 0 L 216.179688 0 L 216.179688 20 Z M 196.179688 20 "/>
<path style=" stroke:none;fill-rule:nonzero;fill:rgb(0%,0%,0%);fill-opacity:1;" d="M 232.179688 220 L 232.179688 200 L 252.179688 200 L 252.179688 220 Z M 232.179688 220 "/>
<path style=" stroke:none;fill-rule:nonzero;fill:rgb(0%,0%,0%);fill-opacity:1;" d="M 232.179688 180 L 232.179688 160 L 252.179688 160 L 252.179688 180 Z M 232.179688 180 "/>
<path style=" stroke:none;fill-rule:nonzero;fill:rgb(0%,0%,0%);fill-opacity:1;" d="M 232.179688 140 L 232.179688 120 L 252.179688 120 L 252.179688 140 Z M 232.179688 140 "/>
<path style=" stroke:none;fill-rule:nonzero;fill:rgb(0%,0%,0%);fill-opacity:1;" d="M 232.179688 100 L 232.179688 80 L 252.179688 80 L 252.179688 100 Z M 232.179688 100 "/>
<path style=" stroke:none;fill-rule:nonzero;fill:rgb(0%,0%,0%);fill-opacity:1;" d="M 232.179688 60 L 232.179688 40 L 252.179688 40 L 252.179688 60 Z M 232.179688 60 "/>
<path style=" stroke:none;fill-rule:nonzero;fill:rgb(0%,0%,0%);fill-opacity:1;" d="M 232.179688 20 L 232.179688 0 L 252.179688 0 L 252.179688 20 Z M 232.179688 20 "/>
<path style=" stroke:none;fill-rule:nonzero;fill:rgb(0%,0%,0%);fill-opacity:1;" d="M 268.179688 220 L 268.179688 200 L 288.179688 200 L 288.179688 220 Z M 268.179688 220 "/>
<path style=" stroke:none;fill-rule:nonzero;fill:rgb(0%,0%,0%);fill-opacity:1;" d="M 268.179688 180 L 268.179688 160 L 288.179688 160 L 288.179688 180 Z M 268.179688 180 "/>
<path style=" stroke:none;fill-rule:nonzero;fill:rgb(0%,0%,0%);fill-opacity:1;" d="M 268.179688 140 L 268.179688 120 L 288.179688 120 L 288.179688 140 Z M 268.179688 140 "/>
<path style=" stroke:none;fill-rule:nonzero;fill:rgb(0%,0%,0%);fill-opacity:1;" d="M 268.179688 100 L 268.179688 80 L 288.179688 80 L 288.179688 100 Z M 268.179688 100 "/>
<path style=" stroke:none;fill-rule:nonzero;fill:rgb(0%,0%,0%);fill-opacity:1;" d="M 268.179688 60 L 268.179688 40 L 288.179688 40 L 288.179688 60 Z M 268.179688 60 "/>
<path style=" stroke:none;fill-rule:nonzero;fill:rgb(0%,0%,0%);fill-opacity:1;" d="M 268.179688 20 L 268.179688 0 L 288.179688 0 L 288.179688 20 Z M 268.179688 20 "/>
<path style=" stroke:none;fill-rule:nonzero;fill:rgb(0%,0%,0%);fill-opacity:1;" d="M 304.179688 220 L 304.179688 200 L 324.179688 200 L 324.179688 220 Z M 304.179688 220 "/>
<path style=" stroke:none;fill-rule:nonzero;fill:rgb(0%,0%,0%);fill-opacity:1;" d="M 304.179688 180 L 304.179688 160 L 324.179688 160 L 324.179688 180 Z M 304.179688 180 "/>
<path style=" stroke:none;fill-rule:nonzero;fill:rgb(0%,0%,0%);fill-opacity:1;" d="M 304.179688 140 L 304.179688 120 L 324.179688 120 L 324.179688 140 Z M 304.179688 140 "/>
<path style=" stroke:none;fill-rule:nonzero;fill:rgb(0%,0%,0%);fill-opacity:1;" d="M 304.179688 100 L 304.179688 80 L 324.179688 80 L 324.179688 100 Z M 304.179688 100 "/>
<path style=" stroke:none;fill-rule:nonzero;fill:rgb(0%,0%,0%);fill-opacity:1;" d="M 304.179688 60 L 304.179688 40 L 324.179688 40 L 324.179688 60 Z M 304.179688 60 "/>
<path style=" stroke:none;fill-rule:nonzero;fill:rgb(0%,0%,0%);fill-opacity:1;" d="M 304.179688 20 L 304.179688 0 L 324.179688 0 L 324.179688 20 Z M 304.179688 20 "/>
<path style=" stroke:none;fill-rule:nonzero;fill:rgb(0%,0%,0%);fill-opacity:1;" d="M 340.179688 220 L 340.179688 200 L 360.179688 200 L 360.179688 220 Z M 340.179688 220 "/>
<path style=" stroke:none;fill-rule:nonzero;fill:rgb(0%,0%,0%);fill-opacity:1;" d="M 340.179688 180 L 340.179688 160 L 360.179688 160 L 360.179688 180 Z M 340.179688 180 "/>
<path style=" stroke:none;fill-rule:nonzero;fill:rgb(0%,0%,0%);fill-opacity:1;" d="M 340.179688 140 L 340.179688 120 L 360.179688 120 L 360.179688 140 Z M 340.179688 140 "/>
<path style=" stroke:none;fill-rule:nonzero;fill:rgb(0%,0%,0%);fill-opacity:1;" d="M 340.179688 100 L 340.179688 80 L 360.179688 80 L 360.179688 100 Z M 340.179688 100 "/>
<path style=" stroke:none;fill-rule:nonzero;fill:rgb(0%,0%,0%);fill-opacity:1;" d="M 340.179688 60 L 340.179688 40 L 360.179688 40 L 360.179688 60 Z M 340.179688 60 "/>
<path style=" stroke:none;fill-rule:nonzero;fill:rgb(0%,0%,0%);fill-opacity:1;" d="M 340.179688 20 L 340.179688 0 L 360.179688 0 L 360.179688 20 Z M 340.179688 20 "/>
<path style=" stroke:none;fill-rule:nonzero;fill:rgb(0%,0%,0%);fill-opacity:1;" d="M 376.179688 220 L 376.179688 200 L 396.179688 200 L 396.179688 220 Z M 376.179688 220 "/>
<path style=" stroke:none;fill-rule:nonzero;fill:rgb(0%,0%,0%);fill-opacity:1;" d="M 376.179688 180 L 376.179688 160 L 396.179688 160 L 396.179688 180 Z M 376.179688 180 "/>
<path style=" stroke:none;fill-rule:nonzero;fill:rgb(0%,0%,0%);fill-opacity:1;" d="M 376.179688 140 L 376.179688 120 L 396.179688 120 L 396.179688 140 Z M 376.179688 140 "/>
<path style=" stroke:none;fill-rule:nonzero;fill:rgb(0%,0%,0%);fill-opacity:1;" d="M 376.179688 100 L 376.179688 80 L 396.179688 80 L 396.179688 100 Z M 376.179688 100 "/>
<path style=" stroke:none;fill-rule:nonzero;fill:rgb(0%,0%,0%);fill-opacity:1;" d="M 376.179688 60 L 376.179688 40 L 396.179688 40 L 396.179688 60 Z M 376.179688 60 "/>
<path style=" stroke:none;fill-rule:nonzero;fill:rgb(0%,0%,0%);fill-opacity:1;" d="M 376.179688 20 L 376.179688 0 L 396.179688 0 L 396.179688 20 Z M 376.179688 20 "/>
<path style=" stroke:none;fill-rule:nonzero;fill:rgb(0%,0%,0%);fill-opacity:1;" d="M -8.246094 200 L -8.246094 180 L 11.753906 180 L 11.753906 200 Z M -8.246094 200 "/>
<path style=" stroke:none;fill-rule:nonzero;fill:rgb(0%,0%,0%);fill-opacity:1;" d="M -8.246094 160 L -8.246094 140 L 11.753906 140 L 11.753906 160 Z M -8.246094 160 "/>
<path style=" stroke:none;fill-rule:nonzero;fill:rgb(0%,0%,0%);fill-opacity:1;" d="M -8.246094 120 L -8.246094 100 L 11.753906 100 L 11.753906 120 Z M -8.246094 120 "/>
<path style=" stroke:none;fill-rule:nonzero;fill:rgb(0%,0%,0%);fill-opacity:1;" d="M -8.246094 80 L -8.246094 60 L 11.753906 60 L 11.753906 80 Z M -8.246094 80 "/>
<path style=" stroke:none;fill-rule:nonzero;fill:rgb(0%,0%,0%);fill-opacity:1;" d="M -8.246094 40 L -8.246094 20 L 11.753906 20 L 11.753906 40 Z M -8.246094 40 "/>
<path style=" stroke:none;fill-rule:nonzero;fill:rgb(0%,0%,0%);fill-opacity:1;" d="M 27.753906 200 L 27.753906 180 L 47.753906 180 L 47.753906 200 Z M 27.753906 200 "/>
<path style=" stroke:none;fill-rule:nonzero;fill:rgb(0%,0%,0%);fill-opacity:1;" d="M 27.753906 160 L 27.753906 140 L 47.753906 140 L 47.753906 160 Z M 27.753906 160 "/>
<path style=" stroke:none;fill-rule:nonzero;fill:rgb(0%,0%,0%);fill-opacity:1;" d="M 27.753906 120 L 27.753906 100 L 47.753906 100 L 47.753906 120 Z M 27.753906 120 "/>
<path style=" stroke:none;fill-rule:nonzero;fill:rgb(0%,0%,0%);fill-opacity:1;" d="M 27.753906 80 L 27.753906 60 L 47.753906 60 L 47.753906 80 Z M 27.753906 80 "/>
<path style=" stroke:none;fill-rule:nonzero;fill:rgb(0%,0%,0%);fill-opacity:1;" d="M 27.753906 40 L 27.753906 20 L 47.753906 20 L 47.753906 40 Z M 27.753906 40 "/>
<path style=" stroke:none;fill-rule:nonzero;fill:rgb(0%,0%,0%);fill-opacity:1;" d="M 63.753906 200 L 63.753906 180 L 83.753906 180 L 83.753906 200 Z M 63.753906 200 "/>
<path style=" stroke:none;fill-rule:nonzero;fill:rgb(0%,0%,0%);fill-opacity:1;" d="M 63.753906 160 L 63.753906 140 L 83.753906 140 L 83.753906 160 Z M 63.753906 160 "/>
<path style=" stroke:none;fill-rule:nonzero;fill:rgb(0%,0%,0%);fill-opacity:1;" d="M 63.753906 120 L 63.753906 100 L 83.753906 100 L 83.753906 120 Z M 63.753906 120 "/>
<path style=" stroke:none;fill-rule:nonzero;fill:rgb(0%,0%,0%);fill-opacity:1;" d="M 63.753906 80 L 63.753906 60 L 83.753906 60 L 83.753906 80 Z M 63.753906 80 "/>
<path style=" stroke:none;fill-rule:nonzero;fill:rgb(0%,0%,0%);fill-opacity:1;" d="M 63.753906 40 L 63.753906 20 L 83.753906 20 L 83.753906 40 Z M 63.753906 40 "/>
<path style=" stroke:none;fill-rule:nonzero;fill:rgb(0%,0%,0%);fill-opacity:1;" d="M 99.753906 200 L 99.753906 180 L 119.753906 180 L 119.753906 200 Z M 99.753906 200 "/>
<path style=" stroke:none;fill-rule:nonzero;fill:rgb(0%,0%,0%);fill-opacity:1;" d="M 99.753906 160 L 99.753906 140 L 119.753906 140 L 119.753906 160 Z M 99.753906 160 "/>
<path style=" stroke:none;fill-rule:nonzero;fill:rgb(0%,0%,0%);fill-opacity:1;" d="M 99.753906 120 L 99.753906 100 L 119.753906 100 L 119.753906 120 Z M 99.753906 120 "/>
<path style=" stroke:none;fill-rule:nonzero;fill:rgb(0%,0%,0%);fill-opacity:1;" d="M 99.753906 80 L 99.753906 60 L 119.753906 60 L 119.753906 80 Z M 99.753906 80 "/>
<path style=" stroke:none;fill-rule:nonzero;fill:rgb(0%,0%,0%);fill-opacity:1;" d="M 99.753906 40 L 99.753906 20 L 119.753906 20 L 119.753906 40 Z M 99.753906 40 "/>
<path style=" stroke:none;fill-rule:nonzero;fill:rgb(0%,0%,0%);fill-opacity:1;" d="M 135.753906 200 L 135.753906 180 L 155.753906 180 L 155.753906 200 Z M 135.753906 200 "/>
<path style=" stroke:none;fill-rule:nonzero;fill:rgb(0%,0%,0%);fill-opacity:1;" d="M 135.753906 160 L 135.753906 140 L 155.753906 140 L 155.753906 160 Z M 135.753906 160 "/>
<path style=" stroke:none;fill-rule:nonzero;fill:rgb(0%,0%,0%);fill-opacity:1;" d="M 135.753906 120 L 135.753906 100 L 155.753906 100 L 155.753906 120 Z M 135.753906 120 "/>
<path style=" stroke:none;fill-rule:nonzero;fill:rgb(0%,0%,0%);fill-opacity:1;" d="M 135.753906 80 L 135.753906 60 L 155.753906 60 L 155.753906 80 Z M 135.753906 80 "/>
<path style=" stroke:none;fill-rule:nonzero;fill:rgb(0%,0%,0%);fill-opacity:1;" d="M 135.753906 40 L 135.753906 20 L 155.753906 20 L 155.753906 40 Z M 135.753906 40 "/>
<path style=" stroke:none;fill-rule:nonzero;fill:rgb(0%,0%,0%);fill-opacity:1;" d="M 171.753906 200 L 171.753906 180 L 191.753906 180 L 191.753906 200 Z M 171.753906 200 "/>
<path style=" stroke:none;fill-rule:nonzero;fill:rgb(0%,0%,0%);fill-opacity:1;" d="M 171.753906 160 L 171.753906 140 L 191.753906 140 L 191.753906 160 Z M 171.753906 160 "/>
<path style=" stroke:none;fill-rule:nonzero;fill:rgb(0%,0%,0%);fill-opacity:1;" d="M 171.753906 120 L 171.753906 100 L 191.753906 100 L 191.753906 120 Z M 171.753906 120 "/>
<path style=" stroke:none;fill-rule:nonzero;fill:rgb(0%,0%,0%);fill-opacity:1;" d="M 171.753906 80 L 171.753906 60 L 191.753906 60 L 191.753906 80 Z M 171.753906 80 "/>
<path style=" stroke:none;fill-rule:nonzero;fill:rgb(0%,0%,0%);fill-opacity:1;" d="M 171.753906 40 L 171.753906 20 L 191.753906 20 L 191.753906 40 Z M 171.753906 40 "/>
<path style=" stroke:none;fill-rule:nonzero;fill:rgb(0%,0%,0%);fill-opacity:1;" d="M 207.753906 200 L 207.753906 180 L 227.753906 180 L 227.753906 200 Z M 207.753906 200 "/>
<path style=" stroke:none;fill-rule:nonzero;fill:rgb(0%,0%,0%);fill-opacity:1;" d="M 207.753906 160 L 207.753906 140 L 227.753906 140 L 227.753906 160 Z M 207.753906 160 "/>
<path style=" stroke:none;fill-rule:nonzero;fill:rgb(0%,0%,0%);fill-opacity:1;" d="M 207.753906 120 L 207.753906 100 L 227.753906 100 L 227.753906 120 Z M 207.753906 120 "/>
<path style=" stroke:none;fill-rule:nonzero;fill:rgb(0%,0%,0%);fill-opacity:1;" d="M 207.753906 80 L 207.753906 60 L 227.753906 60 L 227.753906 80 Z M 207.753906 80 "/>
<path style=" stroke:none;fill-rule:nonzero;fill:rgb(0%,0%,0%);fill-opacity:1;" d="M 207.753906 40 L 207.753906 20 L 227.753906 20 L 227.753906 40 Z M 207.753906 40 "/>
<path style=" stroke:none;fill-rule:nonzero;fill:rgb(0%,0%,0%);fill-opacity:1;" d="M 243.753906 200 L 243.753906 180 L 263.753906 180 L 263.753906 200 Z M 243.753906 200 "/>
<path style=" stroke:none;fill-rule:nonzero;fill:rgb(0%,0%,0%);fill-opacity:1;" d="M 243.753906 160 L 243.753906 140 L 263.753906 140 L 263.753906 160 Z M 243.753906 160 "/>
<path style=" stroke:none;fill-rule:nonzero;fill:rgb(0%,0%,0%);fill-opacity:1;" d="M 243.753906 120 L 243.753906 100 L 263.753906 100 L 263.753906 120 Z M 243.753906 120 "/>
<path style=" stroke:none;fill-rule:nonzero;fill:rgb(0%,0%,0%);fill-opacity:1;" d="M 243.753906 80 L 243.753906 60 L 263.753906 60 L 263.753906 80 Z M 243.753906 80 "/>
<path style=" stroke:none;fill-rule:nonzero;fill:rgb(0%,0%,0%);fill-opacity:1;" d="M 243.753906 40 L 243.753906 20 L 263.753906 20 L 263.753906 40 Z M 243.753906 40 "/>
<path style=" stroke:none;fill-rule:nonzero;fill:rgb(0%,0%,0%);fill-opacity:1;" d="M 279.753906 200 L 279.753906 180 L 299.753906 180 L 299.753906 200 Z M 279.753906 200 "/>
<path style=" stroke:none;fill-rule:nonzero;fill:rgb(0%,0%,0%);fill-opacity:1;" d="M 279.753906 160 L 279.753906 140 L 299.753906 140 L 299.753906 160 Z M 279.753906 160 "/>
<path style=" stroke:none;fill-rule:nonzero;fill:rgb(0%,0%,0%);fill-opacity:1;" d="M 279.753906 120 L 279.753906 100 L 299.753906 100 L 299.753906 120 Z M 279.753906 120 "/>
<path style=" stroke:none;fill-rule:nonzero;fill:rgb(0%,0%,0%);fill-opacity:1;" d="M 279.753906 80 L 279.753906 60 L 299.753906 60 L 299.753906 80 Z M 279.753906 80 "/>
<path style=" stroke:none;fill-rule:nonzero;fill:rgb(0%,0%,0%);fill-opacity:1;" d="M 279.753906 40 L 279.753906 20 L 299.753906 20 L 299.753906 40 Z M 279.753906 40 "/>
<path style=" stroke:none;fill-rule:nonzero;fill:rgb(0%,0%,0%);fill-opacity:1;" d="M 315.753906 200 L 315.753906 180 L 335.753906 180 L 335.753906 200 Z M 315.753906 200 "/>
<path style=" stroke:none;fill-rule:nonzero;fill:rgb(0%,0%,0%);fill-opacity:1;" d="M 315.753906 160 L 315.753906 140 L 335.753906 140 L 335.753906 160 Z M 315.753906 160 "/>
<path style=" stroke:none;fill-rule:nonzero;fill:rgb(0%,0%,0%);fill-opacity:1;" d="M 315.753906 120 L 315.753906 100 L 335.753906 100 L 335.753906 120 Z M 315.753906 120 "/>
<path style=" stroke:none;fill-rule:nonzero;fill:rgb(0%,0%,0%);fill-opacity:1;" d="M 315.753906 80 L 315.753906 60 L 335.753906 60 L 335.753906 80 Z M 315.753906 80 "/>
<path style=" stroke:none;fill-rule:nonzero;fill:rgb(0%,0%,0%);fill-opacity:1;" d="M 315.753906 40 L 315.753906 20 L 335.753906 20 L 335.753906 40 Z M 315.753906 40 "/>
<path style=" stroke:none;fill-rule:nonzero;fill:rgb(0%,0%,0%);fill-opacity:1;" d="M 351.753906 200 L 351.753906 180 L 371.753906 180 L 371.753906 200 Z M 351.753906 200 "/>
<path style=" stroke:none;fill-rule:nonzero;fill:rgb(0%,0%,0%);fill-opacity:1;" d="M 351.753906 160 L 351.753906 140 L 371.753906 140 L 371.753906 160 Z M 351.753906 160 "/>
<path style=" stroke:none;fill-rule:nonzero;fill:rgb(0%,0%,0%);fill-opacity:1;" d="M 351.753906 120 L 351.753906 100 L 371.753906 100 L 371.753906 120 Z M 351.753906 120 "/>
<path style=" stroke:none;fill-rule:nonzero;fill:rgb(0%,0%,0%);fill-opacity:1;" d="M 351.753906 80 L 351.753906 60 L 371.753906 60 L 371.753906 80 Z M 351.753906 80 "/>
<path style=" stroke:none;fill-rule:nonzero;fill:rgb(0%,0%,0%);fill-opacity:1;" d="M 351.753906 40 L 351.753906 20 L 371.753906 20 L 371.753906 40 Z M 351.753906 40 "/>
<path style=" stroke:none;fill-rule:nonzero;fill:rgb(0%,0%,0%);fill-opacity:1;" d="M 387.753906 200 L 387.753906 180 L 407.753906 180 L 407.753906 200 Z M 387.753906 200 "/>
<path style=" stroke:none;fill-rule:nonzero;fill:rgb(0%,0%,0%);fill-opacity:1;" d="M 387.753906 160 L 387.753906 140 L 407.753906 140 L 407.753906 160 Z M 387.753906 160 "/>
<path style=" stroke:none;fill-rule:nonzero;fill:rgb(0%,0%,0%);fill-opacity:1;" d="M 387.753906 120 L 387.753906 100 L 407.753906 100 L 407.753906 120 Z M 387.753906 120 "/>
<path style=" stroke:none;fill-rule:nonzero;fill:rgb(0%,0%,0%);fill-opacity:1;" d="M 387.753906 80 L 387.753906 60 L 407.753906 60 L 407.753906 80 Z M 387.753906 80 "/>
<path style=" stroke:none;fill-rule:nonzero;fill:rgb(0%,0%,0%);fill-opacity:1;" d="M 387.753906 40 L 387.753906 20 L 407.753906 20 L 407.753906 40 Z M 387.753906 40 "/>
<path style="fill:none;stroke-width:1;stroke-linecap:square;stroke-linejoin:miter;stroke:rgb(100%,0%,0%);stroke-opacity:1;stroke-miterlimit:3.25;" d="M 0 220 L 400 220 "/>
<path style="fill:none;stroke-width:1;stroke-linecap:square;stroke-linejoin:miter;stroke:rgb(100%,0%,0%);stroke-opacity:1;stroke-miterlimit:3.25;" d="M 0 200 L 400 200 "/>
<path style="fill:none;stroke-width:1;stroke-linecap:square;stroke-linejoin:miter;stroke:rgb(100%,0%,0%);stroke-opacity:1;stroke-miterlimit:3.25;" d="M 0 180 L 400 180 "/>
<path style="fill:none;stroke-width:1;stroke-linecap:square;stroke-linejoin:miter;stroke:rgb(100%,0%,0%);stroke-opacity:1;stroke-miterlimit:3.25;" d="M 0 160 L 400 160 "/>
<path style="fill:none;stroke-width:1;stroke-linecap:square;stroke-linejoin:miter;stroke:rgb(100%,0%,0%);stroke-opacity:1;stroke-miterlimit:3.25;" d="M 0 140 L 400 140 "/>
<path style="fill:none;stroke-width:1;stroke-linecap:square;stroke-linejoin:miter;stroke:rgb(100%,0%,0%);stroke-opacity:1;stroke-miterlimit:3.25;" d="M 0 120 L 400 120 "/>
<path style="fill:none;stroke-width:1;stroke-linecap:square;stroke-linejoin:miter;stroke:rgb(100%,0%,0%);stroke-opacity:1;stroke-miterlimit:3.25;" d="M 0 100 L 400 100 "/>
<path style="fill:none;stroke-width:1;stroke-linecap:square;stroke-linejoin:miter;stroke:rgb(100%,0%,0%);stroke-opacity:1;stroke-miterlimit:3.25;" d="M 0 80 L 400 80 "/>
<path style="fill:none;stroke-width:1;stroke-linecap:square;stroke-linejoin:miter;stroke:rgb(100%,0%,0%);stroke-opacity:1;stroke-miterlimit:3.25;" d="M 0 60 L 400 60 "/>
<path style="fill:none;stroke-width:1;stroke-linecap:square;stroke-linejoin:miter;stroke:rgb(100%,0%,0%);stroke-opacity:1;stroke-miterlimit:3.25;" d="M 0 40 L 400 40 "/>
<path style="fill:none;stroke-width:1;stroke-linecap:square;stroke-linejoin:miter;stroke:rgb(100%,0%,0%);stroke-opacity:1;stroke-miterlimit:3.25;" d="M 0 20 L 400 20 "/>
</g>
</svg>
