<?xml version="1.0" encoding="UTF-8"?>
<svg xmlns="http://www.w3.org/2000/svg" xmlns:xlink="http://www.w3.org/1999/xlink" width="400pt" height="220pt" viewBox="0 0 400 220" version="1.1">
<g id="surface841">
<rect x="0" y="0" width="400" height="220" style="fill:rgb(0%,40%,100%);fill-opacity:0.2;stroke:none;"/>
<path style=" stroke:none;fill-rule:nonzero;fill:rgb(0%,0%,0%);fill-opacity:1;" d="M -18.59375 220 L -18.59375 200 L 1.40625 200 L 1.40625 220 Z M -18.59375 220 "/>
<path style=" stroke:none;fill-rule:nonzero;fill:rgb(0%,0%,0%);fill-opacity:1;" d="M -18.59375 180 L -18.59375 160 L 1.40625 160 L 1.40625 180 Z M -18.59375 180 "/>
<path style=" stroke:none;fill-rule:nonzero;fill:rgb(0%,0%,0%);fill-opacity:1;" d="M -18.59375 140 L -18.59375 120 L 1.40625 120 L 1.40625 140 Z M -18.59375 140 "/>
<path style=" stroke:none;fill-rule:nonzero;fill:rgb(0%,0%,0%);fill-opacity:1;" d="M -18.59375 100 L -18.59375 80 L 1.40625 80 L 1.40625 100 Z M -18.59375 100 "/>
<path style=" stroke:none;fill-rule:nonzero;fill:rgb(0%,0%,0%);fill-opacity:1;" d="M -18.59375 60 L -18.59375 40 L 1.40625 40 L 1.40625 60 Z M -18.59375 60 "/>
<path style=" stroke:none;fill-rule:nonzero;fill:rgb(0%,0%,0%);fill-opacity:1;" d="M -18.59375 20 L -18.59375 0 L 1.40625 0 L 1.40625 20 Z M -18.59375 20 "/>
<path style=" stroke:none;fill-rule:nonzero;fill:rgb(0%,0%,0%);fill-opacity:1;" d="M 17.40625 220 L 17.40625 200 L 37.40625 200 L 37.40625 220 Z M 17.40625 220 "/>
<path style=" stroke:none;fill-rule:nonzero;fill:rgb(0%,0%,0%);fill-opacity:1;" d="M 17.40625 180 L 17.40625 160 L 37.40625 160 L 37.40625 180 Z M 17.40625 180 "/>
<path style=" stroke:none;fill-rule:nonzero;fill:rgb(0%,0%,0%);fill-opacity:1;" d="M 17.40625 140 L 17.40625 120 L 37.40625 120 L 37.40625 140 Z M 17.40625 140 "/>
<path style=" stroke:none;fill-rule:nonzero;fill:rgb(0%,0%,0%);fill-opacity:1;" d="M 17.40625 100 L 17.40625 80 L 37.40625 80 L 37.40625 100 Z M 17.40625 100 "/>
<path style=" stroke:none;fill-rule:nonzero;fill:rgb(0%,0%,0%);fill-opacity:1;" d="M 17.40625 60 L 17.40625 40 L 37.40625 40 L 37.40625 60 Z M 17.40625 60 "/>
<path style=" stroke:none;fill-rule:nonzero;fill:rgb(0%,0%,0%);fill-opacity:1;" d="M 17.40625 20 L 17.40625 0 L 37.40625 0 L 37.40625 20 Z M 17.40625 20 "/>
<path style=" stroke:none;fill-rule:nonzero;fill:rgb(0%,0%,0%);fill-opacity:1;" d="M 53.40625 220 L 53.40625 200 L 73.40625 200 L 73.40625 220 Z M 53.40625 220 "/>
<path style=" stroke:none;fill-rule:nonzero;fill:rgb(0%,0%,0%);fill-opacity:1;" d="M 53.40625 180 L 53.40625 160 L 73.40625 160 L 73.40625 180 Z M 53.40625 180 "/>
<path style=" stroke:none;fill-rule:nonzero;fill:rgb(0%,0%,0%);fill-opacity:1;" d="M 53.40625 140 L 53.40625 120 L 73.40625 120 L 73.40625 140 Z M 53.40625 140 "/>
<path style=" stroke:none;fill-rule:nonzero;fill:rgb(0%,0%,0%);fill-opacity:1;" d="M 53.40625 100 L 53.40625 80 L 73.40625 80 L 73.40625 100 Z M 53.40625 100 "/>
<path style=" stroke:none;fill-rule:nonzero;fill:rgb(0%,0%,0%);fill-opacity:1;" d="M 53.40625 60 L 53.40625 40 L 73.40625 40 L 73.40625 60 Z M 53.40625 60 "/>
<path style=" stroke:none;fill-rule:nonzero;fill:rgb(0%,0%,0%);fill-opacity:1;" d="M 53.40625 20 L 53.40625 0 L 73.40625 0 L 73.40625 20 Z M 53.40625 20 "/>
<path style=" stroke:none;fill-rule:nonzero;fill:rgb(0%,0%,0%);fill-opacity:1;" d="M 89.40625 220 L 89.40625 200 L 109.40625 200 L 109.40625 220 Z M 89.40625 220 "/>
<path style=" stroke:none;fill-rule:nonzero;fill:rgb(0%,0%,0%);fill-opacity:1;" d="M 89.40625 180 L 89.40625 160 L 109.40625 160 L 109.40625 180 Z M 89.40625 180 "/>
<path style=" stroke:none;fill-rule:nonzero;fill:rgb(0%,0%,0%);fill-opacity:1;" d="M 89.40625 140 L 89.40625 120 L 109.40625 120 L 109.40625 140 Z M 89.40625 140 "/>
<path style=" stroke:none;fill-rule:nonzero;fill:rgb(0%,0%,0%);fill-opacity:1;" d="M 89.40625 100 L 89.40625 80 L 109.40625 80 L 109.40625 100 Z M 89.40625 100 "/>
<path style=" stroke:none;fill-rule:nonzero;fill:rgb(0%,0%,0%);fill-opacity:1;" d="M 89.40625 60 L 89.40625 40 L 109.40625 40 L 109.40625 60 Z M 89.40625 60 "/>
<path style=" stroke:none;fill-rule:nonzero;fill:rgb(0%,0%,0%);fill-opacity:1;" d="M 89.40625 20 L 89.40625 0 L 109.40625 0 L 109.40625 20 Z M 89.40625 20 "/>
<path style=" stroke:none;fill-rule:nonzero;fill:rgb(0%,0%,0%);fill-opacity:1;" d="M 125.40625 220 L 125.40625 200 L 145.40625 200 L 145.40625 220 Z M 125.40625 220 "/>
<path style=" stroke:none;fill-rule:nonzero;fill:rgb(0%,0%,0%);fill-opacity:1;" d="M 125.40625 180 L 125.40625 160 L 145.40625 160 L 145.40625 180 Z M 125.40625 180 "/>
<path style=" stroke:none;fill-rule:nonzero;fill:rgb(0%,0%,0%);fill-opacity:1;" d="M 125.40625 140 L 125.40625 120 L 145.40625 120 L 145.40625 140 Z M 125.40625 140 "/>
<path style=" stroke:none;fill-rule:nonzero;fill:rgb(0%,0%,0%);fill-opacity:1;" d="M 125.40625 100 L 125.40625 80 L 145.40625 80 L 145.40625 100 Z M 125.40625 100 "/>
<path style=" stroke:none;fill-rule:nonzero;fill:rgb(0%,0%,0%);fill-opacity:1;" d="M 125.40625 60 L 125.40625 40 L 145.40625 40 L 145.40625 60 Z M 125.40625 60 "/>
<path style=" stroke:none;fill-rule:nonzero;fill:rgb(0%,0%,0%);fill-opacity:1;" d="M 125.40625 20 L 125.40625 0 L 145.40625 0 L 145.40625 20 Z M 125.40625 20 "/>
<path style=" stroke:none;fill-rule:nonzero;fill:rgb(0%,0%,0%);fill-opacity:1;" d="M 161.40625 220 L 161.40625 200 L 181.40625 200 L 181.40625 220 Z M 161.40625 220 "/>
<path style=" stroke:none;fill-rule:nonzero;fill:rgb(0%,0%,0%);fill-opacity:1;" d="M 161.40625 180 L 161.40625 160 L 181.40625 160 L 181.40625 180 Z M 161.40625 180 "/>
<path style=" stroke:none;fill-rule:nonzero;fill:rgb(0%,0%,0%);fill-opacity:1;" d="M 161.40625 140 L 161.40625 120 L 181.40625 120 L 181.40625 140 Z M 161.40625 140 "/>
<path style=" stroke:none;fill-rule:nonzero;fill:rgb(0%,0%,0%);fill-opacity:1;" d="M 161.40625 100 L 161.40625 80 L 181.40625 80 L 181.40625 100 Z M 161.40625 100 "/>
<path style=" stroke:none;fill-rule:nonzero;fill:rgb(0%,0%,0%);fill-opacity:1;" d="M 161.40625 60 L 161.40625 40 L 181.40625 40 L 181.40625 60 Z M 161.40625 60 "/>
<path style=" stroke:none;fill-rule:nonzero;fill:rgb(0%,0%,0%);fill-opacity:1;" d="M 161.40625 20 L 161.40625 0 L 181.40625 0 L 181.40625 20 Z M 161.40625 20 "/>
<path style=" stroke:none;fill-rule:nonzero;fill:rgb(0%,0%,0%);fill-opacity:1;" d="M 197.40625 220 L 197.40625 200 L 217.40625 200 L 217.40625 220 Z M 197.40625 220 "/>
<path style=" stroke:none;fill-rule:nonzero;fill:rgb(0%,0%,0%);fill-opacity:1;" d="M 197.40625 180 L 197.40625 160 L 217.40625 160 L 217.40625 180 Z M 197.40625 180 "/>
<path style=" stroke:none;fill-rule:nonzero;fill:rgb(0%,0%,0%);fill-opacity:1;" d="M 197.40625 140 L 197.40625 120 L 217.40625 120 L 217.40625 140 Z M 197.40625 140 "/>
<path style=" stroke:none;fill-rule:nonzero;fill:rgb(0%,0%,0%);fill-opacity:1;" d="M 197.40625 100 L 197.40625 80 L 217.40625 80 L 217.40625 100 Z M 197.40625 100 "/>
<path style=" stroke:none;fill-rule:nonzero;fill:rgb(0%,0%,0%);fill-opacity:1;" d="M 197.40625 60 L 197.40625 40 L 217.40625 40 L 217.40625 60 Z M 197.40625 60 "/>
<path style=" stroke:none;fill-rule:nonzero;fill:rgb(0%,0%,0%);fill-opacity:1;" d="M 197.40625 20 L 197.40625 0 L 217.40625 0 L 217.40625 20 Z M 197.40625 20 "/>
<path style=" stroke:none;fill-rule:nonzero;fill:rgb(0%,0%,0%);fill-opacity:1;" d="M 233.40625 220 L 233.40625 200 L 253.40625 200 L 253.40625 220 Z M 233.40625 220 "/>
<path style=" stroke:none;fill-rule:nonzero;fill:rgb(0%,0%,0%);fill-opacity:1;" d="M 233.40625 180 L 233.40625 160 L 253.40625 160 L 253.40625 180 Z M 233.40625 180 "/>
<path style=" stroke:none;fill-rule:nonzero;fill:rgb(0%,0%,0%);fill-opacity:1;" d="M 233.40625 140 L 233.40625 120 L 253.40625 120 L 253.40625 140 Z M 233.40625 140 "/>
<path style=" stroke:none;fill-rule:nonzero;fill:rgb(0%,0%,0%);fill-opacity:1;" d="M 233.40625 100 L 233.40625 80 L 253.40625 80 L 253.40625 100 Z M 233.40625 100 "/>
<path style=" stroke:none;fill-rule:nonzero;fill:rgb(0%,0%,0%);fill-opacity:1;" d="M 233.40625 60 L 233.40625 40 L 253.40625 40 L 253.40625 60 Z M 233.40625 60 "/>
<path style=" stroke:none;fill-rule:nonzero;fill:rgb(0%,0%,0%);fill-opacity:1;" d="M 233.40625 20 L 233.40625 0 L 253.40625 0 L 253.40625 20 Z M 233.40625 20 "/>
<path style=" stroke:none;fill-rule:nonzero;fill:rgb(0%,0%,0%);fill-opacity:1;" d="M 269.40625 220 L 269.40625 200 L 289.40625 200 L 289.40625 220 Z M 269.40625 220 "/>
<path style=" stroke:none;fill-rule:nonzero;fill:rgb(0%,0%,0%);fill-opacity:1;" d="M 269.40625 180 L 269.40625 160 L 289.40625 160 L 289.40625 180 Z M 269.40625 180 "/>
<path style=" stroke:none;fill-rule:nonzero;fill:rgb(0%,0%,0%);fill-opacity:1;" d="M 269.40625 140 L 269.40625 120 L 289.40625 120 L 289.40625 140 Z M 269.40625 140 "/>
<path style=" stroke:none;fill-rule:nonzero;fill:rgb(0%,0%,0%);fill-opacity:1;" d="M 269.40625 100 L 269.40625 80 L 289.40625 80 L 289.40625 100 Z M 269.40625 100 "/>
<path style=" stroke:none;fill-rule:nonzero;fill:rgb(0%,0%,0%);fill-opacity:1;" d="M 269.40625 60 L 269.40625 40 L 289.40625 40 L 289.40625 60 Z M 269.40625 60 "/>
<path style=" stroke:none;fill-rule:nonzero;fill:rgb(0%,0%,0%);fill-opacity:1;" d="M 269.40625 20 L 269.40625 0 L 289.40625 0 L 289.40625 20 Z M 269.40625 20 "/>
<path style=" stroke:none;fill-rule:nonzero;fill:rgb(0%,0%,0%);fill-opacity:1;" d="M 305.40625 220 L 305.40625 200 L 325.40625 200 L 325.40625 220 Z M 305.40625 220 "/>
<path style=" stroke:none;fill-rule:nonzero;fill:rgb(0%,0%,0%);fill-opacity:1;" d="M 305.40625 180 L 305.40625 160 L 325.40625 160 L 325.40625 180 Z M 305.40625 180 "/>
<path style=" stroke:none;fill-rule:nonzero;fill:rgb(0%,0%,0%);fill-opacity:1;" d="M 305.40625 140 L 305.40625 120 L 325.40625 120 L 325.40625 140 Z M 305.40625 140 "/>
<path style=" stroke:none;fill-rule:nonzero;fill:rgb(0%,0%,0%);fill-opacity:1;" d="M 305.40625 100 L 305.40625 80 L 325.40625 80 L 325.40625 100 Z M 305.40625 100 "/>
<path style=" stroke:none;fill-rule:nonzero;fill:rgb(0%,0%,0%);fill-opacity:1;" d="M 305.40625 60 L 305.40625 40 L 325.40625 40 L 325.40625 60 Z M 305.40625 60 "/>
<path style=" stroke:none;fill-rule:nonzero;fill:rgb(0%,0%,0%);fill-opacity:1;" d="M 305.40625 20 L 305.40625 0 L 325.40625 0 L 325.40625 20 Z M 305.40625 20 "/>
<path style=" stroke:none;fill-rule:nonzero;fill:rgb(0%,0%,0%);fill-opacity:1;" d="M 341.40625 220 L 341.40625 200 L 361.40625 200 L 361.40625 220 Z M 341.40625 220 "/>
<path style=" stroke:none;fill-rule:nonzero;fill:rgb(0%,0%,0%);fill-opacity:1;" d="M 341.40625 180 L 341.40625 160 L 361.40625 160 L 361.40625 180 Z M 341.40625 180 "/>
<path style=" stroke:none;fill-rule:nonzero;fill:rgb(0%,0%,0%);fill-opacity:1;" d="M 341.40625 140 L 341.40625 120 L 361.40625 120 L 361.40625 140 Z M 341.40625 140 "/>
<path style=" stroke:none;fill-rule:nonzero;fill:rgb(0%,0%,0%);fill-opacity:1;" d="M 341.40625 100 L 341.40625 80 L 361.40625 80 L 361.40625 100 Z M 341.40625 100 "/>
<path style=" stroke:none;fill-rule:nonzero;fill:rgb(0%,0%,0%);fill-opacity:1;" d="M 341.40625 60 L 341.40625 40 L 361.40625 40 L 361.40625 60 Z M 341.40625 60 "/>
<path style=" stroke:none;fill-rule:nonzero;fill:rgb(0%,0%,0%);fill-opacity:1;" d="M 341.40625 20 L 341.40625 0 L 361.40625 0 L 361.40625 20 Z M 341.40625 20 "/>
<path style=" stroke:none;fill-rule:nonzero;fill:rgb(0%,0%,0%);fill-opacity:1;" d="M 377.40625 220 L 377.40625 200 L 397.40625 200 L 397.40625 220 Z M 377.40625 220 "/>
<path style=" stroke:none;fill-rule:nonzero;fill:rgb(0%,0%,0%);fill-opacity:1;" d="M 377.40625 180 L 377.40625 160 L 397.40625 160 L 397.40625 180 Z M 377.40625 180 "/>
<path style=" stroke:none;fill-rule:nonzero;fill:rgb(0%,0%,0%);fill-opacity:1;" d="M 377.40625 140 L 377.40625 120 L 397.40625 120 L 397.40625 140 Z M 377.40625 140 "/>
<path style=" stroke:none;fill-rule:nonzero;fill:rgb(0%,0%,0%);fill-opacity:1;" d="M 377.40625 100 L 377.40625 80 L 397.40625 80 L 397.40625 100 Z M 377.40625 100 "/>
<path style=" stroke:none;fill-rule:nonzero;fill:rgb(0%,0%,0%);fill-opacity:1;" d="M 377.40625 60 L 377.40625 40 L 397.40625 40 L 397.40625 60 Z M 377.40625 60 "/>
<path style=" stroke:none;fill-rule:nonzero;fill:rgb(0%,0%,0%);fill-opacity:1;" d="M 377.40625 20 L 377.40625 0 L 397.40625 0 L 397.40625 20 Z M 377.40625 20 "/>
<path style=" stroke:none;fill-rule:nonzero;fill:rgb(0%,0%,0%);fill-opacity:1;" d="M -12.636719 200 L -12.636719 180 L 7.363281 180 L 7.363281 200 Z M -12.636719 200 "/>
<path style=" stroke:none;fill-rule:nonzero;fill:rgb(0%,0%,0%);fill-opacity:1;" d="M -12.636719 160 L -12.636719 140 L 7.363281 140 L 7.363281 160 Z M -12.636719 160 "/>
<path style=" stroke:none;fill-rule:nonzero;fill:rgb(0%,0%,0%);fill-opacity:1;" d="M -12.636719 120 L -12.636719 100 L 7.363281 100 L 7.363281 120 Z M -12.636719 120 "/>
<path style=" stroke:none;fill-rule:nonzero;fill:rgb(0%,0%,0%);fill-opacity:1;" d="M -12.636719 80 L -12.636719 60 L 7.363281 60 L 7.363281 80 Z M -12.636719 80 "/>
<path style=" stroke:none;fill-rule:nonzero;fill:rgb(0%,0%,0%);fill-opacity:1;" d="M -12.636719 40 L -12.636719 20 L 7.363281 20 L 7.363281 40 Z M -12.636719 40 "/>
<path style=" stroke:none;fill-rule:nonzero;fill:rgb(0%,0%,0%);fill-opacity:1;" d="M 23.363281 200 L 23.363281 180 L 43.363281 180 L 43.363281 200 Z M 23.363281 200 "/>
<path style=" stroke:none;fill-rule:nonzero;fill:rgb(0%,0%,0%);fill-opacity:1;" d="M 23.363281 160 L 23.363281 140 L 43.363281 140 L 43.363281 160 Z M 23.363281 160 "/>
<path style=" stroke:none;fill-rule:nonzero;fill:rgb(0%,0%,0%);fill-opacity:1;" d="M 23.363281 120 L 23.363281 100 L 43.363281 100 L 43.363281 120 Z M 23.363281 120 "/>
<path style=" stroke:none;fill-rule:nonzero;fill:rgb(0%,0%,0%);fill-opacity:1;" d="M 23.363281 80 L 23.363281 60 L 43.363281 60 L 43.363281 80 Z M 23.363281 80 "/>
<path style=" stroke:none;fill-rule:nonzero;fill:rgb(0%,0%,0%);fill-opacity:1;" d="M 23.363281 40 L 23.363281 20 L 43.363281 20 L 43.363281 40 Z M 23.363281 40 "/>
<path style=" stroke:none;fill-rule:nonzero;fill:rgb(0%,0%,0%);fill-opacity:1;" d="M 59.363281 200 L 59.363281 180 L 79.363281 180 L 79.363281 200 Z M 59.363281 200 "/>
<path style=" stroke:none;fill-rule:nonzero;fill:rgb(0%,0%,0%);fill-opacity:1;" d="M 59.363281 160 L 59.363281 140 L 79.363281 140 L 79.363281 160 Z M 59.363281 160 "/>
<path style=" stroke:none;fill-rule:nonzero;fill:rgb(0%,0%,0%);fill-opacity:1;" d="M 59.363281 120 L 59.363281 100 L 79.363281 100 L 79.363281 120 Z M 59.363281 120 "/>
<path style=" stroke:none;fill-rule:nonzero;fill:rgb(0%,0%,0%);fill-opacity:1;" d="M 59.363281 80 L 59.363281 60 L 79.363281 60 L 79.363281 80 Z M 59.363281 80 "/>
<path style=" stroke:none;fill-rule:nonzero;fill:rgb(0%,0%,0%);fill-opacity:1;" d="M 59.363281 40 L 59.363281 20 L 79.363281 20 L 79.363281 40 Z M 59.363281 40 "/>
<path style=" stroke:none;fill-rule:nonzero;fill:rgb(0%,0%,0%);fill-opacity:1;" d="M 95.363281 200 L 95.363281 180 L 115.363281 180 L 115.363281 200 Z M 95.363281 200 "/>
<path style=" stroke:none;fill-rule:nonzero;fill:rgb(0%,0%,0%);fill-opacity:1;" d="M 95.363281 160 L 95.363281 140 L 115.363281 140 L 115.363281 160 Z M 95.363281 160 "/>
<path style=" stroke:none;fill-rule:nonzero;fill:rgb(0%,0%,0%);fill-opacity:1;" d="M 95.363281 120 L 95.363281 100 L 115.363281 100 L 115.363281 120 Z M 95.363281 120 "/>
<path style=" stroke:none;fill-rule:nonzero;fill:rgb(0%,0%,0%);fill-opacity:1;" d="M 95.363281 80 L 95.363281 60 L 115.363281 60 L 115.363281 80 Z M 95.363281 80 "/>
<path style=" stroke:none;fill-rule:nonzero;fill:rgb(0%,0%,0%);fill-opacity:1;" d="M 95.363281 40 L 95.363281 20 L 115.363281 20 L 115.363281 40 Z M 95.363281 40 "/>
<path style=" stroke:none;fill-rule:nonzero;fill:rgb(0%,0%,0%);fill-opacity:1;" d="M 131.363281 200 L 131.363281 180 L 151.363281 180 L 151.363281 200 Z M 131.363281 200 "/>
<path style=" stroke:none;fill-rule:nonzero;fill:rgb(0%,0%,0%);fill-opacity:1;" d="M 131.363281 160 L 131.363281 140 L 151.363281 140 L 151.363281 160 Z M 131.363281 160 "/>
<path style=" stroke:none;fill-rule:nonzero;fill:rgb(0%,0%,0%);fill-opacity:1;" d="M 131.363281 120 L 131.363281 100 L 151.363281 100 L 151.363281 120 Z M 131.363281 120 "/>
<path style=" stroke:none;fill-rule:nonzero;fill:rgb(0%,0%,0%);fill-opacity:1;" d="M 131.363281 80 L 131.363281 60 L 151.363281 60 L 151.363281 80 Z M 131.363281 80 "/>
<path style=" stroke:none;fill-rule:nonzero;fill:rgb(0%,0%,0%);fill-opacity:1;" d="M 131.363281 40 L 131.363281 20 L 151.363281 20 L 151.363281 40 Z M 131.363281 40 "/>
<path style=" stroke:none;fill-rule:nonzero;fill:rgb(0%,0%,0%);fill-opacity:1;" d="M 167.363281 200 L 167.363281 180 L 187.363281 180 L 187.363281 200 Z M 167.363281 200 "/>
<path style=" stroke:none;fill-rule:nonzero;fill:rgb(0%,0%,0%);fill-opacity:1;" d="M 167.363281 160 L 167.363281 140 L 187.363281 140 L 187.363281 160 Z M 167.363281 160 "/>
<path style=" stroke:none;fill-rule:nonzero;fill:rgb(0%,0%,0%);fill-opacity:1;" d="M 167.363281 120 L 167.363281 100 L 187.363281 100 L 187.363281 120 Z M 167.363281 120 "/>
<path style=" stroke:none;fill-rule:nonzero;fill:rgb(0%,0%,0%);fill-opacity:1;" d="M 167.363281 80 L 167.363281 60 L 187.363281 60 L 187.363281 80 Z M 167.363281 80 "/>
<path style=" stroke:none;fill-rule:nonzero;fill:rgb(0%,0%,0%);fill-opacity:1;" d="M 167.363281 40 L 167.363281 20 L 187.363281 20 L 187.363281 40 Z M 167.363281 40 "/>
<path style=" stroke:none;fill-rule:nonzero;fill:rgb(0%,0%,0%);fill-opacity:1;" d="M 203.363281 200 L 203.363281 180 L 223.363281 180 L 223.363281 200 Z M 203.363281 200 "/>
<path style=" stroke:none;fill-rule:nonzero;fill:rgb(0%,0%,0%);fill-opacity:1;" d="M 203.363281 160 L 203.363281 140 L 223.363281 140 L 223.363281 160 Z M 203.363281 160 "/>
<path style=" stroke:none;fill-rule:nonzero;fill:rgb(0%,0%,0%);fill-opacity:1;" d="M 203.363281 120 L 203.363281 100 L 223.363281 100 L 223.363281 120 Z M 203.363281 120 "/>
<path style=" stroke:none;fill-rule:nonzero;fill:rgb(0%,0%,0%);fill-opacity:1;" d="M 203.363281 80 L 203.363281 60 L 223.363281 60 L 223.363281 80 Z M 203.363281 80 "/>
<path style=" stroke:none;fill-rule:nonzero;fill:rgb(0%,0%,0%);fill-opacity:1;" d="M 203.363281 40 L 203.363281 20 L 223.363281 20 L 223.363281 40 Z M 203.363281 40 "/>
<path style=" stroke:none;fill-rule:nonzero;fill:rgb(0%,0%,0%);fill-opacity:1;" d="M 239.363281 200 L 239.363281 180 L 259.363281 180 L 259.363281 200 Z M 239.363281 200 "/>
<path style=" stroke:none;fill-rule:nonzero;fill:rgb(0%,0%,0%);fill-opacity:1;" d="M 239.363281 160 L 239.363281 140 L 259.363281 140 L 259.363281 160 Z M 239.363281 160 "/>
<path style=" stroke:none;fill-rule:nonzero;fill:rgb(0%,0%,0%);fill-opacity:1;" d="M 239.363281 120 L 239.363281 100 L 259.363281 100 L 259.363281 120 Z M 239.363281 120 "/>
<path style=" stroke:none;fill-rule:nonzero;fill:rgb(0%,0%,0%);fill-opacity:1;" d="M 239.363281 80 L 239.363281 60 L 259.363281 60 L 259.363281 80 Z M 239.363281 80 "/>
<path style=" stroke:none;fill-rule:nonzero;fill:rgb(0%,0%,0%);fill-opacity:1;" d="M 239.363281 40 L 239.363281 20 L 259.363281 20 L 259.363281 40 Z M 239.363281 40 "/>
<path style=" stroke:none;fill-rule:nonzero;fill:rgb(0%,0%,0%);fill-opacity:1;" d="M 275.363281 200 L 275.363281 180 L 295.363281 180 L 295.363281 200 Z M 275.363281 200 "/>
<path style=" stroke:none;fill-rule:nonzero;fill:rgb(0%,0%,0%);fill-opacity:1;" d="M 275.363281 160 L 275.363281 140 L 295.363281 140 L 295.363281 160 Z M 275.363281 160 "/>
<path style=" stroke:none;fill-rule:nonzero;fill:rgb(0%,0%,0%);fill-opacity:1;" d="M 275.363281 120 L 275.363281 100 L 295.363281 100 L 295.363281 120 Z M 275.363281 120 "/>
<path style=" stroke:none;fill-rule:nonzero;fill:rgb(0%,0%,0%);fill-opacity:1;" d="M 275.363281 80 L 275.363281 60 L 295.363281 60 L 295.363281 80 Z M 275.363281 80 "/>
<path style=" stroke:none;fill-rule:nonzero;fill:rgb(0%,0%,0%);fill-opacity:1;" d="M 275.363281 40 L 275.363281 20 L 295.363281 20 L 295.363281 40 Z M 275.363281 40 "/>
<path style=" stroke:none;fill-rule:nonzero;fill:rgb(0%,0%,0%);fill-opacity:1;" d="M 311.363281 200 L 311.363281 180 L 331.363281 180 L 331.363281 200 Z M 311.363281 200 "/>
<path style=" stroke:none;fill-rule:nonzero;fill:rgb(0%,0%,0%);fill-opacity:1;" d="M 311.363281 160 L 311.363281 140 L 331.363281 140 L 331.363281 160 Z M 311.363281 160 "/>
<path style=" stroke:none;fill-rule:nonzero;fill:rgb(0%,0%,0%);fill-opacity:1;" d="M 311.363281 120 L 311.363281 100 L 331.363281 100 L 331.363281 120 Z M 311.363281 120 "/>
<path style=" stroke:none;fill-rule:nonzero;fill:rgb(0%,0%,0%);fill-opacity:1;" d="M 311.363281 80 L 311.363281 60 L 331.363281 60 L 331.363281 80 Z M 311.363281 80 "/>
<path style=" stroke:none;fill-rule:nonzero;fill:rgb(0%,0%,0%);fill-opacity:1;" d="M 311.363281 40 L 311.363281 20 L 331.363281 20 L 331.363281 40 Z M 311.363281 40 "/>
<path style=" stroke:none;fill-rule:nonzero;fill:rgb(0%,0%,0%);fill-opacity:1;" d="M 347.363281 200 L 347.363281 180 L 367.363281 180 L 367.363281 200 Z M 347.363281 200 "/>
<path style=" stroke:none;fill-rule:nonzero;fill:rgb(0%,0%,0%);fill-opacity:1;" d="M 347.363281 160 L 347.363281 140 L 367.363281 140 L 367.363281 160 Z M 347.363281 160 "/>
<path style=" stroke:none;fill-rule:nonzero;fill:rgb(0%,0%,0%);fill-opacity:1;" d="M 347.363281 120 L 347.363281 100 L 367.363281 100 L 367.363281 120 Z M 347.363281 120 "/>
<path style=" stroke:none;fill-rule:nonzero;fill:rgb(0%,0%,0%);fill-opacity:1;" d="M 347.363281 80 L 347.363281 60 L 367.363281 60 L 367.363281 80 Z M 347.363281 80 "/>
<path style=" stroke:none;fill-rule:nonzero;fill:rgb(0%,0%,0%);fill-opacity:1;" d="M 347.363281 40 L 347.363281 20 L 367.363281 20 L 367.363281 40 Z M 347.363281 40 "/>
<path style=" stroke:none;fill-rule:nonzero;fill:rgb(0%,0%,0%);fill-opacity:1;" d="M 383.363281 200 L 383.363281 180 L 403.363281 180 L 403.363281 200 Z M 383.363281 200 "/>
<path style=" stroke:none;fill-rule:nonzero;fill:rgb(0%,0%,0%);fill-opacity:1;" d="M 383.363281 160 L 383.363281 140 L 403.363281 140 L 403.363281 160 Z M 383.363281 160 "/>
<path style=" stroke:none;fill-rule:nonzero;fill:rgb(0%,0%,0%);fill-opacity:1;" d="M 383.363281 120 L 383.363281 100 L 403.363281 100 L 403.363281 120 Z M 383.363281 120 "/>
<path style=" stroke:none;fill-rule:nonzero;fill:rgb(0%,0%,0%);fill-opacity:1;" d="M 383.363281 80 L 383.363281 60 L 403.363281 60 L 403.363281 80 Z M 383.363281 80 "/>
<path style=" stroke:none;fill-rule:nonzero;fill:rgb(0%,0%,0%);fill-opacity:1;" d="M 383.363281 40 L 383.363281 20 L 403.363281 20 L 403.363281 40 Z M 383.363281 40 "/>
<path style="fill:none;stroke-width:1;stroke-linecap:square;stroke-linejoin:miter;stroke:rgb(100%,0%,0%);stroke-opacity:1;stroke-miterlimit:3.25;" d="M 0 220 L 400 220 "/>
<path style="fill:none;stroke-width:1;stroke-linecap:square;stroke-linejoin:miter;stroke:rgb(100%,0%,0%);stroke-opacity:1;stroke-miterlimit:3.25;" d="M 0 200 L 400 200 "/>
<path style="fill:none;stroke-width:1;stroke-linecap:square;stroke-linejoin:miter;stroke:rgb(100%,0%,0%);stroke-opacity:1;stroke-miterlimit:3.25;" d="M 0 180 L 400 180 "/>
<path style="fill:none;stroke-width:1;stroke-linecap:square;stroke-linejoin:miter;stroke:rgb(100%,0%,0%);stroke-opacity:1;stroke-miterlimit:3.25;" d="M 0 160 L 400 160 "/>
<path style="fill:none;stroke-width:1;stroke-linecap:square;stroke-linejoin:miter;stroke:rgb(100%,0%,0%);stroke-opacity:1;stroke-miterlimit:3.25;" d="M 0 140 L 400 140 "/>
<path style="fill:none;stroke-width:1;stroke-linecap:square;stroke-linejoin:miter;stroke:rgb(100%,0%,0%);stroke-opacity:1;stroke-miterlimit:3.25;" d="M 0 120 L 400 120 "/>
<path style="fill:none;stroke-width:1;stroke-linecap:square;stroke-linejoin:miter;stroke:rgb(100%,0%,0%);stroke-opacity:1;stroke-miterlimit:3.25;" d="M 0 100 L 400 100 "/>
<path style="fill:none;stroke-width:1;stroke-linecap:square;stroke-linejoin:miter;stroke:rgb(100%,0%,0%);stroke-opacity:1;stroke-miterlimit:3.25;" d="M 0 80 L 400 80 "/>
<path style="fill:none;stroke-width:1;stroke-linecap:square;stroke-linejoin:miter;stroke:rgb(100%,0%,0%);stroke-opacity:1;stroke-miterlimit:3.25;" d="M 0 60 L 400 60 "/>
<path style="fill:none;stroke-width:1;stroke-linecap:square;stroke-linejoin:miter;stroke:rgb(100%,0%,0%);stroke-opacity:1;stroke-miterlimit:3.25;" d="M 0 40 L 400 40 "/>
<path style="fill:none;stroke-width:1;stroke-linecap:square;stroke-linejoin:miter;stroke:rgb(100%,0%,0%);stroke-opacity:1;stroke-miterlimit:3.25;" d="M 0 20 L 400 20 "/>
</g>
</svg>
