<?xml version="1.0" encoding="UTF-8"?>
<svg xmlns="http://www.w3.org/2000/svg" xmlns:xlink="http://www.w3.org/1999/xlink" width="400pt" height="220pt" viewBox="0 0 400 220" version="1.1">
<g id="surface676">
<rect x="0" y="0" width="400" height="220" style="fill:rgb(0%,40%,100%);fill-opacity:0.2;stroke:none;"/>
<path style=" stroke:none;fill-rule:nonzero;fill:rgb(0%,0%,0%);fill-opacity:1;" d="M 15.410156 220 L 15.410156 200 L 35.410156 200 L 35.410156 220 Z M 15.410156 220 "/>
<path style=" stroke:none;fill-rule:nonzero;fill:rgb(0%,0%,0%);fill-opacity:1;" d="M 15.410156 180 L 15.410156 160 L 35.410156 160 L 35.410156 180 Z M 15.410156 180 "/>
<path style=" stroke:none;fill-rule:nonzero;fill:rgb(0%,0%,0%);fill-opacity:1;" d="M 15.410156 140 L 15.410156 120 L 35.410156 120 L 35.410156 140 Z M 15.410156 140 "/>
<path style=" stroke:none;fill-rule:nonzero;fill:rgb(0%,0%,0%);fill-opacity:1;" d="M 15.410156 100 L 15.410156 80 L 35.410156 80 L 35.410156 100 Z M 15.410156 100 "/>
<path style=" stroke:none;fill-rule:nonzero;fill:rgb(0%,0%,0%);fill-opacity:1;" d="M 15.410156 60 L 15.410156 40 L 35.410156 40 L 35.410156 60 Z M 15.410156 60 "/>
<path style=" stroke:none;fill-rule:nonzero;fill:rgb(0%,0%,0%);fill-opacity:1;" d="M 15.410156 20 L 15.410156 0 L 35.410156 0 L 35.410156 20 Z M 15.410156 20 "/>
<path style=" stroke:none;fill-rule:nonzero;fill:rgb(0%,0%,0%);fill-opacity:1;" d="M 51.410156 220 L 51.410156 200 L 71.410156 200 L 71.410156 220 Z M 51.410156 220 "/>
<path style=" stroke:none;fill-rule:nonzero;fill:rgb(0%,0%,0%);fill-opacity:1;" d="M 51.410156 180 L 51.410156 160 L 71.410156 160 L 71.410156 180 Z M 51.410156 180 "/>
<path style=" stroke:none;fill-rule:nonzero;fill:rgb(0%,0%,0%);fill-opacity:1;" d="M 51.410156 140 L 51.410156 120 L 71.410156 120 L 71.410156 140 Z M 51.410156 140 "/>
<path style=" stroke:none;fill-rule:nonzero;fill:rgb(0%,0%,0%);fill-opacity:1;" d="M 51.410156 100 L 51.410156 80 L 71.410156 80 L 71.410156 100 Z M 51.410156 100 "/>
<path style=" stroke:none;fill-rule:nonzero;fill:rgb(0%,0%,0%);fill-opacity:1;" d="M 51.410156 60 L 51.410156 40 L 71.410156 40 L 71.410156 60 Z M 51.410156 60 "/>
<path style=" stroke:none;fill-rule:nonzero;fill:rgb(0%,0%,0%);fill-opacity:1;" d="M 51.410156 20 L 51.410156 0 L 71.410156 0 L 71.410156 20 Z M 51.410156 20 "/>
<path style=" stroke:none;fill-rule:nonzero;fill:rgb(0%,0%,0%);fill-opacity:1;" d="M 87.410156 220 L 87.410156 200 L 107.410156 200 L 107.410156 220 Z M 87.410156 220 "/>
<path style=" stroke:none;fill-rule:nonzero;fill:rgb(0%,0%,0%);fill-opacity:1;" d="M 87.410156 180 L 87.410156 160 L 107.410156 160 L 107.410156 180 Z M 87.410156 180 "/>
<path style=" stroke:none;fill-rule:nonzero;fill:rgb(0%,0%,0%);fill-opacity:1;" d="M 87.410156 140 L 87.410156 120 L 107.410156 120 L 107.410156 140 Z M 87.410156 140 "/>
<path style=" stroke:none;fill-rule:nonzero;fill:rgb(0%,0%,0%);fill-opacity:1;" d="M 87.410156 100 L 87.410156 80 L 107.410156 80 L 107.410156 100 Z M 87.410156 100 "/>
<path style=" stroke:none;fill-rule:nonzero;fill:rgb(0%,0%,0%);fill-opacity:1;" d="M 87.410156 60 L 87.410156 40 L 107.410156 40 L 107.410156 60 Z M 87.410156 60 "/>
<path style=" stroke:none;fill-rule:nonzero;fill:rgb(0%,0%,0%);fill-opacity:1;" d="M 87.410156 20 L 87.410156 0 L 107.410156 0 L 107.410156 20 Z M 87.410156 20 "/>
<path style=" stroke:none;fill-rule:nonzero;fill:rgb(0%,0%,0%);fill-opacity:1;" d="M 123.410156 220 L 123.410156 200 L 143.410156 200 L 143.410156 220 Z M 123.410156 220 "/>
<path style=" stroke:none;fill-rule:nonzero;fill:rgb(0%,0%,0%);fill-opacity:1;" d="M 123.410156 180 L 123.410156 160 L 143.410156 160 L 143.410156 180 Z M 123.410156 180 "/>
<path style=" stroke:none;fill-rule:nonzero;fill:rgb(0%,0%,0%);fill-opacity:1;" d="M 123.410156 140 L 123.410156 120 L 143.410156 120 L 143.410156 140 Z M 123.410156 140 "/>
<path style=" stroke:none;fill-rule:nonzero;fill:rgb(0%,0%,0%);fill-opacity:1;" d="M 123.410156 100 L 123.410156 80 L 143.410156 80 L 143.410156 100 Z M 123.410156 100 "/>
<path style=" stroke:none;fill-rule:nonzero;fill:rgb(0%,0%,0%);fill-opacity:1;" d="M 123.410156 60 L 123.410156 40 L 143.410156 40 L 143.410156 60 Z M 123.410156 60 "/>
<path style=" stroke:none;fill-rule:nonzero;fill:rgb(0%,0%,0%);fill-opacity:1;" d="M 123.410156 20 L 123.410156 0 L 143.410156 0 L 143.410156 20 Z M 123.410156 20 "/>
<path style=" stroke:none;fill-rule:nonzero;fill:rgb(0%,0%,0%);fill-opacity:1;" d="M 159.410156 220 L 159.410156 200 L 179.410156 200 L 179.410156 220 Z M 159.410156 220 "/>
<path style=" stroke:none;fill-rule:nonzero;fill:rgb(0%,0%,0%);fill-opacity:1;" d="M 159.410156 180 L 159.410156 160 L 179.410156 160 L 179.410156 180 Z M 159.410156 180 "/>
<path style=" stroke:none;fill-rule:nonzero;fill:rgb(0%,0%,0%);fill-opacity:1;" d="M 159.410156 140 L 159.410156 120 L 179.410156 120 L 179.410156 140 Z M 159.410156 140 "/>
<path style=" stroke:none;fill-rule:nonzero;fill:rgb(0%,0%,0%);fill-opacity:1;" d="M 159.410156 100 L 159.410156 80 L 179.410156 80 L 179.410156 100 Z M 159.410156 100 "/>
<path style=" stroke:none;fill-rule:nonzero;fill:rgb(0%,0%,0%);fill-opacity:1;" d="M 159.410156 60 L 159.410156 40 L 179.410156 40 L 179.410156 60 Z M 159.410156 60 "/>
<path style=" stroke:none;fill-rule:nonzero;fill:rgb(0%,0%,0%);fill-opacity:1;" d="M 159.410156 20 L 159.410156 0 L 179.410156 0 L 179.410156 20 Z M 159.410156 20 "/>
<path style=" stroke:none;fill-rule:nonzero;fill:rgb(0%,0%,0%);fill-opacity:1;" d="M 195.410156 220 L 195.410156 200 L 215.410156 200 L 215.410156 220 Z M 195.410156 220 "/>
<path style=" stroke:none;fill-rule:nonzero;fill:rgb(0%,0%,0%);fill-opacity:1;" d="M 195.410156 180 L 195.410156 160 L 215.410156 160 L 215.410156 180 Z M 195.410156 180 "/>
<path style=" stroke:none;fill-rule:nonzero;fill:rgb(0%,0%,0%);fill-opacity:1;" d="M 195.410156 140 L 195.410156 120 L 215.410156 120 L 215.410156 140 Z M 195.410156 140 "/>
<path style=" stroke:none;fill-rule:nonzero;fill:rgb(0%,0%,0%);fill-opacity:1;" d="M 195.410156 100 L 195.410156 80 L 215.410156 80 L 215.410156 100 Z M 195.410156 100 "/>
<path style=" stroke:none;fill-rule:nonzero;fill:rgb(0%,0%,0%);fill-opacity:1;" d="M 195.410156 60 L 195.410156 40 L 215.410156 40 L 215.410156 60 Z M 195.410156 60 "/>
<path style=" stroke:none;fill-rule:nonzero;fill:rgb(0%,0%,0%);fill-opacity:1;" d="M 195.410156 20 L 195.410156 0 L 215.410156 0 L 215.410156 20 Z M 195.410156 20 "/>
<path style=" stroke:none;fill-rule:nonzero;fill:rgb(0%,0%,0%);fill-opacity:1;" d="M 231.410156 220 L 231.410156 200 L 251.410156 200 L 251.410156 220 Z M 231.410156 220 "/>
<path style=" stroke:none;fill-rule:nonzero;fill:rgb(0%,0%,0%);fill-opacity:1;" d="M 231.410156 180 L 231.410156 160 L 251.410156 160 L 251.410156 180 Z M 231.410156 180 "/>
<path style=" stroke:none;fill-rule:nonzero;fill:rgb(0%,0%,0%);fill-opacity:1;" d="M 231.410156 140 L 231.410156 120 L 251.410156 120 L 251.410156 140 Z M 231.410156 140 "/>
<path style=" stroke:none;fill-rule:nonzero;fill:rgb(0%,0%,0%);fill-opacity:1;" d="M 231.410156 100 L 231.410156 80 L 251.410156 80 L 251.410156 100 Z M 231.410156 100 "/>
<path style=" stroke:none;fill-rule:nonzero;fill:rgb(0%,0%,0%);fill-opacity:1;" d="M 231.410156 60 L 231.410156 40 L 251.410156 40 L 251.410156 60 Z M 231.410156 60 "/>
<path style=" stroke:none;fill-rule:nonzero;fill:rgb(0%,0%,0%);fill-opacity:1;" d="M 231.410156 20 L 231.410156 0 L 251.410156 0 L 251.410156 20 Z M 231.410156 20 "/>
<path style=" stroke:none;fill-rule:nonzero;fill:rgb(0%,0%,0%);fill-opacity:1;" d="M 267.410156 220 L 267.410156 200 L 287.410156 200 L 287.410156 220 Z M 267.410156 220 "/>
<path style=" stroke:none;fill-rule:nonzero;fill:rgb(0%,0%,0%);fill-opacity:1;" d="M 267.410156 180 L 267.410156 160 L 287.410156 160 L 287.410156 180 Z M 267.410156 180 "/>
<path style=" stroke:none;fill-rule:nonzero;fill:rgb(0%,0%,0%);fill-opacity:1;" d="M 267.410156 140 L 267.410156 120 L 287.410156 120 L 287.410156 140 Z M 267.410156 140 "/>
<path style=" stroke:none;fill-rule:nonzero;fill:rgb(0%,0%,0%);fill-opacity:1;" d="M 267.410156 100 L 267.410156 80 L 287.410156 80 L 287.410156 100 Z M 267.410156 100 "/>
<path style=" stroke:none;fill-rule:nonzero;fill:rgb(0%,0%,0%);fill-opacity:1;" d="M 267.410156 60 L 267.410156 40 L 287.410156 40 L 287.410156 60 Z M 267.410156 60 "/>
<path style=" stroke:none;fill-rule:nonzero;fill:rgb(0%,0%,0%);fill-opacity:1;" d="M 267.410156 20 L 267.410156 0 L 287.410156 0 L 287.410156 20 Z M 267.410156 20 "/>
<path style=" stroke:none;fill-rule:nonzero;fill:rgb(0%,0%,0%);fill-opacity:1;" d="M 303.410156 220 L 303.410156 200 L 323.410156 200 L 323.410156 220 Z M 303.410156 220 "/>
<path style=" stroke:none;fill-rule:nonzero;fill:rgb(0%,0%,0%);fill-opacity:1;" d="M 303.410156 180 L 303.410156 160 L 323.410156 160 L 323.410156 180 Z M 303.410156 180 "/>
<path style=" stroke:none;fill-rule:nonzero;fill:rgb(0%,0%,0%);fill-opacity:1;" d="M 303.410156 140 L 303.410156 120 L 323.410156 120 L 323.410156 140 Z M 303.410156 140 "/>
<path style=" stroke:none;fill-rule:nonzero;fill:rgb(0%,0%,0%);fill-opacity:1;" d="M 303.410156 100 L 303.410156 80 L 323.410156 80 L 323.410156 100 Z M 303.410156 100 "/>
<path style=" stroke:none;fill-rule:nonzero;fill:rgb(0%,0%,0%);fill-opacity:1;" d="M 303.410156 60 L 303.410156 40 L 323.410156 40 L 323.410156 60 Z M 303.410156 60 "/>
<path style=" stroke:none;fill-rule:nonzero;fill:rgb(0%,0%,0%);fill-opacity:1;" d="M 303.410156 20 L 303.410156 0 L 323.410156 0 L 323.410156 20 Z M 303.410156 20 "/>
<path style=" stroke:none;fill-rule:nonzero;fill:rgb(0%,0%,0%);fill-opacity:1;" d="M 339.410156 220 L 339.410156 200 L 359.410156 200 L 359.410156 220 Z M 339.410156 220 "/>
<path style=" stroke:none;fill-rule:nonzero;fill:rgb(0%,0%,0%);fill-opacity:1;" d="M 339.410156 180 L 339.410156 160 L 359.410156 160 L 359.410156 180 Z M 339.410156 180 "/>
<path style=" stroke:none;fill-rule:nonzero;fill:rgb(0%,0%,0%);fill-opacity:1;" d="M 339.410156 140 L 339.410156 120 L 359.410156 120 L 359.410156 140 Z M 339.410156 140 "/>
<path style=" stroke:none;fill-rule:nonzero;fill:rgb(0%,0%,0%);fill-opacity:1;" d="M 339.410156 100 L 339.410156 80 L 359.410156 80 L 359.410156 100 Z M 339.410156 100 "/>
<path style=" stroke:none;fill-rule:nonzero;fill:rgb(0%,0%,0%);fill-opacity:1;" d="M 339.410156 60 L 339.410156 40 L 359.410156 40 L 359.410156 60 Z M 339.410156 60 "/>
<path style=" stroke:none;fill-rule:nonzero;fill:rgb(0%,0%,0%);fill-opacity:1;" d="M 339.410156 20 L 339.410156 0 L 359.410156 0 L 359.410156 20 Z M 339.410156 20 "/>
<path style=" stroke:none;fill-rule:nonzero;fill:rgb(0%,0%,0%);fill-opacity:1;" d="M 375.410156 220 L 375.410156 200 L 395.410156 200 L 395.410156 220 Z M 375.410156 220 "/>
<path style=" stroke:none;fill-rule:nonzero;fill:rgb(0%,0%,0%);fill-opacity:1;" d="M 375.410156 180 L 375.410156 160 L 395.410156 160 L 395.410156 180 Z M 375.410156 180 "/>
<path style=" stroke:none;fill-rule:nonzero;fill:rgb(0%,0%,0%);fill-opacity:1;" d="M 375.410156 140 L 375.410156 120 L 395.410156 120 L 395.410156 140 Z M 375.410156 140 "/>
<path style=" stroke:none;fill-rule:nonzero;fill:rgb(0%,0%,0%);fill-opacity:1;" d="M 375.410156 100 L 375.410156 80 L 395.410156 80 L 395.410156 100 Z M 375.410156 100 "/>
<path style=" stroke:none;fill-rule:nonzero;fill:rgb(0%,0%,0%);fill-opacity:1;" d="M 375.410156 60 L 375.410156 40 L 395.410156 40 L 395.410156 60 Z M 375.410156 60 "/>
<path style=" stroke:none;fill-rule:nonzero;fill:rgb(0%,0%,0%);fill-opacity:1;" d="M 375.410156 20 L 375.410156 0 L 395.410156 0 L 395.410156 20 Z M 375.410156 20 "/>
<path style=" stroke:none;fill-rule:nonzero;fill:rgb(0%,0%,0%);fill-opacity:1;" d="M -7.25 200 L -7.25 180 L 12.75 180 L 12.75 200 Z M -7.25 200 "/>
<path style=" stroke:none;fill-rule:nonzero;fill:rgb(0%,0%,0%);fill-opacity:1;" d="M -7.25 160 L -7.25 140 L 12.75 140 L 12.75 160 Z M -7.25 160 "/>
<path style=" stroke:none;fill-rule:nonzero;fill:rgb(0%,0%,0%);fill-opacity:1;" d="M -7.25 120 L -7.25 100 L 12.75 100 L 12.75 120 Z M -7.25 120 "/>
<path style=" stroke:none;fill-rule:nonzero;fill:rgb(0%,0%,0%);fill-opacity:1;" d="M -7.25 80 L -7.25 60 L 12.75 60 L 12.75 80 Z M -7.25 80 "/>
<path style=" stroke:none;fill-rule:nonzero;fill:rgb(0%,0%,0%);fill-opacity:1;" d="M -7.25 40 L -7.25 20 L 12.75 20 L 12.75 40 Z M -7.25 40 "/>
<path style=" stroke:none;fill-rule:nonzero;fill:rgb(0%,0%,0%);fill-opacity:1;" d="M 28.75 200 L 28.75 180 L 48.75 180 L 48.75 200 Z M 28.75 200 "/>
<path style=" stroke:none;fill-rule:nonzero;fill:rgb(0%,0%,0%);fill-opacity:1;" d="M 28.75 160 L 28.75 140 L 48.75 140 L 48.75 160 Z M 28.75 160 "/>
<path style=" stroke:none;fill-rule:nonzero;fill:rgb(0%,0%,0%);fill-opacity:1;" d="M 28.75 120 L 28.75 100 L 48.75 100 L 48.75 120 Z M 28.75 120 "/>
<path style=" stroke:none;fill-rule:nonzero;fill:rgb(0%,0%,0%);fill-opacity:1;" d="M 28.75 80 L 28.75 60 L 48.75 60 L 48.75 80 Z M 28.75 80 "/>
<path style=" stroke:none;fill-rule:nonzero;fill:rgb(0%,0%,0%);fill-opacity:1;" d="M 28.75 40 L 28.75 20 L 48.75 20 L 48.75 40 Z M 28.75 40 "/>
<path style=" stroke:none;fill-rule:nonzero;fill:rgb(0%,0%,0%);fill-opacity:1;" d="M 64.75 200 L 64.75 180 L 84.75 180 L 84.75 200 Z M 64.75 200 "/>
<path style=" stroke:none;fill-rule:nonzero;fill:rgb(0%,0%,0%);fill-opacity:1;" d="M 64.75 160 L 64.75 140 L 84.75 140 L 84.75 160 Z M 64.75 160 "/>
<path style=" stroke:none;fill-rule:nonzero;fill:rgb(0%,0%,0%);fill-opacity:1;" d="M 64.75 120 L 64.75 100 L 84.75 100 L 84.75 120 Z M 64.75 120 "/>
<path style=" stroke:none;fill-rule:nonzero;fill:rgb(0%,0%,0%);fill-opacity:1;" d="M 64.75 80 L 64.75 60 L 84.75 60 L 84.75 80 Z M 64.75 80 "/>
<path style=" stroke:none;fill-rule:nonzero;fill:rgb(0%,0%,0%);fill-opacity:1;" d="M 64.75 40 L 64.75 20 L 84.75 20 L 84.75 40 Z M 64.75 40 "/>
<path style=" stroke:none;fill-rule:nonzero;fill:rgb(0%,0%,0%);fill-opacity:1;" d="M 100.75 200 L 100.75 180 L 120.75 180 L 120.75 200 Z M 100.75 200 "/>
<path style=" stroke:none;fill-rule:nonzero;fill:rgb(0%,0%,0%);fill-opacity:1;" d="M 100.75 160 L 100.75 140 L 120.75 140 L 120.75 160 Z M 100.75 160 "/>
<path style=" stroke:none;fill-rule:nonzero;fill:rgb(0%,0%,0%);fill-opacity:1;" d="M 100.75 120 L 100.75 100 L 120.75 100 L 120.75 120 Z M 100.75 120 "/>
<path style=" stroke:none;fill-rule:nonzero;fill:rgb(0%,0%,0%);fill-opacity:1;" d="M 100.75 80 L 100.75 60 L 120.75 60 L 120.75 80 Z M 100.75 80 "/>
<path style=" stroke:none;fill-rule:nonzero;fill:rgb(0%,0%,0%);fill-opacity:1;" d="M 100.75 40 L 100.75 20 L 120.75 20 L 120.75 40 Z M 100.75 40 "/>
<path style=" stroke:none;fill-rule:nonzero;fill:rgb(0%,0%,0%);fill-opacity:1;" d="M 136.75 200 L 136.75 180 L 156.75 180 L 156.75 200 Z M 136.75 200 "/>
<path style=" stroke:none;fill-rule:nonzero;fill:rgb(0%,0%,0%);fill-opacity:1;" d="M 136.75 160 L 136.75 140 L 156.75 140 L 156.75 160 Z M 136.75 160 "/>
<path style=" stroke:none;fill-rule:nonzero;fill:rgb(0%,0%,0%);fill-opacity:1;" d="M 136.75 120 L 136.75 100 L 156.75 100 L 156.75 120 Z M 136.75 120 "/>
<path style=" stroke:none;fill-rule:nonzero;fill:rgb(0%,0%,0%);fill-opacity:1;" d="M 136.75 80 L 136.75 60 L 156.75 60 L 156.75 80 Z M 136.75 80 "/>
<path style=" stroke:none;fill-rule:nonzero;fill:rgb(0%,0%,0%);fill-opacity:1;" d="M 136.75 40 L 136.75 20 L 156.75 20 L 156.75 40 Z M 136.75 40 "/>
<path style=" stroke:none;fill-rule:nonzero;fill:rgb(0%,0%,0%);fill-opacity:1;" d="M 172.75 200 L 172.75 180 L 192.75 180 L 192.75 200 Z M 172.75 200 "/>
<path style=" stroke:none;fill-rule:nonzero;fill:rgb(0%,0%,0%);fill-opacity:1;" d="M 172.75 160 L 172.75 140 L 192.75 140 L 192.75 160 Z M 172.75 160 "/>
<path style=" stroke:none;fill-rule:nonzero;fill:rgb(0%,0%,0%);fill-opacity:1;" d="M 172.75 120 L 172.75 100 L 192.75 100 L 192.75 120 Z M 172.75 120 "/>
<path style=" stroke:none;fill-rule:nonzero;fill:rgb(0%,0%,0%);fill-opacity:1;" d="M 172.75 80 L 172.75 60 L 192.75 60 L 192.75 80 Z M 172.75 80 "/>
<path style=" stroke:none;fill-rule:nonzero;fill:rgb(0%,0%,0%);fill-opacity:1;" d="M 172.75 40 L 172.75 20 L 192.75 20 L 192.75 40 Z M 172.75 40 "/>
<path style=" stroke:none;fill-rule:nonzero;fill:rgb(0%,0%,0%);fill-opacity:1;" d="M 208.75 200 L 208.75 180 L 228.75 180 L 228.75 200 Z M 208.75 200 "/>
<path style=" stroke:none;fill-rule:nonzero;fill:rgb(0%,0%,0%);fill-opacity:1;" d="M 208.75 160 L 208.75 140 L 228.75 140 L 228.75 160 Z M 208.75 160 "/>
<path style=" stroke:none;fill-rule:nonzero;fill:rgb(0%,0%,0%);fill-opacity:1;" d="M 208.75 120 L 208.75 100 L 228.75 100 L 228.75 120 Z M 208.75 120 "/>
<path style=" stroke:none;fill-rule:nonzero;fill:rgb(0%,0%,0%);fill-opacity:1;" d="M 208.75 80 L 208.75 60 L 228.75 60 L 228.75 80 Z M 208.75 80 "/>
<path style=" stroke:none;fill-rule:nonzero;fill:rgb(0%,0%,0%);fill-opacity:1;" d="M 208.75 40 L 208.75 20 L 228.75 20 L 228.75 40 Z M 208.75 40 "/>
<path style=" stroke:none;fill-rule:nonzero;fill:rgb(0%,0%,0%);fill-opacity:1;" d="M 244.75 200 L 244.75 180 L 264.75 180 L 264.75 200 Z M 244.75 200 "/>
<path style=" stroke:none;fill-rule:nonzero;fill:rgb(0%,0%,0%);fill-opacity:1;" d="M 244.75 160 L 244.75 140 L 264.75 140 L 264.75 160 Z M 244.75 160 "/>
<path style=" stroke:none;fill-rule:nonzero;fill:rgb(0%,0%,0%);fill-opacity:1;" d="M 244.75 120 L 244.75 100 L 264.75 100 L 264.75 120 Z M 244.75 120 "/>
<path style=" stroke:none;fill-rule:nonzero;fill:rgb(0%,0%,0%);fill-opacity:1;" d="M 244.75 80 L 244.75 60 L 264.75 60 L 264.75 80 Z M 244.75 80 "/>
<path style=" stroke:none;fill-rule:nonzero;fill:rgb(0%,0%,0%);fill-opacity:1;" d="M 244.75 40 L 244.75 20 L 264.75 20 L 264.75 40 Z M 244.75 40 "/>
<path style=" stroke:none;fill-rule:nonzero;fill:rgb(0%,0%,0%);fill-opacity:1;" d="M 280.75 200 L 280.75 180 L 300.75 180 L 300.75 200 Z M 280.75 200 "/>
<path style=" stroke:none;fill-rule:nonzero;fill:rgb(0%,0%,0%);fill-opacity:1;" d="M 280.75 160 L 280.75 140 L 300.75 140 L 300.75 160 Z M 280.75 160 "/>
<path style=" stroke:none;fill-rule:nonzero;fill:rgb(0%,0%,0%);fill-opacity:1;" d="M 280.75 120 L 280.75 100 L 300.75 100 L 300.75 120 Z M 280.75 120 "/>
<path style=" stroke:none;fill-rule:nonzero;fill:rgb(0%,0%,0%);fill-opacity:1;" d="M 280.75 80 L 280.75 60 L 300.75 60 L 300.75 80 Z M 280.75 80 "/>
<path style=" stroke:none;fill-rule:nonzero;fill:rgb(0%,0%,0%);fill-opacity:1;" d="M 280.75 40 L 280.75 20 L 300.75 20 L 300.75 40 Z M 280.75 40 "/>
<path style=" stroke:none;fill-rule:nonzero;fill:rgb(0%,0%,0%);fill-opacity:1;" d="M 316.75 200 L 316.75 180 L 336.75 180 L 336.75 200 Z M 316.75 200 "/>
<path style=" stroke:none;fill-rule:nonzero;fill:rgb(0%,0%,0%);fill-opacity:1;" d="M 316.75 160 L 316.75 140 L 336.75 140 L 336.75 160 Z M 316.75 160 "/>
<path style=" stroke:none;fill-rule:nonzero;fill:rgb(0%,0%,0%);fill-opacity:1;" d="M 316.75 120 L 316.75 100 L 336.75 100 L 336.75 120 Z M 316.75 120 "/>
<path style=" stroke:none;fill-rule:nonzero;fill:rgb(0%,0%,0%);fill-opacity:1;" d="M 316.75 80 L 316.75 60 L 336.75 60 L 336.75 80 Z M 316.75 80 "/>
<path style=" stroke:none;fill-rule:nonzero;fill:rgb(0%,0%,0%);fill-opacity:1;" d="M 316.75 40 L 316.75 20 L 336.75 20 L 336.75 40 Z M 316.75 40 "/>
<path style=" stroke:none;fill-rule:nonzero;fill:rgb(0%,0%,0%);fill-opacity:1;" d="M 352.75 200 L 352.75 180 L 372.75 180 L 372.75 200 Z M 352.75 200 "/>
<path style=" stroke:none;fill-rule:nonzero;fill:rgb(0%,0%,0%);fill-opacity:1;" d="M 352.75 160 L 352.75 140 L 372.75 140 L 372.75 160 Z M 352.75 160 "/>
<path style=" stroke:none;fill-rule:nonzero;fill:rgb(0%,0%,0%);fill-opacity:1;" d="M 352.75 120 L 352.75 100 L 372.75 100 L 372.75 120 Z M 352.75 120 "/>
<path style=" stroke:none;fill-rule:nonzero;fill:rgb(0%,0%,0%);fill-opacity:1;" d="M 352.75 80 L 352.75 60 L 372.75 60 L 372.75 80 Z M 352.75 80 "/>
<path style=" stroke:none;fill-rule:nonzero;fill:rgb(0%,0%,0%);fill-opacity:1;" d="M 352.75 40 L 352.75 20 L 372.75 20 L 372.75 40 Z M 352.75 40 "/>
<path style=" stroke:none;fill-rule:nonzero;fill:rgb(0%,0%,0%);fill-opacity:1;" d="M 388.75 200 L 388.75 180 L 408.75 180 L 408.75 200 Z M 388.75 200 "/>
<path style=" stroke:none;fill-rule:nonzero;fill:rgb(0%,0%,0%);fill-opacity:1;" d="M 388.75 160 L 388.75 140 L 408.75 140 L 408.75 160 Z M 388.75 160 "/>
<path style=" stroke:none;fill-rule:nonzero;fill:rgb(0%,0%,0%);fill-opacity:1;" d="M 388.75 120 L 388.75 100 L 408.75 100 L 408.75 120 Z M 388.75 120 "/>
<path style=" stroke:none;fill-rule:nonzero;fill:rgb(0%,0%,0%);fill-opacity:1;" d="M 388.75 80 L 388.75 60 L 408.75 60 L 408.75 80 Z M 388.75 80 "/>
<path style=" stroke:none;fill-rule:nonzero;fill:rgb(0%,0%,0%);fill-opacity:1;" d="M 388.75 40 L 388.75 20 L 408.75 20 L 408.75 40 Z M 388.75 40 "/>
<path style="fill:none;stroke-width:1;stroke-linecap:square;stroke-linejoin:miter;stroke:rgb(100%,0%,0%);stroke-opacity:1;stroke-miterlimit:3.25;" d="M 0 220 L 400 220 "/>
<path style="fill:none;stroke-width:1;stroke-linecap:square;stroke-linejoin:miter;stroke:rgb(100%,0%,0%);stroke-opacity:1;stroke-miterlimit:3.25;" d="M 0 200 L 400 200 "/>
<path style="fill:none;stroke-width:1;stroke-linecap:square;stroke-linejoin:miter;stroke:rgb(100%,0%,0%);stroke-opacity:1;stroke-miterlimit:3.25;" d="M 0 180 L 400 180 "/>
<path style="fill:none;stroke-width:1;stroke-linecap:square;stroke-linejoin:miter;stroke:rgb(100%,0%,0%);stroke-opacity:1;stroke-miterlimit:3.25;" d="M 0 160 L 400 160 "/>
<path style="fill:none;stroke-width:1;stroke-linecap:square;stroke-linejoin:miter;stroke:rgb(100%,0%,0%);stroke-opacity:1;stroke-miterlimit:3.25;" d="M 0 140 L 400 140 "/>
<path style="fill:none;stroke-width:1;stroke-linecap:square;stroke-linejoin:miter;stroke:rgb(100%,0%,0%);stroke-opacity:1;stroke-miterlimit:3.25;" d="M 0 120 L 400 120 "/>
<path style="fill:none;stroke-width:1;stroke-linecap:square;stroke-linejoin:miter;stroke:rgb(100%,0%,0%);stroke-opacity:1;stroke-miterlimit:3.25;" d="M 0 100 L 400 100 "/>
<path style="fill:none;stroke-width:1;stroke-linecap:square;stroke-linejoin:miter;stroke:rgb(100%,0%,0%);stroke-opacity:1;stroke-miterlimit:3.25;" d="M 0 80 L 400 80 "/>
<path style="fill:none;stroke-width:1;stroke-linecap:square;stroke-linejoin:miter;stroke:rgb(100%,0%,0%);stroke-opacity:1;stroke-miterlimit:3.25;" d="M 0 60 L 400 60 "/>
<path style="fill:none;stroke-width:1;stroke-linecap:square;stroke-linejoin:miter;stroke:rgb(100%,0%,0%);stroke-opacity:1;stroke-miterlimit:3.25;" d="M 0 40 L 400 40 "/>
<path style="fill:none;stroke-width:1;stroke-linecap:square;stroke-linejoin:miter;stroke:rgb(100%,0%,0%);stroke-opacity:1;stroke-miterlimit:3.25;" d="M 0 20 L 400 20 "/>
</g>
</svg>
