<?xml version="1.0" encoding="UTF-8"?>
<svg xmlns="http://www.w3.org/2000/svg" xmlns:xlink="http://www.w3.org/1999/xlink" width="400pt" height="220pt" viewBox="0 0 400 220" version="1.1">
<g id="surface501">
<rect x="0" y="0" width="400" height="220" style="fill:rgb(0%,40%,100%);fill-opacity:0.2;stroke:none;"/>
<path style=" stroke:none;fill-rule:nonzero;fill:rgb(0%,0%,0%);fill-opacity:1;" d="M 1.253906 220 L 1.253906 200 L 21.253906 200 L 21.253906 220 Z M 1.253906 220 "/>
<path style=" stroke:none;fill-rule:nonzero;fill:rgb(0%,0%,0%);fill-opacity:1;" d="M 1.253906 180 L 1.253906 160 L 21.253906 160 L 21.253906 180 Z M 1.253906 180 "/>
<path style=" stroke:none;fill-rule:nonzero;fill:rgb(0%,0%,0%);fill-opacity:1;" d="M 1.253906 140 L 1.253906 120 L 21.253906 120 L 21.253906 140 Z M 1.253906 140 "/>
<path style=" stroke:none;fill-rule:nonzero;fill:rgb(0%,0%,0%);fill-opacity:1;" d="M 1.253906 100 L 1.253906 80 L 21.253906 80 L 21.253906 100 Z M 1.253906 100 "/>
<path style=" stroke:none;fill-rule:nonzero;fill:rgb(0%,0%,0%);fill-opacity:1;" d="M 1.253906 60 L 1.253906 40 L 21.253906 40 L 21.253906 60 Z M 1.253906 60 "/>
<path style=" stroke:none;fill-rule:nonzero;fill:rgb(0%,0%,0%);fill-opacity:1;" d="M 1.253906 20 L 1.253906 0 L 21.253906 0 L 21.253906 20 Z M 1.253906 20 "/>
<path style=" stroke:none;fill-rule:nonzero;fill:rgb(0%,0%,0%);fill-opacity:1;" d="M 37.253906 220 L 37.253906 200 L 57.253906 200 L 57.253906 220 Z M 37.253906 220 "/>
<path style=" stroke:none;fill-rule:nonzero;fill:rgb(0%,0%,0%);fill-opacity:1;" d="M 37.253906 180 L 37.253906 160 L 57.253906 160 L 57.253906 180 Z M 37.253906 180 "/>
<path style=" stroke:none;fill-rule:nonzero;fill:rgb(0%,0%,0%);fill-opacity:1;" d="M 37.253906 140 L 37.253906 120 L 57.253906 120 L 57.253906 140 Z M 37.253906 140 "/>
<path style=" stroke:none;fill-rule:nonzero;fill:rgb(0%,0%,0%);fill-opacity:1;" d="M 37.253906 100 L 37.253906 80 L 57.253906 80 L 57.253906 100 Z M 37.253906 100 "/>
<path style=" stroke:none;fill-rule:nonzero;fill:rgb(0%,0%,0%);fill-opacity:1;" d="M 37.253906 60 L 37.253906 40 L 57.253906 40 L 57.253906 60 Z M 37.253906 60 "/>
<path style=" stroke:none;fill-rule:nonzero;fill:rgb(0%,0%,0%);fill-opacity:1;" d="M 37.253906 20 L 37.253906 0 L 57.253906 0 L 57.253906 20 Z M 37.253906 20 "/>
<path style=" stroke:none;fill-rule:nonzero;fill:rgb(0%,0%,0%);fill-opacity:1;" d="M 73.253906 220 L 73.253906 200 L 93.253906 200 L 93.253906 220 Z M 73.253906 220 "/>
<path style=" stroke:none;fill-rule:nonzero;fill:rgb(0%,0%,0%);fill-opacity:1;" d="M 73.253906 180 L 73.253906 160 L 93.253906 160 L 93.253906 180 Z M 73.253906 180 "/>
<path style=" stroke:none;fill-rule:nonzero;fill:rgb(0%,0%,0%);fill-opacity:1;" d="M 73.253906 140 L 73.253906 120 L 93.253906 120 L 93.253906 140 Z M 73.253906 140 "/>
<path style=" stroke:none;fill-rule:nonzero;fill:rgb(0%,0%,0%);fill-opacity:1;" d="M 73.253906 100 L 73.253906 80 L 93.253906 80 L 93.253906 100 Z M 73.253906 100 "/>
<path style=" stroke:none;fill-rule:nonzero;fill:rgb(0%,0%,0%);fill-opacity:1;" d="M 73.253906 60 L 73.253906 40 L 93.253906 40 L 93.253906 60 Z M 73.253906 60 "/>
<path style=" stroke:none;fill-rule:nonzero;fill:rgb(0%,0%,0%);fill-opacity:1;" d="M 73.253906 20 L 73.253906 0 L 93.253906 0 L 93.253906 20 Z M 73.253906 20 "/>
<path style=" stroke:none;fill-rule:nonzero;fill:rgb(0%,0%,0%);fill-opacity:1;" d="M 109.253906 220 L 109.253906 200 L 129.253906 200 L 129.253906 220 Z M 109.253906 220 "/>
<path style=" stroke:none;fill-rule:nonzero;fill:rgb(0%,0%,0%);fill-opacity:1;" d="M 109.253906 180 L 109.253906 160 L 129.253906 160 L 129.253906 180 Z M 109.253906 180 "/>
<path style=" stroke:none;fill-rule:nonzero;fill:rgb(0%,0%,0%);fill-opacity:1;" d="M 109.253906 140 L 109.253906 120 L 129.253906 120 L 129.253906 140 Z M 109.253906 140 "/>
<path style=" stroke:none;fill-rule:nonzero;fill:rgb(0%,0%,0%);fill-opacity:1;" d="M 109.253906 100 L 109.253906 80 L 129.253906 80 L 129.253906 100 Z M 109.253906 100 "/>
<path style=" stroke:none;fill-rule:nonzero;fill:rgb(0%,0%,0%);fill-opacity:1;" d="M 109.253906 60 L 109.253906 40 L 129.253906 40 L 129.253906 60 Z M 109.253906 60 "/>
<path style=" stroke:none;fill-rule:nonzero;fill:rgb(0%,0%,0%);fill-opacity:1;" d="M 109.253906 20 L 109.253906 0 L 129.253906 0 L 129.253906 20 Z M 109.253906 20 "/>
<path style=" stroke:none;fill-rule:nonzero;fill:rgb(0%,0%,0%);fill-opacity:1;" d="M 145.253906 220 L 145.253906 200 L 165.253906 200 L 165.253906 220 Z M 145.253906 220 "/>
<path style=" stroke:none;fill-rule:nonzero;fill:rgb(0%,0%,0%);fill-opacity:1;" d="M 145.253906 180 L 145.253906 160 L 165.253906 160 L 165.253906 180 Z M 145.253906 180 "/>
<path style=" stroke:none;fill-rule:nonzero;fill:rgb(0%,0%,0%);fill-opacity:1;" d="M 145.253906 140 L 145.253906 120 L 165.253906 120 L 165.253906 140 Z M 145.253906 140 "/>
<path style=" stroke:none;fill-rule:nonzero;fill:rgb(0%,0%,0%);fill-opacity:1;" d="M 145.253906 100 L 145.253906 80 L 165.253906 80 L 165.253906 100 Z M 145.253906 100 "/>
<path style=" stroke:none;fill-rule:nonzero;fill:rgb(0%,0%,0%);fill-opacity:1;" d="M 145.253906 60 L 145.253906 40 L 165.253906 40 L 165.253906 60 Z M 145.253906 60 "/>
<path style=" stroke:none;fill-rule:nonzero;fill:rgb(0%,0%,0%);fill-opacity:1;" d="M 145.253906 20 L 145.253906 0 L 165.253906 0 L 165.253906 20 Z M 145.253906 20 "/>
<path style=" stroke:none;fill-rule:nonzero;fill:rgb(0%,0%,0%);fill-opacity:1;" d="M 181.253906 220 L 181.253906 200 L 201.253906 200 L 201.253906 220 Z M 181.253906 220 "/>
<path style=" stroke:none;fill-rule:nonzero;fill:rgb(0%,0%,0%);fill-opacity:1;" d="M 181.253906 180 L 181.253906 160 L 201.253906 160 L 201.253906 180 Z M 181.253906 180 "/>
<path style=" stroke:none;fill-rule:nonzero;fill:rgb(0%,0%,0%);fill-opacity:1;" d="M 181.253906 140 L 181.253906 120 L 201.253906 120 L 201.253906 140 Z M 181.253906 140 "/>
<path style=" stroke:none;fill-rule:nonzero;fill:rgb(0%,0%,0%);fill-opacity:1;" d="M 181.253906 100 L 181.253906 80 L 201.253906 80 L 201.253906 100 Z M 181.253906 100 "/>
<path style=" stroke:none;fill-rule:nonzero;fill:rgb(0%,0%,0%);fill-opacity:1;" d="M 181.253906 60 L 181.253906 40 L 201.253906 40 L 201.253906 60 Z M 181.253906 60 "/>
<path style=" stroke:none;fill-rule:nonzero;fill:rgb(0%,0%,0%);fill-opacity:1;" d="M 181.253906 20 L 181.253906 0 L 201.253906 0 L 201.253906 20 Z M 181.253906 20 "/>
<path style=" stroke:none;fill-rule:nonzero;fill:rgb(0%,0%,0%);fill-opacity:1;" d="M 217.253906 220 L 217.253906 200 L 237.253906 200 L 237.253906 220 Z M 217.253906 220 "/>
<path style=" stroke:none;fill-rule:nonzero;fill:rgb(0%,0%,0%);fill-opacity:1;" d="M 217.253906 180 L 217.253906 160 L 237.253906 160 L 237.253906 180 Z M 217.253906 180 "/>
<path style=" stroke:none;fill-rule:nonzero;fill:rgb(0%,0%,0%);fill-opacity:1;" d="M 217.253906 140 L 217.253906 120 L 237.253906 120 L 237.253906 140 Z M 217.253906 140 "/>
<path style=" stroke:none;fill-rule:nonzero;fill:rgb(0%,0%,0%);fill-opacity:1;" d="M 217.253906 100 L 217.253906 80 L 237.253906 80 L 237.253906 100 Z M 217.253906 100 "/>
<path style=" stroke:none;fill-rule:nonzero;fill:rgb(0%,0%,0%);fill-opacity:1;" d="M 217.253906 60 L 217.253906 40 L 237.253906 40 L 237.253906 60 Z M 217.253906 60 "/>
<path style=" stroke:none;fill-rule:nonzero;fill:rgb(0%,0%,0%);fill-opacity:1;" d="M 217.253906 20 L 217.253906 0 L 237.253906 0 L 237.253906 20 Z M 217.253906 20 "/>
<path style=" stroke:none;fill-rule:nonzero;fill:rgb(0%,0%,0%);fill-opacity:1;" d="M 253.253906 220 L 253.253906 200 L 273.253906 200 L 273.253906 220 Z M 253.253906 220 "/>
<path style=" stroke:none;fill-rule:nonzero;fill:rgb(0%,0%,0%);fill-opacity:1;" d="M 253.253906 180 L 253.253906 160 L 273.253906 160 L 273.253906 180 Z M 253.253906 180 "/>
<path style=" stroke:none;fill-rule:nonzero;fill:rgb(0%,0%,0%);fill-opacity:1;" d="M 253.253906 140 L 253.253906 120 L 273.253906 120 L 273.253906 140 Z M 253.253906 140 "/>
<path style=" stroke:none;fill-rule:nonzero;fill:rgb(0%,0%,0%);fill-opacity:1;" d="M 253.253906 100 L 253.253906 80 L 273.253906 80 L 273.253906 100 Z M 253.253906 100 "/>
<path style=" stroke:none;fill-rule:nonzero;fill:rgb(0%,0%,0%);fill-opacity:1;" d="M 253.253906 60 L 253.253906 40 L 273.253906 40 L 273.253906 60 Z M 253.253906 60 "/>
<path style=" stroke:none;fill-rule:nonzero;fill:rgb(0%,0%,0%);fill-opacity:1;" d="M 253.253906 20 L 253.253906 0 L 273.253906 0 L 273.253906 20 Z M 253.253906 20 "/>
<path style=" stroke:none;fill-rule:nonzero;fill:rgb(0%,0%,0%);fill-opacity:1;" d="M 289.253906 220 L 289.253906 200 L 309.253906 200 L 309.253906 220 Z M 289.253906 220 "/>
<path style=" stroke:none;fill-rule:nonzero;fill:rgb(0%,0%,0%);fill-opacity:1;" d="M 289.253906 180 L 289.253906 160 L 309.253906 160 L 309.253906 180 Z M 289.253906 180 "/>
<path style=" stroke:none;fill-rule:nonzero;fill:rgb(0%,0%,0%);fill-opacity:1;" d="M 289.253906 140 L 289.253906 120 L 309.253906 120 L 309.253906 140 Z M 289.253906 140 "/>
<path style=" stroke:none;fill-rule:nonzero;fill:rgb(0%,0%,0%);fill-opacity:1;" d="M 289.253906 100 L 289.253906 80 L 309.253906 80 L 309.253906 100 Z M 289.253906 100 "/>
<path style=" stroke:none;fill-rule:nonzero;fill:rgb(0%,0%,0%);fill-opacity:1;" d="M 289.253906 60 L 289.253906 40 L 309.253906 40 L 309.253906 60 Z M 289.253906 60 "/>
<path style=" stroke:none;fill-rule:nonzero;fill:rgb(0%,0%,0%);fill-opacity:1;" d="M 289.253906 20 L 289.253906 0 L 309.253906 0 L 309.253906 20 Z M 289.253906 20 "/>
<path style=" stroke:none;fill-rule:nonzero;fill:rgb(0%,0%,0%);fill-opacity:1;" d="M 325.253906 220 L 325.253906 200 L 345.253906 200 L 345.253906 220 Z M 325.253906 220 "/>
<path style=" stroke:none;fill-rule:nonzero;fill:rgb(0%,0%,0%);fill-opacity:1;" d="M 325.253906 180 L 325.253906 160 L 345.253906 160 L 345.253906 180 Z M 325.253906 180 "/>
<path style=" stroke:none;fill-rule:nonzero;fill:rgb(0%,0%,0%);fill-opacity:1;" d="M 325.253906 140 L 325.253906 120 L 345.253906 120 L 345.253906 140 Z M 325.253906 140 "/>
<path style=" stroke:none;fill-rule:nonzero;fill:rgb(0%,0%,0%);fill-opacity:1;" d="M 325.253906 100 L 325.253906 80 L 345.253906 80 L 345.253906 100 Z M 325.253906 100 "/>
<path style=" stroke:none;fill-rule:nonzero;fill:rgb(0%,0%,0%);fill-opacity:1;" d="M 325.253906 60 L 325.253906 40 L 345.253906 40 L 345.253906 60 Z M 325.253906 60 "/>
<path style=" stroke:none;fill-rule:nonzero;fill:rgb(0%,0%,0%);fill-opacity:1;" d="M 325.253906 20 L 325.253906 0 L 345.253906 0 L 345.253906 20 Z M 325.253906 20 "/>
<path style=" stroke:none;fill-rule:nonzero;fill:rgb(0%,0%,0%);fill-opacity:1;" d="M 361.253906 220 L 361.253906 200 L 381.253906 200 L 381.253906 220 Z M 361.253906 220 "/>
<path style=" stroke:none;fill-rule:nonzero;fill:rgb(0%,0%,0%);fill-opacity:1;" d="M 361.253906 180 L 361.253906 160 L 381.253906 160 L 381.253906 180 Z M 361.253906 180 "/>
<path style=" stroke:none;fill-rule:nonzero;fill:rgb(0%,0%,0%);fill-opacity:1;" d="M 361.253906 140 L 361.253906 120 L 381.253906 120 L 381.253906 140 Z M 361.253906 140 "/>
<path style=" stroke:none;fill-rule:nonzero;fill:rgb(0%,0%,0%);fill-opacity:1;" d="M 361.253906 100 L 361.253906 80 L 381.253906 80 L 381.253906 100 Z M 361.253906 100 "/>
<path style=" stroke:none;fill-rule:nonzero;fill:rgb(0%,0%,0%);fill-opacity:1;" d="M 361.253906 60 L 361.253906 40 L 381.253906 40 L 381.253906 60 Z M 361.253906 60 "/>
<path style=" stroke:none;fill-rule:nonzero;fill:rgb(0%,0%,0%);fill-opacity:1;" d="M 361.253906 20 L 361.253906 0 L 381.253906 0 L 381.253906 20 Z M 361.253906 20 "/>
<path style=" stroke:none;fill-rule:nonzero;fill:rgb(0%,0%,0%);fill-opacity:1;" d="M 397.253906 220 L 397.253906 200 L 417.253906 200 L 417.253906 220 Z M 397.253906 220 "/>
<path style=" stroke:none;fill-rule:nonzero;fill:rgb(0%,0%,0%);fill-opacity:1;" d="M 397.253906 180 L 397.253906 160 L 417.253906 160 L 417.253906 180 Z M 397.253906 180 "/>
<path style=" stroke:none;fill-rule:nonzero;fill:rgb(0%,0%,0%);fill-opacity:1;" d="M 397.253906 140 L 397.253906 120 L 417.253906 120 L 417.253906 140 Z M 397.253906 140 "/>
<path style=" stroke:none;fill-rule:nonzero;fill:rgb(0%,0%,0%);fill-opacity:1;" d="M 397.253906 100 L 397.253906 80 L 417.253906 80 L 417.253906 100 Z M 397.253906 100 "/>
<path style=" stroke:none;fill-rule:nonzero;fill:rgb(0%,0%,0%);fill-opacity:1;" d="M 397.253906 60 L 397.253906 40 L 417.253906 40 L 417.253906 60 Z M 397.253906 60 "/>
<path style=" stroke:none;fill-rule:nonzero;fill:rgb(0%,0%,0%);fill-opacity:1;" d="M 397.253906 20 L 397.253906 0 L 417.253906 0 L 417.253906 20 Z M 397.253906 20 "/>
<path style=" stroke:none;fill-rule:nonzero;fill:rgb(0%,0%,0%);fill-opacity:1;" d="M -3.960938 200 L -3.960938 180 L 16.039062 180 L 16.039062 200 Z M -3.960938 200 "/>
<path style=" stroke:none;fill-rule:nonzero;fill:rgb(0%,0%,0%);fill-opacity:1;" d="M -3.960938 160 L -3.960938 140 L 16.039062 140 L 16.039062 160 Z M -3.960938 160 "/>
<path style=" stroke:none;fill-rule:nonzero;fill:rgb(0%,0%,0%);fill-opacity:1;" d="M -3.960938 120 L -3.960938 100 L 16.039062 100 L 16.039062 120 Z M -3.960938 120 "/>
<path style=" stroke:none;fill-rule:nonzero;fill:rgb(0%,0%,0%);fill-opacity:1;" d="M -3.960938 80 L -3.960938 60 L 16.039062 60 L 16.039062 80 Z M -3.960938 80 "/>
<path style=" stroke:none;fill-rule:nonzero;fill:rgb(0%,0%,0%);fill-opacity:1;" d="M -3.960938 40 L -3.960938 20 L 16.039062 20 L 16.039062 40 Z M -3.960938 40 "/>
<path style=" stroke:none;fill-rule:nonzero;fill:rgb(0%,0%,0%);fill-opacity:1;" d="M 32.039062 200 L 32.039062 180 L 52.039062 180 L 52.039062 200 Z M 32.039062 200 "/>
<path style=" stroke:none;fill-rule:nonzero;fill:rgb(0%,0%,0%);fill-opacity:1;" d="M 32.039062 160 L 32.039062 140 L 52.039062 140 L 52.039062 160 Z M 32.039062 160 "/>
<path style=" stroke:none;fill-rule:nonzero;fill:rgb(0%,0%,0%);fill-opacity:1;" d="M 32.039062 120 L 32.039062 100 L 52.039062 100 L 52.039062 120 Z M 32.039062 120 "/>
<path style=" stroke:none;fill-rule:nonzero;fill:rgb(0%,0%,0%);fill-opacity:1;" d="M 32.039062 80 L 32.039062 60 L 52.039062 60 L 52.039062 80 Z M 32.039062 80 "/>
<path style=" stroke:none;fill-rule:nonzero;fill:rgb(0%,0%,0%);fill-opacity:1;" d="M 32.039062 40 L 32.039062 20 L 52.039062 20 L 52.039062 40 Z M 32.039062 40 "/>
<path style=" stroke:none;fill-rule:nonzero;fill:rgb(0%,0%,0%);fill-opacity:1;" d="M 68.039062 200 L 68.039062 180 L 88.039062 180 L 88.039062 200 Z M 68.039062 200 "/>
<path style=" stroke:none;fill-rule:nonzero;fill:rgb(0%,0%,0%);fill-opacity:1;" d="M 68.039062 160 L 68.039062 140 L 88.039062 140 L 88.039062 160 Z M 68.039062 160 "/>
<path style=" stroke:none;fill-rule:nonzero;fill:rgb(0%,0%,0%);fill-opacity:1;" d="M 68.039062 120 L 68.039062 100 L 88.039062 100 L 88.039062 120 Z M 68.039062 120 "/>
<path style=" stroke:none;fill-rule:nonzero;fill:rgb(0%,0%,0%);fill-opacity:1;" d="M 68.039062 80 L 68.039062 60 L 88.039062 60 L 88.039062 80 Z M 68.039062 80 "/>
<path style=" stroke:none;fill-rule:nonzero;fill:rgb(0%,0%,0%);fill-opacity:1;" d="M 68.039062 40 L 68.039062 20 L 88.039062 20 L 88.039062 40 Z M 68.039062 40 "/>
<path style=" stroke:none;fill-rule:nonzero;fill:rgb(0%,0%,0%);fill-opacity:1;" d="M 104.039062 200 L 104.039062 180 L 124.039062 180 L 124.039062 200 Z M 104.039062 200 "/>
<path style=" stroke:none;fill-rule:nonzero;fill:rgb(0%,0%,0%);fill-opacity:1;" d="M 104.039062 160 L 104.039062 140 L 124.039062 140 L 124.039062 160 Z M 104.039062 160 "/>
<path style=" stroke:none;fill-rule:nonzero;fill:rgb(0%,0%,0%);fill-opacity:1;" d="M 104.039062 120 L 104.039062 100 L 124.039062 100 L 124.039062 120 Z M 104.039062 120 "/>
<path style=" stroke:none;fill-rule:nonzero;fill:rgb(0%,0%,0%);fill-opacity:1;" d="M 104.039062 80 L 104.039062 60 L 124.039062 60 L 124.039062 80 Z M 104.039062 80 "/>
<path style=" stroke:none;fill-rule:nonzero;fill:rgb(0%,0%,0%);fill-opacity:1;" d="M 104.039062 40 L 104.039062 20 L 124.039062 20 L 124.039062 40 Z M 104.039062 40 "/>
<path style=" stroke:none;fill-rule:nonzero;fill:rgb(0%,0%,0%);fill-opacity:1;" d="M 140.039062 200 L 140.039062 180 L 160.039062 180 L 160.039062 200 Z M 140.039062 200 "/>
<path style=" stroke:none;fill-rule:nonzero;fill:rgb(0%,0%,0%);fill-opacity:1;" d="M 140.039062 160 L 140.039062 140 L 160.039062 140 L 160.039062 160 Z M 140.039062 160 "/>
<path style=" stroke:none;fill-rule:nonzero;fill:rgb(0%,0%,0%);fill-opacity:1;" d="M 140.039062 120 L 140.039062 100 L 160.039062 100 L 160.039062 120 Z M 140.039062 120 "/>
<path style=" stroke:none;fill-rule:nonzero;fill:rgb(0%,0%,0%);fill-opacity:1;" d="M 140.039062 80 L 140.039062 60 L 160.039062 60 L 160.039062 80 Z M 140.039062 80 "/>
<path style=" stroke:none;fill-rule:nonzero;fill:rgb(0%,0%,0%);fill-opacity:1;" d="M 140.039062 40 L 140.039062 20 L 160.039062 20 L 160.039062 40 Z M 140.039062 40 "/>
<path style=" stroke:none;fill-rule:nonzero;fill:rgb(0%,0%,0%);fill-opacity:1;" d="M 176.039062 200 L 176.039062 180 L 196.039062 180 L 196.039062 200 Z M 176.039062 200 "/>
<path style=" stroke:none;fill-rule:nonzero;fill:rgb(0%,0%,0%);fill-opacity:1;" d="M 176.039062 160 L 176.039062 140 L 196.039062 140 L 196.039062 160 Z M 176.039062 160 "/>
<path style=" stroke:none;fill-rule:nonzero;fill:rgb(0%,0%,0%);fill-opacity:1;" d="M 176.039062 120 L 176.039062 100 L 196.039062 100 L 196.039062 120 Z M 176.039062 120 "/>
<path style=" stroke:none;fill-rule:nonzero;fill:rgb(0%,0%,0%);fill-opacity:1;" d="M 176.039062 80 L 176.039062 60 L 196.039062 60 L 196.039062 80 Z M 176.039062 80 "/>
<path style=" stroke:none;fill-rule:nonzero;fill:rgb(0%,0%,0%);fill-opacity:1;" d="M 176.039062 40 L 176.039062 20 L 196.039062 20 L 196.039062 40 Z M 176.039062 40 "/>
<path style=" stroke:none;fill-rule:nonzero;fill:rgb(0%,0%,0%);fill-opacity:1;" d="M 212.039062 200 L 212.039062 180 L 232.039062 180 L 232.039062 200 Z M 212.039062 200 "/>
<path style=" stroke:none;fill-rule:nonzero;fill:rgb(0%,0%,0%);fill-opacity:1;" d="M 212.039062 160 L 212.039062 140 L 232.039062 140 L 232.039062 160 Z M 212.039062 160 "/>
<path style=" stroke:none;fill-rule:nonzero;fill:rgb(0%,0%,0%);fill-opacity:1;" d="M 212.039062 120 L 212.039062 100 L 232.039062 100 L 232.039062 120 Z M 212.039062 120 "/>
<path style=" stroke:none;fill-rule:nonzero;fill:rgb(0%,0%,0%);fill-opacity:1;" d="M 212.039062 80 L 212.039062 60 L 232.039062 60 L 232.039062 80 Z M 212.039062 80 "/>
<path style=" stroke:none;fill-rule:nonzero;fill:rgb(0%,0%,0%);fill-opacity:1;" d="M 212.039062 40 L 212.039062 20 L 232.039062 20 L 232.039062 40 Z M 212.039062 40 "/>
<path style=" stroke:none;fill-rule:nonzero;fill:rgb(0%,0%,0%);fill-opacity:1;" d="M 248.039062 200 L 248.039062 180 L 268.039062 180 L 268.039062 200 Z M 248.039062 200 "/>
<path style=" stroke:none;fill-rule:nonzero;fill:rgb(0%,0%,0%);fill-opacity:1;" d="M 248.039062 160 L 248.039062 140 L 268.039062 140 L 268.039062 160 Z M 248.039062 160 "/>
<path style=" stroke:none;fill-rule:nonzero;fill:rgb(0%,0%,0%);fill-opacity:1;" d="M 248.039062 120 L 248.039062 100 L 268.039062 100 L 268.039062 120 Z M 248.039062 120 "/>
<path style=" stroke:none;fill-rule:nonzero;fill:rgb(0%,0%,0%);fill-opacity:1;" d="M 248.039062 80 L 248.039062 60 L 268.039062 60 L 268.039062 80 Z M 248.039062 80 "/>
<path style=" stroke:none;fill-rule:nonzero;fill:rgb(0%,0%,0%);fill-opacity:1;" d="M 248.039062 40 L 248.039062 20 L 268.039062 20 L 268.039062 40 Z M 248.039062 40 "/>
<path style=" stroke:none;fill-rule:nonzero;fill:rgb(0%,0%,0%);fill-opacity:1;" d="M 284.039062 200 L 284.039062 180 L 304.039062 180 L 304.039062 200 Z M 284.039062 200 "/>
<path style=" stroke:none;fill-rule:nonzero;fill:rgb(0%,0%,0%);fill-opacity:1;" d="M 284.039062 160 L 284.039062 140 L 304.039062 140 L 304.039062 160 Z M 284.039062 160 "/>
<path style=" stroke:none;fill-rule:nonzero;fill:rgb(0%,0%,0%);fill-opacity:1;" d="M 284.039062 120 L 284.039062 100 L 304.039062 100 L 304.039062 120 Z M 284.039062 120 "/>
<path style=" stroke:none;fill-rule:nonzero;fill:rgb(0%,0%,0%);fill-opacity:1;" d="M 284.039062 80 L 284.039062 60 L 304.039062 60 L 304.039062 80 Z M 284.039062 80 "/>
<path style=" stroke:none;fill-rule:nonzero;fill:rgb(0%,0%,0%);fill-opacity:1;" d="M 284.039062 40 L 284.039062 20 L 304.039062 20 L 304.039062 40 Z M 284.039062 40 "/>
<path style=" stroke:none;fill-rule:nonzero;fill:rgb(0%,0%,0%);fill-opacity:1;" d="M 320.039062 200 L 320.039062 180 L 340.039062 180 L 340.039062 200 Z M 320.039062 200 "/>
<path style=" stroke:none;fill-rule:nonzero;fill:rgb(0%,0%,0%);fill-opacity:1;" d="M 320.039062 160 L 320.039062 140 L 340.039062 140 L 340.039062 160 Z M 320.039062 160 "/>
<path style=" stroke:none;fill-rule:nonzero;fill:rgb(0%,0%,0%);fill-opacity:1;" d="M 320.039062 120 L 320.039062 100 L 340.039062 100 L 340.039062 120 Z M 320.039062 120 "/>
<path style=" stroke:none;fill-rule:nonzero;fill:rgb(0%,0%,0%);fill-opacity:1;" d="M 320.039062 80 L 320.039062 60 L 340.039062 60 L 340.039062 80 Z M 320.039062 80 "/>
<path style=" stroke:none;fill-rule:nonzero;fill:rgb(0%,0%,0%);fill-opacity:1;" d="M 320.039062 40 L 320.039062 20 L 340.039062 20 L 340.039062 40 Z M 320.039062 40 "/>
<path style=" stroke:none;fill-rule:nonzero;fill:rgb(0%,0%,0%);fill-opacity:1;" d="M 356.039062 200 L 356.039062 180 L 376.039062 180 L 376.039062 200 Z M 356.039062 200 "/>
<path style=" stroke:none;fill-rule:nonzero;fill:rgb(0%,0%,0%);fill-opacity:1;" d="M 356.039062 160 L 356.039062 140 L 376.039062 140 L 376.039062 160 Z M 356.039062 160 "/>
<path style=" stroke:none;fill-rule:nonzero;fill:rgb(0%,0%,0%);fill-opacity:1;" d="M 356.039062 120 L 356.039062 100 L 376.039062 100 L 376.039062 120 Z M 356.039062 120 "/>
<path style=" stroke:none;fill-rule:nonzero;fill:rgb(0%,0%,0%);fill-opacity:1;" d="M 356.039062 80 L 356.039062 60 L 376.039062 60 L 376.039062 80 Z M 356.039062 80 "/>
<path style=" stroke:none;fill-rule:nonzero;fill:rgb(0%,0%,0%);fill-opacity:1;" d="M 356.039062 40 L 356.039062 20 L 376.039062 20 L 376.039062 40 Z M 356.039062 40 "/>
<path style="fill:none;stroke-width:1;stroke-linecap:square;stroke-linejoin:miter;stroke:rgb(100%,0%,0%);stroke-opacity:1;stroke-miterlimit:3.25;" d="M 0 220 L 400 220 "/>
<path style="fill:none;stroke-width:1;stroke-linecap:square;stroke-linejoin:miter;stroke:rgb(100%,0%,0%);stroke-opacity:1;stroke-miterlimit:3.25;" d="M 0 200 L 400 200 "/>
<path style="fill:none;stroke-width:1;stroke-linecap:square;stroke-linejoin:miter;stroke:rgb(100%,0%,0%);stroke-opacity:1;stroke-miterlimit:3.25;" d="M 0 180 L 400 180 "/>
<path style="fill:none;stroke-width:1;stroke-linecap:square;stroke-linejoin:miter;stroke:rgb(100%,0%,0%);stroke-opacity:1;stroke-miterlimit:3.25;" d="M 0 160 L 400 160 "/>
<path style="fill:none;stroke-width:1;stroke-linecap:square;stroke-linejoin:miter;stroke:rgb(100%,0%,0%);stroke-opacity:1;stroke-miterlimit:3.25;" d="M 0 140 L 400 140 "/>
<path style="fill:none;stroke-width:1;stroke-linecap:square;stroke-linejoin:miter;stroke:rgb(100%,0%,0%);stroke-opacity:1;stroke-miterlimit:3.25;" d="M 0 120 L 400 120 "/>
<path style="fill:none;stroke-width:1;stroke-linecap:square;stroke-linejoin:miter;stroke:rgb(100%,0%,0%);stroke-opacity:1;stroke-miterlimit:3.25;" d="M 0 100 L 400 100 "/>
<path style="fill:none;stroke-width:1;stroke-linecap:square;stroke-linejoin:miter;stroke:rgb(100%,0%,0%);stroke-opacity:1;stroke-miterlimit:3.25;" d="M 0 80 L 400 80 "/>
<path style="fill:none;stroke-width:1;stroke-linecap:square;stroke-linejoin:miter;stroke:rgb(100%,0%,0%);stroke-opacity:1;stroke-miterlimit:3.25;" d="M 0 60 L 400 60 "/>
<path style="fill:none;stroke-width:1;stroke-linecap:square;stroke-linejoin:miter;stroke:rgb(100%,0%,0%);stroke-opacity:1;stroke-miterlimit:3.25;" d="M 0 40 L 400 40 "/>
<path style="fill:none;stroke-width:1;stroke-linecap:square;stroke-linejoin:miter;stroke:rgb(100%,0%,0%);stroke-opacity:1;stroke-miterlimit:3.25;" d="M 0 20 L 400 20 "/>
</g>
</svg>
