<?xml version="1.0" encoding="UTF-8"?>
<svg xmlns="http://www.w3.org/2000/svg" xmlns:xlink="http://www.w3.org/1999/xlink" width="400pt" height="220pt" viewBox="0 0 400 220" version="1.1">
<g id="surface801">
<rect x="0" y="0" width="400" height="220" style="fill:rgb(0%,40%,100%);fill-opacity:0.2;stroke:none;"/>
<path style=" stroke:none;fill-rule:nonzero;fill:rgb(0%,0%,0%);fill-opacity:1;" d="M -12.75 220 L -12.75 200 L 7.25 200 L 7.25 220 Z M -12.75 220 "/>
<path style=" stroke:none;fill-rule:nonzero;fill:rgb(0%,0%,0%);fill-opacity:1;" d="M -12.75 180 L -12.75 160 L 7.25 160 L 7.25 180 Z M -12.75 180 "/>
<path style=" stroke:none;fill-rule:nonzero;fill:rgb(0%,0%,0%);fill-opacity:1;" d="M -12.75 140 L -12.75 120 L 7.25 120 L 7.25 140 Z M -12.75 140 "/>
<path style=" stroke:none;fill-rule:nonzero;fill:rgb(0%,0%,0%);fill-opacity:1;" d="M -12.75 100 L -12.75 80 L 7.25 80 L 7.25 100 Z M -12.75 100 "/>
<path style=" stroke:none;fill-rule:nonzero;fill:rgb(0%,0%,0%);fill-opacity:1;" d="M -12.75 60 L -12.75 40 L 7.25 40 L 7.25 60 Z M -12.75 60 "/>
<path style=" stroke:none;fill-rule:nonzero;fill:rgb(0%,0%,0%);fill-opacity:1;" d="M -12.75 20 L -12.75 0 L 7.25 0 L 7.25 20 Z M -12.75 20 "/>
<path style=" stroke:none;fill-rule:nonzero;fill:rgb(0%,0%,0%);fill-opacity:1;" d="M 23.25 220 L 23.25 200 L 43.25 200 L 43.25 220 Z M 23.25 220 "/>
<path style=" stroke:none;fill-rule:nonzero;fill:rgb(0%,0%,0%);fill-opacity:1;" d="M 23.25 180 L 23.25 160 L 43.25 160 L 43.25 180 Z M 23.25 180 "/>
<path style=" stroke:none;fill-rule:nonzero;fill:rgb(0%,0%,0%);fill-opacity:1;" d="M 23.25 140 L 23.25 120 L 43.25 120 L 43.25 140 Z M 23.25 140 "/>
<path style=" stroke:none;fill-rule:nonzero;fill:rgb(0%,0%,0%);fill-opacity:1;" d="M 23.25 100 L 23.25 80 L 43.25 80 L 43.25 100 Z M 23.25 100 "/>
<path style=" stroke:none;fill-rule:nonzero;fill:rgb(0%,0%,0%);fill-opacity:1;" d="M 23.25 60 L 23.25 40 L 43.25 40 L 43.25 60 Z M 23.25 60 "/>
<path style=" stroke:none;fill-rule:nonzero;fill:rgb(0%,0%,0%);fill-opacity:1;" d="M 23.25 20 L 23.25 0 L 43.25 0 L 43.25 20 Z M 23.25 20 "/>
<path style=" stroke:none;fill-rule:nonzero;fill:rgb(0%,0%,0%);fill-opacity:1;" d="M 59.25 220 L 59.25 200 L 79.25 200 L 79.25 220 Z M 59.25 220 "/>
<path style=" stroke:none;fill-rule:nonzero;fill:rgb(0%,0%,0%);fill-opacity:1;" d="M 59.25 180 L 59.25 160 L 79.25 160 L 79.25 180 Z M 59.25 180 "/>
<path style=" stroke:none;fill-rule:nonzero;fill:rgb(0%,0%,0%);fill-opacity:1;" d="M 59.25 140 L 59.25 120 L 79.25 120 L 79.25 140 Z M 59.25 140 "/>
<path style=" stroke:none;fill-rule:nonzero;fill:rgb(0%,0%,0%);fill-opacity:1;" d="M 59.25 100 L 59.25 80 L 79.25 80 L 79.25 100 Z M 59.25 100 "/>
<path style=" stroke:none;fill-rule:nonzero;fill:rgb(0%,0%,0%);fill-opacity:1;" d="M 59.25 60 L 59.25 40 L 79.25 40 L 79.25 60 Z M 59.25 60 "/>
<path style=" stroke:none;fill-rule:nonzero;fill:rgb(0%,0%,0%);fill-opacity:1;" d="M 59.25 20 L 59.25 0 L 79.25 0 L 79.25 20 Z M 59.25 20 "/>
<path style=" stroke:none;fill-rule:nonzero;fill:rgb(0%,0%,0%);fill-opacity:1;" d="M 95.25 220 L 95.25 200 L 115.25 200 L 115.25 220 Z M 95.25 220 "/>
<path style=" stroke:none;fill-rule:nonzero;fill:rgb(0%,0%,0%);fill-opacity:1;" d="M 95.25 180 L 95.25 160 L 115.25 160 L 115.25 180 Z M 95.25 180 "/>
<path style=" stroke:none;fill-rule:nonzero;fill:rgb(0%,0%,0%);fill-opacity:1;" d="M 95.25 140 L 95.25 120 L 115.25 120 L 115.25 140 Z M 95.25 140 "/>
<path style=" stroke:none;fill-rule:nonzero;fill:rgb(0%,0%,0%);fill-opacity:1;" d="M 95.25 100 L 95.25 80 L 115.25 80 L 115.25 100 Z M 95.25 100 "/>
<path style=" stroke:none;fill-rule:nonzero;fill:rgb(0%,0%,0%);fill-opacity:1;" d="M 95.25 60 L 95.25 40 L 115.25 40 L 115.25 60 Z M 95.25 60 "/>
<path style=" stroke:none;fill-rule:nonzero;fill:rgb(0%,0%,0%);fill-opacity:1;" d="M 95.25 20 L 95.25 0 L 115.25 0 L 115.25 20 Z M 95.25 20 "/>
<path style=" stroke:none;fill-rule:nonzero;fill:rgb(0%,0%,0%);fill-opacity:1;" d="M 131.25 220 L 131.25 200 L 151.25 200 L 151.25 220 Z M 131.25 220 "/>
<path style=" stroke:none;fill-rule:nonzero;fill:rgb(0%,0%,0%);fill-opacity:1;" d="M 131.25 180 L 131.25 160 L 151.25 160 L 151.25 180 Z M 131.25 180 "/>
<path style=" stroke:none;fill-rule:nonzero;fill:rgb(0%,0%,0%);fill-opacity:1;" d="M 131.25 140 L 131.25 120 L 151.25 120 L 151.25 140 Z M 131.25 140 "/>
<path style=" stroke:none;fill-rule:nonzero;fill:rgb(0%,0%,0%);fill-opacity:1;" d="M 131.25 100 L 131.25 80 L 151.25 80 L 151.25 100 Z M 131.25 100 "/>
<path style=" stroke:none;fill-rule:nonzero;fill:rgb(0%,0%,0%);fill-opacity:1;" d="M 131.25 60 L 131.25 40 L 151.25 40 L 151.25 60 Z M 131.25 60 "/>
<path style=" stroke:none;fill-rule:nonzero;fill:rgb(0%,0%,0%);fill-opacity:1;" d="M 131.25 20 L 131.25 0 L 151.25 0 L 151.25 20 Z M 131.25 20 "/>
<path style=" stroke:none;fill-rule:nonzero;fill:rgb(0%,0%,0%);fill-opacity:1;" d="M 167.25 220 L 167.25 200 L 187.25 200 L 187.25 220 Z M 167.25 220 "/>
<path style=" stroke:none;fill-rule:nonzero;fill:rgb(0%,0%,0%);fill-opacity:1;" d="M 167.25 180 L 167.25 160 L 187.25 160 L 187.25 180 Z M 167.25 180 "/>
<path style=" stroke:none;fill-rule:nonzero;fill:rgb(0%,0%,0%);fill-opacity:1;" d="M 167.25 140 L 167.25 120 L 187.25 120 L 187.25 140 Z M 167.25 140 "/>
<path style=" stroke:none;fill-rule:nonzero;fill:rgb(0%,0%,0%);fill-opacity:1;" d="M 167.25 100 L 167.25 80 L 187.25 80 L 187.25 100 Z M 167.25 100 "/>
<path style=" stroke:none;fill-rule:nonzero;fill:rgb(0%,0%,0%);fill-opacity:1;" d="M 167.25 60 L 167.25 40 L 187.25 40 L 187.25 60 Z M 167.25 60 "/>
<path style=" stroke:none;fill-rule:nonzero;fill:rgb(0%,0%,0%);fill-opacity:1;" d="M 167.25 20 L 167.25 0 L 187.25 0 L 187.25 20 Z M 167.25 20 "/>
<path style=" stroke:none;fill-rule:nonzero;fill:rgb(0%,0%,0%);fill-opacity:1;" d="M 203.25 220 L 203.25 200 L 223.25 200 L 223.25 220 Z M 203.25 220 "/>
<path style=" stroke:none;fill-rule:nonzero;fill:rgb(0%,0%,0%);fill-opacity:1;" d="M 203.25 180 L 203.25 160 L 223.25 160 L 223.25 180 Z M 203.25 180 "/>
<path style=" stroke:none;fill-rule:nonzero;fill:rgb(0%,0%,0%);fill-opacity:1;" d="M 203.25 140 L 203.25 120 L 223.25 120 L 223.25 140 Z M 203.25 140 "/>
<path style=" stroke:none;fill-rule:nonzero;fill:rgb(0%,0%,0%);fill-opacity:1;" d="M 203.25 100 L 203.25 80 L 223.25 80 L 223.25 100 Z M 203.25 100 "/>
<path style=" stroke:none;fill-rule:nonzero;fill:rgb(0%,0%,0%);fill-opacity:1;" d="M 203.25 60 L 203.25 40 L 223.25 40 L 223.25 60 Z M 203.25 60 "/>
<path style=" stroke:none;fill-rule:nonzero;fill:rgb(0%,0%,0%);fill-opacity:1;" d="M 203.25 20 L 203.25 0 L 223.25 0 L 223.25 20 Z M 203.25 20 "/>
<path style=" stroke:none;fill-rule:nonzero;fill:rgb(0%,0%,0%);fill-opacity:1;" d="M 239.25 220 L 239.25 200 L 259.25 200 L 259.25 220 Z M 239.25 220 "/>
<path style=" stroke:none;fill-rule:nonzero;fill:rgb(0%,0%,0%);fill-opacity:1;" d="M 239.25 180 L 239.25 160 L 259.25 160 L 259.25 180 Z M 239.25 180 "/>
<path style=" stroke:none;fill-rule:nonzero;fill:rgb(0%,0%,0%);fill-opacity:1;" d="M 239.25 140 L 239.25 120 L 259.25 120 L 259.25 140 Z M 239.25 140 "/>
<path style=" stroke:none;fill-rule:nonzero;fill:rgb(0%,0%,0%);fill-opacity:1;" d="M 239.25 100 L 239.25 80 L 259.25 80 L 259.25 100 Z M 239.25 100 "/>
<path style=" stroke:none;fill-rule:nonzero;fill:rgb(0%,0%,0%);fill-opacity:1;" d="M 239.25 60 L 239.25 40 L 259.25 40 L 259.25 60 Z M 239.25 60 "/>
<path style=" stroke:none;fill-rule:nonzero;fill:rgb(0%,0%,0%);fill-opacity:1;" d="M 239.25 20 L 239.25 0 L 259.25 0 L 259.25 20 Z M 239.25 20 "/>
<path style=" stroke:none;fill-rule:nonzero;fill:rgb(0%,0%,0%);fill-opacity:1;" d="M 275.25 220 L 275.25 200 L 295.25 200 L 295.25 220 Z M 275.25 220 "/>
<path style=" stroke:none;fill-rule:nonzero;fill:rgb(0%,0%,0%);fill-opacity:1;" d="M 275.25 180 L 275.25 160 L 295.25 160 L 295.25 180 Z M 275.25 180 "/>
<path style=" stroke:none;fill-rule:nonzero;fill:rgb(0%,0%,0%);fill-opacity:1;" d="M 275.25 140 L 275.25 120 L 295.25 120 L 295.25 140 Z M 275.25 140 "/>
<path style=" stroke:none;fill-rule:nonzero;fill:rgb(0%,0%,0%);fill-opacity:1;" d="M 275.25 100 L 275.25 80 L 295.25 80 L 295.25 100 Z M 275.25 100 "/>
<path style=" stroke:none;fill-rule:nonzero;fill:rgb(0%,0%,0%);fill-opacity:1;" d="M 275.25 60 L 275.25 40 L 295.25 40 L 295.25 60 Z M 275.25 60 "/>
<path style=" stroke:none;fill-rule:nonzero;fill:rgb(0%,0%,0%);fill-opacity:1;" d="M 275.25 20 L 275.25 0 L 295.25 0 L 295.25 20 Z M 275.25 20 "/>
<path style=" stroke:none;fill-rule:nonzero;fill:rgb(0%,0%,0%);fill-opacity:1;" d="M 311.25 220 L 311.25 200 L 331.25 200 L 331.25 220 Z M 311.25 220 "/>
<path style=" stroke:none;fill-rule:nonzero;fill:rgb(0%,0%,0%);fill-opacity:1;" d="M 311.25 180 L 311.25 160 L 331.25 160 L 331.25 180 Z M 311.25 180 "/>
<path style=" stroke:none;fill-rule:nonzero;fill:rgb(0%,0%,0%);fill-opacity:1;" d="M 311.25 140 L 311.25 120 L 331.25 120 L 331.25 140 Z M 311.25 140 "/>
<path style=" stroke:none;fill-rule:nonzero;fill:rgb(0%,0%,0%);fill-opacity:1;" d="M 311.25 100 L 311.25 80 L 331.25 80 L 331.25 100 Z M 311.25 100 "/>
<path style=" stroke:none;fill-rule:nonzero;fill:rgb(0%,0%,0%);fill-opacity:1;" d="M 311.25 60 L 311.25 40 L 331.25 40 L 331.25 60 Z M 311.25 60 "/>
<path style=" stroke:none;fill-rule:nonzero;fill:rgb(0%,0%,0%);fill-opacity:1;" d="M 311.25 20 L 311.25 0 L 331.25 0 L 331.25 20 Z M 311.25 20 "/>
<path style=" stroke:none;fill-rule:nonzero;fill:rgb(0%,0%,0%);fill-opacity:1;" d="M 347.25 220 L 347.25 200 L 367.25 200 L 367.25 220 Z M 347.25 220 "/>
<path style=" stroke:none;fill-rule:nonzero;fill:rgb(0%,0%,0%);fill-opacity:1;" d="M 347.25 180 L 347.25 160 L 367.25 160 L 367.25 180 Z M 347.25 180 "/>
<path style=" stroke:none;fill-rule:nonzero;fill:rgb(0%,0%,0%);fill-opacity:1;" d="M 347.25 140 L 347.25 120 L 367.25 120 L 367.25 140 Z M 347.25 140 "/>
<path style=" stroke:none;fill-rule:nonzero;fill:rgb(0%,0%,0%);fill-opacity:1;" d="M 347.25 100 L 347.25 80 L 367.25 80 L 367.25 100 Z M 347.25 100 "/>
<path style=" stroke:none;fill-rule:nonzero;fill:rgb(0%,0%,0%);fill-opacity:1;" d="M 347.25 60 L 347.25 40 L 367.25 40 L 367.25 60 Z M 347.25 60 "/>
<path style=" stroke:none;fill-rule:nonzero;fill:rgb(0%,0%,0%);fill-opacity:1;" d="M 347.25 20 L 347.25 0 L 367.25 0 L 367.25 20 Z M 347.25 20 "/>
<path style=" stroke:none;fill-rule:nonzero;fill:rgb(0%,0%,0%);fill-opacity:1;" d="M 383.25 220 L 383.25 200 L 403.25 200 L 403.25 220 Z M 383.25 220 "/>
<path style=" stroke:none;fill-rule:nonzero;fill:rgb(0%,0%,0%);fill-opacity:1;" d="M 383.25 180 L 383.25 160 L 403.25 160 L 403.25 180 Z M 383.25 180 "/>
<path style=" stroke:none;fill-rule:nonzero;fill:rgb(0%,0%,0%);fill-opacity:1;" d="M 383.25 140 L 383.25 120 L 403.25 120 L 403.25 140 Z M 383.25 140 "/>
<path style=" stroke:none;fill-rule:nonzero;fill:rgb(0%,0%,0%);fill-opacity:1;" d="M 383.25 100 L 383.25 80 L 403.25 80 L 403.25 100 Z M 383.25 100 "/>
<path style=" stroke:none;fill-rule:nonzero;fill:rgb(0%,0%,0%);fill-opacity:1;" d="M 383.25 60 L 383.25 40 L 403.25 40 L 403.25 60 Z M 383.25 60 "/>
<path style=" stroke:none;fill-rule:nonzero;fill:rgb(0%,0%,0%);fill-opacity:1;" d="M 383.25 20 L 383.25 0 L 403.25 0 L 403.25 20 Z M 383.25 20 "/>
<path style=" stroke:none;fill-rule:nonzero;fill:rgb(0%,0%,0%);fill-opacity:1;" d="M -4.589844 200 L -4.589844 180 L 15.410156 180 L 15.410156 200 Z M -4.589844 200 "/>
<path style=" stroke:none;fill-rule:nonzero;fill:rgb(0%,0%,0%);fill-opacity:1;" d="M -4.589844 160 L -4.589844 140 L 15.410156 140 L 15.410156 160 Z M -4.589844 160 "/>
<path style=" stroke:none;fill-rule:nonzero;fill:rgb(0%,0%,0%);fill-opacity:1;" d="M -4.589844 120 L -4.589844 100 L 15.410156 100 L 15.410156 120 Z M -4.589844 120 "/>
<path style=" stroke:none;fill-rule:nonzero;fill:rgb(0%,0%,0%);fill-opacity:1;" d="M -4.589844 80 L -4.589844 60 L 15.410156 60 L 15.410156 80 Z M -4.589844 80 "/>
<path style=" stroke:none;fill-rule:nonzero;fill:rgb(0%,0%,0%);fill-opacity:1;" d="M -4.589844 40 L -4.589844 20 L 15.410156 20 L 15.410156 40 Z M -4.589844 40 "/>
<path style=" stroke:none;fill-rule:nonzero;fill:rgb(0%,0%,0%);fill-opacity:1;" d="M 31.410156 200 L 31.410156 180 L 51.410156 180 L 51.410156 200 Z M 31.410156 200 "/>
<path style=" stroke:none;fill-rule:nonzero;fill:rgb(0%,0%,0%);fill-opacity:1;" d="M 31.410156 160 L 31.410156 140 L 51.410156 140 L 51.410156 160 Z M 31.410156 160 "/>
<path style=" stroke:none;fill-rule:nonzero;fill:rgb(0%,0%,0%);fill-opacity:1;" d="M 31.410156 120 L 31.410156 100 L 51.410156 100 L 51.410156 120 Z M 31.410156 120 "/>
<path style=" stroke:none;fill-rule:nonzero;fill:rgb(0%,0%,0%);fill-opacity:1;" d="M 31.410156 80 L 31.410156 60 L 51.410156 60 L 51.410156 80 Z M 31.410156 80 "/>
<path style=" stroke:none;fill-rule:nonzero;fill:rgb(0%,0%,0%);fill-opacity:1;" d="M 31.410156 40 L 31.410156 20 L 51.410156 20 L 51.410156 40 Z M 31.410156 40 "/>
<path style=" stroke:none;fill-rule:nonzero;fill:rgb(0%,0%,0%);fill-opacity:1;" d="M 67.410156 200 L 67.410156 180 L 87.410156 180 L 87.410156 200 Z M 67.410156 200 "/>
<path style=" stroke:none;fill-rule:nonzero;fill:rgb(0%,0%,0%);fill-opacity:1;" d="M 67.410156 160 L 67.410156 140 L 87.410156 140 L 87.410156 160 Z M 67.410156 160 "/>
<path style=" stroke:none;fill-rule:nonzero;fill:rgb(0%,0%,0%);fill-opacity:1;" d="M 67.410156 120 L 67.410156 100 L 87.410156 100 L 87.410156 120 Z M 67.410156 120 "/>
<path style=" stroke:none;fill-rule:nonzero;fill:rgb(0%,0%,0%);fill-opacity:1;" d="M 67.410156 80 L 67.410156 60 L 87.410156 60 L 87.410156 80 Z M 67.410156 80 "/>
<path style=" stroke:none;fill-rule:nonzero;fill:rgb(0%,0%,0%);fill-opacity:1;" d="M 67.410156 40 L 67.410156 20 L 87.410156 20 L 87.410156 40 Z M 67.410156 40 "/>
<path style=" stroke:none;fill-rule:nonzero;fill:rgb(0%,0%,0%);fill-opacity:1;" d="M 103.410156 200 L 103.410156 180 L 123.410156 180 L 123.410156 200 Z M 103.410156 200 "/>
<path style=" stroke:none;fill-rule:nonzero;fill:rgb(0%,0%,0%);fill-opacity:1;" d="M 103.410156 160 L 103.410156 140 L 123.410156 140 L 123.410156 160 Z M 103.410156 160 "/>
<path style=" stroke:none;fill-rule:nonzero;fill:rgb(0%,0%,0%);fill-opacity:1;" d="M 103.410156 120 L 103.410156 100 L 123.410156 100 L 123.410156 120 Z M 103.410156 120 "/>
<path style=" stroke:none;fill-rule:nonzero;fill:rgb(0%,0%,0%);fill-opacity:1;" d="M 103.410156 80 L 103.410156 60 L 123.410156 60 L 123.410156 80 Z M 103.410156 80 "/>
<path style=" stroke:none;fill-rule:nonzero;fill:rgb(0%,0%,0%);fill-opacity:1;" d="M 103.410156 40 L 103.410156 20 L 123.410156 20 L 123.410156 40 Z M 103.410156 40 "/>
<path style=" stroke:none;fill-rule:nonzero;fill:rgb(0%,0%,0%);fill-opacity:1;" d="M 139.410156 200 L 139.410156 180 L 159.410156 180 L 159.410156 200 Z M 139.410156 200 "/>
<path style=" stroke:none;fill-rule:nonzero;fill:rgb(0%,0%,0%);fill-opacity:1;" d="M 139.410156 160 L 139.410156 140 L 159.410156 140 L 159.410156 160 Z M 139.410156 160 "/>
<path style=" stroke:none;fill-rule:nonzero;fill:rgb(0%,0%,0%);fill-opacity:1;" d="M 139.410156 120 L 139.410156 100 L 159.410156 100 L 159.410156 120 Z M 139.410156 120 "/>
<path style=" stroke:none;fill-rule:nonzero;fill:rgb(0%,0%,0%);fill-opacity:1;" d="M 139.410156 80 L 139.410156 60 L 159.410156 60 L 159.410156 80 Z M 139.410156 80 "/>
<path style=" stroke:none;fill-rule:nonzero;fill:rgb(0%,0%,0%);fill-opacity:1;" d="M 139.410156 40 L 139.410156 20 L 159.410156 20 L 159.410156 40 Z M 139.410156 40 "/>
<path style=" stroke:none;fill-rule:nonzero;fill:rgb(0%,0%,0%);fill-opacity:1;" d="M 175.410156 200 L 175.410156 180 L 195.410156 180 L 195.410156 200 Z M 175.410156 200 "/>
<path style=" stroke:none;fill-rule:nonzero;fill:rgb(0%,0%,0%);fill-opacity:1;" d="M 175.410156 160 L 175.410156 140 L 195.410156 140 L 195.410156 160 Z M 175.410156 160 "/>
<path style=" stroke:none;fill-rule:nonzero;fill:rgb(0%,0%,0%);fill-opacity:1;" d="M 175.410156 120 L 175.410156 100 L 195.410156 100 L 195.410156 120 Z M 175.410156 120 "/>
<path style=" stroke:none;fill-rule:nonzero;fill:rgb(0%,0%,0%);fill-opacity:1;" d="M 175.410156 80 L 175.410156 60 L 195.410156 60 L 195.410156 80 Z M 175.410156 80 "/>
<path style=" stroke:none;fill-rule:nonzero;fill:rgb(0%,0%,0%);fill-opacity:1;" d="M 175.410156 40 L 175.410156 20 L 195.410156 20 L 195.410156 40 Z M 175.410156 40 "/>
<path style=" stroke:none;fill-rule:nonzero;fill:rgb(0%,0%,0%);fill-opacity:1;" d="M 211.410156 200 L 211.410156 180 L 231.410156 180 L 231.410156 200 Z M 211.410156 200 "/>
<path style=" stroke:none;fill-rule:nonzero;fill:rgb(0%,0%,0%);fill-opacity:1;" d="M 211.410156 160 L 211.410156 140 L 231.410156 140 L 231.410156 160 Z M 211.410156 160 "/>
<path style=" stroke:none;fill-rule:nonzero;fill:rgb(0%,0%,0%);fill-opacity:1;" d="M 211.410156 120 L 211.410156 100 L 231.410156 100 L 231.410156 120 Z M 211.410156 120 "/>
<path style=" stroke:none;fill-rule:nonzero;fill:rgb(0%,0%,0%);fill-opacity:1;" d="M 211.410156 80 L 211.410156 60 L 231.410156 60 L 231.410156 80 Z M 211.410156 80 "/>
<path style=" stroke:none;fill-rule:nonzero;fill:rgb(0%,0%,0%);fill-opacity:1;" d="M 211.410156 40 L 211.410156 20 L 231.410156 20 L 231.410156 40 Z M 211.410156 40 "/>
<path style=" stroke:none;fill-rule:nonzero;fill:rgb(0%,0%,0%);fill-opacity:1;" d="M 247.410156 200 L 247.410156 180 L 267.410156 180 L 267.410156 200 Z M 247.410156 200 "/>
<path style=" stroke:none;fill-rule:nonzero;fill:rgb(0%,0%,0%);fill-opacity:1;" d="M 247.410156 160 L 247.410156 140 L 267.410156 140 L 267.410156 160 Z M 247.410156 160 "/>
<path style=" stroke:none;fill-rule:nonzero;fill:rgb(0%,0%,0%);fill-opacity:1;" d="M 247.410156 120 L 247.410156 100 L 267.410156 100 L 267.410156 120 Z M 247.410156 120 "/>
<path style=" stroke:none;fill-rule:nonzero;fill:rgb(0%,0%,0%);fill-opacity:1;" d="M 247.410156 80 L 247.410156 60 L 267.410156 60 L 267.410156 80 Z M 247.410156 80 "/>
<path style=" stroke:none;fill-rule:nonzero;fill:rgb(0%,0%,0%);fill-opacity:1;" d="M 247.410156 40 L 247.410156 20 L 267.410156 20 L 267.410156 40 Z M 247.410156 40 "/>
<path style=" stroke:none;fill-rule:nonzero;fill:rgb(0%,0%,0%);fill-opacity:1;" d="M 283.410156 200 L 283.410156 180 L 303.410156 180 L 303.410156 200 Z M 283.410156 200 "/>
<path style=" stroke:none;fill-rule:nonzero;fill:rgb(0%,0%,0%);fill-opacity:1;" d="M 283.410156 160 L 283.410156 140 L 303.410156 140 L 303.410156 160 Z M 283.410156 160 "/>
<path style=" stroke:none;fill-rule:nonzero;fill:rgb(0%,0%,0%);fill-opacity:1;" d="M 283.410156 120 L 283.410156 100 L 303.410156 100 L 303.410156 120 Z M 283.410156 120 "/>
<path style=" stroke:none;fill-rule:nonzero;fill:rgb(0%,0%,0%);fill-opacity:1;" d="M 283.410156 80 L 283.410156 60 L 303.410156 60 L 303.410156 80 Z M 283.410156 80 "/>
<path style=" stroke:none;fill-rule:nonzero;fill:rgb(0%,0%,0%);fill-opacity:1;" d="M 283.410156 40 L 283.410156 20 L 303.410156 20 L 303.410156 40 Z M 283.410156 40 "/>
<path style=" stroke:none;fill-rule:nonzero;fill:rgb(0%,0%,0%);fill-opacity:1;" d="M 319.410156 200 L 319.410156 180 L 339.410156 180 L 339.410156 200 Z M 319.410156 200 "/>
<path style=" stroke:none;fill-rule:nonzero;fill:rgb(0%,0%,0%);fill-opacity:1;" d="M 319.410156 160 L 319.410156 140 L 339.410156 140 L 339.410156 160 Z M 319.410156 160 "/>
<path style=" stroke:none;fill-rule:nonzero;fill:rgb(0%,0%,0%);fill-opacity:1;" d="M 319.410156 120 L 319.410156 100 L 339.410156 100 L 339.410156 120 Z M 319.410156 120 "/>
<path style=" stroke:none;fill-rule:nonzero;fill:rgb(0%,0%,0%);fill-opacity:1;" d="M 319.410156 80 L 319.410156 60 L 339.410156 60 L 339.410156 80 Z M 319.410156 80 "/>
<path style=" stroke:none;fill-rule:nonzero;fill:rgb(0%,0%,0%);fill-opacity:1;" d="M 319.410156 40 L 319.410156 20 L 339.410156 20 L 339.410156 40 Z M 319.410156 40 "/>
<path style=" stroke:none;fill-rule:nonzero;fill:rgb(0%,0%,0%);fill-opacity:1;" d="M 355.410156 200 L 355.410156 180 L 375.410156 180 L 375.410156 200 Z M 355.410156 200 "/>
<path style=" stroke:none;fill-rule:nonzero;fill:rgb(0%,0%,0%);fill-opacity:1;" d="M 355.410156 160 L 355.410156 140 L 375.410156 140 L 375.410156 160 Z M 355.410156 160 "/>
<path style=" stroke:none;fill-rule:nonzero;fill:rgb(0%,0%,0%);fill-opacity:1;" d="M 355.410156 120 L 355.410156 100 L 375.410156 100 L 375.410156 120 Z M 355.410156 120 "/>
<path style=" stroke:none;fill-rule:nonzero;fill:rgb(0%,0%,0%);fill-opacity:1;" d="M 355.410156 80 L 355.410156 60 L 375.410156 60 L 375.410156 80 Z M 355.410156 80 "/>
<path style=" stroke:none;fill-rule:nonzero;fill:rgb(0%,0%,0%);fill-opacity:1;" d="M 355.410156 40 L 355.410156 20 L 375.410156 20 L 375.410156 40 Z M 355.410156 40 "/>
<path style=" stroke:none;fill-rule:nonzero;fill:rgb(0%,0%,0%);fill-opacity:1;" d="M 391.410156 200 L 391.410156 180 L 411.410156 180 L 411.410156 200 Z M 391.410156 200 "/>
<path style=" stroke:none;fill-rule:nonzero;fill:rgb(0%,0%,0%);fill-opacity:1;" d="M 391.410156 160 L 391.410156 140 L 411.410156 140 L 411.410156 160 Z M 391.410156 160 "/>
<path style=" stroke:none;fill-rule:nonzero;fill:rgb(0%,0%,0%);fill-opacity:1;" d="M 391.410156 120 L 391.410156 100 L 411.410156 100 L 411.410156 120 Z M 391.410156 120 "/>
<path style=" stroke:none;fill-rule:nonzero;fill:rgb(0%,0%,0%);fill-opacity:1;" d="M 391.410156 80 L 391.410156 60 L 411.410156 60 L 411.410156 80 Z M 391.410156 80 "/>
<path style=" stroke:none;fill-rule:nonzero;fill:rgb(0%,0%,0%);fill-opacity:1;" d="M 391.410156 40 L 391.410156 20 L 411.410156 20 L 411.410156 40 Z M 391.410156 40 "/>
<path style="fill:none;stroke-width:1;stroke-linecap:square;stroke-linejoin:miter;stroke:rgb(100%,0%,0%);stroke-opacity:1;stroke-miterlimit:3.25;" d="M 0 220 L 400 220 "/>
<path style="fill:none;stroke-width:1;stroke-linecap:square;stroke-linejoin:miter;stroke:rgb(100%,0%,0%);stroke-opacity:1;stroke-miterlimit:3.25;" d="M 0 200 L 400 200 "/>
<path style="fill:none;stroke-width:1;stroke-linecap:square;stroke-linejoin:miter;stroke:rgb(100%,0%,0%);stroke-opacity:1;stroke-miterlimit:3.25;" d="M 0 180 L 400 180 "/>
<path style="fill:none;stroke-width:1;stroke-linecap:square;stroke-linejoin:miter;stroke:rgb(100%,0%,0%);stroke-opacity:1;stroke-miterlimit:3.25;" d="M 0 160 L 400 160 "/>
<path style="fill:none;stroke-width:1;stroke-linecap:square;stroke-linejoin:miter;stroke:rgb(100%,0%,0%);stroke-opacity:1;stroke-miterlimit:3.25;" d="M 0 140 L 400 140 "/>
<path style="fill:none;stroke-width:1;stroke-linecap:square;stroke-linejoin:miter;stroke:rgb(100%,0%,0%);stroke-opacity:1;stroke-miterlimit:3.25;" d="M 0 120 L 400 120 "/>
<path style="fill:none;stroke-width:1;stroke-linecap:square;stroke-linejoin:miter;stroke:rgb(100%,0%,0%);stroke-opacity:1;stroke-miterlimit:3.25;" d="M 0 100 L 400 100 "/>
<path style="fill:none;stroke-width:1;stroke-linecap:square;stroke-linejoin:miter;stroke:rgb(100%,0%,0%);stroke-opacity:1;stroke-miterlimit:3.25;" d="M 0 80 L 400 80 "/>
<path style="fill:none;stroke-width:1;stroke-linecap:square;stroke-linejoin:miter;stroke:rgb(100%,0%,0%);stroke-opacity:1;stroke-miterlimit:3.25;" d="M 0 60 L 400 60 "/>
<path style="fill:none;stroke-width:1;stroke-linecap:square;stroke-linejoin:miter;stroke:rgb(100%,0%,0%);stroke-opacity:1;stroke-miterlimit:3.25;" d="M 0 40 L 400 40 "/>
<path style="fill:none;stroke-width:1;stroke-linecap:square;stroke-linejoin:miter;stroke:rgb(100%,0%,0%);stroke-opacity:1;stroke-miterlimit:3.25;" d="M 0 20 L 400 20 "/>
</g>
</svg>
