<?xml version="1.0" encoding="UTF-8"?>
<svg xmlns="http://www.w3.org/2000/svg" xmlns:xlink="http://www.w3.org/1999/xlink" width="400pt" height="220pt" viewBox="0 0 400 220" version="1.1">
<g id="surface641">
<rect x="0" y="0" width="400" height="220" style="fill:rgb(0%,40%,100%);fill-opacity:0.2;stroke:none;"/>
<path style=" stroke:none;fill-rule:nonzero;fill:rgb(0%,0%,0%);fill-opacity:1;" d="M 19.371094 220 L 19.371094 200 L 39.371094 200 L 39.371094 220 Z M 19.371094 220 "/>
<path style=" stroke:none;fill-rule:nonzero;fill:rgb(0%,0%,0%);fill-opacity:1;" d="M 19.371094 180 L 19.371094 160 L 39.371094 160 L 39.371094 180 Z M 19.371094 180 "/>
<path style=" stroke:none;fill-rule:nonzero;fill:rgb(0%,0%,0%);fill-opacity:1;" d="M 19.371094 140 L 19.371094 120 L 39.371094 120 L 39.371094 140 Z M 19.371094 140 "/>
<path style=" stroke:none;fill-rule:nonzero;fill:rgb(0%,0%,0%);fill-opacity:1;" d="M 19.371094 100 L 19.371094 80 L 39.371094 80 L 39.371094 100 Z M 19.371094 100 "/>
<path style=" stroke:none;fill-rule:nonzero;fill:rgb(0%,0%,0%);fill-opacity:1;" d="M 19.371094 60 L 19.371094 40 L 39.371094 40 L 39.371094 60 Z M 19.371094 60 "/>
<path style=" stroke:none;fill-rule:nonzero;fill:rgb(0%,0%,0%);fill-opacity:1;" d="M 19.371094 20 L 19.371094 0 L 39.371094 0 L 39.371094 20 Z M 19.371094 20 "/>
<path style=" stroke:none;fill-rule:nonzero;fill:rgb(0%,0%,0%);fill-opacity:1;" d="M 55.371094 220 L 55.371094 200 L 75.371094 200 L 75.371094 220 Z M 55.371094 220 "/>
<path style=" stroke:none;fill-rule:nonzero;fill:rgb(0%,0%,0%);fill-opacity:1;" d="M 55.371094 180 L 55.371094 160 L 75.371094 160 L 75.371094 180 Z M 55.371094 180 "/>
<path style=" stroke:none;fill-rule:nonzero;fill:rgb(0%,0%,0%);fill-opacity:1;" d="M 55.371094 140 L 55.371094 120 L 75.371094 120 L 75.371094 140 Z M 55.371094 140 "/>
<path style=" stroke:none;fill-rule:nonzero;fill:rgb(0%,0%,0%);fill-opacity:1;" d="M 55.371094 100 L 55.371094 80 L 75.371094 80 L 75.371094 100 Z M 55.371094 100 "/>
<path style=" stroke:none;fill-rule:nonzero;fill:rgb(0%,0%,0%);fill-opacity:1;" d="M 55.371094 60 L 55.371094 40 L 75.371094 40 L 75.371094 60 Z M 55.371094 60 "/>
<path style=" stroke:none;fill-rule:nonzero;fill:rgb(0%,0%,0%);fill-opacity:1;" d="M 55.371094 20 L 55.371094 0 L 75.371094 0 L 75.371094 20 Z M 55.371094 20 "/>
<path style=" stroke:none;fill-rule:nonzero;fill:rgb(0%,0%,0%);fill-opacity:1;" d="M 91.371094 220 L 91.371094 200 L 111.371094 200 L 111.371094 220 Z M 91.371094 220 "/>
<path style=" stroke:none;fill-rule:nonzero;fill:rgb(0%,0%,0%);fill-opacity:1;" d="M 91.371094 180 L 91.371094 160 L 111.371094 160 L 111.371094 180 Z M 91.371094 180 "/>
<path style=" stroke:none;fill-rule:nonzero;fill:rgb(0%,0%,0%);fill-opacity:1;" d="M 91.371094 140 L 91.371094 120 L 111.371094 120 L 111.371094 140 Z M 91.371094 140 "/>
<path style=" stroke:none;fill-rule:nonzero;fill:rgb(0%,0%,0%);fill-opacity:1;" d="M 91.371094 100 L 91.371094 80 L 111.371094 80 L 111.371094 100 Z M 91.371094 100 "/>
<path style=" stroke:none;fill-rule:nonzero;fill:rgb(0%,0%,0%);fill-opacity:1;" d="M 91.371094 60 L 91.371094 40 L 111.371094 40 L 111.371094 60 Z M 91.371094 60 "/>
<path style=" stroke:none;fill-rule:nonzero;fill:rgb(0%,0%,0%);fill-opacity:1;" d="M 91.371094 20 L 91.371094 0 L 111.371094 0 L 111.371094 20 Z M 91.371094 20 "/>
<path style=" stroke:none;fill-rule:nonzero;fill:rgb(0%,0%,0%);fill-opacity:1;" d="M 127.371094 220 L 127.371094 200 L 147.371094 200 L 147.371094 220 Z M 127.371094 220 "/>
<path style=" stroke:none;fill-rule:nonzero;fill:rgb(0%,0%,0%);fill-opacity:1;" d="M 127.371094 180 L 127.371094 160 L 147.371094 160 L 147.371094 180 Z M 127.371094 180 "/>
<path style=" stroke:none;fill-rule:nonzero;fill:rgb(0%,0%,0%);fill-opacity:1;" d="M 127.371094 140 L 127.371094 120 L 147.371094 120 L 147.371094 140 Z M 127.371094 140 "/>
<path style=" stroke:none;fill-rule:nonzero;fill:rgb(0%,0%,0%);fill-opacity:1;" d="M 127.371094 100 L 127.371094 80 L 147.371094 80 L 147.371094 100 Z M 127.371094 100 "/>
<path style=" stroke:none;fill-rule:nonzero;fill:rgb(0%,0%,0%);fill-opacity:1;" d="M 127.371094 60 L 127.371094 40 L 147.371094 40 L 147.371094 60 Z M 127.371094 60 "/>
<path style=" stroke:none;fill-rule:nonzero;fill:rgb(0%,0%,0%);fill-opacity:1;" d="M 127.371094 20 L 127.371094 0 L 147.371094 0 L 147.371094 20 Z M 127.371094 20 "/>
<path style=" stroke:none;fill-rule:nonzero;fill:rgb(0%,0%,0%);fill-opacity:1;" d="M 163.371094 220 L 163.371094 200 L 183.371094 200 L 183.371094 220 Z M 163.371094 220 "/>
<path style=" stroke:none;fill-rule:nonzero;fill:rgb(0%,0%,0%);fill-opacity:1;" d="M 163.371094 180 L 163.371094 160 L 183.371094 160 L 183.371094 180 Z M 163.371094 180 "/>
<path style=" stroke:none;fill-rule:nonzero;fill:rgb(0%,0%,0%);fill-opacity:1;" d="M 163.371094 140 L 163.371094 120 L 183.371094 120 L 183.371094 140 Z M 163.371094 140 "/>
<path style=" stroke:none;fill-rule:nonzero;fill:rgb(0%,0%,0%);fill-opacity:1;" d="M 163.371094 100 L 163.371094 80 L 183.371094 80 L 183.371094 100 Z M 163.371094 100 "/>
<path style=" stroke:none;fill-rule:nonzero;fill:rgb(0%,0%,0%);fill-opacity:1;" d="M 163.371094 60 L 163.371094 40 L 183.371094 40 L 183.371094 60 Z M 163.371094 60 "/>
<path style=" stroke:none;fill-rule:nonzero;fill:rgb(0%,0%,0%);fill-opacity:1;" d="M 163.371094 20 L 163.371094 0 L 183.371094 0 L 183.371094 20 Z M 163.371094 20 "/>
<path style=" stroke:none;fill-rule:nonzero;fill:rgb(0%,0%,0%);fill-opacity:1;" d="M 199.371094 220 L 199.371094 200 L 219.371094 200 L 219.371094 220 Z M 199.371094 220 "/>
<path style=" stroke:none;fill-rule:nonzero;fill:rgb(0%,0%,0%);fill-opacity:1;" d="M 199.371094 180 L 199.371094 160 L 219.371094 160 L 219.371094 180 Z M 199.371094 180 "/>
<path style=" stroke:none;fill-rule:nonzero;fill:rgb(0%,0%,0%);fill-opacity:1;" d="M 199.371094 140 L 199.371094 120 L 219.371094 120 L 219.371094 140 Z M 199.371094 140 "/>
<path style=" stroke:none;fill-rule:nonzero;fill:rgb(0%,0%,0%);fill-opacity:1;" d="M 199.371094 100 L 199.371094 80 L 219.371094 80 L 219.371094 100 Z M 199.371094 100 "/>
<path style=" stroke:none;fill-rule:nonzero;fill:rgb(0%,0%,0%);fill-opacity:1;" d="M 199.371094 60 L 199.371094 40 L 219.371094 40 L 219.371094 60 Z M 199.371094 60 "/>
<path style=" stroke:none;fill-rule:nonzero;fill:rgb(0%,0%,0%);fill-opacity:1;" d="M 199.371094 20 L 199.371094 0 L 219.371094 0 L 219.371094 20 Z M 199.371094 20 "/>
<path style=" stroke:none;fill-rule:nonzero;fill:rgb(0%,0%,0%);fill-opacity:1;" d="M 235.371094 220 L 235.371094 200 L 255.371094 200 L 255.371094 220 Z M 235.371094 220 "/>
<path style=" stroke:none;fill-rule:nonzero;fill:rgb(0%,0%,0%);fill-opacity:1;" d="M 235.371094 180 L 235.371094 160 L 255.371094 160 L 255.371094 180 Z M 235.371094 180 "/>
<path style=" stroke:none;fill-rule:nonzero;fill:rgb(0%,0%,0%);fill-opacity:1;" d="M 235.371094 140 L 235.371094 120 L 255.371094 120 L 255.371094 140 Z M 235.371094 140 "/>
<path style=" stroke:none;fill-rule:nonzero;fill:rgb(0%,0%,0%);fill-opacity:1;" d="M 235.371094 100 L 235.371094 80 L 255.371094 80 L 255.371094 100 Z M 235.371094 100 "/>
<path style=" stroke:none;fill-rule:nonzero;fill:rgb(0%,0%,0%);fill-opacity:1;" d="M 235.371094 60 L 235.371094 40 L 255.371094 40 L 255.371094 60 Z M 235.371094 60 "/>
<path style=" stroke:none;fill-rule:nonzero;fill:rgb(0%,0%,0%);fill-opacity:1;" d="M 235.371094 20 L 235.371094 0 L 255.371094 0 L 255.371094 20 Z M 235.371094 20 "/>
<path style=" stroke:none;fill-rule:nonzero;fill:rgb(0%,0%,0%);fill-opacity:1;" d="M 271.371094 220 L 271.371094 200 L 291.371094 200 L 291.371094 220 Z M 271.371094 220 "/>
<path style=" stroke:none;fill-rule:nonzero;fill:rgb(0%,0%,0%);fill-opacity:1;" d="M 271.371094 180 L 271.371094 160 L 291.371094 160 L 291.371094 180 Z M 271.371094 180 "/>
<path style=" stroke:none;fill-rule:nonzero;fill:rgb(0%,0%,0%);fill-opacity:1;" d="M 271.371094 140 L 271.371094 120 L 291.371094 120 L 291.371094 140 Z M 271.371094 140 "/>
<path style=" stroke:none;fill-rule:nonzero;fill:rgb(0%,0%,0%);fill-opacity:1;" d="M 271.371094 100 L 271.371094 80 L 291.371094 80 L 291.371094 100 Z M 271.371094 100 "/>
<path style=" stroke:none;fill-rule:nonzero;fill:rgb(0%,0%,0%);fill-opacity:1;" d="M 271.371094 60 L 271.371094 40 L 291.371094 40 L 291.371094 60 Z M 271.371094 60 "/>
<path style=" stroke:none;fill-rule:nonzero;fill:rgb(0%,0%,0%);fill-opacity:1;" d="M 271.371094 20 L 271.371094 0 L 291.371094 0 L 291.371094 20 Z M 271.371094 20 "/>
<path style=" stroke:none;fill-rule:nonzero;fill:rgb(0%,0%,0%);fill-opacity:1;" d="M 307.371094 220 L 307.371094 200 L 327.371094 200 L 327.371094 220 Z M 307.371094 220 "/>
<path style=" stroke:none;fill-rule:nonzero;fill:rgb(0%,0%,0%);fill-opacity:1;" d="M 307.371094 180 L 307.371094 160 L 327.371094 160 L 327.371094 180 Z M 307.371094 180 "/>
<path style=" stroke:none;fill-rule:nonzero;fill:rgb(0%,0%,0%);fill-opacity:1;" d="M 307.371094 140 L 307.371094 120 L 327.371094 120 L 327.371094 140 Z M 307.371094 140 "/>
<path style=" stroke:none;fill-rule:nonzero;fill:rgb(0%,0%,0%);fill-opacity:1;" d="M 307.371094 100 L 307.371094 80 L 327.371094 80 L 327.371094 100 Z M 307.371094 100 "/>
<path style=" stroke:none;fill-rule:nonzero;fill:rgb(0%,0%,0%);fill-opacity:1;" d="M 307.371094 60 L 307.371094 40 L 327.371094 40 L 327.371094 60 Z M 307.371094 60 "/>
<path style=" stroke:none;fill-rule:nonzero;fill:rgb(0%,0%,0%);fill-opacity:1;" d="M 307.371094 20 L 307.371094 0 L 327.371094 0 L 327.371094 20 Z M 307.371094 20 "/>
<path style=" stroke:none;fill-rule:nonzero;fill:rgb(0%,0%,0%);fill-opacity:1;" d="M 343.371094 220 L 343.371094 200 L 363.371094 200 L 363.371094 220 Z M 343.371094 220 "/>
<path style=" stroke:none;fill-rule:nonzero;fill:rgb(0%,0%,0%);fill-opacity:1;" d="M 343.371094 180 L 343.371094 160 L 363.371094 160 L 363.371094 180 Z M 343.371094 180 "/>
<path style=" stroke:none;fill-rule:nonzero;fill:rgb(0%,0%,0%);fill-opacity:1;" d="M 343.371094 140 L 343.371094 120 L 363.371094 120 L 363.371094 140 Z M 343.371094 140 "/>
<path style=" stroke:none;fill-rule:nonzero;fill:rgb(0%,0%,0%);fill-opacity:1;" d="M 343.371094 100 L 343.371094 80 L 363.371094 80 L 363.371094 100 Z M 343.371094 100 "/>
<path style=" stroke:none;fill-rule:nonzero;fill:rgb(0%,0%,0%);fill-opacity:1;" d="M 343.371094 60 L 343.371094 40 L 363.371094 40 L 363.371094 60 Z M 343.371094 60 "/>
<path style=" stroke:none;fill-rule:nonzero;fill:rgb(0%,0%,0%);fill-opacity:1;" d="M 343.371094 20 L 343.371094 0 L 363.371094 0 L 363.371094 20 Z M 343.371094 20 "/>
<path style=" stroke:none;fill-rule:nonzero;fill:rgb(0%,0%,0%);fill-opacity:1;" d="M 379.371094 220 L 379.371094 200 L 399.371094 200 L 399.371094 220 Z M 379.371094 220 "/>
<path style=" stroke:none;fill-rule:nonzero;fill:rgb(0%,0%,0%);fill-opacity:1;" d="M 379.371094 180 L 379.371094 160 L 399.371094 160 L 399.371094 180 Z M 379.371094 180 "/>
<path style=" stroke:none;fill-rule:nonzero;fill:rgb(0%,0%,0%);fill-opacity:1;" d="M 379.371094 140 L 379.371094 120 L 399.371094 120 L 399.371094 140 Z M 379.371094 140 "/>
<path style=" stroke:none;fill-rule:nonzero;fill:rgb(0%,0%,0%);fill-opacity:1;" d="M 379.371094 100 L 379.371094 80 L 399.371094 80 L 399.371094 100 Z M 379.371094 100 "/>
<path style=" stroke:none;fill-rule:nonzero;fill:rgb(0%,0%,0%);fill-opacity:1;" d="M 379.371094 60 L 379.371094 40 L 399.371094 40 L 399.371094 60 Z M 379.371094 60 "/>
<path style=" stroke:none;fill-rule:nonzero;fill:rgb(0%,0%,0%);fill-opacity:1;" d="M 379.371094 20 L 379.371094 0 L 399.371094 0 L 399.371094 20 Z M 379.371094 20 "/>
<path style=" stroke:none;fill-rule:nonzero;fill:rgb(0%,0%,0%);fill-opacity:1;" d="M -15.027344 200 L -15.027344 180 L 4.972656 180 L 4.972656 200 Z M -15.027344 200 "/>
<path style=" stroke:none;fill-rule:nonzero;fill:rgb(0%,0%,0%);fill-opacity:1;" d="M -15.027344 160 L -15.027344 140 L 4.972656 140 L 4.972656 160 Z M -15.027344 160 "/>
<path style=" stroke:none;fill-rule:nonzero;fill:rgb(0%,0%,0%);fill-opacity:1;" d="M -15.027344 120 L -15.027344 100 L 4.972656 100 L 4.972656 120 Z M -15.027344 120 "/>
<path style=" stroke:none;fill-rule:nonzero;fill:rgb(0%,0%,0%);fill-opacity:1;" d="M -15.027344 80 L -15.027344 60 L 4.972656 60 L 4.972656 80 Z M -15.027344 80 "/>
<path style=" stroke:none;fill-rule:nonzero;fill:rgb(0%,0%,0%);fill-opacity:1;" d="M -15.027344 40 L -15.027344 20 L 4.972656 20 L 4.972656 40 Z M -15.027344 40 "/>
<path style=" stroke:none;fill-rule:nonzero;fill:rgb(0%,0%,0%);fill-opacity:1;" d="M 20.972656 200 L 20.972656 180 L 40.972656 180 L 40.972656 200 Z M 20.972656 200 "/>
<path style=" stroke:none;fill-rule:nonzero;fill:rgb(0%,0%,0%);fill-opacity:1;" d="M 20.972656 160 L 20.972656 140 L 40.972656 140 L 40.972656 160 Z M 20.972656 160 "/>
<path style=" stroke:none;fill-rule:nonzero;fill:rgb(0%,0%,0%);fill-opacity:1;" d="M 20.972656 120 L 20.972656 100 L 40.972656 100 L 40.972656 120 Z M 20.972656 120 "/>
<path style=" stroke:none;fill-rule:nonzero;fill:rgb(0%,0%,0%);fill-opacity:1;" d="M 20.972656 80 L 20.972656 60 L 40.972656 60 L 40.972656 80 Z M 20.972656 80 "/>
<path style=" stroke:none;fill-rule:nonzero;fill:rgb(0%,0%,0%);fill-opacity:1;" d="M 20.972656 40 L 20.972656 20 L 40.972656 20 L 40.972656 40 Z M 20.972656 40 "/>
<path style=" stroke:none;fill-rule:nonzero;fill:rgb(0%,0%,0%);fill-opacity:1;" d="M 56.972656 200 L 56.972656 180 L 76.972656 180 L 76.972656 200 Z M 56.972656 200 "/>
<path style=" stroke:none;fill-rule:nonzero;fill:rgb(0%,0%,0%);fill-opacity:1;" d="M 56.972656 160 L 56.972656 140 L 76.972656 140 L 76.972656 160 Z M 56.972656 160 "/>
<path style=" stroke:none;fill-rule:nonzero;fill:rgb(0%,0%,0%);fill-opacity:1;" d="M 56.972656 120 L 56.972656 100 L 76.972656 100 L 76.972656 120 Z M 56.972656 120 "/>
<path style=" stroke:none;fill-rule:nonzero;fill:rgb(0%,0%,0%);fill-opacity:1;" d="M 56.972656 80 L 56.972656 60 L 76.972656 60 L 76.972656 80 Z M 56.972656 80 "/>
<path style=" stroke:none;fill-rule:nonzero;fill:rgb(0%,0%,0%);fill-opacity:1;" d="M 56.972656 40 L 56.972656 20 L 76.972656 20 L 76.972656 40 Z M 56.972656 40 "/>
<path style=" stroke:none;fill-rule:nonzero;fill:rgb(0%,0%,0%);fill-opacity:1;" d="M 92.972656 200 L 92.972656 180 L 112.972656 180 L 112.972656 200 Z M 92.972656 200 "/>
<path style=" stroke:none;fill-rule:nonzero;fill:rgb(0%,0%,0%);fill-opacity:1;" d="M 92.972656 160 L 92.972656 140 L 112.972656 140 L 112.972656 160 Z M 92.972656 160 "/>
<path style=" stroke:none;fill-rule:nonzero;fill:rgb(0%,0%,0%);fill-opacity:1;" d="M 92.972656 120 L 92.972656 100 L 112.972656 100 L 112.972656 120 Z M 92.972656 120 "/>
<path style=" stroke:none;fill-rule:nonzero;fill:rgb(0%,0%,0%);fill-opacity:1;" d="M 92.972656 80 L 92.972656 60 L 112.972656 60 L 112.972656 80 Z M 92.972656 80 "/>
<path style=" stroke:none;fill-rule:nonzero;fill:rgb(0%,0%,0%);fill-opacity:1;" d="M 92.972656 40 L 92.972656 20 L 112.972656 20 L 112.972656 40 Z M 92.972656 40 "/>
<path style=" stroke:none;fill-rule:nonzero;fill:rgb(0%,0%,0%);fill-opacity:1;" d="M 128.972656 200 L 128.972656 180 L 148.972656 180 L 148.972656 200 Z M 128.972656 200 "/>
<path style=" stroke:none;fill-rule:nonzero;fill:rgb(0%,0%,0%);fill-opacity:1;" d="M 128.972656 160 L 128.972656 140 L 148.972656 140 L 148.972656 160 Z M 128.972656 160 "/>
<path style=" stroke:none;fill-rule:nonzero;fill:rgb(0%,0%,0%);fill-opacity:1;" d="M 128.972656 120 L 128.972656 100 L 148.972656 100 L 148.972656 120 Z M 128.972656 120 "/>
<path style=" stroke:none;fill-rule:nonzero;fill:rgb(0%,0%,0%);fill-opacity:1;" d="M 128.972656 80 L 128.972656 60 L 148.972656 60 L 148.972656 80 Z M 128.972656 80 "/>
<path style=" stroke:none;fill-rule:nonzero;fill:rgb(0%,0%,0%);fill-opacity:1;" d="M 128.972656 40 L 128.972656 20 L 148.972656 20 L 148.972656 40 Z M 128.972656 40 "/>
<path style=" stroke:none;fill-rule:nonzero;fill:rgb(0%,0%,0%);fill-opacity:1;" d="M 164.972656 200 L 164.972656 180 L 184.972656 180 L 184.972656 200 Z M 164.972656 200 "/>
<path style=" stroke:none;fill-rule:nonzero;fill:rgb(0%,0%,0%);fill-opacity:1;" d="M 164.972656 160 L 164.972656 140 L 184.972656 140 L 184.972656 160 Z M 164.972656 160 "/>
<path style=" stroke:none;fill-rule:nonzero;fill:rgb(0%,0%,0%);fill-opacity:1;" d="M 164.972656 120 L 164.972656 100 L 184.972656 100 L 184.972656 120 Z M 164.972656 120 "/>
<path style=" stroke:none;fill-rule:nonzero;fill:rgb(0%,0%,0%);fill-opacity:1;" d="M 164.972656 80 L 164.972656 60 L 184.972656 60 L 184.972656 80 Z M 164.972656 80 "/>
<path style=" stroke:none;fill-rule:nonzero;fill:rgb(0%,0%,0%);fill-opacity:1;" d="M 164.972656 40 L 164.972656 20 L 184.972656 20 L 184.972656 40 Z M 164.972656 40 "/>
<path style=" stroke:none;fill-rule:nonzero;fill:rgb(0%,0%,0%);fill-opacity:1;" d="M 200.972656 200 L 200.972656 180 L 220.972656 180 L 220.972656 200 Z M 200.972656 200 "/>
<path style=" stroke:none;fill-rule:nonzero;fill:rgb(0%,0%,0%);fill-opacity:1;" d="M 200.972656 160 L 200.972656 140 L 220.972656 140 L 220.972656 160 Z M 200.972656 160 "/>
<path style=" stroke:none;fill-rule:nonzero;fill:rgb(0%,0%,0%);fill-opacity:1;" d="M 200.972656 120 L 200.972656 100 L 220.972656 100 L 220.972656 120 Z M 200.972656 120 "/>
<path style=" stroke:none;fill-rule:nonzero;fill:rgb(0%,0%,0%);fill-opacity:1;" d="M 200.972656 80 L 200.972656 60 L 220.972656 60 L 220.972656 80 Z M 200.972656 80 "/>
<path style=" stroke:none;fill-rule:nonzero;fill:rgb(0%,0%,0%);fill-opacity:1;" d="M 200.972656 40 L 200.972656 20 L 220.972656 20 L 220.972656 40 Z M 200.972656 40 "/>
<path style=" stroke:none;fill-rule:nonzero;fill:rgb(0%,0%,0%);fill-opacity:1;" d="M 236.972656 200 L 236.972656 180 L 256.972656 180 L 256.972656 200 Z M 236.972656 200 "/>
<path style=" stroke:none;fill-rule:nonzero;fill:rgb(0%,0%,0%);fill-opacity:1;" d="M 236.972656 160 L 236.972656 140 L 256.972656 140 L 256.972656 160 Z M 236.972656 160 "/>
<path style=" stroke:none;fill-rule:nonzero;fill:rgb(0%,0%,0%);fill-opacity:1;" d="M 236.972656 120 L 236.972656 100 L 256.972656 100 L 256.972656 120 Z M 236.972656 120 "/>
<path style=" stroke:none;fill-rule:nonzero;fill:rgb(0%,0%,0%);fill-opacity:1;" d="M 236.972656 80 L 236.972656 60 L 256.972656 60 L 256.972656 80 Z M 236.972656 80 "/>
<path style=" stroke:none;fill-rule:nonzero;fill:rgb(0%,0%,0%);fill-opacity:1;" d="M 236.972656 40 L 236.972656 20 L 256.972656 20 L 256.972656 40 Z M 236.972656 40 "/>
<path style=" stroke:none;fill-rule:nonzero;fill:rgb(0%,0%,0%);fill-opacity:1;" d="M 272.972656 200 L 272.972656 180 L 292.972656 180 L 292.972656 200 Z M 272.972656 200 "/>
<path style=" stroke:none;fill-rule:nonzero;fill:rgb(0%,0%,0%);fill-opacity:1;" d="M 272.972656 160 L 272.972656 140 L 292.972656 140 L 292.972656 160 Z M 272.972656 160 "/>
<path style=" stroke:none;fill-rule:nonzero;fill:rgb(0%,0%,0%);fill-opacity:1;" d="M 272.972656 120 L 272.972656 100 L 292.972656 100 L 292.972656 120 Z M 272.972656 120 "/>
<path style=" stroke:none;fill-rule:nonzero;fill:rgb(0%,0%,0%);fill-opacity:1;" d="M 272.972656 80 L 272.972656 60 L 292.972656 60 L 292.972656 80 Z M 272.972656 80 "/>
<path style=" stroke:none;fill-rule:nonzero;fill:rgb(0%,0%,0%);fill-opacity:1;" d="M 272.972656 40 L 272.972656 20 L 292.972656 20 L 292.972656 40 Z M 272.972656 40 "/>
<path style=" stroke:none;fill-rule:nonzero;fill:rgb(0%,0%,0%);fill-opacity:1;" d="M 308.972656 200 L 308.972656 180 L 328.972656 180 L 328.972656 200 Z M 308.972656 200 "/>
<path style=" stroke:none;fill-rule:nonzero;fill:rgb(0%,0%,0%);fill-opacity:1;" d="M 308.972656 160 L 308.972656 140 L 328.972656 140 L 328.972656 160 Z M 308.972656 160 "/>
<path style=" stroke:none;fill-rule:nonzero;fill:rgb(0%,0%,0%);fill-opacity:1;" d="M 308.972656 120 L 308.972656 100 L 328.972656 100 L 328.972656 120 Z M 308.972656 120 "/>
<path style=" stroke:none;fill-rule:nonzero;fill:rgb(0%,0%,0%);fill-opacity:1;" d="M 308.972656 80 L 308.972656 60 L 328.972656 60 L 328.972656 80 Z M 308.972656 80 "/>
<path style=" stroke:none;fill-rule:nonzero;fill:rgb(0%,0%,0%);fill-opacity:1;" d="M 308.972656 40 L 308.972656 20 L 328.972656 20 L 328.972656 40 Z M 308.972656 40 "/>
<path style=" stroke:none;fill-rule:nonzero;fill:rgb(0%,0%,0%);fill-opacity:1;" d="M 344.972656 200 L 344.972656 180 L 364.972656 180 L 364.972656 200 Z M 344.972656 200 "/>
<path style=" stroke:none;fill-rule:nonzero;fill:rgb(0%,0%,0%);fill-opacity:1;" d="M 344.972656 160 L 344.972656 140 L 364.972656 140 L 364.972656 160 Z M 344.972656 160 "/>
<path style=" stroke:none;fill-rule:nonzero;fill:rgb(0%,0%,0%);fill-opacity:1;" d="M 344.972656 120 L 344.972656 100 L 364.972656 100 L 364.972656 120 Z M 344.972656 120 "/>
<path style=" stroke:none;fill-rule:nonzero;fill:rgb(0%,0%,0%);fill-opacity:1;" d="M 344.972656 80 L 344.972656 60 L 364.972656 60 L 364.972656 80 Z M 344.972656 80 "/>
<path style=" stroke:none;fill-rule:nonzero;fill:rgb(0%,0%,0%);fill-opacity:1;" d="M 344.972656 40 L 344.972656 20 L 364.972656 20 L 364.972656 40 Z M 344.972656 40 "/>
<path style=" stroke:none;fill-rule:nonzero;fill:rgb(0%,0%,0%);fill-opacity:1;" d="M 380.972656 200 L 380.972656 180 L 400.972656 180 L 400.972656 200 Z M 380.972656 200 "/>
<path style=" stroke:none;fill-rule:nonzero;fill:rgb(0%,0%,0%);fill-opacity:1;" d="M 380.972656 160 L 380.972656 140 L 400.972656 140 L 400.972656 160 Z M 380.972656 160 "/>
<path style=" stroke:none;fill-rule:nonzero;fill:rgb(0%,0%,0%);fill-opacity:1;" d="M 380.972656 120 L 380.972656 100 L 400.972656 100 L 400.972656 120 Z M 380.972656 120 "/>
<path style=" stroke:none;fill-rule:nonzero;fill:rgb(0%,0%,0%);fill-opacity:1;" d="M 380.972656 80 L 380.972656 60 L 400.972656 60 L 400.972656 80 Z M 380.972656 80 "/>
<path style=" stroke:none;fill-rule:nonzero;fill:rgb(0%,0%,0%);fill-opacity:1;" d="M 380.972656 40 L 380.972656 20 L 400.972656 20 L 400.972656 40 Z M 380.972656 40 "/>
<path style="fill:none;stroke-width:1;stroke-linecap:square;stroke-linejoin:miter;stroke:rgb(100%,0%,0%);stroke-opacity:1;stroke-miterlimit:3.25;" d="M 0 220 L 400 220 "/>
<path style="fill:none;stroke-width:1;stroke-linecap:square;stroke-linejoin:miter;stroke:rgb(100%,0%,0%);stroke-opacity:1;stroke-miterlimit:3.25;" d="M 0 200 L 400 200 "/>
<path style="fill:none;stroke-width:1;stroke-linecap:square;stroke-linejoin:miter;stroke:rgb(100%,0%,0%);stroke-opacity:1;stroke-miterlimit:3.25;" d="M 0 180 L 400 180 "/>
<path style="fill:none;stroke-width:1;stroke-linecap:square;stroke-linejoin:miter;stroke:rgb(100%,0%,0%);stroke-opacity:1;stroke-miterlimit:3.25;" d="M 0 160 L 400 160 "/>
<path style="fill:none;stroke-width:1;stroke-linecap:square;stroke-linejoin:miter;stroke:rgb(100%,0%,0%);stroke-opacity:1;stroke-miterlimit:3.25;" d="M 0 140 L 400 140 "/>
<path style="fill:none;stroke-width:1;stroke-linecap:square;stroke-linejoin:miter;stroke:rgb(100%,0%,0%);stroke-opacity:1;stroke-miterlimit:3.25;" d="M 0 120 L 400 120 "/>
<path style="fill:none;stroke-width:1;stroke-linecap:square;stroke-linejoin:miter;stroke:rgb(100%,0%,0%);stroke-opacity:1;stroke-miterlimit:3.25;" d="M 0 100 L 400 100 "/>
<path style="fill:none;stroke-width:1;stroke-linecap:square;stroke-linejoin:miter;stroke:rgb(100%,0%,0%);stroke-opacity:1;stroke-miterlimit:3.25;" d="M 0 80 L 400 80 "/>
<path style="fill:none;stroke-width:1;stroke-linecap:square;stroke-linejoin:miter;stroke:rgb(100%,0%,0%);stroke-opacity:1;stroke-miterlimit:3.25;" d="M 0 60 L 400 60 "/>
<path style="fill:none;stroke-width:1;stroke-linecap:square;stroke-linejoin:miter;stroke:rgb(100%,0%,0%);stroke-opacity:1;stroke-miterlimit:3.25;" d="M 0 40 L 400 40 "/>
<path style="fill:none;stroke-width:1;stroke-linecap:square;stroke-linejoin:miter;stroke:rgb(100%,0%,0%);stroke-opacity:1;stroke-miterlimit:3.25;" d="M 0 20 L 400 20 "/>
</g>
</svg>
