<?xml version="1.0" encoding="UTF-8"?>
<svg xmlns="http://www.w3.org/2000/svg" xmlns:xlink="http://www.w3.org/1999/xlink" width="400pt" height="220pt" viewBox="0 0 400 220" version="1.1">
<g id="surface696">
<rect x="0" y="0" width="400" height="220" style="fill:rgb(0%,40%,100%);fill-opacity:0.2;stroke:none;"/>
<path style=" stroke:none;fill-rule:nonzero;fill:rgb(0%,0%,0%);fill-opacity:1;" d="M 11.753906 220 L 11.753906 200 L 31.753906 200 L 31.753906 220 Z M 11.753906 220 "/>
<path style=" stroke:none;fill-rule:nonzero;fill:rgb(0%,0%,0%);fill-opacity:1;" d="M 11.753906 180 L 11.753906 160 L 31.753906 160 L 31.753906 180 Z M 11.753906 180 "/>
<path style=" stroke:none;fill-rule:nonzero;fill:rgb(0%,0%,0%);fill-opacity:1;" d="M 11.753906 140 L 11.753906 120 L 31.753906 120 L 31.753906 140 Z M 11.753906 140 "/>
<path style=" stroke:none;fill-rule:nonzero;fill:rgb(0%,0%,0%);fill-opacity:1;" d="M 11.753906 100 L 11.753906 80 L 31.753906 80 L 31.753906 100 Z M 11.753906 100 "/>
<path style=" stroke:none;fill-rule:nonzero;fill:rgb(0%,0%,0%);fill-opacity:1;" d="M 11.753906 60 L 11.753906 40 L 31.753906 40 L 31.753906 60 Z M 11.753906 60 "/>
<path style=" stroke:none;fill-rule:nonzero;fill:rgb(0%,0%,0%);fill-opacity:1;" d="M 11.753906 20 L 11.753906 0 L 31.753906 0 L 31.753906 20 Z M 11.753906 20 "/>
<path style=" stroke:none;fill-rule:nonzero;fill:rgb(0%,0%,0%);fill-opacity:1;" d="M 47.753906 220 L 47.753906 200 L 67.753906 200 L 67.753906 220 Z M 47.753906 220 "/>
<path style=" stroke:none;fill-rule:nonzero;fill:rgb(0%,0%,0%);fill-opacity:1;" d="M 47.753906 180 L 47.753906 160 L 67.753906 160 L 67.753906 180 Z M 47.753906 180 "/>
<path style=" stroke:none;fill-rule:nonzero;fill:rgb(0%,0%,0%);fill-opacity:1;" d="M 47.753906 140 L 47.753906 120 L 67.753906 120 L 67.753906 140 Z M 47.753906 140 "/>
<path style=" stroke:none;fill-rule:nonzero;fill:rgb(0%,0%,0%);fill-opacity:1;" d="M 47.753906 100 L 47.753906 80 L 67.753906 80 L 67.753906 100 Z M 47.753906 100 "/>
<path style=" stroke:none;fill-rule:nonzero;fill:rgb(0%,0%,0%);fill-opacity:1;" d="M 47.753906 60 L 47.753906 40 L 67.753906 40 L 67.753906 60 Z M 47.753906 60 "/>
<path style=" stroke:none;fill-rule:nonzero;fill:rgb(0%,0%,0%);fill-opacity:1;" d="M 47.753906 20 L 47.753906 0 L 67.753906 0 L 67.753906 20 Z M 47.753906 20 "/>
<path style=" stroke:none;fill-rule:nonzero;fill:rgb(0%,0%,0%);fill-opacity:1;" d="M 83.753906 220 L 83.753906 200 L 103.753906 200 L 103.753906 220 Z M 83.753906 220 "/>
<path style=" stroke:none;fill-rule:nonzero;fill:rgb(0%,0%,0%);fill-opacity:1;" d="M 83.753906 180 L 83.753906 160 L 103.753906 160 L 103.753906 180 Z M 83.753906 180 "/>
<path style=" stroke:none;fill-rule:nonzero;fill:rgb(0%,0%,0%);fill-opacity:1;" d="M 83.753906 140 L 83.753906 120 L 103.753906 120 L 103.753906 140 Z M 83.753906 140 "/>
<path style=" stroke:none;fill-rule:nonzero;fill:rgb(0%,0%,0%);fill-opacity:1;" d="M 83.753906 100 L 83.753906 80 L 103.753906 80 L 103.753906 100 Z M 83.753906 100 "/>
<path style=" stroke:none;fill-rule:nonzero;fill:rgb(0%,0%,0%);fill-opacity:1;" d="M 83.753906 60 L 83.753906 40 L 103.753906 40 L 103.753906 60 Z M 83.753906 60 "/>
<path style=" stroke:none;fill-rule:nonzero;fill:rgb(0%,0%,0%);fill-opacity:1;" d="M 83.753906 20 L 83.753906 0 L 103.753906 0 L 103.753906 20 Z M 83.753906 20 "/>
<path style=" stroke:none;fill-rule:nonzero;fill:rgb(0%,0%,0%);fill-opacity:1;" d="M 119.753906 220 L 119.753906 200 L 139.753906 200 L 139.753906 220 Z M 119.753906 220 "/>
<path style=" stroke:none;fill-rule:nonzero;fill:rgb(0%,0%,0%);fill-opacity:1;" d="M 119.753906 180 L 119.753906 160 L 139.753906 160 L 139.753906 180 Z M 119.753906 180 "/>
<path style=" stroke:none;fill-rule:nonzero;fill:rgb(0%,0%,0%);fill-opacity:1;" d="M 119.753906 140 L 119.753906 120 L 139.753906 120 L 139.753906 140 Z M 119.753906 140 "/>
<path style=" stroke:none;fill-rule:nonzero;fill:rgb(0%,0%,0%);fill-opacity:1;" d="M 119.753906 100 L 119.753906 80 L 139.753906 80 L 139.753906 100 Z M 119.753906 100 "/>
<path style=" stroke:none;fill-rule:nonzero;fill:rgb(0%,0%,0%);fill-opacity:1;" d="M 119.753906 60 L 119.753906 40 L 139.753906 40 L 139.753906 60 Z M 119.753906 60 "/>
<path style=" stroke:none;fill-rule:nonzero;fill:rgb(0%,0%,0%);fill-opacity:1;" d="M 119.753906 20 L 119.753906 0 L 139.753906 0 L 139.753906 20 Z M 119.753906 20 "/>
<path style=" stroke:none;fill-rule:nonzero;fill:rgb(0%,0%,0%);fill-opacity:1;" d="M 155.753906 220 L 155.753906 200 L 175.753906 200 L 175.753906 220 Z M 155.753906 220 "/>
<path style=" stroke:none;fill-rule:nonzero;fill:rgb(0%,0%,0%);fill-opacity:1;" d="M 155.753906 180 L 155.753906 160 L 175.753906 160 L 175.753906 180 Z M 155.753906 180 "/>
<path style=" stroke:none;fill-rule:nonzero;fill:rgb(0%,0%,0%);fill-opacity:1;" d="M 155.753906 140 L 155.753906 120 L 175.753906 120 L 175.753906 140 Z M 155.753906 140 "/>
<path style=" stroke:none;fill-rule:nonzero;fill:rgb(0%,0%,0%);fill-opacity:1;" d="M 155.753906 100 L 155.753906 80 L 175.753906 80 L 175.753906 100 Z M 155.753906 100 "/>
<path style=" stroke:none;fill-rule:nonzero;fill:rgb(0%,0%,0%);fill-opacity:1;" d="M 155.753906 60 L 155.753906 40 L 175.753906 40 L 175.753906 60 Z M 155.753906 60 "/>
<path style=" stroke:none;fill-rule:nonzero;fill:rgb(0%,0%,0%);fill-opacity:1;" d="M 155.753906 20 L 155.753906 0 L 175.753906 0 L 175.753906 20 Z M 155.753906 20 "/>
<path style=" stroke:none;fill-rule:nonzero;fill:rgb(0%,0%,0%);fill-opacity:1;" d="M 191.753906 220 L 191.753906 200 L 211.753906 200 L 211.753906 220 Z M 191.753906 220 "/>
<path style=" stroke:none;fill-rule:nonzero;fill:rgb(0%,0%,0%);fill-opacity:1;" d="M 191.753906 180 L 191.753906 160 L 211.753906 160 L 211.753906 180 Z M 191.753906 180 "/>
<path style=" stroke:none;fill-rule:nonzero;fill:rgb(0%,0%,0%);fill-opacity:1;" d="M 191.753906 140 L 191.753906 120 L 211.753906 120 L 211.753906 140 Z M 191.753906 140 "/>
<path style=" stroke:none;fill-rule:nonzero;fill:rgb(0%,0%,0%);fill-opacity:1;" d="M 191.753906 100 L 191.753906 80 L 211.753906 80 L 211.753906 100 Z M 191.753906 100 "/>
<path style=" stroke:none;fill-rule:nonzero;fill:rgb(0%,0%,0%);fill-opacity:1;" d="M 191.753906 60 L 191.753906 40 L 211.753906 40 L 211.753906 60 Z M 191.753906 60 "/>
<path style=" stroke:none;fill-rule:nonzero;fill:rgb(0%,0%,0%);fill-opacity:1;" d="M 191.753906 20 L 191.753906 0 L 211.753906 0 L 211.753906 20 Z M 191.753906 20 "/>
<path style=" stroke:none;fill-rule:nonzero;fill:rgb(0%,0%,0%);fill-opacity:1;" d="M 227.753906 220 L 227.753906 200 L 247.753906 200 L 247.753906 220 Z M 227.753906 220 "/>
<path style=" stroke:none;fill-rule:nonzero;fill:rgb(0%,0%,0%);fill-opacity:1;" d="M 227.753906 180 L 227.753906 160 L 247.753906 160 L 247.753906 180 Z M 227.753906 180 "/>
<path style=" stroke:none;fill-rule:nonzero;fill:rgb(0%,0%,0%);fill-opacity:1;" d="M 227.753906 140 L 227.753906 120 L 247.753906 120 L 247.753906 140 Z M 227.753906 140 "/>
<path style=" stroke:none;fill-rule:nonzero;fill:rgb(0%,0%,0%);fill-opacity:1;" d="M 227.753906 100 L 227.753906 80 L 247.753906 80 L 247.753906 100 Z M 227.753906 100 "/>
<path style=" stroke:none;fill-rule:nonzero;fill:rgb(0%,0%,0%);fill-opacity:1;" d="M 227.753906 60 L 227.753906 40 L 247.753906 40 L 247.753906 60 Z M 227.753906 60 "/>
<path style=" stroke:none;fill-rule:nonzero;fill:rgb(0%,0%,0%);fill-opacity:1;" d="M 227.753906 20 L 227.753906 0 L 247.753906 0 L 247.753906 20 Z M 227.753906 20 "/>
<path style=" stroke:none;fill-rule:nonzero;fill:rgb(0%,0%,0%);fill-opacity:1;" d="M 263.753906 220 L 263.753906 200 L 283.753906 200 L 283.753906 220 Z M 263.753906 220 "/>
<path style=" stroke:none;fill-rule:nonzero;fill:rgb(0%,0%,0%);fill-opacity:1;" d="M 263.753906 180 L 263.753906 160 L 283.753906 160 L 283.753906 180 Z M 263.753906 180 "/>
<path style=" stroke:none;fill-rule:nonzero;fill:rgb(0%,0%,0%);fill-opacity:1;" d="M 263.753906 140 L 263.753906 120 L 283.753906 120 L 283.753906 140 Z M 263.753906 140 "/>
<path style=" stroke:none;fill-rule:nonzero;fill:rgb(0%,0%,0%);fill-opacity:1;" d="M 263.753906 100 L 263.753906 80 L 283.753906 80 L 283.753906 100 Z M 263.753906 100 "/>
<path style=" stroke:none;fill-rule:nonzero;fill:rgb(0%,0%,0%);fill-opacity:1;" d="M 263.753906 60 L 263.753906 40 L 283.753906 40 L 283.753906 60 Z M 263.753906 60 "/>
<path style=" stroke:none;fill-rule:nonzero;fill:rgb(0%,0%,0%);fill-opacity:1;" d="M 263.753906 20 L 263.753906 0 L 283.753906 0 L 283.753906 20 Z M 263.753906 20 "/>
<path style=" stroke:none;fill-rule:nonzero;fill:rgb(0%,0%,0%);fill-opacity:1;" d="M 299.753906 220 L 299.753906 200 L 319.753906 200 L 319.753906 220 Z M 299.753906 220 "/>
<path style=" stroke:none;fill-rule:nonzero;fill:rgb(0%,0%,0%);fill-opacity:1;" d="M 299.753906 180 L 299.753906 160 L 319.753906 160 L 319.753906 180 Z M 299.753906 180 "/>
<path style=" stroke:none;fill-rule:nonzero;fill:rgb(0%,0%,0%);fill-opacity:1;" d="M 299.753906 140 L 299.753906 120 L 319.753906 120 L 319.753906 140 Z M 299.753906 140 "/>
<path style=" stroke:none;fill-rule:nonzero;fill:rgb(0%,0%,0%);fill-opacity:1;" d="M 299.753906 100 L 299.753906 80 L 319.753906 80 L 319.753906 100 Z M 299.753906 100 "/>
<path style=" stroke:none;fill-rule:nonzero;fill:rgb(0%,0%,0%);fill-opacity:1;" d="M 299.753906 60 L 299.753906 40 L 319.753906 40 L 319.753906 60 Z M 299.753906 60 "/>
<path style=" stroke:none;fill-rule:nonzero;fill:rgb(0%,0%,0%);fill-opacity:1;" d="M 299.753906 20 L 299.753906 0 L 319.753906 0 L 319.753906 20 Z M 299.753906 20 "/>
<path style=" stroke:none;fill-rule:nonzero;fill:rgb(0%,0%,0%);fill-opacity:1;" d="M 335.753906 220 L 335.753906 200 L 355.753906 200 L 355.753906 220 Z M 335.753906 220 "/>
<path style=" stroke:none;fill-rule:nonzero;fill:rgb(0%,0%,0%);fill-opacity:1;" d="M 335.753906 180 L 335.753906 160 L 355.753906 160 L 355.753906 180 Z M 335.753906 180 "/>
<path style=" stroke:none;fill-rule:nonzero;fill:rgb(0%,0%,0%);fill-opacity:1;" d="M 335.753906 140 L 335.753906 120 L 355.753906 120 L 355.753906 140 Z M 335.753906 140 "/>
<path style=" stroke:none;fill-rule:nonzero;fill:rgb(0%,0%,0%);fill-opacity:1;" d="M 335.753906 100 L 335.753906 80 L 355.753906 80 L 355.753906 100 Z M 335.753906 100 "/>
<path style=" stroke:none;fill-rule:nonzero;fill:rgb(0%,0%,0%);fill-opacity:1;" d="M 335.753906 60 L 335.753906 40 L 355.753906 40 L 355.753906 60 Z M 335.753906 60 "/>
<path style=" stroke:none;fill-rule:nonzero;fill:rgb(0%,0%,0%);fill-opacity:1;" d="M 335.753906 20 L 335.753906 0 L 355.753906 0 L 355.753906 20 Z M 335.753906 20 "/>
<path style=" stroke:none;fill-rule:nonzero;fill:rgb(0%,0%,0%);fill-opacity:1;" d="M 371.753906 220 L 371.753906 200 L 391.753906 200 L 391.753906 220 Z M 371.753906 220 "/>
<path style=" stroke:none;fill-rule:nonzero;fill:rgb(0%,0%,0%);fill-opacity:1;" d="M 371.753906 180 L 371.753906 160 L 391.753906 160 L 391.753906 180 Z M 371.753906 180 "/>
<path style=" stroke:none;fill-rule:nonzero;fill:rgb(0%,0%,0%);fill-opacity:1;" d="M 371.753906 140 L 371.753906 120 L 391.753906 120 L 391.753906 140 Z M 371.753906 140 "/>
<path style=" stroke:none;fill-rule:nonzero;fill:rgb(0%,0%,0%);fill-opacity:1;" d="M 371.753906 100 L 371.753906 80 L 391.753906 80 L 391.753906 100 Z M 371.753906 100 "/>
<path style=" stroke:none;fill-rule:nonzero;fill:rgb(0%,0%,0%);fill-opacity:1;" d="M 371.753906 60 L 371.753906 40 L 391.753906 40 L 391.753906 60 Z M 371.753906 60 "/>
<path style=" stroke:none;fill-rule:nonzero;fill:rgb(0%,0%,0%);fill-opacity:1;" d="M 371.753906 20 L 371.753906 0 L 391.753906 0 L 391.753906 20 Z M 371.753906 20 "/>
<path style=" stroke:none;fill-rule:nonzero;fill:rgb(0%,0%,0%);fill-opacity:1;" d="M -3.820312 200 L -3.820312 180 L 16.179688 180 L 16.179688 200 Z M -3.820312 200 "/>
<path style=" stroke:none;fill-rule:nonzero;fill:rgb(0%,0%,0%);fill-opacity:1;" d="M -3.820312 160 L -3.820312 140 L 16.179688 140 L 16.179688 160 Z M -3.820312 160 "/>
<path style=" stroke:none;fill-rule:nonzero;fill:rgb(0%,0%,0%);fill-opacity:1;" d="M -3.820312 120 L -3.820312 100 L 16.179688 100 L 16.179688 120 Z M -3.820312 120 "/>
<path style=" stroke:none;fill-rule:nonzero;fill:rgb(0%,0%,0%);fill-opacity:1;" d="M -3.820312 80 L -3.820312 60 L 16.179688 60 L 16.179688 80 Z M -3.820312 80 "/>
<path style=" stroke:none;fill-rule:nonzero;fill:rgb(0%,0%,0%);fill-opacity:1;" d="M -3.820312 40 L -3.820312 20 L 16.179688 20 L 16.179688 40 Z M -3.820312 40 "/>
<path style=" stroke:none;fill-rule:nonzero;fill:rgb(0%,0%,0%);fill-opacity:1;" d="M 32.179688 200 L 32.179688 180 L 52.179688 180 L 52.179688 200 Z M 32.179688 200 "/>
<path style=" stroke:none;fill-rule:nonzero;fill:rgb(0%,0%,0%);fill-opacity:1;" d="M 32.179688 160 L 32.179688 140 L 52.179688 140 L 52.179688 160 Z M 32.179688 160 "/>
<path style=" stroke:none;fill-rule:nonzero;fill:rgb(0%,0%,0%);fill-opacity:1;" d="M 32.179688 120 L 32.179688 100 L 52.179688 100 L 52.179688 120 Z M 32.179688 120 "/>
<path style=" stroke:none;fill-rule:nonzero;fill:rgb(0%,0%,0%);fill-opacity:1;" d="M 32.179688 80 L 32.179688 60 L 52.179688 60 L 52.179688 80 Z M 32.179688 80 "/>
<path style=" stroke:none;fill-rule:nonzero;fill:rgb(0%,0%,0%);fill-opacity:1;" d="M 32.179688 40 L 32.179688 20 L 52.179688 20 L 52.179688 40 Z M 32.179688 40 "/>
<path style=" stroke:none;fill-rule:nonzero;fill:rgb(0%,0%,0%);fill-opacity:1;" d="M 68.179688 200 L 68.179688 180 L 88.179688 180 L 88.179688 200 Z M 68.179688 200 "/>
<path style=" stroke:none;fill-rule:nonzero;fill:rgb(0%,0%,0%);fill-opacity:1;" d="M 68.179688 160 L 68.179688 140 L 88.179688 140 L 88.179688 160 Z M 68.179688 160 "/>
<path style=" stroke:none;fill-rule:nonzero;fill:rgb(0%,0%,0%);fill-opacity:1;" d="M 68.179688 120 L 68.179688 100 L 88.179688 100 L 88.179688 120 Z M 68.179688 120 "/>
<path style=" stroke:none;fill-rule:nonzero;fill:rgb(0%,0%,0%);fill-opacity:1;" d="M 68.179688 80 L 68.179688 60 L 88.179688 60 L 88.179688 80 Z M 68.179688 80 "/>
<path style=" stroke:none;fill-rule:nonzero;fill:rgb(0%,0%,0%);fill-opacity:1;" d="M 68.179688 40 L 68.179688 20 L 88.179688 20 L 88.179688 40 Z M 68.179688 40 "/>
<path style=" stroke:none;fill-rule:nonzero;fill:rgb(0%,0%,0%);fill-opacity:1;" d="M 104.179688 200 L 104.179688 180 L 124.179688 180 L 124.179688 200 Z M 104.179688 200 "/>
<path style=" stroke:none;fill-rule:nonzero;fill:rgb(0%,0%,0%);fill-opacity:1;" d="M 104.179688 160 L 104.179688 140 L 124.179688 140 L 124.179688 160 Z M 104.179688 160 "/>
<path style=" stroke:none;fill-rule:nonzero;fill:rgb(0%,0%,0%);fill-opacity:1;" d="M 104.179688 120 L 104.179688 100 L 124.179688 100 L 124.179688 120 Z M 104.179688 120 "/>
<path style=" stroke:none;fill-rule:nonzero;fill:rgb(0%,0%,0%);fill-opacity:1;" d="M 104.179688 80 L 104.179688 60 L 124.179688 60 L 124.179688 80 Z M 104.179688 80 "/>
<path style=" stroke:none;fill-rule:nonzero;fill:rgb(0%,0%,0%);fill-opacity:1;" d="M 104.179688 40 L 104.179688 20 L 124.179688 20 L 124.179688 40 Z M 104.179688 40 "/>
<path style=" stroke:none;fill-rule:nonzero;fill:rgb(0%,0%,0%);fill-opacity:1;" d="M 140.179688 200 L 140.179688 180 L 160.179688 180 L 160.179688 200 Z M 140.179688 200 "/>
<path style=" stroke:none;fill-rule:nonzero;fill:rgb(0%,0%,0%);fill-opacity:1;" d="M 140.179688 160 L 140.179688 140 L 160.179688 140 L 160.179688 160 Z M 140.179688 160 "/>
<path style=" stroke:none;fill-rule:nonzero;fill:rgb(0%,0%,0%);fill-opacity:1;" d="M 140.179688 120 L 140.179688 100 L 160.179688 100 L 160.179688 120 Z M 140.179688 120 "/>
<path style=" stroke:none;fill-rule:nonzero;fill:rgb(0%,0%,0%);fill-opacity:1;" d="M 140.179688 80 L 140.179688 60 L 160.179688 60 L 160.179688 80 Z M 140.179688 80 "/>
<path style=" stroke:none;fill-rule:nonzero;fill:rgb(0%,0%,0%);fill-opacity:1;" d="M 140.179688 40 L 140.179688 20 L 160.179688 20 L 160.179688 40 Z M 140.179688 40 "/>
<path style=" stroke:none;fill-rule:nonzero;fill:rgb(0%,0%,0%);fill-opacity:1;" d="M 176.179688 200 L 176.179688 180 L 196.179688 180 L 196.179688 200 Z M 176.179688 200 "/>
<path style=" stroke:none;fill-rule:nonzero;fill:rgb(0%,0%,0%);fill-opacity:1;" d="M 176.179688 160 L 176.179688 140 L 196.179688 140 L 196.179688 160 Z M 176.179688 160 "/>
<path style=" stroke:none;fill-rule:nonzero;fill:rgb(0%,0%,0%);fill-opacity:1;" d="M 176.179688 120 L 176.179688 100 L 196.179688 100 L 196.179688 120 Z M 176.179688 120 "/>
<path style=" stroke:none;fill-rule:nonzero;fill:rgb(0%,0%,0%);fill-opacity:1;" d="M 176.179688 80 L 176.179688 60 L 196.179688 60 L 196.179688 80 Z M 176.179688 80 "/>
<path style=" stroke:none;fill-rule:nonzero;fill:rgb(0%,0%,0%);fill-opacity:1;" d="M 176.179688 40 L 176.179688 20 L 196.179688 20 L 196.179688 40 Z M 176.179688 40 "/>
<path style=" stroke:none;fill-rule:nonzero;fill:rgb(0%,0%,0%);fill-opacity:1;" d="M 212.179688 200 L 212.179688 180 L 232.179688 180 L 232.179688 200 Z M 212.179688 200 "/>
<path style=" stroke:none;fill-rule:nonzero;fill:rgb(0%,0%,0%);fill-opacity:1;" d="M 212.179688 160 L 212.179688 140 L 232.179688 140 L 232.179688 160 Z M 212.179688 160 "/>
<path style=" stroke:none;fill-rule:nonzero;fill:rgb(0%,0%,0%);fill-opacity:1;" d="M 212.179688 120 L 212.179688 100 L 232.179688 100 L 232.179688 120 Z M 212.179688 120 "/>
<path style=" stroke:none;fill-rule:nonzero;fill:rgb(0%,0%,0%);fill-opacity:1;" d="M 212.179688 80 L 212.179688 60 L 232.179688 60 L 232.179688 80 Z M 212.179688 80 "/>
<path style=" stroke:none;fill-rule:nonzero;fill:rgb(0%,0%,0%);fill-opacity:1;" d="M 212.179688 40 L 212.179688 20 L 232.179688 20 L 232.179688 40 Z M 212.179688 40 "/>
<path style=" stroke:none;fill-rule:nonzero;fill:rgb(0%,0%,0%);fill-opacity:1;" d="M 248.179688 200 L 248.179688 180 L 268.179688 180 L 268.179688 200 Z M 248.179688 200 "/>
<path style=" stroke:none;fill-rule:nonzero;fill:rgb(0%,0%,0%);fill-opacity:1;" d="M 248.179688 160 L 248.179688 140 L 268.179688 140 L 268.179688 160 Z M 248.179688 160 "/>
<path style=" stroke:none;fill-rule:nonzero;fill:rgb(0%,0%,0%);fill-opacity:1;" d="M 248.179688 120 L 248.179688 100 L 268.179688 100 L 268.179688 120 Z M 248.179688 120 "/>
<path style=" stroke:none;fill-rule:nonzero;fill:rgb(0%,0%,0%);fill-opacity:1;" d="M 248.179688 80 L 248.179688 60 L 268.179688 60 L 268.179688 80 Z M 248.179688 80 "/>
<path style=" stroke:none;fill-rule:nonzero;fill:rgb(0%,0%,0%);fill-opacity:1;" d="M 248.179688 40 L 248.179688 20 L 268.179688 20 L 268.179688 40 Z M 248.179688 40 "/>
<path style=" stroke:none;fill-rule:nonzero;fill:rgb(0%,0%,0%);fill-opacity:1;" d="M 284.179688 200 L 284.179688 180 L 304.179688 180 L 304.179688 200 Z M 284.179688 200 "/>
<path style=" stroke:none;fill-rule:nonzero;fill:rgb(0%,0%,0%);fill-opacity:1;" d="M 284.179688 160 L 284.179688 140 L 304.179688 140 L 304.179688 160 Z M 284.179688 160 "/>
<path style=" stroke:none;fill-rule:nonzero;fill:rgb(0%,0%,0%);fill-opacity:1;" d="M 284.179688 120 L 284.179688 100 L 304.179688 100 L 304.179688 120 Z M 284.179688 120 "/>
<path style=" stroke:none;fill-rule:nonzero;fill:rgb(0%,0%,0%);fill-opacity:1;" d="M 284.179688 80 L 284.179688 60 L 304.179688 60 L 304.179688 80 Z M 284.179688 80 "/>
<path style=" stroke:none;fill-rule:nonzero;fill:rgb(0%,0%,0%);fill-opacity:1;" d="M 284.179688 40 L 284.179688 20 L 304.179688 20 L 304.179688 40 Z M 284.179688 40 "/>
<path style=" stroke:none;fill-rule:nonzero;fill:rgb(0%,0%,0%);fill-opacity:1;" d="M 320.179688 200 L 320.179688 180 L 340.179688 180 L 340.179688 200 Z M 320.179688 200 "/>
<path style=" stroke:none;fill-rule:nonzero;fill:rgb(0%,0%,0%);fill-opacity:1;" d="M 320.179688 160 L 320.179688 140 L 340.179688 140 L 340.179688 160 Z M 320.179688 160 "/>
<path style=" stroke:none;fill-rule:nonzero;fill:rgb(0%,0%,0%);fill-opacity:1;" d="M 320.179688 120 L 320.179688 100 L 340.179688 100 L 340.179688 120 Z M 320.179688 120 "/>
<path style=" stroke:none;fill-rule:nonzero;fill:rgb(0%,0%,0%);fill-opacity:1;" d="M 320.179688 80 L 320.179688 60 L 340.179688 60 L 340.179688 80 Z M 320.179688 80 "/>
<path style=" stroke:none;fill-rule:nonzero;fill:rgb(0%,0%,0%);fill-opacity:1;" d="M 320.179688 40 L 320.179688 20 L 340.179688 20 L 340.179688 40 Z M 320.179688 40 "/>
<path style=" stroke:none;fill-rule:nonzero;fill:rgb(0%,0%,0%);fill-opacity:1;" d="M 356.179688 200 L 356.179688 180 L 376.179688 180 L 376.179688 200 Z M 356.179688 200 "/>
<path style=" stroke:none;fill-rule:nonzero;fill:rgb(0%,0%,0%);fill-opacity:1;" d="M 356.179688 160 L 356.179688 140 L 376.179688 140 L 376.179688 160 Z M 356.179688 160 "/>
<path style=" stroke:none;fill-rule:nonzero;fill:rgb(0%,0%,0%);fill-opacity:1;" d="M 356.179688 120 L 356.179688 100 L 376.179688 100 L 376.179688 120 Z M 356.179688 120 "/>
<path style=" stroke:none;fill-rule:nonzero;fill:rgb(0%,0%,0%);fill-opacity:1;" d="M 356.179688 80 L 356.179688 60 L 376.179688 60 L 376.179688 80 Z M 356.179688 80 "/>
<path style=" stroke:none;fill-rule:nonzero;fill:rgb(0%,0%,0%);fill-opacity:1;" d="M 356.179688 40 L 356.179688 20 L 376.179688 20 L 376.179688 40 Z M 356.179688 40 "/>
<path style=" stroke:none;fill-rule:nonzero;fill:rgb(0%,0%,0%);fill-opacity:1;" d="M 392.179688 200 L 392.179688 180 L 412.179688 180 L 412.179688 200 Z M 392.179688 200 "/>
<path style=" stroke:none;fill-rule:nonzero;fill:rgb(0%,0%,0%);fill-opacity:1;" d="M 392.179688 160 L 392.179688 140 L 412.179688 140 L 412.179688 160 Z M 392.179688 160 "/>
<path style=" stroke:none;fill-rule:nonzero;fill:rgb(0%,0%,0%);fill-opacity:1;" d="M 392.179688 120 L 392.179688 100 L 412.179688 100 L 412.179688 120 Z M 392.179688 120 "/>
<path style=" stroke:none;fill-rule:nonzero;fill:rgb(0%,0%,0%);fill-opacity:1;" d="M 392.179688 80 L 392.179688 60 L 412.179688 60 L 412.179688 80 Z M 392.179688 80 "/>
<path style=" stroke:none;fill-rule:nonzero;fill:rgb(0%,0%,0%);fill-opacity:1;" d="M 392.179688 40 L 392.179688 20 L 412.179688 20 L 412.179688 40 Z M 392.179688 40 "/>
<path style="fill:none;stroke-width:1;stroke-linecap:square;stroke-linejoin:miter;stroke:rgb(100%,0%,0%);stroke-opacity:1;stroke-miterlimit:3.25;" d="M 0 220 L 400 220 "/>
<path style="fill:none;stroke-width:1;stroke-linecap:square;stroke-linejoin:miter;stroke:rgb(100%,0%,0%);stroke-opacity:1;stroke-miterlimit:3.25;" d="M 0 200 L 400 200 "/>
<path style="fill:none;stroke-width:1;stroke-linecap:square;stroke-linejoin:miter;stroke:rgb(100%,0%,0%);stroke-opacity:1;stroke-miterlimit:3.25;" d="M 0 180 L 400 180 "/>
<path style="fill:none;stroke-width:1;stroke-linecap:square;stroke-linejoin:miter;stroke:rgb(100%,0%,0%);stroke-opacity:1;stroke-miterlimit:3.25;" d="M 0 160 L 400 160 "/>
<path style="fill:none;stroke-width:1;stroke-linecap:square;stroke-linejoin:miter;stroke:rgb(100%,0%,0%);stroke-opacity:1;stroke-miterlimit:3.25;" d="M 0 140 L 400 140 "/>
<path style="fill:none;stroke-width:1;stroke-linecap:square;stroke-linejoin:miter;stroke:rgb(100%,0%,0%);stroke-opacity:1;stroke-miterlimit:3.25;" d="M 0 120 L 400 120 "/>
<path style="fill:none;stroke-width:1;stroke-linecap:square;stroke-linejoin:miter;stroke:rgb(100%,0%,0%);stroke-opacity:1;stroke-miterlimit:3.25;" d="M 0 100 L 400 100 "/>
<path style="fill:none;stroke-width:1;stroke-linecap:square;stroke-linejoin:miter;stroke:rgb(100%,0%,0%);stroke-opacity:1;stroke-miterlimit:3.25;" d="M 0 80 L 400 80 "/>
<path style="fill:none;stroke-width:1;stroke-linecap:square;stroke-linejoin:miter;stroke:rgb(100%,0%,0%);stroke-opacity:1;stroke-miterlimit:3.25;" d="M 0 60 L 400 60 "/>
<path style="fill:none;stroke-width:1;stroke-linecap:square;stroke-linejoin:miter;stroke:rgb(100%,0%,0%);stroke-opacity:1;stroke-miterlimit:3.25;" d="M 0 40 L 400 40 "/>
<path style="fill:none;stroke-width:1;stroke-linecap:square;stroke-linejoin:miter;stroke:rgb(100%,0%,0%);stroke-opacity:1;stroke-miterlimit:3.25;" d="M 0 20 L 400 20 "/>
</g>
</svg>
