<?xml version="1.0" encoding="UTF-8"?>
<svg xmlns="http://www.w3.org/2000/svg" xmlns:xlink="http://www.w3.org/1999/xlink" width="400pt" height="220pt" viewBox="0 0 400 220" version="1.1">
<g id="surface971">
<rect x="0" y="0" width="400" height="220" style="fill:rgb(0%,40%,100%);fill-opacity:0.2;stroke:none;"/>
<path style=" stroke:none;fill-rule:nonzero;fill:rgb(0%,0%,0%);fill-opacity:1;" d="M -6.179688 220 L -6.179688 200 L 13.820312 200 L 13.820312 220 Z M -6.179688 220 "/>
<path style=" stroke:none;fill-rule:nonzero;fill:rgb(0%,0%,0%);fill-opacity:1;" d="M -6.179688 180 L -6.179688 160 L 13.820312 160 L 13.820312 180 Z M -6.179688 180 "/>
<path style=" stroke:none;fill-rule:nonzero;fill:rgb(0%,0%,0%);fill-opacity:1;" d="M -6.179688 140 L -6.179688 120 L 13.820312 120 L 13.820312 140 Z M -6.179688 140 "/>
<path style=" stroke:none;fill-rule:nonzero;fill:rgb(0%,0%,0%);fill-opacity:1;" d="M -6.179688 100 L -6.179688 80 L 13.820312 80 L 13.820312 100 Z M -6.179688 100 "/>
<path style=" stroke:none;fill-rule:nonzero;fill:rgb(0%,0%,0%);fill-opacity:1;" d="M -6.179688 60 L -6.179688 40 L 13.820312 40 L 13.820312 60 Z M -6.179688 60 "/>
<path style=" stroke:none;fill-rule:nonzero;fill:rgb(0%,0%,0%);fill-opacity:1;" d="M -6.179688 20 L -6.179688 0 L 13.820312 0 L 13.820312 20 Z M -6.179688 20 "/>
<path style=" stroke:none;fill-rule:nonzero;fill:rgb(0%,0%,0%);fill-opacity:1;" d="M 29.820312 220 L 29.820312 200 L 49.820312 200 L 49.820312 220 Z M 29.820312 220 "/>
<path style=" stroke:none;fill-rule:nonzero;fill:rgb(0%,0%,0%);fill-opacity:1;" d="M 29.820312 180 L 29.820312 160 L 49.820312 160 L 49.820312 180 Z M 29.820312 180 "/>
<path style=" stroke:none;fill-rule:nonzero;fill:rgb(0%,0%,0%);fill-opacity:1;" d="M 29.820312 140 L 29.820312 120 L 49.820312 120 L 49.820312 140 Z M 29.820312 140 "/>
<path style=" stroke:none;fill-rule:nonzero;fill:rgb(0%,0%,0%);fill-opacity:1;" d="M 29.820312 100 L 29.820312 80 L 49.820312 80 L 49.820312 100 Z M 29.820312 100 "/>
<path style=" stroke:none;fill-rule:nonzero;fill:rgb(0%,0%,0%);fill-opacity:1;" d="M 29.820312 60 L 29.820312 40 L 49.820312 40 L 49.820312 60 Z M 29.820312 60 "/>
<path style=" stroke:none;fill-rule:nonzero;fill:rgb(0%,0%,0%);fill-opacity:1;" d="M 29.820312 20 L 29.820312 0 L 49.820312 0 L 49.820312 20 Z M 29.820312 20 "/>
<path style=" stroke:none;fill-rule:nonzero;fill:rgb(0%,0%,0%);fill-opacity:1;" d="M 65.820312 220 L 65.820312 200 L 85.820312 200 L 85.820312 220 Z M 65.820312 220 "/>
<path style=" stroke:none;fill-rule:nonzero;fill:rgb(0%,0%,0%);fill-opacity:1;" d="M 65.820312 180 L 65.820312 160 L 85.820312 160 L 85.820312 180 Z M 65.820312 180 "/>
<path style=" stroke:none;fill-rule:nonzero;fill:rgb(0%,0%,0%);fill-opacity:1;" d="M 65.820312 140 L 65.820312 120 L 85.820312 120 L 85.820312 140 Z M 65.820312 140 "/>
<path style=" stroke:none;fill-rule:nonzero;fill:rgb(0%,0%,0%);fill-opacity:1;" d="M 65.820312 100 L 65.820312 80 L 85.820312 80 L 85.820312 100 Z M 65.820312 100 "/>
<path style=" stroke:none;fill-rule:nonzero;fill:rgb(0%,0%,0%);fill-opacity:1;" d="M 65.820312 60 L 65.820312 40 L 85.820312 40 L 85.820312 60 Z M 65.820312 60 "/>
<path style=" stroke:none;fill-rule:nonzero;fill:rgb(0%,0%,0%);fill-opacity:1;" d="M 65.820312 20 L 65.820312 0 L 85.820312 0 L 85.820312 20 Z M 65.820312 20 "/>
<path style=" stroke:none;fill-rule:nonzero;fill:rgb(0%,0%,0%);fill-opacity:1;" d="M 101.820312 220 L 101.820312 200 L 121.820312 200 L 121.820312 220 Z M 101.820312 220 "/>
<path style=" stroke:none;fill-rule:nonzero;fill:rgb(0%,0%,0%);fill-opacity:1;" d="M 101.820312 180 L 101.820312 160 L 121.820312 160 L 121.820312 180 Z M 101.820312 180 "/>
<path style=" stroke:none;fill-rule:nonzero;fill:rgb(0%,0%,0%);fill-opacity:1;" d="M 101.820312 140 L 101.820312 120 L 121.820312 120 L 121.820312 140 Z M 101.820312 140 "/>
<path style=" stroke:none;fill-rule:nonzero;fill:rgb(0%,0%,0%);fill-opacity:1;" d="M 101.820312 100 L 101.820312 80 L 121.820312 80 L 121.820312 100 Z M 101.820312 100 "/>
<path style=" stroke:none;fill-rule:nonzero;fill:rgb(0%,0%,0%);fill-opacity:1;" d="M 101.820312 60 L 101.820312 40 L 121.820312 40 L 121.820312 60 Z M 101.820312 60 "/>
<path style=" stroke:none;fill-rule:nonzero;fill:rgb(0%,0%,0%);fill-opacity:1;" d="M 101.820312 20 L 101.820312 0 L 121.820312 0 L 121.820312 20 Z M 101.820312 20 "/>
<path style=" stroke:none;fill-rule:nonzero;fill:rgb(0%,0%,0%);fill-opacity:1;" d="M 137.820312 220 L 137.820312 200 L 157.820312 200 L 157.820312 220 Z M 137.820312 220 "/>
<path style=" stroke:none;fill-rule:nonzero;fill:rgb(0%,0%,0%);fill-opacity:1;" d="M 137.820312 180 L 137.820312 160 L 157.820312 160 L 157.820312 180 Z M 137.820312 180 "/>
<path style=" stroke:none;fill-rule:nonzero;fill:rgb(0%,0%,0%);fill-opacity:1;" d="M 137.820312 140 L 137.820312 120 L 157.820312 120 L 157.820312 140 Z M 137.820312 140 "/>
<path style=" stroke:none;fill-rule:nonzero;fill:rgb(0%,0%,0%);fill-opacity:1;" d="M 137.820312 100 L 137.820312 80 L 157.820312 80 L 157.820312 100 Z M 137.820312 100 "/>
<path style=" stroke:none;fill-rule:nonzero;fill:rgb(0%,0%,0%);fill-opacity:1;" d="M 137.820312 60 L 137.820312 40 L 157.820312 40 L 157.820312 60 Z M 137.820312 60 "/>
<path style=" stroke:none;fill-rule:nonzero;fill:rgb(0%,0%,0%);fill-opacity:1;" d="M 137.820312 20 L 137.820312 0 L 157.820312 0 L 157.820312 20 Z M 137.820312 20 "/>
<path style=" stroke:none;fill-rule:nonzero;fill:rgb(0%,0%,0%);fill-opacity:1;" d="M 173.820312 220 L 173.820312 200 L 193.820312 200 L 193.820312 220 Z M 173.820312 220 "/>
<path style=" stroke:none;fill-rule:nonzero;fill:rgb(0%,0%,0%);fill-opacity:1;" d="M 173.820312 180 L 173.820312 160 L 193.820312 160 L 193.820312 180 Z M 173.820312 180 "/>
<path style=" stroke:none;fill-rule:nonzero;fill:rgb(0%,0%,0%);fill-opacity:1;" d="M 173.820312 140 L 173.820312 120 L 193.820312 120 L 193.820312 140 Z M 173.820312 140 "/>
<path style=" stroke:none;fill-rule:nonzero;fill:rgb(0%,0%,0%);fill-opacity:1;" d="M 173.820312 100 L 173.820312 80 L 193.820312 80 L 193.820312 100 Z M 173.820312 100 "/>
<path style=" stroke:none;fill-rule:nonzero;fill:rgb(0%,0%,0%);fill-opacity:1;" d="M 173.820312 60 L 173.820312 40 L 193.820312 40 L 193.820312 60 Z M 173.820312 60 "/>
<path style=" stroke:none;fill-rule:nonzero;fill:rgb(0%,0%,0%);fill-opacity:1;" d="M 173.820312 20 L 173.820312 0 L 193.820312 0 L 193.820312 20 Z M 173.820312 20 "/>
<path style=" stroke:none;fill-rule:nonzero;fill:rgb(0%,0%,0%);fill-opacity:1;" d="M 209.820312 220 L 209.820312 200 L 229.820312 200 L 229.820312 220 Z M 209.820312 220 "/>
<path style=" stroke:none;fill-rule:nonzero;fill:rgb(0%,0%,0%);fill-opacity:1;" d="M 209.820312 180 L 209.820312 160 L 229.820312 160 L 229.820312 180 Z M 209.820312 180 "/>
<path style=" stroke:none;fill-rule:nonzero;fill:rgb(0%,0%,0%);fill-opacity:1;" d="M 209.820312 140 L 209.820312 120 L 229.820312 120 L 229.820312 140 Z M 209.820312 140 "/>
<path style=" stroke:none;fill-rule:nonzero;fill:rgb(0%,0%,0%);fill-opacity:1;" d="M 209.820312 100 L 209.820312 80 L 229.820312 80 L 229.820312 100 Z M 209.820312 100 "/>
<path style=" stroke:none;fill-rule:nonzero;fill:rgb(0%,0%,0%);fill-opacity:1;" d="M 209.820312 60 L 209.820312 40 L 229.820312 40 L 229.820312 60 Z M 209.820312 60 "/>
<path style=" stroke:none;fill-rule:nonzero;fill:rgb(0%,0%,0%);fill-opacity:1;" d="M 209.820312 20 L 209.820312 0 L 229.820312 0 L 229.820312 20 Z M 209.820312 20 "/>
<path style=" stroke:none;fill-rule:nonzero;fill:rgb(0%,0%,0%);fill-opacity:1;" d="M 245.820312 220 L 245.820312 200 L 265.820312 200 L 265.820312 220 Z M 245.820312 220 "/>
<path style=" stroke:none;fill-rule:nonzero;fill:rgb(0%,0%,0%);fill-opacity:1;" d="M 245.820312 180 L 245.820312 160 L 265.820312 160 L 265.820312 180 Z M 245.820312 180 "/>
<path style=" stroke:none;fill-rule:nonzero;fill:rgb(0%,0%,0%);fill-opacity:1;" d="M 245.820312 140 L 245.820312 120 L 265.820312 120 L 265.820312 140 Z M 245.820312 140 "/>
<path style=" stroke:none;fill-rule:nonzero;fill:rgb(0%,0%,0%);fill-opacity:1;" d="M 245.820312 100 L 245.820312 80 L 265.820312 80 L 265.820312 100 Z M 245.820312 100 "/>
<path style=" stroke:none;fill-rule:nonzero;fill:rgb(0%,0%,0%);fill-opacity:1;" d="M 245.820312 60 L 245.820312 40 L 265.820312 40 L 265.820312 60 Z M 245.820312 60 "/>
<path style=" stroke:none;fill-rule:nonzero;fill:rgb(0%,0%,0%);fill-opacity:1;" d="M 245.820312 20 L 245.820312 0 L 265.820312 0 L 265.820312 20 Z M 245.820312 20 "/>
<path style=" stroke:none;fill-rule:nonzero;fill:rgb(0%,0%,0%);fill-opacity:1;" d="M 281.820312 220 L 281.820312 200 L 301.820312 200 L 301.820312 220 Z M 281.820312 220 "/>
<path style=" stroke:none;fill-rule:nonzero;fill:rgb(0%,0%,0%);fill-opacity:1;" d="M 281.820312 180 L 281.820312 160 L 301.820312 160 L 301.820312 180 Z M 281.820312 180 "/>
<path style=" stroke:none;fill-rule:nonzero;fill:rgb(0%,0%,0%);fill-opacity:1;" d="M 281.820312 140 L 281.820312 120 L 301.820312 120 L 301.820312 140 Z M 281.820312 140 "/>
<path style=" stroke:none;fill-rule:nonzero;fill:rgb(0%,0%,0%);fill-opacity:1;" d="M 281.820312 100 L 281.820312 80 L 301.820312 80 L 301.820312 100 Z M 281.820312 100 "/>
<path style=" stroke:none;fill-rule:nonzero;fill:rgb(0%,0%,0%);fill-opacity:1;" d="M 281.820312 60 L 281.820312 40 L 301.820312 40 L 301.820312 60 Z M 281.820312 60 "/>
<path style=" stroke:none;fill-rule:nonzero;fill:rgb(0%,0%,0%);fill-opacity:1;" d="M 281.820312 20 L 281.820312 0 L 301.820312 0 L 301.820312 20 Z M 281.820312 20 "/>
<path style=" stroke:none;fill-rule:nonzero;fill:rgb(0%,0%,0%);fill-opacity:1;" d="M 317.820312 220 L 317.820312 200 L 337.820312 200 L 337.820312 220 Z M 317.820312 220 "/>
<path style=" stroke:none;fill-rule:nonzero;fill:rgb(0%,0%,0%);fill-opacity:1;" d="M 317.820312 180 L 317.820312 160 L 337.820312 160 L 337.820312 180 Z M 317.820312 180 "/>
<path style=" stroke:none;fill-rule:nonzero;fill:rgb(0%,0%,0%);fill-opacity:1;" d="M 317.820312 140 L 317.820312 120 L 337.820312 120 L 337.820312 140 Z M 317.820312 140 "/>
<path style=" stroke:none;fill-rule:nonzero;fill:rgb(0%,0%,0%);fill-opacity:1;" d="M 317.820312 100 L 317.820312 80 L 337.820312 80 L 337.820312 100 Z M 317.820312 100 "/>
<path style=" stroke:none;fill-rule:nonzero;fill:rgb(0%,0%,0%);fill-opacity:1;" d="M 317.820312 60 L 317.820312 40 L 337.820312 40 L 337.820312 60 Z M 317.820312 60 "/>
<path style=" stroke:none;fill-rule:nonzero;fill:rgb(0%,0%,0%);fill-opacity:1;" d="M 317.820312 20 L 317.820312 0 L 337.820312 0 L 337.820312 20 Z M 317.820312 20 "/>
<path style=" stroke:none;fill-rule:nonzero;fill:rgb(0%,0%,0%);fill-opacity:1;" d="M 353.820312 220 L 353.820312 200 L 373.820312 200 L 373.820312 220 Z M 353.820312 220 "/>
<path style=" stroke:none;fill-rule:nonzero;fill:rgb(0%,0%,0%);fill-opacity:1;" d="M 353.820312 180 L 353.820312 160 L 373.820312 160 L 373.820312 180 Z M 353.820312 180 "/>
<path style=" stroke:none;fill-rule:nonzero;fill:rgb(0%,0%,0%);fill-opacity:1;" d="M 353.820312 140 L 353.820312 120 L 373.820312 120 L 373.820312 140 Z M 353.820312 140 "/>
<path style=" stroke:none;fill-rule:nonzero;fill:rgb(0%,0%,0%);fill-opacity:1;" d="M 353.820312 100 L 353.820312 80 L 373.820312 80 L 373.820312 100 Z M 353.820312 100 "/>
<path style=" stroke:none;fill-rule:nonzero;fill:rgb(0%,0%,0%);fill-opacity:1;" d="M 353.820312 60 L 353.820312 40 L 373.820312 40 L 373.820312 60 Z M 353.820312 60 "/>
<path style=" stroke:none;fill-rule:nonzero;fill:rgb(0%,0%,0%);fill-opacity:1;" d="M 353.820312 20 L 353.820312 0 L 373.820312 0 L 373.820312 20 Z M 353.820312 20 "/>
<path style=" stroke:none;fill-rule:nonzero;fill:rgb(0%,0%,0%);fill-opacity:1;" d="M 389.820312 220 L 389.820312 200 L 409.820312 200 L 409.820312 220 Z M 389.820312 220 "/>
<path style=" stroke:none;fill-rule:nonzero;fill:rgb(0%,0%,0%);fill-opacity:1;" d="M 389.820312 180 L 389.820312 160 L 409.820312 160 L 409.820312 180 Z M 389.820312 180 "/>
<path style=" stroke:none;fill-rule:nonzero;fill:rgb(0%,0%,0%);fill-opacity:1;" d="M 389.820312 140 L 389.820312 120 L 409.820312 120 L 409.820312 140 Z M 389.820312 140 "/>
<path style=" stroke:none;fill-rule:nonzero;fill:rgb(0%,0%,0%);fill-opacity:1;" d="M 389.820312 100 L 389.820312 80 L 409.820312 80 L 409.820312 100 Z M 389.820312 100 "/>
<path style=" stroke:none;fill-rule:nonzero;fill:rgb(0%,0%,0%);fill-opacity:1;" d="M 389.820312 60 L 389.820312 40 L 409.820312 40 L 409.820312 60 Z M 389.820312 60 "/>
<path style=" stroke:none;fill-rule:nonzero;fill:rgb(0%,0%,0%);fill-opacity:1;" d="M 389.820312 20 L 389.820312 0 L 409.820312 0 L 409.820312 20 Z M 389.820312 20 "/>
<path style=" stroke:none;fill-rule:nonzero;fill:rgb(0%,0%,0%);fill-opacity:1;" d="M -3.019531 200 L -3.019531 180 L 16.980469 180 L 16.980469 200 Z M -3.019531 200 "/>
<path style=" stroke:none;fill-rule:nonzero;fill:rgb(0%,0%,0%);fill-opacity:1;" d="M -3.019531 160 L -3.019531 140 L 16.980469 140 L 16.980469 160 Z M -3.019531 160 "/>
<path style=" stroke:none;fill-rule:nonzero;fill:rgb(0%,0%,0%);fill-opacity:1;" d="M -3.019531 120 L -3.019531 100 L 16.980469 100 L 16.980469 120 Z M -3.019531 120 "/>
<path style=" stroke:none;fill-rule:nonzero;fill:rgb(0%,0%,0%);fill-opacity:1;" d="M -3.019531 80 L -3.019531 60 L 16.980469 60 L 16.980469 80 Z M -3.019531 80 "/>
<path style=" stroke:none;fill-rule:nonzero;fill:rgb(0%,0%,0%);fill-opacity:1;" d="M -3.019531 40 L -3.019531 20 L 16.980469 20 L 16.980469 40 Z M -3.019531 40 "/>
<path style=" stroke:none;fill-rule:nonzero;fill:rgb(0%,0%,0%);fill-opacity:1;" d="M 32.980469 200 L 32.980469 180 L 52.980469 180 L 52.980469 200 Z M 32.980469 200 "/>
<path style=" stroke:none;fill-rule:nonzero;fill:rgb(0%,0%,0%);fill-opacity:1;" d="M 32.980469 160 L 32.980469 140 L 52.980469 140 L 52.980469 160 Z M 32.980469 160 "/>
<path style=" stroke:none;fill-rule:nonzero;fill:rgb(0%,0%,0%);fill-opacity:1;" d="M 32.980469 120 L 32.980469 100 L 52.980469 100 L 52.980469 120 Z M 32.980469 120 "/>
<path style=" stroke:none;fill-rule:nonzero;fill:rgb(0%,0%,0%);fill-opacity:1;" d="M 32.980469 80 L 32.980469 60 L 52.980469 60 L 52.980469 80 Z M 32.980469 80 "/>
<path style=" stroke:none;fill-rule:nonzero;fill:rgb(0%,0%,0%);fill-opacity:1;" d="M 32.980469 40 L 32.980469 20 L 52.980469 20 L 52.980469 40 Z M 32.980469 40 "/>
<path style=" stroke:none;fill-rule:nonzero;fill:rgb(0%,0%,0%);fill-opacity:1;" d="M 68.980469 200 L 68.980469 180 L 88.980469 180 L 88.980469 200 Z M 68.980469 200 "/>
<path style=" stroke:none;fill-rule:nonzero;fill:rgb(0%,0%,0%);fill-opacity:1;" d="M 68.980469 160 L 68.980469 140 L 88.980469 140 L 88.980469 160 Z M 68.980469 160 "/>
<path style=" stroke:none;fill-rule:nonzero;fill:rgb(0%,0%,0%);fill-opacity:1;" d="M 68.980469 120 L 68.980469 100 L 88.980469 100 L 88.980469 120 Z M 68.980469 120 "/>
<path style=" stroke:none;fill-rule:nonzero;fill:rgb(0%,0%,0%);fill-opacity:1;" d="M 68.980469 80 L 68.980469 60 L 88.980469 60 L 88.980469 80 Z M 68.980469 80 "/>
<path style=" stroke:none;fill-rule:nonzero;fill:rgb(0%,0%,0%);fill-opacity:1;" d="M 68.980469 40 L 68.980469 20 L 88.980469 20 L 88.980469 40 Z M 68.980469 40 "/>
<path style=" stroke:none;fill-rule:nonzero;fill:rgb(0%,0%,0%);fill-opacity:1;" d="M 104.980469 200 L 104.980469 180 L 124.980469 180 L 124.980469 200 Z M 104.980469 200 "/>
<path style=" stroke:none;fill-rule:nonzero;fill:rgb(0%,0%,0%);fill-opacity:1;" d="M 104.980469 160 L 104.980469 140 L 124.980469 140 L 124.980469 160 Z M 104.980469 160 "/>
<path style=" stroke:none;fill-rule:nonzero;fill:rgb(0%,0%,0%);fill-opacity:1;" d="M 104.980469 120 L 104.980469 100 L 124.980469 100 L 124.980469 120 Z M 104.980469 120 "/>
<path style=" stroke:none;fill-rule:nonzero;fill:rgb(0%,0%,0%);fill-opacity:1;" d="M 104.980469 80 L 104.980469 60 L 124.980469 60 L 124.980469 80 Z M 104.980469 80 "/>
<path style=" stroke:none;fill-rule:nonzero;fill:rgb(0%,0%,0%);fill-opacity:1;" d="M 104.980469 40 L 104.980469 20 L 124.980469 20 L 124.980469 40 Z M 104.980469 40 "/>
<path style=" stroke:none;fill-rule:nonzero;fill:rgb(0%,0%,0%);fill-opacity:1;" d="M 140.980469 200 L 140.980469 180 L 160.980469 180 L 160.980469 200 Z M 140.980469 200 "/>
<path style=" stroke:none;fill-rule:nonzero;fill:rgb(0%,0%,0%);fill-opacity:1;" d="M 140.980469 160 L 140.980469 140 L 160.980469 140 L 160.980469 160 Z M 140.980469 160 "/>
<path style=" stroke:none;fill-rule:nonzero;fill:rgb(0%,0%,0%);fill-opacity:1;" d="M 140.980469 120 L 140.980469 100 L 160.980469 100 L 160.980469 120 Z M 140.980469 120 "/>
<path style=" stroke:none;fill-rule:nonzero;fill:rgb(0%,0%,0%);fill-opacity:1;" d="M 140.980469 80 L 140.980469 60 L 160.980469 60 L 160.980469 80 Z M 140.980469 80 "/>
<path style=" stroke:none;fill-rule:nonzero;fill:rgb(0%,0%,0%);fill-opacity:1;" d="M 140.980469 40 L 140.980469 20 L 160.980469 20 L 160.980469 40 Z M 140.980469 40 "/>
<path style=" stroke:none;fill-rule:nonzero;fill:rgb(0%,0%,0%);fill-opacity:1;" d="M 176.980469 200 L 176.980469 180 L 196.980469 180 L 196.980469 200 Z M 176.980469 200 "/>
<path style=" stroke:none;fill-rule:nonzero;fill:rgb(0%,0%,0%);fill-opacity:1;" d="M 176.980469 160 L 176.980469 140 L 196.980469 140 L 196.980469 160 Z M 176.980469 160 "/>
<path style=" stroke:none;fill-rule:nonzero;fill:rgb(0%,0%,0%);fill-opacity:1;" d="M 176.980469 120 L 176.980469 100 L 196.980469 100 L 196.980469 120 Z M 176.980469 120 "/>
<path style=" stroke:none;fill-rule:nonzero;fill:rgb(0%,0%,0%);fill-opacity:1;" d="M 176.980469 80 L 176.980469 60 L 196.980469 60 L 196.980469 80 Z M 176.980469 80 "/>
<path style=" stroke:none;fill-rule:nonzero;fill:rgb(0%,0%,0%);fill-opacity:1;" d="M 176.980469 40 L 176.980469 20 L 196.980469 20 L 196.980469 40 Z M 176.980469 40 "/>
<path style=" stroke:none;fill-rule:nonzero;fill:rgb(0%,0%,0%);fill-opacity:1;" d="M 212.980469 200 L 212.980469 180 L 232.980469 180 L 232.980469 200 Z M 212.980469 200 "/>
<path style=" stroke:none;fill-rule:nonzero;fill:rgb(0%,0%,0%);fill-opacity:1;" d="M 212.980469 160 L 212.980469 140 L 232.980469 140 L 232.980469 160 Z M 212.980469 160 "/>
<path style=" stroke:none;fill-rule:nonzero;fill:rgb(0%,0%,0%);fill-opacity:1;" d="M 212.980469 120 L 212.980469 100 L 232.980469 100 L 232.980469 120 Z M 212.980469 120 "/>
<path style=" stroke:none;fill-rule:nonzero;fill:rgb(0%,0%,0%);fill-opacity:1;" d="M 212.980469 80 L 212.980469 60 L 232.980469 60 L 232.980469 80 Z M 212.980469 80 "/>
<path style=" stroke:none;fill-rule:nonzero;fill:rgb(0%,0%,0%);fill-opacity:1;" d="M 212.980469 40 L 212.980469 20 L 232.980469 20 L 232.980469 40 Z M 212.980469 40 "/>
<path style=" stroke:none;fill-rule:nonzero;fill:rgb(0%,0%,0%);fill-opacity:1;" d="M 248.980469 200 L 248.980469 180 L 268.980469 180 L 268.980469 200 Z M 248.980469 200 "/>
<path style=" stroke:none;fill-rule:nonzero;fill:rgb(0%,0%,0%);fill-opacity:1;" d="M 248.980469 160 L 248.980469 140 L 268.980469 140 L 268.980469 160 Z M 248.980469 160 "/>
<path style=" stroke:none;fill-rule:nonzero;fill:rgb(0%,0%,0%);fill-opacity:1;" d="M 248.980469 120 L 248.980469 100 L 268.980469 100 L 268.980469 120 Z M 248.980469 120 "/>
<path style=" stroke:none;fill-rule:nonzero;fill:rgb(0%,0%,0%);fill-opacity:1;" d="M 248.980469 80 L 248.980469 60 L 268.980469 60 L 268.980469 80 Z M 248.980469 80 "/>
<path style=" stroke:none;fill-rule:nonzero;fill:rgb(0%,0%,0%);fill-opacity:1;" d="M 248.980469 40 L 248.980469 20 L 268.980469 20 L 268.980469 40 Z M 248.980469 40 "/>
<path style=" stroke:none;fill-rule:nonzero;fill:rgb(0%,0%,0%);fill-opacity:1;" d="M 284.980469 200 L 284.980469 180 L 304.980469 180 L 304.980469 200 Z M 284.980469 200 "/>
<path style=" stroke:none;fill-rule:nonzero;fill:rgb(0%,0%,0%);fill-opacity:1;" d="M 284.980469 160 L 284.980469 140 L 304.980469 140 L 304.980469 160 Z M 284.980469 160 "/>
<path style=" stroke:none;fill-rule:nonzero;fill:rgb(0%,0%,0%);fill-opacity:1;" d="M 284.980469 120 L 284.980469 100 L 304.980469 100 L 304.980469 120 Z M 284.980469 120 "/>
<path style=" stroke:none;fill-rule:nonzero;fill:rgb(0%,0%,0%);fill-opacity:1;" d="M 284.980469 80 L 284.980469 60 L 304.980469 60 L 304.980469 80 Z M 284.980469 80 "/>
<path style=" stroke:none;fill-rule:nonzero;fill:rgb(0%,0%,0%);fill-opacity:1;" d="M 284.980469 40 L 284.980469 20 L 304.980469 20 L 304.980469 40 Z M 284.980469 40 "/>
<path style=" stroke:none;fill-rule:nonzero;fill:rgb(0%,0%,0%);fill-opacity:1;" d="M 320.980469 200 L 320.980469 180 L 340.980469 180 L 340.980469 200 Z M 320.980469 200 "/>
<path style=" stroke:none;fill-rule:nonzero;fill:rgb(0%,0%,0%);fill-opacity:1;" d="M 320.980469 160 L 320.980469 140 L 340.980469 140 L 340.980469 160 Z M 320.980469 160 "/>
<path style=" stroke:none;fill-rule:nonzero;fill:rgb(0%,0%,0%);fill-opacity:1;" d="M 320.980469 120 L 320.980469 100 L 340.980469 100 L 340.980469 120 Z M 320.980469 120 "/>
<path style=" stroke:none;fill-rule:nonzero;fill:rgb(0%,0%,0%);fill-opacity:1;" d="M 320.980469 80 L 320.980469 60 L 340.980469 60 L 340.980469 80 Z M 320.980469 80 "/>
<path style=" stroke:none;fill-rule:nonzero;fill:rgb(0%,0%,0%);fill-opacity:1;" d="M 320.980469 40 L 320.980469 20 L 340.980469 20 L 340.980469 40 Z M 320.980469 40 "/>
<path style=" stroke:none;fill-rule:nonzero;fill:rgb(0%,0%,0%);fill-opacity:1;" d="M 356.980469 200 L 356.980469 180 L 376.980469 180 L 376.980469 200 Z M 356.980469 200 "/>
<path style=" stroke:none;fill-rule:nonzero;fill:rgb(0%,0%,0%);fill-opacity:1;" d="M 356.980469 160 L 356.980469 140 L 376.980469 140 L 376.980469 160 Z M 356.980469 160 "/>
<path style=" stroke:none;fill-rule:nonzero;fill:rgb(0%,0%,0%);fill-opacity:1;" d="M 356.980469 120 L 356.980469 100 L 376.980469 100 L 376.980469 120 Z M 356.980469 120 "/>
<path style=" stroke:none;fill-rule:nonzero;fill:rgb(0%,0%,0%);fill-opacity:1;" d="M 356.980469 80 L 356.980469 60 L 376.980469 60 L 376.980469 80 Z M 356.980469 80 "/>
<path style=" stroke:none;fill-rule:nonzero;fill:rgb(0%,0%,0%);fill-opacity:1;" d="M 356.980469 40 L 356.980469 20 L 376.980469 20 L 376.980469 40 Z M 356.980469 40 "/>
<path style="fill:none;stroke-width:1;stroke-linecap:square;stroke-linejoin:miter;stroke:rgb(100%,0%,0%);stroke-opacity:1;stroke-miterlimit:3.25;" d="M 0 220 L 400 220 "/>
<path style="fill:none;stroke-width:1;stroke-linecap:square;stroke-linejoin:miter;stroke:rgb(100%,0%,0%);stroke-opacity:1;stroke-miterlimit:3.25;" d="M 0 200 L 400 200 "/>
<path style="fill:none;stroke-width:1;stroke-linecap:square;stroke-linejoin:miter;stroke:rgb(100%,0%,0%);stroke-opacity:1;stroke-miterlimit:3.25;" d="M 0 180 L 400 180 "/>
<path style="fill:none;stroke-width:1;stroke-linecap:square;stroke-linejoin:miter;stroke:rgb(100%,0%,0%);stroke-opacity:1;stroke-miterlimit:3.25;" d="M 0 160 L 400 160 "/>
<path style="fill:none;stroke-width:1;stroke-linecap:square;stroke-linejoin:miter;stroke:rgb(100%,0%,0%);stroke-opacity:1;stroke-miterlimit:3.25;" d="M 0 140 L 400 140 "/>
<path style="fill:none;stroke-width:1;stroke-linecap:square;stroke-linejoin:miter;stroke:rgb(100%,0%,0%);stroke-opacity:1;stroke-miterlimit:3.25;" d="M 0 120 L 400 120 "/>
<path style="fill:none;stroke-width:1;stroke-linecap:square;stroke-linejoin:miter;stroke:rgb(100%,0%,0%);stroke-opacity:1;stroke-miterlimit:3.25;" d="M 0 100 L 400 100 "/>
<path style="fill:none;stroke-width:1;stroke-linecap:square;stroke-linejoin:miter;stroke:rgb(100%,0%,0%);stroke-opacity:1;stroke-miterlimit:3.25;" d="M 0 80 L 400 80 "/>
<path style="fill:none;stroke-width:1;stroke-linecap:square;stroke-linejoin:miter;stroke:rgb(100%,0%,0%);stroke-opacity:1;stroke-miterlimit:3.25;" d="M 0 60 L 400 60 "/>
<path style="fill:none;stroke-width:1;stroke-linecap:square;stroke-linejoin:miter;stroke:rgb(100%,0%,0%);stroke-opacity:1;stroke-miterlimit:3.25;" d="M 0 40 L 400 40 "/>
<path style="fill:none;stroke-width:1;stroke-linecap:square;stroke-linejoin:miter;stroke:rgb(100%,0%,0%);stroke-opacity:1;stroke-miterlimit:3.25;" d="M 0 20 L 400 20 "/>
</g>
</svg>
