<?xml version="1.0" encoding="UTF-8"?>
<svg xmlns="http://www.w3.org/2000/svg" xmlns:xlink="http://www.w3.org/1999/xlink" width="400pt" height="220pt" viewBox="0 0 400 220" version="1.1">
<g id="surface541">
<rect x="0" y="0" width="400" height="220" style="fill:rgb(0%,40%,100%);fill-opacity:0.2;stroke:none;"/>
<path style=" stroke:none;fill-rule:nonzero;fill:rgb(0%,0%,0%);fill-opacity:1;" d="M 10.714844 220 L 10.714844 200 L 30.714844 200 L 30.714844 220 Z M 10.714844 220 "/>
<path style=" stroke:none;fill-rule:nonzero;fill:rgb(0%,0%,0%);fill-opacity:1;" d="M 10.714844 180 L 10.714844 160 L 30.714844 160 L 30.714844 180 Z M 10.714844 180 "/>
<path style=" stroke:none;fill-rule:nonzero;fill:rgb(0%,0%,0%);fill-opacity:1;" d="M 10.714844 140 L 10.714844 120 L 30.714844 120 L 30.714844 140 Z M 10.714844 140 "/>
<path style=" stroke:none;fill-rule:nonzero;fill:rgb(0%,0%,0%);fill-opacity:1;" d="M 10.714844 100 L 10.714844 80 L 30.714844 80 L 30.714844 100 Z M 10.714844 100 "/>
<path style=" stroke:none;fill-rule:nonzero;fill:rgb(0%,0%,0%);fill-opacity:1;" d="M 10.714844 60 L 10.714844 40 L 30.714844 40 L 30.714844 60 Z M 10.714844 60 "/>
<path style=" stroke:none;fill-rule:nonzero;fill:rgb(0%,0%,0%);fill-opacity:1;" d="M 10.714844 20 L 10.714844 0 L 30.714844 0 L 30.714844 20 Z M 10.714844 20 "/>
<path style=" stroke:none;fill-rule:nonzero;fill:rgb(0%,0%,0%);fill-opacity:1;" d="M 46.714844 220 L 46.714844 200 L 66.714844 200 L 66.714844 220 Z M 46.714844 220 "/>
<path style=" stroke:none;fill-rule:nonzero;fill:rgb(0%,0%,0%);fill-opacity:1;" d="M 46.714844 180 L 46.714844 160 L 66.714844 160 L 66.714844 180 Z M 46.714844 180 "/>
<path style=" stroke:none;fill-rule:nonzero;fill:rgb(0%,0%,0%);fill-opacity:1;" d="M 46.714844 140 L 46.714844 120 L 66.714844 120 L 66.714844 140 Z M 46.714844 140 "/>
<path style=" stroke:none;fill-rule:nonzero;fill:rgb(0%,0%,0%);fill-opacity:1;" d="M 46.714844 100 L 46.714844 80 L 66.714844 80 L 66.714844 100 Z M 46.714844 100 "/>
<path style=" stroke:none;fill-rule:nonzero;fill:rgb(0%,0%,0%);fill-opacity:1;" d="M 46.714844 60 L 46.714844 40 L 66.714844 40 L 66.714844 60 Z M 46.714844 60 "/>
<path style=" stroke:none;fill-rule:nonzero;fill:rgb(0%,0%,0%);fill-opacity:1;" d="M 46.714844 20 L 46.714844 0 L 66.714844 0 L 66.714844 20 Z M 46.714844 20 "/>
<path style=" stroke:none;fill-rule:nonzero;fill:rgb(0%,0%,0%);fill-opacity:1;" d="M 82.714844 220 L 82.714844 200 L 102.714844 200 L 102.714844 220 Z M 82.714844 220 "/>
<path style=" stroke:none;fill-rule:nonzero;fill:rgb(0%,0%,0%);fill-opacity:1;" d="M 82.714844 180 L 82.714844 160 L 102.714844 160 L 102.714844 180 Z M 82.714844 180 "/>
<path style=" stroke:none;fill-rule:nonzero;fill:rgb(0%,0%,0%);fill-opacity:1;" d="M 82.714844 140 L 82.714844 120 L 102.714844 120 L 102.714844 140 Z M 82.714844 140 "/>
<path style=" stroke:none;fill-rule:nonzero;fill:rgb(0%,0%,0%);fill-opacity:1;" d="M 82.714844 100 L 82.714844 80 L 102.714844 80 L 102.714844 100 Z M 82.714844 100 "/>
<path style=" stroke:none;fill-rule:nonzero;fill:rgb(0%,0%,0%);fill-opacity:1;" d="M 82.714844 60 L 82.714844 40 L 102.714844 40 L 102.714844 60 Z M 82.714844 60 "/>
<path style=" stroke:none;fill-rule:nonzero;fill:rgb(0%,0%,0%);fill-opacity:1;" d="M 82.714844 20 L 82.714844 0 L 102.714844 0 L 102.714844 20 Z M 82.714844 20 "/>
<path style=" stroke:none;fill-rule:nonzero;fill:rgb(0%,0%,0%);fill-opacity:1;" d="M 118.714844 220 L 118.714844 200 L 138.714844 200 L 138.714844 220 Z M 118.714844 220 "/>
<path style=" stroke:none;fill-rule:nonzero;fill:rgb(0%,0%,0%);fill-opacity:1;" d="M 118.714844 180 L 118.714844 160 L 138.714844 160 L 138.714844 180 Z M 118.714844 180 "/>
<path style=" stroke:none;fill-rule:nonzero;fill:rgb(0%,0%,0%);fill-opacity:1;" d="M 118.714844 140 L 118.714844 120 L 138.714844 120 L 138.714844 140 Z M 118.714844 140 "/>
<path style=" stroke:none;fill-rule:nonzero;fill:rgb(0%,0%,0%);fill-opacity:1;" d="M 118.714844 100 L 118.714844 80 L 138.714844 80 L 138.714844 100 Z M 118.714844 100 "/>
<path style=" stroke:none;fill-rule:nonzero;fill:rgb(0%,0%,0%);fill-opacity:1;" d="M 118.714844 60 L 118.714844 40 L 138.714844 40 L 138.714844 60 Z M 118.714844 60 "/>
<path style=" stroke:none;fill-rule:nonzero;fill:rgb(0%,0%,0%);fill-opacity:1;" d="M 118.714844 20 L 118.714844 0 L 138.714844 0 L 138.714844 20 Z M 118.714844 20 "/>
<path style=" stroke:none;fill-rule:nonzero;fill:rgb(0%,0%,0%);fill-opacity:1;" d="M 154.714844 220 L 154.714844 200 L 174.714844 200 L 174.714844 220 Z M 154.714844 220 "/>
<path style=" stroke:none;fill-rule:nonzero;fill:rgb(0%,0%,0%);fill-opacity:1;" d="M 154.714844 180 L 154.714844 160 L 174.714844 160 L 174.714844 180 Z M 154.714844 180 "/>
<path style=" stroke:none;fill-rule:nonzero;fill:rgb(0%,0%,0%);fill-opacity:1;" d="M 154.714844 140 L 154.714844 120 L 174.714844 120 L 174.714844 140 Z M 154.714844 140 "/>
<path style=" stroke:none;fill-rule:nonzero;fill:rgb(0%,0%,0%);fill-opacity:1;" d="M 154.714844 100 L 154.714844 80 L 174.714844 80 L 174.714844 100 Z M 154.714844 100 "/>
<path style=" stroke:none;fill-rule:nonzero;fill:rgb(0%,0%,0%);fill-opacity:1;" d="M 154.714844 60 L 154.714844 40 L 174.714844 40 L 174.714844 60 Z M 154.714844 60 "/>
<path style=" stroke:none;fill-rule:nonzero;fill:rgb(0%,0%,0%);fill-opacity:1;" d="M 154.714844 20 L 154.714844 0 L 174.714844 0 L 174.714844 20 Z M 154.714844 20 "/>
<path style=" stroke:none;fill-rule:nonzero;fill:rgb(0%,0%,0%);fill-opacity:1;" d="M 190.714844 220 L 190.714844 200 L 210.714844 200 L 210.714844 220 Z M 190.714844 220 "/>
<path style=" stroke:none;fill-rule:nonzero;fill:rgb(0%,0%,0%);fill-opacity:1;" d="M 190.714844 180 L 190.714844 160 L 210.714844 160 L 210.714844 180 Z M 190.714844 180 "/>
<path style=" stroke:none;fill-rule:nonzero;fill:rgb(0%,0%,0%);fill-opacity:1;" d="M 190.714844 140 L 190.714844 120 L 210.714844 120 L 210.714844 140 Z M 190.714844 140 "/>
<path style=" stroke:none;fill-rule:nonzero;fill:rgb(0%,0%,0%);fill-opacity:1;" d="M 190.714844 100 L 190.714844 80 L 210.714844 80 L 210.714844 100 Z M 190.714844 100 "/>
<path style=" stroke:none;fill-rule:nonzero;fill:rgb(0%,0%,0%);fill-opacity:1;" d="M 190.714844 60 L 190.714844 40 L 210.714844 40 L 210.714844 60 Z M 190.714844 60 "/>
<path style=" stroke:none;fill-rule:nonzero;fill:rgb(0%,0%,0%);fill-opacity:1;" d="M 190.714844 20 L 190.714844 0 L 210.714844 0 L 210.714844 20 Z M 190.714844 20 "/>
<path style=" stroke:none;fill-rule:nonzero;fill:rgb(0%,0%,0%);fill-opacity:1;" d="M 226.714844 220 L 226.714844 200 L 246.714844 200 L 246.714844 220 Z M 226.714844 220 "/>
<path style=" stroke:none;fill-rule:nonzero;fill:rgb(0%,0%,0%);fill-opacity:1;" d="M 226.714844 180 L 226.714844 160 L 246.714844 160 L 246.714844 180 Z M 226.714844 180 "/>
<path style=" stroke:none;fill-rule:nonzero;fill:rgb(0%,0%,0%);fill-opacity:1;" d="M 226.714844 140 L 226.714844 120 L 246.714844 120 L 246.714844 140 Z M 226.714844 140 "/>
<path style=" stroke:none;fill-rule:nonzero;fill:rgb(0%,0%,0%);fill-opacity:1;" d="M 226.714844 100 L 226.714844 80 L 246.714844 80 L 246.714844 100 Z M 226.714844 100 "/>
<path style=" stroke:none;fill-rule:nonzero;fill:rgb(0%,0%,0%);fill-opacity:1;" d="M 226.714844 60 L 226.714844 40 L 246.714844 40 L 246.714844 60 Z M 226.714844 60 "/>
<path style=" stroke:none;fill-rule:nonzero;fill:rgb(0%,0%,0%);fill-opacity:1;" d="M 226.714844 20 L 226.714844 0 L 246.714844 0 L 246.714844 20 Z M 226.714844 20 "/>
<path style=" stroke:none;fill-rule:nonzero;fill:rgb(0%,0%,0%);fill-opacity:1;" d="M 262.714844 220 L 262.714844 200 L 282.714844 200 L 282.714844 220 Z M 262.714844 220 "/>
<path style=" stroke:none;fill-rule:nonzero;fill:rgb(0%,0%,0%);fill-opacity:1;" d="M 262.714844 180 L 262.714844 160 L 282.714844 160 L 282.714844 180 Z M 262.714844 180 "/>
<path style=" stroke:none;fill-rule:nonzero;fill:rgb(0%,0%,0%);fill-opacity:1;" d="M 262.714844 140 L 262.714844 120 L 282.714844 120 L 282.714844 140 Z M 262.714844 140 "/>
<path style=" stroke:none;fill-rule:nonzero;fill:rgb(0%,0%,0%);fill-opacity:1;" d="M 262.714844 100 L 262.714844 80 L 282.714844 80 L 282.714844 100 Z M 262.714844 100 "/>
<path style=" stroke:none;fill-rule:nonzero;fill:rgb(0%,0%,0%);fill-opacity:1;" d="M 262.714844 60 L 262.714844 40 L 282.714844 40 L 282.714844 60 Z M 262.714844 60 "/>
<path style=" stroke:none;fill-rule:nonzero;fill:rgb(0%,0%,0%);fill-opacity:1;" d="M 262.714844 20 L 262.714844 0 L 282.714844 0 L 282.714844 20 Z M 262.714844 20 "/>
<path style=" stroke:none;fill-rule:nonzero;fill:rgb(0%,0%,0%);fill-opacity:1;" d="M 298.714844 220 L 298.714844 200 L 318.714844 200 L 318.714844 220 Z M 298.714844 220 "/>
<path style=" stroke:none;fill-rule:nonzero;fill:rgb(0%,0%,0%);fill-opacity:1;" d="M 298.714844 180 L 298.714844 160 L 318.714844 160 L 318.714844 180 Z M 298.714844 180 "/>
<path style=" stroke:none;fill-rule:nonzero;fill:rgb(0%,0%,0%);fill-opacity:1;" d="M 298.714844 140 L 298.714844 120 L 318.714844 120 L 318.714844 140 Z M 298.714844 140 "/>
<path style=" stroke:none;fill-rule:nonzero;fill:rgb(0%,0%,0%);fill-opacity:1;" d="M 298.714844 100 L 298.714844 80 L 318.714844 80 L 318.714844 100 Z M 298.714844 100 "/>
<path style=" stroke:none;fill-rule:nonzero;fill:rgb(0%,0%,0%);fill-opacity:1;" d="M 298.714844 60 L 298.714844 40 L 318.714844 40 L 318.714844 60 Z M 298.714844 60 "/>
<path style=" stroke:none;fill-rule:nonzero;fill:rgb(0%,0%,0%);fill-opacity:1;" d="M 298.714844 20 L 298.714844 0 L 318.714844 0 L 318.714844 20 Z M 298.714844 20 "/>
<path style=" stroke:none;fill-rule:nonzero;fill:rgb(0%,0%,0%);fill-opacity:1;" d="M 334.714844 220 L 334.714844 200 L 354.714844 200 L 354.714844 220 Z M 334.714844 220 "/>
<path style=" stroke:none;fill-rule:nonzero;fill:rgb(0%,0%,0%);fill-opacity:1;" d="M 334.714844 180 L 334.714844 160 L 354.714844 160 L 354.714844 180 Z M 334.714844 180 "/>
<path style=" stroke:none;fill-rule:nonzero;fill:rgb(0%,0%,0%);fill-opacity:1;" d="M 334.714844 140 L 334.714844 120 L 354.714844 120 L 354.714844 140 Z M 334.714844 140 "/>
<path style=" stroke:none;fill-rule:nonzero;fill:rgb(0%,0%,0%);fill-opacity:1;" d="M 334.714844 100 L 334.714844 80 L 354.714844 80 L 354.714844 100 Z M 334.714844 100 "/>
<path style=" stroke:none;fill-rule:nonzero;fill:rgb(0%,0%,0%);fill-opacity:1;" d="M 334.714844 60 L 334.714844 40 L 354.714844 40 L 354.714844 60 Z M 334.714844 60 "/>
<path style=" stroke:none;fill-rule:nonzero;fill:rgb(0%,0%,0%);fill-opacity:1;" d="M 334.714844 20 L 334.714844 0 L 354.714844 0 L 354.714844 20 Z M 334.714844 20 "/>
<path style=" stroke:none;fill-rule:nonzero;fill:rgb(0%,0%,0%);fill-opacity:1;" d="M 370.714844 220 L 370.714844 200 L 390.714844 200 L 390.714844 220 Z M 370.714844 220 "/>
<path style=" stroke:none;fill-rule:nonzero;fill:rgb(0%,0%,0%);fill-opacity:1;" d="M 370.714844 180 L 370.714844 160 L 390.714844 160 L 390.714844 180 Z M 370.714844 180 "/>
<path style=" stroke:none;fill-rule:nonzero;fill:rgb(0%,0%,0%);fill-opacity:1;" d="M 370.714844 140 L 370.714844 120 L 390.714844 120 L 390.714844 140 Z M 370.714844 140 "/>
<path style=" stroke:none;fill-rule:nonzero;fill:rgb(0%,0%,0%);fill-opacity:1;" d="M 370.714844 100 L 370.714844 80 L 390.714844 80 L 390.714844 100 Z M 370.714844 100 "/>
<path style=" stroke:none;fill-rule:nonzero;fill:rgb(0%,0%,0%);fill-opacity:1;" d="M 370.714844 60 L 370.714844 40 L 390.714844 40 L 390.714844 60 Z M 370.714844 60 "/>
<path style=" stroke:none;fill-rule:nonzero;fill:rgb(0%,0%,0%);fill-opacity:1;" d="M 370.714844 20 L 370.714844 0 L 390.714844 0 L 390.714844 20 Z M 370.714844 20 "/>
<path style=" stroke:none;fill-rule:nonzero;fill:rgb(0%,0%,0%);fill-opacity:1;" d="M -0.886719 200 L -0.886719 180 L 19.113281 180 L 19.113281 200 Z M -0.886719 200 "/>
<path style=" stroke:none;fill-rule:nonzero;fill:rgb(0%,0%,0%);fill-opacity:1;" d="M -0.886719 160 L -0.886719 140 L 19.113281 140 L 19.113281 160 Z M -0.886719 160 "/>
<path style=" stroke:none;fill-rule:nonzero;fill:rgb(0%,0%,0%);fill-opacity:1;" d="M -0.886719 120 L -0.886719 100 L 19.113281 100 L 19.113281 120 Z M -0.886719 120 "/>
<path style=" stroke:none;fill-rule:nonzero;fill:rgb(0%,0%,0%);fill-opacity:1;" d="M -0.886719 80 L -0.886719 60 L 19.113281 60 L 19.113281 80 Z M -0.886719 80 "/>
<path style=" stroke:none;fill-rule:nonzero;fill:rgb(0%,0%,0%);fill-opacity:1;" d="M -0.886719 40 L -0.886719 20 L 19.113281 20 L 19.113281 40 Z M -0.886719 40 "/>
<path style=" stroke:none;fill-rule:nonzero;fill:rgb(0%,0%,0%);fill-opacity:1;" d="M 35.113281 200 L 35.113281 180 L 55.113281 180 L 55.113281 200 Z M 35.113281 200 "/>
<path style=" stroke:none;fill-rule:nonzero;fill:rgb(0%,0%,0%);fill-opacity:1;" d="M 35.113281 160 L 35.113281 140 L 55.113281 140 L 55.113281 160 Z M 35.113281 160 "/>
<path style=" stroke:none;fill-rule:nonzero;fill:rgb(0%,0%,0%);fill-opacity:1;" d="M 35.113281 120 L 35.113281 100 L 55.113281 100 L 55.113281 120 Z M 35.113281 120 "/>
<path style=" stroke:none;fill-rule:nonzero;fill:rgb(0%,0%,0%);fill-opacity:1;" d="M 35.113281 80 L 35.113281 60 L 55.113281 60 L 55.113281 80 Z M 35.113281 80 "/>
<path style=" stroke:none;fill-rule:nonzero;fill:rgb(0%,0%,0%);fill-opacity:1;" d="M 35.113281 40 L 35.113281 20 L 55.113281 20 L 55.113281 40 Z M 35.113281 40 "/>
<path style=" stroke:none;fill-rule:nonzero;fill:rgb(0%,0%,0%);fill-opacity:1;" d="M 71.113281 200 L 71.113281 180 L 91.113281 180 L 91.113281 200 Z M 71.113281 200 "/>
<path style=" stroke:none;fill-rule:nonzero;fill:rgb(0%,0%,0%);fill-opacity:1;" d="M 71.113281 160 L 71.113281 140 L 91.113281 140 L 91.113281 160 Z M 71.113281 160 "/>
<path style=" stroke:none;fill-rule:nonzero;fill:rgb(0%,0%,0%);fill-opacity:1;" d="M 71.113281 120 L 71.113281 100 L 91.113281 100 L 91.113281 120 Z M 71.113281 120 "/>
<path style=" stroke:none;fill-rule:nonzero;fill:rgb(0%,0%,0%);fill-opacity:1;" d="M 71.113281 80 L 71.113281 60 L 91.113281 60 L 91.113281 80 Z M 71.113281 80 "/>
<path style=" stroke:none;fill-rule:nonzero;fill:rgb(0%,0%,0%);fill-opacity:1;" d="M 71.113281 40 L 71.113281 20 L 91.113281 20 L 91.113281 40 Z M 71.113281 40 "/>
<path style=" stroke:none;fill-rule:nonzero;fill:rgb(0%,0%,0%);fill-opacity:1;" d="M 107.113281 200 L 107.113281 180 L 127.113281 180 L 127.113281 200 Z M 107.113281 200 "/>
<path style=" stroke:none;fill-rule:nonzero;fill:rgb(0%,0%,0%);fill-opacity:1;" d="M 107.113281 160 L 107.113281 140 L 127.113281 140 L 127.113281 160 Z M 107.113281 160 "/>
<path style=" stroke:none;fill-rule:nonzero;fill:rgb(0%,0%,0%);fill-opacity:1;" d="M 107.113281 120 L 107.113281 100 L 127.113281 100 L 127.113281 120 Z M 107.113281 120 "/>
<path style=" stroke:none;fill-rule:nonzero;fill:rgb(0%,0%,0%);fill-opacity:1;" d="M 107.113281 80 L 107.113281 60 L 127.113281 60 L 127.113281 80 Z M 107.113281 80 "/>
<path style=" stroke:none;fill-rule:nonzero;fill:rgb(0%,0%,0%);fill-opacity:1;" d="M 107.113281 40 L 107.113281 20 L 127.113281 20 L 127.113281 40 Z M 107.113281 40 "/>
<path style=" stroke:none;fill-rule:nonzero;fill:rgb(0%,0%,0%);fill-opacity:1;" d="M 143.113281 200 L 143.113281 180 L 163.113281 180 L 163.113281 200 Z M 143.113281 200 "/>
<path style=" stroke:none;fill-rule:nonzero;fill:rgb(0%,0%,0%);fill-opacity:1;" d="M 143.113281 160 L 143.113281 140 L 163.113281 140 L 163.113281 160 Z M 143.113281 160 "/>
<path style=" stroke:none;fill-rule:nonzero;fill:rgb(0%,0%,0%);fill-opacity:1;" d="M 143.113281 120 L 143.113281 100 L 163.113281 100 L 163.113281 120 Z M 143.113281 120 "/>
<path style=" stroke:none;fill-rule:nonzero;fill:rgb(0%,0%,0%);fill-opacity:1;" d="M 143.113281 80 L 143.113281 60 L 163.113281 60 L 163.113281 80 Z M 143.113281 80 "/>
<path style=" stroke:none;fill-rule:nonzero;fill:rgb(0%,0%,0%);fill-opacity:1;" d="M 143.113281 40 L 143.113281 20 L 163.113281 20 L 163.113281 40 Z M 143.113281 40 "/>
<path style=" stroke:none;fill-rule:nonzero;fill:rgb(0%,0%,0%);fill-opacity:1;" d="M 179.113281 200 L 179.113281 180 L 199.113281 180 L 199.113281 200 Z M 179.113281 200 "/>
<path style=" stroke:none;fill-rule:nonzero;fill:rgb(0%,0%,0%);fill-opacity:1;" d="M 179.113281 160 L 179.113281 140 L 199.113281 140 L 199.113281 160 Z M 179.113281 160 "/>
<path style=" stroke:none;fill-rule:nonzero;fill:rgb(0%,0%,0%);fill-opacity:1;" d="M 179.113281 120 L 179.113281 100 L 199.113281 100 L 199.113281 120 Z M 179.113281 120 "/>
<path style=" stroke:none;fill-rule:nonzero;fill:rgb(0%,0%,0%);fill-opacity:1;" d="M 179.113281 80 L 179.113281 60 L 199.113281 60 L 199.113281 80 Z M 179.113281 80 "/>
<path style=" stroke:none;fill-rule:nonzero;fill:rgb(0%,0%,0%);fill-opacity:1;" d="M 179.113281 40 L 179.113281 20 L 199.113281 20 L 199.113281 40 Z M 179.113281 40 "/>
<path style=" stroke:none;fill-rule:nonzero;fill:rgb(0%,0%,0%);fill-opacity:1;" d="M 215.113281 200 L 215.113281 180 L 235.113281 180 L 235.113281 200 Z M 215.113281 200 "/>
<path style=" stroke:none;fill-rule:nonzero;fill:rgb(0%,0%,0%);fill-opacity:1;" d="M 215.113281 160 L 215.113281 140 L 235.113281 140 L 235.113281 160 Z M 215.113281 160 "/>
<path style=" stroke:none;fill-rule:nonzero;fill:rgb(0%,0%,0%);fill-opacity:1;" d="M 215.113281 120 L 215.113281 100 L 235.113281 100 L 235.113281 120 Z M 215.113281 120 "/>
<path style=" stroke:none;fill-rule:nonzero;fill:rgb(0%,0%,0%);fill-opacity:1;" d="M 215.113281 80 L 215.113281 60 L 235.113281 60 L 235.113281 80 Z M 215.113281 80 "/>
<path style=" stroke:none;fill-rule:nonzero;fill:rgb(0%,0%,0%);fill-opacity:1;" d="M 215.113281 40 L 215.113281 20 L 235.113281 20 L 235.113281 40 Z M 215.113281 40 "/>
<path style=" stroke:none;fill-rule:nonzero;fill:rgb(0%,0%,0%);fill-opacity:1;" d="M 251.113281 200 L 251.113281 180 L 271.113281 180 L 271.113281 200 Z M 251.113281 200 "/>
<path style=" stroke:none;fill-rule:nonzero;fill:rgb(0%,0%,0%);fill-opacity:1;" d="M 251.113281 160 L 251.113281 140 L 271.113281 140 L 271.113281 160 Z M 251.113281 160 "/>
<path style=" stroke:none;fill-rule:nonzero;fill:rgb(0%,0%,0%);fill-opacity:1;" d="M 251.113281 120 L 251.113281 100 L 271.113281 100 L 271.113281 120 Z M 251.113281 120 "/>
<path style=" stroke:none;fill-rule:nonzero;fill:rgb(0%,0%,0%);fill-opacity:1;" d="M 251.113281 80 L 251.113281 60 L 271.113281 60 L 271.113281 80 Z M 251.113281 80 "/>
<path style=" stroke:none;fill-rule:nonzero;fill:rgb(0%,0%,0%);fill-opacity:1;" d="M 251.113281 40 L 251.113281 20 L 271.113281 20 L 271.113281 40 Z M 251.113281 40 "/>
<path style=" stroke:none;fill-rule:nonzero;fill:rgb(0%,0%,0%);fill-opacity:1;" d="M 287.113281 200 L 287.113281 180 L 307.113281 180 L 307.113281 200 Z M 287.113281 200 "/>
<path style=" stroke:none;fill-rule:nonzero;fill:rgb(0%,0%,0%);fill-opacity:1;" d="M 287.113281 160 L 287.113281 140 L 307.113281 140 L 307.113281 160 Z M 287.113281 160 "/>
<path style=" stroke:none;fill-rule:nonzero;fill:rgb(0%,0%,0%);fill-opacity:1;" d="M 287.113281 120 L 287.113281 100 L 307.113281 100 L 307.113281 120 Z M 287.113281 120 "/>
<path style=" stroke:none;fill-rule:nonzero;fill:rgb(0%,0%,0%);fill-opacity:1;" d="M 287.113281 80 L 287.113281 60 L 307.113281 60 L 307.113281 80 Z M 287.113281 80 "/>
<path style=" stroke:none;fill-rule:nonzero;fill:rgb(0%,0%,0%);fill-opacity:1;" d="M 287.113281 40 L 287.113281 20 L 307.113281 20 L 307.113281 40 Z M 287.113281 40 "/>
<path style=" stroke:none;fill-rule:nonzero;fill:rgb(0%,0%,0%);fill-opacity:1;" d="M 323.113281 200 L 323.113281 180 L 343.113281 180 L 343.113281 200 Z M 323.113281 200 "/>
<path style=" stroke:none;fill-rule:nonzero;fill:rgb(0%,0%,0%);fill-opacity:1;" d="M 323.113281 160 L 323.113281 140 L 343.113281 140 L 343.113281 160 Z M 323.113281 160 "/>
<path style=" stroke:none;fill-rule:nonzero;fill:rgb(0%,0%,0%);fill-opacity:1;" d="M 323.113281 120 L 323.113281 100 L 343.113281 100 L 343.113281 120 Z M 323.113281 120 "/>
<path style=" stroke:none;fill-rule:nonzero;fill:rgb(0%,0%,0%);fill-opacity:1;" d="M 323.113281 80 L 323.113281 60 L 343.113281 60 L 343.113281 80 Z M 323.113281 80 "/>
<path style=" stroke:none;fill-rule:nonzero;fill:rgb(0%,0%,0%);fill-opacity:1;" d="M 323.113281 40 L 323.113281 20 L 343.113281 20 L 343.113281 40 Z M 323.113281 40 "/>
<path style=" stroke:none;fill-rule:nonzero;fill:rgb(0%,0%,0%);fill-opacity:1;" d="M 359.113281 200 L 359.113281 180 L 379.113281 180 L 379.113281 200 Z M 359.113281 200 "/>
<path style=" stroke:none;fill-rule:nonzero;fill:rgb(0%,0%,0%);fill-opacity:1;" d="M 359.113281 160 L 359.113281 140 L 379.113281 140 L 379.113281 160 Z M 359.113281 160 "/>
<path style=" stroke:none;fill-rule:nonzero;fill:rgb(0%,0%,0%);fill-opacity:1;" d="M 359.113281 120 L 359.113281 100 L 379.113281 100 L 379.113281 120 Z M 359.113281 120 "/>
<path style=" stroke:none;fill-rule:nonzero;fill:rgb(0%,0%,0%);fill-opacity:1;" d="M 359.113281 80 L 359.113281 60 L 379.113281 60 L 379.113281 80 Z M 359.113281 80 "/>
<path style=" stroke:none;fill-rule:nonzero;fill:rgb(0%,0%,0%);fill-opacity:1;" d="M 359.113281 40 L 359.113281 20 L 379.113281 20 L 379.113281 40 Z M 359.113281 40 "/>
<path style="fill:none;stroke-width:1;stroke-linecap:square;stroke-linejoin:miter;stroke:rgb(100%,0%,0%);stroke-opacity:1;stroke-miterlimit:3.25;" d="M 0 220 L 400 220 "/>
<path style="fill:none;stroke-width:1;stroke-linecap:square;stroke-linejoin:miter;stroke:rgb(100%,0%,0%);stroke-opacity:1;stroke-miterlimit:3.25;" d="M 0 200 L 400 200 "/>
<path style="fill:none;stroke-width:1;stroke-linecap:square;stroke-linejoin:miter;stroke:rgb(100%,0%,0%);stroke-opacity:1;stroke-miterlimit:3.25;" d="M 0 180 L 400 180 "/>
<path style="fill:none;stroke-width:1;stroke-linecap:square;stroke-linejoin:miter;stroke:rgb(100%,0%,0%);stroke-opacity:1;stroke-miterlimit:3.25;" d="M 0 160 L 400 160 "/>
<path style="fill:none;stroke-width:1;stroke-linecap:square;stroke-linejoin:miter;stroke:rgb(100%,0%,0%);stroke-opacity:1;stroke-miterlimit:3.25;" d="M 0 140 L 400 140 "/>
<path style="fill:none;stroke-width:1;stroke-linecap:square;stroke-linejoin:miter;stroke:rgb(100%,0%,0%);stroke-opacity:1;stroke-miterlimit:3.25;" d="M 0 120 L 400 120 "/>
<path style="fill:none;stroke-width:1;stroke-linecap:square;stroke-linejoin:miter;stroke:rgb(100%,0%,0%);stroke-opacity:1;stroke-miterlimit:3.25;" d="M 0 100 L 400 100 "/>
<path style="fill:none;stroke-width:1;stroke-linecap:square;stroke-linejoin:miter;stroke:rgb(100%,0%,0%);stroke-opacity:1;stroke-miterlimit:3.25;" d="M 0 80 L 400 80 "/>
<path style="fill:none;stroke-width:1;stroke-linecap:square;stroke-linejoin:miter;stroke:rgb(100%,0%,0%);stroke-opacity:1;stroke-miterlimit:3.25;" d="M 0 60 L 400 60 "/>
<path style="fill:none;stroke-width:1;stroke-linecap:square;stroke-linejoin:miter;stroke:rgb(100%,0%,0%);stroke-opacity:1;stroke-miterlimit:3.25;" d="M 0 40 L 400 40 "/>
<path style="fill:none;stroke-width:1;stroke-linecap:square;stroke-linejoin:miter;stroke:rgb(100%,0%,0%);stroke-opacity:1;stroke-miterlimit:3.25;" d="M 0 20 L 400 20 "/>
</g>
</svg>
