<?xml version="1.0" encoding="UTF-8"?>
<svg xmlns="http://www.w3.org/2000/svg" xmlns:xlink="http://www.w3.org/1999/xlink" width="400pt" height="220pt" viewBox="0 0 400 220" version="1.1">
<g id="surface786">
<rect x="0" y="0" width="400" height="220" style="fill:rgb(0%,40%,100%);fill-opacity:0.2;stroke:none;"/>
<path style=" stroke:none;fill-rule:nonzero;fill:rgb(0%,0%,0%);fill-opacity:1;" d="M -9.636719 220 L -9.636719 200 L 10.363281 200 L 10.363281 220 Z M -9.636719 220 "/>
<path style=" stroke:none;fill-rule:nonzero;fill:rgb(0%,0%,0%);fill-opacity:1;" d="M -9.636719 180 L -9.636719 160 L 10.363281 160 L 10.363281 180 Z M -9.636719 180 "/>
<path style=" stroke:none;fill-rule:nonzero;fill:rgb(0%,0%,0%);fill-opacity:1;" d="M -9.636719 140 L -9.636719 120 L 10.363281 120 L 10.363281 140 Z M -9.636719 140 "/>
<path style=" stroke:none;fill-rule:nonzero;fill:rgb(0%,0%,0%);fill-opacity:1;" d="M -9.636719 100 L -9.636719 80 L 10.363281 80 L 10.363281 100 Z M -9.636719 100 "/>
<path style=" stroke:none;fill-rule:nonzero;fill:rgb(0%,0%,0%);fill-opacity:1;" d="M -9.636719 60 L -9.636719 40 L 10.363281 40 L 10.363281 60 Z M -9.636719 60 "/>
<path style=" stroke:none;fill-rule:nonzero;fill:rgb(0%,0%,0%);fill-opacity:1;" d="M -9.636719 20 L -9.636719 0 L 10.363281 0 L 10.363281 20 Z M -9.636719 20 "/>
<path style=" stroke:none;fill-rule:nonzero;fill:rgb(0%,0%,0%);fill-opacity:1;" d="M 26.363281 220 L 26.363281 200 L 46.363281 200 L 46.363281 220 Z M 26.363281 220 "/>
<path style=" stroke:none;fill-rule:nonzero;fill:rgb(0%,0%,0%);fill-opacity:1;" d="M 26.363281 180 L 26.363281 160 L 46.363281 160 L 46.363281 180 Z M 26.363281 180 "/>
<path style=" stroke:none;fill-rule:nonzero;fill:rgb(0%,0%,0%);fill-opacity:1;" d="M 26.363281 140 L 26.363281 120 L 46.363281 120 L 46.363281 140 Z M 26.363281 140 "/>
<path style=" stroke:none;fill-rule:nonzero;fill:rgb(0%,0%,0%);fill-opacity:1;" d="M 26.363281 100 L 26.363281 80 L 46.363281 80 L 46.363281 100 Z M 26.363281 100 "/>
<path style=" stroke:none;fill-rule:nonzero;fill:rgb(0%,0%,0%);fill-opacity:1;" d="M 26.363281 60 L 26.363281 40 L 46.363281 40 L 46.363281 60 Z M 26.363281 60 "/>
<path style=" stroke:none;fill-rule:nonzero;fill:rgb(0%,0%,0%);fill-opacity:1;" d="M 26.363281 20 L 26.363281 0 L 46.363281 0 L 46.363281 20 Z M 26.363281 20 "/>
<path style=" stroke:none;fill-rule:nonzero;fill:rgb(0%,0%,0%);fill-opacity:1;" d="M 62.363281 220 L 62.363281 200 L 82.363281 200 L 82.363281 220 Z M 62.363281 220 "/>
<path style=" stroke:none;fill-rule:nonzero;fill:rgb(0%,0%,0%);fill-opacity:1;" d="M 62.363281 180 L 62.363281 160 L 82.363281 160 L 82.363281 180 Z M 62.363281 180 "/>
<path style=" stroke:none;fill-rule:nonzero;fill:rgb(0%,0%,0%);fill-opacity:1;" d="M 62.363281 140 L 62.363281 120 L 82.363281 120 L 82.363281 140 Z M 62.363281 140 "/>
<path style=" stroke:none;fill-rule:nonzero;fill:rgb(0%,0%,0%);fill-opacity:1;" d="M 62.363281 100 L 62.363281 80 L 82.363281 80 L 82.363281 100 Z M 62.363281 100 "/>
<path style=" stroke:none;fill-rule:nonzero;fill:rgb(0%,0%,0%);fill-opacity:1;" d="M 62.363281 60 L 62.363281 40 L 82.363281 40 L 82.363281 60 Z M 62.363281 60 "/>
<path style=" stroke:none;fill-rule:nonzero;fill:rgb(0%,0%,0%);fill-opacity:1;" d="M 62.363281 20 L 62.363281 0 L 82.363281 0 L 82.363281 20 Z M 62.363281 20 "/>
<path style=" stroke:none;fill-rule:nonzero;fill:rgb(0%,0%,0%);fill-opacity:1;" d="M 98.363281 220 L 98.363281 200 L 118.363281 200 L 118.363281 220 Z M 98.363281 220 "/>
<path style=" stroke:none;fill-rule:nonzero;fill:rgb(0%,0%,0%);fill-opacity:1;" d="M 98.363281 180 L 98.363281 160 L 118.363281 160 L 118.363281 180 Z M 98.363281 180 "/>
<path style=" stroke:none;fill-rule:nonzero;fill:rgb(0%,0%,0%);fill-opacity:1;" d="M 98.363281 140 L 98.363281 120 L 118.363281 120 L 118.363281 140 Z M 98.363281 140 "/>
<path style=" stroke:none;fill-rule:nonzero;fill:rgb(0%,0%,0%);fill-opacity:1;" d="M 98.363281 100 L 98.363281 80 L 118.363281 80 L 118.363281 100 Z M 98.363281 100 "/>
<path style=" stroke:none;fill-rule:nonzero;fill:rgb(0%,0%,0%);fill-opacity:1;" d="M 98.363281 60 L 98.363281 40 L 118.363281 40 L 118.363281 60 Z M 98.363281 60 "/>
<path style=" stroke:none;fill-rule:nonzero;fill:rgb(0%,0%,0%);fill-opacity:1;" d="M 98.363281 20 L 98.363281 0 L 118.363281 0 L 118.363281 20 Z M 98.363281 20 "/>
<path style=" stroke:none;fill-rule:nonzero;fill:rgb(0%,0%,0%);fill-opacity:1;" d="M 134.363281 220 L 134.363281 200 L 154.363281 200 L 154.363281 220 Z M 134.363281 220 "/>
<path style=" stroke:none;fill-rule:nonzero;fill:rgb(0%,0%,0%);fill-opacity:1;" d="M 134.363281 180 L 134.363281 160 L 154.363281 160 L 154.363281 180 Z M 134.363281 180 "/>
<path style=" stroke:none;fill-rule:nonzero;fill:rgb(0%,0%,0%);fill-opacity:1;" d="M 134.363281 140 L 134.363281 120 L 154.363281 120 L 154.363281 140 Z M 134.363281 140 "/>
<path style=" stroke:none;fill-rule:nonzero;fill:rgb(0%,0%,0%);fill-opacity:1;" d="M 134.363281 100 L 134.363281 80 L 154.363281 80 L 154.363281 100 Z M 134.363281 100 "/>
<path style=" stroke:none;fill-rule:nonzero;fill:rgb(0%,0%,0%);fill-opacity:1;" d="M 134.363281 60 L 134.363281 40 L 154.363281 40 L 154.363281 60 Z M 134.363281 60 "/>
<path style=" stroke:none;fill-rule:nonzero;fill:rgb(0%,0%,0%);fill-opacity:1;" d="M 134.363281 20 L 134.363281 0 L 154.363281 0 L 154.363281 20 Z M 134.363281 20 "/>
<path style=" stroke:none;fill-rule:nonzero;fill:rgb(0%,0%,0%);fill-opacity:1;" d="M 170.363281 220 L 170.363281 200 L 190.363281 200 L 190.363281 220 Z M 170.363281 220 "/>
<path style=" stroke:none;fill-rule:nonzero;fill:rgb(0%,0%,0%);fill-opacity:1;" d="M 170.363281 180 L 170.363281 160 L 190.363281 160 L 190.363281 180 Z M 170.363281 180 "/>
<path style=" stroke:none;fill-rule:nonzero;fill:rgb(0%,0%,0%);fill-opacity:1;" d="M 170.363281 140 L 170.363281 120 L 190.363281 120 L 190.363281 140 Z M 170.363281 140 "/>
<path style=" stroke:none;fill-rule:nonzero;fill:rgb(0%,0%,0%);fill-opacity:1;" d="M 170.363281 100 L 170.363281 80 L 190.363281 80 L 190.363281 100 Z M 170.363281 100 "/>
<path style=" stroke:none;fill-rule:nonzero;fill:rgb(0%,0%,0%);fill-opacity:1;" d="M 170.363281 60 L 170.363281 40 L 190.363281 40 L 190.363281 60 Z M 170.363281 60 "/>
<path style=" stroke:none;fill-rule:nonzero;fill:rgb(0%,0%,0%);fill-opacity:1;" d="M 170.363281 20 L 170.363281 0 L 190.363281 0 L 190.363281 20 Z M 170.363281 20 "/>
<path style=" stroke:none;fill-rule:nonzero;fill:rgb(0%,0%,0%);fill-opacity:1;" d="M 206.363281 220 L 206.363281 200 L 226.363281 200 L 226.363281 220 Z M 206.363281 220 "/>
<path style=" stroke:none;fill-rule:nonzero;fill:rgb(0%,0%,0%);fill-opacity:1;" d="M 206.363281 180 L 206.363281 160 L 226.363281 160 L 226.363281 180 Z M 206.363281 180 "/>
<path style=" stroke:none;fill-rule:nonzero;fill:rgb(0%,0%,0%);fill-opacity:1;" d="M 206.363281 140 L 206.363281 120 L 226.363281 120 L 226.363281 140 Z M 206.363281 140 "/>
<path style=" stroke:none;fill-rule:nonzero;fill:rgb(0%,0%,0%);fill-opacity:1;" d="M 206.363281 100 L 206.363281 80 L 226.363281 80 L 226.363281 100 Z M 206.363281 100 "/>
<path style=" stroke:none;fill-rule:nonzero;fill:rgb(0%,0%,0%);fill-opacity:1;" d="M 206.363281 60 L 206.363281 40 L 226.363281 40 L 226.363281 60 Z M 206.363281 60 "/>
<path style=" stroke:none;fill-rule:nonzero;fill:rgb(0%,0%,0%);fill-opacity:1;" d="M 206.363281 20 L 206.363281 0 L 226.363281 0 L 226.363281 20 Z M 206.363281 20 "/>
<path style=" stroke:none;fill-rule:nonzero;fill:rgb(0%,0%,0%);fill-opacity:1;" d="M 242.363281 220 L 242.363281 200 L 262.363281 200 L 262.363281 220 Z M 242.363281 220 "/>
<path style=" stroke:none;fill-rule:nonzero;fill:rgb(0%,0%,0%);fill-opacity:1;" d="M 242.363281 180 L 242.363281 160 L 262.363281 160 L 262.363281 180 Z M 242.363281 180 "/>
<path style=" stroke:none;fill-rule:nonzero;fill:rgb(0%,0%,0%);fill-opacity:1;" d="M 242.363281 140 L 242.363281 120 L 262.363281 120 L 262.363281 140 Z M 242.363281 140 "/>
<path style=" stroke:none;fill-rule:nonzero;fill:rgb(0%,0%,0%);fill-opacity:1;" d="M 242.363281 100 L 242.363281 80 L 262.363281 80 L 262.363281 100 Z M 242.363281 100 "/>
<path style=" stroke:none;fill-rule:nonzero;fill:rgb(0%,0%,0%);fill-opacity:1;" d="M 242.363281 60 L 242.363281 40 L 262.363281 40 L 262.363281 60 Z M 242.363281 60 "/>
<path style=" stroke:none;fill-rule:nonzero;fill:rgb(0%,0%,0%);fill-opacity:1;" d="M 242.363281 20 L 242.363281 0 L 262.363281 0 L 262.363281 20 Z M 242.363281 20 "/>
<path style=" stroke:none;fill-rule:nonzero;fill:rgb(0%,0%,0%);fill-opacity:1;" d="M 278.363281 220 L 278.363281 200 L 298.363281 200 L 298.363281 220 Z M 278.363281 220 "/>
<path style=" stroke:none;fill-rule:nonzero;fill:rgb(0%,0%,0%);fill-opacity:1;" d="M 278.363281 180 L 278.363281 160 L 298.363281 160 L 298.363281 180 Z M 278.363281 180 "/>
<path style=" stroke:none;fill-rule:nonzero;fill:rgb(0%,0%,0%);fill-opacity:1;" d="M 278.363281 140 L 278.363281 120 L 298.363281 120 L 298.363281 140 Z M 278.363281 140 "/>
<path style=" stroke:none;fill-rule:nonzero;fill:rgb(0%,0%,0%);fill-opacity:1;" d="M 278.363281 100 L 278.363281 80 L 298.363281 80 L 298.363281 100 Z M 278.363281 100 "/>
<path style=" stroke:none;fill-rule:nonzero;fill:rgb(0%,0%,0%);fill-opacity:1;" d="M 278.363281 60 L 278.363281 40 L 298.363281 40 L 298.363281 60 Z M 278.363281 60 "/>
<path style=" stroke:none;fill-rule:nonzero;fill:rgb(0%,0%,0%);fill-opacity:1;" d="M 278.363281 20 L 278.363281 0 L 298.363281 0 L 298.363281 20 Z M 278.363281 20 "/>
<path style=" stroke:none;fill-rule:nonzero;fill:rgb(0%,0%,0%);fill-opacity:1;" d="M 314.363281 220 L 314.363281 200 L 334.363281 200 L 334.363281 220 Z M 314.363281 220 "/>
<path style=" stroke:none;fill-rule:nonzero;fill:rgb(0%,0%,0%);fill-opacity:1;" d="M 314.363281 180 L 314.363281 160 L 334.363281 160 L 334.363281 180 Z M 314.363281 180 "/>
<path style=" stroke:none;fill-rule:nonzero;fill:rgb(0%,0%,0%);fill-opacity:1;" d="M 314.363281 140 L 314.363281 120 L 334.363281 120 L 334.363281 140 Z M 314.363281 140 "/>
<path style=" stroke:none;fill-rule:nonzero;fill:rgb(0%,0%,0%);fill-opacity:1;" d="M 314.363281 100 L 314.363281 80 L 334.363281 80 L 334.363281 100 Z M 314.363281 100 "/>
<path style=" stroke:none;fill-rule:nonzero;fill:rgb(0%,0%,0%);fill-opacity:1;" d="M 314.363281 60 L 314.363281 40 L 334.363281 40 L 334.363281 60 Z M 314.363281 60 "/>
<path style=" stroke:none;fill-rule:nonzero;fill:rgb(0%,0%,0%);fill-opacity:1;" d="M 314.363281 20 L 314.363281 0 L 334.363281 0 L 334.363281 20 Z M 314.363281 20 "/>
<path style=" stroke:none;fill-rule:nonzero;fill:rgb(0%,0%,0%);fill-opacity:1;" d="M 350.363281 220 L 350.363281 200 L 370.363281 200 L 370.363281 220 Z M 350.363281 220 "/>
<path style=" stroke:none;fill-rule:nonzero;fill:rgb(0%,0%,0%);fill-opacity:1;" d="M 350.363281 180 L 350.363281 160 L 370.363281 160 L 370.363281 180 Z M 350.363281 180 "/>
<path style=" stroke:none;fill-rule:nonzero;fill:rgb(0%,0%,0%);fill-opacity:1;" d="M 350.363281 140 L 350.363281 120 L 370.363281 120 L 370.363281 140 Z M 350.363281 140 "/>
<path style=" stroke:none;fill-rule:nonzero;fill:rgb(0%,0%,0%);fill-opacity:1;" d="M 350.363281 100 L 350.363281 80 L 370.363281 80 L 370.363281 100 Z M 350.363281 100 "/>
<path style=" stroke:none;fill-rule:nonzero;fill:rgb(0%,0%,0%);fill-opacity:1;" d="M 350.363281 60 L 350.363281 40 L 370.363281 40 L 370.363281 60 Z M 350.363281 60 "/>
<path style=" stroke:none;fill-rule:nonzero;fill:rgb(0%,0%,0%);fill-opacity:1;" d="M 350.363281 20 L 350.363281 0 L 370.363281 0 L 370.363281 20 Z M 350.363281 20 "/>
<path style=" stroke:none;fill-rule:nonzero;fill:rgb(0%,0%,0%);fill-opacity:1;" d="M 386.363281 220 L 386.363281 200 L 406.363281 200 L 406.363281 220 Z M 386.363281 220 "/>
<path style=" stroke:none;fill-rule:nonzero;fill:rgb(0%,0%,0%);fill-opacity:1;" d="M 386.363281 180 L 386.363281 160 L 406.363281 160 L 406.363281 180 Z M 386.363281 180 "/>
<path style=" stroke:none;fill-rule:nonzero;fill:rgb(0%,0%,0%);fill-opacity:1;" d="M 386.363281 140 L 386.363281 120 L 406.363281 120 L 406.363281 140 Z M 386.363281 140 "/>
<path style=" stroke:none;fill-rule:nonzero;fill:rgb(0%,0%,0%);fill-opacity:1;" d="M 386.363281 100 L 386.363281 80 L 406.363281 80 L 406.363281 100 Z M 386.363281 100 "/>
<path style=" stroke:none;fill-rule:nonzero;fill:rgb(0%,0%,0%);fill-opacity:1;" d="M 386.363281 60 L 386.363281 40 L 406.363281 40 L 406.363281 60 Z M 386.363281 60 "/>
<path style=" stroke:none;fill-rule:nonzero;fill:rgb(0%,0%,0%);fill-opacity:1;" d="M 386.363281 20 L 386.363281 0 L 406.363281 0 L 406.363281 20 Z M 386.363281 20 "/>
<path style=" stroke:none;fill-rule:nonzero;fill:rgb(0%,0%,0%);fill-opacity:1;" d="M -2.472656 200 L -2.472656 180 L 17.527344 180 L 17.527344 200 Z M -2.472656 200 "/>
<path style=" stroke:none;fill-rule:nonzero;fill:rgb(0%,0%,0%);fill-opacity:1;" d="M -2.472656 160 L -2.472656 140 L 17.527344 140 L 17.527344 160 Z M -2.472656 160 "/>
<path style=" stroke:none;fill-rule:nonzero;fill:rgb(0%,0%,0%);fill-opacity:1;" d="M -2.472656 120 L -2.472656 100 L 17.527344 100 L 17.527344 120 Z M -2.472656 120 "/>
<path style=" stroke:none;fill-rule:nonzero;fill:rgb(0%,0%,0%);fill-opacity:1;" d="M -2.472656 80 L -2.472656 60 L 17.527344 60 L 17.527344 80 Z M -2.472656 80 "/>
<path style=" stroke:none;fill-rule:nonzero;fill:rgb(0%,0%,0%);fill-opacity:1;" d="M -2.472656 40 L -2.472656 20 L 17.527344 20 L 17.527344 40 Z M -2.472656 40 "/>
<path style=" stroke:none;fill-rule:nonzero;fill:rgb(0%,0%,0%);fill-opacity:1;" d="M 33.527344 200 L 33.527344 180 L 53.527344 180 L 53.527344 200 Z M 33.527344 200 "/>
<path style=" stroke:none;fill-rule:nonzero;fill:rgb(0%,0%,0%);fill-opacity:1;" d="M 33.527344 160 L 33.527344 140 L 53.527344 140 L 53.527344 160 Z M 33.527344 160 "/>
<path style=" stroke:none;fill-rule:nonzero;fill:rgb(0%,0%,0%);fill-opacity:1;" d="M 33.527344 120 L 33.527344 100 L 53.527344 100 L 53.527344 120 Z M 33.527344 120 "/>
<path style=" stroke:none;fill-rule:nonzero;fill:rgb(0%,0%,0%);fill-opacity:1;" d="M 33.527344 80 L 33.527344 60 L 53.527344 60 L 53.527344 80 Z M 33.527344 80 "/>
<path style=" stroke:none;fill-rule:nonzero;fill:rgb(0%,0%,0%);fill-opacity:1;" d="M 33.527344 40 L 33.527344 20 L 53.527344 20 L 53.527344 40 Z M 33.527344 40 "/>
<path style=" stroke:none;fill-rule:nonzero;fill:rgb(0%,0%,0%);fill-opacity:1;" d="M 69.527344 200 L 69.527344 180 L 89.527344 180 L 89.527344 200 Z M 69.527344 200 "/>
<path style=" stroke:none;fill-rule:nonzero;fill:rgb(0%,0%,0%);fill-opacity:1;" d="M 69.527344 160 L 69.527344 140 L 89.527344 140 L 89.527344 160 Z M 69.527344 160 "/>
<path style=" stroke:none;fill-rule:nonzero;fill:rgb(0%,0%,0%);fill-opacity:1;" d="M 69.527344 120 L 69.527344 100 L 89.527344 100 L 89.527344 120 Z M 69.527344 120 "/>
<path style=" stroke:none;fill-rule:nonzero;fill:rgb(0%,0%,0%);fill-opacity:1;" d="M 69.527344 80 L 69.527344 60 L 89.527344 60 L 89.527344 80 Z M 69.527344 80 "/>
<path style=" stroke:none;fill-rule:nonzero;fill:rgb(0%,0%,0%);fill-opacity:1;" d="M 69.527344 40 L 69.527344 20 L 89.527344 20 L 89.527344 40 Z M 69.527344 40 "/>
<path style=" stroke:none;fill-rule:nonzero;fill:rgb(0%,0%,0%);fill-opacity:1;" d="M 105.527344 200 L 105.527344 180 L 125.527344 180 L 125.527344 200 Z M 105.527344 200 "/>
<path style=" stroke:none;fill-rule:nonzero;fill:rgb(0%,0%,0%);fill-opacity:1;" d="M 105.527344 160 L 105.527344 140 L 125.527344 140 L 125.527344 160 Z M 105.527344 160 "/>
<path style=" stroke:none;fill-rule:nonzero;fill:rgb(0%,0%,0%);fill-opacity:1;" d="M 105.527344 120 L 105.527344 100 L 125.527344 100 L 125.527344 120 Z M 105.527344 120 "/>
<path style=" stroke:none;fill-rule:nonzero;fill:rgb(0%,0%,0%);fill-opacity:1;" d="M 105.527344 80 L 105.527344 60 L 125.527344 60 L 125.527344 80 Z M 105.527344 80 "/>
<path style=" stroke:none;fill-rule:nonzero;fill:rgb(0%,0%,0%);fill-opacity:1;" d="M 105.527344 40 L 105.527344 20 L 125.527344 20 L 125.527344 40 Z M 105.527344 40 "/>
<path style=" stroke:none;fill-rule:nonzero;fill:rgb(0%,0%,0%);fill-opacity:1;" d="M 141.527344 200 L 141.527344 180 L 161.527344 180 L 161.527344 200 Z M 141.527344 200 "/>
<path style=" stroke:none;fill-rule:nonzero;fill:rgb(0%,0%,0%);fill-opacity:1;" d="M 141.527344 160 L 141.527344 140 L 161.527344 140 L 161.527344 160 Z M 141.527344 160 "/>
<path style=" stroke:none;fill-rule:nonzero;fill:rgb(0%,0%,0%);fill-opacity:1;" d="M 141.527344 120 L 141.527344 100 L 161.527344 100 L 161.527344 120 Z M 141.527344 120 "/>
<path style=" stroke:none;fill-rule:nonzero;fill:rgb(0%,0%,0%);fill-opacity:1;" d="M 141.527344 80 L 141.527344 60 L 161.527344 60 L 161.527344 80 Z M 141.527344 80 "/>
<path style=" stroke:none;fill-rule:nonzero;fill:rgb(0%,0%,0%);fill-opacity:1;" d="M 141.527344 40 L 141.527344 20 L 161.527344 20 L 161.527344 40 Z M 141.527344 40 "/>
<path style=" stroke:none;fill-rule:nonzero;fill:rgb(0%,0%,0%);fill-opacity:1;" d="M 177.527344 200 L 177.527344 180 L 197.527344 180 L 197.527344 200 Z M 177.527344 200 "/>
<path style=" stroke:none;fill-rule:nonzero;fill:rgb(0%,0%,0%);fill-opacity:1;" d="M 177.527344 160 L 177.527344 140 L 197.527344 140 L 197.527344 160 Z M 177.527344 160 "/>
<path style=" stroke:none;fill-rule:nonzero;fill:rgb(0%,0%,0%);fill-opacity:1;" d="M 177.527344 120 L 177.527344 100 L 197.527344 100 L 197.527344 120 Z M 177.527344 120 "/>
<path style=" stroke:none;fill-rule:nonzero;fill:rgb(0%,0%,0%);fill-opacity:1;" d="M 177.527344 80 L 177.527344 60 L 197.527344 60 L 197.527344 80 Z M 177.527344 80 "/>
<path style=" stroke:none;fill-rule:nonzero;fill:rgb(0%,0%,0%);fill-opacity:1;" d="M 177.527344 40 L 177.527344 20 L 197.527344 20 L 197.527344 40 Z M 177.527344 40 "/>
<path style=" stroke:none;fill-rule:nonzero;fill:rgb(0%,0%,0%);fill-opacity:1;" d="M 213.527344 200 L 213.527344 180 L 233.527344 180 L 233.527344 200 Z M 213.527344 200 "/>
<path style=" stroke:none;fill-rule:nonzero;fill:rgb(0%,0%,0%);fill-opacity:1;" d="M 213.527344 160 L 213.527344 140 L 233.527344 140 L 233.527344 160 Z M 213.527344 160 "/>
<path style=" stroke:none;fill-rule:nonzero;fill:rgb(0%,0%,0%);fill-opacity:1;" d="M 213.527344 120 L 213.527344 100 L 233.527344 100 L 233.527344 120 Z M 213.527344 120 "/>
<path style=" stroke:none;fill-rule:nonzero;fill:rgb(0%,0%,0%);fill-opacity:1;" d="M 213.527344 80 L 213.527344 60 L 233.527344 60 L 233.527344 80 Z M 213.527344 80 "/>
<path style=" stroke:none;fill-rule:nonzero;fill:rgb(0%,0%,0%);fill-opacity:1;" d="M 213.527344 40 L 213.527344 20 L 233.527344 20 L 233.527344 40 Z M 213.527344 40 "/>
<path style=" stroke:none;fill-rule:nonzero;fill:rgb(0%,0%,0%);fill-opacity:1;" d="M 249.527344 200 L 249.527344 180 L 269.527344 180 L 269.527344 200 Z M 249.527344 200 "/>
<path style=" stroke:none;fill-rule:nonzero;fill:rgb(0%,0%,0%);fill-opacity:1;" d="M 249.527344 160 L 249.527344 140 L 269.527344 140 L 269.527344 160 Z M 249.527344 160 "/>
<path style=" stroke:none;fill-rule:nonzero;fill:rgb(0%,0%,0%);fill-opacity:1;" d="M 249.527344 120 L 249.527344 100 L 269.527344 100 L 269.527344 120 Z M 249.527344 120 "/>
<path style=" stroke:none;fill-rule:nonzero;fill:rgb(0%,0%,0%);fill-opacity:1;" d="M 249.527344 80 L 249.527344 60 L 269.527344 60 L 269.527344 80 Z M 249.527344 80 "/>
<path style=" stroke:none;fill-rule:nonzero;fill:rgb(0%,0%,0%);fill-opacity:1;" d="M 249.527344 40 L 249.527344 20 L 269.527344 20 L 269.527344 40 Z M 249.527344 40 "/>
<path style=" stroke:none;fill-rule:nonzero;fill:rgb(0%,0%,0%);fill-opacity:1;" d="M 285.527344 200 L 285.527344 180 L 305.527344 180 L 305.527344 200 Z M 285.527344 200 "/>
<path style=" stroke:none;fill-rule:nonzero;fill:rgb(0%,0%,0%);fill-opacity:1;" d="M 285.527344 160 L 285.527344 140 L 305.527344 140 L 305.527344 160 Z M 285.527344 160 "/>
<path style=" stroke:none;fill-rule:nonzero;fill:rgb(0%,0%,0%);fill-opacity:1;" d="M 285.527344 120 L 285.527344 100 L 305.527344 100 L 305.527344 120 Z M 285.527344 120 "/>
<path style=" stroke:none;fill-rule:nonzero;fill:rgb(0%,0%,0%);fill-opacity:1;" d="M 285.527344 80 L 285.527344 60 L 305.527344 60 L 305.527344 80 Z M 285.527344 80 "/>
<path style=" stroke:none;fill-rule:nonzero;fill:rgb(0%,0%,0%);fill-opacity:1;" d="M 285.527344 40 L 285.527344 20 L 305.527344 20 L 305.527344 40 Z M 285.527344 40 "/>
<path style=" stroke:none;fill-rule:nonzero;fill:rgb(0%,0%,0%);fill-opacity:1;" d="M 321.527344 200 L 321.527344 180 L 341.527344 180 L 341.527344 200 Z M 321.527344 200 "/>
<path style=" stroke:none;fill-rule:nonzero;fill:rgb(0%,0%,0%);fill-opacity:1;" d="M 321.527344 160 L 321.527344 140 L 341.527344 140 L 341.527344 160 Z M 321.527344 160 "/>
<path style=" stroke:none;fill-rule:nonzero;fill:rgb(0%,0%,0%);fill-opacity:1;" d="M 321.527344 120 L 321.527344 100 L 341.527344 100 L 341.527344 120 Z M 321.527344 120 "/>
<path style=" stroke:none;fill-rule:nonzero;fill:rgb(0%,0%,0%);fill-opacity:1;" d="M 321.527344 80 L 321.527344 60 L 341.527344 60 L 341.527344 80 Z M 321.527344 80 "/>
<path style=" stroke:none;fill-rule:nonzero;fill:rgb(0%,0%,0%);fill-opacity:1;" d="M 321.527344 40 L 321.527344 20 L 341.527344 20 L 341.527344 40 Z M 321.527344 40 "/>
<path style=" stroke:none;fill-rule:nonzero;fill:rgb(0%,0%,0%);fill-opacity:1;" d="M 357.527344 200 L 357.527344 180 L 377.527344 180 L 377.527344 200 Z M 357.527344 200 "/>
<path style=" stroke:none;fill-rule:nonzero;fill:rgb(0%,0%,0%);fill-opacity:1;" d="M 357.527344 160 L 357.527344 140 L 377.527344 140 L 377.527344 160 Z M 357.527344 160 "/>
<path style=" stroke:none;fill-rule:nonzero;fill:rgb(0%,0%,0%);fill-opacity:1;" d="M 357.527344 120 L 357.527344 100 L 377.527344 100 L 377.527344 120 Z M 357.527344 120 "/>
<path style=" stroke:none;fill-rule:nonzero;fill:rgb(0%,0%,0%);fill-opacity:1;" d="M 357.527344 80 L 357.527344 60 L 377.527344 60 L 377.527344 80 Z M 357.527344 80 "/>
<path style=" stroke:none;fill-rule:nonzero;fill:rgb(0%,0%,0%);fill-opacity:1;" d="M 357.527344 40 L 357.527344 20 L 377.527344 20 L 377.527344 40 Z M 357.527344 40 "/>
<path style=" stroke:none;fill-rule:nonzero;fill:rgb(0%,0%,0%);fill-opacity:1;" d="M 393.527344 200 L 393.527344 180 L 413.527344 180 L 413.527344 200 Z M 393.527344 200 "/>
<path style=" stroke:none;fill-rule:nonzero;fill:rgb(0%,0%,0%);fill-opacity:1;" d="M 393.527344 160 L 393.527344 140 L 413.527344 140 L 413.527344 160 Z M 393.527344 160 "/>
<path style=" stroke:none;fill-rule:nonzero;fill:rgb(0%,0%,0%);fill-opacity:1;" d="M 393.527344 120 L 393.527344 100 L 413.527344 100 L 413.527344 120 Z M 393.527344 120 "/>
<path style=" stroke:none;fill-rule:nonzero;fill:rgb(0%,0%,0%);fill-opacity:1;" d="M 393.527344 80 L 393.527344 60 L 413.527344 60 L 413.527344 80 Z M 393.527344 80 "/>
<path style=" stroke:none;fill-rule:nonzero;fill:rgb(0%,0%,0%);fill-opacity:1;" d="M 393.527344 40 L 393.527344 20 L 413.527344 20 L 413.527344 40 Z M 393.527344 40 "/>
<path style="fill:none;stroke-width:1;stroke-linecap:square;stroke-linejoin:miter;stroke:rgb(100%,0%,0%);stroke-opacity:1;stroke-miterlimit:3.25;" d="M 0 220 L 400 220 "/>
<path style="fill:none;stroke-width:1;stroke-linecap:square;stroke-linejoin:miter;stroke:rgb(100%,0%,0%);stroke-opacity:1;stroke-miterlimit:3.25;" d="M 0 200 L 400 200 "/>
<path style="fill:none;stroke-width:1;stroke-linecap:square;stroke-linejoin:miter;stroke:rgb(100%,0%,0%);stroke-opacity:1;stroke-miterlimit:3.25;" d="M 0 180 L 400 180 "/>
<path style="fill:none;stroke-width:1;stroke-linecap:square;stroke-linejoin:miter;stroke:rgb(100%,0%,0%);stroke-opacity:1;stroke-miterlimit:3.25;" d="M 0 160 L 400 160 "/>
<path style="fill:none;stroke-width:1;stroke-linecap:square;stroke-linejoin:miter;stroke:rgb(100%,0%,0%);stroke-opacity:1;stroke-miterlimit:3.25;" d="M 0 140 L 400 140 "/>
<path style="fill:none;stroke-width:1;stroke-linecap:square;stroke-linejoin:miter;stroke:rgb(100%,0%,0%);stroke-opacity:1;stroke-miterlimit:3.25;" d="M 0 120 L 400 120 "/>
<path style="fill:none;stroke-width:1;stroke-linecap:square;stroke-linejoin:miter;stroke:rgb(100%,0%,0%);stroke-opacity:1;stroke-miterlimit:3.25;" d="M 0 100 L 400 100 "/>
<path style="fill:none;stroke-width:1;stroke-linecap:square;stroke-linejoin:miter;stroke:rgb(100%,0%,0%);stroke-opacity:1;stroke-miterlimit:3.25;" d="M 0 80 L 400 80 "/>
<path style="fill:none;stroke-width:1;stroke-linecap:square;stroke-linejoin:miter;stroke:rgb(100%,0%,0%);stroke-opacity:1;stroke-miterlimit:3.25;" d="M 0 60 L 400 60 "/>
<path style="fill:none;stroke-width:1;stroke-linecap:square;stroke-linejoin:miter;stroke:rgb(100%,0%,0%);stroke-opacity:1;stroke-miterlimit:3.25;" d="M 0 40 L 400 40 "/>
<path style="fill:none;stroke-width:1;stroke-linecap:square;stroke-linejoin:miter;stroke:rgb(100%,0%,0%);stroke-opacity:1;stroke-miterlimit:3.25;" d="M 0 20 L 400 20 "/>
</g>
</svg>
