<?xml version="1.0" encoding="UTF-8"?>
<svg xmlns="http://www.w3.org/2000/svg" xmlns:xlink="http://www.w3.org/1999/xlink" width="400pt" height="220pt" viewBox="0 0 400 220" version="1.1">
<g id="surface816">
<rect x="0" y="0" width="400" height="220" style="fill:rgb(0%,40%,100%);fill-opacity:0.2;stroke:none;"/>
<path style=" stroke:none;fill-rule:nonzero;fill:rgb(0%,0%,0%);fill-opacity:1;" d="M -15.410156 220 L -15.410156 200 L 4.589844 200 L 4.589844 220 Z M -15.410156 220 "/>
<path style=" stroke:none;fill-rule:nonzero;fill:rgb(0%,0%,0%);fill-opacity:1;" d="M -15.410156 180 L -15.410156 160 L 4.589844 160 L 4.589844 180 Z M -15.410156 180 "/>
<path style=" stroke:none;fill-rule:nonzero;fill:rgb(0%,0%,0%);fill-opacity:1;" d="M -15.410156 140 L -15.410156 120 L 4.589844 120 L 4.589844 140 Z M -15.410156 140 "/>
<path style=" stroke:none;fill-rule:nonzero;fill:rgb(0%,0%,0%);fill-opacity:1;" d="M -15.410156 100 L -15.410156 80 L 4.589844 80 L 4.589844 100 Z M -15.410156 100 "/>
<path style=" stroke:none;fill-rule:nonzero;fill:rgb(0%,0%,0%);fill-opacity:1;" d="M -15.410156 60 L -15.410156 40 L 4.589844 40 L 4.589844 60 Z M -15.410156 60 "/>
<path style=" stroke:none;fill-rule:nonzero;fill:rgb(0%,0%,0%);fill-opacity:1;" d="M -15.410156 20 L -15.410156 0 L 4.589844 0 L 4.589844 20 Z M -15.410156 20 "/>
<path style=" stroke:none;fill-rule:nonzero;fill:rgb(0%,0%,0%);fill-opacity:1;" d="M 20.589844 220 L 20.589844 200 L 40.589844 200 L 40.589844 220 Z M 20.589844 220 "/>
<path style=" stroke:none;fill-rule:nonzero;fill:rgb(0%,0%,0%);fill-opacity:1;" d="M 20.589844 180 L 20.589844 160 L 40.589844 160 L 40.589844 180 Z M 20.589844 180 "/>
<path style=" stroke:none;fill-rule:nonzero;fill:rgb(0%,0%,0%);fill-opacity:1;" d="M 20.589844 140 L 20.589844 120 L 40.589844 120 L 40.589844 140 Z M 20.589844 140 "/>
<path style=" stroke:none;fill-rule:nonzero;fill:rgb(0%,0%,0%);fill-opacity:1;" d="M 20.589844 100 L 20.589844 80 L 40.589844 80 L 40.589844 100 Z M 20.589844 100 "/>
<path style=" stroke:none;fill-rule:nonzero;fill:rgb(0%,0%,0%);fill-opacity:1;" d="M 20.589844 60 L 20.589844 40 L 40.589844 40 L 40.589844 60 Z M 20.589844 60 "/>
<path style=" stroke:none;fill-rule:nonzero;fill:rgb(0%,0%,0%);fill-opacity:1;" d="M 20.589844 20 L 20.589844 0 L 40.589844 0 L 40.589844 20 Z M 20.589844 20 "/>
<path style=" stroke:none;fill-rule:nonzero;fill:rgb(0%,0%,0%);fill-opacity:1;" d="M 56.589844 220 L 56.589844 200 L 76.589844 200 L 76.589844 220 Z M 56.589844 220 "/>
<path style=" stroke:none;fill-rule:nonzero;fill:rgb(0%,0%,0%);fill-opacity:1;" d="M 56.589844 180 L 56.589844 160 L 76.589844 160 L 76.589844 180 Z M 56.589844 180 "/>
<path style=" stroke:none;fill-rule:nonzero;fill:rgb(0%,0%,0%);fill-opacity:1;" d="M 56.589844 140 L 56.589844 120 L 76.589844 120 L 76.589844 140 Z M 56.589844 140 "/>
<path style=" stroke:none;fill-rule:nonzero;fill:rgb(0%,0%,0%);fill-opacity:1;" d="M 56.589844 100 L 56.589844 80 L 76.589844 80 L 76.589844 100 Z M 56.589844 100 "/>
<path style=" stroke:none;fill-rule:nonzero;fill:rgb(0%,0%,0%);fill-opacity:1;" d="M 56.589844 60 L 56.589844 40 L 76.589844 40 L 76.589844 60 Z M 56.589844 60 "/>
<path style=" stroke:none;fill-rule:nonzero;fill:rgb(0%,0%,0%);fill-opacity:1;" d="M 56.589844 20 L 56.589844 0 L 76.589844 0 L 76.589844 20 Z M 56.589844 20 "/>
<path style=" stroke:none;fill-rule:nonzero;fill:rgb(0%,0%,0%);fill-opacity:1;" d="M 92.589844 220 L 92.589844 200 L 112.589844 200 L 112.589844 220 Z M 92.589844 220 "/>
<path style=" stroke:none;fill-rule:nonzero;fill:rgb(0%,0%,0%);fill-opacity:1;" d="M 92.589844 180 L 92.589844 160 L 112.589844 160 L 112.589844 180 Z M 92.589844 180 "/>
<path style=" stroke:none;fill-rule:nonzero;fill:rgb(0%,0%,0%);fill-opacity:1;" d="M 92.589844 140 L 92.589844 120 L 112.589844 120 L 112.589844 140 Z M 92.589844 140 "/>
<path style=" stroke:none;fill-rule:nonzero;fill:rgb(0%,0%,0%);fill-opacity:1;" d="M 92.589844 100 L 92.589844 80 L 112.589844 80 L 112.589844 100 Z M 92.589844 100 "/>
<path style=" stroke:none;fill-rule:nonzero;fill:rgb(0%,0%,0%);fill-opacity:1;" d="M 92.589844 60 L 92.589844 40 L 112.589844 40 L 112.589844 60 Z M 92.589844 60 "/>
<path style=" stroke:none;fill-rule:nonzero;fill:rgb(0%,0%,0%);fill-opacity:1;" d="M 92.589844 20 L 92.589844 0 L 112.589844 0 L 112.589844 20 Z M 92.589844 20 "/>
<path style=" stroke:none;fill-rule:nonzero;fill:rgb(0%,0%,0%);fill-opacity:1;" d="M 128.589844 220 L 128.589844 200 L 148.589844 200 L 148.589844 220 Z M 128.589844 220 "/>
<path style=" stroke:none;fill-rule:nonzero;fill:rgb(0%,0%,0%);fill-opacity:1;" d="M 128.589844 180 L 128.589844 160 L 148.589844 160 L 148.589844 180 Z M 128.589844 180 "/>
<path style=" stroke:none;fill-rule:nonzero;fill:rgb(0%,0%,0%);fill-opacity:1;" d="M 128.589844 140 L 128.589844 120 L 148.589844 120 L 148.589844 140 Z M 128.589844 140 "/>
<path style=" stroke:none;fill-rule:nonzero;fill:rgb(0%,0%,0%);fill-opacity:1;" d="M 128.589844 100 L 128.589844 80 L 148.589844 80 L 148.589844 100 Z M 128.589844 100 "/>
<path style=" stroke:none;fill-rule:nonzero;fill:rgb(0%,0%,0%);fill-opacity:1;" d="M 128.589844 60 L 128.589844 40 L 148.589844 40 L 148.589844 60 Z M 128.589844 60 "/>
<path style=" stroke:none;fill-rule:nonzero;fill:rgb(0%,0%,0%);fill-opacity:1;" d="M 128.589844 20 L 128.589844 0 L 148.589844 0 L 148.589844 20 Z M 128.589844 20 "/>
<path style=" stroke:none;fill-rule:nonzero;fill:rgb(0%,0%,0%);fill-opacity:1;" d="M 164.589844 220 L 164.589844 200 L 184.589844 200 L 184.589844 220 Z M 164.589844 220 "/>
<path style=" stroke:none;fill-rule:nonzero;fill:rgb(0%,0%,0%);fill-opacity:1;" d="M 164.589844 180 L 164.589844 160 L 184.589844 160 L 184.589844 180 Z M 164.589844 180 "/>
<path style=" stroke:none;fill-rule:nonzero;fill:rgb(0%,0%,0%);fill-opacity:1;" d="M 164.589844 140 L 164.589844 120 L 184.589844 120 L 184.589844 140 Z M 164.589844 140 "/>
<path style=" stroke:none;fill-rule:nonzero;fill:rgb(0%,0%,0%);fill-opacity:1;" d="M 164.589844 100 L 164.589844 80 L 184.589844 80 L 184.589844 100 Z M 164.589844 100 "/>
<path style=" stroke:none;fill-rule:nonzero;fill:rgb(0%,0%,0%);fill-opacity:1;" d="M 164.589844 60 L 164.589844 40 L 184.589844 40 L 184.589844 60 Z M 164.589844 60 "/>
<path style=" stroke:none;fill-rule:nonzero;fill:rgb(0%,0%,0%);fill-opacity:1;" d="M 164.589844 20 L 164.589844 0 L 184.589844 0 L 184.589844 20 Z M 164.589844 20 "/>
<path style=" stroke:none;fill-rule:nonzero;fill:rgb(0%,0%,0%);fill-opacity:1;" d="M 200.589844 220 L 200.589844 200 L 220.589844 200 L 220.589844 220 Z M 200.589844 220 "/>
<path style=" stroke:none;fill-rule:nonzero;fill:rgb(0%,0%,0%);fill-opacity:1;" d="M 200.589844 180 L 200.589844 160 L 220.589844 160 L 220.589844 180 Z M 200.589844 180 "/>
<path style=" stroke:none;fill-rule:nonzero;fill:rgb(0%,0%,0%);fill-opacity:1;" d="M 200.589844 140 L 200.589844 120 L 220.589844 120 L 220.589844 140 Z M 200.589844 140 "/>
<path style=" stroke:none;fill-rule:nonzero;fill:rgb(0%,0%,0%);fill-opacity:1;" d="M 200.589844 100 L 200.589844 80 L 220.589844 80 L 220.589844 100 Z M 200.589844 100 "/>
<path style=" stroke:none;fill-rule:nonzero;fill:rgb(0%,0%,0%);fill-opacity:1;" d="M 200.589844 60 L 200.589844 40 L 220.589844 40 L 220.589844 60 Z M 200.589844 60 "/>
<path style=" stroke:none;fill-rule:nonzero;fill:rgb(0%,0%,0%);fill-opacity:1;" d="M 200.589844 20 L 200.589844 0 L 220.589844 0 L 220.589844 20 Z M 200.589844 20 "/>
<path style=" stroke:none;fill-rule:nonzero;fill:rgb(0%,0%,0%);fill-opacity:1;" d="M 236.589844 220 L 236.589844 200 L 256.589844 200 L 256.589844 220 Z M 236.589844 220 "/>
<path style=" stroke:none;fill-rule:nonzero;fill:rgb(0%,0%,0%);fill-opacity:1;" d="M 236.589844 180 L 236.589844 160 L 256.589844 160 L 256.589844 180 Z M 236.589844 180 "/>
<path style=" stroke:none;fill-rule:nonzero;fill:rgb(0%,0%,0%);fill-opacity:1;" d="M 236.589844 140 L 236.589844 120 L 256.589844 120 L 256.589844 140 Z M 236.589844 140 "/>
<path style=" stroke:none;fill-rule:nonzero;fill:rgb(0%,0%,0%);fill-opacity:1;" d="M 236.589844 100 L 236.589844 80 L 256.589844 80 L 256.589844 100 Z M 236.589844 100 "/>
<path style=" stroke:none;fill-rule:nonzero;fill:rgb(0%,0%,0%);fill-opacity:1;" d="M 236.589844 60 L 236.589844 40 L 256.589844 40 L 256.589844 60 Z M 236.589844 60 "/>
<path style=" stroke:none;fill-rule:nonzero;fill:rgb(0%,0%,0%);fill-opacity:1;" d="M 236.589844 20 L 236.589844 0 L 256.589844 0 L 256.589844 20 Z M 236.589844 20 "/>
<path style=" stroke:none;fill-rule:nonzero;fill:rgb(0%,0%,0%);fill-opacity:1;" d="M 272.589844 220 L 272.589844 200 L 292.589844 200 L 292.589844 220 Z M 272.589844 220 "/>
<path style=" stroke:none;fill-rule:nonzero;fill:rgb(0%,0%,0%);fill-opacity:1;" d="M 272.589844 180 L 272.589844 160 L 292.589844 160 L 292.589844 180 Z M 272.589844 180 "/>
<path style=" stroke:none;fill-rule:nonzero;fill:rgb(0%,0%,0%);fill-opacity:1;" d="M 272.589844 140 L 272.589844 120 L 292.589844 120 L 292.589844 140 Z M 272.589844 140 "/>
<path style=" stroke:none;fill-rule:nonzero;fill:rgb(0%,0%,0%);fill-opacity:1;" d="M 272.589844 100 L 272.589844 80 L 292.589844 80 L 292.589844 100 Z M 272.589844 100 "/>
<path style=" stroke:none;fill-rule:nonzero;fill:rgb(0%,0%,0%);fill-opacity:1;" d="M 272.589844 60 L 272.589844 40 L 292.589844 40 L 292.589844 60 Z M 272.589844 60 "/>
<path style=" stroke:none;fill-rule:nonzero;fill:rgb(0%,0%,0%);fill-opacity:1;" d="M 272.589844 20 L 272.589844 0 L 292.589844 0 L 292.589844 20 Z M 272.589844 20 "/>
<path style=" stroke:none;fill-rule:nonzero;fill:rgb(0%,0%,0%);fill-opacity:1;" d="M 308.589844 220 L 308.589844 200 L 328.589844 200 L 328.589844 220 Z M 308.589844 220 "/>
<path style=" stroke:none;fill-rule:nonzero;fill:rgb(0%,0%,0%);fill-opacity:1;" d="M 308.589844 180 L 308.589844 160 L 328.589844 160 L 328.589844 180 Z M 308.589844 180 "/>
<path style=" stroke:none;fill-rule:nonzero;fill:rgb(0%,0%,0%);fill-opacity:1;" d="M 308.589844 140 L 308.589844 120 L 328.589844 120 L 328.589844 140 Z M 308.589844 140 "/>
<path style=" stroke:none;fill-rule:nonzero;fill:rgb(0%,0%,0%);fill-opacity:1;" d="M 308.589844 100 L 308.589844 80 L 328.589844 80 L 328.589844 100 Z M 308.589844 100 "/>
<path style=" stroke:none;fill-rule:nonzero;fill:rgb(0%,0%,0%);fill-opacity:1;" d="M 308.589844 60 L 308.589844 40 L 328.589844 40 L 328.589844 60 Z M 308.589844 60 "/>
<path style=" stroke:none;fill-rule:nonzero;fill:rgb(0%,0%,0%);fill-opacity:1;" d="M 308.589844 20 L 308.589844 0 L 328.589844 0 L 328.589844 20 Z M 308.589844 20 "/>
<path style=" stroke:none;fill-rule:nonzero;fill:rgb(0%,0%,0%);fill-opacity:1;" d="M 344.589844 220 L 344.589844 200 L 364.589844 200 L 364.589844 220 Z M 344.589844 220 "/>
<path style=" stroke:none;fill-rule:nonzero;fill:rgb(0%,0%,0%);fill-opacity:1;" d="M 344.589844 180 L 344.589844 160 L 364.589844 160 L 364.589844 180 Z M 344.589844 180 "/>
<path style=" stroke:none;fill-rule:nonzero;fill:rgb(0%,0%,0%);fill-opacity:1;" d="M 344.589844 140 L 344.589844 120 L 364.589844 120 L 364.589844 140 Z M 344.589844 140 "/>
<path style=" stroke:none;fill-rule:nonzero;fill:rgb(0%,0%,0%);fill-opacity:1;" d="M 344.589844 100 L 344.589844 80 L 364.589844 80 L 364.589844 100 Z M 344.589844 100 "/>
<path style=" stroke:none;fill-rule:nonzero;fill:rgb(0%,0%,0%);fill-opacity:1;" d="M 344.589844 60 L 344.589844 40 L 364.589844 40 L 364.589844 60 Z M 344.589844 60 "/>
<path style=" stroke:none;fill-rule:nonzero;fill:rgb(0%,0%,0%);fill-opacity:1;" d="M 344.589844 20 L 344.589844 0 L 364.589844 0 L 364.589844 20 Z M 344.589844 20 "/>
<path style=" stroke:none;fill-rule:nonzero;fill:rgb(0%,0%,0%);fill-opacity:1;" d="M 380.589844 220 L 380.589844 200 L 400.589844 200 L 400.589844 220 Z M 380.589844 220 "/>
<path style=" stroke:none;fill-rule:nonzero;fill:rgb(0%,0%,0%);fill-opacity:1;" d="M 380.589844 180 L 380.589844 160 L 400.589844 160 L 400.589844 180 Z M 380.589844 180 "/>
<path style=" stroke:none;fill-rule:nonzero;fill:rgb(0%,0%,0%);fill-opacity:1;" d="M 380.589844 140 L 380.589844 120 L 400.589844 120 L 400.589844 140 Z M 380.589844 140 "/>
<path style=" stroke:none;fill-rule:nonzero;fill:rgb(0%,0%,0%);fill-opacity:1;" d="M 380.589844 100 L 380.589844 80 L 400.589844 80 L 400.589844 100 Z M 380.589844 100 "/>
<path style=" stroke:none;fill-rule:nonzero;fill:rgb(0%,0%,0%);fill-opacity:1;" d="M 380.589844 60 L 380.589844 40 L 400.589844 40 L 400.589844 60 Z M 380.589844 60 "/>
<path style=" stroke:none;fill-rule:nonzero;fill:rgb(0%,0%,0%);fill-opacity:1;" d="M 380.589844 20 L 380.589844 0 L 400.589844 0 L 400.589844 20 Z M 380.589844 20 "/>
<path style=" stroke:none;fill-rule:nonzero;fill:rgb(0%,0%,0%);fill-opacity:1;" d="M -7.25 200 L -7.25 180 L 12.75 180 L 12.75 200 Z M -7.25 200 "/>
<path style=" stroke:none;fill-rule:nonzero;fill:rgb(0%,0%,0%);fill-opacity:1;" d="M -7.25 160 L -7.25 140 L 12.75 140 L 12.75 160 Z M -7.25 160 "/>
<path style=" stroke:none;fill-rule:nonzero;fill:rgb(0%,0%,0%);fill-opacity:1;" d="M -7.25 120 L -7.25 100 L 12.75 100 L 12.75 120 Z M -7.25 120 "/>
<path style=" stroke:none;fill-rule:nonzero;fill:rgb(0%,0%,0%);fill-opacity:1;" d="M -7.25 80 L -7.25 60 L 12.75 60 L 12.75 80 Z M -7.25 80 "/>
<path style=" stroke:none;fill-rule:nonzero;fill:rgb(0%,0%,0%);fill-opacity:1;" d="M -7.25 40 L -7.25 20 L 12.75 20 L 12.75 40 Z M -7.25 40 "/>
<path style=" stroke:none;fill-rule:nonzero;fill:rgb(0%,0%,0%);fill-opacity:1;" d="M 28.75 200 L 28.75 180 L 48.75 180 L 48.75 200 Z M 28.75 200 "/>
<path style=" stroke:none;fill-rule:nonzero;fill:rgb(0%,0%,0%);fill-opacity:1;" d="M 28.75 160 L 28.75 140 L 48.75 140 L 48.75 160 Z M 28.75 160 "/>
<path style=" stroke:none;fill-rule:nonzero;fill:rgb(0%,0%,0%);fill-opacity:1;" d="M 28.75 120 L 28.75 100 L 48.75 100 L 48.75 120 Z M 28.75 120 "/>
<path style=" stroke:none;fill-rule:nonzero;fill:rgb(0%,0%,0%);fill-opacity:1;" d="M 28.75 80 L 28.75 60 L 48.75 60 L 48.75 80 Z M 28.75 80 "/>
<path style=" stroke:none;fill-rule:nonzero;fill:rgb(0%,0%,0%);fill-opacity:1;" d="M 28.75 40 L 28.75 20 L 48.75 20 L 48.75 40 Z M 28.75 40 "/>
<path style=" stroke:none;fill-rule:nonzero;fill:rgb(0%,0%,0%);fill-opacity:1;" d="M 64.75 200 L 64.75 180 L 84.75 180 L 84.75 200 Z M 64.75 200 "/>
<path style=" stroke:none;fill-rule:nonzero;fill:rgb(0%,0%,0%);fill-opacity:1;" d="M 64.75 160 L 64.75 140 L 84.75 140 L 84.75 160 Z M 64.75 160 "/>
<path style=" stroke:none;fill-rule:nonzero;fill:rgb(0%,0%,0%);fill-opacity:1;" d="M 64.75 120 L 64.75 100 L 84.75 100 L 84.75 120 Z M 64.75 120 "/>
<path style=" stroke:none;fill-rule:nonzero;fill:rgb(0%,0%,0%);fill-opacity:1;" d="M 64.75 80 L 64.75 60 L 84.75 60 L 84.75 80 Z M 64.75 80 "/>
<path style=" stroke:none;fill-rule:nonzero;fill:rgb(0%,0%,0%);fill-opacity:1;" d="M 64.75 40 L 64.75 20 L 84.75 20 L 84.75 40 Z M 64.75 40 "/>
<path style=" stroke:none;fill-rule:nonzero;fill:rgb(0%,0%,0%);fill-opacity:1;" d="M 100.75 200 L 100.75 180 L 120.75 180 L 120.75 200 Z M 100.75 200 "/>
<path style=" stroke:none;fill-rule:nonzero;fill:rgb(0%,0%,0%);fill-opacity:1;" d="M 100.75 160 L 100.75 140 L 120.75 140 L 120.75 160 Z M 100.75 160 "/>
<path style=" stroke:none;fill-rule:nonzero;fill:rgb(0%,0%,0%);fill-opacity:1;" d="M 100.75 120 L 100.75 100 L 120.75 100 L 120.75 120 Z M 100.75 120 "/>
<path style=" stroke:none;fill-rule:nonzero;fill:rgb(0%,0%,0%);fill-opacity:1;" d="M 100.75 80 L 100.75 60 L 120.75 60 L 120.75 80 Z M 100.75 80 "/>
<path style=" stroke:none;fill-rule:nonzero;fill:rgb(0%,0%,0%);fill-opacity:1;" d="M 100.75 40 L 100.75 20 L 120.75 20 L 120.75 40 Z M 100.75 40 "/>
<path style=" stroke:none;fill-rule:nonzero;fill:rgb(0%,0%,0%);fill-opacity:1;" d="M 136.75 200 L 136.75 180 L 156.75 180 L 156.75 200 Z M 136.75 200 "/>
<path style=" stroke:none;fill-rule:nonzero;fill:rgb(0%,0%,0%);fill-opacity:1;" d="M 136.75 160 L 136.75 140 L 156.75 140 L 156.75 160 Z M 136.75 160 "/>
<path style=" stroke:none;fill-rule:nonzero;fill:rgb(0%,0%,0%);fill-opacity:1;" d="M 136.75 120 L 136.75 100 L 156.75 100 L 156.75 120 Z M 136.75 120 "/>
<path style=" stroke:none;fill-rule:nonzero;fill:rgb(0%,0%,0%);fill-opacity:1;" d="M 136.75 80 L 136.75 60 L 156.75 60 L 156.75 80 Z M 136.75 80 "/>
<path style=" stroke:none;fill-rule:nonzero;fill:rgb(0%,0%,0%);fill-opacity:1;" d="M 136.75 40 L 136.75 20 L 156.75 20 L 156.75 40 Z M 136.75 40 "/>
<path style=" stroke:none;fill-rule:nonzero;fill:rgb(0%,0%,0%);fill-opacity:1;" d="M 172.75 200 L 172.75 180 L 192.75 180 L 192.75 200 Z M 172.75 200 "/>
<path style=" stroke:none;fill-rule:nonzero;fill:rgb(0%,0%,0%);fill-opacity:1;" d="M 172.75 160 L 172.75 140 L 192.75 140 L 192.75 160 Z M 172.75 160 "/>
<path style=" stroke:none;fill-rule:nonzero;fill:rgb(0%,0%,0%);fill-opacity:1;" d="M 172.75 120 L 172.75 100 L 192.75 100 L 192.75 120 Z M 172.75 120 "/>
<path style=" stroke:none;fill-rule:nonzero;fill:rgb(0%,0%,0%);fill-opacity:1;" d="M 172.75 80 L 172.75 60 L 192.75 60 L 192.75 80 Z M 172.75 80 "/>
<path style=" stroke:none;fill-rule:nonzero;fill:rgb(0%,0%,0%);fill-opacity:1;" d="M 172.75 40 L 172.75 20 L 192.75 20 L 192.75 40 Z M 172.75 40 "/>
<path style=" stroke:none;fill-rule:nonzero;fill:rgb(0%,0%,0%);fill-opacity:1;" d="M 208.75 200 L 208.75 180 L 228.75 180 L 228.75 200 Z M 208.75 200 "/>
<path style=" stroke:none;fill-rule:nonzero;fill:rgb(0%,0%,0%);fill-opacity:1;" d="M 208.75 160 L 208.75 140 L 228.75 140 L 228.75 160 Z M 208.75 160 "/>
<path style=" stroke:none;fill-rule:nonzero;fill:rgb(0%,0%,0%);fill-opacity:1;" d="M 208.75 120 L 208.75 100 L 228.75 100 L 228.75 120 Z M 208.75 120 "/>
<path style=" stroke:none;fill-rule:nonzero;fill:rgb(0%,0%,0%);fill-opacity:1;" d="M 208.75 80 L 208.75 60 L 228.75 60 L 228.75 80 Z M 208.75 80 "/>
<path style=" stroke:none;fill-rule:nonzero;fill:rgb(0%,0%,0%);fill-opacity:1;" d="M 208.75 40 L 208.75 20 L 228.75 20 L 228.75 40 Z M 208.75 40 "/>
<path style=" stroke:none;fill-rule:nonzero;fill:rgb(0%,0%,0%);fill-opacity:1;" d="M 244.75 200 L 244.75 180 L 264.75 180 L 264.75 200 Z M 244.75 200 "/>
<path style=" stroke:none;fill-rule:nonzero;fill:rgb(0%,0%,0%);fill-opacity:1;" d="M 244.75 160 L 244.75 140 L 264.75 140 L 264.75 160 Z M 244.75 160 "/>
<path style=" stroke:none;fill-rule:nonzero;fill:rgb(0%,0%,0%);fill-opacity:1;" d="M 244.75 120 L 244.75 100 L 264.75 100 L 264.75 120 Z M 244.75 120 "/>
<path style=" stroke:none;fill-rule:nonzero;fill:rgb(0%,0%,0%);fill-opacity:1;" d="M 244.75 80 L 244.75 60 L 264.75 60 L 264.75 80 Z M 244.75 80 "/>
<path style=" stroke:none;fill-rule:nonzero;fill:rgb(0%,0%,0%);fill-opacity:1;" d="M 244.75 40 L 244.75 20 L 264.75 20 L 264.75 40 Z M 244.75 40 "/>
<path style=" stroke:none;fill-rule:nonzero;fill:rgb(0%,0%,0%);fill-opacity:1;" d="M 280.75 200 L 280.75 180 L 300.75 180 L 300.75 200 Z M 280.75 200 "/>
<path style=" stroke:none;fill-rule:nonzero;fill:rgb(0%,0%,0%);fill-opacity:1;" d="M 280.75 160 L 280.75 140 L 300.75 140 L 300.75 160 Z M 280.75 160 "/>
<path style=" stroke:none;fill-rule:nonzero;fill:rgb(0%,0%,0%);fill-opacity:1;" d="M 280.75 120 L 280.75 100 L 300.75 100 L 300.75 120 Z M 280.75 120 "/>
<path style=" stroke:none;fill-rule:nonzero;fill:rgb(0%,0%,0%);fill-opacity:1;" d="M 280.75 80 L 280.75 60 L 300.75 60 L 300.75 80 Z M 280.75 80 "/>
<path style=" stroke:none;fill-rule:nonzero;fill:rgb(0%,0%,0%);fill-opacity:1;" d="M 280.75 40 L 280.75 20 L 300.75 20 L 300.75 40 Z M 280.75 40 "/>
<path style=" stroke:none;fill-rule:nonzero;fill:rgb(0%,0%,0%);fill-opacity:1;" d="M 316.75 200 L 316.75 180 L 336.75 180 L 336.75 200 Z M 316.75 200 "/>
<path style=" stroke:none;fill-rule:nonzero;fill:rgb(0%,0%,0%);fill-opacity:1;" d="M 316.75 160 L 316.75 140 L 336.75 140 L 336.75 160 Z M 316.75 160 "/>
<path style=" stroke:none;fill-rule:nonzero;fill:rgb(0%,0%,0%);fill-opacity:1;" d="M 316.75 120 L 316.75 100 L 336.75 100 L 336.75 120 Z M 316.75 120 "/>
<path style=" stroke:none;fill-rule:nonzero;fill:rgb(0%,0%,0%);fill-opacity:1;" d="M 316.75 80 L 316.75 60 L 336.75 60 L 336.75 80 Z M 316.75 80 "/>
<path style=" stroke:none;fill-rule:nonzero;fill:rgb(0%,0%,0%);fill-opacity:1;" d="M 316.75 40 L 316.75 20 L 336.75 20 L 336.75 40 Z M 316.75 40 "/>
<path style=" stroke:none;fill-rule:nonzero;fill:rgb(0%,0%,0%);fill-opacity:1;" d="M 352.75 200 L 352.75 180 L 372.75 180 L 372.75 200 Z M 352.75 200 "/>
<path style=" stroke:none;fill-rule:nonzero;fill:rgb(0%,0%,0%);fill-opacity:1;" d="M 352.75 160 L 352.75 140 L 372.75 140 L 372.75 160 Z M 352.75 160 "/>
<path style=" stroke:none;fill-rule:nonzero;fill:rgb(0%,0%,0%);fill-opacity:1;" d="M 352.75 120 L 352.75 100 L 372.75 100 L 372.75 120 Z M 352.75 120 "/>
<path style=" stroke:none;fill-rule:nonzero;fill:rgb(0%,0%,0%);fill-opacity:1;" d="M 352.75 80 L 352.75 60 L 372.75 60 L 372.75 80 Z M 352.75 80 "/>
<path style=" stroke:none;fill-rule:nonzero;fill:rgb(0%,0%,0%);fill-opacity:1;" d="M 352.75 40 L 352.75 20 L 372.75 20 L 372.75 40 Z M 352.75 40 "/>
<path style=" stroke:none;fill-rule:nonzero;fill:rgb(0%,0%,0%);fill-opacity:1;" d="M 388.75 200 L 388.75 180 L 408.75 180 L 408.75 200 Z M 388.75 200 "/>
<path style=" stroke:none;fill-rule:nonzero;fill:rgb(0%,0%,0%);fill-opacity:1;" d="M 388.75 160 L 388.75 140 L 408.75 140 L 408.75 160 Z M 388.75 160 "/>
<path style=" stroke:none;fill-rule:nonzero;fill:rgb(0%,0%,0%);fill-opacity:1;" d="M 388.75 120 L 388.75 100 L 408.75 100 L 408.75 120 Z M 388.75 120 "/>
<path style=" stroke:none;fill-rule:nonzero;fill:rgb(0%,0%,0%);fill-opacity:1;" d="M 388.75 80 L 388.75 60 L 408.75 60 L 408.75 80 Z M 388.75 80 "/>
<path style=" stroke:none;fill-rule:nonzero;fill:rgb(0%,0%,0%);fill-opacity:1;" d="M 388.75 40 L 388.75 20 L 408.75 20 L 408.75 40 Z M 388.75 40 "/>
<path style="fill:none;stroke-width:1;stroke-linecap:square;stroke-linejoin:miter;stroke:rgb(100%,0%,0%);stroke-opacity:1;stroke-miterlimit:3.25;" d="M 0 220 L 400 220 "/>
<path style="fill:none;stroke-width:1;stroke-linecap:square;stroke-linejoin:miter;stroke:rgb(100%,0%,0%);stroke-opacity:1;stroke-miterlimit:3.25;" d="M 0 200 L 400 200 "/>
<path style="fill:none;stroke-width:1;stroke-linecap:square;stroke-linejoin:miter;stroke:rgb(100%,0%,0%);stroke-opacity:1;stroke-miterlimit:3.25;" d="M 0 180 L 400 180 "/>
<path style="fill:none;stroke-width:1;stroke-linecap:square;stroke-linejoin:miter;stroke:rgb(100%,0%,0%);stroke-opacity:1;stroke-miterlimit:3.25;" d="M 0 160 L 400 160 "/>
<path style="fill:none;stroke-width:1;stroke-linecap:square;stroke-linejoin:miter;stroke:rgb(100%,0%,0%);stroke-opacity:1;stroke-miterlimit:3.25;" d="M 0 140 L 400 140 "/>
<path style="fill:none;stroke-width:1;stroke-linecap:square;stroke-linejoin:miter;stroke:rgb(100%,0%,0%);stroke-opacity:1;stroke-miterlimit:3.25;" d="M 0 120 L 400 120 "/>
<path style="fill:none;stroke-width:1;stroke-linecap:square;stroke-linejoin:miter;stroke:rgb(100%,0%,0%);stroke-opacity:1;stroke-miterlimit:3.25;" d="M 0 100 L 400 100 "/>
<path style="fill:none;stroke-width:1;stroke-linecap:square;stroke-linejoin:miter;stroke:rgb(100%,0%,0%);stroke-opacity:1;stroke-miterlimit:3.25;" d="M 0 80 L 400 80 "/>
<path style="fill:none;stroke-width:1;stroke-linecap:square;stroke-linejoin:miter;stroke:rgb(100%,0%,0%);stroke-opacity:1;stroke-miterlimit:3.25;" d="M 0 60 L 400 60 "/>
<path style="fill:none;stroke-width:1;stroke-linecap:square;stroke-linejoin:miter;stroke:rgb(100%,0%,0%);stroke-opacity:1;stroke-miterlimit:3.25;" d="M 0 40 L 400 40 "/>
<path style="fill:none;stroke-width:1;stroke-linecap:square;stroke-linejoin:miter;stroke:rgb(100%,0%,0%);stroke-opacity:1;stroke-miterlimit:3.25;" d="M 0 20 L 400 20 "/>
</g>
</svg>
