<?xml version="1.0" encoding="UTF-8"?>
<svg xmlns="http://www.w3.org/2000/svg" xmlns:xlink="http://www.w3.org/1999/xlink" width="400pt" height="220pt" viewBox="0 0 400 220" version="1.1">
<g id="surface636">
<rect x="0" y="0" width="400" height="220" style="fill:rgb(0%,40%,100%);fill-opacity:0.2;stroke:none;"/>
<path style=" stroke:none;fill-rule:nonzero;fill:rgb(0%,0%,0%);fill-opacity:1;" d="M 19.644531 220 L 19.644531 200 L 39.644531 200 L 39.644531 220 Z M 19.644531 220 "/>
<path style=" stroke:none;fill-rule:nonzero;fill:rgb(0%,0%,0%);fill-opacity:1;" d="M 19.644531 180 L 19.644531 160 L 39.644531 160 L 39.644531 180 Z M 19.644531 180 "/>
<path style=" stroke:none;fill-rule:nonzero;fill:rgb(0%,0%,0%);fill-opacity:1;" d="M 19.644531 140 L 19.644531 120 L 39.644531 120 L 39.644531 140 Z M 19.644531 140 "/>
<path style=" stroke:none;fill-rule:nonzero;fill:rgb(0%,0%,0%);fill-opacity:1;" d="M 19.644531 100 L 19.644531 80 L 39.644531 80 L 39.644531 100 Z M 19.644531 100 "/>
<path style=" stroke:none;fill-rule:nonzero;fill:rgb(0%,0%,0%);fill-opacity:1;" d="M 19.644531 60 L 19.644531 40 L 39.644531 40 L 39.644531 60 Z M 19.644531 60 "/>
<path style=" stroke:none;fill-rule:nonzero;fill:rgb(0%,0%,0%);fill-opacity:1;" d="M 19.644531 20 L 19.644531 0 L 39.644531 0 L 39.644531 20 Z M 19.644531 20 "/>
<path style=" stroke:none;fill-rule:nonzero;fill:rgb(0%,0%,0%);fill-opacity:1;" d="M 55.644531 220 L 55.644531 200 L 75.644531 200 L 75.644531 220 Z M 55.644531 220 "/>
<path style=" stroke:none;fill-rule:nonzero;fill:rgb(0%,0%,0%);fill-opacity:1;" d="M 55.644531 180 L 55.644531 160 L 75.644531 160 L 75.644531 180 Z M 55.644531 180 "/>
<path style=" stroke:none;fill-rule:nonzero;fill:rgb(0%,0%,0%);fill-opacity:1;" d="M 55.644531 140 L 55.644531 120 L 75.644531 120 L 75.644531 140 Z M 55.644531 140 "/>
<path style=" stroke:none;fill-rule:nonzero;fill:rgb(0%,0%,0%);fill-opacity:1;" d="M 55.644531 100 L 55.644531 80 L 75.644531 80 L 75.644531 100 Z M 55.644531 100 "/>
<path style=" stroke:none;fill-rule:nonzero;fill:rgb(0%,0%,0%);fill-opacity:1;" d="M 55.644531 60 L 55.644531 40 L 75.644531 40 L 75.644531 60 Z M 55.644531 60 "/>
<path style=" stroke:none;fill-rule:nonzero;fill:rgb(0%,0%,0%);fill-opacity:1;" d="M 55.644531 20 L 55.644531 0 L 75.644531 0 L 75.644531 20 Z M 55.644531 20 "/>
<path style=" stroke:none;fill-rule:nonzero;fill:rgb(0%,0%,0%);fill-opacity:1;" d="M 91.644531 220 L 91.644531 200 L 111.644531 200 L 111.644531 220 Z M 91.644531 220 "/>
<path style=" stroke:none;fill-rule:nonzero;fill:rgb(0%,0%,0%);fill-opacity:1;" d="M 91.644531 180 L 91.644531 160 L 111.644531 160 L 111.644531 180 Z M 91.644531 180 "/>
<path style=" stroke:none;fill-rule:nonzero;fill:rgb(0%,0%,0%);fill-opacity:1;" d="M 91.644531 140 L 91.644531 120 L 111.644531 120 L 111.644531 140 Z M 91.644531 140 "/>
<path style=" stroke:none;fill-rule:nonzero;fill:rgb(0%,0%,0%);fill-opacity:1;" d="M 91.644531 100 L 91.644531 80 L 111.644531 80 L 111.644531 100 Z M 91.644531 100 "/>
<path style=" stroke:none;fill-rule:nonzero;fill:rgb(0%,0%,0%);fill-opacity:1;" d="M 91.644531 60 L 91.644531 40 L 111.644531 40 L 111.644531 60 Z M 91.644531 60 "/>
<path style=" stroke:none;fill-rule:nonzero;fill:rgb(0%,0%,0%);fill-opacity:1;" d="M 91.644531 20 L 91.644531 0 L 111.644531 0 L 111.644531 20 Z M 91.644531 20 "/>
<path style=" stroke:none;fill-rule:nonzero;fill:rgb(0%,0%,0%);fill-opacity:1;" d="M 127.644531 220 L 127.644531 200 L 147.644531 200 L 147.644531 220 Z M 127.644531 220 "/>
<path style=" stroke:none;fill-rule:nonzero;fill:rgb(0%,0%,0%);fill-opacity:1;" d="M 127.644531 180 L 127.644531 160 L 147.644531 160 L 147.644531 180 Z M 127.644531 180 "/>
<path style=" stroke:none;fill-rule:nonzero;fill:rgb(0%,0%,0%);fill-opacity:1;" d="M 127.644531 140 L 127.644531 120 L 147.644531 120 L 147.644531 140 Z M 127.644531 140 "/>
<path style=" stroke:none;fill-rule:nonzero;fill:rgb(0%,0%,0%);fill-opacity:1;" d="M 127.644531 100 L 127.644531 80 L 147.644531 80 L 147.644531 100 Z M 127.644531 100 "/>
<path style=" stroke:none;fill-rule:nonzero;fill:rgb(0%,0%,0%);fill-opacity:1;" d="M 127.644531 60 L 127.644531 40 L 147.644531 40 L 147.644531 60 Z M 127.644531 60 "/>
<path style=" stroke:none;fill-rule:nonzero;fill:rgb(0%,0%,0%);fill-opacity:1;" d="M 127.644531 20 L 127.644531 0 L 147.644531 0 L 147.644531 20 Z M 127.644531 20 "/>
<path style=" stroke:none;fill-rule:nonzero;fill:rgb(0%,0%,0%);fill-opacity:1;" d="M 163.644531 220 L 163.644531 200 L 183.644531 200 L 183.644531 220 Z M 163.644531 220 "/>
<path style=" stroke:none;fill-rule:nonzero;fill:rgb(0%,0%,0%);fill-opacity:1;" d="M 163.644531 180 L 163.644531 160 L 183.644531 160 L 183.644531 180 Z M 163.644531 180 "/>
<path style=" stroke:none;fill-rule:nonzero;fill:rgb(0%,0%,0%);fill-opacity:1;" d="M 163.644531 140 L 163.644531 120 L 183.644531 120 L 183.644531 140 Z M 163.644531 140 "/>
<path style=" stroke:none;fill-rule:nonzero;fill:rgb(0%,0%,0%);fill-opacity:1;" d="M 163.644531 100 L 163.644531 80 L 183.644531 80 L 183.644531 100 Z M 163.644531 100 "/>
<path style=" stroke:none;fill-rule:nonzero;fill:rgb(0%,0%,0%);fill-opacity:1;" d="M 163.644531 60 L 163.644531 40 L 183.644531 40 L 183.644531 60 Z M 163.644531 60 "/>
<path style=" stroke:none;fill-rule:nonzero;fill:rgb(0%,0%,0%);fill-opacity:1;" d="M 163.644531 20 L 163.644531 0 L 183.644531 0 L 183.644531 20 Z M 163.644531 20 "/>
<path style=" stroke:none;fill-rule:nonzero;fill:rgb(0%,0%,0%);fill-opacity:1;" d="M 199.644531 220 L 199.644531 200 L 219.644531 200 L 219.644531 220 Z M 199.644531 220 "/>
<path style=" stroke:none;fill-rule:nonzero;fill:rgb(0%,0%,0%);fill-opacity:1;" d="M 199.644531 180 L 199.644531 160 L 219.644531 160 L 219.644531 180 Z M 199.644531 180 "/>
<path style=" stroke:none;fill-rule:nonzero;fill:rgb(0%,0%,0%);fill-opacity:1;" d="M 199.644531 140 L 199.644531 120 L 219.644531 120 L 219.644531 140 Z M 199.644531 140 "/>
<path style=" stroke:none;fill-rule:nonzero;fill:rgb(0%,0%,0%);fill-opacity:1;" d="M 199.644531 100 L 199.644531 80 L 219.644531 80 L 219.644531 100 Z M 199.644531 100 "/>
<path style=" stroke:none;fill-rule:nonzero;fill:rgb(0%,0%,0%);fill-opacity:1;" d="M 199.644531 60 L 199.644531 40 L 219.644531 40 L 219.644531 60 Z M 199.644531 60 "/>
<path style=" stroke:none;fill-rule:nonzero;fill:rgb(0%,0%,0%);fill-opacity:1;" d="M 199.644531 20 L 199.644531 0 L 219.644531 0 L 219.644531 20 Z M 199.644531 20 "/>
<path style=" stroke:none;fill-rule:nonzero;fill:rgb(0%,0%,0%);fill-opacity:1;" d="M 235.644531 220 L 235.644531 200 L 255.644531 200 L 255.644531 220 Z M 235.644531 220 "/>
<path style=" stroke:none;fill-rule:nonzero;fill:rgb(0%,0%,0%);fill-opacity:1;" d="M 235.644531 180 L 235.644531 160 L 255.644531 160 L 255.644531 180 Z M 235.644531 180 "/>
<path style=" stroke:none;fill-rule:nonzero;fill:rgb(0%,0%,0%);fill-opacity:1;" d="M 235.644531 140 L 235.644531 120 L 255.644531 120 L 255.644531 140 Z M 235.644531 140 "/>
<path style=" stroke:none;fill-rule:nonzero;fill:rgb(0%,0%,0%);fill-opacity:1;" d="M 235.644531 100 L 235.644531 80 L 255.644531 80 L 255.644531 100 Z M 235.644531 100 "/>
<path style=" stroke:none;fill-rule:nonzero;fill:rgb(0%,0%,0%);fill-opacity:1;" d="M 235.644531 60 L 235.644531 40 L 255.644531 40 L 255.644531 60 Z M 235.644531 60 "/>
<path style=" stroke:none;fill-rule:nonzero;fill:rgb(0%,0%,0%);fill-opacity:1;" d="M 235.644531 20 L 235.644531 0 L 255.644531 0 L 255.644531 20 Z M 235.644531 20 "/>
<path style=" stroke:none;fill-rule:nonzero;fill:rgb(0%,0%,0%);fill-opacity:1;" d="M 271.644531 220 L 271.644531 200 L 291.644531 200 L 291.644531 220 Z M 271.644531 220 "/>
<path style=" stroke:none;fill-rule:nonzero;fill:rgb(0%,0%,0%);fill-opacity:1;" d="M 271.644531 180 L 271.644531 160 L 291.644531 160 L 291.644531 180 Z M 271.644531 180 "/>
<path style=" stroke:none;fill-rule:nonzero;fill:rgb(0%,0%,0%);fill-opacity:1;" d="M 271.644531 140 L 271.644531 120 L 291.644531 120 L 291.644531 140 Z M 271.644531 140 "/>
<path style=" stroke:none;fill-rule:nonzero;fill:rgb(0%,0%,0%);fill-opacity:1;" d="M 271.644531 100 L 271.644531 80 L 291.644531 80 L 291.644531 100 Z M 271.644531 100 "/>
<path style=" stroke:none;fill-rule:nonzero;fill:rgb(0%,0%,0%);fill-opacity:1;" d="M 271.644531 60 L 271.644531 40 L 291.644531 40 L 291.644531 60 Z M 271.644531 60 "/>
<path style=" stroke:none;fill-rule:nonzero;fill:rgb(0%,0%,0%);fill-opacity:1;" d="M 271.644531 20 L 271.644531 0 L 291.644531 0 L 291.644531 20 Z M 271.644531 20 "/>
<path style=" stroke:none;fill-rule:nonzero;fill:rgb(0%,0%,0%);fill-opacity:1;" d="M 307.644531 220 L 307.644531 200 L 327.644531 200 L 327.644531 220 Z M 307.644531 220 "/>
<path style=" stroke:none;fill-rule:nonzero;fill:rgb(0%,0%,0%);fill-opacity:1;" d="M 307.644531 180 L 307.644531 160 L 327.644531 160 L 327.644531 180 Z M 307.644531 180 "/>
<path style=" stroke:none;fill-rule:nonzero;fill:rgb(0%,0%,0%);fill-opacity:1;" d="M 307.644531 140 L 307.644531 120 L 327.644531 120 L 327.644531 140 Z M 307.644531 140 "/>
<path style=" stroke:none;fill-rule:nonzero;fill:rgb(0%,0%,0%);fill-opacity:1;" d="M 307.644531 100 L 307.644531 80 L 327.644531 80 L 327.644531 100 Z M 307.644531 100 "/>
<path style=" stroke:none;fill-rule:nonzero;fill:rgb(0%,0%,0%);fill-opacity:1;" d="M 307.644531 60 L 307.644531 40 L 327.644531 40 L 327.644531 60 Z M 307.644531 60 "/>
<path style=" stroke:none;fill-rule:nonzero;fill:rgb(0%,0%,0%);fill-opacity:1;" d="M 307.644531 20 L 307.644531 0 L 327.644531 0 L 327.644531 20 Z M 307.644531 20 "/>
<path style=" stroke:none;fill-rule:nonzero;fill:rgb(0%,0%,0%);fill-opacity:1;" d="M 343.644531 220 L 343.644531 200 L 363.644531 200 L 363.644531 220 Z M 343.644531 220 "/>
<path style=" stroke:none;fill-rule:nonzero;fill:rgb(0%,0%,0%);fill-opacity:1;" d="M 343.644531 180 L 343.644531 160 L 363.644531 160 L 363.644531 180 Z M 343.644531 180 "/>
<path style=" stroke:none;fill-rule:nonzero;fill:rgb(0%,0%,0%);fill-opacity:1;" d="M 343.644531 140 L 343.644531 120 L 363.644531 120 L 363.644531 140 Z M 343.644531 140 "/>
<path style=" stroke:none;fill-rule:nonzero;fill:rgb(0%,0%,0%);fill-opacity:1;" d="M 343.644531 100 L 343.644531 80 L 363.644531 80 L 363.644531 100 Z M 343.644531 100 "/>
<path style=" stroke:none;fill-rule:nonzero;fill:rgb(0%,0%,0%);fill-opacity:1;" d="M 343.644531 60 L 343.644531 40 L 363.644531 40 L 363.644531 60 Z M 343.644531 60 "/>
<path style=" stroke:none;fill-rule:nonzero;fill:rgb(0%,0%,0%);fill-opacity:1;" d="M 343.644531 20 L 343.644531 0 L 363.644531 0 L 363.644531 20 Z M 343.644531 20 "/>
<path style=" stroke:none;fill-rule:nonzero;fill:rgb(0%,0%,0%);fill-opacity:1;" d="M 379.644531 220 L 379.644531 200 L 399.644531 200 L 399.644531 220 Z M 379.644531 220 "/>
<path style=" stroke:none;fill-rule:nonzero;fill:rgb(0%,0%,0%);fill-opacity:1;" d="M 379.644531 180 L 379.644531 160 L 399.644531 160 L 399.644531 180 Z M 379.644531 180 "/>
<path style=" stroke:none;fill-rule:nonzero;fill:rgb(0%,0%,0%);fill-opacity:1;" d="M 379.644531 140 L 379.644531 120 L 399.644531 120 L 399.644531 140 Z M 379.644531 140 "/>
<path style=" stroke:none;fill-rule:nonzero;fill:rgb(0%,0%,0%);fill-opacity:1;" d="M 379.644531 100 L 379.644531 80 L 399.644531 80 L 399.644531 100 Z M 379.644531 100 "/>
<path style=" stroke:none;fill-rule:nonzero;fill:rgb(0%,0%,0%);fill-opacity:1;" d="M 379.644531 60 L 379.644531 40 L 399.644531 40 L 399.644531 60 Z M 379.644531 60 "/>
<path style=" stroke:none;fill-rule:nonzero;fill:rgb(0%,0%,0%);fill-opacity:1;" d="M 379.644531 20 L 379.644531 0 L 399.644531 0 L 399.644531 20 Z M 379.644531 20 "/>
<path style=" stroke:none;fill-rule:nonzero;fill:rgb(0%,0%,0%);fill-opacity:1;" d="M -16.253906 200 L -16.253906 180 L 3.746094 180 L 3.746094 200 Z M -16.253906 200 "/>
<path style=" stroke:none;fill-rule:nonzero;fill:rgb(0%,0%,0%);fill-opacity:1;" d="M -16.253906 160 L -16.253906 140 L 3.746094 140 L 3.746094 160 Z M -16.253906 160 "/>
<path style=" stroke:none;fill-rule:nonzero;fill:rgb(0%,0%,0%);fill-opacity:1;" d="M -16.253906 120 L -16.253906 100 L 3.746094 100 L 3.746094 120 Z M -16.253906 120 "/>
<path style=" stroke:none;fill-rule:nonzero;fill:rgb(0%,0%,0%);fill-opacity:1;" d="M -16.253906 80 L -16.253906 60 L 3.746094 60 L 3.746094 80 Z M -16.253906 80 "/>
<path style=" stroke:none;fill-rule:nonzero;fill:rgb(0%,0%,0%);fill-opacity:1;" d="M -16.253906 40 L -16.253906 20 L 3.746094 20 L 3.746094 40 Z M -16.253906 40 "/>
<path style=" stroke:none;fill-rule:nonzero;fill:rgb(0%,0%,0%);fill-opacity:1;" d="M 19.746094 200 L 19.746094 180 L 39.746094 180 L 39.746094 200 Z M 19.746094 200 "/>
<path style=" stroke:none;fill-rule:nonzero;fill:rgb(0%,0%,0%);fill-opacity:1;" d="M 19.746094 160 L 19.746094 140 L 39.746094 140 L 39.746094 160 Z M 19.746094 160 "/>
<path style=" stroke:none;fill-rule:nonzero;fill:rgb(0%,0%,0%);fill-opacity:1;" d="M 19.746094 120 L 19.746094 100 L 39.746094 100 L 39.746094 120 Z M 19.746094 120 "/>
<path style=" stroke:none;fill-rule:nonzero;fill:rgb(0%,0%,0%);fill-opacity:1;" d="M 19.746094 80 L 19.746094 60 L 39.746094 60 L 39.746094 80 Z M 19.746094 80 "/>
<path style=" stroke:none;fill-rule:nonzero;fill:rgb(0%,0%,0%);fill-opacity:1;" d="M 19.746094 40 L 19.746094 20 L 39.746094 20 L 39.746094 40 Z M 19.746094 40 "/>
<path style=" stroke:none;fill-rule:nonzero;fill:rgb(0%,0%,0%);fill-opacity:1;" d="M 55.746094 200 L 55.746094 180 L 75.746094 180 L 75.746094 200 Z M 55.746094 200 "/>
<path style=" stroke:none;fill-rule:nonzero;fill:rgb(0%,0%,0%);fill-opacity:1;" d="M 55.746094 160 L 55.746094 140 L 75.746094 140 L 75.746094 160 Z M 55.746094 160 "/>
<path style=" stroke:none;fill-rule:nonzero;fill:rgb(0%,0%,0%);fill-opacity:1;" d="M 55.746094 120 L 55.746094 100 L 75.746094 100 L 75.746094 120 Z M 55.746094 120 "/>
<path style=" stroke:none;fill-rule:nonzero;fill:rgb(0%,0%,0%);fill-opacity:1;" d="M 55.746094 80 L 55.746094 60 L 75.746094 60 L 75.746094 80 Z M 55.746094 80 "/>
<path style=" stroke:none;fill-rule:nonzero;fill:rgb(0%,0%,0%);fill-opacity:1;" d="M 55.746094 40 L 55.746094 20 L 75.746094 20 L 75.746094 40 Z M 55.746094 40 "/>
<path style=" stroke:none;fill-rule:nonzero;fill:rgb(0%,0%,0%);fill-opacity:1;" d="M 91.746094 200 L 91.746094 180 L 111.746094 180 L 111.746094 200 Z M 91.746094 200 "/>
<path style=" stroke:none;fill-rule:nonzero;fill:rgb(0%,0%,0%);fill-opacity:1;" d="M 91.746094 160 L 91.746094 140 L 111.746094 140 L 111.746094 160 Z M 91.746094 160 "/>
<path style=" stroke:none;fill-rule:nonzero;fill:rgb(0%,0%,0%);fill-opacity:1;" d="M 91.746094 120 L 91.746094 100 L 111.746094 100 L 111.746094 120 Z M 91.746094 120 "/>
<path style=" stroke:none;fill-rule:nonzero;fill:rgb(0%,0%,0%);fill-opacity:1;" d="M 91.746094 80 L 91.746094 60 L 111.746094 60 L 111.746094 80 Z M 91.746094 80 "/>
<path style=" stroke:none;fill-rule:nonzero;fill:rgb(0%,0%,0%);fill-opacity:1;" d="M 91.746094 40 L 91.746094 20 L 111.746094 20 L 111.746094 40 Z M 91.746094 40 "/>
<path style=" stroke:none;fill-rule:nonzero;fill:rgb(0%,0%,0%);fill-opacity:1;" d="M 127.746094 200 L 127.746094 180 L 147.746094 180 L 147.746094 200 Z M 127.746094 200 "/>
<path style=" stroke:none;fill-rule:nonzero;fill:rgb(0%,0%,0%);fill-opacity:1;" d="M 127.746094 160 L 127.746094 140 L 147.746094 140 L 147.746094 160 Z M 127.746094 160 "/>
<path style=" stroke:none;fill-rule:nonzero;fill:rgb(0%,0%,0%);fill-opacity:1;" d="M 127.746094 120 L 127.746094 100 L 147.746094 100 L 147.746094 120 Z M 127.746094 120 "/>
<path style=" stroke:none;fill-rule:nonzero;fill:rgb(0%,0%,0%);fill-opacity:1;" d="M 127.746094 80 L 127.746094 60 L 147.746094 60 L 147.746094 80 Z M 127.746094 80 "/>
<path style=" stroke:none;fill-rule:nonzero;fill:rgb(0%,0%,0%);fill-opacity:1;" d="M 127.746094 40 L 127.746094 20 L 147.746094 20 L 147.746094 40 Z M 127.746094 40 "/>
<path style=" stroke:none;fill-rule:nonzero;fill:rgb(0%,0%,0%);fill-opacity:1;" d="M 163.746094 200 L 163.746094 180 L 183.746094 180 L 183.746094 200 Z M 163.746094 200 "/>
<path style=" stroke:none;fill-rule:nonzero;fill:rgb(0%,0%,0%);fill-opacity:1;" d="M 163.746094 160 L 163.746094 140 L 183.746094 140 L 183.746094 160 Z M 163.746094 160 "/>
<path style=" stroke:none;fill-rule:nonzero;fill:rgb(0%,0%,0%);fill-opacity:1;" d="M 163.746094 120 L 163.746094 100 L 183.746094 100 L 183.746094 120 Z M 163.746094 120 "/>
<path style=" stroke:none;fill-rule:nonzero;fill:rgb(0%,0%,0%);fill-opacity:1;" d="M 163.746094 80 L 163.746094 60 L 183.746094 60 L 183.746094 80 Z M 163.746094 80 "/>
<path style=" stroke:none;fill-rule:nonzero;fill:rgb(0%,0%,0%);fill-opacity:1;" d="M 163.746094 40 L 163.746094 20 L 183.746094 20 L 183.746094 40 Z M 163.746094 40 "/>
<path style=" stroke:none;fill-rule:nonzero;fill:rgb(0%,0%,0%);fill-opacity:1;" d="M 199.746094 200 L 199.746094 180 L 219.746094 180 L 219.746094 200 Z M 199.746094 200 "/>
<path style=" stroke:none;fill-rule:nonzero;fill:rgb(0%,0%,0%);fill-opacity:1;" d="M 199.746094 160 L 199.746094 140 L 219.746094 140 L 219.746094 160 Z M 199.746094 160 "/>
<path style=" stroke:none;fill-rule:nonzero;fill:rgb(0%,0%,0%);fill-opacity:1;" d="M 199.746094 120 L 199.746094 100 L 219.746094 100 L 219.746094 120 Z M 199.746094 120 "/>
<path style=" stroke:none;fill-rule:nonzero;fill:rgb(0%,0%,0%);fill-opacity:1;" d="M 199.746094 80 L 199.746094 60 L 219.746094 60 L 219.746094 80 Z M 199.746094 80 "/>
<path style=" stroke:none;fill-rule:nonzero;fill:rgb(0%,0%,0%);fill-opacity:1;" d="M 199.746094 40 L 199.746094 20 L 219.746094 20 L 219.746094 40 Z M 199.746094 40 "/>
<path style=" stroke:none;fill-rule:nonzero;fill:rgb(0%,0%,0%);fill-opacity:1;" d="M 235.746094 200 L 235.746094 180 L 255.746094 180 L 255.746094 200 Z M 235.746094 200 "/>
<path style=" stroke:none;fill-rule:nonzero;fill:rgb(0%,0%,0%);fill-opacity:1;" d="M 235.746094 160 L 235.746094 140 L 255.746094 140 L 255.746094 160 Z M 235.746094 160 "/>
<path style=" stroke:none;fill-rule:nonzero;fill:rgb(0%,0%,0%);fill-opacity:1;" d="M 235.746094 120 L 235.746094 100 L 255.746094 100 L 255.746094 120 Z M 235.746094 120 "/>
<path style=" stroke:none;fill-rule:nonzero;fill:rgb(0%,0%,0%);fill-opacity:1;" d="M 235.746094 80 L 235.746094 60 L 255.746094 60 L 255.746094 80 Z M 235.746094 80 "/>
<path style=" stroke:none;fill-rule:nonzero;fill:rgb(0%,0%,0%);fill-opacity:1;" d="M 235.746094 40 L 235.746094 20 L 255.746094 20 L 255.746094 40 Z M 235.746094 40 "/>
<path style=" stroke:none;fill-rule:nonzero;fill:rgb(0%,0%,0%);fill-opacity:1;" d="M 271.746094 200 L 271.746094 180 L 291.746094 180 L 291.746094 200 Z M 271.746094 200 "/>
<path style=" stroke:none;fill-rule:nonzero;fill:rgb(0%,0%,0%);fill-opacity:1;" d="M 271.746094 160 L 271.746094 140 L 291.746094 140 L 291.746094 160 Z M 271.746094 160 "/>
<path style=" stroke:none;fill-rule:nonzero;fill:rgb(0%,0%,0%);fill-opacity:1;" d="M 271.746094 120 L 271.746094 100 L 291.746094 100 L 291.746094 120 Z M 271.746094 120 "/>
<path style=" stroke:none;fill-rule:nonzero;fill:rgb(0%,0%,0%);fill-opacity:1;" d="M 271.746094 80 L 271.746094 60 L 291.746094 60 L 291.746094 80 Z M 271.746094 80 "/>
<path style=" stroke:none;fill-rule:nonzero;fill:rgb(0%,0%,0%);fill-opacity:1;" d="M 271.746094 40 L 271.746094 20 L 291.746094 20 L 291.746094 40 Z M 271.746094 40 "/>
<path style=" stroke:none;fill-rule:nonzero;fill:rgb(0%,0%,0%);fill-opacity:1;" d="M 307.746094 200 L 307.746094 180 L 327.746094 180 L 327.746094 200 Z M 307.746094 200 "/>
<path style=" stroke:none;fill-rule:nonzero;fill:rgb(0%,0%,0%);fill-opacity:1;" d="M 307.746094 160 L 307.746094 140 L 327.746094 140 L 327.746094 160 Z M 307.746094 160 "/>
<path style=" stroke:none;fill-rule:nonzero;fill:rgb(0%,0%,0%);fill-opacity:1;" d="M 307.746094 120 L 307.746094 100 L 327.746094 100 L 327.746094 120 Z M 307.746094 120 "/>
<path style=" stroke:none;fill-rule:nonzero;fill:rgb(0%,0%,0%);fill-opacity:1;" d="M 307.746094 80 L 307.746094 60 L 327.746094 60 L 327.746094 80 Z M 307.746094 80 "/>
<path style=" stroke:none;fill-rule:nonzero;fill:rgb(0%,0%,0%);fill-opacity:1;" d="M 307.746094 40 L 307.746094 20 L 327.746094 20 L 327.746094 40 Z M 307.746094 40 "/>
<path style=" stroke:none;fill-rule:nonzero;fill:rgb(0%,0%,0%);fill-opacity:1;" d="M 343.746094 200 L 343.746094 180 L 363.746094 180 L 363.746094 200 Z M 343.746094 200 "/>
<path style=" stroke:none;fill-rule:nonzero;fill:rgb(0%,0%,0%);fill-opacity:1;" d="M 343.746094 160 L 343.746094 140 L 363.746094 140 L 363.746094 160 Z M 343.746094 160 "/>
<path style=" stroke:none;fill-rule:nonzero;fill:rgb(0%,0%,0%);fill-opacity:1;" d="M 343.746094 120 L 343.746094 100 L 363.746094 100 L 363.746094 120 Z M 343.746094 120 "/>
<path style=" stroke:none;fill-rule:nonzero;fill:rgb(0%,0%,0%);fill-opacity:1;" d="M 343.746094 80 L 343.746094 60 L 363.746094 60 L 363.746094 80 Z M 343.746094 80 "/>
<path style=" stroke:none;fill-rule:nonzero;fill:rgb(0%,0%,0%);fill-opacity:1;" d="M 343.746094 40 L 343.746094 20 L 363.746094 20 L 363.746094 40 Z M 343.746094 40 "/>
<path style=" stroke:none;fill-rule:nonzero;fill:rgb(0%,0%,0%);fill-opacity:1;" d="M 379.746094 200 L 379.746094 180 L 399.746094 180 L 399.746094 200 Z M 379.746094 200 "/>
<path style=" stroke:none;fill-rule:nonzero;fill:rgb(0%,0%,0%);fill-opacity:1;" d="M 379.746094 160 L 379.746094 140 L 399.746094 140 L 399.746094 160 Z M 379.746094 160 "/>
<path style=" stroke:none;fill-rule:nonzero;fill:rgb(0%,0%,0%);fill-opacity:1;" d="M 379.746094 120 L 379.746094 100 L 399.746094 100 L 399.746094 120 Z M 379.746094 120 "/>
<path style=" stroke:none;fill-rule:nonzero;fill:rgb(0%,0%,0%);fill-opacity:1;" d="M 379.746094 80 L 379.746094 60 L 399.746094 60 L 399.746094 80 Z M 379.746094 80 "/>
<path style=" stroke:none;fill-rule:nonzero;fill:rgb(0%,0%,0%);fill-opacity:1;" d="M 379.746094 40 L 379.746094 20 L 399.746094 20 L 399.746094 40 Z M 379.746094 40 "/>
<path style="fill:none;stroke-width:1;stroke-linecap:square;stroke-linejoin:miter;stroke:rgb(100%,0%,0%);stroke-opacity:1;stroke-miterlimit:3.25;" d="M 0 220 L 400 220 "/>
<path style="fill:none;stroke-width:1;stroke-linecap:square;stroke-linejoin:miter;stroke:rgb(100%,0%,0%);stroke-opacity:1;stroke-miterlimit:3.25;" d="M 0 200 L 400 200 "/>
<path style="fill:none;stroke-width:1;stroke-linecap:square;stroke-linejoin:miter;stroke:rgb(100%,0%,0%);stroke-opacity:1;stroke-miterlimit:3.25;" d="M 0 180 L 400 180 "/>
<path style="fill:none;stroke-width:1;stroke-linecap:square;stroke-linejoin:miter;stroke:rgb(100%,0%,0%);stroke-opacity:1;stroke-miterlimit:3.25;" d="M 0 160 L 400 160 "/>
<path style="fill:none;stroke-width:1;stroke-linecap:square;stroke-linejoin:miter;stroke:rgb(100%,0%,0%);stroke-opacity:1;stroke-miterlimit:3.25;" d="M 0 140 L 400 140 "/>
<path style="fill:none;stroke-width:1;stroke-linecap:square;stroke-linejoin:miter;stroke:rgb(100%,0%,0%);stroke-opacity:1;stroke-miterlimit:3.25;" d="M 0 120 L 400 120 "/>
<path style="fill:none;stroke-width:1;stroke-linecap:square;stroke-linejoin:miter;stroke:rgb(100%,0%,0%);stroke-opacity:1;stroke-miterlimit:3.25;" d="M 0 100 L 400 100 "/>
<path style="fill:none;stroke-width:1;stroke-linecap:square;stroke-linejoin:miter;stroke:rgb(100%,0%,0%);stroke-opacity:1;stroke-miterlimit:3.25;" d="M 0 80 L 400 80 "/>
<path style="fill:none;stroke-width:1;stroke-linecap:square;stroke-linejoin:miter;stroke:rgb(100%,0%,0%);stroke-opacity:1;stroke-miterlimit:3.25;" d="M 0 60 L 400 60 "/>
<path style="fill:none;stroke-width:1;stroke-linecap:square;stroke-linejoin:miter;stroke:rgb(100%,0%,0%);stroke-opacity:1;stroke-miterlimit:3.25;" d="M 0 40 L 400 40 "/>
<path style="fill:none;stroke-width:1;stroke-linecap:square;stroke-linejoin:miter;stroke:rgb(100%,0%,0%);stroke-opacity:1;stroke-miterlimit:3.25;" d="M 0 20 L 400 20 "/>
</g>
</svg>
