<?xml version="1.0" encoding="UTF-8"?>
<svg xmlns="http://www.w3.org/2000/svg" xmlns:xlink="http://www.w3.org/1999/xlink" width="400pt" height="220pt" viewBox="0 0 400 220" version="1.1">
<g id="surface986">
<rect x="0" y="0" width="400" height="220" style="fill:rgb(0%,40%,100%);fill-opacity:0.2;stroke:none;"/>
<path style=" stroke:none;fill-rule:nonzero;fill:rgb(0%,0%,0%);fill-opacity:1;" d="M -2.507812 220 L -2.507812 200 L 17.492188 200 L 17.492188 220 Z M -2.507812 220 "/>
<path style=" stroke:none;fill-rule:nonzero;fill:rgb(0%,0%,0%);fill-opacity:1;" d="M -2.507812 180 L -2.507812 160 L 17.492188 160 L 17.492188 180 Z M -2.507812 180 "/>
<path style=" stroke:none;fill-rule:nonzero;fill:rgb(0%,0%,0%);fill-opacity:1;" d="M -2.507812 140 L -2.507812 120 L 17.492188 120 L 17.492188 140 Z M -2.507812 140 "/>
<path style=" stroke:none;fill-rule:nonzero;fill:rgb(0%,0%,0%);fill-opacity:1;" d="M -2.507812 100 L -2.507812 80 L 17.492188 80 L 17.492188 100 Z M -2.507812 100 "/>
<path style=" stroke:none;fill-rule:nonzero;fill:rgb(0%,0%,0%);fill-opacity:1;" d="M -2.507812 60 L -2.507812 40 L 17.492188 40 L 17.492188 60 Z M -2.507812 60 "/>
<path style=" stroke:none;fill-rule:nonzero;fill:rgb(0%,0%,0%);fill-opacity:1;" d="M -2.507812 20 L -2.507812 0 L 17.492188 0 L 17.492188 20 Z M -2.507812 20 "/>
<path style=" stroke:none;fill-rule:nonzero;fill:rgb(0%,0%,0%);fill-opacity:1;" d="M 33.492188 220 L 33.492188 200 L 53.492188 200 L 53.492188 220 Z M 33.492188 220 "/>
<path style=" stroke:none;fill-rule:nonzero;fill:rgb(0%,0%,0%);fill-opacity:1;" d="M 33.492188 180 L 33.492188 160 L 53.492188 160 L 53.492188 180 Z M 33.492188 180 "/>
<path style=" stroke:none;fill-rule:nonzero;fill:rgb(0%,0%,0%);fill-opacity:1;" d="M 33.492188 140 L 33.492188 120 L 53.492188 120 L 53.492188 140 Z M 33.492188 140 "/>
<path style=" stroke:none;fill-rule:nonzero;fill:rgb(0%,0%,0%);fill-opacity:1;" d="M 33.492188 100 L 33.492188 80 L 53.492188 80 L 53.492188 100 Z M 33.492188 100 "/>
<path style=" stroke:none;fill-rule:nonzero;fill:rgb(0%,0%,0%);fill-opacity:1;" d="M 33.492188 60 L 33.492188 40 L 53.492188 40 L 53.492188 60 Z M 33.492188 60 "/>
<path style=" stroke:none;fill-rule:nonzero;fill:rgb(0%,0%,0%);fill-opacity:1;" d="M 33.492188 20 L 33.492188 0 L 53.492188 0 L 53.492188 20 Z M 33.492188 20 "/>
<path style=" stroke:none;fill-rule:nonzero;fill:rgb(0%,0%,0%);fill-opacity:1;" d="M 69.492188 220 L 69.492188 200 L 89.492188 200 L 89.492188 220 Z M 69.492188 220 "/>
<path style=" stroke:none;fill-rule:nonzero;fill:rgb(0%,0%,0%);fill-opacity:1;" d="M 69.492188 180 L 69.492188 160 L 89.492188 160 L 89.492188 180 Z M 69.492188 180 "/>
<path style=" stroke:none;fill-rule:nonzero;fill:rgb(0%,0%,0%);fill-opacity:1;" d="M 69.492188 140 L 69.492188 120 L 89.492188 120 L 89.492188 140 Z M 69.492188 140 "/>
<path style=" stroke:none;fill-rule:nonzero;fill:rgb(0%,0%,0%);fill-opacity:1;" d="M 69.492188 100 L 69.492188 80 L 89.492188 80 L 89.492188 100 Z M 69.492188 100 "/>
<path style=" stroke:none;fill-rule:nonzero;fill:rgb(0%,0%,0%);fill-opacity:1;" d="M 69.492188 60 L 69.492188 40 L 89.492188 40 L 89.492188 60 Z M 69.492188 60 "/>
<path style=" stroke:none;fill-rule:nonzero;fill:rgb(0%,0%,0%);fill-opacity:1;" d="M 69.492188 20 L 69.492188 0 L 89.492188 0 L 89.492188 20 Z M 69.492188 20 "/>
<path style=" stroke:none;fill-rule:nonzero;fill:rgb(0%,0%,0%);fill-opacity:1;" d="M 105.492188 220 L 105.492188 200 L 125.492188 200 L 125.492188 220 Z M 105.492188 220 "/>
<path style=" stroke:none;fill-rule:nonzero;fill:rgb(0%,0%,0%);fill-opacity:1;" d="M 105.492188 180 L 105.492188 160 L 125.492188 160 L 125.492188 180 Z M 105.492188 180 "/>
<path style=" stroke:none;fill-rule:nonzero;fill:rgb(0%,0%,0%);fill-opacity:1;" d="M 105.492188 140 L 105.492188 120 L 125.492188 120 L 125.492188 140 Z M 105.492188 140 "/>
<path style=" stroke:none;fill-rule:nonzero;fill:rgb(0%,0%,0%);fill-opacity:1;" d="M 105.492188 100 L 105.492188 80 L 125.492188 80 L 125.492188 100 Z M 105.492188 100 "/>
<path style=" stroke:none;fill-rule:nonzero;fill:rgb(0%,0%,0%);fill-opacity:1;" d="M 105.492188 60 L 105.492188 40 L 125.492188 40 L 125.492188 60 Z M 105.492188 60 "/>
<path style=" stroke:none;fill-rule:nonzero;fill:rgb(0%,0%,0%);fill-opacity:1;" d="M 105.492188 20 L 105.492188 0 L 125.492188 0 L 125.492188 20 Z M 105.492188 20 "/>
<path style=" stroke:none;fill-rule:nonzero;fill:rgb(0%,0%,0%);fill-opacity:1;" d="M 141.492188 220 L 141.492188 200 L 161.492188 200 L 161.492188 220 Z M 141.492188 220 "/>
<path style=" stroke:none;fill-rule:nonzero;fill:rgb(0%,0%,0%);fill-opacity:1;" d="M 141.492188 180 L 141.492188 160 L 161.492188 160 L 161.492188 180 Z M 141.492188 180 "/>
<path style=" stroke:none;fill-rule:nonzero;fill:rgb(0%,0%,0%);fill-opacity:1;" d="M 141.492188 140 L 141.492188 120 L 161.492188 120 L 161.492188 140 Z M 141.492188 140 "/>
<path style=" stroke:none;fill-rule:nonzero;fill:rgb(0%,0%,0%);fill-opacity:1;" d="M 141.492188 100 L 141.492188 80 L 161.492188 80 L 161.492188 100 Z M 141.492188 100 "/>
<path style=" stroke:none;fill-rule:nonzero;fill:rgb(0%,0%,0%);fill-opacity:1;" d="M 141.492188 60 L 141.492188 40 L 161.492188 40 L 161.492188 60 Z M 141.492188 60 "/>
<path style=" stroke:none;fill-rule:nonzero;fill:rgb(0%,0%,0%);fill-opacity:1;" d="M 141.492188 20 L 141.492188 0 L 161.492188 0 L 161.492188 20 Z M 141.492188 20 "/>
<path style=" stroke:none;fill-rule:nonzero;fill:rgb(0%,0%,0%);fill-opacity:1;" d="M 177.492188 220 L 177.492188 200 L 197.492188 200 L 197.492188 220 Z M 177.492188 220 "/>
<path style=" stroke:none;fill-rule:nonzero;fill:rgb(0%,0%,0%);fill-opacity:1;" d="M 177.492188 180 L 177.492188 160 L 197.492188 160 L 197.492188 180 Z M 177.492188 180 "/>
<path style=" stroke:none;fill-rule:nonzero;fill:rgb(0%,0%,0%);fill-opacity:1;" d="M 177.492188 140 L 177.492188 120 L 197.492188 120 L 197.492188 140 Z M 177.492188 140 "/>
<path style=" stroke:none;fill-rule:nonzero;fill:rgb(0%,0%,0%);fill-opacity:1;" d="M 177.492188 100 L 177.492188 80 L 197.492188 80 L 197.492188 100 Z M 177.492188 100 "/>
<path style=" stroke:none;fill-rule:nonzero;fill:rgb(0%,0%,0%);fill-opacity:1;" d="M 177.492188 60 L 177.492188 40 L 197.492188 40 L 197.492188 60 Z M 177.492188 60 "/>
<path style=" stroke:none;fill-rule:nonzero;fill:rgb(0%,0%,0%);fill-opacity:1;" d="M 177.492188 20 L 177.492188 0 L 197.492188 0 L 197.492188 20 Z M 177.492188 20 "/>
<path style=" stroke:none;fill-rule:nonzero;fill:rgb(0%,0%,0%);fill-opacity:1;" d="M 213.492188 220 L 213.492188 200 L 233.492188 200 L 233.492188 220 Z M 213.492188 220 "/>
<path style=" stroke:none;fill-rule:nonzero;fill:rgb(0%,0%,0%);fill-opacity:1;" d="M 213.492188 180 L 213.492188 160 L 233.492188 160 L 233.492188 180 Z M 213.492188 180 "/>
<path style=" stroke:none;fill-rule:nonzero;fill:rgb(0%,0%,0%);fill-opacity:1;" d="M 213.492188 140 L 213.492188 120 L 233.492188 120 L 233.492188 140 Z M 213.492188 140 "/>
<path style=" stroke:none;fill-rule:nonzero;fill:rgb(0%,0%,0%);fill-opacity:1;" d="M 213.492188 100 L 213.492188 80 L 233.492188 80 L 233.492188 100 Z M 213.492188 100 "/>
<path style=" stroke:none;fill-rule:nonzero;fill:rgb(0%,0%,0%);fill-opacity:1;" d="M 213.492188 60 L 213.492188 40 L 233.492188 40 L 233.492188 60 Z M 213.492188 60 "/>
<path style=" stroke:none;fill-rule:nonzero;fill:rgb(0%,0%,0%);fill-opacity:1;" d="M 213.492188 20 L 213.492188 0 L 233.492188 0 L 233.492188 20 Z M 213.492188 20 "/>
<path style=" stroke:none;fill-rule:nonzero;fill:rgb(0%,0%,0%);fill-opacity:1;" d="M 249.492188 220 L 249.492188 200 L 269.492188 200 L 269.492188 220 Z M 249.492188 220 "/>
<path style=" stroke:none;fill-rule:nonzero;fill:rgb(0%,0%,0%);fill-opacity:1;" d="M 249.492188 180 L 249.492188 160 L 269.492188 160 L 269.492188 180 Z M 249.492188 180 "/>
<path style=" stroke:none;fill-rule:nonzero;fill:rgb(0%,0%,0%);fill-opacity:1;" d="M 249.492188 140 L 249.492188 120 L 269.492188 120 L 269.492188 140 Z M 249.492188 140 "/>
<path style=" stroke:none;fill-rule:nonzero;fill:rgb(0%,0%,0%);fill-opacity:1;" d="M 249.492188 100 L 249.492188 80 L 269.492188 80 L 269.492188 100 Z M 249.492188 100 "/>
<path style=" stroke:none;fill-rule:nonzero;fill:rgb(0%,0%,0%);fill-opacity:1;" d="M 249.492188 60 L 249.492188 40 L 269.492188 40 L 269.492188 60 Z M 249.492188 60 "/>
<path style=" stroke:none;fill-rule:nonzero;fill:rgb(0%,0%,0%);fill-opacity:1;" d="M 249.492188 20 L 249.492188 0 L 269.492188 0 L 269.492188 20 Z M 249.492188 20 "/>
<path style=" stroke:none;fill-rule:nonzero;fill:rgb(0%,0%,0%);fill-opacity:1;" d="M 285.492188 220 L 285.492188 200 L 305.492188 200 L 305.492188 220 Z M 285.492188 220 "/>
<path style=" stroke:none;fill-rule:nonzero;fill:rgb(0%,0%,0%);fill-opacity:1;" d="M 285.492188 180 L 285.492188 160 L 305.492188 160 L 305.492188 180 Z M 285.492188 180 "/>
<path style=" stroke:none;fill-rule:nonzero;fill:rgb(0%,0%,0%);fill-opacity:1;" d="M 285.492188 140 L 285.492188 120 L 305.492188 120 L 305.492188 140 Z M 285.492188 140 "/>
<path style=" stroke:none;fill-rule:nonzero;fill:rgb(0%,0%,0%);fill-opacity:1;" d="M 285.492188 100 L 285.492188 80 L 305.492188 80 L 305.492188 100 Z M 285.492188 100 "/>
<path style=" stroke:none;fill-rule:nonzero;fill:rgb(0%,0%,0%);fill-opacity:1;" d="M 285.492188 60 L 285.492188 40 L 305.492188 40 L 305.492188 60 Z M 285.492188 60 "/>
<path style=" stroke:none;fill-rule:nonzero;fill:rgb(0%,0%,0%);fill-opacity:1;" d="M 285.492188 20 L 285.492188 0 L 305.492188 0 L 305.492188 20 Z M 285.492188 20 "/>
<path style=" stroke:none;fill-rule:nonzero;fill:rgb(0%,0%,0%);fill-opacity:1;" d="M 321.492188 220 L 321.492188 200 L 341.492188 200 L 341.492188 220 Z M 321.492188 220 "/>
<path style=" stroke:none;fill-rule:nonzero;fill:rgb(0%,0%,0%);fill-opacity:1;" d="M 321.492188 180 L 321.492188 160 L 341.492188 160 L 341.492188 180 Z M 321.492188 180 "/>
<path style=" stroke:none;fill-rule:nonzero;fill:rgb(0%,0%,0%);fill-opacity:1;" d="M 321.492188 140 L 321.492188 120 L 341.492188 120 L 341.492188 140 Z M 321.492188 140 "/>
<path style=" stroke:none;fill-rule:nonzero;fill:rgb(0%,0%,0%);fill-opacity:1;" d="M 321.492188 100 L 321.492188 80 L 341.492188 80 L 341.492188 100 Z M 321.492188 100 "/>
<path style=" stroke:none;fill-rule:nonzero;fill:rgb(0%,0%,0%);fill-opacity:1;" d="M 321.492188 60 L 321.492188 40 L 341.492188 40 L 341.492188 60 Z M 321.492188 60 "/>
<path style=" stroke:none;fill-rule:nonzero;fill:rgb(0%,0%,0%);fill-opacity:1;" d="M 321.492188 20 L 321.492188 0 L 341.492188 0 L 341.492188 20 Z M 321.492188 20 "/>
<path style=" stroke:none;fill-rule:nonzero;fill:rgb(0%,0%,0%);fill-opacity:1;" d="M 357.492188 220 L 357.492188 200 L 377.492188 200 L 377.492188 220 Z M 357.492188 220 "/>
<path style=" stroke:none;fill-rule:nonzero;fill:rgb(0%,0%,0%);fill-opacity:1;" d="M 357.492188 180 L 357.492188 160 L 377.492188 160 L 377.492188 180 Z M 357.492188 180 "/>
<path style=" stroke:none;fill-rule:nonzero;fill:rgb(0%,0%,0%);fill-opacity:1;" d="M 357.492188 140 L 357.492188 120 L 377.492188 120 L 377.492188 140 Z M 357.492188 140 "/>
<path style=" stroke:none;fill-rule:nonzero;fill:rgb(0%,0%,0%);fill-opacity:1;" d="M 357.492188 100 L 357.492188 80 L 377.492188 80 L 377.492188 100 Z M 357.492188 100 "/>
<path style=" stroke:none;fill-rule:nonzero;fill:rgb(0%,0%,0%);fill-opacity:1;" d="M 357.492188 60 L 357.492188 40 L 377.492188 40 L 377.492188 60 Z M 357.492188 60 "/>
<path style=" stroke:none;fill-rule:nonzero;fill:rgb(0%,0%,0%);fill-opacity:1;" d="M 357.492188 20 L 357.492188 0 L 377.492188 0 L 377.492188 20 Z M 357.492188 20 "/>
<path style=" stroke:none;fill-rule:nonzero;fill:rgb(0%,0%,0%);fill-opacity:1;" d="M 393.492188 220 L 393.492188 200 L 413.492188 200 L 413.492188 220 Z M 393.492188 220 "/>
<path style=" stroke:none;fill-rule:nonzero;fill:rgb(0%,0%,0%);fill-opacity:1;" d="M 393.492188 180 L 393.492188 160 L 413.492188 160 L 413.492188 180 Z M 393.492188 180 "/>
<path style=" stroke:none;fill-rule:nonzero;fill:rgb(0%,0%,0%);fill-opacity:1;" d="M 393.492188 140 L 393.492188 120 L 413.492188 120 L 413.492188 140 Z M 393.492188 140 "/>
<path style=" stroke:none;fill-rule:nonzero;fill:rgb(0%,0%,0%);fill-opacity:1;" d="M 393.492188 100 L 393.492188 80 L 413.492188 80 L 413.492188 100 Z M 393.492188 100 "/>
<path style=" stroke:none;fill-rule:nonzero;fill:rgb(0%,0%,0%);fill-opacity:1;" d="M 393.492188 60 L 393.492188 40 L 413.492188 40 L 413.492188 60 Z M 393.492188 60 "/>
<path style=" stroke:none;fill-rule:nonzero;fill:rgb(0%,0%,0%);fill-opacity:1;" d="M 393.492188 20 L 393.492188 0 L 413.492188 0 L 413.492188 20 Z M 393.492188 20 "/>
<path style=" stroke:none;fill-rule:nonzero;fill:rgb(0%,0%,0%);fill-opacity:1;" d="M -3.84375 200 L -3.84375 180 L 16.15625 180 L 16.15625 200 Z M -3.84375 200 "/>
<path style=" stroke:none;fill-rule:nonzero;fill:rgb(0%,0%,0%);fill-opacity:1;" d="M -3.84375 160 L -3.84375 140 L 16.15625 140 L 16.15625 160 Z M -3.84375 160 "/>
<path style=" stroke:none;fill-rule:nonzero;fill:rgb(0%,0%,0%);fill-opacity:1;" d="M -3.84375 120 L -3.84375 100 L 16.15625 100 L 16.15625 120 Z M -3.84375 120 "/>
<path style=" stroke:none;fill-rule:nonzero;fill:rgb(0%,0%,0%);fill-opacity:1;" d="M -3.84375 80 L -3.84375 60 L 16.15625 60 L 16.15625 80 Z M -3.84375 80 "/>
<path style=" stroke:none;fill-rule:nonzero;fill:rgb(0%,0%,0%);fill-opacity:1;" d="M -3.84375 40 L -3.84375 20 L 16.15625 20 L 16.15625 40 Z M -3.84375 40 "/>
<path style=" stroke:none;fill-rule:nonzero;fill:rgb(0%,0%,0%);fill-opacity:1;" d="M 32.15625 200 L 32.15625 180 L 52.15625 180 L 52.15625 200 Z M 32.15625 200 "/>
<path style=" stroke:none;fill-rule:nonzero;fill:rgb(0%,0%,0%);fill-opacity:1;" d="M 32.15625 160 L 32.15625 140 L 52.15625 140 L 52.15625 160 Z M 32.15625 160 "/>
<path style=" stroke:none;fill-rule:nonzero;fill:rgb(0%,0%,0%);fill-opacity:1;" d="M 32.15625 120 L 32.15625 100 L 52.15625 100 L 52.15625 120 Z M 32.15625 120 "/>
<path style=" stroke:none;fill-rule:nonzero;fill:rgb(0%,0%,0%);fill-opacity:1;" d="M 32.15625 80 L 32.15625 60 L 52.15625 60 L 52.15625 80 Z M 32.15625 80 "/>
<path style=" stroke:none;fill-rule:nonzero;fill:rgb(0%,0%,0%);fill-opacity:1;" d="M 32.15625 40 L 32.15625 20 L 52.15625 20 L 52.15625 40 Z M 32.15625 40 "/>
<path style=" stroke:none;fill-rule:nonzero;fill:rgb(0%,0%,0%);fill-opacity:1;" d="M 68.15625 200 L 68.15625 180 L 88.15625 180 L 88.15625 200 Z M 68.15625 200 "/>
<path style=" stroke:none;fill-rule:nonzero;fill:rgb(0%,0%,0%);fill-opacity:1;" d="M 68.15625 160 L 68.15625 140 L 88.15625 140 L 88.15625 160 Z M 68.15625 160 "/>
<path style=" stroke:none;fill-rule:nonzero;fill:rgb(0%,0%,0%);fill-opacity:1;" d="M 68.15625 120 L 68.15625 100 L 88.15625 100 L 88.15625 120 Z M 68.15625 120 "/>
<path style=" stroke:none;fill-rule:nonzero;fill:rgb(0%,0%,0%);fill-opacity:1;" d="M 68.15625 80 L 68.15625 60 L 88.15625 60 L 88.15625 80 Z M 68.15625 80 "/>
<path style=" stroke:none;fill-rule:nonzero;fill:rgb(0%,0%,0%);fill-opacity:1;" d="M 68.15625 40 L 68.15625 20 L 88.15625 20 L 88.15625 40 Z M 68.15625 40 "/>
<path style=" stroke:none;fill-rule:nonzero;fill:rgb(0%,0%,0%);fill-opacity:1;" d="M 104.15625 200 L 104.15625 180 L 124.15625 180 L 124.15625 200 Z M 104.15625 200 "/>
<path style=" stroke:none;fill-rule:nonzero;fill:rgb(0%,0%,0%);fill-opacity:1;" d="M 104.15625 160 L 104.15625 140 L 124.15625 140 L 124.15625 160 Z M 104.15625 160 "/>
<path style=" stroke:none;fill-rule:nonzero;fill:rgb(0%,0%,0%);fill-opacity:1;" d="M 104.15625 120 L 104.15625 100 L 124.15625 100 L 124.15625 120 Z M 104.15625 120 "/>
<path style=" stroke:none;fill-rule:nonzero;fill:rgb(0%,0%,0%);fill-opacity:1;" d="M 104.15625 80 L 104.15625 60 L 124.15625 60 L 124.15625 80 Z M 104.15625 80 "/>
<path style=" stroke:none;fill-rule:nonzero;fill:rgb(0%,0%,0%);fill-opacity:1;" d="M 104.15625 40 L 104.15625 20 L 124.15625 20 L 124.15625 40 Z M 104.15625 40 "/>
<path style=" stroke:none;fill-rule:nonzero;fill:rgb(0%,0%,0%);fill-opacity:1;" d="M 140.15625 200 L 140.15625 180 L 160.15625 180 L 160.15625 200 Z M 140.15625 200 "/>
<path style=" stroke:none;fill-rule:nonzero;fill:rgb(0%,0%,0%);fill-opacity:1;" d="M 140.15625 160 L 140.15625 140 L 160.15625 140 L 160.15625 160 Z M 140.15625 160 "/>
<path style=" stroke:none;fill-rule:nonzero;fill:rgb(0%,0%,0%);fill-opacity:1;" d="M 140.15625 120 L 140.15625 100 L 160.15625 100 L 160.15625 120 Z M 140.15625 120 "/>
<path style=" stroke:none;fill-rule:nonzero;fill:rgb(0%,0%,0%);fill-opacity:1;" d="M 140.15625 80 L 140.15625 60 L 160.15625 60 L 160.15625 80 Z M 140.15625 80 "/>
<path style=" stroke:none;fill-rule:nonzero;fill:rgb(0%,0%,0%);fill-opacity:1;" d="M 140.15625 40 L 140.15625 20 L 160.15625 20 L 160.15625 40 Z M 140.15625 40 "/>
<path style=" stroke:none;fill-rule:nonzero;fill:rgb(0%,0%,0%);fill-opacity:1;" d="M 176.15625 200 L 176.15625 180 L 196.15625 180 L 196.15625 200 Z M 176.15625 200 "/>
<path style=" stroke:none;fill-rule:nonzero;fill:rgb(0%,0%,0%);fill-opacity:1;" d="M 176.15625 160 L 176.15625 140 L 196.15625 140 L 196.15625 160 Z M 176.15625 160 "/>
<path style=" stroke:none;fill-rule:nonzero;fill:rgb(0%,0%,0%);fill-opacity:1;" d="M 176.15625 120 L 176.15625 100 L 196.15625 100 L 196.15625 120 Z M 176.15625 120 "/>
<path style=" stroke:none;fill-rule:nonzero;fill:rgb(0%,0%,0%);fill-opacity:1;" d="M 176.15625 80 L 176.15625 60 L 196.15625 60 L 196.15625 80 Z M 176.15625 80 "/>
<path style=" stroke:none;fill-rule:nonzero;fill:rgb(0%,0%,0%);fill-opacity:1;" d="M 176.15625 40 L 176.15625 20 L 196.15625 20 L 196.15625 40 Z M 176.15625 40 "/>
<path style=" stroke:none;fill-rule:nonzero;fill:rgb(0%,0%,0%);fill-opacity:1;" d="M 212.15625 200 L 212.15625 180 L 232.15625 180 L 232.15625 200 Z M 212.15625 200 "/>
<path style=" stroke:none;fill-rule:nonzero;fill:rgb(0%,0%,0%);fill-opacity:1;" d="M 212.15625 160 L 212.15625 140 L 232.15625 140 L 232.15625 160 Z M 212.15625 160 "/>
<path style=" stroke:none;fill-rule:nonzero;fill:rgb(0%,0%,0%);fill-opacity:1;" d="M 212.15625 120 L 212.15625 100 L 232.15625 100 L 232.15625 120 Z M 212.15625 120 "/>
<path style=" stroke:none;fill-rule:nonzero;fill:rgb(0%,0%,0%);fill-opacity:1;" d="M 212.15625 80 L 212.15625 60 L 232.15625 60 L 232.15625 80 Z M 212.15625 80 "/>
<path style=" stroke:none;fill-rule:nonzero;fill:rgb(0%,0%,0%);fill-opacity:1;" d="M 212.15625 40 L 212.15625 20 L 232.15625 20 L 232.15625 40 Z M 212.15625 40 "/>
<path style=" stroke:none;fill-rule:nonzero;fill:rgb(0%,0%,0%);fill-opacity:1;" d="M 248.15625 200 L 248.15625 180 L 268.15625 180 L 268.15625 200 Z M 248.15625 200 "/>
<path style=" stroke:none;fill-rule:nonzero;fill:rgb(0%,0%,0%);fill-opacity:1;" d="M 248.15625 160 L 248.15625 140 L 268.15625 140 L 268.15625 160 Z M 248.15625 160 "/>
<path style=" stroke:none;fill-rule:nonzero;fill:rgb(0%,0%,0%);fill-opacity:1;" d="M 248.15625 120 L 248.15625 100 L 268.15625 100 L 268.15625 120 Z M 248.15625 120 "/>
<path style=" stroke:none;fill-rule:nonzero;fill:rgb(0%,0%,0%);fill-opacity:1;" d="M 248.15625 80 L 248.15625 60 L 268.15625 60 L 268.15625 80 Z M 248.15625 80 "/>
<path style=" stroke:none;fill-rule:nonzero;fill:rgb(0%,0%,0%);fill-opacity:1;" d="M 248.15625 40 L 248.15625 20 L 268.15625 20 L 268.15625 40 Z M 248.15625 40 "/>
<path style=" stroke:none;fill-rule:nonzero;fill:rgb(0%,0%,0%);fill-opacity:1;" d="M 284.15625 200 L 284.15625 180 L 304.15625 180 L 304.15625 200 Z M 284.15625 200 "/>
<path style=" stroke:none;fill-rule:nonzero;fill:rgb(0%,0%,0%);fill-opacity:1;" d="M 284.15625 160 L 284.15625 140 L 304.15625 140 L 304.15625 160 Z M 284.15625 160 "/>
<path style=" stroke:none;fill-rule:nonzero;fill:rgb(0%,0%,0%);fill-opacity:1;" d="M 284.15625 120 L 284.15625 100 L 304.15625 100 L 304.15625 120 Z M 284.15625 120 "/>
<path style=" stroke:none;fill-rule:nonzero;fill:rgb(0%,0%,0%);fill-opacity:1;" d="M 284.15625 80 L 284.15625 60 L 304.15625 60 L 304.15625 80 Z M 284.15625 80 "/>
<path style=" stroke:none;fill-rule:nonzero;fill:rgb(0%,0%,0%);fill-opacity:1;" d="M 284.15625 40 L 284.15625 20 L 304.15625 20 L 304.15625 40 Z M 284.15625 40 "/>
<path style=" stroke:none;fill-rule:nonzero;fill:rgb(0%,0%,0%);fill-opacity:1;" d="M 320.15625 200 L 320.15625 180 L 340.15625 180 L 340.15625 200 Z M 320.15625 200 "/>
<path style=" stroke:none;fill-rule:nonzero;fill:rgb(0%,0%,0%);fill-opacity:1;" d="M 320.15625 160 L 320.15625 140 L 340.15625 140 L 340.15625 160 Z M 320.15625 160 "/>
<path style=" stroke:none;fill-rule:nonzero;fill:rgb(0%,0%,0%);fill-opacity:1;" d="M 320.15625 120 L 320.15625 100 L 340.15625 100 L 340.15625 120 Z M 320.15625 120 "/>
<path style=" stroke:none;fill-rule:nonzero;fill:rgb(0%,0%,0%);fill-opacity:1;" d="M 320.15625 80 L 320.15625 60 L 340.15625 60 L 340.15625 80 Z M 320.15625 80 "/>
<path style=" stroke:none;fill-rule:nonzero;fill:rgb(0%,0%,0%);fill-opacity:1;" d="M 320.15625 40 L 320.15625 20 L 340.15625 20 L 340.15625 40 Z M 320.15625 40 "/>
<path style=" stroke:none;fill-rule:nonzero;fill:rgb(0%,0%,0%);fill-opacity:1;" d="M 356.15625 200 L 356.15625 180 L 376.15625 180 L 376.15625 200 Z M 356.15625 200 "/>
<path style=" stroke:none;fill-rule:nonzero;fill:rgb(0%,0%,0%);fill-opacity:1;" d="M 356.15625 160 L 356.15625 140 L 376.15625 140 L 376.15625 160 Z M 356.15625 160 "/>
<path style=" stroke:none;fill-rule:nonzero;fill:rgb(0%,0%,0%);fill-opacity:1;" d="M 356.15625 120 L 356.15625 100 L 376.15625 100 L 376.15625 120 Z M 356.15625 120 "/>
<path style=" stroke:none;fill-rule:nonzero;fill:rgb(0%,0%,0%);fill-opacity:1;" d="M 356.15625 80 L 356.15625 60 L 376.15625 60 L 376.15625 80 Z M 356.15625 80 "/>
<path style=" stroke:none;fill-rule:nonzero;fill:rgb(0%,0%,0%);fill-opacity:1;" d="M 356.15625 40 L 356.15625 20 L 376.15625 20 L 376.15625 40 Z M 356.15625 40 "/>
<path style="fill:none;stroke-width:1;stroke-linecap:square;stroke-linejoin:miter;stroke:rgb(100%,0%,0%);stroke-opacity:1;stroke-miterlimit:3.25;" d="M 0 220 L 400 220 "/>
<path style="fill:none;stroke-width:1;stroke-linecap:square;stroke-linejoin:miter;stroke:rgb(100%,0%,0%);stroke-opacity:1;stroke-miterlimit:3.25;" d="M 0 200 L 400 200 "/>
<path style="fill:none;stroke-width:1;stroke-linecap:square;stroke-linejoin:miter;stroke:rgb(100%,0%,0%);stroke-opacity:1;stroke-miterlimit:3.25;" d="M 0 180 L 400 180 "/>
<path style="fill:none;stroke-width:1;stroke-linecap:square;stroke-linejoin:miter;stroke:rgb(100%,0%,0%);stroke-opacity:1;stroke-miterlimit:3.25;" d="M 0 160 L 400 160 "/>
<path style="fill:none;stroke-width:1;stroke-linecap:square;stroke-linejoin:miter;stroke:rgb(100%,0%,0%);stroke-opacity:1;stroke-miterlimit:3.25;" d="M 0 140 L 400 140 "/>
<path style="fill:none;stroke-width:1;stroke-linecap:square;stroke-linejoin:miter;stroke:rgb(100%,0%,0%);stroke-opacity:1;stroke-miterlimit:3.25;" d="M 0 120 L 400 120 "/>
<path style="fill:none;stroke-width:1;stroke-linecap:square;stroke-linejoin:miter;stroke:rgb(100%,0%,0%);stroke-opacity:1;stroke-miterlimit:3.25;" d="M 0 100 L 400 100 "/>
<path style="fill:none;stroke-width:1;stroke-linecap:square;stroke-linejoin:miter;stroke:rgb(100%,0%,0%);stroke-opacity:1;stroke-miterlimit:3.25;" d="M 0 80 L 400 80 "/>
<path style="fill:none;stroke-width:1;stroke-linecap:square;stroke-linejoin:miter;stroke:rgb(100%,0%,0%);stroke-opacity:1;stroke-miterlimit:3.25;" d="M 0 60 L 400 60 "/>
<path style="fill:none;stroke-width:1;stroke-linecap:square;stroke-linejoin:miter;stroke:rgb(100%,0%,0%);stroke-opacity:1;stroke-miterlimit:3.25;" d="M 0 40 L 400 40 "/>
<path style="fill:none;stroke-width:1;stroke-linecap:square;stroke-linejoin:miter;stroke:rgb(100%,0%,0%);stroke-opacity:1;stroke-miterlimit:3.25;" d="M 0 20 L 400 20 "/>
</g>
</svg>
