<?xml version="1.0" encoding="UTF-8"?>
<svg xmlns="http://www.w3.org/2000/svg" xmlns:xlink="http://www.w3.org/1999/xlink" width="400pt" height="220pt" viewBox="0 0 400 220" version="1.1">
<g id="surface701">
<rect x="0" y="0" width="400" height="220" style="fill:rgb(0%,40%,100%);fill-opacity:0.2;stroke:none;"/>
<path style=" stroke:none;fill-rule:nonzero;fill:rgb(0%,0%,0%);fill-opacity:1;" d="M 10.714844 220 L 10.714844 200 L 30.714844 200 L 30.714844 220 Z M 10.714844 220 "/>
<path style=" stroke:none;fill-rule:nonzero;fill:rgb(0%,0%,0%);fill-opacity:1;" d="M 10.714844 180 L 10.714844 160 L 30.714844 160 L 30.714844 180 Z M 10.714844 180 "/>
<path style=" stroke:none;fill-rule:nonzero;fill:rgb(0%,0%,0%);fill-opacity:1;" d="M 10.714844 140 L 10.714844 120 L 30.714844 120 L 30.714844 140 Z M 10.714844 140 "/>
<path style=" stroke:none;fill-rule:nonzero;fill:rgb(0%,0%,0%);fill-opacity:1;" d="M 10.714844 100 L 10.714844 80 L 30.714844 80 L 30.714844 100 Z M 10.714844 100 "/>
<path style=" stroke:none;fill-rule:nonzero;fill:rgb(0%,0%,0%);fill-opacity:1;" d="M 10.714844 60 L 10.714844 40 L 30.714844 40 L 30.714844 60 Z M 10.714844 60 "/>
<path style=" stroke:none;fill-rule:nonzero;fill:rgb(0%,0%,0%);fill-opacity:1;" d="M 10.714844 20 L 10.714844 0 L 30.714844 0 L 30.714844 20 Z M 10.714844 20 "/>
<path style=" stroke:none;fill-rule:nonzero;fill:rgb(0%,0%,0%);fill-opacity:1;" d="M 46.714844 220 L 46.714844 200 L 66.714844 200 L 66.714844 220 Z M 46.714844 220 "/>
<path style=" stroke:none;fill-rule:nonzero;fill:rgb(0%,0%,0%);fill-opacity:1;" d="M 46.714844 180 L 46.714844 160 L 66.714844 160 L 66.714844 180 Z M 46.714844 180 "/>
<path style=" stroke:none;fill-rule:nonzero;fill:rgb(0%,0%,0%);fill-opacity:1;" d="M 46.714844 140 L 46.714844 120 L 66.714844 120 L 66.714844 140 Z M 46.714844 140 "/>
<path style=" stroke:none;fill-rule:nonzero;fill:rgb(0%,0%,0%);fill-opacity:1;" d="M 46.714844 100 L 46.714844 80 L 66.714844 80 L 66.714844 100 Z M 46.714844 100 "/>
<path style=" stroke:none;fill-rule:nonzero;fill:rgb(0%,0%,0%);fill-opacity:1;" d="M 46.714844 60 L 46.714844 40 L 66.714844 40 L 66.714844 60 Z M 46.714844 60 "/>
<path style=" stroke:none;fill-rule:nonzero;fill:rgb(0%,0%,0%);fill-opacity:1;" d="M 46.714844 20 L 46.714844 0 L 66.714844 0 L 66.714844 20 Z M 46.714844 20 "/>
<path style=" stroke:none;fill-rule:nonzero;fill:rgb(0%,0%,0%);fill-opacity:1;" d="M 82.714844 220 L 82.714844 200 L 102.714844 200 L 102.714844 220 Z M 82.714844 220 "/>
<path style=" stroke:none;fill-rule:nonzero;fill:rgb(0%,0%,0%);fill-opacity:1;" d="M 82.714844 180 L 82.714844 160 L 102.714844 160 L 102.714844 180 Z M 82.714844 180 "/>
<path style=" stroke:none;fill-rule:nonzero;fill:rgb(0%,0%,0%);fill-opacity:1;" d="M 82.714844 140 L 82.714844 120 L 102.714844 120 L 102.714844 140 Z M 82.714844 140 "/>
<path style=" stroke:none;fill-rule:nonzero;fill:rgb(0%,0%,0%);fill-opacity:1;" d="M 82.714844 100 L 82.714844 80 L 102.714844 80 L 102.714844 100 Z M 82.714844 100 "/>
<path style=" stroke:none;fill-rule:nonzero;fill:rgb(0%,0%,0%);fill-opacity:1;" d="M 82.714844 60 L 82.714844 40 L 102.714844 40 L 102.714844 60 Z M 82.714844 60 "/>
<path style=" stroke:none;fill-rule:nonzero;fill:rgb(0%,0%,0%);fill-opacity:1;" d="M 82.714844 20 L 82.714844 0 L 102.714844 0 L 102.714844 20 Z M 82.714844 20 "/>
<path style=" stroke:none;fill-rule:nonzero;fill:rgb(0%,0%,0%);fill-opacity:1;" d="M 118.714844 220 L 118.714844 200 L 138.714844 200 L 138.714844 220 Z M 118.714844 220 "/>
<path style=" stroke:none;fill-rule:nonzero;fill:rgb(0%,0%,0%);fill-opacity:1;" d="M 118.714844 180 L 118.714844 160 L 138.714844 160 L 138.714844 180 Z M 118.714844 180 "/>
<path style=" stroke:none;fill-rule:nonzero;fill:rgb(0%,0%,0%);fill-opacity:1;" d="M 118.714844 140 L 118.714844 120 L 138.714844 120 L 138.714844 140 Z M 118.714844 140 "/>
<path style=" stroke:none;fill-rule:nonzero;fill:rgb(0%,0%,0%);fill-opacity:1;" d="M 118.714844 100 L 118.714844 80 L 138.714844 80 L 138.714844 100 Z M 118.714844 100 "/>
<path style=" stroke:none;fill-rule:nonzero;fill:rgb(0%,0%,0%);fill-opacity:1;" d="M 118.714844 60 L 118.714844 40 L 138.714844 40 L 138.714844 60 Z M 118.714844 60 "/>
<path style=" stroke:none;fill-rule:nonzero;fill:rgb(0%,0%,0%);fill-opacity:1;" d="M 118.714844 20 L 118.714844 0 L 138.714844 0 L 138.714844 20 Z M 118.714844 20 "/>
<path style=" stroke:none;fill-rule:nonzero;fill:rgb(0%,0%,0%);fill-opacity:1;" d="M 154.714844 220 L 154.714844 200 L 174.714844 200 L 174.714844 220 Z M 154.714844 220 "/>
<path style=" stroke:none;fill-rule:nonzero;fill:rgb(0%,0%,0%);fill-opacity:1;" d="M 154.714844 180 L 154.714844 160 L 174.714844 160 L 174.714844 180 Z M 154.714844 180 "/>
<path style=" stroke:none;fill-rule:nonzero;fill:rgb(0%,0%,0%);fill-opacity:1;" d="M 154.714844 140 L 154.714844 120 L 174.714844 120 L 174.714844 140 Z M 154.714844 140 "/>
<path style=" stroke:none;fill-rule:nonzero;fill:rgb(0%,0%,0%);fill-opacity:1;" d="M 154.714844 100 L 154.714844 80 L 174.714844 80 L 174.714844 100 Z M 154.714844 100 "/>
<path style=" stroke:none;fill-rule:nonzero;fill:rgb(0%,0%,0%);fill-opacity:1;" d="M 154.714844 60 L 154.714844 40 L 174.714844 40 L 174.714844 60 Z M 154.714844 60 "/>
<path style=" stroke:none;fill-rule:nonzero;fill:rgb(0%,0%,0%);fill-opacity:1;" d="M 154.714844 20 L 154.714844 0 L 174.714844 0 L 174.714844 20 Z M 154.714844 20 "/>
<path style=" stroke:none;fill-rule:nonzero;fill:rgb(0%,0%,0%);fill-opacity:1;" d="M 190.714844 220 L 190.714844 200 L 210.714844 200 L 210.714844 220 Z M 190.714844 220 "/>
<path style=" stroke:none;fill-rule:nonzero;fill:rgb(0%,0%,0%);fill-opacity:1;" d="M 190.714844 180 L 190.714844 160 L 210.714844 160 L 210.714844 180 Z M 190.714844 180 "/>
<path style=" stroke:none;fill-rule:nonzero;fill:rgb(0%,0%,0%);fill-opacity:1;" d="M 190.714844 140 L 190.714844 120 L 210.714844 120 L 210.714844 140 Z M 190.714844 140 "/>
<path style=" stroke:none;fill-rule:nonzero;fill:rgb(0%,0%,0%);fill-opacity:1;" d="M 190.714844 100 L 190.714844 80 L 210.714844 80 L 210.714844 100 Z M 190.714844 100 "/>
<path style=" stroke:none;fill-rule:nonzero;fill:rgb(0%,0%,0%);fill-opacity:1;" d="M 190.714844 60 L 190.714844 40 L 210.714844 40 L 210.714844 60 Z M 190.714844 60 "/>
<path style=" stroke:none;fill-rule:nonzero;fill:rgb(0%,0%,0%);fill-opacity:1;" d="M 190.714844 20 L 190.714844 0 L 210.714844 0 L 210.714844 20 Z M 190.714844 20 "/>
<path style=" stroke:none;fill-rule:nonzero;fill:rgb(0%,0%,0%);fill-opacity:1;" d="M 226.714844 220 L 226.714844 200 L 246.714844 200 L 246.714844 220 Z M 226.714844 220 "/>
<path style=" stroke:none;fill-rule:nonzero;fill:rgb(0%,0%,0%);fill-opacity:1;" d="M 226.714844 180 L 226.714844 160 L 246.714844 160 L 246.714844 180 Z M 226.714844 180 "/>
<path style=" stroke:none;fill-rule:nonzero;fill:rgb(0%,0%,0%);fill-opacity:1;" d="M 226.714844 140 L 226.714844 120 L 246.714844 120 L 246.714844 140 Z M 226.714844 140 "/>
<path style=" stroke:none;fill-rule:nonzero;fill:rgb(0%,0%,0%);fill-opacity:1;" d="M 226.714844 100 L 226.714844 80 L 246.714844 80 L 246.714844 100 Z M 226.714844 100 "/>
<path style=" stroke:none;fill-rule:nonzero;fill:rgb(0%,0%,0%);fill-opacity:1;" d="M 226.714844 60 L 226.714844 40 L 246.714844 40 L 246.714844 60 Z M 226.714844 60 "/>
<path style=" stroke:none;fill-rule:nonzero;fill:rgb(0%,0%,0%);fill-opacity:1;" d="M 226.714844 20 L 226.714844 0 L 246.714844 0 L 246.714844 20 Z M 226.714844 20 "/>
<path style=" stroke:none;fill-rule:nonzero;fill:rgb(0%,0%,0%);fill-opacity:1;" d="M 262.714844 220 L 262.714844 200 L 282.714844 200 L 282.714844 220 Z M 262.714844 220 "/>
<path style=" stroke:none;fill-rule:nonzero;fill:rgb(0%,0%,0%);fill-opacity:1;" d="M 262.714844 180 L 262.714844 160 L 282.714844 160 L 282.714844 180 Z M 262.714844 180 "/>
<path style=" stroke:none;fill-rule:nonzero;fill:rgb(0%,0%,0%);fill-opacity:1;" d="M 262.714844 140 L 262.714844 120 L 282.714844 120 L 282.714844 140 Z M 262.714844 140 "/>
<path style=" stroke:none;fill-rule:nonzero;fill:rgb(0%,0%,0%);fill-opacity:1;" d="M 262.714844 100 L 262.714844 80 L 282.714844 80 L 282.714844 100 Z M 262.714844 100 "/>
<path style=" stroke:none;fill-rule:nonzero;fill:rgb(0%,0%,0%);fill-opacity:1;" d="M 262.714844 60 L 262.714844 40 L 282.714844 40 L 282.714844 60 Z M 262.714844 60 "/>
<path style=" stroke:none;fill-rule:nonzero;fill:rgb(0%,0%,0%);fill-opacity:1;" d="M 262.714844 20 L 262.714844 0 L 282.714844 0 L 282.714844 20 Z M 262.714844 20 "/>
<path style=" stroke:none;fill-rule:nonzero;fill:rgb(0%,0%,0%);fill-opacity:1;" d="M 298.714844 220 L 298.714844 200 L 318.714844 200 L 318.714844 220 Z M 298.714844 220 "/>
<path style=" stroke:none;fill-rule:nonzero;fill:rgb(0%,0%,0%);fill-opacity:1;" d="M 298.714844 180 L 298.714844 160 L 318.714844 160 L 318.714844 180 Z M 298.714844 180 "/>
<path style=" stroke:none;fill-rule:nonzero;fill:rgb(0%,0%,0%);fill-opacity:1;" d="M 298.714844 140 L 298.714844 120 L 318.714844 120 L 318.714844 140 Z M 298.714844 140 "/>
<path style=" stroke:none;fill-rule:nonzero;fill:rgb(0%,0%,0%);fill-opacity:1;" d="M 298.714844 100 L 298.714844 80 L 318.714844 80 L 318.714844 100 Z M 298.714844 100 "/>
<path style=" stroke:none;fill-rule:nonzero;fill:rgb(0%,0%,0%);fill-opacity:1;" d="M 298.714844 60 L 298.714844 40 L 318.714844 40 L 318.714844 60 Z M 298.714844 60 "/>
<path style=" stroke:none;fill-rule:nonzero;fill:rgb(0%,0%,0%);fill-opacity:1;" d="M 298.714844 20 L 298.714844 0 L 318.714844 0 L 318.714844 20 Z M 298.714844 20 "/>
<path style=" stroke:none;fill-rule:nonzero;fill:rgb(0%,0%,0%);fill-opacity:1;" d="M 334.714844 220 L 334.714844 200 L 354.714844 200 L 354.714844 220 Z M 334.714844 220 "/>
<path style=" stroke:none;fill-rule:nonzero;fill:rgb(0%,0%,0%);fill-opacity:1;" d="M 334.714844 180 L 334.714844 160 L 354.714844 160 L 354.714844 180 Z M 334.714844 180 "/>
<path style=" stroke:none;fill-rule:nonzero;fill:rgb(0%,0%,0%);fill-opacity:1;" d="M 334.714844 140 L 334.714844 120 L 354.714844 120 L 354.714844 140 Z M 334.714844 140 "/>
<path style=" stroke:none;fill-rule:nonzero;fill:rgb(0%,0%,0%);fill-opacity:1;" d="M 334.714844 100 L 334.714844 80 L 354.714844 80 L 354.714844 100 Z M 334.714844 100 "/>
<path style=" stroke:none;fill-rule:nonzero;fill:rgb(0%,0%,0%);fill-opacity:1;" d="M 334.714844 60 L 334.714844 40 L 354.714844 40 L 354.714844 60 Z M 334.714844 60 "/>
<path style=" stroke:none;fill-rule:nonzero;fill:rgb(0%,0%,0%);fill-opacity:1;" d="M 334.714844 20 L 334.714844 0 L 354.714844 0 L 354.714844 20 Z M 334.714844 20 "/>
<path style=" stroke:none;fill-rule:nonzero;fill:rgb(0%,0%,0%);fill-opacity:1;" d="M 370.714844 220 L 370.714844 200 L 390.714844 200 L 390.714844 220 Z M 370.714844 220 "/>
<path style=" stroke:none;fill-rule:nonzero;fill:rgb(0%,0%,0%);fill-opacity:1;" d="M 370.714844 180 L 370.714844 160 L 390.714844 160 L 390.714844 180 Z M 370.714844 180 "/>
<path style=" stroke:none;fill-rule:nonzero;fill:rgb(0%,0%,0%);fill-opacity:1;" d="M 370.714844 140 L 370.714844 120 L 390.714844 120 L 390.714844 140 Z M 370.714844 140 "/>
<path style=" stroke:none;fill-rule:nonzero;fill:rgb(0%,0%,0%);fill-opacity:1;" d="M 370.714844 100 L 370.714844 80 L 390.714844 80 L 390.714844 100 Z M 370.714844 100 "/>
<path style=" stroke:none;fill-rule:nonzero;fill:rgb(0%,0%,0%);fill-opacity:1;" d="M 370.714844 60 L 370.714844 40 L 390.714844 40 L 390.714844 60 Z M 370.714844 60 "/>
<path style=" stroke:none;fill-rule:nonzero;fill:rgb(0%,0%,0%);fill-opacity:1;" d="M 370.714844 20 L 370.714844 0 L 390.714844 0 L 390.714844 20 Z M 370.714844 20 "/>
<path style=" stroke:none;fill-rule:nonzero;fill:rgb(0%,0%,0%);fill-opacity:1;" d="M -3.113281 200 L -3.113281 180 L 16.886719 180 L 16.886719 200 Z M -3.113281 200 "/>
<path style=" stroke:none;fill-rule:nonzero;fill:rgb(0%,0%,0%);fill-opacity:1;" d="M -3.113281 160 L -3.113281 140 L 16.886719 140 L 16.886719 160 Z M -3.113281 160 "/>
<path style=" stroke:none;fill-rule:nonzero;fill:rgb(0%,0%,0%);fill-opacity:1;" d="M -3.113281 120 L -3.113281 100 L 16.886719 100 L 16.886719 120 Z M -3.113281 120 "/>
<path style=" stroke:none;fill-rule:nonzero;fill:rgb(0%,0%,0%);fill-opacity:1;" d="M -3.113281 80 L -3.113281 60 L 16.886719 60 L 16.886719 80 Z M -3.113281 80 "/>
<path style=" stroke:none;fill-rule:nonzero;fill:rgb(0%,0%,0%);fill-opacity:1;" d="M -3.113281 40 L -3.113281 20 L 16.886719 20 L 16.886719 40 Z M -3.113281 40 "/>
<path style=" stroke:none;fill-rule:nonzero;fill:rgb(0%,0%,0%);fill-opacity:1;" d="M 32.886719 200 L 32.886719 180 L 52.886719 180 L 52.886719 200 Z M 32.886719 200 "/>
<path style=" stroke:none;fill-rule:nonzero;fill:rgb(0%,0%,0%);fill-opacity:1;" d="M 32.886719 160 L 32.886719 140 L 52.886719 140 L 52.886719 160 Z M 32.886719 160 "/>
<path style=" stroke:none;fill-rule:nonzero;fill:rgb(0%,0%,0%);fill-opacity:1;" d="M 32.886719 120 L 32.886719 100 L 52.886719 100 L 52.886719 120 Z M 32.886719 120 "/>
<path style=" stroke:none;fill-rule:nonzero;fill:rgb(0%,0%,0%);fill-opacity:1;" d="M 32.886719 80 L 32.886719 60 L 52.886719 60 L 52.886719 80 Z M 32.886719 80 "/>
<path style=" stroke:none;fill-rule:nonzero;fill:rgb(0%,0%,0%);fill-opacity:1;" d="M 32.886719 40 L 32.886719 20 L 52.886719 20 L 52.886719 40 Z M 32.886719 40 "/>
<path style=" stroke:none;fill-rule:nonzero;fill:rgb(0%,0%,0%);fill-opacity:1;" d="M 68.886719 200 L 68.886719 180 L 88.886719 180 L 88.886719 200 Z M 68.886719 200 "/>
<path style=" stroke:none;fill-rule:nonzero;fill:rgb(0%,0%,0%);fill-opacity:1;" d="M 68.886719 160 L 68.886719 140 L 88.886719 140 L 88.886719 160 Z M 68.886719 160 "/>
<path style=" stroke:none;fill-rule:nonzero;fill:rgb(0%,0%,0%);fill-opacity:1;" d="M 68.886719 120 L 68.886719 100 L 88.886719 100 L 88.886719 120 Z M 68.886719 120 "/>
<path style=" stroke:none;fill-rule:nonzero;fill:rgb(0%,0%,0%);fill-opacity:1;" d="M 68.886719 80 L 68.886719 60 L 88.886719 60 L 88.886719 80 Z M 68.886719 80 "/>
<path style=" stroke:none;fill-rule:nonzero;fill:rgb(0%,0%,0%);fill-opacity:1;" d="M 68.886719 40 L 68.886719 20 L 88.886719 20 L 88.886719 40 Z M 68.886719 40 "/>
<path style=" stroke:none;fill-rule:nonzero;fill:rgb(0%,0%,0%);fill-opacity:1;" d="M 104.886719 200 L 104.886719 180 L 124.886719 180 L 124.886719 200 Z M 104.886719 200 "/>
<path style=" stroke:none;fill-rule:nonzero;fill:rgb(0%,0%,0%);fill-opacity:1;" d="M 104.886719 160 L 104.886719 140 L 124.886719 140 L 124.886719 160 Z M 104.886719 160 "/>
<path style=" stroke:none;fill-rule:nonzero;fill:rgb(0%,0%,0%);fill-opacity:1;" d="M 104.886719 120 L 104.886719 100 L 124.886719 100 L 124.886719 120 Z M 104.886719 120 "/>
<path style=" stroke:none;fill-rule:nonzero;fill:rgb(0%,0%,0%);fill-opacity:1;" d="M 104.886719 80 L 104.886719 60 L 124.886719 60 L 124.886719 80 Z M 104.886719 80 "/>
<path style=" stroke:none;fill-rule:nonzero;fill:rgb(0%,0%,0%);fill-opacity:1;" d="M 104.886719 40 L 104.886719 20 L 124.886719 20 L 124.886719 40 Z M 104.886719 40 "/>
<path style=" stroke:none;fill-rule:nonzero;fill:rgb(0%,0%,0%);fill-opacity:1;" d="M 140.886719 200 L 140.886719 180 L 160.886719 180 L 160.886719 200 Z M 140.886719 200 "/>
<path style=" stroke:none;fill-rule:nonzero;fill:rgb(0%,0%,0%);fill-opacity:1;" d="M 140.886719 160 L 140.886719 140 L 160.886719 140 L 160.886719 160 Z M 140.886719 160 "/>
<path style=" stroke:none;fill-rule:nonzero;fill:rgb(0%,0%,0%);fill-opacity:1;" d="M 140.886719 120 L 140.886719 100 L 160.886719 100 L 160.886719 120 Z M 140.886719 120 "/>
<path style=" stroke:none;fill-rule:nonzero;fill:rgb(0%,0%,0%);fill-opacity:1;" d="M 140.886719 80 L 140.886719 60 L 160.886719 60 L 160.886719 80 Z M 140.886719 80 "/>
<path style=" stroke:none;fill-rule:nonzero;fill:rgb(0%,0%,0%);fill-opacity:1;" d="M 140.886719 40 L 140.886719 20 L 160.886719 20 L 160.886719 40 Z M 140.886719 40 "/>
<path style=" stroke:none;fill-rule:nonzero;fill:rgb(0%,0%,0%);fill-opacity:1;" d="M 176.886719 200 L 176.886719 180 L 196.886719 180 L 196.886719 200 Z M 176.886719 200 "/>
<path style=" stroke:none;fill-rule:nonzero;fill:rgb(0%,0%,0%);fill-opacity:1;" d="M 176.886719 160 L 176.886719 140 L 196.886719 140 L 196.886719 160 Z M 176.886719 160 "/>
<path style=" stroke:none;fill-rule:nonzero;fill:rgb(0%,0%,0%);fill-opacity:1;" d="M 176.886719 120 L 176.886719 100 L 196.886719 100 L 196.886719 120 Z M 176.886719 120 "/>
<path style=" stroke:none;fill-rule:nonzero;fill:rgb(0%,0%,0%);fill-opacity:1;" d="M 176.886719 80 L 176.886719 60 L 196.886719 60 L 196.886719 80 Z M 176.886719 80 "/>
<path style=" stroke:none;fill-rule:nonzero;fill:rgb(0%,0%,0%);fill-opacity:1;" d="M 176.886719 40 L 176.886719 20 L 196.886719 20 L 196.886719 40 Z M 176.886719 40 "/>
<path style=" stroke:none;fill-rule:nonzero;fill:rgb(0%,0%,0%);fill-opacity:1;" d="M 212.886719 200 L 212.886719 180 L 232.886719 180 L 232.886719 200 Z M 212.886719 200 "/>
<path style=" stroke:none;fill-rule:nonzero;fill:rgb(0%,0%,0%);fill-opacity:1;" d="M 212.886719 160 L 212.886719 140 L 232.886719 140 L 232.886719 160 Z M 212.886719 160 "/>
<path style=" stroke:none;fill-rule:nonzero;fill:rgb(0%,0%,0%);fill-opacity:1;" d="M 212.886719 120 L 212.886719 100 L 232.886719 100 L 232.886719 120 Z M 212.886719 120 "/>
<path style=" stroke:none;fill-rule:nonzero;fill:rgb(0%,0%,0%);fill-opacity:1;" d="M 212.886719 80 L 212.886719 60 L 232.886719 60 L 232.886719 80 Z M 212.886719 80 "/>
<path style=" stroke:none;fill-rule:nonzero;fill:rgb(0%,0%,0%);fill-opacity:1;" d="M 212.886719 40 L 212.886719 20 L 232.886719 20 L 232.886719 40 Z M 212.886719 40 "/>
<path style=" stroke:none;fill-rule:nonzero;fill:rgb(0%,0%,0%);fill-opacity:1;" d="M 248.886719 200 L 248.886719 180 L 268.886719 180 L 268.886719 200 Z M 248.886719 200 "/>
<path style=" stroke:none;fill-rule:nonzero;fill:rgb(0%,0%,0%);fill-opacity:1;" d="M 248.886719 160 L 248.886719 140 L 268.886719 140 L 268.886719 160 Z M 248.886719 160 "/>
<path style=" stroke:none;fill-rule:nonzero;fill:rgb(0%,0%,0%);fill-opacity:1;" d="M 248.886719 120 L 248.886719 100 L 268.886719 100 L 268.886719 120 Z M 248.886719 120 "/>
<path style=" stroke:none;fill-rule:nonzero;fill:rgb(0%,0%,0%);fill-opacity:1;" d="M 248.886719 80 L 248.886719 60 L 268.886719 60 L 268.886719 80 Z M 248.886719 80 "/>
<path style=" stroke:none;fill-rule:nonzero;fill:rgb(0%,0%,0%);fill-opacity:1;" d="M 248.886719 40 L 248.886719 20 L 268.886719 20 L 268.886719 40 Z M 248.886719 40 "/>
<path style=" stroke:none;fill-rule:nonzero;fill:rgb(0%,0%,0%);fill-opacity:1;" d="M 284.886719 200 L 284.886719 180 L 304.886719 180 L 304.886719 200 Z M 284.886719 200 "/>
<path style=" stroke:none;fill-rule:nonzero;fill:rgb(0%,0%,0%);fill-opacity:1;" d="M 284.886719 160 L 284.886719 140 L 304.886719 140 L 304.886719 160 Z M 284.886719 160 "/>
<path style=" stroke:none;fill-rule:nonzero;fill:rgb(0%,0%,0%);fill-opacity:1;" d="M 284.886719 120 L 284.886719 100 L 304.886719 100 L 304.886719 120 Z M 284.886719 120 "/>
<path style=" stroke:none;fill-rule:nonzero;fill:rgb(0%,0%,0%);fill-opacity:1;" d="M 284.886719 80 L 284.886719 60 L 304.886719 60 L 304.886719 80 Z M 284.886719 80 "/>
<path style=" stroke:none;fill-rule:nonzero;fill:rgb(0%,0%,0%);fill-opacity:1;" d="M 284.886719 40 L 284.886719 20 L 304.886719 20 L 304.886719 40 Z M 284.886719 40 "/>
<path style=" stroke:none;fill-rule:nonzero;fill:rgb(0%,0%,0%);fill-opacity:1;" d="M 320.886719 200 L 320.886719 180 L 340.886719 180 L 340.886719 200 Z M 320.886719 200 "/>
<path style=" stroke:none;fill-rule:nonzero;fill:rgb(0%,0%,0%);fill-opacity:1;" d="M 320.886719 160 L 320.886719 140 L 340.886719 140 L 340.886719 160 Z M 320.886719 160 "/>
<path style=" stroke:none;fill-rule:nonzero;fill:rgb(0%,0%,0%);fill-opacity:1;" d="M 320.886719 120 L 320.886719 100 L 340.886719 100 L 340.886719 120 Z M 320.886719 120 "/>
<path style=" stroke:none;fill-rule:nonzero;fill:rgb(0%,0%,0%);fill-opacity:1;" d="M 320.886719 80 L 320.886719 60 L 340.886719 60 L 340.886719 80 Z M 320.886719 80 "/>
<path style=" stroke:none;fill-rule:nonzero;fill:rgb(0%,0%,0%);fill-opacity:1;" d="M 320.886719 40 L 320.886719 20 L 340.886719 20 L 340.886719 40 Z M 320.886719 40 "/>
<path style=" stroke:none;fill-rule:nonzero;fill:rgb(0%,0%,0%);fill-opacity:1;" d="M 356.886719 200 L 356.886719 180 L 376.886719 180 L 376.886719 200 Z M 356.886719 200 "/>
<path style=" stroke:none;fill-rule:nonzero;fill:rgb(0%,0%,0%);fill-opacity:1;" d="M 356.886719 160 L 356.886719 140 L 376.886719 140 L 376.886719 160 Z M 356.886719 160 "/>
<path style=" stroke:none;fill-rule:nonzero;fill:rgb(0%,0%,0%);fill-opacity:1;" d="M 356.886719 120 L 356.886719 100 L 376.886719 100 L 376.886719 120 Z M 356.886719 120 "/>
<path style=" stroke:none;fill-rule:nonzero;fill:rgb(0%,0%,0%);fill-opacity:1;" d="M 356.886719 80 L 356.886719 60 L 376.886719 60 L 376.886719 80 Z M 356.886719 80 "/>
<path style=" stroke:none;fill-rule:nonzero;fill:rgb(0%,0%,0%);fill-opacity:1;" d="M 356.886719 40 L 356.886719 20 L 376.886719 20 L 376.886719 40 Z M 356.886719 40 "/>
<path style=" stroke:none;fill-rule:nonzero;fill:rgb(0%,0%,0%);fill-opacity:1;" d="M 392.886719 200 L 392.886719 180 L 412.886719 180 L 412.886719 200 Z M 392.886719 200 "/>
<path style=" stroke:none;fill-rule:nonzero;fill:rgb(0%,0%,0%);fill-opacity:1;" d="M 392.886719 160 L 392.886719 140 L 412.886719 140 L 412.886719 160 Z M 392.886719 160 "/>
<path style=" stroke:none;fill-rule:nonzero;fill:rgb(0%,0%,0%);fill-opacity:1;" d="M 392.886719 120 L 392.886719 100 L 412.886719 100 L 412.886719 120 Z M 392.886719 120 "/>
<path style=" stroke:none;fill-rule:nonzero;fill:rgb(0%,0%,0%);fill-opacity:1;" d="M 392.886719 80 L 392.886719 60 L 412.886719 60 L 412.886719 80 Z M 392.886719 80 "/>
<path style=" stroke:none;fill-rule:nonzero;fill:rgb(0%,0%,0%);fill-opacity:1;" d="M 392.886719 40 L 392.886719 20 L 412.886719 20 L 412.886719 40 Z M 392.886719 40 "/>
<path style="fill:none;stroke-width:1;stroke-linecap:square;stroke-linejoin:miter;stroke:rgb(100%,0%,0%);stroke-opacity:1;stroke-miterlimit:3.25;" d="M 0 220 L 400 220 "/>
<path style="fill:none;stroke-width:1;stroke-linecap:square;stroke-linejoin:miter;stroke:rgb(100%,0%,0%);stroke-opacity:1;stroke-miterlimit:3.25;" d="M 0 200 L 400 200 "/>
<path style="fill:none;stroke-width:1;stroke-linecap:square;stroke-linejoin:miter;stroke:rgb(100%,0%,0%);stroke-opacity:1;stroke-miterlimit:3.25;" d="M 0 180 L 400 180 "/>
<path style="fill:none;stroke-width:1;stroke-linecap:square;stroke-linejoin:miter;stroke:rgb(100%,0%,0%);stroke-opacity:1;stroke-miterlimit:3.25;" d="M 0 160 L 400 160 "/>
<path style="fill:none;stroke-width:1;stroke-linecap:square;stroke-linejoin:miter;stroke:rgb(100%,0%,0%);stroke-opacity:1;stroke-miterlimit:3.25;" d="M 0 140 L 400 140 "/>
<path style="fill:none;stroke-width:1;stroke-linecap:square;stroke-linejoin:miter;stroke:rgb(100%,0%,0%);stroke-opacity:1;stroke-miterlimit:3.25;" d="M 0 120 L 400 120 "/>
<path style="fill:none;stroke-width:1;stroke-linecap:square;stroke-linejoin:miter;stroke:rgb(100%,0%,0%);stroke-opacity:1;stroke-miterlimit:3.25;" d="M 0 100 L 400 100 "/>
<path style="fill:none;stroke-width:1;stroke-linecap:square;stroke-linejoin:miter;stroke:rgb(100%,0%,0%);stroke-opacity:1;stroke-miterlimit:3.25;" d="M 0 80 L 400 80 "/>
<path style="fill:none;stroke-width:1;stroke-linecap:square;stroke-linejoin:miter;stroke:rgb(100%,0%,0%);stroke-opacity:1;stroke-miterlimit:3.25;" d="M 0 60 L 400 60 "/>
<path style="fill:none;stroke-width:1;stroke-linecap:square;stroke-linejoin:miter;stroke:rgb(100%,0%,0%);stroke-opacity:1;stroke-miterlimit:3.25;" d="M 0 40 L 400 40 "/>
<path style="fill:none;stroke-width:1;stroke-linecap:square;stroke-linejoin:miter;stroke:rgb(100%,0%,0%);stroke-opacity:1;stroke-miterlimit:3.25;" d="M 0 20 L 400 20 "/>
</g>
</svg>
