<?xml version="1.0" encoding="UTF-8"?>
<svg xmlns="http://www.w3.org/2000/svg" xmlns:xlink="http://www.w3.org/1999/xlink" width="400pt" height="220pt" viewBox="0 0 400 220" version="1.1">
<g id="surface776">
<rect x="0" y="0" width="400" height="220" style="fill:rgb(0%,40%,100%);fill-opacity:0.2;stroke:none;"/>
<path style=" stroke:none;fill-rule:nonzero;fill:rgb(0%,0%,0%);fill-opacity:1;" d="M -7.363281 220 L -7.363281 200 L 12.636719 200 L 12.636719 220 Z M -7.363281 220 "/>
<path style=" stroke:none;fill-rule:nonzero;fill:rgb(0%,0%,0%);fill-opacity:1;" d="M -7.363281 180 L -7.363281 160 L 12.636719 160 L 12.636719 180 Z M -7.363281 180 "/>
<path style=" stroke:none;fill-rule:nonzero;fill:rgb(0%,0%,0%);fill-opacity:1;" d="M -7.363281 140 L -7.363281 120 L 12.636719 120 L 12.636719 140 Z M -7.363281 140 "/>
<path style=" stroke:none;fill-rule:nonzero;fill:rgb(0%,0%,0%);fill-opacity:1;" d="M -7.363281 100 L -7.363281 80 L 12.636719 80 L 12.636719 100 Z M -7.363281 100 "/>
<path style=" stroke:none;fill-rule:nonzero;fill:rgb(0%,0%,0%);fill-opacity:1;" d="M -7.363281 60 L -7.363281 40 L 12.636719 40 L 12.636719 60 Z M -7.363281 60 "/>
<path style=" stroke:none;fill-rule:nonzero;fill:rgb(0%,0%,0%);fill-opacity:1;" d="M -7.363281 20 L -7.363281 0 L 12.636719 0 L 12.636719 20 Z M -7.363281 20 "/>
<path style=" stroke:none;fill-rule:nonzero;fill:rgb(0%,0%,0%);fill-opacity:1;" d="M 28.636719 220 L 28.636719 200 L 48.636719 200 L 48.636719 220 Z M 28.636719 220 "/>
<path style=" stroke:none;fill-rule:nonzero;fill:rgb(0%,0%,0%);fill-opacity:1;" d="M 28.636719 180 L 28.636719 160 L 48.636719 160 L 48.636719 180 Z M 28.636719 180 "/>
<path style=" stroke:none;fill-rule:nonzero;fill:rgb(0%,0%,0%);fill-opacity:1;" d="M 28.636719 140 L 28.636719 120 L 48.636719 120 L 48.636719 140 Z M 28.636719 140 "/>
<path style=" stroke:none;fill-rule:nonzero;fill:rgb(0%,0%,0%);fill-opacity:1;" d="M 28.636719 100 L 28.636719 80 L 48.636719 80 L 48.636719 100 Z M 28.636719 100 "/>
<path style=" stroke:none;fill-rule:nonzero;fill:rgb(0%,0%,0%);fill-opacity:1;" d="M 28.636719 60 L 28.636719 40 L 48.636719 40 L 48.636719 60 Z M 28.636719 60 "/>
<path style=" stroke:none;fill-rule:nonzero;fill:rgb(0%,0%,0%);fill-opacity:1;" d="M 28.636719 20 L 28.636719 0 L 48.636719 0 L 48.636719 20 Z M 28.636719 20 "/>
<path style=" stroke:none;fill-rule:nonzero;fill:rgb(0%,0%,0%);fill-opacity:1;" d="M 64.636719 220 L 64.636719 200 L 84.636719 200 L 84.636719 220 Z M 64.636719 220 "/>
<path style=" stroke:none;fill-rule:nonzero;fill:rgb(0%,0%,0%);fill-opacity:1;" d="M 64.636719 180 L 64.636719 160 L 84.636719 160 L 84.636719 180 Z M 64.636719 180 "/>
<path style=" stroke:none;fill-rule:nonzero;fill:rgb(0%,0%,0%);fill-opacity:1;" d="M 64.636719 140 L 64.636719 120 L 84.636719 120 L 84.636719 140 Z M 64.636719 140 "/>
<path style=" stroke:none;fill-rule:nonzero;fill:rgb(0%,0%,0%);fill-opacity:1;" d="M 64.636719 100 L 64.636719 80 L 84.636719 80 L 84.636719 100 Z M 64.636719 100 "/>
<path style=" stroke:none;fill-rule:nonzero;fill:rgb(0%,0%,0%);fill-opacity:1;" d="M 64.636719 60 L 64.636719 40 L 84.636719 40 L 84.636719 60 Z M 64.636719 60 "/>
<path style=" stroke:none;fill-rule:nonzero;fill:rgb(0%,0%,0%);fill-opacity:1;" d="M 64.636719 20 L 64.636719 0 L 84.636719 0 L 84.636719 20 Z M 64.636719 20 "/>
<path style=" stroke:none;fill-rule:nonzero;fill:rgb(0%,0%,0%);fill-opacity:1;" d="M 100.636719 220 L 100.636719 200 L 120.636719 200 L 120.636719 220 Z M 100.636719 220 "/>
<path style=" stroke:none;fill-rule:nonzero;fill:rgb(0%,0%,0%);fill-opacity:1;" d="M 100.636719 180 L 100.636719 160 L 120.636719 160 L 120.636719 180 Z M 100.636719 180 "/>
<path style=" stroke:none;fill-rule:nonzero;fill:rgb(0%,0%,0%);fill-opacity:1;" d="M 100.636719 140 L 100.636719 120 L 120.636719 120 L 120.636719 140 Z M 100.636719 140 "/>
<path style=" stroke:none;fill-rule:nonzero;fill:rgb(0%,0%,0%);fill-opacity:1;" d="M 100.636719 100 L 100.636719 80 L 120.636719 80 L 120.636719 100 Z M 100.636719 100 "/>
<path style=" stroke:none;fill-rule:nonzero;fill:rgb(0%,0%,0%);fill-opacity:1;" d="M 100.636719 60 L 100.636719 40 L 120.636719 40 L 120.636719 60 Z M 100.636719 60 "/>
<path style=" stroke:none;fill-rule:nonzero;fill:rgb(0%,0%,0%);fill-opacity:1;" d="M 100.636719 20 L 100.636719 0 L 120.636719 0 L 120.636719 20 Z M 100.636719 20 "/>
<path style=" stroke:none;fill-rule:nonzero;fill:rgb(0%,0%,0%);fill-opacity:1;" d="M 136.636719 220 L 136.636719 200 L 156.636719 200 L 156.636719 220 Z M 136.636719 220 "/>
<path style=" stroke:none;fill-rule:nonzero;fill:rgb(0%,0%,0%);fill-opacity:1;" d="M 136.636719 180 L 136.636719 160 L 156.636719 160 L 156.636719 180 Z M 136.636719 180 "/>
<path style=" stroke:none;fill-rule:nonzero;fill:rgb(0%,0%,0%);fill-opacity:1;" d="M 136.636719 140 L 136.636719 120 L 156.636719 120 L 156.636719 140 Z M 136.636719 140 "/>
<path style=" stroke:none;fill-rule:nonzero;fill:rgb(0%,0%,0%);fill-opacity:1;" d="M 136.636719 100 L 136.636719 80 L 156.636719 80 L 156.636719 100 Z M 136.636719 100 "/>
<path style=" stroke:none;fill-rule:nonzero;fill:rgb(0%,0%,0%);fill-opacity:1;" d="M 136.636719 60 L 136.636719 40 L 156.636719 40 L 156.636719 60 Z M 136.636719 60 "/>
<path style=" stroke:none;fill-rule:nonzero;fill:rgb(0%,0%,0%);fill-opacity:1;" d="M 136.636719 20 L 136.636719 0 L 156.636719 0 L 156.636719 20 Z M 136.636719 20 "/>
<path style=" stroke:none;fill-rule:nonzero;fill:rgb(0%,0%,0%);fill-opacity:1;" d="M 172.636719 220 L 172.636719 200 L 192.636719 200 L 192.636719 220 Z M 172.636719 220 "/>
<path style=" stroke:none;fill-rule:nonzero;fill:rgb(0%,0%,0%);fill-opacity:1;" d="M 172.636719 180 L 172.636719 160 L 192.636719 160 L 192.636719 180 Z M 172.636719 180 "/>
<path style=" stroke:none;fill-rule:nonzero;fill:rgb(0%,0%,0%);fill-opacity:1;" d="M 172.636719 140 L 172.636719 120 L 192.636719 120 L 192.636719 140 Z M 172.636719 140 "/>
<path style=" stroke:none;fill-rule:nonzero;fill:rgb(0%,0%,0%);fill-opacity:1;" d="M 172.636719 100 L 172.636719 80 L 192.636719 80 L 192.636719 100 Z M 172.636719 100 "/>
<path style=" stroke:none;fill-rule:nonzero;fill:rgb(0%,0%,0%);fill-opacity:1;" d="M 172.636719 60 L 172.636719 40 L 192.636719 40 L 192.636719 60 Z M 172.636719 60 "/>
<path style=" stroke:none;fill-rule:nonzero;fill:rgb(0%,0%,0%);fill-opacity:1;" d="M 172.636719 20 L 172.636719 0 L 192.636719 0 L 192.636719 20 Z M 172.636719 20 "/>
<path style=" stroke:none;fill-rule:nonzero;fill:rgb(0%,0%,0%);fill-opacity:1;" d="M 208.636719 220 L 208.636719 200 L 228.636719 200 L 228.636719 220 Z M 208.636719 220 "/>
<path style=" stroke:none;fill-rule:nonzero;fill:rgb(0%,0%,0%);fill-opacity:1;" d="M 208.636719 180 L 208.636719 160 L 228.636719 160 L 228.636719 180 Z M 208.636719 180 "/>
<path style=" stroke:none;fill-rule:nonzero;fill:rgb(0%,0%,0%);fill-opacity:1;" d="M 208.636719 140 L 208.636719 120 L 228.636719 120 L 228.636719 140 Z M 208.636719 140 "/>
<path style=" stroke:none;fill-rule:nonzero;fill:rgb(0%,0%,0%);fill-opacity:1;" d="M 208.636719 100 L 208.636719 80 L 228.636719 80 L 228.636719 100 Z M 208.636719 100 "/>
<path style=" stroke:none;fill-rule:nonzero;fill:rgb(0%,0%,0%);fill-opacity:1;" d="M 208.636719 60 L 208.636719 40 L 228.636719 40 L 228.636719 60 Z M 208.636719 60 "/>
<path style=" stroke:none;fill-rule:nonzero;fill:rgb(0%,0%,0%);fill-opacity:1;" d="M 208.636719 20 L 208.636719 0 L 228.636719 0 L 228.636719 20 Z M 208.636719 20 "/>
<path style=" stroke:none;fill-rule:nonzero;fill:rgb(0%,0%,0%);fill-opacity:1;" d="M 244.636719 220 L 244.636719 200 L 264.636719 200 L 264.636719 220 Z M 244.636719 220 "/>
<path style=" stroke:none;fill-rule:nonzero;fill:rgb(0%,0%,0%);fill-opacity:1;" d="M 244.636719 180 L 244.636719 160 L 264.636719 160 L 264.636719 180 Z M 244.636719 180 "/>
<path style=" stroke:none;fill-rule:nonzero;fill:rgb(0%,0%,0%);fill-opacity:1;" d="M 244.636719 140 L 244.636719 120 L 264.636719 120 L 264.636719 140 Z M 244.636719 140 "/>
<path style=" stroke:none;fill-rule:nonzero;fill:rgb(0%,0%,0%);fill-opacity:1;" d="M 244.636719 100 L 244.636719 80 L 264.636719 80 L 264.636719 100 Z M 244.636719 100 "/>
<path style=" stroke:none;fill-rule:nonzero;fill:rgb(0%,0%,0%);fill-opacity:1;" d="M 244.636719 60 L 244.636719 40 L 264.636719 40 L 264.636719 60 Z M 244.636719 60 "/>
<path style=" stroke:none;fill-rule:nonzero;fill:rgb(0%,0%,0%);fill-opacity:1;" d="M 244.636719 20 L 244.636719 0 L 264.636719 0 L 264.636719 20 Z M 244.636719 20 "/>
<path style=" stroke:none;fill-rule:nonzero;fill:rgb(0%,0%,0%);fill-opacity:1;" d="M 280.636719 220 L 280.636719 200 L 300.636719 200 L 300.636719 220 Z M 280.636719 220 "/>
<path style=" stroke:none;fill-rule:nonzero;fill:rgb(0%,0%,0%);fill-opacity:1;" d="M 280.636719 180 L 280.636719 160 L 300.636719 160 L 300.636719 180 Z M 280.636719 180 "/>
<path style=" stroke:none;fill-rule:nonzero;fill:rgb(0%,0%,0%);fill-opacity:1;" d="M 280.636719 140 L 280.636719 120 L 300.636719 120 L 300.636719 140 Z M 280.636719 140 "/>
<path style=" stroke:none;fill-rule:nonzero;fill:rgb(0%,0%,0%);fill-opacity:1;" d="M 280.636719 100 L 280.636719 80 L 300.636719 80 L 300.636719 100 Z M 280.636719 100 "/>
<path style=" stroke:none;fill-rule:nonzero;fill:rgb(0%,0%,0%);fill-opacity:1;" d="M 280.636719 60 L 280.636719 40 L 300.636719 40 L 300.636719 60 Z M 280.636719 60 "/>
<path style=" stroke:none;fill-rule:nonzero;fill:rgb(0%,0%,0%);fill-opacity:1;" d="M 280.636719 20 L 280.636719 0 L 300.636719 0 L 300.636719 20 Z M 280.636719 20 "/>
<path style=" stroke:none;fill-rule:nonzero;fill:rgb(0%,0%,0%);fill-opacity:1;" d="M 316.636719 220 L 316.636719 200 L 336.636719 200 L 336.636719 220 Z M 316.636719 220 "/>
<path style=" stroke:none;fill-rule:nonzero;fill:rgb(0%,0%,0%);fill-opacity:1;" d="M 316.636719 180 L 316.636719 160 L 336.636719 160 L 336.636719 180 Z M 316.636719 180 "/>
<path style=" stroke:none;fill-rule:nonzero;fill:rgb(0%,0%,0%);fill-opacity:1;" d="M 316.636719 140 L 316.636719 120 L 336.636719 120 L 336.636719 140 Z M 316.636719 140 "/>
<path style=" stroke:none;fill-rule:nonzero;fill:rgb(0%,0%,0%);fill-opacity:1;" d="M 316.636719 100 L 316.636719 80 L 336.636719 80 L 336.636719 100 Z M 316.636719 100 "/>
<path style=" stroke:none;fill-rule:nonzero;fill:rgb(0%,0%,0%);fill-opacity:1;" d="M 316.636719 60 L 316.636719 40 L 336.636719 40 L 336.636719 60 Z M 316.636719 60 "/>
<path style=" stroke:none;fill-rule:nonzero;fill:rgb(0%,0%,0%);fill-opacity:1;" d="M 316.636719 20 L 316.636719 0 L 336.636719 0 L 336.636719 20 Z M 316.636719 20 "/>
<path style=" stroke:none;fill-rule:nonzero;fill:rgb(0%,0%,0%);fill-opacity:1;" d="M 352.636719 220 L 352.636719 200 L 372.636719 200 L 372.636719 220 Z M 352.636719 220 "/>
<path style=" stroke:none;fill-rule:nonzero;fill:rgb(0%,0%,0%);fill-opacity:1;" d="M 352.636719 180 L 352.636719 160 L 372.636719 160 L 372.636719 180 Z M 352.636719 180 "/>
<path style=" stroke:none;fill-rule:nonzero;fill:rgb(0%,0%,0%);fill-opacity:1;" d="M 352.636719 140 L 352.636719 120 L 372.636719 120 L 372.636719 140 Z M 352.636719 140 "/>
<path style=" stroke:none;fill-rule:nonzero;fill:rgb(0%,0%,0%);fill-opacity:1;" d="M 352.636719 100 L 352.636719 80 L 372.636719 80 L 372.636719 100 Z M 352.636719 100 "/>
<path style=" stroke:none;fill-rule:nonzero;fill:rgb(0%,0%,0%);fill-opacity:1;" d="M 352.636719 60 L 352.636719 40 L 372.636719 40 L 372.636719 60 Z M 352.636719 60 "/>
<path style=" stroke:none;fill-rule:nonzero;fill:rgb(0%,0%,0%);fill-opacity:1;" d="M 352.636719 20 L 352.636719 0 L 372.636719 0 L 372.636719 20 Z M 352.636719 20 "/>
<path style=" stroke:none;fill-rule:nonzero;fill:rgb(0%,0%,0%);fill-opacity:1;" d="M 388.636719 220 L 388.636719 200 L 408.636719 200 L 408.636719 220 Z M 388.636719 220 "/>
<path style=" stroke:none;fill-rule:nonzero;fill:rgb(0%,0%,0%);fill-opacity:1;" d="M 388.636719 180 L 388.636719 160 L 408.636719 160 L 408.636719 180 Z M 388.636719 180 "/>
<path style=" stroke:none;fill-rule:nonzero;fill:rgb(0%,0%,0%);fill-opacity:1;" d="M 388.636719 140 L 388.636719 120 L 408.636719 120 L 408.636719 140 Z M 388.636719 140 "/>
<path style=" stroke:none;fill-rule:nonzero;fill:rgb(0%,0%,0%);fill-opacity:1;" d="M 388.636719 100 L 388.636719 80 L 408.636719 80 L 408.636719 100 Z M 388.636719 100 "/>
<path style=" stroke:none;fill-rule:nonzero;fill:rgb(0%,0%,0%);fill-opacity:1;" d="M 388.636719 60 L 388.636719 40 L 408.636719 40 L 408.636719 60 Z M 388.636719 60 "/>
<path style=" stroke:none;fill-rule:nonzero;fill:rgb(0%,0%,0%);fill-opacity:1;" d="M 388.636719 20 L 388.636719 0 L 408.636719 0 L 408.636719 20 Z M 388.636719 20 "/>
<path style=" stroke:none;fill-rule:nonzero;fill:rgb(0%,0%,0%);fill-opacity:1;" d="M -1.40625 200 L -1.40625 180 L 18.59375 180 L 18.59375 200 Z M -1.40625 200 "/>
<path style=" stroke:none;fill-rule:nonzero;fill:rgb(0%,0%,0%);fill-opacity:1;" d="M -1.40625 160 L -1.40625 140 L 18.59375 140 L 18.59375 160 Z M -1.40625 160 "/>
<path style=" stroke:none;fill-rule:nonzero;fill:rgb(0%,0%,0%);fill-opacity:1;" d="M -1.40625 120 L -1.40625 100 L 18.59375 100 L 18.59375 120 Z M -1.40625 120 "/>
<path style=" stroke:none;fill-rule:nonzero;fill:rgb(0%,0%,0%);fill-opacity:1;" d="M -1.40625 80 L -1.40625 60 L 18.59375 60 L 18.59375 80 Z M -1.40625 80 "/>
<path style=" stroke:none;fill-rule:nonzero;fill:rgb(0%,0%,0%);fill-opacity:1;" d="M -1.40625 40 L -1.40625 20 L 18.59375 20 L 18.59375 40 Z M -1.40625 40 "/>
<path style=" stroke:none;fill-rule:nonzero;fill:rgb(0%,0%,0%);fill-opacity:1;" d="M 34.59375 200 L 34.59375 180 L 54.59375 180 L 54.59375 200 Z M 34.59375 200 "/>
<path style=" stroke:none;fill-rule:nonzero;fill:rgb(0%,0%,0%);fill-opacity:1;" d="M 34.59375 160 L 34.59375 140 L 54.59375 140 L 54.59375 160 Z M 34.59375 160 "/>
<path style=" stroke:none;fill-rule:nonzero;fill:rgb(0%,0%,0%);fill-opacity:1;" d="M 34.59375 120 L 34.59375 100 L 54.59375 100 L 54.59375 120 Z M 34.59375 120 "/>
<path style=" stroke:none;fill-rule:nonzero;fill:rgb(0%,0%,0%);fill-opacity:1;" d="M 34.59375 80 L 34.59375 60 L 54.59375 60 L 54.59375 80 Z M 34.59375 80 "/>
<path style=" stroke:none;fill-rule:nonzero;fill:rgb(0%,0%,0%);fill-opacity:1;" d="M 34.59375 40 L 34.59375 20 L 54.59375 20 L 54.59375 40 Z M 34.59375 40 "/>
<path style=" stroke:none;fill-rule:nonzero;fill:rgb(0%,0%,0%);fill-opacity:1;" d="M 70.59375 200 L 70.59375 180 L 90.59375 180 L 90.59375 200 Z M 70.59375 200 "/>
<path style=" stroke:none;fill-rule:nonzero;fill:rgb(0%,0%,0%);fill-opacity:1;" d="M 70.59375 160 L 70.59375 140 L 90.59375 140 L 90.59375 160 Z M 70.59375 160 "/>
<path style=" stroke:none;fill-rule:nonzero;fill:rgb(0%,0%,0%);fill-opacity:1;" d="M 70.59375 120 L 70.59375 100 L 90.59375 100 L 90.59375 120 Z M 70.59375 120 "/>
<path style=" stroke:none;fill-rule:nonzero;fill:rgb(0%,0%,0%);fill-opacity:1;" d="M 70.59375 80 L 70.59375 60 L 90.59375 60 L 90.59375 80 Z M 70.59375 80 "/>
<path style=" stroke:none;fill-rule:nonzero;fill:rgb(0%,0%,0%);fill-opacity:1;" d="M 70.59375 40 L 70.59375 20 L 90.59375 20 L 90.59375 40 Z M 70.59375 40 "/>
<path style=" stroke:none;fill-rule:nonzero;fill:rgb(0%,0%,0%);fill-opacity:1;" d="M 106.59375 200 L 106.59375 180 L 126.59375 180 L 126.59375 200 Z M 106.59375 200 "/>
<path style=" stroke:none;fill-rule:nonzero;fill:rgb(0%,0%,0%);fill-opacity:1;" d="M 106.59375 160 L 106.59375 140 L 126.59375 140 L 126.59375 160 Z M 106.59375 160 "/>
<path style=" stroke:none;fill-rule:nonzero;fill:rgb(0%,0%,0%);fill-opacity:1;" d="M 106.59375 120 L 106.59375 100 L 126.59375 100 L 126.59375 120 Z M 106.59375 120 "/>
<path style=" stroke:none;fill-rule:nonzero;fill:rgb(0%,0%,0%);fill-opacity:1;" d="M 106.59375 80 L 106.59375 60 L 126.59375 60 L 126.59375 80 Z M 106.59375 80 "/>
<path style=" stroke:none;fill-rule:nonzero;fill:rgb(0%,0%,0%);fill-opacity:1;" d="M 106.59375 40 L 106.59375 20 L 126.59375 20 L 126.59375 40 Z M 106.59375 40 "/>
<path style=" stroke:none;fill-rule:nonzero;fill:rgb(0%,0%,0%);fill-opacity:1;" d="M 142.59375 200 L 142.59375 180 L 162.59375 180 L 162.59375 200 Z M 142.59375 200 "/>
<path style=" stroke:none;fill-rule:nonzero;fill:rgb(0%,0%,0%);fill-opacity:1;" d="M 142.59375 160 L 142.59375 140 L 162.59375 140 L 162.59375 160 Z M 142.59375 160 "/>
<path style=" stroke:none;fill-rule:nonzero;fill:rgb(0%,0%,0%);fill-opacity:1;" d="M 142.59375 120 L 142.59375 100 L 162.59375 100 L 162.59375 120 Z M 142.59375 120 "/>
<path style=" stroke:none;fill-rule:nonzero;fill:rgb(0%,0%,0%);fill-opacity:1;" d="M 142.59375 80 L 142.59375 60 L 162.59375 60 L 162.59375 80 Z M 142.59375 80 "/>
<path style=" stroke:none;fill-rule:nonzero;fill:rgb(0%,0%,0%);fill-opacity:1;" d="M 142.59375 40 L 142.59375 20 L 162.59375 20 L 162.59375 40 Z M 142.59375 40 "/>
<path style=" stroke:none;fill-rule:nonzero;fill:rgb(0%,0%,0%);fill-opacity:1;" d="M 178.59375 200 L 178.59375 180 L 198.59375 180 L 198.59375 200 Z M 178.59375 200 "/>
<path style=" stroke:none;fill-rule:nonzero;fill:rgb(0%,0%,0%);fill-opacity:1;" d="M 178.59375 160 L 178.59375 140 L 198.59375 140 L 198.59375 160 Z M 178.59375 160 "/>
<path style=" stroke:none;fill-rule:nonzero;fill:rgb(0%,0%,0%);fill-opacity:1;" d="M 178.59375 120 L 178.59375 100 L 198.59375 100 L 198.59375 120 Z M 178.59375 120 "/>
<path style=" stroke:none;fill-rule:nonzero;fill:rgb(0%,0%,0%);fill-opacity:1;" d="M 178.59375 80 L 178.59375 60 L 198.59375 60 L 198.59375 80 Z M 178.59375 80 "/>
<path style=" stroke:none;fill-rule:nonzero;fill:rgb(0%,0%,0%);fill-opacity:1;" d="M 178.59375 40 L 178.59375 20 L 198.59375 20 L 198.59375 40 Z M 178.59375 40 "/>
<path style=" stroke:none;fill-rule:nonzero;fill:rgb(0%,0%,0%);fill-opacity:1;" d="M 214.59375 200 L 214.59375 180 L 234.59375 180 L 234.59375 200 Z M 214.59375 200 "/>
<path style=" stroke:none;fill-rule:nonzero;fill:rgb(0%,0%,0%);fill-opacity:1;" d="M 214.59375 160 L 214.59375 140 L 234.59375 140 L 234.59375 160 Z M 214.59375 160 "/>
<path style=" stroke:none;fill-rule:nonzero;fill:rgb(0%,0%,0%);fill-opacity:1;" d="M 214.59375 120 L 214.59375 100 L 234.59375 100 L 234.59375 120 Z M 214.59375 120 "/>
<path style=" stroke:none;fill-rule:nonzero;fill:rgb(0%,0%,0%);fill-opacity:1;" d="M 214.59375 80 L 214.59375 60 L 234.59375 60 L 234.59375 80 Z M 214.59375 80 "/>
<path style=" stroke:none;fill-rule:nonzero;fill:rgb(0%,0%,0%);fill-opacity:1;" d="M 214.59375 40 L 214.59375 20 L 234.59375 20 L 234.59375 40 Z M 214.59375 40 "/>
<path style=" stroke:none;fill-rule:nonzero;fill:rgb(0%,0%,0%);fill-opacity:1;" d="M 250.59375 200 L 250.59375 180 L 270.59375 180 L 270.59375 200 Z M 250.59375 200 "/>
<path style=" stroke:none;fill-rule:nonzero;fill:rgb(0%,0%,0%);fill-opacity:1;" d="M 250.59375 160 L 250.59375 140 L 270.59375 140 L 270.59375 160 Z M 250.59375 160 "/>
<path style=" stroke:none;fill-rule:nonzero;fill:rgb(0%,0%,0%);fill-opacity:1;" d="M 250.59375 120 L 250.59375 100 L 270.59375 100 L 270.59375 120 Z M 250.59375 120 "/>
<path style=" stroke:none;fill-rule:nonzero;fill:rgb(0%,0%,0%);fill-opacity:1;" d="M 250.59375 80 L 250.59375 60 L 270.59375 60 L 270.59375 80 Z M 250.59375 80 "/>
<path style=" stroke:none;fill-rule:nonzero;fill:rgb(0%,0%,0%);fill-opacity:1;" d="M 250.59375 40 L 250.59375 20 L 270.59375 20 L 270.59375 40 Z M 250.59375 40 "/>
<path style=" stroke:none;fill-rule:nonzero;fill:rgb(0%,0%,0%);fill-opacity:1;" d="M 286.59375 200 L 286.59375 180 L 306.59375 180 L 306.59375 200 Z M 286.59375 200 "/>
<path style=" stroke:none;fill-rule:nonzero;fill:rgb(0%,0%,0%);fill-opacity:1;" d="M 286.59375 160 L 286.59375 140 L 306.59375 140 L 306.59375 160 Z M 286.59375 160 "/>
<path style=" stroke:none;fill-rule:nonzero;fill:rgb(0%,0%,0%);fill-opacity:1;" d="M 286.59375 120 L 286.59375 100 L 306.59375 100 L 306.59375 120 Z M 286.59375 120 "/>
<path style=" stroke:none;fill-rule:nonzero;fill:rgb(0%,0%,0%);fill-opacity:1;" d="M 286.59375 80 L 286.59375 60 L 306.59375 60 L 306.59375 80 Z M 286.59375 80 "/>
<path style=" stroke:none;fill-rule:nonzero;fill:rgb(0%,0%,0%);fill-opacity:1;" d="M 286.59375 40 L 286.59375 20 L 306.59375 20 L 306.59375 40 Z M 286.59375 40 "/>
<path style=" stroke:none;fill-rule:nonzero;fill:rgb(0%,0%,0%);fill-opacity:1;" d="M 322.59375 200 L 322.59375 180 L 342.59375 180 L 342.59375 200 Z M 322.59375 200 "/>
<path style=" stroke:none;fill-rule:nonzero;fill:rgb(0%,0%,0%);fill-opacity:1;" d="M 322.59375 160 L 322.59375 140 L 342.59375 140 L 342.59375 160 Z M 322.59375 160 "/>
<path style=" stroke:none;fill-rule:nonzero;fill:rgb(0%,0%,0%);fill-opacity:1;" d="M 322.59375 120 L 322.59375 100 L 342.59375 100 L 342.59375 120 Z M 322.59375 120 "/>
<path style=" stroke:none;fill-rule:nonzero;fill:rgb(0%,0%,0%);fill-opacity:1;" d="M 322.59375 80 L 322.59375 60 L 342.59375 60 L 342.59375 80 Z M 322.59375 80 "/>
<path style=" stroke:none;fill-rule:nonzero;fill:rgb(0%,0%,0%);fill-opacity:1;" d="M 322.59375 40 L 322.59375 20 L 342.59375 20 L 342.59375 40 Z M 322.59375 40 "/>
<path style=" stroke:none;fill-rule:nonzero;fill:rgb(0%,0%,0%);fill-opacity:1;" d="M 358.59375 200 L 358.59375 180 L 378.59375 180 L 378.59375 200 Z M 358.59375 200 "/>
<path style=" stroke:none;fill-rule:nonzero;fill:rgb(0%,0%,0%);fill-opacity:1;" d="M 358.59375 160 L 358.59375 140 L 378.59375 140 L 378.59375 160 Z M 358.59375 160 "/>
<path style=" stroke:none;fill-rule:nonzero;fill:rgb(0%,0%,0%);fill-opacity:1;" d="M 358.59375 120 L 358.59375 100 L 378.59375 100 L 378.59375 120 Z M 358.59375 120 "/>
<path style=" stroke:none;fill-rule:nonzero;fill:rgb(0%,0%,0%);fill-opacity:1;" d="M 358.59375 80 L 358.59375 60 L 378.59375 60 L 378.59375 80 Z M 358.59375 80 "/>
<path style=" stroke:none;fill-rule:nonzero;fill:rgb(0%,0%,0%);fill-opacity:1;" d="M 358.59375 40 L 358.59375 20 L 378.59375 20 L 378.59375 40 Z M 358.59375 40 "/>
<path style=" stroke:none;fill-rule:nonzero;fill:rgb(0%,0%,0%);fill-opacity:1;" d="M 394.59375 200 L 394.59375 180 L 414.59375 180 L 414.59375 200 Z M 394.59375 200 "/>
<path style=" stroke:none;fill-rule:nonzero;fill:rgb(0%,0%,0%);fill-opacity:1;" d="M 394.59375 160 L 394.59375 140 L 414.59375 140 L 414.59375 160 Z M 394.59375 160 "/>
<path style=" stroke:none;fill-rule:nonzero;fill:rgb(0%,0%,0%);fill-opacity:1;" d="M 394.59375 120 L 394.59375 100 L 414.59375 100 L 414.59375 120 Z M 394.59375 120 "/>
<path style=" stroke:none;fill-rule:nonzero;fill:rgb(0%,0%,0%);fill-opacity:1;" d="M 394.59375 80 L 394.59375 60 L 414.59375 60 L 414.59375 80 Z M 394.59375 80 "/>
<path style=" stroke:none;fill-rule:nonzero;fill:rgb(0%,0%,0%);fill-opacity:1;" d="M 394.59375 40 L 394.59375 20 L 414.59375 20 L 414.59375 40 Z M 394.59375 40 "/>
<path style="fill:none;stroke-width:1;stroke-linecap:square;stroke-linejoin:miter;stroke:rgb(100%,0%,0%);stroke-opacity:1;stroke-miterlimit:3.25;" d="M 0 220 L 400 220 "/>
<path style="fill:none;stroke-width:1;stroke-linecap:square;stroke-linejoin:miter;stroke:rgb(100%,0%,0%);stroke-opacity:1;stroke-miterlimit:3.25;" d="M 0 200 L 400 200 "/>
<path style="fill:none;stroke-width:1;stroke-linecap:square;stroke-linejoin:miter;stroke:rgb(100%,0%,0%);stroke-opacity:1;stroke-miterlimit:3.25;" d="M 0 180 L 400 180 "/>
<path style="fill:none;stroke-width:1;stroke-linecap:square;stroke-linejoin:miter;stroke:rgb(100%,0%,0%);stroke-opacity:1;stroke-miterlimit:3.25;" d="M 0 160 L 400 160 "/>
<path style="fill:none;stroke-width:1;stroke-linecap:square;stroke-linejoin:miter;stroke:rgb(100%,0%,0%);stroke-opacity:1;stroke-miterlimit:3.25;" d="M 0 140 L 400 140 "/>
<path style="fill:none;stroke-width:1;stroke-linecap:square;stroke-linejoin:miter;stroke:rgb(100%,0%,0%);stroke-opacity:1;stroke-miterlimit:3.25;" d="M 0 120 L 400 120 "/>
<path style="fill:none;stroke-width:1;stroke-linecap:square;stroke-linejoin:miter;stroke:rgb(100%,0%,0%);stroke-opacity:1;stroke-miterlimit:3.25;" d="M 0 100 L 400 100 "/>
<path style="fill:none;stroke-width:1;stroke-linecap:square;stroke-linejoin:miter;stroke:rgb(100%,0%,0%);stroke-opacity:1;stroke-miterlimit:3.25;" d="M 0 80 L 400 80 "/>
<path style="fill:none;stroke-width:1;stroke-linecap:square;stroke-linejoin:miter;stroke:rgb(100%,0%,0%);stroke-opacity:1;stroke-miterlimit:3.25;" d="M 0 60 L 400 60 "/>
<path style="fill:none;stroke-width:1;stroke-linecap:square;stroke-linejoin:miter;stroke:rgb(100%,0%,0%);stroke-opacity:1;stroke-miterlimit:3.25;" d="M 0 40 L 400 40 "/>
<path style="fill:none;stroke-width:1;stroke-linecap:square;stroke-linejoin:miter;stroke:rgb(100%,0%,0%);stroke-opacity:1;stroke-miterlimit:3.25;" d="M 0 20 L 400 20 "/>
</g>
</svg>
