<?xml version="1.0" encoding="UTF-8"?>
<svg xmlns="http://www.w3.org/2000/svg" xmlns:xlink="http://www.w3.org/1999/xlink" width="400pt" height="220pt" viewBox="0 0 400 220" version="1.1">
<g id="surface666">
<rect x="0" y="0" width="400" height="220" style="fill:rgb(0%,40%,100%);fill-opacity:0.2;stroke:none;"/>
<path style=" stroke:none;fill-rule:nonzero;fill:rgb(0%,0%,0%);fill-opacity:1;" d="M 16.886719 220 L 16.886719 200 L 36.886719 200 L 36.886719 220 Z M 16.886719 220 "/>
<path style=" stroke:none;fill-rule:nonzero;fill:rgb(0%,0%,0%);fill-opacity:1;" d="M 16.886719 180 L 16.886719 160 L 36.886719 160 L 36.886719 180 Z M 16.886719 180 "/>
<path style=" stroke:none;fill-rule:nonzero;fill:rgb(0%,0%,0%);fill-opacity:1;" d="M 16.886719 140 L 16.886719 120 L 36.886719 120 L 36.886719 140 Z M 16.886719 140 "/>
<path style=" stroke:none;fill-rule:nonzero;fill:rgb(0%,0%,0%);fill-opacity:1;" d="M 16.886719 100 L 16.886719 80 L 36.886719 80 L 36.886719 100 Z M 16.886719 100 "/>
<path style=" stroke:none;fill-rule:nonzero;fill:rgb(0%,0%,0%);fill-opacity:1;" d="M 16.886719 60 L 16.886719 40 L 36.886719 40 L 36.886719 60 Z M 16.886719 60 "/>
<path style=" stroke:none;fill-rule:nonzero;fill:rgb(0%,0%,0%);fill-opacity:1;" d="M 16.886719 20 L 16.886719 0 L 36.886719 0 L 36.886719 20 Z M 16.886719 20 "/>
<path style=" stroke:none;fill-rule:nonzero;fill:rgb(0%,0%,0%);fill-opacity:1;" d="M 52.886719 220 L 52.886719 200 L 72.886719 200 L 72.886719 220 Z M 52.886719 220 "/>
<path style=" stroke:none;fill-rule:nonzero;fill:rgb(0%,0%,0%);fill-opacity:1;" d="M 52.886719 180 L 52.886719 160 L 72.886719 160 L 72.886719 180 Z M 52.886719 180 "/>
<path style=" stroke:none;fill-rule:nonzero;fill:rgb(0%,0%,0%);fill-opacity:1;" d="M 52.886719 140 L 52.886719 120 L 72.886719 120 L 72.886719 140 Z M 52.886719 140 "/>
<path style=" stroke:none;fill-rule:nonzero;fill:rgb(0%,0%,0%);fill-opacity:1;" d="M 52.886719 100 L 52.886719 80 L 72.886719 80 L 72.886719 100 Z M 52.886719 100 "/>
<path style=" stroke:none;fill-rule:nonzero;fill:rgb(0%,0%,0%);fill-opacity:1;" d="M 52.886719 60 L 52.886719 40 L 72.886719 40 L 72.886719 60 Z M 52.886719 60 "/>
<path style=" stroke:none;fill-rule:nonzero;fill:rgb(0%,0%,0%);fill-opacity:1;" d="M 52.886719 20 L 52.886719 0 L 72.886719 0 L 72.886719 20 Z M 52.886719 20 "/>
<path style=" stroke:none;fill-rule:nonzero;fill:rgb(0%,0%,0%);fill-opacity:1;" d="M 88.886719 220 L 88.886719 200 L 108.886719 200 L 108.886719 220 Z M 88.886719 220 "/>
<path style=" stroke:none;fill-rule:nonzero;fill:rgb(0%,0%,0%);fill-opacity:1;" d="M 88.886719 180 L 88.886719 160 L 108.886719 160 L 108.886719 180 Z M 88.886719 180 "/>
<path style=" stroke:none;fill-rule:nonzero;fill:rgb(0%,0%,0%);fill-opacity:1;" d="M 88.886719 140 L 88.886719 120 L 108.886719 120 L 108.886719 140 Z M 88.886719 140 "/>
<path style=" stroke:none;fill-rule:nonzero;fill:rgb(0%,0%,0%);fill-opacity:1;" d="M 88.886719 100 L 88.886719 80 L 108.886719 80 L 108.886719 100 Z M 88.886719 100 "/>
<path style=" stroke:none;fill-rule:nonzero;fill:rgb(0%,0%,0%);fill-opacity:1;" d="M 88.886719 60 L 88.886719 40 L 108.886719 40 L 108.886719 60 Z M 88.886719 60 "/>
<path style=" stroke:none;fill-rule:nonzero;fill:rgb(0%,0%,0%);fill-opacity:1;" d="M 88.886719 20 L 88.886719 0 L 108.886719 0 L 108.886719 20 Z M 88.886719 20 "/>
<path style=" stroke:none;fill-rule:nonzero;fill:rgb(0%,0%,0%);fill-opacity:1;" d="M 124.886719 220 L 124.886719 200 L 144.886719 200 L 144.886719 220 Z M 124.886719 220 "/>
<path style=" stroke:none;fill-rule:nonzero;fill:rgb(0%,0%,0%);fill-opacity:1;" d="M 124.886719 180 L 124.886719 160 L 144.886719 160 L 144.886719 180 Z M 124.886719 180 "/>
<path style=" stroke:none;fill-rule:nonzero;fill:rgb(0%,0%,0%);fill-opacity:1;" d="M 124.886719 140 L 124.886719 120 L 144.886719 120 L 144.886719 140 Z M 124.886719 140 "/>
<path style=" stroke:none;fill-rule:nonzero;fill:rgb(0%,0%,0%);fill-opacity:1;" d="M 124.886719 100 L 124.886719 80 L 144.886719 80 L 144.886719 100 Z M 124.886719 100 "/>
<path style=" stroke:none;fill-rule:nonzero;fill:rgb(0%,0%,0%);fill-opacity:1;" d="M 124.886719 60 L 124.886719 40 L 144.886719 40 L 144.886719 60 Z M 124.886719 60 "/>
<path style=" stroke:none;fill-rule:nonzero;fill:rgb(0%,0%,0%);fill-opacity:1;" d="M 124.886719 20 L 124.886719 0 L 144.886719 0 L 144.886719 20 Z M 124.886719 20 "/>
<path style=" stroke:none;fill-rule:nonzero;fill:rgb(0%,0%,0%);fill-opacity:1;" d="M 160.886719 220 L 160.886719 200 L 180.886719 200 L 180.886719 220 Z M 160.886719 220 "/>
<path style=" stroke:none;fill-rule:nonzero;fill:rgb(0%,0%,0%);fill-opacity:1;" d="M 160.886719 180 L 160.886719 160 L 180.886719 160 L 180.886719 180 Z M 160.886719 180 "/>
<path style=" stroke:none;fill-rule:nonzero;fill:rgb(0%,0%,0%);fill-opacity:1;" d="M 160.886719 140 L 160.886719 120 L 180.886719 120 L 180.886719 140 Z M 160.886719 140 "/>
<path style=" stroke:none;fill-rule:nonzero;fill:rgb(0%,0%,0%);fill-opacity:1;" d="M 160.886719 100 L 160.886719 80 L 180.886719 80 L 180.886719 100 Z M 160.886719 100 "/>
<path style=" stroke:none;fill-rule:nonzero;fill:rgb(0%,0%,0%);fill-opacity:1;" d="M 160.886719 60 L 160.886719 40 L 180.886719 40 L 180.886719 60 Z M 160.886719 60 "/>
<path style=" stroke:none;fill-rule:nonzero;fill:rgb(0%,0%,0%);fill-opacity:1;" d="M 160.886719 20 L 160.886719 0 L 180.886719 0 L 180.886719 20 Z M 160.886719 20 "/>
<path style=" stroke:none;fill-rule:nonzero;fill:rgb(0%,0%,0%);fill-opacity:1;" d="M 196.886719 220 L 196.886719 200 L 216.886719 200 L 216.886719 220 Z M 196.886719 220 "/>
<path style=" stroke:none;fill-rule:nonzero;fill:rgb(0%,0%,0%);fill-opacity:1;" d="M 196.886719 180 L 196.886719 160 L 216.886719 160 L 216.886719 180 Z M 196.886719 180 "/>
<path style=" stroke:none;fill-rule:nonzero;fill:rgb(0%,0%,0%);fill-opacity:1;" d="M 196.886719 140 L 196.886719 120 L 216.886719 120 L 216.886719 140 Z M 196.886719 140 "/>
<path style=" stroke:none;fill-rule:nonzero;fill:rgb(0%,0%,0%);fill-opacity:1;" d="M 196.886719 100 L 196.886719 80 L 216.886719 80 L 216.886719 100 Z M 196.886719 100 "/>
<path style=" stroke:none;fill-rule:nonzero;fill:rgb(0%,0%,0%);fill-opacity:1;" d="M 196.886719 60 L 196.886719 40 L 216.886719 40 L 216.886719 60 Z M 196.886719 60 "/>
<path style=" stroke:none;fill-rule:nonzero;fill:rgb(0%,0%,0%);fill-opacity:1;" d="M 196.886719 20 L 196.886719 0 L 216.886719 0 L 216.886719 20 Z M 196.886719 20 "/>
<path style=" stroke:none;fill-rule:nonzero;fill:rgb(0%,0%,0%);fill-opacity:1;" d="M 232.886719 220 L 232.886719 200 L 252.886719 200 L 252.886719 220 Z M 232.886719 220 "/>
<path style=" stroke:none;fill-rule:nonzero;fill:rgb(0%,0%,0%);fill-opacity:1;" d="M 232.886719 180 L 232.886719 160 L 252.886719 160 L 252.886719 180 Z M 232.886719 180 "/>
<path style=" stroke:none;fill-rule:nonzero;fill:rgb(0%,0%,0%);fill-opacity:1;" d="M 232.886719 140 L 232.886719 120 L 252.886719 120 L 252.886719 140 Z M 232.886719 140 "/>
<path style=" stroke:none;fill-rule:nonzero;fill:rgb(0%,0%,0%);fill-opacity:1;" d="M 232.886719 100 L 232.886719 80 L 252.886719 80 L 252.886719 100 Z M 232.886719 100 "/>
<path style=" stroke:none;fill-rule:nonzero;fill:rgb(0%,0%,0%);fill-opacity:1;" d="M 232.886719 60 L 232.886719 40 L 252.886719 40 L 252.886719 60 Z M 232.886719 60 "/>
<path style=" stroke:none;fill-rule:nonzero;fill:rgb(0%,0%,0%);fill-opacity:1;" d="M 232.886719 20 L 232.886719 0 L 252.886719 0 L 252.886719 20 Z M 232.886719 20 "/>
<path style=" stroke:none;fill-rule:nonzero;fill:rgb(0%,0%,0%);fill-opacity:1;" d="M 268.886719 220 L 268.886719 200 L 288.886719 200 L 288.886719 220 Z M 268.886719 220 "/>
<path style=" stroke:none;fill-rule:nonzero;fill:rgb(0%,0%,0%);fill-opacity:1;" d="M 268.886719 180 L 268.886719 160 L 288.886719 160 L 288.886719 180 Z M 268.886719 180 "/>
<path style=" stroke:none;fill-rule:nonzero;fill:rgb(0%,0%,0%);fill-opacity:1;" d="M 268.886719 140 L 268.886719 120 L 288.886719 120 L 288.886719 140 Z M 268.886719 140 "/>
<path style=" stroke:none;fill-rule:nonzero;fill:rgb(0%,0%,0%);fill-opacity:1;" d="M 268.886719 100 L 268.886719 80 L 288.886719 80 L 288.886719 100 Z M 268.886719 100 "/>
<path style=" stroke:none;fill-rule:nonzero;fill:rgb(0%,0%,0%);fill-opacity:1;" d="M 268.886719 60 L 268.886719 40 L 288.886719 40 L 288.886719 60 Z M 268.886719 60 "/>
<path style=" stroke:none;fill-rule:nonzero;fill:rgb(0%,0%,0%);fill-opacity:1;" d="M 268.886719 20 L 268.886719 0 L 288.886719 0 L 288.886719 20 Z M 268.886719 20 "/>
<path style=" stroke:none;fill-rule:nonzero;fill:rgb(0%,0%,0%);fill-opacity:1;" d="M 304.886719 220 L 304.886719 200 L 324.886719 200 L 324.886719 220 Z M 304.886719 220 "/>
<path style=" stroke:none;fill-rule:nonzero;fill:rgb(0%,0%,0%);fill-opacity:1;" d="M 304.886719 180 L 304.886719 160 L 324.886719 160 L 324.886719 180 Z M 304.886719 180 "/>
<path style=" stroke:none;fill-rule:nonzero;fill:rgb(0%,0%,0%);fill-opacity:1;" d="M 304.886719 140 L 304.886719 120 L 324.886719 120 L 324.886719 140 Z M 304.886719 140 "/>
<path style=" stroke:none;fill-rule:nonzero;fill:rgb(0%,0%,0%);fill-opacity:1;" d="M 304.886719 100 L 304.886719 80 L 324.886719 80 L 324.886719 100 Z M 304.886719 100 "/>
<path style=" stroke:none;fill-rule:nonzero;fill:rgb(0%,0%,0%);fill-opacity:1;" d="M 304.886719 60 L 304.886719 40 L 324.886719 40 L 324.886719 60 Z M 304.886719 60 "/>
<path style=" stroke:none;fill-rule:nonzero;fill:rgb(0%,0%,0%);fill-opacity:1;" d="M 304.886719 20 L 304.886719 0 L 324.886719 0 L 324.886719 20 Z M 304.886719 20 "/>
<path style=" stroke:none;fill-rule:nonzero;fill:rgb(0%,0%,0%);fill-opacity:1;" d="M 340.886719 220 L 340.886719 200 L 360.886719 200 L 360.886719 220 Z M 340.886719 220 "/>
<path style=" stroke:none;fill-rule:nonzero;fill:rgb(0%,0%,0%);fill-opacity:1;" d="M 340.886719 180 L 340.886719 160 L 360.886719 160 L 360.886719 180 Z M 340.886719 180 "/>
<path style=" stroke:none;fill-rule:nonzero;fill:rgb(0%,0%,0%);fill-opacity:1;" d="M 340.886719 140 L 340.886719 120 L 360.886719 120 L 360.886719 140 Z M 340.886719 140 "/>
<path style=" stroke:none;fill-rule:nonzero;fill:rgb(0%,0%,0%);fill-opacity:1;" d="M 340.886719 100 L 340.886719 80 L 360.886719 80 L 360.886719 100 Z M 340.886719 100 "/>
<path style=" stroke:none;fill-rule:nonzero;fill:rgb(0%,0%,0%);fill-opacity:1;" d="M 340.886719 60 L 340.886719 40 L 360.886719 40 L 360.886719 60 Z M 340.886719 60 "/>
<path style=" stroke:none;fill-rule:nonzero;fill:rgb(0%,0%,0%);fill-opacity:1;" d="M 340.886719 20 L 340.886719 0 L 360.886719 0 L 360.886719 20 Z M 340.886719 20 "/>
<path style=" stroke:none;fill-rule:nonzero;fill:rgb(0%,0%,0%);fill-opacity:1;" d="M 376.886719 220 L 376.886719 200 L 396.886719 200 L 396.886719 220 Z M 376.886719 220 "/>
<path style=" stroke:none;fill-rule:nonzero;fill:rgb(0%,0%,0%);fill-opacity:1;" d="M 376.886719 180 L 376.886719 160 L 396.886719 160 L 396.886719 180 Z M 376.886719 180 "/>
<path style=" stroke:none;fill-rule:nonzero;fill:rgb(0%,0%,0%);fill-opacity:1;" d="M 376.886719 140 L 376.886719 120 L 396.886719 120 L 396.886719 140 Z M 376.886719 140 "/>
<path style=" stroke:none;fill-rule:nonzero;fill:rgb(0%,0%,0%);fill-opacity:1;" d="M 376.886719 100 L 376.886719 80 L 396.886719 80 L 396.886719 100 Z M 376.886719 100 "/>
<path style=" stroke:none;fill-rule:nonzero;fill:rgb(0%,0%,0%);fill-opacity:1;" d="M 376.886719 60 L 376.886719 40 L 396.886719 40 L 396.886719 60 Z M 376.886719 60 "/>
<path style=" stroke:none;fill-rule:nonzero;fill:rgb(0%,0%,0%);fill-opacity:1;" d="M 376.886719 20 L 376.886719 0 L 396.886719 0 L 396.886719 20 Z M 376.886719 20 "/>
<path style=" stroke:none;fill-rule:nonzero;fill:rgb(0%,0%,0%);fill-opacity:1;" d="M -9.285156 200 L -9.285156 180 L 10.714844 180 L 10.714844 200 Z M -9.285156 200 "/>
<path style=" stroke:none;fill-rule:nonzero;fill:rgb(0%,0%,0%);fill-opacity:1;" d="M -9.285156 160 L -9.285156 140 L 10.714844 140 L 10.714844 160 Z M -9.285156 160 "/>
<path style=" stroke:none;fill-rule:nonzero;fill:rgb(0%,0%,0%);fill-opacity:1;" d="M -9.285156 120 L -9.285156 100 L 10.714844 100 L 10.714844 120 Z M -9.285156 120 "/>
<path style=" stroke:none;fill-rule:nonzero;fill:rgb(0%,0%,0%);fill-opacity:1;" d="M -9.285156 80 L -9.285156 60 L 10.714844 60 L 10.714844 80 Z M -9.285156 80 "/>
<path style=" stroke:none;fill-rule:nonzero;fill:rgb(0%,0%,0%);fill-opacity:1;" d="M -9.285156 40 L -9.285156 20 L 10.714844 20 L 10.714844 40 Z M -9.285156 40 "/>
<path style=" stroke:none;fill-rule:nonzero;fill:rgb(0%,0%,0%);fill-opacity:1;" d="M 26.714844 200 L 26.714844 180 L 46.714844 180 L 46.714844 200 Z M 26.714844 200 "/>
<path style=" stroke:none;fill-rule:nonzero;fill:rgb(0%,0%,0%);fill-opacity:1;" d="M 26.714844 160 L 26.714844 140 L 46.714844 140 L 46.714844 160 Z M 26.714844 160 "/>
<path style=" stroke:none;fill-rule:nonzero;fill:rgb(0%,0%,0%);fill-opacity:1;" d="M 26.714844 120 L 26.714844 100 L 46.714844 100 L 46.714844 120 Z M 26.714844 120 "/>
<path style=" stroke:none;fill-rule:nonzero;fill:rgb(0%,0%,0%);fill-opacity:1;" d="M 26.714844 80 L 26.714844 60 L 46.714844 60 L 46.714844 80 Z M 26.714844 80 "/>
<path style=" stroke:none;fill-rule:nonzero;fill:rgb(0%,0%,0%);fill-opacity:1;" d="M 26.714844 40 L 26.714844 20 L 46.714844 20 L 46.714844 40 Z M 26.714844 40 "/>
<path style=" stroke:none;fill-rule:nonzero;fill:rgb(0%,0%,0%);fill-opacity:1;" d="M 62.714844 200 L 62.714844 180 L 82.714844 180 L 82.714844 200 Z M 62.714844 200 "/>
<path style=" stroke:none;fill-rule:nonzero;fill:rgb(0%,0%,0%);fill-opacity:1;" d="M 62.714844 160 L 62.714844 140 L 82.714844 140 L 82.714844 160 Z M 62.714844 160 "/>
<path style=" stroke:none;fill-rule:nonzero;fill:rgb(0%,0%,0%);fill-opacity:1;" d="M 62.714844 120 L 62.714844 100 L 82.714844 100 L 82.714844 120 Z M 62.714844 120 "/>
<path style=" stroke:none;fill-rule:nonzero;fill:rgb(0%,0%,0%);fill-opacity:1;" d="M 62.714844 80 L 62.714844 60 L 82.714844 60 L 82.714844 80 Z M 62.714844 80 "/>
<path style=" stroke:none;fill-rule:nonzero;fill:rgb(0%,0%,0%);fill-opacity:1;" d="M 62.714844 40 L 62.714844 20 L 82.714844 20 L 82.714844 40 Z M 62.714844 40 "/>
<path style=" stroke:none;fill-rule:nonzero;fill:rgb(0%,0%,0%);fill-opacity:1;" d="M 98.714844 200 L 98.714844 180 L 118.714844 180 L 118.714844 200 Z M 98.714844 200 "/>
<path style=" stroke:none;fill-rule:nonzero;fill:rgb(0%,0%,0%);fill-opacity:1;" d="M 98.714844 160 L 98.714844 140 L 118.714844 140 L 118.714844 160 Z M 98.714844 160 "/>
<path style=" stroke:none;fill-rule:nonzero;fill:rgb(0%,0%,0%);fill-opacity:1;" d="M 98.714844 120 L 98.714844 100 L 118.714844 100 L 118.714844 120 Z M 98.714844 120 "/>
<path style=" stroke:none;fill-rule:nonzero;fill:rgb(0%,0%,0%);fill-opacity:1;" d="M 98.714844 80 L 98.714844 60 L 118.714844 60 L 118.714844 80 Z M 98.714844 80 "/>
<path style=" stroke:none;fill-rule:nonzero;fill:rgb(0%,0%,0%);fill-opacity:1;" d="M 98.714844 40 L 98.714844 20 L 118.714844 20 L 118.714844 40 Z M 98.714844 40 "/>
<path style=" stroke:none;fill-rule:nonzero;fill:rgb(0%,0%,0%);fill-opacity:1;" d="M 134.714844 200 L 134.714844 180 L 154.714844 180 L 154.714844 200 Z M 134.714844 200 "/>
<path style=" stroke:none;fill-rule:nonzero;fill:rgb(0%,0%,0%);fill-opacity:1;" d="M 134.714844 160 L 134.714844 140 L 154.714844 140 L 154.714844 160 Z M 134.714844 160 "/>
<path style=" stroke:none;fill-rule:nonzero;fill:rgb(0%,0%,0%);fill-opacity:1;" d="M 134.714844 120 L 134.714844 100 L 154.714844 100 L 154.714844 120 Z M 134.714844 120 "/>
<path style=" stroke:none;fill-rule:nonzero;fill:rgb(0%,0%,0%);fill-opacity:1;" d="M 134.714844 80 L 134.714844 60 L 154.714844 60 L 154.714844 80 Z M 134.714844 80 "/>
<path style=" stroke:none;fill-rule:nonzero;fill:rgb(0%,0%,0%);fill-opacity:1;" d="M 134.714844 40 L 134.714844 20 L 154.714844 20 L 154.714844 40 Z M 134.714844 40 "/>
<path style=" stroke:none;fill-rule:nonzero;fill:rgb(0%,0%,0%);fill-opacity:1;" d="M 170.714844 200 L 170.714844 180 L 190.714844 180 L 190.714844 200 Z M 170.714844 200 "/>
<path style=" stroke:none;fill-rule:nonzero;fill:rgb(0%,0%,0%);fill-opacity:1;" d="M 170.714844 160 L 170.714844 140 L 190.714844 140 L 190.714844 160 Z M 170.714844 160 "/>
<path style=" stroke:none;fill-rule:nonzero;fill:rgb(0%,0%,0%);fill-opacity:1;" d="M 170.714844 120 L 170.714844 100 L 190.714844 100 L 190.714844 120 Z M 170.714844 120 "/>
<path style=" stroke:none;fill-rule:nonzero;fill:rgb(0%,0%,0%);fill-opacity:1;" d="M 170.714844 80 L 170.714844 60 L 190.714844 60 L 190.714844 80 Z M 170.714844 80 "/>
<path style=" stroke:none;fill-rule:nonzero;fill:rgb(0%,0%,0%);fill-opacity:1;" d="M 170.714844 40 L 170.714844 20 L 190.714844 20 L 190.714844 40 Z M 170.714844 40 "/>
<path style=" stroke:none;fill-rule:nonzero;fill:rgb(0%,0%,0%);fill-opacity:1;" d="M 206.714844 200 L 206.714844 180 L 226.714844 180 L 226.714844 200 Z M 206.714844 200 "/>
<path style=" stroke:none;fill-rule:nonzero;fill:rgb(0%,0%,0%);fill-opacity:1;" d="M 206.714844 160 L 206.714844 140 L 226.714844 140 L 226.714844 160 Z M 206.714844 160 "/>
<path style=" stroke:none;fill-rule:nonzero;fill:rgb(0%,0%,0%);fill-opacity:1;" d="M 206.714844 120 L 206.714844 100 L 226.714844 100 L 226.714844 120 Z M 206.714844 120 "/>
<path style=" stroke:none;fill-rule:nonzero;fill:rgb(0%,0%,0%);fill-opacity:1;" d="M 206.714844 80 L 206.714844 60 L 226.714844 60 L 226.714844 80 Z M 206.714844 80 "/>
<path style=" stroke:none;fill-rule:nonzero;fill:rgb(0%,0%,0%);fill-opacity:1;" d="M 206.714844 40 L 206.714844 20 L 226.714844 20 L 226.714844 40 Z M 206.714844 40 "/>
<path style=" stroke:none;fill-rule:nonzero;fill:rgb(0%,0%,0%);fill-opacity:1;" d="M 242.714844 200 L 242.714844 180 L 262.714844 180 L 262.714844 200 Z M 242.714844 200 "/>
<path style=" stroke:none;fill-rule:nonzero;fill:rgb(0%,0%,0%);fill-opacity:1;" d="M 242.714844 160 L 242.714844 140 L 262.714844 140 L 262.714844 160 Z M 242.714844 160 "/>
<path style=" stroke:none;fill-rule:nonzero;fill:rgb(0%,0%,0%);fill-opacity:1;" d="M 242.714844 120 L 242.714844 100 L 262.714844 100 L 262.714844 120 Z M 242.714844 120 "/>
<path style=" stroke:none;fill-rule:nonzero;fill:rgb(0%,0%,0%);fill-opacity:1;" d="M 242.714844 80 L 242.714844 60 L 262.714844 60 L 262.714844 80 Z M 242.714844 80 "/>
<path style=" stroke:none;fill-rule:nonzero;fill:rgb(0%,0%,0%);fill-opacity:1;" d="M 242.714844 40 L 242.714844 20 L 262.714844 20 L 262.714844 40 Z M 242.714844 40 "/>
<path style=" stroke:none;fill-rule:nonzero;fill:rgb(0%,0%,0%);fill-opacity:1;" d="M 278.714844 200 L 278.714844 180 L 298.714844 180 L 298.714844 200 Z M 278.714844 200 "/>
<path style=" stroke:none;fill-rule:nonzero;fill:rgb(0%,0%,0%);fill-opacity:1;" d="M 278.714844 160 L 278.714844 140 L 298.714844 140 L 298.714844 160 Z M 278.714844 160 "/>
<path style=" stroke:none;fill-rule:nonzero;fill:rgb(0%,0%,0%);fill-opacity:1;" d="M 278.714844 120 L 278.714844 100 L 298.714844 100 L 298.714844 120 Z M 278.714844 120 "/>
<path style=" stroke:none;fill-rule:nonzero;fill:rgb(0%,0%,0%);fill-opacity:1;" d="M 278.714844 80 L 278.714844 60 L 298.714844 60 L 298.714844 80 Z M 278.714844 80 "/>
<path style=" stroke:none;fill-rule:nonzero;fill:rgb(0%,0%,0%);fill-opacity:1;" d="M 278.714844 40 L 278.714844 20 L 298.714844 20 L 298.714844 40 Z M 278.714844 40 "/>
<path style=" stroke:none;fill-rule:nonzero;fill:rgb(0%,0%,0%);fill-opacity:1;" d="M 314.714844 200 L 314.714844 180 L 334.714844 180 L 334.714844 200 Z M 314.714844 200 "/>
<path style=" stroke:none;fill-rule:nonzero;fill:rgb(0%,0%,0%);fill-opacity:1;" d="M 314.714844 160 L 314.714844 140 L 334.714844 140 L 334.714844 160 Z M 314.714844 160 "/>
<path style=" stroke:none;fill-rule:nonzero;fill:rgb(0%,0%,0%);fill-opacity:1;" d="M 314.714844 120 L 314.714844 100 L 334.714844 100 L 334.714844 120 Z M 314.714844 120 "/>
<path style=" stroke:none;fill-rule:nonzero;fill:rgb(0%,0%,0%);fill-opacity:1;" d="M 314.714844 80 L 314.714844 60 L 334.714844 60 L 334.714844 80 Z M 314.714844 80 "/>
<path style=" stroke:none;fill-rule:nonzero;fill:rgb(0%,0%,0%);fill-opacity:1;" d="M 314.714844 40 L 314.714844 20 L 334.714844 20 L 334.714844 40 Z M 314.714844 40 "/>
<path style=" stroke:none;fill-rule:nonzero;fill:rgb(0%,0%,0%);fill-opacity:1;" d="M 350.714844 200 L 350.714844 180 L 370.714844 180 L 370.714844 200 Z M 350.714844 200 "/>
<path style=" stroke:none;fill-rule:nonzero;fill:rgb(0%,0%,0%);fill-opacity:1;" d="M 350.714844 160 L 350.714844 140 L 370.714844 140 L 370.714844 160 Z M 350.714844 160 "/>
<path style=" stroke:none;fill-rule:nonzero;fill:rgb(0%,0%,0%);fill-opacity:1;" d="M 350.714844 120 L 350.714844 100 L 370.714844 100 L 370.714844 120 Z M 350.714844 120 "/>
<path style=" stroke:none;fill-rule:nonzero;fill:rgb(0%,0%,0%);fill-opacity:1;" d="M 350.714844 80 L 350.714844 60 L 370.714844 60 L 370.714844 80 Z M 350.714844 80 "/>
<path style=" stroke:none;fill-rule:nonzero;fill:rgb(0%,0%,0%);fill-opacity:1;" d="M 350.714844 40 L 350.714844 20 L 370.714844 20 L 370.714844 40 Z M 350.714844 40 "/>
<path style=" stroke:none;fill-rule:nonzero;fill:rgb(0%,0%,0%);fill-opacity:1;" d="M 386.714844 200 L 386.714844 180 L 406.714844 180 L 406.714844 200 Z M 386.714844 200 "/>
<path style=" stroke:none;fill-rule:nonzero;fill:rgb(0%,0%,0%);fill-opacity:1;" d="M 386.714844 160 L 386.714844 140 L 406.714844 140 L 406.714844 160 Z M 386.714844 160 "/>
<path style=" stroke:none;fill-rule:nonzero;fill:rgb(0%,0%,0%);fill-opacity:1;" d="M 386.714844 120 L 386.714844 100 L 406.714844 100 L 406.714844 120 Z M 386.714844 120 "/>
<path style=" stroke:none;fill-rule:nonzero;fill:rgb(0%,0%,0%);fill-opacity:1;" d="M 386.714844 80 L 386.714844 60 L 406.714844 60 L 406.714844 80 Z M 386.714844 80 "/>
<path style=" stroke:none;fill-rule:nonzero;fill:rgb(0%,0%,0%);fill-opacity:1;" d="M 386.714844 40 L 386.714844 20 L 406.714844 20 L 406.714844 40 Z M 386.714844 40 "/>
<path style="fill:none;stroke-width:1;stroke-linecap:square;stroke-linejoin:miter;stroke:rgb(100%,0%,0%);stroke-opacity:1;stroke-miterlimit:3.25;" d="M 0 220 L 400 220 "/>
<path style="fill:none;stroke-width:1;stroke-linecap:square;stroke-linejoin:miter;stroke:rgb(100%,0%,0%);stroke-opacity:1;stroke-miterlimit:3.25;" d="M 0 200 L 400 200 "/>
<path style="fill:none;stroke-width:1;stroke-linecap:square;stroke-linejoin:miter;stroke:rgb(100%,0%,0%);stroke-opacity:1;stroke-miterlimit:3.25;" d="M 0 180 L 400 180 "/>
<path style="fill:none;stroke-width:1;stroke-linecap:square;stroke-linejoin:miter;stroke:rgb(100%,0%,0%);stroke-opacity:1;stroke-miterlimit:3.25;" d="M 0 160 L 400 160 "/>
<path style="fill:none;stroke-width:1;stroke-linecap:square;stroke-linejoin:miter;stroke:rgb(100%,0%,0%);stroke-opacity:1;stroke-miterlimit:3.25;" d="M 0 140 L 400 140 "/>
<path style="fill:none;stroke-width:1;stroke-linecap:square;stroke-linejoin:miter;stroke:rgb(100%,0%,0%);stroke-opacity:1;stroke-miterlimit:3.25;" d="M 0 120 L 400 120 "/>
<path style="fill:none;stroke-width:1;stroke-linecap:square;stroke-linejoin:miter;stroke:rgb(100%,0%,0%);stroke-opacity:1;stroke-miterlimit:3.25;" d="M 0 100 L 400 100 "/>
<path style="fill:none;stroke-width:1;stroke-linecap:square;stroke-linejoin:miter;stroke:rgb(100%,0%,0%);stroke-opacity:1;stroke-miterlimit:3.25;" d="M 0 80 L 400 80 "/>
<path style="fill:none;stroke-width:1;stroke-linecap:square;stroke-linejoin:miter;stroke:rgb(100%,0%,0%);stroke-opacity:1;stroke-miterlimit:3.25;" d="M 0 60 L 400 60 "/>
<path style="fill:none;stroke-width:1;stroke-linecap:square;stroke-linejoin:miter;stroke:rgb(100%,0%,0%);stroke-opacity:1;stroke-miterlimit:3.25;" d="M 0 40 L 400 40 "/>
<path style="fill:none;stroke-width:1;stroke-linecap:square;stroke-linejoin:miter;stroke:rgb(100%,0%,0%);stroke-opacity:1;stroke-miterlimit:3.25;" d="M 0 20 L 400 20 "/>
</g>
</svg>
