<?xml version="1.0" encoding="UTF-8"?>
<svg xmlns="http://www.w3.org/2000/svg" xmlns:xlink="http://www.w3.org/1999/xlink" width="400pt" height="220pt" viewBox="0 0 400 220" version="1.1">
<g id="surface766">
<rect x="0" y="0" width="400" height="220" style="fill:rgb(0%,40%,100%);fill-opacity:0.2;stroke:none;"/>
<path style=" stroke:none;fill-rule:nonzero;fill:rgb(0%,0%,0%);fill-opacity:1;" d="M -4.972656 220 L -4.972656 200 L 15.027344 200 L 15.027344 220 Z M -4.972656 220 "/>
<path style=" stroke:none;fill-rule:nonzero;fill:rgb(0%,0%,0%);fill-opacity:1;" d="M -4.972656 180 L -4.972656 160 L 15.027344 160 L 15.027344 180 Z M -4.972656 180 "/>
<path style=" stroke:none;fill-rule:nonzero;fill:rgb(0%,0%,0%);fill-opacity:1;" d="M -4.972656 140 L -4.972656 120 L 15.027344 120 L 15.027344 140 Z M -4.972656 140 "/>
<path style=" stroke:none;fill-rule:nonzero;fill:rgb(0%,0%,0%);fill-opacity:1;" d="M -4.972656 100 L -4.972656 80 L 15.027344 80 L 15.027344 100 Z M -4.972656 100 "/>
<path style=" stroke:none;fill-rule:nonzero;fill:rgb(0%,0%,0%);fill-opacity:1;" d="M -4.972656 60 L -4.972656 40 L 15.027344 40 L 15.027344 60 Z M -4.972656 60 "/>
<path style=" stroke:none;fill-rule:nonzero;fill:rgb(0%,0%,0%);fill-opacity:1;" d="M -4.972656 20 L -4.972656 0 L 15.027344 0 L 15.027344 20 Z M -4.972656 20 "/>
<path style=" stroke:none;fill-rule:nonzero;fill:rgb(0%,0%,0%);fill-opacity:1;" d="M 31.027344 220 L 31.027344 200 L 51.027344 200 L 51.027344 220 Z M 31.027344 220 "/>
<path style=" stroke:none;fill-rule:nonzero;fill:rgb(0%,0%,0%);fill-opacity:1;" d="M 31.027344 180 L 31.027344 160 L 51.027344 160 L 51.027344 180 Z M 31.027344 180 "/>
<path style=" stroke:none;fill-rule:nonzero;fill:rgb(0%,0%,0%);fill-opacity:1;" d="M 31.027344 140 L 31.027344 120 L 51.027344 120 L 51.027344 140 Z M 31.027344 140 "/>
<path style=" stroke:none;fill-rule:nonzero;fill:rgb(0%,0%,0%);fill-opacity:1;" d="M 31.027344 100 L 31.027344 80 L 51.027344 80 L 51.027344 100 Z M 31.027344 100 "/>
<path style=" stroke:none;fill-rule:nonzero;fill:rgb(0%,0%,0%);fill-opacity:1;" d="M 31.027344 60 L 31.027344 40 L 51.027344 40 L 51.027344 60 Z M 31.027344 60 "/>
<path style=" stroke:none;fill-rule:nonzero;fill:rgb(0%,0%,0%);fill-opacity:1;" d="M 31.027344 20 L 31.027344 0 L 51.027344 0 L 51.027344 20 Z M 31.027344 20 "/>
<path style=" stroke:none;fill-rule:nonzero;fill:rgb(0%,0%,0%);fill-opacity:1;" d="M 67.027344 220 L 67.027344 200 L 87.027344 200 L 87.027344 220 Z M 67.027344 220 "/>
<path style=" stroke:none;fill-rule:nonzero;fill:rgb(0%,0%,0%);fill-opacity:1;" d="M 67.027344 180 L 67.027344 160 L 87.027344 160 L 87.027344 180 Z M 67.027344 180 "/>
<path style=" stroke:none;fill-rule:nonzero;fill:rgb(0%,0%,0%);fill-opacity:1;" d="M 67.027344 140 L 67.027344 120 L 87.027344 120 L 87.027344 140 Z M 67.027344 140 "/>
<path style=" stroke:none;fill-rule:nonzero;fill:rgb(0%,0%,0%);fill-opacity:1;" d="M 67.027344 100 L 67.027344 80 L 87.027344 80 L 87.027344 100 Z M 67.027344 100 "/>
<path style=" stroke:none;fill-rule:nonzero;fill:rgb(0%,0%,0%);fill-opacity:1;" d="M 67.027344 60 L 67.027344 40 L 87.027344 40 L 87.027344 60 Z M 67.027344 60 "/>
<path style=" stroke:none;fill-rule:nonzero;fill:rgb(0%,0%,0%);fill-opacity:1;" d="M 67.027344 20 L 67.027344 0 L 87.027344 0 L 87.027344 20 Z M 67.027344 20 "/>
<path style=" stroke:none;fill-rule:nonzero;fill:rgb(0%,0%,0%);fill-opacity:1;" d="M 103.027344 220 L 103.027344 200 L 123.027344 200 L 123.027344 220 Z M 103.027344 220 "/>
<path style=" stroke:none;fill-rule:nonzero;fill:rgb(0%,0%,0%);fill-opacity:1;" d="M 103.027344 180 L 103.027344 160 L 123.027344 160 L 123.027344 180 Z M 103.027344 180 "/>
<path style=" stroke:none;fill-rule:nonzero;fill:rgb(0%,0%,0%);fill-opacity:1;" d="M 103.027344 140 L 103.027344 120 L 123.027344 120 L 123.027344 140 Z M 103.027344 140 "/>
<path style=" stroke:none;fill-rule:nonzero;fill:rgb(0%,0%,0%);fill-opacity:1;" d="M 103.027344 100 L 103.027344 80 L 123.027344 80 L 123.027344 100 Z M 103.027344 100 "/>
<path style=" stroke:none;fill-rule:nonzero;fill:rgb(0%,0%,0%);fill-opacity:1;" d="M 103.027344 60 L 103.027344 40 L 123.027344 40 L 123.027344 60 Z M 103.027344 60 "/>
<path style=" stroke:none;fill-rule:nonzero;fill:rgb(0%,0%,0%);fill-opacity:1;" d="M 103.027344 20 L 103.027344 0 L 123.027344 0 L 123.027344 20 Z M 103.027344 20 "/>
<path style=" stroke:none;fill-rule:nonzero;fill:rgb(0%,0%,0%);fill-opacity:1;" d="M 139.027344 220 L 139.027344 200 L 159.027344 200 L 159.027344 220 Z M 139.027344 220 "/>
<path style=" stroke:none;fill-rule:nonzero;fill:rgb(0%,0%,0%);fill-opacity:1;" d="M 139.027344 180 L 139.027344 160 L 159.027344 160 L 159.027344 180 Z M 139.027344 180 "/>
<path style=" stroke:none;fill-rule:nonzero;fill:rgb(0%,0%,0%);fill-opacity:1;" d="M 139.027344 140 L 139.027344 120 L 159.027344 120 L 159.027344 140 Z M 139.027344 140 "/>
<path style=" stroke:none;fill-rule:nonzero;fill:rgb(0%,0%,0%);fill-opacity:1;" d="M 139.027344 100 L 139.027344 80 L 159.027344 80 L 159.027344 100 Z M 139.027344 100 "/>
<path style=" stroke:none;fill-rule:nonzero;fill:rgb(0%,0%,0%);fill-opacity:1;" d="M 139.027344 60 L 139.027344 40 L 159.027344 40 L 159.027344 60 Z M 139.027344 60 "/>
<path style=" stroke:none;fill-rule:nonzero;fill:rgb(0%,0%,0%);fill-opacity:1;" d="M 139.027344 20 L 139.027344 0 L 159.027344 0 L 159.027344 20 Z M 139.027344 20 "/>
<path style=" stroke:none;fill-rule:nonzero;fill:rgb(0%,0%,0%);fill-opacity:1;" d="M 175.027344 220 L 175.027344 200 L 195.027344 200 L 195.027344 220 Z M 175.027344 220 "/>
<path style=" stroke:none;fill-rule:nonzero;fill:rgb(0%,0%,0%);fill-opacity:1;" d="M 175.027344 180 L 175.027344 160 L 195.027344 160 L 195.027344 180 Z M 175.027344 180 "/>
<path style=" stroke:none;fill-rule:nonzero;fill:rgb(0%,0%,0%);fill-opacity:1;" d="M 175.027344 140 L 175.027344 120 L 195.027344 120 L 195.027344 140 Z M 175.027344 140 "/>
<path style=" stroke:none;fill-rule:nonzero;fill:rgb(0%,0%,0%);fill-opacity:1;" d="M 175.027344 100 L 175.027344 80 L 195.027344 80 L 195.027344 100 Z M 175.027344 100 "/>
<path style=" stroke:none;fill-rule:nonzero;fill:rgb(0%,0%,0%);fill-opacity:1;" d="M 175.027344 60 L 175.027344 40 L 195.027344 40 L 195.027344 60 Z M 175.027344 60 "/>
<path style=" stroke:none;fill-rule:nonzero;fill:rgb(0%,0%,0%);fill-opacity:1;" d="M 175.027344 20 L 175.027344 0 L 195.027344 0 L 195.027344 20 Z M 175.027344 20 "/>
<path style=" stroke:none;fill-rule:nonzero;fill:rgb(0%,0%,0%);fill-opacity:1;" d="M 211.027344 220 L 211.027344 200 L 231.027344 200 L 231.027344 220 Z M 211.027344 220 "/>
<path style=" stroke:none;fill-rule:nonzero;fill:rgb(0%,0%,0%);fill-opacity:1;" d="M 211.027344 180 L 211.027344 160 L 231.027344 160 L 231.027344 180 Z M 211.027344 180 "/>
<path style=" stroke:none;fill-rule:nonzero;fill:rgb(0%,0%,0%);fill-opacity:1;" d="M 211.027344 140 L 211.027344 120 L 231.027344 120 L 231.027344 140 Z M 211.027344 140 "/>
<path style=" stroke:none;fill-rule:nonzero;fill:rgb(0%,0%,0%);fill-opacity:1;" d="M 211.027344 100 L 211.027344 80 L 231.027344 80 L 231.027344 100 Z M 211.027344 100 "/>
<path style=" stroke:none;fill-rule:nonzero;fill:rgb(0%,0%,0%);fill-opacity:1;" d="M 211.027344 60 L 211.027344 40 L 231.027344 40 L 231.027344 60 Z M 211.027344 60 "/>
<path style=" stroke:none;fill-rule:nonzero;fill:rgb(0%,0%,0%);fill-opacity:1;" d="M 211.027344 20 L 211.027344 0 L 231.027344 0 L 231.027344 20 Z M 211.027344 20 "/>
<path style=" stroke:none;fill-rule:nonzero;fill:rgb(0%,0%,0%);fill-opacity:1;" d="M 247.027344 220 L 247.027344 200 L 267.027344 200 L 267.027344 220 Z M 247.027344 220 "/>
<path style=" stroke:none;fill-rule:nonzero;fill:rgb(0%,0%,0%);fill-opacity:1;" d="M 247.027344 180 L 247.027344 160 L 267.027344 160 L 267.027344 180 Z M 247.027344 180 "/>
<path style=" stroke:none;fill-rule:nonzero;fill:rgb(0%,0%,0%);fill-opacity:1;" d="M 247.027344 140 L 247.027344 120 L 267.027344 120 L 267.027344 140 Z M 247.027344 140 "/>
<path style=" stroke:none;fill-rule:nonzero;fill:rgb(0%,0%,0%);fill-opacity:1;" d="M 247.027344 100 L 247.027344 80 L 267.027344 80 L 267.027344 100 Z M 247.027344 100 "/>
<path style=" stroke:none;fill-rule:nonzero;fill:rgb(0%,0%,0%);fill-opacity:1;" d="M 247.027344 60 L 247.027344 40 L 267.027344 40 L 267.027344 60 Z M 247.027344 60 "/>
<path style=" stroke:none;fill-rule:nonzero;fill:rgb(0%,0%,0%);fill-opacity:1;" d="M 247.027344 20 L 247.027344 0 L 267.027344 0 L 267.027344 20 Z M 247.027344 20 "/>
<path style=" stroke:none;fill-rule:nonzero;fill:rgb(0%,0%,0%);fill-opacity:1;" d="M 283.027344 220 L 283.027344 200 L 303.027344 200 L 303.027344 220 Z M 283.027344 220 "/>
<path style=" stroke:none;fill-rule:nonzero;fill:rgb(0%,0%,0%);fill-opacity:1;" d="M 283.027344 180 L 283.027344 160 L 303.027344 160 L 303.027344 180 Z M 283.027344 180 "/>
<path style=" stroke:none;fill-rule:nonzero;fill:rgb(0%,0%,0%);fill-opacity:1;" d="M 283.027344 140 L 283.027344 120 L 303.027344 120 L 303.027344 140 Z M 283.027344 140 "/>
<path style=" stroke:none;fill-rule:nonzero;fill:rgb(0%,0%,0%);fill-opacity:1;" d="M 283.027344 100 L 283.027344 80 L 303.027344 80 L 303.027344 100 Z M 283.027344 100 "/>
<path style=" stroke:none;fill-rule:nonzero;fill:rgb(0%,0%,0%);fill-opacity:1;" d="M 283.027344 60 L 283.027344 40 L 303.027344 40 L 303.027344 60 Z M 283.027344 60 "/>
<path style=" stroke:none;fill-rule:nonzero;fill:rgb(0%,0%,0%);fill-opacity:1;" d="M 283.027344 20 L 283.027344 0 L 303.027344 0 L 303.027344 20 Z M 283.027344 20 "/>
<path style=" stroke:none;fill-rule:nonzero;fill:rgb(0%,0%,0%);fill-opacity:1;" d="M 319.027344 220 L 319.027344 200 L 339.027344 200 L 339.027344 220 Z M 319.027344 220 "/>
<path style=" stroke:none;fill-rule:nonzero;fill:rgb(0%,0%,0%);fill-opacity:1;" d="M 319.027344 180 L 319.027344 160 L 339.027344 160 L 339.027344 180 Z M 319.027344 180 "/>
<path style=" stroke:none;fill-rule:nonzero;fill:rgb(0%,0%,0%);fill-opacity:1;" d="M 319.027344 140 L 319.027344 120 L 339.027344 120 L 339.027344 140 Z M 319.027344 140 "/>
<path style=" stroke:none;fill-rule:nonzero;fill:rgb(0%,0%,0%);fill-opacity:1;" d="M 319.027344 100 L 319.027344 80 L 339.027344 80 L 339.027344 100 Z M 319.027344 100 "/>
<path style=" stroke:none;fill-rule:nonzero;fill:rgb(0%,0%,0%);fill-opacity:1;" d="M 319.027344 60 L 319.027344 40 L 339.027344 40 L 339.027344 60 Z M 319.027344 60 "/>
<path style=" stroke:none;fill-rule:nonzero;fill:rgb(0%,0%,0%);fill-opacity:1;" d="M 319.027344 20 L 319.027344 0 L 339.027344 0 L 339.027344 20 Z M 319.027344 20 "/>
<path style=" stroke:none;fill-rule:nonzero;fill:rgb(0%,0%,0%);fill-opacity:1;" d="M 355.027344 220 L 355.027344 200 L 375.027344 200 L 375.027344 220 Z M 355.027344 220 "/>
<path style=" stroke:none;fill-rule:nonzero;fill:rgb(0%,0%,0%);fill-opacity:1;" d="M 355.027344 180 L 355.027344 160 L 375.027344 160 L 375.027344 180 Z M 355.027344 180 "/>
<path style=" stroke:none;fill-rule:nonzero;fill:rgb(0%,0%,0%);fill-opacity:1;" d="M 355.027344 140 L 355.027344 120 L 375.027344 120 L 375.027344 140 Z M 355.027344 140 "/>
<path style=" stroke:none;fill-rule:nonzero;fill:rgb(0%,0%,0%);fill-opacity:1;" d="M 355.027344 100 L 355.027344 80 L 375.027344 80 L 375.027344 100 Z M 355.027344 100 "/>
<path style=" stroke:none;fill-rule:nonzero;fill:rgb(0%,0%,0%);fill-opacity:1;" d="M 355.027344 60 L 355.027344 40 L 375.027344 40 L 375.027344 60 Z M 355.027344 60 "/>
<path style=" stroke:none;fill-rule:nonzero;fill:rgb(0%,0%,0%);fill-opacity:1;" d="M 355.027344 20 L 355.027344 0 L 375.027344 0 L 375.027344 20 Z M 355.027344 20 "/>
<path style=" stroke:none;fill-rule:nonzero;fill:rgb(0%,0%,0%);fill-opacity:1;" d="M 391.027344 220 L 391.027344 200 L 411.027344 200 L 411.027344 220 Z M 391.027344 220 "/>
<path style=" stroke:none;fill-rule:nonzero;fill:rgb(0%,0%,0%);fill-opacity:1;" d="M 391.027344 180 L 391.027344 160 L 411.027344 160 L 411.027344 180 Z M 391.027344 180 "/>
<path style=" stroke:none;fill-rule:nonzero;fill:rgb(0%,0%,0%);fill-opacity:1;" d="M 391.027344 140 L 391.027344 120 L 411.027344 120 L 411.027344 140 Z M 391.027344 140 "/>
<path style=" stroke:none;fill-rule:nonzero;fill:rgb(0%,0%,0%);fill-opacity:1;" d="M 391.027344 100 L 391.027344 80 L 411.027344 80 L 411.027344 100 Z M 391.027344 100 "/>
<path style=" stroke:none;fill-rule:nonzero;fill:rgb(0%,0%,0%);fill-opacity:1;" d="M 391.027344 60 L 391.027344 40 L 411.027344 40 L 411.027344 60 Z M 391.027344 60 "/>
<path style=" stroke:none;fill-rule:nonzero;fill:rgb(0%,0%,0%);fill-opacity:1;" d="M 391.027344 20 L 391.027344 0 L 411.027344 0 L 411.027344 20 Z M 391.027344 20 "/>
<path style=" stroke:none;fill-rule:nonzero;fill:rgb(0%,0%,0%);fill-opacity:1;" d="M -0.628906 200 L -0.628906 180 L 19.371094 180 L 19.371094 200 Z M -0.628906 200 "/>
<path style=" stroke:none;fill-rule:nonzero;fill:rgb(0%,0%,0%);fill-opacity:1;" d="M -0.628906 160 L -0.628906 140 L 19.371094 140 L 19.371094 160 Z M -0.628906 160 "/>
<path style=" stroke:none;fill-rule:nonzero;fill:rgb(0%,0%,0%);fill-opacity:1;" d="M -0.628906 120 L -0.628906 100 L 19.371094 100 L 19.371094 120 Z M -0.628906 120 "/>
<path style=" stroke:none;fill-rule:nonzero;fill:rgb(0%,0%,0%);fill-opacity:1;" d="M -0.628906 80 L -0.628906 60 L 19.371094 60 L 19.371094 80 Z M -0.628906 80 "/>
<path style=" stroke:none;fill-rule:nonzero;fill:rgb(0%,0%,0%);fill-opacity:1;" d="M -0.628906 40 L -0.628906 20 L 19.371094 20 L 19.371094 40 Z M -0.628906 40 "/>
<path style=" stroke:none;fill-rule:nonzero;fill:rgb(0%,0%,0%);fill-opacity:1;" d="M 35.371094 200 L 35.371094 180 L 55.371094 180 L 55.371094 200 Z M 35.371094 200 "/>
<path style=" stroke:none;fill-rule:nonzero;fill:rgb(0%,0%,0%);fill-opacity:1;" d="M 35.371094 160 L 35.371094 140 L 55.371094 140 L 55.371094 160 Z M 35.371094 160 "/>
<path style=" stroke:none;fill-rule:nonzero;fill:rgb(0%,0%,0%);fill-opacity:1;" d="M 35.371094 120 L 35.371094 100 L 55.371094 100 L 55.371094 120 Z M 35.371094 120 "/>
<path style=" stroke:none;fill-rule:nonzero;fill:rgb(0%,0%,0%);fill-opacity:1;" d="M 35.371094 80 L 35.371094 60 L 55.371094 60 L 55.371094 80 Z M 35.371094 80 "/>
<path style=" stroke:none;fill-rule:nonzero;fill:rgb(0%,0%,0%);fill-opacity:1;" d="M 35.371094 40 L 35.371094 20 L 55.371094 20 L 55.371094 40 Z M 35.371094 40 "/>
<path style=" stroke:none;fill-rule:nonzero;fill:rgb(0%,0%,0%);fill-opacity:1;" d="M 71.371094 200 L 71.371094 180 L 91.371094 180 L 91.371094 200 Z M 71.371094 200 "/>
<path style=" stroke:none;fill-rule:nonzero;fill:rgb(0%,0%,0%);fill-opacity:1;" d="M 71.371094 160 L 71.371094 140 L 91.371094 140 L 91.371094 160 Z M 71.371094 160 "/>
<path style=" stroke:none;fill-rule:nonzero;fill:rgb(0%,0%,0%);fill-opacity:1;" d="M 71.371094 120 L 71.371094 100 L 91.371094 100 L 91.371094 120 Z M 71.371094 120 "/>
<path style=" stroke:none;fill-rule:nonzero;fill:rgb(0%,0%,0%);fill-opacity:1;" d="M 71.371094 80 L 71.371094 60 L 91.371094 60 L 91.371094 80 Z M 71.371094 80 "/>
<path style=" stroke:none;fill-rule:nonzero;fill:rgb(0%,0%,0%);fill-opacity:1;" d="M 71.371094 40 L 71.371094 20 L 91.371094 20 L 91.371094 40 Z M 71.371094 40 "/>
<path style=" stroke:none;fill-rule:nonzero;fill:rgb(0%,0%,0%);fill-opacity:1;" d="M 107.371094 200 L 107.371094 180 L 127.371094 180 L 127.371094 200 Z M 107.371094 200 "/>
<path style=" stroke:none;fill-rule:nonzero;fill:rgb(0%,0%,0%);fill-opacity:1;" d="M 107.371094 160 L 107.371094 140 L 127.371094 140 L 127.371094 160 Z M 107.371094 160 "/>
<path style=" stroke:none;fill-rule:nonzero;fill:rgb(0%,0%,0%);fill-opacity:1;" d="M 107.371094 120 L 107.371094 100 L 127.371094 100 L 127.371094 120 Z M 107.371094 120 "/>
<path style=" stroke:none;fill-rule:nonzero;fill:rgb(0%,0%,0%);fill-opacity:1;" d="M 107.371094 80 L 107.371094 60 L 127.371094 60 L 127.371094 80 Z M 107.371094 80 "/>
<path style=" stroke:none;fill-rule:nonzero;fill:rgb(0%,0%,0%);fill-opacity:1;" d="M 107.371094 40 L 107.371094 20 L 127.371094 20 L 127.371094 40 Z M 107.371094 40 "/>
<path style=" stroke:none;fill-rule:nonzero;fill:rgb(0%,0%,0%);fill-opacity:1;" d="M 143.371094 200 L 143.371094 180 L 163.371094 180 L 163.371094 200 Z M 143.371094 200 "/>
<path style=" stroke:none;fill-rule:nonzero;fill:rgb(0%,0%,0%);fill-opacity:1;" d="M 143.371094 160 L 143.371094 140 L 163.371094 140 L 163.371094 160 Z M 143.371094 160 "/>
<path style=" stroke:none;fill-rule:nonzero;fill:rgb(0%,0%,0%);fill-opacity:1;" d="M 143.371094 120 L 143.371094 100 L 163.371094 100 L 163.371094 120 Z M 143.371094 120 "/>
<path style=" stroke:none;fill-rule:nonzero;fill:rgb(0%,0%,0%);fill-opacity:1;" d="M 143.371094 80 L 143.371094 60 L 163.371094 60 L 163.371094 80 Z M 143.371094 80 "/>
<path style=" stroke:none;fill-rule:nonzero;fill:rgb(0%,0%,0%);fill-opacity:1;" d="M 143.371094 40 L 143.371094 20 L 163.371094 20 L 163.371094 40 Z M 143.371094 40 "/>
<path style=" stroke:none;fill-rule:nonzero;fill:rgb(0%,0%,0%);fill-opacity:1;" d="M 179.371094 200 L 179.371094 180 L 199.371094 180 L 199.371094 200 Z M 179.371094 200 "/>
<path style=" stroke:none;fill-rule:nonzero;fill:rgb(0%,0%,0%);fill-opacity:1;" d="M 179.371094 160 L 179.371094 140 L 199.371094 140 L 199.371094 160 Z M 179.371094 160 "/>
<path style=" stroke:none;fill-rule:nonzero;fill:rgb(0%,0%,0%);fill-opacity:1;" d="M 179.371094 120 L 179.371094 100 L 199.371094 100 L 199.371094 120 Z M 179.371094 120 "/>
<path style=" stroke:none;fill-rule:nonzero;fill:rgb(0%,0%,0%);fill-opacity:1;" d="M 179.371094 80 L 179.371094 60 L 199.371094 60 L 199.371094 80 Z M 179.371094 80 "/>
<path style=" stroke:none;fill-rule:nonzero;fill:rgb(0%,0%,0%);fill-opacity:1;" d="M 179.371094 40 L 179.371094 20 L 199.371094 20 L 199.371094 40 Z M 179.371094 40 "/>
<path style=" stroke:none;fill-rule:nonzero;fill:rgb(0%,0%,0%);fill-opacity:1;" d="M 215.371094 200 L 215.371094 180 L 235.371094 180 L 235.371094 200 Z M 215.371094 200 "/>
<path style=" stroke:none;fill-rule:nonzero;fill:rgb(0%,0%,0%);fill-opacity:1;" d="M 215.371094 160 L 215.371094 140 L 235.371094 140 L 235.371094 160 Z M 215.371094 160 "/>
<path style=" stroke:none;fill-rule:nonzero;fill:rgb(0%,0%,0%);fill-opacity:1;" d="M 215.371094 120 L 215.371094 100 L 235.371094 100 L 235.371094 120 Z M 215.371094 120 "/>
<path style=" stroke:none;fill-rule:nonzero;fill:rgb(0%,0%,0%);fill-opacity:1;" d="M 215.371094 80 L 215.371094 60 L 235.371094 60 L 235.371094 80 Z M 215.371094 80 "/>
<path style=" stroke:none;fill-rule:nonzero;fill:rgb(0%,0%,0%);fill-opacity:1;" d="M 215.371094 40 L 215.371094 20 L 235.371094 20 L 235.371094 40 Z M 215.371094 40 "/>
<path style=" stroke:none;fill-rule:nonzero;fill:rgb(0%,0%,0%);fill-opacity:1;" d="M 251.371094 200 L 251.371094 180 L 271.371094 180 L 271.371094 200 Z M 251.371094 200 "/>
<path style=" stroke:none;fill-rule:nonzero;fill:rgb(0%,0%,0%);fill-opacity:1;" d="M 251.371094 160 L 251.371094 140 L 271.371094 140 L 271.371094 160 Z M 251.371094 160 "/>
<path style=" stroke:none;fill-rule:nonzero;fill:rgb(0%,0%,0%);fill-opacity:1;" d="M 251.371094 120 L 251.371094 100 L 271.371094 100 L 271.371094 120 Z M 251.371094 120 "/>
<path style=" stroke:none;fill-rule:nonzero;fill:rgb(0%,0%,0%);fill-opacity:1;" d="M 251.371094 80 L 251.371094 60 L 271.371094 60 L 271.371094 80 Z M 251.371094 80 "/>
<path style=" stroke:none;fill-rule:nonzero;fill:rgb(0%,0%,0%);fill-opacity:1;" d="M 251.371094 40 L 251.371094 20 L 271.371094 20 L 271.371094 40 Z M 251.371094 40 "/>
<path style=" stroke:none;fill-rule:nonzero;fill:rgb(0%,0%,0%);fill-opacity:1;" d="M 287.371094 200 L 287.371094 180 L 307.371094 180 L 307.371094 200 Z M 287.371094 200 "/>
<path style=" stroke:none;fill-rule:nonzero;fill:rgb(0%,0%,0%);fill-opacity:1;" d="M 287.371094 160 L 287.371094 140 L 307.371094 140 L 307.371094 160 Z M 287.371094 160 "/>
<path style=" stroke:none;fill-rule:nonzero;fill:rgb(0%,0%,0%);fill-opacity:1;" d="M 287.371094 120 L 287.371094 100 L 307.371094 100 L 307.371094 120 Z M 287.371094 120 "/>
<path style=" stroke:none;fill-rule:nonzero;fill:rgb(0%,0%,0%);fill-opacity:1;" d="M 287.371094 80 L 287.371094 60 L 307.371094 60 L 307.371094 80 Z M 287.371094 80 "/>
<path style=" stroke:none;fill-rule:nonzero;fill:rgb(0%,0%,0%);fill-opacity:1;" d="M 287.371094 40 L 287.371094 20 L 307.371094 20 L 307.371094 40 Z M 287.371094 40 "/>
<path style=" stroke:none;fill-rule:nonzero;fill:rgb(0%,0%,0%);fill-opacity:1;" d="M 323.371094 200 L 323.371094 180 L 343.371094 180 L 343.371094 200 Z M 323.371094 200 "/>
<path style=" stroke:none;fill-rule:nonzero;fill:rgb(0%,0%,0%);fill-opacity:1;" d="M 323.371094 160 L 323.371094 140 L 343.371094 140 L 343.371094 160 Z M 323.371094 160 "/>
<path style=" stroke:none;fill-rule:nonzero;fill:rgb(0%,0%,0%);fill-opacity:1;" d="M 323.371094 120 L 323.371094 100 L 343.371094 100 L 343.371094 120 Z M 323.371094 120 "/>
<path style=" stroke:none;fill-rule:nonzero;fill:rgb(0%,0%,0%);fill-opacity:1;" d="M 323.371094 80 L 323.371094 60 L 343.371094 60 L 343.371094 80 Z M 323.371094 80 "/>
<path style=" stroke:none;fill-rule:nonzero;fill:rgb(0%,0%,0%);fill-opacity:1;" d="M 323.371094 40 L 323.371094 20 L 343.371094 20 L 343.371094 40 Z M 323.371094 40 "/>
<path style=" stroke:none;fill-rule:nonzero;fill:rgb(0%,0%,0%);fill-opacity:1;" d="M 359.371094 200 L 359.371094 180 L 379.371094 180 L 379.371094 200 Z M 359.371094 200 "/>
<path style=" stroke:none;fill-rule:nonzero;fill:rgb(0%,0%,0%);fill-opacity:1;" d="M 359.371094 160 L 359.371094 140 L 379.371094 140 L 379.371094 160 Z M 359.371094 160 "/>
<path style=" stroke:none;fill-rule:nonzero;fill:rgb(0%,0%,0%);fill-opacity:1;" d="M 359.371094 120 L 359.371094 100 L 379.371094 100 L 379.371094 120 Z M 359.371094 120 "/>
<path style=" stroke:none;fill-rule:nonzero;fill:rgb(0%,0%,0%);fill-opacity:1;" d="M 359.371094 80 L 359.371094 60 L 379.371094 60 L 379.371094 80 Z M 359.371094 80 "/>
<path style=" stroke:none;fill-rule:nonzero;fill:rgb(0%,0%,0%);fill-opacity:1;" d="M 359.371094 40 L 359.371094 20 L 379.371094 20 L 379.371094 40 Z M 359.371094 40 "/>
<path style=" stroke:none;fill-rule:nonzero;fill:rgb(0%,0%,0%);fill-opacity:1;" d="M 395.371094 200 L 395.371094 180 L 415.371094 180 L 415.371094 200 Z M 395.371094 200 "/>
<path style=" stroke:none;fill-rule:nonzero;fill:rgb(0%,0%,0%);fill-opacity:1;" d="M 395.371094 160 L 395.371094 140 L 415.371094 140 L 415.371094 160 Z M 395.371094 160 "/>
<path style=" stroke:none;fill-rule:nonzero;fill:rgb(0%,0%,0%);fill-opacity:1;" d="M 395.371094 120 L 395.371094 100 L 415.371094 100 L 415.371094 120 Z M 395.371094 120 "/>
<path style=" stroke:none;fill-rule:nonzero;fill:rgb(0%,0%,0%);fill-opacity:1;" d="M 395.371094 80 L 395.371094 60 L 415.371094 60 L 415.371094 80 Z M 395.371094 80 "/>
<path style=" stroke:none;fill-rule:nonzero;fill:rgb(0%,0%,0%);fill-opacity:1;" d="M 395.371094 40 L 395.371094 20 L 415.371094 20 L 415.371094 40 Z M 395.371094 40 "/>
<path style="fill:none;stroke-width:1;stroke-linecap:square;stroke-linejoin:miter;stroke:rgb(100%,0%,0%);stroke-opacity:1;stroke-miterlimit:3.25;" d="M 0 220 L 400 220 "/>
<path style="fill:none;stroke-width:1;stroke-linecap:square;stroke-linejoin:miter;stroke:rgb(100%,0%,0%);stroke-opacity:1;stroke-miterlimit:3.25;" d="M 0 200 L 400 200 "/>
<path style="fill:none;stroke-width:1;stroke-linecap:square;stroke-linejoin:miter;stroke:rgb(100%,0%,0%);stroke-opacity:1;stroke-miterlimit:3.25;" d="M 0 180 L 400 180 "/>
<path style="fill:none;stroke-width:1;stroke-linecap:square;stroke-linejoin:miter;stroke:rgb(100%,0%,0%);stroke-opacity:1;stroke-miterlimit:3.25;" d="M 0 160 L 400 160 "/>
<path style="fill:none;stroke-width:1;stroke-linecap:square;stroke-linejoin:miter;stroke:rgb(100%,0%,0%);stroke-opacity:1;stroke-miterlimit:3.25;" d="M 0 140 L 400 140 "/>
<path style="fill:none;stroke-width:1;stroke-linecap:square;stroke-linejoin:miter;stroke:rgb(100%,0%,0%);stroke-opacity:1;stroke-miterlimit:3.25;" d="M 0 120 L 400 120 "/>
<path style="fill:none;stroke-width:1;stroke-linecap:square;stroke-linejoin:miter;stroke:rgb(100%,0%,0%);stroke-opacity:1;stroke-miterlimit:3.25;" d="M 0 100 L 400 100 "/>
<path style="fill:none;stroke-width:1;stroke-linecap:square;stroke-linejoin:miter;stroke:rgb(100%,0%,0%);stroke-opacity:1;stroke-miterlimit:3.25;" d="M 0 80 L 400 80 "/>
<path style="fill:none;stroke-width:1;stroke-linecap:square;stroke-linejoin:miter;stroke:rgb(100%,0%,0%);stroke-opacity:1;stroke-miterlimit:3.25;" d="M 0 60 L 400 60 "/>
<path style="fill:none;stroke-width:1;stroke-linecap:square;stroke-linejoin:miter;stroke:rgb(100%,0%,0%);stroke-opacity:1;stroke-miterlimit:3.25;" d="M 0 40 L 400 40 "/>
<path style="fill:none;stroke-width:1;stroke-linecap:square;stroke-linejoin:miter;stroke:rgb(100%,0%,0%);stroke-opacity:1;stroke-miterlimit:3.25;" d="M 0 20 L 400 20 "/>
</g>
</svg>
