<?xml version="1.0" encoding="UTF-8"?>
<svg xmlns="http://www.w3.org/2000/svg" xmlns:xlink="http://www.w3.org/1999/xlink" width="400pt" height="220pt" viewBox="0 0 400 220" version="1.1">
<g id="surface881">
<rect x="0" y="0" width="400" height="220" style="fill:rgb(0%,40%,100%);fill-opacity:0.2;stroke:none;"/>
<path style=" stroke:none;fill-rule:nonzero;fill:rgb(0%,0%,0%);fill-opacity:1;" d="M -19.84375 220 L -19.84375 200 L 0.15625 200 L 0.15625 220 Z M -19.84375 220 "/>
<path style=" stroke:none;fill-rule:nonzero;fill:rgb(0%,0%,0%);fill-opacity:1;" d="M -19.84375 180 L -19.84375 160 L 0.15625 160 L 0.15625 180 Z M -19.84375 180 "/>
<path style=" stroke:none;fill-rule:nonzero;fill:rgb(0%,0%,0%);fill-opacity:1;" d="M -19.84375 140 L -19.84375 120 L 0.15625 120 L 0.15625 140 Z M -19.84375 140 "/>
<path style=" stroke:none;fill-rule:nonzero;fill:rgb(0%,0%,0%);fill-opacity:1;" d="M -19.84375 100 L -19.84375 80 L 0.15625 80 L 0.15625 100 Z M -19.84375 100 "/>
<path style=" stroke:none;fill-rule:nonzero;fill:rgb(0%,0%,0%);fill-opacity:1;" d="M -19.84375 60 L -19.84375 40 L 0.15625 40 L 0.15625 60 Z M -19.84375 60 "/>
<path style=" stroke:none;fill-rule:nonzero;fill:rgb(0%,0%,0%);fill-opacity:1;" d="M -19.84375 20 L -19.84375 0 L 0.15625 0 L 0.15625 20 Z M -19.84375 20 "/>
<path style=" stroke:none;fill-rule:nonzero;fill:rgb(0%,0%,0%);fill-opacity:1;" d="M 16.15625 220 L 16.15625 200 L 36.15625 200 L 36.15625 220 Z M 16.15625 220 "/>
<path style=" stroke:none;fill-rule:nonzero;fill:rgb(0%,0%,0%);fill-opacity:1;" d="M 16.15625 180 L 16.15625 160 L 36.15625 160 L 36.15625 180 Z M 16.15625 180 "/>
<path style=" stroke:none;fill-rule:nonzero;fill:rgb(0%,0%,0%);fill-opacity:1;" d="M 16.15625 140 L 16.15625 120 L 36.15625 120 L 36.15625 140 Z M 16.15625 140 "/>
<path style=" stroke:none;fill-rule:nonzero;fill:rgb(0%,0%,0%);fill-opacity:1;" d="M 16.15625 100 L 16.15625 80 L 36.15625 80 L 36.15625 100 Z M 16.15625 100 "/>
<path style=" stroke:none;fill-rule:nonzero;fill:rgb(0%,0%,0%);fill-opacity:1;" d="M 16.15625 60 L 16.15625 40 L 36.15625 40 L 36.15625 60 Z M 16.15625 60 "/>
<path style=" stroke:none;fill-rule:nonzero;fill:rgb(0%,0%,0%);fill-opacity:1;" d="M 16.15625 20 L 16.15625 0 L 36.15625 0 L 36.15625 20 Z M 16.15625 20 "/>
<path style=" stroke:none;fill-rule:nonzero;fill:rgb(0%,0%,0%);fill-opacity:1;" d="M 52.15625 220 L 52.15625 200 L 72.15625 200 L 72.15625 220 Z M 52.15625 220 "/>
<path style=" stroke:none;fill-rule:nonzero;fill:rgb(0%,0%,0%);fill-opacity:1;" d="M 52.15625 180 L 52.15625 160 L 72.15625 160 L 72.15625 180 Z M 52.15625 180 "/>
<path style=" stroke:none;fill-rule:nonzero;fill:rgb(0%,0%,0%);fill-opacity:1;" d="M 52.15625 140 L 52.15625 120 L 72.15625 120 L 72.15625 140 Z M 52.15625 140 "/>
<path style=" stroke:none;fill-rule:nonzero;fill:rgb(0%,0%,0%);fill-opacity:1;" d="M 52.15625 100 L 52.15625 80 L 72.15625 80 L 72.15625 100 Z M 52.15625 100 "/>
<path style=" stroke:none;fill-rule:nonzero;fill:rgb(0%,0%,0%);fill-opacity:1;" d="M 52.15625 60 L 52.15625 40 L 72.15625 40 L 72.15625 60 Z M 52.15625 60 "/>
<path style=" stroke:none;fill-rule:nonzero;fill:rgb(0%,0%,0%);fill-opacity:1;" d="M 52.15625 20 L 52.15625 0 L 72.15625 0 L 72.15625 20 Z M 52.15625 20 "/>
<path style=" stroke:none;fill-rule:nonzero;fill:rgb(0%,0%,0%);fill-opacity:1;" d="M 88.15625 220 L 88.15625 200 L 108.15625 200 L 108.15625 220 Z M 88.15625 220 "/>
<path style=" stroke:none;fill-rule:nonzero;fill:rgb(0%,0%,0%);fill-opacity:1;" d="M 88.15625 180 L 88.15625 160 L 108.15625 160 L 108.15625 180 Z M 88.15625 180 "/>
<path style=" stroke:none;fill-rule:nonzero;fill:rgb(0%,0%,0%);fill-opacity:1;" d="M 88.15625 140 L 88.15625 120 L 108.15625 120 L 108.15625 140 Z M 88.15625 140 "/>
<path style=" stroke:none;fill-rule:nonzero;fill:rgb(0%,0%,0%);fill-opacity:1;" d="M 88.15625 100 L 88.15625 80 L 108.15625 80 L 108.15625 100 Z M 88.15625 100 "/>
<path style=" stroke:none;fill-rule:nonzero;fill:rgb(0%,0%,0%);fill-opacity:1;" d="M 88.15625 60 L 88.15625 40 L 108.15625 40 L 108.15625 60 Z M 88.15625 60 "/>
<path style=" stroke:none;fill-rule:nonzero;fill:rgb(0%,0%,0%);fill-opacity:1;" d="M 88.15625 20 L 88.15625 0 L 108.15625 0 L 108.15625 20 Z M 88.15625 20 "/>
<path style=" stroke:none;fill-rule:nonzero;fill:rgb(0%,0%,0%);fill-opacity:1;" d="M 124.15625 220 L 124.15625 200 L 144.15625 200 L 144.15625 220 Z M 124.15625 220 "/>
<path style=" stroke:none;fill-rule:nonzero;fill:rgb(0%,0%,0%);fill-opacity:1;" d="M 124.15625 180 L 124.15625 160 L 144.15625 160 L 144.15625 180 Z M 124.15625 180 "/>
<path style=" stroke:none;fill-rule:nonzero;fill:rgb(0%,0%,0%);fill-opacity:1;" d="M 124.15625 140 L 124.15625 120 L 144.15625 120 L 144.15625 140 Z M 124.15625 140 "/>
<path style=" stroke:none;fill-rule:nonzero;fill:rgb(0%,0%,0%);fill-opacity:1;" d="M 124.15625 100 L 124.15625 80 L 144.15625 80 L 144.15625 100 Z M 124.15625 100 "/>
<path style=" stroke:none;fill-rule:nonzero;fill:rgb(0%,0%,0%);fill-opacity:1;" d="M 124.15625 60 L 124.15625 40 L 144.15625 40 L 144.15625 60 Z M 124.15625 60 "/>
<path style=" stroke:none;fill-rule:nonzero;fill:rgb(0%,0%,0%);fill-opacity:1;" d="M 124.15625 20 L 124.15625 0 L 144.15625 0 L 144.15625 20 Z M 124.15625 20 "/>
<path style=" stroke:none;fill-rule:nonzero;fill:rgb(0%,0%,0%);fill-opacity:1;" d="M 160.15625 220 L 160.15625 200 L 180.15625 200 L 180.15625 220 Z M 160.15625 220 "/>
<path style=" stroke:none;fill-rule:nonzero;fill:rgb(0%,0%,0%);fill-opacity:1;" d="M 160.15625 180 L 160.15625 160 L 180.15625 160 L 180.15625 180 Z M 160.15625 180 "/>
<path style=" stroke:none;fill-rule:nonzero;fill:rgb(0%,0%,0%);fill-opacity:1;" d="M 160.15625 140 L 160.15625 120 L 180.15625 120 L 180.15625 140 Z M 160.15625 140 "/>
<path style=" stroke:none;fill-rule:nonzero;fill:rgb(0%,0%,0%);fill-opacity:1;" d="M 160.15625 100 L 160.15625 80 L 180.15625 80 L 180.15625 100 Z M 160.15625 100 "/>
<path style=" stroke:none;fill-rule:nonzero;fill:rgb(0%,0%,0%);fill-opacity:1;" d="M 160.15625 60 L 160.15625 40 L 180.15625 40 L 180.15625 60 Z M 160.15625 60 "/>
<path style=" stroke:none;fill-rule:nonzero;fill:rgb(0%,0%,0%);fill-opacity:1;" d="M 160.15625 20 L 160.15625 0 L 180.15625 0 L 180.15625 20 Z M 160.15625 20 "/>
<path style=" stroke:none;fill-rule:nonzero;fill:rgb(0%,0%,0%);fill-opacity:1;" d="M 196.15625 220 L 196.15625 200 L 216.15625 200 L 216.15625 220 Z M 196.15625 220 "/>
<path style=" stroke:none;fill-rule:nonzero;fill:rgb(0%,0%,0%);fill-opacity:1;" d="M 196.15625 180 L 196.15625 160 L 216.15625 160 L 216.15625 180 Z M 196.15625 180 "/>
<path style=" stroke:none;fill-rule:nonzero;fill:rgb(0%,0%,0%);fill-opacity:1;" d="M 196.15625 140 L 196.15625 120 L 216.15625 120 L 216.15625 140 Z M 196.15625 140 "/>
<path style=" stroke:none;fill-rule:nonzero;fill:rgb(0%,0%,0%);fill-opacity:1;" d="M 196.15625 100 L 196.15625 80 L 216.15625 80 L 216.15625 100 Z M 196.15625 100 "/>
<path style=" stroke:none;fill-rule:nonzero;fill:rgb(0%,0%,0%);fill-opacity:1;" d="M 196.15625 60 L 196.15625 40 L 216.15625 40 L 216.15625 60 Z M 196.15625 60 "/>
<path style=" stroke:none;fill-rule:nonzero;fill:rgb(0%,0%,0%);fill-opacity:1;" d="M 196.15625 20 L 196.15625 0 L 216.15625 0 L 216.15625 20 Z M 196.15625 20 "/>
<path style=" stroke:none;fill-rule:nonzero;fill:rgb(0%,0%,0%);fill-opacity:1;" d="M 232.15625 220 L 232.15625 200 L 252.15625 200 L 252.15625 220 Z M 232.15625 220 "/>
<path style=" stroke:none;fill-rule:nonzero;fill:rgb(0%,0%,0%);fill-opacity:1;" d="M 232.15625 180 L 232.15625 160 L 252.15625 160 L 252.15625 180 Z M 232.15625 180 "/>
<path style=" stroke:none;fill-rule:nonzero;fill:rgb(0%,0%,0%);fill-opacity:1;" d="M 232.15625 140 L 232.15625 120 L 252.15625 120 L 252.15625 140 Z M 232.15625 140 "/>
<path style=" stroke:none;fill-rule:nonzero;fill:rgb(0%,0%,0%);fill-opacity:1;" d="M 232.15625 100 L 232.15625 80 L 252.15625 80 L 252.15625 100 Z M 232.15625 100 "/>
<path style=" stroke:none;fill-rule:nonzero;fill:rgb(0%,0%,0%);fill-opacity:1;" d="M 232.15625 60 L 232.15625 40 L 252.15625 40 L 252.15625 60 Z M 232.15625 60 "/>
<path style=" stroke:none;fill-rule:nonzero;fill:rgb(0%,0%,0%);fill-opacity:1;" d="M 232.15625 20 L 232.15625 0 L 252.15625 0 L 252.15625 20 Z M 232.15625 20 "/>
<path style=" stroke:none;fill-rule:nonzero;fill:rgb(0%,0%,0%);fill-opacity:1;" d="M 268.15625 220 L 268.15625 200 L 288.15625 200 L 288.15625 220 Z M 268.15625 220 "/>
<path style=" stroke:none;fill-rule:nonzero;fill:rgb(0%,0%,0%);fill-opacity:1;" d="M 268.15625 180 L 268.15625 160 L 288.15625 160 L 288.15625 180 Z M 268.15625 180 "/>
<path style=" stroke:none;fill-rule:nonzero;fill:rgb(0%,0%,0%);fill-opacity:1;" d="M 268.15625 140 L 268.15625 120 L 288.15625 120 L 288.15625 140 Z M 268.15625 140 "/>
<path style=" stroke:none;fill-rule:nonzero;fill:rgb(0%,0%,0%);fill-opacity:1;" d="M 268.15625 100 L 268.15625 80 L 288.15625 80 L 288.15625 100 Z M 268.15625 100 "/>
<path style=" stroke:none;fill-rule:nonzero;fill:rgb(0%,0%,0%);fill-opacity:1;" d="M 268.15625 60 L 268.15625 40 L 288.15625 40 L 288.15625 60 Z M 268.15625 60 "/>
<path style=" stroke:none;fill-rule:nonzero;fill:rgb(0%,0%,0%);fill-opacity:1;" d="M 268.15625 20 L 268.15625 0 L 288.15625 0 L 288.15625 20 Z M 268.15625 20 "/>
<path style=" stroke:none;fill-rule:nonzero;fill:rgb(0%,0%,0%);fill-opacity:1;" d="M 304.15625 220 L 304.15625 200 L 324.15625 200 L 324.15625 220 Z M 304.15625 220 "/>
<path style=" stroke:none;fill-rule:nonzero;fill:rgb(0%,0%,0%);fill-opacity:1;" d="M 304.15625 180 L 304.15625 160 L 324.15625 160 L 324.15625 180 Z M 304.15625 180 "/>
<path style=" stroke:none;fill-rule:nonzero;fill:rgb(0%,0%,0%);fill-opacity:1;" d="M 304.15625 140 L 304.15625 120 L 324.15625 120 L 324.15625 140 Z M 304.15625 140 "/>
<path style=" stroke:none;fill-rule:nonzero;fill:rgb(0%,0%,0%);fill-opacity:1;" d="M 304.15625 100 L 304.15625 80 L 324.15625 80 L 324.15625 100 Z M 304.15625 100 "/>
<path style=" stroke:none;fill-rule:nonzero;fill:rgb(0%,0%,0%);fill-opacity:1;" d="M 304.15625 60 L 304.15625 40 L 324.15625 40 L 324.15625 60 Z M 304.15625 60 "/>
<path style=" stroke:none;fill-rule:nonzero;fill:rgb(0%,0%,0%);fill-opacity:1;" d="M 304.15625 20 L 304.15625 0 L 324.15625 0 L 324.15625 20 Z M 304.15625 20 "/>
<path style=" stroke:none;fill-rule:nonzero;fill:rgb(0%,0%,0%);fill-opacity:1;" d="M 340.15625 220 L 340.15625 200 L 360.15625 200 L 360.15625 220 Z M 340.15625 220 "/>
<path style=" stroke:none;fill-rule:nonzero;fill:rgb(0%,0%,0%);fill-opacity:1;" d="M 340.15625 180 L 340.15625 160 L 360.15625 160 L 360.15625 180 Z M 340.15625 180 "/>
<path style=" stroke:none;fill-rule:nonzero;fill:rgb(0%,0%,0%);fill-opacity:1;" d="M 340.15625 140 L 340.15625 120 L 360.15625 120 L 360.15625 140 Z M 340.15625 140 "/>
<path style=" stroke:none;fill-rule:nonzero;fill:rgb(0%,0%,0%);fill-opacity:1;" d="M 340.15625 100 L 340.15625 80 L 360.15625 80 L 360.15625 100 Z M 340.15625 100 "/>
<path style=" stroke:none;fill-rule:nonzero;fill:rgb(0%,0%,0%);fill-opacity:1;" d="M 340.15625 60 L 340.15625 40 L 360.15625 40 L 360.15625 60 Z M 340.15625 60 "/>
<path style=" stroke:none;fill-rule:nonzero;fill:rgb(0%,0%,0%);fill-opacity:1;" d="M 340.15625 20 L 340.15625 0 L 360.15625 0 L 360.15625 20 Z M 340.15625 20 "/>
<path style=" stroke:none;fill-rule:nonzero;fill:rgb(0%,0%,0%);fill-opacity:1;" d="M 376.15625 220 L 376.15625 200 L 396.15625 200 L 396.15625 220 Z M 376.15625 220 "/>
<path style=" stroke:none;fill-rule:nonzero;fill:rgb(0%,0%,0%);fill-opacity:1;" d="M 376.15625 180 L 376.15625 160 L 396.15625 160 L 396.15625 180 Z M 376.15625 180 "/>
<path style=" stroke:none;fill-rule:nonzero;fill:rgb(0%,0%,0%);fill-opacity:1;" d="M 376.15625 140 L 376.15625 120 L 396.15625 120 L 396.15625 140 Z M 376.15625 140 "/>
<path style=" stroke:none;fill-rule:nonzero;fill:rgb(0%,0%,0%);fill-opacity:1;" d="M 376.15625 100 L 376.15625 80 L 396.15625 80 L 396.15625 100 Z M 376.15625 100 "/>
<path style=" stroke:none;fill-rule:nonzero;fill:rgb(0%,0%,0%);fill-opacity:1;" d="M 376.15625 60 L 376.15625 40 L 396.15625 40 L 396.15625 60 Z M 376.15625 60 "/>
<path style=" stroke:none;fill-rule:nonzero;fill:rgb(0%,0%,0%);fill-opacity:1;" d="M 376.15625 20 L 376.15625 0 L 396.15625 0 L 396.15625 20 Z M 376.15625 20 "/>
<path style=" stroke:none;fill-rule:nonzero;fill:rgb(0%,0%,0%);fill-opacity:1;" d="M 13.492188 200 L 13.492188 180 L 33.492188 180 L 33.492188 200 Z M 13.492188 200 "/>
<path style=" stroke:none;fill-rule:nonzero;fill:rgb(0%,0%,0%);fill-opacity:1;" d="M 13.492188 160 L 13.492188 140 L 33.492188 140 L 33.492188 160 Z M 13.492188 160 "/>
<path style=" stroke:none;fill-rule:nonzero;fill:rgb(0%,0%,0%);fill-opacity:1;" d="M 13.492188 120 L 13.492188 100 L 33.492188 100 L 33.492188 120 Z M 13.492188 120 "/>
<path style=" stroke:none;fill-rule:nonzero;fill:rgb(0%,0%,0%);fill-opacity:1;" d="M 13.492188 80 L 13.492188 60 L 33.492188 60 L 33.492188 80 Z M 13.492188 80 "/>
<path style=" stroke:none;fill-rule:nonzero;fill:rgb(0%,0%,0%);fill-opacity:1;" d="M 13.492188 40 L 13.492188 20 L 33.492188 20 L 33.492188 40 Z M 13.492188 40 "/>
<path style=" stroke:none;fill-rule:nonzero;fill:rgb(0%,0%,0%);fill-opacity:1;" d="M 49.492188 200 L 49.492188 180 L 69.492188 180 L 69.492188 200 Z M 49.492188 200 "/>
<path style=" stroke:none;fill-rule:nonzero;fill:rgb(0%,0%,0%);fill-opacity:1;" d="M 49.492188 160 L 49.492188 140 L 69.492188 140 L 69.492188 160 Z M 49.492188 160 "/>
<path style=" stroke:none;fill-rule:nonzero;fill:rgb(0%,0%,0%);fill-opacity:1;" d="M 49.492188 120 L 49.492188 100 L 69.492188 100 L 69.492188 120 Z M 49.492188 120 "/>
<path style=" stroke:none;fill-rule:nonzero;fill:rgb(0%,0%,0%);fill-opacity:1;" d="M 49.492188 80 L 49.492188 60 L 69.492188 60 L 69.492188 80 Z M 49.492188 80 "/>
<path style=" stroke:none;fill-rule:nonzero;fill:rgb(0%,0%,0%);fill-opacity:1;" d="M 49.492188 40 L 49.492188 20 L 69.492188 20 L 69.492188 40 Z M 49.492188 40 "/>
<path style=" stroke:none;fill-rule:nonzero;fill:rgb(0%,0%,0%);fill-opacity:1;" d="M 85.492188 200 L 85.492188 180 L 105.492188 180 L 105.492188 200 Z M 85.492188 200 "/>
<path style=" stroke:none;fill-rule:nonzero;fill:rgb(0%,0%,0%);fill-opacity:1;" d="M 85.492188 160 L 85.492188 140 L 105.492188 140 L 105.492188 160 Z M 85.492188 160 "/>
<path style=" stroke:none;fill-rule:nonzero;fill:rgb(0%,0%,0%);fill-opacity:1;" d="M 85.492188 120 L 85.492188 100 L 105.492188 100 L 105.492188 120 Z M 85.492188 120 "/>
<path style=" stroke:none;fill-rule:nonzero;fill:rgb(0%,0%,0%);fill-opacity:1;" d="M 85.492188 80 L 85.492188 60 L 105.492188 60 L 105.492188 80 Z M 85.492188 80 "/>
<path style=" stroke:none;fill-rule:nonzero;fill:rgb(0%,0%,0%);fill-opacity:1;" d="M 85.492188 40 L 85.492188 20 L 105.492188 20 L 105.492188 40 Z M 85.492188 40 "/>
<path style=" stroke:none;fill-rule:nonzero;fill:rgb(0%,0%,0%);fill-opacity:1;" d="M 121.492188 200 L 121.492188 180 L 141.492188 180 L 141.492188 200 Z M 121.492188 200 "/>
<path style=" stroke:none;fill-rule:nonzero;fill:rgb(0%,0%,0%);fill-opacity:1;" d="M 121.492188 160 L 121.492188 140 L 141.492188 140 L 141.492188 160 Z M 121.492188 160 "/>
<path style=" stroke:none;fill-rule:nonzero;fill:rgb(0%,0%,0%);fill-opacity:1;" d="M 121.492188 120 L 121.492188 100 L 141.492188 100 L 141.492188 120 Z M 121.492188 120 "/>
<path style=" stroke:none;fill-rule:nonzero;fill:rgb(0%,0%,0%);fill-opacity:1;" d="M 121.492188 80 L 121.492188 60 L 141.492188 60 L 141.492188 80 Z M 121.492188 80 "/>
<path style=" stroke:none;fill-rule:nonzero;fill:rgb(0%,0%,0%);fill-opacity:1;" d="M 121.492188 40 L 121.492188 20 L 141.492188 20 L 141.492188 40 Z M 121.492188 40 "/>
<path style=" stroke:none;fill-rule:nonzero;fill:rgb(0%,0%,0%);fill-opacity:1;" d="M 157.492188 200 L 157.492188 180 L 177.492188 180 L 177.492188 200 Z M 157.492188 200 "/>
<path style=" stroke:none;fill-rule:nonzero;fill:rgb(0%,0%,0%);fill-opacity:1;" d="M 157.492188 160 L 157.492188 140 L 177.492188 140 L 177.492188 160 Z M 157.492188 160 "/>
<path style=" stroke:none;fill-rule:nonzero;fill:rgb(0%,0%,0%);fill-opacity:1;" d="M 157.492188 120 L 157.492188 100 L 177.492188 100 L 177.492188 120 Z M 157.492188 120 "/>
<path style=" stroke:none;fill-rule:nonzero;fill:rgb(0%,0%,0%);fill-opacity:1;" d="M 157.492188 80 L 157.492188 60 L 177.492188 60 L 177.492188 80 Z M 157.492188 80 "/>
<path style=" stroke:none;fill-rule:nonzero;fill:rgb(0%,0%,0%);fill-opacity:1;" d="M 157.492188 40 L 157.492188 20 L 177.492188 20 L 177.492188 40 Z M 157.492188 40 "/>
<path style=" stroke:none;fill-rule:nonzero;fill:rgb(0%,0%,0%);fill-opacity:1;" d="M 193.492188 200 L 193.492188 180 L 213.492188 180 L 213.492188 200 Z M 193.492188 200 "/>
<path style=" stroke:none;fill-rule:nonzero;fill:rgb(0%,0%,0%);fill-opacity:1;" d="M 193.492188 160 L 193.492188 140 L 213.492188 140 L 213.492188 160 Z M 193.492188 160 "/>
<path style=" stroke:none;fill-rule:nonzero;fill:rgb(0%,0%,0%);fill-opacity:1;" d="M 193.492188 120 L 193.492188 100 L 213.492188 100 L 213.492188 120 Z M 193.492188 120 "/>
<path style=" stroke:none;fill-rule:nonzero;fill:rgb(0%,0%,0%);fill-opacity:1;" d="M 193.492188 80 L 193.492188 60 L 213.492188 60 L 213.492188 80 Z M 193.492188 80 "/>
<path style=" stroke:none;fill-rule:nonzero;fill:rgb(0%,0%,0%);fill-opacity:1;" d="M 193.492188 40 L 193.492188 20 L 213.492188 20 L 213.492188 40 Z M 193.492188 40 "/>
<path style=" stroke:none;fill-rule:nonzero;fill:rgb(0%,0%,0%);fill-opacity:1;" d="M 229.492188 200 L 229.492188 180 L 249.492188 180 L 249.492188 200 Z M 229.492188 200 "/>
<path style=" stroke:none;fill-rule:nonzero;fill:rgb(0%,0%,0%);fill-opacity:1;" d="M 229.492188 160 L 229.492188 140 L 249.492188 140 L 249.492188 160 Z M 229.492188 160 "/>
<path style=" stroke:none;fill-rule:nonzero;fill:rgb(0%,0%,0%);fill-opacity:1;" d="M 229.492188 120 L 229.492188 100 L 249.492188 100 L 249.492188 120 Z M 229.492188 120 "/>
<path style=" stroke:none;fill-rule:nonzero;fill:rgb(0%,0%,0%);fill-opacity:1;" d="M 229.492188 80 L 229.492188 60 L 249.492188 60 L 249.492188 80 Z M 229.492188 80 "/>
<path style=" stroke:none;fill-rule:nonzero;fill:rgb(0%,0%,0%);fill-opacity:1;" d="M 229.492188 40 L 229.492188 20 L 249.492188 20 L 249.492188 40 Z M 229.492188 40 "/>
<path style=" stroke:none;fill-rule:nonzero;fill:rgb(0%,0%,0%);fill-opacity:1;" d="M 265.492188 200 L 265.492188 180 L 285.492188 180 L 285.492188 200 Z M 265.492188 200 "/>
<path style=" stroke:none;fill-rule:nonzero;fill:rgb(0%,0%,0%);fill-opacity:1;" d="M 265.492188 160 L 265.492188 140 L 285.492188 140 L 285.492188 160 Z M 265.492188 160 "/>
<path style=" stroke:none;fill-rule:nonzero;fill:rgb(0%,0%,0%);fill-opacity:1;" d="M 265.492188 120 L 265.492188 100 L 285.492188 100 L 285.492188 120 Z M 265.492188 120 "/>
<path style=" stroke:none;fill-rule:nonzero;fill:rgb(0%,0%,0%);fill-opacity:1;" d="M 265.492188 80 L 265.492188 60 L 285.492188 60 L 285.492188 80 Z M 265.492188 80 "/>
<path style=" stroke:none;fill-rule:nonzero;fill:rgb(0%,0%,0%);fill-opacity:1;" d="M 265.492188 40 L 265.492188 20 L 285.492188 20 L 285.492188 40 Z M 265.492188 40 "/>
<path style=" stroke:none;fill-rule:nonzero;fill:rgb(0%,0%,0%);fill-opacity:1;" d="M 301.492188 200 L 301.492188 180 L 321.492188 180 L 321.492188 200 Z M 301.492188 200 "/>
<path style=" stroke:none;fill-rule:nonzero;fill:rgb(0%,0%,0%);fill-opacity:1;" d="M 301.492188 160 L 301.492188 140 L 321.492188 140 L 321.492188 160 Z M 301.492188 160 "/>
<path style=" stroke:none;fill-rule:nonzero;fill:rgb(0%,0%,0%);fill-opacity:1;" d="M 301.492188 120 L 301.492188 100 L 321.492188 100 L 321.492188 120 Z M 301.492188 120 "/>
<path style=" stroke:none;fill-rule:nonzero;fill:rgb(0%,0%,0%);fill-opacity:1;" d="M 301.492188 80 L 301.492188 60 L 321.492188 60 L 321.492188 80 Z M 301.492188 80 "/>
<path style=" stroke:none;fill-rule:nonzero;fill:rgb(0%,0%,0%);fill-opacity:1;" d="M 301.492188 40 L 301.492188 20 L 321.492188 20 L 321.492188 40 Z M 301.492188 40 "/>
<path style=" stroke:none;fill-rule:nonzero;fill:rgb(0%,0%,0%);fill-opacity:1;" d="M 337.492188 200 L 337.492188 180 L 357.492188 180 L 357.492188 200 Z M 337.492188 200 "/>
<path style=" stroke:none;fill-rule:nonzero;fill:rgb(0%,0%,0%);fill-opacity:1;" d="M 337.492188 160 L 337.492188 140 L 357.492188 140 L 357.492188 160 Z M 337.492188 160 "/>
<path style=" stroke:none;fill-rule:nonzero;fill:rgb(0%,0%,0%);fill-opacity:1;" d="M 337.492188 120 L 337.492188 100 L 357.492188 100 L 357.492188 120 Z M 337.492188 120 "/>
<path style=" stroke:none;fill-rule:nonzero;fill:rgb(0%,0%,0%);fill-opacity:1;" d="M 337.492188 80 L 337.492188 60 L 357.492188 60 L 357.492188 80 Z M 337.492188 80 "/>
<path style=" stroke:none;fill-rule:nonzero;fill:rgb(0%,0%,0%);fill-opacity:1;" d="M 337.492188 40 L 337.492188 20 L 357.492188 20 L 357.492188 40 Z M 337.492188 40 "/>
<path style=" stroke:none;fill-rule:nonzero;fill:rgb(0%,0%,0%);fill-opacity:1;" d="M 373.492188 200 L 373.492188 180 L 393.492188 180 L 393.492188 200 Z M 373.492188 200 "/>
<path style=" stroke:none;fill-rule:nonzero;fill:rgb(0%,0%,0%);fill-opacity:1;" d="M 373.492188 160 L 373.492188 140 L 393.492188 140 L 393.492188 160 Z M 373.492188 160 "/>
<path style=" stroke:none;fill-rule:nonzero;fill:rgb(0%,0%,0%);fill-opacity:1;" d="M 373.492188 120 L 373.492188 100 L 393.492188 100 L 393.492188 120 Z M 373.492188 120 "/>
<path style=" stroke:none;fill-rule:nonzero;fill:rgb(0%,0%,0%);fill-opacity:1;" d="M 373.492188 80 L 373.492188 60 L 393.492188 60 L 393.492188 80 Z M 373.492188 80 "/>
<path style=" stroke:none;fill-rule:nonzero;fill:rgb(0%,0%,0%);fill-opacity:1;" d="M 373.492188 40 L 373.492188 20 L 393.492188 20 L 393.492188 40 Z M 373.492188 40 "/>
<path style="fill:none;stroke-width:1;stroke-linecap:square;stroke-linejoin:miter;stroke:rgb(100%,0%,0%);stroke-opacity:1;stroke-miterlimit:3.25;" d="M 0 220 L 400 220 "/>
<path style="fill:none;stroke-width:1;stroke-linecap:square;stroke-linejoin:miter;stroke:rgb(100%,0%,0%);stroke-opacity:1;stroke-miterlimit:3.25;" d="M 0 200 L 400 200 "/>
<path style="fill:none;stroke-width:1;stroke-linecap:square;stroke-linejoin:miter;stroke:rgb(100%,0%,0%);stroke-opacity:1;stroke-miterlimit:3.25;" d="M 0 180 L 400 180 "/>
<path style="fill:none;stroke-width:1;stroke-linecap:square;stroke-linejoin:miter;stroke:rgb(100%,0%,0%);stroke-opacity:1;stroke-miterlimit:3.25;" d="M 0 160 L 400 160 "/>
<path style="fill:none;stroke-width:1;stroke-linecap:square;stroke-linejoin:miter;stroke:rgb(100%,0%,0%);stroke-opacity:1;stroke-miterlimit:3.25;" d="M 0 140 L 400 140 "/>
<path style="fill:none;stroke-width:1;stroke-linecap:square;stroke-linejoin:miter;stroke:rgb(100%,0%,0%);stroke-opacity:1;stroke-miterlimit:3.25;" d="M 0 120 L 400 120 "/>
<path style="fill:none;stroke-width:1;stroke-linecap:square;stroke-linejoin:miter;stroke:rgb(100%,0%,0%);stroke-opacity:1;stroke-miterlimit:3.25;" d="M 0 100 L 400 100 "/>
<path style="fill:none;stroke-width:1;stroke-linecap:square;stroke-linejoin:miter;stroke:rgb(100%,0%,0%);stroke-opacity:1;stroke-miterlimit:3.25;" d="M 0 80 L 400 80 "/>
<path style="fill:none;stroke-width:1;stroke-linecap:square;stroke-linejoin:miter;stroke:rgb(100%,0%,0%);stroke-opacity:1;stroke-miterlimit:3.25;" d="M 0 60 L 400 60 "/>
<path style="fill:none;stroke-width:1;stroke-linecap:square;stroke-linejoin:miter;stroke:rgb(100%,0%,0%);stroke-opacity:1;stroke-miterlimit:3.25;" d="M 0 40 L 400 40 "/>
<path style="fill:none;stroke-width:1;stroke-linecap:square;stroke-linejoin:miter;stroke:rgb(100%,0%,0%);stroke-opacity:1;stroke-miterlimit:3.25;" d="M 0 20 L 400 20 "/>
</g>
</svg>
