<?xml version="1.0" encoding="UTF-8"?>
<svg xmlns="http://www.w3.org/2000/svg" xmlns:xlink="http://www.w3.org/1999/xlink" width="400pt" height="220pt" viewBox="0 0 400 220" version="1.1">
<g id="surface506">
<rect x="0" y="0" width="400" height="220" style="fill:rgb(0%,40%,100%);fill-opacity:0.2;stroke:none;"/>
<path style=" stroke:none;fill-rule:nonzero;fill:rgb(0%,0%,0%);fill-opacity:1;" d="M 2.507812 220 L 2.507812 200 L 22.507812 200 L 22.507812 220 Z M 2.507812 220 "/>
<path style=" stroke:none;fill-rule:nonzero;fill:rgb(0%,0%,0%);fill-opacity:1;" d="M 2.507812 180 L 2.507812 160 L 22.507812 160 L 22.507812 180 Z M 2.507812 180 "/>
<path style=" stroke:none;fill-rule:nonzero;fill:rgb(0%,0%,0%);fill-opacity:1;" d="M 2.507812 140 L 2.507812 120 L 22.507812 120 L 22.507812 140 Z M 2.507812 140 "/>
<path style=" stroke:none;fill-rule:nonzero;fill:rgb(0%,0%,0%);fill-opacity:1;" d="M 2.507812 100 L 2.507812 80 L 22.507812 80 L 22.507812 100 Z M 2.507812 100 "/>
<path style=" stroke:none;fill-rule:nonzero;fill:rgb(0%,0%,0%);fill-opacity:1;" d="M 2.507812 60 L 2.507812 40 L 22.507812 40 L 22.507812 60 Z M 2.507812 60 "/>
<path style=" stroke:none;fill-rule:nonzero;fill:rgb(0%,0%,0%);fill-opacity:1;" d="M 2.507812 20 L 2.507812 0 L 22.507812 0 L 22.507812 20 Z M 2.507812 20 "/>
<path style=" stroke:none;fill-rule:nonzero;fill:rgb(0%,0%,0%);fill-opacity:1;" d="M 38.507812 220 L 38.507812 200 L 58.507812 200 L 58.507812 220 Z M 38.507812 220 "/>
<path style=" stroke:none;fill-rule:nonzero;fill:rgb(0%,0%,0%);fill-opacity:1;" d="M 38.507812 180 L 38.507812 160 L 58.507812 160 L 58.507812 180 Z M 38.507812 180 "/>
<path style=" stroke:none;fill-rule:nonzero;fill:rgb(0%,0%,0%);fill-opacity:1;" d="M 38.507812 140 L 38.507812 120 L 58.507812 120 L 58.507812 140 Z M 38.507812 140 "/>
<path style=" stroke:none;fill-rule:nonzero;fill:rgb(0%,0%,0%);fill-opacity:1;" d="M 38.507812 100 L 38.507812 80 L 58.507812 80 L 58.507812 100 Z M 38.507812 100 "/>
<path style=" stroke:none;fill-rule:nonzero;fill:rgb(0%,0%,0%);fill-opacity:1;" d="M 38.507812 60 L 38.507812 40 L 58.507812 40 L 58.507812 60 Z M 38.507812 60 "/>
<path style=" stroke:none;fill-rule:nonzero;fill:rgb(0%,0%,0%);fill-opacity:1;" d="M 38.507812 20 L 38.507812 0 L 58.507812 0 L 58.507812 20 Z M 38.507812 20 "/>
<path style=" stroke:none;fill-rule:nonzero;fill:rgb(0%,0%,0%);fill-opacity:1;" d="M 74.507812 220 L 74.507812 200 L 94.507812 200 L 94.507812 220 Z M 74.507812 220 "/>
<path style=" stroke:none;fill-rule:nonzero;fill:rgb(0%,0%,0%);fill-opacity:1;" d="M 74.507812 180 L 74.507812 160 L 94.507812 160 L 94.507812 180 Z M 74.507812 180 "/>
<path style=" stroke:none;fill-rule:nonzero;fill:rgb(0%,0%,0%);fill-opacity:1;" d="M 74.507812 140 L 74.507812 120 L 94.507812 120 L 94.507812 140 Z M 74.507812 140 "/>
<path style=" stroke:none;fill-rule:nonzero;fill:rgb(0%,0%,0%);fill-opacity:1;" d="M 74.507812 100 L 74.507812 80 L 94.507812 80 L 94.507812 100 Z M 74.507812 100 "/>
<path style=" stroke:none;fill-rule:nonzero;fill:rgb(0%,0%,0%);fill-opacity:1;" d="M 74.507812 60 L 74.507812 40 L 94.507812 40 L 94.507812 60 Z M 74.507812 60 "/>
<path style=" stroke:none;fill-rule:nonzero;fill:rgb(0%,0%,0%);fill-opacity:1;" d="M 74.507812 20 L 74.507812 0 L 94.507812 0 L 94.507812 20 Z M 74.507812 20 "/>
<path style=" stroke:none;fill-rule:nonzero;fill:rgb(0%,0%,0%);fill-opacity:1;" d="M 110.507812 220 L 110.507812 200 L 130.507812 200 L 130.507812 220 Z M 110.507812 220 "/>
<path style=" stroke:none;fill-rule:nonzero;fill:rgb(0%,0%,0%);fill-opacity:1;" d="M 110.507812 180 L 110.507812 160 L 130.507812 160 L 130.507812 180 Z M 110.507812 180 "/>
<path style=" stroke:none;fill-rule:nonzero;fill:rgb(0%,0%,0%);fill-opacity:1;" d="M 110.507812 140 L 110.507812 120 L 130.507812 120 L 130.507812 140 Z M 110.507812 140 "/>
<path style=" stroke:none;fill-rule:nonzero;fill:rgb(0%,0%,0%);fill-opacity:1;" d="M 110.507812 100 L 110.507812 80 L 130.507812 80 L 130.507812 100 Z M 110.507812 100 "/>
<path style=" stroke:none;fill-rule:nonzero;fill:rgb(0%,0%,0%);fill-opacity:1;" d="M 110.507812 60 L 110.507812 40 L 130.507812 40 L 130.507812 60 Z M 110.507812 60 "/>
<path style=" stroke:none;fill-rule:nonzero;fill:rgb(0%,0%,0%);fill-opacity:1;" d="M 110.507812 20 L 110.507812 0 L 130.507812 0 L 130.507812 20 Z M 110.507812 20 "/>
<path style=" stroke:none;fill-rule:nonzero;fill:rgb(0%,0%,0%);fill-opacity:1;" d="M 146.507812 220 L 146.507812 200 L 166.507812 200 L 166.507812 220 Z M 146.507812 220 "/>
<path style=" stroke:none;fill-rule:nonzero;fill:rgb(0%,0%,0%);fill-opacity:1;" d="M 146.507812 180 L 146.507812 160 L 166.507812 160 L 166.507812 180 Z M 146.507812 180 "/>
<path style=" stroke:none;fill-rule:nonzero;fill:rgb(0%,0%,0%);fill-opacity:1;" d="M 146.507812 140 L 146.507812 120 L 166.507812 120 L 166.507812 140 Z M 146.507812 140 "/>
<path style=" stroke:none;fill-rule:nonzero;fill:rgb(0%,0%,0%);fill-opacity:1;" d="M 146.507812 100 L 146.507812 80 L 166.507812 80 L 166.507812 100 Z M 146.507812 100 "/>
<path style=" stroke:none;fill-rule:nonzero;fill:rgb(0%,0%,0%);fill-opacity:1;" d="M 146.507812 60 L 146.507812 40 L 166.507812 40 L 166.507812 60 Z M 146.507812 60 "/>
<path style=" stroke:none;fill-rule:nonzero;fill:rgb(0%,0%,0%);fill-opacity:1;" d="M 146.507812 20 L 146.507812 0 L 166.507812 0 L 166.507812 20 Z M 146.507812 20 "/>
<path style=" stroke:none;fill-rule:nonzero;fill:rgb(0%,0%,0%);fill-opacity:1;" d="M 182.507812 220 L 182.507812 200 L 202.507812 200 L 202.507812 220 Z M 182.507812 220 "/>
<path style=" stroke:none;fill-rule:nonzero;fill:rgb(0%,0%,0%);fill-opacity:1;" d="M 182.507812 180 L 182.507812 160 L 202.507812 160 L 202.507812 180 Z M 182.507812 180 "/>
<path style=" stroke:none;fill-rule:nonzero;fill:rgb(0%,0%,0%);fill-opacity:1;" d="M 182.507812 140 L 182.507812 120 L 202.507812 120 L 202.507812 140 Z M 182.507812 140 "/>
<path style=" stroke:none;fill-rule:nonzero;fill:rgb(0%,0%,0%);fill-opacity:1;" d="M 182.507812 100 L 182.507812 80 L 202.507812 80 L 202.507812 100 Z M 182.507812 100 "/>
<path style=" stroke:none;fill-rule:nonzero;fill:rgb(0%,0%,0%);fill-opacity:1;" d="M 182.507812 60 L 182.507812 40 L 202.507812 40 L 202.507812 60 Z M 182.507812 60 "/>
<path style=" stroke:none;fill-rule:nonzero;fill:rgb(0%,0%,0%);fill-opacity:1;" d="M 182.507812 20 L 182.507812 0 L 202.507812 0 L 202.507812 20 Z M 182.507812 20 "/>
<path style=" stroke:none;fill-rule:nonzero;fill:rgb(0%,0%,0%);fill-opacity:1;" d="M 218.507812 220 L 218.507812 200 L 238.507812 200 L 238.507812 220 Z M 218.507812 220 "/>
<path style=" stroke:none;fill-rule:nonzero;fill:rgb(0%,0%,0%);fill-opacity:1;" d="M 218.507812 180 L 218.507812 160 L 238.507812 160 L 238.507812 180 Z M 218.507812 180 "/>
<path style=" stroke:none;fill-rule:nonzero;fill:rgb(0%,0%,0%);fill-opacity:1;" d="M 218.507812 140 L 218.507812 120 L 238.507812 120 L 238.507812 140 Z M 218.507812 140 "/>
<path style=" stroke:none;fill-rule:nonzero;fill:rgb(0%,0%,0%);fill-opacity:1;" d="M 218.507812 100 L 218.507812 80 L 238.507812 80 L 238.507812 100 Z M 218.507812 100 "/>
<path style=" stroke:none;fill-rule:nonzero;fill:rgb(0%,0%,0%);fill-opacity:1;" d="M 218.507812 60 L 218.507812 40 L 238.507812 40 L 238.507812 60 Z M 218.507812 60 "/>
<path style=" stroke:none;fill-rule:nonzero;fill:rgb(0%,0%,0%);fill-opacity:1;" d="M 218.507812 20 L 218.507812 0 L 238.507812 0 L 238.507812 20 Z M 218.507812 20 "/>
<path style=" stroke:none;fill-rule:nonzero;fill:rgb(0%,0%,0%);fill-opacity:1;" d="M 254.507812 220 L 254.507812 200 L 274.507812 200 L 274.507812 220 Z M 254.507812 220 "/>
<path style=" stroke:none;fill-rule:nonzero;fill:rgb(0%,0%,0%);fill-opacity:1;" d="M 254.507812 180 L 254.507812 160 L 274.507812 160 L 274.507812 180 Z M 254.507812 180 "/>
<path style=" stroke:none;fill-rule:nonzero;fill:rgb(0%,0%,0%);fill-opacity:1;" d="M 254.507812 140 L 254.507812 120 L 274.507812 120 L 274.507812 140 Z M 254.507812 140 "/>
<path style=" stroke:none;fill-rule:nonzero;fill:rgb(0%,0%,0%);fill-opacity:1;" d="M 254.507812 100 L 254.507812 80 L 274.507812 80 L 274.507812 100 Z M 254.507812 100 "/>
<path style=" stroke:none;fill-rule:nonzero;fill:rgb(0%,0%,0%);fill-opacity:1;" d="M 254.507812 60 L 254.507812 40 L 274.507812 40 L 274.507812 60 Z M 254.507812 60 "/>
<path style=" stroke:none;fill-rule:nonzero;fill:rgb(0%,0%,0%);fill-opacity:1;" d="M 254.507812 20 L 254.507812 0 L 274.507812 0 L 274.507812 20 Z M 254.507812 20 "/>
<path style=" stroke:none;fill-rule:nonzero;fill:rgb(0%,0%,0%);fill-opacity:1;" d="M 290.507812 220 L 290.507812 200 L 310.507812 200 L 310.507812 220 Z M 290.507812 220 "/>
<path style=" stroke:none;fill-rule:nonzero;fill:rgb(0%,0%,0%);fill-opacity:1;" d="M 290.507812 180 L 290.507812 160 L 310.507812 160 L 310.507812 180 Z M 290.507812 180 "/>
<path style=" stroke:none;fill-rule:nonzero;fill:rgb(0%,0%,0%);fill-opacity:1;" d="M 290.507812 140 L 290.507812 120 L 310.507812 120 L 310.507812 140 Z M 290.507812 140 "/>
<path style=" stroke:none;fill-rule:nonzero;fill:rgb(0%,0%,0%);fill-opacity:1;" d="M 290.507812 100 L 290.507812 80 L 310.507812 80 L 310.507812 100 Z M 290.507812 100 "/>
<path style=" stroke:none;fill-rule:nonzero;fill:rgb(0%,0%,0%);fill-opacity:1;" d="M 290.507812 60 L 290.507812 40 L 310.507812 40 L 310.507812 60 Z M 290.507812 60 "/>
<path style=" stroke:none;fill-rule:nonzero;fill:rgb(0%,0%,0%);fill-opacity:1;" d="M 290.507812 20 L 290.507812 0 L 310.507812 0 L 310.507812 20 Z M 290.507812 20 "/>
<path style=" stroke:none;fill-rule:nonzero;fill:rgb(0%,0%,0%);fill-opacity:1;" d="M 326.507812 220 L 326.507812 200 L 346.507812 200 L 346.507812 220 Z M 326.507812 220 "/>
<path style=" stroke:none;fill-rule:nonzero;fill:rgb(0%,0%,0%);fill-opacity:1;" d="M 326.507812 180 L 326.507812 160 L 346.507812 160 L 346.507812 180 Z M 326.507812 180 "/>
<path style=" stroke:none;fill-rule:nonzero;fill:rgb(0%,0%,0%);fill-opacity:1;" d="M 326.507812 140 L 326.507812 120 L 346.507812 120 L 346.507812 140 Z M 326.507812 140 "/>
<path style=" stroke:none;fill-rule:nonzero;fill:rgb(0%,0%,0%);fill-opacity:1;" d="M 326.507812 100 L 326.507812 80 L 346.507812 80 L 346.507812 100 Z M 326.507812 100 "/>
<path style=" stroke:none;fill-rule:nonzero;fill:rgb(0%,0%,0%);fill-opacity:1;" d="M 326.507812 60 L 326.507812 40 L 346.507812 40 L 346.507812 60 Z M 326.507812 60 "/>
<path style=" stroke:none;fill-rule:nonzero;fill:rgb(0%,0%,0%);fill-opacity:1;" d="M 326.507812 20 L 326.507812 0 L 346.507812 0 L 346.507812 20 Z M 326.507812 20 "/>
<path style=" stroke:none;fill-rule:nonzero;fill:rgb(0%,0%,0%);fill-opacity:1;" d="M 362.507812 220 L 362.507812 200 L 382.507812 200 L 382.507812 220 Z M 362.507812 220 "/>
<path style=" stroke:none;fill-rule:nonzero;fill:rgb(0%,0%,0%);fill-opacity:1;" d="M 362.507812 180 L 362.507812 160 L 382.507812 160 L 382.507812 180 Z M 362.507812 180 "/>
<path style=" stroke:none;fill-rule:nonzero;fill:rgb(0%,0%,0%);fill-opacity:1;" d="M 362.507812 140 L 362.507812 120 L 382.507812 120 L 382.507812 140 Z M 362.507812 140 "/>
<path style=" stroke:none;fill-rule:nonzero;fill:rgb(0%,0%,0%);fill-opacity:1;" d="M 362.507812 100 L 362.507812 80 L 382.507812 80 L 382.507812 100 Z M 362.507812 100 "/>
<path style=" stroke:none;fill-rule:nonzero;fill:rgb(0%,0%,0%);fill-opacity:1;" d="M 362.507812 60 L 362.507812 40 L 382.507812 40 L 382.507812 60 Z M 362.507812 60 "/>
<path style=" stroke:none;fill-rule:nonzero;fill:rgb(0%,0%,0%);fill-opacity:1;" d="M 362.507812 20 L 362.507812 0 L 382.507812 0 L 382.507812 20 Z M 362.507812 20 "/>
<path style=" stroke:none;fill-rule:nonzero;fill:rgb(0%,0%,0%);fill-opacity:1;" d="M 398.507812 220 L 398.507812 200 L 418.507812 200 L 418.507812 220 Z M 398.507812 220 "/>
<path style=" stroke:none;fill-rule:nonzero;fill:rgb(0%,0%,0%);fill-opacity:1;" d="M 398.507812 180 L 398.507812 160 L 418.507812 160 L 418.507812 180 Z M 398.507812 180 "/>
<path style=" stroke:none;fill-rule:nonzero;fill:rgb(0%,0%,0%);fill-opacity:1;" d="M 398.507812 140 L 398.507812 120 L 418.507812 120 L 418.507812 140 Z M 398.507812 140 "/>
<path style=" stroke:none;fill-rule:nonzero;fill:rgb(0%,0%,0%);fill-opacity:1;" d="M 398.507812 100 L 398.507812 80 L 418.507812 80 L 418.507812 100 Z M 398.507812 100 "/>
<path style=" stroke:none;fill-rule:nonzero;fill:rgb(0%,0%,0%);fill-opacity:1;" d="M 398.507812 60 L 398.507812 40 L 418.507812 40 L 418.507812 60 Z M 398.507812 60 "/>
<path style=" stroke:none;fill-rule:nonzero;fill:rgb(0%,0%,0%);fill-opacity:1;" d="M 398.507812 20 L 398.507812 0 L 418.507812 0 L 418.507812 20 Z M 398.507812 20 "/>
<path style=" stroke:none;fill-rule:nonzero;fill:rgb(0%,0%,0%);fill-opacity:1;" d="M -3.84375 200 L -3.84375 180 L 16.15625 180 L 16.15625 200 Z M -3.84375 200 "/>
<path style=" stroke:none;fill-rule:nonzero;fill:rgb(0%,0%,0%);fill-opacity:1;" d="M -3.84375 160 L -3.84375 140 L 16.15625 140 L 16.15625 160 Z M -3.84375 160 "/>
<path style=" stroke:none;fill-rule:nonzero;fill:rgb(0%,0%,0%);fill-opacity:1;" d="M -3.84375 120 L -3.84375 100 L 16.15625 100 L 16.15625 120 Z M -3.84375 120 "/>
<path style=" stroke:none;fill-rule:nonzero;fill:rgb(0%,0%,0%);fill-opacity:1;" d="M -3.84375 80 L -3.84375 60 L 16.15625 60 L 16.15625 80 Z M -3.84375 80 "/>
<path style=" stroke:none;fill-rule:nonzero;fill:rgb(0%,0%,0%);fill-opacity:1;" d="M -3.84375 40 L -3.84375 20 L 16.15625 20 L 16.15625 40 Z M -3.84375 40 "/>
<path style=" stroke:none;fill-rule:nonzero;fill:rgb(0%,0%,0%);fill-opacity:1;" d="M 32.15625 200 L 32.15625 180 L 52.15625 180 L 52.15625 200 Z M 32.15625 200 "/>
<path style=" stroke:none;fill-rule:nonzero;fill:rgb(0%,0%,0%);fill-opacity:1;" d="M 32.15625 160 L 32.15625 140 L 52.15625 140 L 52.15625 160 Z M 32.15625 160 "/>
<path style=" stroke:none;fill-rule:nonzero;fill:rgb(0%,0%,0%);fill-opacity:1;" d="M 32.15625 120 L 32.15625 100 L 52.15625 100 L 52.15625 120 Z M 32.15625 120 "/>
<path style=" stroke:none;fill-rule:nonzero;fill:rgb(0%,0%,0%);fill-opacity:1;" d="M 32.15625 80 L 32.15625 60 L 52.15625 60 L 52.15625 80 Z M 32.15625 80 "/>
<path style=" stroke:none;fill-rule:nonzero;fill:rgb(0%,0%,0%);fill-opacity:1;" d="M 32.15625 40 L 32.15625 20 L 52.15625 20 L 52.15625 40 Z M 32.15625 40 "/>
<path style=" stroke:none;fill-rule:nonzero;fill:rgb(0%,0%,0%);fill-opacity:1;" d="M 68.15625 200 L 68.15625 180 L 88.15625 180 L 88.15625 200 Z M 68.15625 200 "/>
<path style=" stroke:none;fill-rule:nonzero;fill:rgb(0%,0%,0%);fill-opacity:1;" d="M 68.15625 160 L 68.15625 140 L 88.15625 140 L 88.15625 160 Z M 68.15625 160 "/>
<path style=" stroke:none;fill-rule:nonzero;fill:rgb(0%,0%,0%);fill-opacity:1;" d="M 68.15625 120 L 68.15625 100 L 88.15625 100 L 88.15625 120 Z M 68.15625 120 "/>
<path style=" stroke:none;fill-rule:nonzero;fill:rgb(0%,0%,0%);fill-opacity:1;" d="M 68.15625 80 L 68.15625 60 L 88.15625 60 L 88.15625 80 Z M 68.15625 80 "/>
<path style=" stroke:none;fill-rule:nonzero;fill:rgb(0%,0%,0%);fill-opacity:1;" d="M 68.15625 40 L 68.15625 20 L 88.15625 20 L 88.15625 40 Z M 68.15625 40 "/>
<path style=" stroke:none;fill-rule:nonzero;fill:rgb(0%,0%,0%);fill-opacity:1;" d="M 104.15625 200 L 104.15625 180 L 124.15625 180 L 124.15625 200 Z M 104.15625 200 "/>
<path style=" stroke:none;fill-rule:nonzero;fill:rgb(0%,0%,0%);fill-opacity:1;" d="M 104.15625 160 L 104.15625 140 L 124.15625 140 L 124.15625 160 Z M 104.15625 160 "/>
<path style=" stroke:none;fill-rule:nonzero;fill:rgb(0%,0%,0%);fill-opacity:1;" d="M 104.15625 120 L 104.15625 100 L 124.15625 100 L 124.15625 120 Z M 104.15625 120 "/>
<path style=" stroke:none;fill-rule:nonzero;fill:rgb(0%,0%,0%);fill-opacity:1;" d="M 104.15625 80 L 104.15625 60 L 124.15625 60 L 124.15625 80 Z M 104.15625 80 "/>
<path style=" stroke:none;fill-rule:nonzero;fill:rgb(0%,0%,0%);fill-opacity:1;" d="M 104.15625 40 L 104.15625 20 L 124.15625 20 L 124.15625 40 Z M 104.15625 40 "/>
<path style=" stroke:none;fill-rule:nonzero;fill:rgb(0%,0%,0%);fill-opacity:1;" d="M 140.15625 200 L 140.15625 180 L 160.15625 180 L 160.15625 200 Z M 140.15625 200 "/>
<path style=" stroke:none;fill-rule:nonzero;fill:rgb(0%,0%,0%);fill-opacity:1;" d="M 140.15625 160 L 140.15625 140 L 160.15625 140 L 160.15625 160 Z M 140.15625 160 "/>
<path style=" stroke:none;fill-rule:nonzero;fill:rgb(0%,0%,0%);fill-opacity:1;" d="M 140.15625 120 L 140.15625 100 L 160.15625 100 L 160.15625 120 Z M 140.15625 120 "/>
<path style=" stroke:none;fill-rule:nonzero;fill:rgb(0%,0%,0%);fill-opacity:1;" d="M 140.15625 80 L 140.15625 60 L 160.15625 60 L 160.15625 80 Z M 140.15625 80 "/>
<path style=" stroke:none;fill-rule:nonzero;fill:rgb(0%,0%,0%);fill-opacity:1;" d="M 140.15625 40 L 140.15625 20 L 160.15625 20 L 160.15625 40 Z M 140.15625 40 "/>
<path style=" stroke:none;fill-rule:nonzero;fill:rgb(0%,0%,0%);fill-opacity:1;" d="M 176.15625 200 L 176.15625 180 L 196.15625 180 L 196.15625 200 Z M 176.15625 200 "/>
<path style=" stroke:none;fill-rule:nonzero;fill:rgb(0%,0%,0%);fill-opacity:1;" d="M 176.15625 160 L 176.15625 140 L 196.15625 140 L 196.15625 160 Z M 176.15625 160 "/>
<path style=" stroke:none;fill-rule:nonzero;fill:rgb(0%,0%,0%);fill-opacity:1;" d="M 176.15625 120 L 176.15625 100 L 196.15625 100 L 196.15625 120 Z M 176.15625 120 "/>
<path style=" stroke:none;fill-rule:nonzero;fill:rgb(0%,0%,0%);fill-opacity:1;" d="M 176.15625 80 L 176.15625 60 L 196.15625 60 L 196.15625 80 Z M 176.15625 80 "/>
<path style=" stroke:none;fill-rule:nonzero;fill:rgb(0%,0%,0%);fill-opacity:1;" d="M 176.15625 40 L 176.15625 20 L 196.15625 20 L 196.15625 40 Z M 176.15625 40 "/>
<path style=" stroke:none;fill-rule:nonzero;fill:rgb(0%,0%,0%);fill-opacity:1;" d="M 212.15625 200 L 212.15625 180 L 232.15625 180 L 232.15625 200 Z M 212.15625 200 "/>
<path style=" stroke:none;fill-rule:nonzero;fill:rgb(0%,0%,0%);fill-opacity:1;" d="M 212.15625 160 L 212.15625 140 L 232.15625 140 L 232.15625 160 Z M 212.15625 160 "/>
<path style=" stroke:none;fill-rule:nonzero;fill:rgb(0%,0%,0%);fill-opacity:1;" d="M 212.15625 120 L 212.15625 100 L 232.15625 100 L 232.15625 120 Z M 212.15625 120 "/>
<path style=" stroke:none;fill-rule:nonzero;fill:rgb(0%,0%,0%);fill-opacity:1;" d="M 212.15625 80 L 212.15625 60 L 232.15625 60 L 232.15625 80 Z M 212.15625 80 "/>
<path style=" stroke:none;fill-rule:nonzero;fill:rgb(0%,0%,0%);fill-opacity:1;" d="M 212.15625 40 L 212.15625 20 L 232.15625 20 L 232.15625 40 Z M 212.15625 40 "/>
<path style=" stroke:none;fill-rule:nonzero;fill:rgb(0%,0%,0%);fill-opacity:1;" d="M 248.15625 200 L 248.15625 180 L 268.15625 180 L 268.15625 200 Z M 248.15625 200 "/>
<path style=" stroke:none;fill-rule:nonzero;fill:rgb(0%,0%,0%);fill-opacity:1;" d="M 248.15625 160 L 248.15625 140 L 268.15625 140 L 268.15625 160 Z M 248.15625 160 "/>
<path style=" stroke:none;fill-rule:nonzero;fill:rgb(0%,0%,0%);fill-opacity:1;" d="M 248.15625 120 L 248.15625 100 L 268.15625 100 L 268.15625 120 Z M 248.15625 120 "/>
<path style=" stroke:none;fill-rule:nonzero;fill:rgb(0%,0%,0%);fill-opacity:1;" d="M 248.15625 80 L 248.15625 60 L 268.15625 60 L 268.15625 80 Z M 248.15625 80 "/>
<path style=" stroke:none;fill-rule:nonzero;fill:rgb(0%,0%,0%);fill-opacity:1;" d="M 248.15625 40 L 248.15625 20 L 268.15625 20 L 268.15625 40 Z M 248.15625 40 "/>
<path style=" stroke:none;fill-rule:nonzero;fill:rgb(0%,0%,0%);fill-opacity:1;" d="M 284.15625 200 L 284.15625 180 L 304.15625 180 L 304.15625 200 Z M 284.15625 200 "/>
<path style=" stroke:none;fill-rule:nonzero;fill:rgb(0%,0%,0%);fill-opacity:1;" d="M 284.15625 160 L 284.15625 140 L 304.15625 140 L 304.15625 160 Z M 284.15625 160 "/>
<path style=" stroke:none;fill-rule:nonzero;fill:rgb(0%,0%,0%);fill-opacity:1;" d="M 284.15625 120 L 284.15625 100 L 304.15625 100 L 304.15625 120 Z M 284.15625 120 "/>
<path style=" stroke:none;fill-rule:nonzero;fill:rgb(0%,0%,0%);fill-opacity:1;" d="M 284.15625 80 L 284.15625 60 L 304.15625 60 L 304.15625 80 Z M 284.15625 80 "/>
<path style=" stroke:none;fill-rule:nonzero;fill:rgb(0%,0%,0%);fill-opacity:1;" d="M 284.15625 40 L 284.15625 20 L 304.15625 20 L 304.15625 40 Z M 284.15625 40 "/>
<path style=" stroke:none;fill-rule:nonzero;fill:rgb(0%,0%,0%);fill-opacity:1;" d="M 320.15625 200 L 320.15625 180 L 340.15625 180 L 340.15625 200 Z M 320.15625 200 "/>
<path style=" stroke:none;fill-rule:nonzero;fill:rgb(0%,0%,0%);fill-opacity:1;" d="M 320.15625 160 L 320.15625 140 L 340.15625 140 L 340.15625 160 Z M 320.15625 160 "/>
<path style=" stroke:none;fill-rule:nonzero;fill:rgb(0%,0%,0%);fill-opacity:1;" d="M 320.15625 120 L 320.15625 100 L 340.15625 100 L 340.15625 120 Z M 320.15625 120 "/>
<path style=" stroke:none;fill-rule:nonzero;fill:rgb(0%,0%,0%);fill-opacity:1;" d="M 320.15625 80 L 320.15625 60 L 340.15625 60 L 340.15625 80 Z M 320.15625 80 "/>
<path style=" stroke:none;fill-rule:nonzero;fill:rgb(0%,0%,0%);fill-opacity:1;" d="M 320.15625 40 L 320.15625 20 L 340.15625 20 L 340.15625 40 Z M 320.15625 40 "/>
<path style=" stroke:none;fill-rule:nonzero;fill:rgb(0%,0%,0%);fill-opacity:1;" d="M 356.15625 200 L 356.15625 180 L 376.15625 180 L 376.15625 200 Z M 356.15625 200 "/>
<path style=" stroke:none;fill-rule:nonzero;fill:rgb(0%,0%,0%);fill-opacity:1;" d="M 356.15625 160 L 356.15625 140 L 376.15625 140 L 376.15625 160 Z M 356.15625 160 "/>
<path style=" stroke:none;fill-rule:nonzero;fill:rgb(0%,0%,0%);fill-opacity:1;" d="M 356.15625 120 L 356.15625 100 L 376.15625 100 L 376.15625 120 Z M 356.15625 120 "/>
<path style=" stroke:none;fill-rule:nonzero;fill:rgb(0%,0%,0%);fill-opacity:1;" d="M 356.15625 80 L 356.15625 60 L 376.15625 60 L 376.15625 80 Z M 356.15625 80 "/>
<path style=" stroke:none;fill-rule:nonzero;fill:rgb(0%,0%,0%);fill-opacity:1;" d="M 356.15625 40 L 356.15625 20 L 376.15625 20 L 376.15625 40 Z M 356.15625 40 "/>
<path style="fill:none;stroke-width:1;stroke-linecap:square;stroke-linejoin:miter;stroke:rgb(100%,0%,0%);stroke-opacity:1;stroke-miterlimit:3.25;" d="M 0 220 L 400 220 "/>
<path style="fill:none;stroke-width:1;stroke-linecap:square;stroke-linejoin:miter;stroke:rgb(100%,0%,0%);stroke-opacity:1;stroke-miterlimit:3.25;" d="M 0 200 L 400 200 "/>
<path style="fill:none;stroke-width:1;stroke-linecap:square;stroke-linejoin:miter;stroke:rgb(100%,0%,0%);stroke-opacity:1;stroke-miterlimit:3.25;" d="M 0 180 L 400 180 "/>
<path style="fill:none;stroke-width:1;stroke-linecap:square;stroke-linejoin:miter;stroke:rgb(100%,0%,0%);stroke-opacity:1;stroke-miterlimit:3.25;" d="M 0 160 L 400 160 "/>
<path style="fill:none;stroke-width:1;stroke-linecap:square;stroke-linejoin:miter;stroke:rgb(100%,0%,0%);stroke-opacity:1;stroke-miterlimit:3.25;" d="M 0 140 L 400 140 "/>
<path style="fill:none;stroke-width:1;stroke-linecap:square;stroke-linejoin:miter;stroke:rgb(100%,0%,0%);stroke-opacity:1;stroke-miterlimit:3.25;" d="M 0 120 L 400 120 "/>
<path style="fill:none;stroke-width:1;stroke-linecap:square;stroke-linejoin:miter;stroke:rgb(100%,0%,0%);stroke-opacity:1;stroke-miterlimit:3.25;" d="M 0 100 L 400 100 "/>
<path style="fill:none;stroke-width:1;stroke-linecap:square;stroke-linejoin:miter;stroke:rgb(100%,0%,0%);stroke-opacity:1;stroke-miterlimit:3.25;" d="M 0 80 L 400 80 "/>
<path style="fill:none;stroke-width:1;stroke-linecap:square;stroke-linejoin:miter;stroke:rgb(100%,0%,0%);stroke-opacity:1;stroke-miterlimit:3.25;" d="M 0 60 L 400 60 "/>
<path style="fill:none;stroke-width:1;stroke-linecap:square;stroke-linejoin:miter;stroke:rgb(100%,0%,0%);stroke-opacity:1;stroke-miterlimit:3.25;" d="M 0 40 L 400 40 "/>
<path style="fill:none;stroke-width:1;stroke-linecap:square;stroke-linejoin:miter;stroke:rgb(100%,0%,0%);stroke-opacity:1;stroke-miterlimit:3.25;" d="M 0 20 L 400 20 "/>
</g>
</svg>
