<?xml version="1.0" encoding="UTF-8"?>
<svg xmlns="http://www.w3.org/2000/svg" xmlns:xlink="http://www.w3.org/1999/xlink" width="400pt" height="220pt" viewBox="0 0 400 220" version="1.1">
<g id="surface796">
<rect x="0" y="0" width="400" height="220" style="fill:rgb(0%,40%,100%);fill-opacity:0.2;stroke:none;"/>
<path style=" stroke:none;fill-rule:nonzero;fill:rgb(0%,0%,0%);fill-opacity:1;" d="M -11.753906 220 L -11.753906 200 L 8.246094 200 L 8.246094 220 Z M -11.753906 220 "/>
<path style=" stroke:none;fill-rule:nonzero;fill:rgb(0%,0%,0%);fill-opacity:1;" d="M -11.753906 180 L -11.753906 160 L 8.246094 160 L 8.246094 180 Z M -11.753906 180 "/>
<path style=" stroke:none;fill-rule:nonzero;fill:rgb(0%,0%,0%);fill-opacity:1;" d="M -11.753906 140 L -11.753906 120 L 8.246094 120 L 8.246094 140 Z M -11.753906 140 "/>
<path style=" stroke:none;fill-rule:nonzero;fill:rgb(0%,0%,0%);fill-opacity:1;" d="M -11.753906 100 L -11.753906 80 L 8.246094 80 L 8.246094 100 Z M -11.753906 100 "/>
<path style=" stroke:none;fill-rule:nonzero;fill:rgb(0%,0%,0%);fill-opacity:1;" d="M -11.753906 60 L -11.753906 40 L 8.246094 40 L 8.246094 60 Z M -11.753906 60 "/>
<path style=" stroke:none;fill-rule:nonzero;fill:rgb(0%,0%,0%);fill-opacity:1;" d="M -11.753906 20 L -11.753906 0 L 8.246094 0 L 8.246094 20 Z M -11.753906 20 "/>
<path style=" stroke:none;fill-rule:nonzero;fill:rgb(0%,0%,0%);fill-opacity:1;" d="M 24.246094 220 L 24.246094 200 L 44.246094 200 L 44.246094 220 Z M 24.246094 220 "/>
<path style=" stroke:none;fill-rule:nonzero;fill:rgb(0%,0%,0%);fill-opacity:1;" d="M 24.246094 180 L 24.246094 160 L 44.246094 160 L 44.246094 180 Z M 24.246094 180 "/>
<path style=" stroke:none;fill-rule:nonzero;fill:rgb(0%,0%,0%);fill-opacity:1;" d="M 24.246094 140 L 24.246094 120 L 44.246094 120 L 44.246094 140 Z M 24.246094 140 "/>
<path style=" stroke:none;fill-rule:nonzero;fill:rgb(0%,0%,0%);fill-opacity:1;" d="M 24.246094 100 L 24.246094 80 L 44.246094 80 L 44.246094 100 Z M 24.246094 100 "/>
<path style=" stroke:none;fill-rule:nonzero;fill:rgb(0%,0%,0%);fill-opacity:1;" d="M 24.246094 60 L 24.246094 40 L 44.246094 40 L 44.246094 60 Z M 24.246094 60 "/>
<path style=" stroke:none;fill-rule:nonzero;fill:rgb(0%,0%,0%);fill-opacity:1;" d="M 24.246094 20 L 24.246094 0 L 44.246094 0 L 44.246094 20 Z M 24.246094 20 "/>
<path style=" stroke:none;fill-rule:nonzero;fill:rgb(0%,0%,0%);fill-opacity:1;" d="M 60.246094 220 L 60.246094 200 L 80.246094 200 L 80.246094 220 Z M 60.246094 220 "/>
<path style=" stroke:none;fill-rule:nonzero;fill:rgb(0%,0%,0%);fill-opacity:1;" d="M 60.246094 180 L 60.246094 160 L 80.246094 160 L 80.246094 180 Z M 60.246094 180 "/>
<path style=" stroke:none;fill-rule:nonzero;fill:rgb(0%,0%,0%);fill-opacity:1;" d="M 60.246094 140 L 60.246094 120 L 80.246094 120 L 80.246094 140 Z M 60.246094 140 "/>
<path style=" stroke:none;fill-rule:nonzero;fill:rgb(0%,0%,0%);fill-opacity:1;" d="M 60.246094 100 L 60.246094 80 L 80.246094 80 L 80.246094 100 Z M 60.246094 100 "/>
<path style=" stroke:none;fill-rule:nonzero;fill:rgb(0%,0%,0%);fill-opacity:1;" d="M 60.246094 60 L 60.246094 40 L 80.246094 40 L 80.246094 60 Z M 60.246094 60 "/>
<path style=" stroke:none;fill-rule:nonzero;fill:rgb(0%,0%,0%);fill-opacity:1;" d="M 60.246094 20 L 60.246094 0 L 80.246094 0 L 80.246094 20 Z M 60.246094 20 "/>
<path style=" stroke:none;fill-rule:nonzero;fill:rgb(0%,0%,0%);fill-opacity:1;" d="M 96.246094 220 L 96.246094 200 L 116.246094 200 L 116.246094 220 Z M 96.246094 220 "/>
<path style=" stroke:none;fill-rule:nonzero;fill:rgb(0%,0%,0%);fill-opacity:1;" d="M 96.246094 180 L 96.246094 160 L 116.246094 160 L 116.246094 180 Z M 96.246094 180 "/>
<path style=" stroke:none;fill-rule:nonzero;fill:rgb(0%,0%,0%);fill-opacity:1;" d="M 96.246094 140 L 96.246094 120 L 116.246094 120 L 116.246094 140 Z M 96.246094 140 "/>
<path style=" stroke:none;fill-rule:nonzero;fill:rgb(0%,0%,0%);fill-opacity:1;" d="M 96.246094 100 L 96.246094 80 L 116.246094 80 L 116.246094 100 Z M 96.246094 100 "/>
<path style=" stroke:none;fill-rule:nonzero;fill:rgb(0%,0%,0%);fill-opacity:1;" d="M 96.246094 60 L 96.246094 40 L 116.246094 40 L 116.246094 60 Z M 96.246094 60 "/>
<path style=" stroke:none;fill-rule:nonzero;fill:rgb(0%,0%,0%);fill-opacity:1;" d="M 96.246094 20 L 96.246094 0 L 116.246094 0 L 116.246094 20 Z M 96.246094 20 "/>
<path style=" stroke:none;fill-rule:nonzero;fill:rgb(0%,0%,0%);fill-opacity:1;" d="M 132.246094 220 L 132.246094 200 L 152.246094 200 L 152.246094 220 Z M 132.246094 220 "/>
<path style=" stroke:none;fill-rule:nonzero;fill:rgb(0%,0%,0%);fill-opacity:1;" d="M 132.246094 180 L 132.246094 160 L 152.246094 160 L 152.246094 180 Z M 132.246094 180 "/>
<path style=" stroke:none;fill-rule:nonzero;fill:rgb(0%,0%,0%);fill-opacity:1;" d="M 132.246094 140 L 132.246094 120 L 152.246094 120 L 152.246094 140 Z M 132.246094 140 "/>
<path style=" stroke:none;fill-rule:nonzero;fill:rgb(0%,0%,0%);fill-opacity:1;" d="M 132.246094 100 L 132.246094 80 L 152.246094 80 L 152.246094 100 Z M 132.246094 100 "/>
<path style=" stroke:none;fill-rule:nonzero;fill:rgb(0%,0%,0%);fill-opacity:1;" d="M 132.246094 60 L 132.246094 40 L 152.246094 40 L 152.246094 60 Z M 132.246094 60 "/>
<path style=" stroke:none;fill-rule:nonzero;fill:rgb(0%,0%,0%);fill-opacity:1;" d="M 132.246094 20 L 132.246094 0 L 152.246094 0 L 152.246094 20 Z M 132.246094 20 "/>
<path style=" stroke:none;fill-rule:nonzero;fill:rgb(0%,0%,0%);fill-opacity:1;" d="M 168.246094 220 L 168.246094 200 L 188.246094 200 L 188.246094 220 Z M 168.246094 220 "/>
<path style=" stroke:none;fill-rule:nonzero;fill:rgb(0%,0%,0%);fill-opacity:1;" d="M 168.246094 180 L 168.246094 160 L 188.246094 160 L 188.246094 180 Z M 168.246094 180 "/>
<path style=" stroke:none;fill-rule:nonzero;fill:rgb(0%,0%,0%);fill-opacity:1;" d="M 168.246094 140 L 168.246094 120 L 188.246094 120 L 188.246094 140 Z M 168.246094 140 "/>
<path style=" stroke:none;fill-rule:nonzero;fill:rgb(0%,0%,0%);fill-opacity:1;" d="M 168.246094 100 L 168.246094 80 L 188.246094 80 L 188.246094 100 Z M 168.246094 100 "/>
<path style=" stroke:none;fill-rule:nonzero;fill:rgb(0%,0%,0%);fill-opacity:1;" d="M 168.246094 60 L 168.246094 40 L 188.246094 40 L 188.246094 60 Z M 168.246094 60 "/>
<path style=" stroke:none;fill-rule:nonzero;fill:rgb(0%,0%,0%);fill-opacity:1;" d="M 168.246094 20 L 168.246094 0 L 188.246094 0 L 188.246094 20 Z M 168.246094 20 "/>
<path style=" stroke:none;fill-rule:nonzero;fill:rgb(0%,0%,0%);fill-opacity:1;" d="M 204.246094 220 L 204.246094 200 L 224.246094 200 L 224.246094 220 Z M 204.246094 220 "/>
<path style=" stroke:none;fill-rule:nonzero;fill:rgb(0%,0%,0%);fill-opacity:1;" d="M 204.246094 180 L 204.246094 160 L 224.246094 160 L 224.246094 180 Z M 204.246094 180 "/>
<path style=" stroke:none;fill-rule:nonzero;fill:rgb(0%,0%,0%);fill-opacity:1;" d="M 204.246094 140 L 204.246094 120 L 224.246094 120 L 224.246094 140 Z M 204.246094 140 "/>
<path style=" stroke:none;fill-rule:nonzero;fill:rgb(0%,0%,0%);fill-opacity:1;" d="M 204.246094 100 L 204.246094 80 L 224.246094 80 L 224.246094 100 Z M 204.246094 100 "/>
<path style=" stroke:none;fill-rule:nonzero;fill:rgb(0%,0%,0%);fill-opacity:1;" d="M 204.246094 60 L 204.246094 40 L 224.246094 40 L 224.246094 60 Z M 204.246094 60 "/>
<path style=" stroke:none;fill-rule:nonzero;fill:rgb(0%,0%,0%);fill-opacity:1;" d="M 204.246094 20 L 204.246094 0 L 224.246094 0 L 224.246094 20 Z M 204.246094 20 "/>
<path style=" stroke:none;fill-rule:nonzero;fill:rgb(0%,0%,0%);fill-opacity:1;" d="M 240.246094 220 L 240.246094 200 L 260.246094 200 L 260.246094 220 Z M 240.246094 220 "/>
<path style=" stroke:none;fill-rule:nonzero;fill:rgb(0%,0%,0%);fill-opacity:1;" d="M 240.246094 180 L 240.246094 160 L 260.246094 160 L 260.246094 180 Z M 240.246094 180 "/>
<path style=" stroke:none;fill-rule:nonzero;fill:rgb(0%,0%,0%);fill-opacity:1;" d="M 240.246094 140 L 240.246094 120 L 260.246094 120 L 260.246094 140 Z M 240.246094 140 "/>
<path style=" stroke:none;fill-rule:nonzero;fill:rgb(0%,0%,0%);fill-opacity:1;" d="M 240.246094 100 L 240.246094 80 L 260.246094 80 L 260.246094 100 Z M 240.246094 100 "/>
<path style=" stroke:none;fill-rule:nonzero;fill:rgb(0%,0%,0%);fill-opacity:1;" d="M 240.246094 60 L 240.246094 40 L 260.246094 40 L 260.246094 60 Z M 240.246094 60 "/>
<path style=" stroke:none;fill-rule:nonzero;fill:rgb(0%,0%,0%);fill-opacity:1;" d="M 240.246094 20 L 240.246094 0 L 260.246094 0 L 260.246094 20 Z M 240.246094 20 "/>
<path style=" stroke:none;fill-rule:nonzero;fill:rgb(0%,0%,0%);fill-opacity:1;" d="M 276.246094 220 L 276.246094 200 L 296.246094 200 L 296.246094 220 Z M 276.246094 220 "/>
<path style=" stroke:none;fill-rule:nonzero;fill:rgb(0%,0%,0%);fill-opacity:1;" d="M 276.246094 180 L 276.246094 160 L 296.246094 160 L 296.246094 180 Z M 276.246094 180 "/>
<path style=" stroke:none;fill-rule:nonzero;fill:rgb(0%,0%,0%);fill-opacity:1;" d="M 276.246094 140 L 276.246094 120 L 296.246094 120 L 296.246094 140 Z M 276.246094 140 "/>
<path style=" stroke:none;fill-rule:nonzero;fill:rgb(0%,0%,0%);fill-opacity:1;" d="M 276.246094 100 L 276.246094 80 L 296.246094 80 L 296.246094 100 Z M 276.246094 100 "/>
<path style=" stroke:none;fill-rule:nonzero;fill:rgb(0%,0%,0%);fill-opacity:1;" d="M 276.246094 60 L 276.246094 40 L 296.246094 40 L 296.246094 60 Z M 276.246094 60 "/>
<path style=" stroke:none;fill-rule:nonzero;fill:rgb(0%,0%,0%);fill-opacity:1;" d="M 276.246094 20 L 276.246094 0 L 296.246094 0 L 296.246094 20 Z M 276.246094 20 "/>
<path style=" stroke:none;fill-rule:nonzero;fill:rgb(0%,0%,0%);fill-opacity:1;" d="M 312.246094 220 L 312.246094 200 L 332.246094 200 L 332.246094 220 Z M 312.246094 220 "/>
<path style=" stroke:none;fill-rule:nonzero;fill:rgb(0%,0%,0%);fill-opacity:1;" d="M 312.246094 180 L 312.246094 160 L 332.246094 160 L 332.246094 180 Z M 312.246094 180 "/>
<path style=" stroke:none;fill-rule:nonzero;fill:rgb(0%,0%,0%);fill-opacity:1;" d="M 312.246094 140 L 312.246094 120 L 332.246094 120 L 332.246094 140 Z M 312.246094 140 "/>
<path style=" stroke:none;fill-rule:nonzero;fill:rgb(0%,0%,0%);fill-opacity:1;" d="M 312.246094 100 L 312.246094 80 L 332.246094 80 L 332.246094 100 Z M 312.246094 100 "/>
<path style=" stroke:none;fill-rule:nonzero;fill:rgb(0%,0%,0%);fill-opacity:1;" d="M 312.246094 60 L 312.246094 40 L 332.246094 40 L 332.246094 60 Z M 312.246094 60 "/>
<path style=" stroke:none;fill-rule:nonzero;fill:rgb(0%,0%,0%);fill-opacity:1;" d="M 312.246094 20 L 312.246094 0 L 332.246094 0 L 332.246094 20 Z M 312.246094 20 "/>
<path style=" stroke:none;fill-rule:nonzero;fill:rgb(0%,0%,0%);fill-opacity:1;" d="M 348.246094 220 L 348.246094 200 L 368.246094 200 L 368.246094 220 Z M 348.246094 220 "/>
<path style=" stroke:none;fill-rule:nonzero;fill:rgb(0%,0%,0%);fill-opacity:1;" d="M 348.246094 180 L 348.246094 160 L 368.246094 160 L 368.246094 180 Z M 348.246094 180 "/>
<path style=" stroke:none;fill-rule:nonzero;fill:rgb(0%,0%,0%);fill-opacity:1;" d="M 348.246094 140 L 348.246094 120 L 368.246094 120 L 368.246094 140 Z M 348.246094 140 "/>
<path style=" stroke:none;fill-rule:nonzero;fill:rgb(0%,0%,0%);fill-opacity:1;" d="M 348.246094 100 L 348.246094 80 L 368.246094 80 L 368.246094 100 Z M 348.246094 100 "/>
<path style=" stroke:none;fill-rule:nonzero;fill:rgb(0%,0%,0%);fill-opacity:1;" d="M 348.246094 60 L 348.246094 40 L 368.246094 40 L 368.246094 60 Z M 348.246094 60 "/>
<path style=" stroke:none;fill-rule:nonzero;fill:rgb(0%,0%,0%);fill-opacity:1;" d="M 348.246094 20 L 348.246094 0 L 368.246094 0 L 368.246094 20 Z M 348.246094 20 "/>
<path style=" stroke:none;fill-rule:nonzero;fill:rgb(0%,0%,0%);fill-opacity:1;" d="M 384.246094 220 L 384.246094 200 L 404.246094 200 L 404.246094 220 Z M 384.246094 220 "/>
<path style=" stroke:none;fill-rule:nonzero;fill:rgb(0%,0%,0%);fill-opacity:1;" d="M 384.246094 180 L 384.246094 160 L 404.246094 160 L 404.246094 180 Z M 384.246094 180 "/>
<path style=" stroke:none;fill-rule:nonzero;fill:rgb(0%,0%,0%);fill-opacity:1;" d="M 384.246094 140 L 384.246094 120 L 404.246094 120 L 404.246094 140 Z M 384.246094 140 "/>
<path style=" stroke:none;fill-rule:nonzero;fill:rgb(0%,0%,0%);fill-opacity:1;" d="M 384.246094 100 L 384.246094 80 L 404.246094 80 L 404.246094 100 Z M 384.246094 100 "/>
<path style=" stroke:none;fill-rule:nonzero;fill:rgb(0%,0%,0%);fill-opacity:1;" d="M 384.246094 60 L 384.246094 40 L 404.246094 40 L 404.246094 60 Z M 384.246094 60 "/>
<path style=" stroke:none;fill-rule:nonzero;fill:rgb(0%,0%,0%);fill-opacity:1;" d="M 384.246094 20 L 384.246094 0 L 404.246094 0 L 404.246094 20 Z M 384.246094 20 "/>
<path style=" stroke:none;fill-rule:nonzero;fill:rgb(0%,0%,0%);fill-opacity:1;" d="M -3.820312 200 L -3.820312 180 L 16.179688 180 L 16.179688 200 Z M -3.820312 200 "/>
<path style=" stroke:none;fill-rule:nonzero;fill:rgb(0%,0%,0%);fill-opacity:1;" d="M -3.820312 160 L -3.820312 140 L 16.179688 140 L 16.179688 160 Z M -3.820312 160 "/>
<path style=" stroke:none;fill-rule:nonzero;fill:rgb(0%,0%,0%);fill-opacity:1;" d="M -3.820312 120 L -3.820312 100 L 16.179688 100 L 16.179688 120 Z M -3.820312 120 "/>
<path style=" stroke:none;fill-rule:nonzero;fill:rgb(0%,0%,0%);fill-opacity:1;" d="M -3.820312 80 L -3.820312 60 L 16.179688 60 L 16.179688 80 Z M -3.820312 80 "/>
<path style=" stroke:none;fill-rule:nonzero;fill:rgb(0%,0%,0%);fill-opacity:1;" d="M -3.820312 40 L -3.820312 20 L 16.179688 20 L 16.179688 40 Z M -3.820312 40 "/>
<path style=" stroke:none;fill-rule:nonzero;fill:rgb(0%,0%,0%);fill-opacity:1;" d="M 32.179688 200 L 32.179688 180 L 52.179688 180 L 52.179688 200 Z M 32.179688 200 "/>
<path style=" stroke:none;fill-rule:nonzero;fill:rgb(0%,0%,0%);fill-opacity:1;" d="M 32.179688 160 L 32.179688 140 L 52.179688 140 L 52.179688 160 Z M 32.179688 160 "/>
<path style=" stroke:none;fill-rule:nonzero;fill:rgb(0%,0%,0%);fill-opacity:1;" d="M 32.179688 120 L 32.179688 100 L 52.179688 100 L 52.179688 120 Z M 32.179688 120 "/>
<path style=" stroke:none;fill-rule:nonzero;fill:rgb(0%,0%,0%);fill-opacity:1;" d="M 32.179688 80 L 32.179688 60 L 52.179688 60 L 52.179688 80 Z M 32.179688 80 "/>
<path style=" stroke:none;fill-rule:nonzero;fill:rgb(0%,0%,0%);fill-opacity:1;" d="M 32.179688 40 L 32.179688 20 L 52.179688 20 L 52.179688 40 Z M 32.179688 40 "/>
<path style=" stroke:none;fill-rule:nonzero;fill:rgb(0%,0%,0%);fill-opacity:1;" d="M 68.179688 200 L 68.179688 180 L 88.179688 180 L 88.179688 200 Z M 68.179688 200 "/>
<path style=" stroke:none;fill-rule:nonzero;fill:rgb(0%,0%,0%);fill-opacity:1;" d="M 68.179688 160 L 68.179688 140 L 88.179688 140 L 88.179688 160 Z M 68.179688 160 "/>
<path style=" stroke:none;fill-rule:nonzero;fill:rgb(0%,0%,0%);fill-opacity:1;" d="M 68.179688 120 L 68.179688 100 L 88.179688 100 L 88.179688 120 Z M 68.179688 120 "/>
<path style=" stroke:none;fill-rule:nonzero;fill:rgb(0%,0%,0%);fill-opacity:1;" d="M 68.179688 80 L 68.179688 60 L 88.179688 60 L 88.179688 80 Z M 68.179688 80 "/>
<path style=" stroke:none;fill-rule:nonzero;fill:rgb(0%,0%,0%);fill-opacity:1;" d="M 68.179688 40 L 68.179688 20 L 88.179688 20 L 88.179688 40 Z M 68.179688 40 "/>
<path style=" stroke:none;fill-rule:nonzero;fill:rgb(0%,0%,0%);fill-opacity:1;" d="M 104.179688 200 L 104.179688 180 L 124.179688 180 L 124.179688 200 Z M 104.179688 200 "/>
<path style=" stroke:none;fill-rule:nonzero;fill:rgb(0%,0%,0%);fill-opacity:1;" d="M 104.179688 160 L 104.179688 140 L 124.179688 140 L 124.179688 160 Z M 104.179688 160 "/>
<path style=" stroke:none;fill-rule:nonzero;fill:rgb(0%,0%,0%);fill-opacity:1;" d="M 104.179688 120 L 104.179688 100 L 124.179688 100 L 124.179688 120 Z M 104.179688 120 "/>
<path style=" stroke:none;fill-rule:nonzero;fill:rgb(0%,0%,0%);fill-opacity:1;" d="M 104.179688 80 L 104.179688 60 L 124.179688 60 L 124.179688 80 Z M 104.179688 80 "/>
<path style=" stroke:none;fill-rule:nonzero;fill:rgb(0%,0%,0%);fill-opacity:1;" d="M 104.179688 40 L 104.179688 20 L 124.179688 20 L 124.179688 40 Z M 104.179688 40 "/>
<path style=" stroke:none;fill-rule:nonzero;fill:rgb(0%,0%,0%);fill-opacity:1;" d="M 140.179688 200 L 140.179688 180 L 160.179688 180 L 160.179688 200 Z M 140.179688 200 "/>
<path style=" stroke:none;fill-rule:nonzero;fill:rgb(0%,0%,0%);fill-opacity:1;" d="M 140.179688 160 L 140.179688 140 L 160.179688 140 L 160.179688 160 Z M 140.179688 160 "/>
<path style=" stroke:none;fill-rule:nonzero;fill:rgb(0%,0%,0%);fill-opacity:1;" d="M 140.179688 120 L 140.179688 100 L 160.179688 100 L 160.179688 120 Z M 140.179688 120 "/>
<path style=" stroke:none;fill-rule:nonzero;fill:rgb(0%,0%,0%);fill-opacity:1;" d="M 140.179688 80 L 140.179688 60 L 160.179688 60 L 160.179688 80 Z M 140.179688 80 "/>
<path style=" stroke:none;fill-rule:nonzero;fill:rgb(0%,0%,0%);fill-opacity:1;" d="M 140.179688 40 L 140.179688 20 L 160.179688 20 L 160.179688 40 Z M 140.179688 40 "/>
<path style=" stroke:none;fill-rule:nonzero;fill:rgb(0%,0%,0%);fill-opacity:1;" d="M 176.179688 200 L 176.179688 180 L 196.179688 180 L 196.179688 200 Z M 176.179688 200 "/>
<path style=" stroke:none;fill-rule:nonzero;fill:rgb(0%,0%,0%);fill-opacity:1;" d="M 176.179688 160 L 176.179688 140 L 196.179688 140 L 196.179688 160 Z M 176.179688 160 "/>
<path style=" stroke:none;fill-rule:nonzero;fill:rgb(0%,0%,0%);fill-opacity:1;" d="M 176.179688 120 L 176.179688 100 L 196.179688 100 L 196.179688 120 Z M 176.179688 120 "/>
<path style=" stroke:none;fill-rule:nonzero;fill:rgb(0%,0%,0%);fill-opacity:1;" d="M 176.179688 80 L 176.179688 60 L 196.179688 60 L 196.179688 80 Z M 176.179688 80 "/>
<path style=" stroke:none;fill-rule:nonzero;fill:rgb(0%,0%,0%);fill-opacity:1;" d="M 176.179688 40 L 176.179688 20 L 196.179688 20 L 196.179688 40 Z M 176.179688 40 "/>
<path style=" stroke:none;fill-rule:nonzero;fill:rgb(0%,0%,0%);fill-opacity:1;" d="M 212.179688 200 L 212.179688 180 L 232.179688 180 L 232.179688 200 Z M 212.179688 200 "/>
<path style=" stroke:none;fill-rule:nonzero;fill:rgb(0%,0%,0%);fill-opacity:1;" d="M 212.179688 160 L 212.179688 140 L 232.179688 140 L 232.179688 160 Z M 212.179688 160 "/>
<path style=" stroke:none;fill-rule:nonzero;fill:rgb(0%,0%,0%);fill-opacity:1;" d="M 212.179688 120 L 212.179688 100 L 232.179688 100 L 232.179688 120 Z M 212.179688 120 "/>
<path style=" stroke:none;fill-rule:nonzero;fill:rgb(0%,0%,0%);fill-opacity:1;" d="M 212.179688 80 L 212.179688 60 L 232.179688 60 L 232.179688 80 Z M 212.179688 80 "/>
<path style=" stroke:none;fill-rule:nonzero;fill:rgb(0%,0%,0%);fill-opacity:1;" d="M 212.179688 40 L 212.179688 20 L 232.179688 20 L 232.179688 40 Z M 212.179688 40 "/>
<path style=" stroke:none;fill-rule:nonzero;fill:rgb(0%,0%,0%);fill-opacity:1;" d="M 248.179688 200 L 248.179688 180 L 268.179688 180 L 268.179688 200 Z M 248.179688 200 "/>
<path style=" stroke:none;fill-rule:nonzero;fill:rgb(0%,0%,0%);fill-opacity:1;" d="M 248.179688 160 L 248.179688 140 L 268.179688 140 L 268.179688 160 Z M 248.179688 160 "/>
<path style=" stroke:none;fill-rule:nonzero;fill:rgb(0%,0%,0%);fill-opacity:1;" d="M 248.179688 120 L 248.179688 100 L 268.179688 100 L 268.179688 120 Z M 248.179688 120 "/>
<path style=" stroke:none;fill-rule:nonzero;fill:rgb(0%,0%,0%);fill-opacity:1;" d="M 248.179688 80 L 248.179688 60 L 268.179688 60 L 268.179688 80 Z M 248.179688 80 "/>
<path style=" stroke:none;fill-rule:nonzero;fill:rgb(0%,0%,0%);fill-opacity:1;" d="M 248.179688 40 L 248.179688 20 L 268.179688 20 L 268.179688 40 Z M 248.179688 40 "/>
<path style=" stroke:none;fill-rule:nonzero;fill:rgb(0%,0%,0%);fill-opacity:1;" d="M 284.179688 200 L 284.179688 180 L 304.179688 180 L 304.179688 200 Z M 284.179688 200 "/>
<path style=" stroke:none;fill-rule:nonzero;fill:rgb(0%,0%,0%);fill-opacity:1;" d="M 284.179688 160 L 284.179688 140 L 304.179688 140 L 304.179688 160 Z M 284.179688 160 "/>
<path style=" stroke:none;fill-rule:nonzero;fill:rgb(0%,0%,0%);fill-opacity:1;" d="M 284.179688 120 L 284.179688 100 L 304.179688 100 L 304.179688 120 Z M 284.179688 120 "/>
<path style=" stroke:none;fill-rule:nonzero;fill:rgb(0%,0%,0%);fill-opacity:1;" d="M 284.179688 80 L 284.179688 60 L 304.179688 60 L 304.179688 80 Z M 284.179688 80 "/>
<path style=" stroke:none;fill-rule:nonzero;fill:rgb(0%,0%,0%);fill-opacity:1;" d="M 284.179688 40 L 284.179688 20 L 304.179688 20 L 304.179688 40 Z M 284.179688 40 "/>
<path style=" stroke:none;fill-rule:nonzero;fill:rgb(0%,0%,0%);fill-opacity:1;" d="M 320.179688 200 L 320.179688 180 L 340.179688 180 L 340.179688 200 Z M 320.179688 200 "/>
<path style=" stroke:none;fill-rule:nonzero;fill:rgb(0%,0%,0%);fill-opacity:1;" d="M 320.179688 160 L 320.179688 140 L 340.179688 140 L 340.179688 160 Z M 320.179688 160 "/>
<path style=" stroke:none;fill-rule:nonzero;fill:rgb(0%,0%,0%);fill-opacity:1;" d="M 320.179688 120 L 320.179688 100 L 340.179688 100 L 340.179688 120 Z M 320.179688 120 "/>
<path style=" stroke:none;fill-rule:nonzero;fill:rgb(0%,0%,0%);fill-opacity:1;" d="M 320.179688 80 L 320.179688 60 L 340.179688 60 L 340.179688 80 Z M 320.179688 80 "/>
<path style=" stroke:none;fill-rule:nonzero;fill:rgb(0%,0%,0%);fill-opacity:1;" d="M 320.179688 40 L 320.179688 20 L 340.179688 20 L 340.179688 40 Z M 320.179688 40 "/>
<path style=" stroke:none;fill-rule:nonzero;fill:rgb(0%,0%,0%);fill-opacity:1;" d="M 356.179688 200 L 356.179688 180 L 376.179688 180 L 376.179688 200 Z M 356.179688 200 "/>
<path style=" stroke:none;fill-rule:nonzero;fill:rgb(0%,0%,0%);fill-opacity:1;" d="M 356.179688 160 L 356.179688 140 L 376.179688 140 L 376.179688 160 Z M 356.179688 160 "/>
<path style=" stroke:none;fill-rule:nonzero;fill:rgb(0%,0%,0%);fill-opacity:1;" d="M 356.179688 120 L 356.179688 100 L 376.179688 100 L 376.179688 120 Z M 356.179688 120 "/>
<path style=" stroke:none;fill-rule:nonzero;fill:rgb(0%,0%,0%);fill-opacity:1;" d="M 356.179688 80 L 356.179688 60 L 376.179688 60 L 376.179688 80 Z M 356.179688 80 "/>
<path style=" stroke:none;fill-rule:nonzero;fill:rgb(0%,0%,0%);fill-opacity:1;" d="M 356.179688 40 L 356.179688 20 L 376.179688 20 L 376.179688 40 Z M 356.179688 40 "/>
<path style=" stroke:none;fill-rule:nonzero;fill:rgb(0%,0%,0%);fill-opacity:1;" d="M 392.179688 200 L 392.179688 180 L 412.179688 180 L 412.179688 200 Z M 392.179688 200 "/>
<path style=" stroke:none;fill-rule:nonzero;fill:rgb(0%,0%,0%);fill-opacity:1;" d="M 392.179688 160 L 392.179688 140 L 412.179688 140 L 412.179688 160 Z M 392.179688 160 "/>
<path style=" stroke:none;fill-rule:nonzero;fill:rgb(0%,0%,0%);fill-opacity:1;" d="M 392.179688 120 L 392.179688 100 L 412.179688 100 L 412.179688 120 Z M 392.179688 120 "/>
<path style=" stroke:none;fill-rule:nonzero;fill:rgb(0%,0%,0%);fill-opacity:1;" d="M 392.179688 80 L 392.179688 60 L 412.179688 60 L 412.179688 80 Z M 392.179688 80 "/>
<path style=" stroke:none;fill-rule:nonzero;fill:rgb(0%,0%,0%);fill-opacity:1;" d="M 392.179688 40 L 392.179688 20 L 412.179688 20 L 412.179688 40 Z M 392.179688 40 "/>
<path style="fill:none;stroke-width:1;stroke-linecap:square;stroke-linejoin:miter;stroke:rgb(100%,0%,0%);stroke-opacity:1;stroke-miterlimit:3.25;" d="M 0 220 L 400 220 "/>
<path style="fill:none;stroke-width:1;stroke-linecap:square;stroke-linejoin:miter;stroke:rgb(100%,0%,0%);stroke-opacity:1;stroke-miterlimit:3.25;" d="M 0 200 L 400 200 "/>
<path style="fill:none;stroke-width:1;stroke-linecap:square;stroke-linejoin:miter;stroke:rgb(100%,0%,0%);stroke-opacity:1;stroke-miterlimit:3.25;" d="M 0 180 L 400 180 "/>
<path style="fill:none;stroke-width:1;stroke-linecap:square;stroke-linejoin:miter;stroke:rgb(100%,0%,0%);stroke-opacity:1;stroke-miterlimit:3.25;" d="M 0 160 L 400 160 "/>
<path style="fill:none;stroke-width:1;stroke-linecap:square;stroke-linejoin:miter;stroke:rgb(100%,0%,0%);stroke-opacity:1;stroke-miterlimit:3.25;" d="M 0 140 L 400 140 "/>
<path style="fill:none;stroke-width:1;stroke-linecap:square;stroke-linejoin:miter;stroke:rgb(100%,0%,0%);stroke-opacity:1;stroke-miterlimit:3.25;" d="M 0 120 L 400 120 "/>
<path style="fill:none;stroke-width:1;stroke-linecap:square;stroke-linejoin:miter;stroke:rgb(100%,0%,0%);stroke-opacity:1;stroke-miterlimit:3.25;" d="M 0 100 L 400 100 "/>
<path style="fill:none;stroke-width:1;stroke-linecap:square;stroke-linejoin:miter;stroke:rgb(100%,0%,0%);stroke-opacity:1;stroke-miterlimit:3.25;" d="M 0 80 L 400 80 "/>
<path style="fill:none;stroke-width:1;stroke-linecap:square;stroke-linejoin:miter;stroke:rgb(100%,0%,0%);stroke-opacity:1;stroke-miterlimit:3.25;" d="M 0 60 L 400 60 "/>
<path style="fill:none;stroke-width:1;stroke-linecap:square;stroke-linejoin:miter;stroke:rgb(100%,0%,0%);stroke-opacity:1;stroke-miterlimit:3.25;" d="M 0 40 L 400 40 "/>
<path style="fill:none;stroke-width:1;stroke-linecap:square;stroke-linejoin:miter;stroke:rgb(100%,0%,0%);stroke-opacity:1;stroke-miterlimit:3.25;" d="M 0 20 L 400 20 "/>
</g>
</svg>
