<?xml version="1.0" encoding="UTF-8"?>
<svg xmlns="http://www.w3.org/2000/svg" xmlns:xlink="http://www.w3.org/1999/xlink" width="400pt" height="220pt" viewBox="0 0 400 220" version="1.1">
<g id="surface551">
<rect x="0" y="0" width="400" height="220" style="fill:rgb(0%,40%,100%);fill-opacity:0.2;stroke:none;"/>
<path style=" stroke:none;fill-rule:nonzero;fill:rgb(0%,0%,0%);fill-opacity:1;" d="M 12.75 220 L 12.75 200 L 32.75 200 L 32.75 220 Z M 12.75 220 "/>
<path style=" stroke:none;fill-rule:nonzero;fill:rgb(0%,0%,0%);fill-opacity:1;" d="M 12.75 180 L 12.75 160 L 32.75 160 L 32.75 180 Z M 12.75 180 "/>
<path style=" stroke:none;fill-rule:nonzero;fill:rgb(0%,0%,0%);fill-opacity:1;" d="M 12.75 140 L 12.75 120 L 32.75 120 L 32.75 140 Z M 12.75 140 "/>
<path style=" stroke:none;fill-rule:nonzero;fill:rgb(0%,0%,0%);fill-opacity:1;" d="M 12.75 100 L 12.75 80 L 32.75 80 L 32.75 100 Z M 12.75 100 "/>
<path style=" stroke:none;fill-rule:nonzero;fill:rgb(0%,0%,0%);fill-opacity:1;" d="M 12.75 60 L 12.75 40 L 32.75 40 L 32.75 60 Z M 12.75 60 "/>
<path style=" stroke:none;fill-rule:nonzero;fill:rgb(0%,0%,0%);fill-opacity:1;" d="M 12.75 20 L 12.75 0 L 32.75 0 L 32.75 20 Z M 12.75 20 "/>
<path style=" stroke:none;fill-rule:nonzero;fill:rgb(0%,0%,0%);fill-opacity:1;" d="M 48.75 220 L 48.75 200 L 68.75 200 L 68.75 220 Z M 48.75 220 "/>
<path style=" stroke:none;fill-rule:nonzero;fill:rgb(0%,0%,0%);fill-opacity:1;" d="M 48.75 180 L 48.75 160 L 68.75 160 L 68.75 180 Z M 48.75 180 "/>
<path style=" stroke:none;fill-rule:nonzero;fill:rgb(0%,0%,0%);fill-opacity:1;" d="M 48.75 140 L 48.75 120 L 68.75 120 L 68.75 140 Z M 48.75 140 "/>
<path style=" stroke:none;fill-rule:nonzero;fill:rgb(0%,0%,0%);fill-opacity:1;" d="M 48.75 100 L 48.75 80 L 68.75 80 L 68.75 100 Z M 48.75 100 "/>
<path style=" stroke:none;fill-rule:nonzero;fill:rgb(0%,0%,0%);fill-opacity:1;" d="M 48.75 60 L 48.75 40 L 68.75 40 L 68.75 60 Z M 48.75 60 "/>
<path style=" stroke:none;fill-rule:nonzero;fill:rgb(0%,0%,0%);fill-opacity:1;" d="M 48.75 20 L 48.75 0 L 68.75 0 L 68.75 20 Z M 48.75 20 "/>
<path style=" stroke:none;fill-rule:nonzero;fill:rgb(0%,0%,0%);fill-opacity:1;" d="M 84.75 220 L 84.75 200 L 104.75 200 L 104.75 220 Z M 84.75 220 "/>
<path style=" stroke:none;fill-rule:nonzero;fill:rgb(0%,0%,0%);fill-opacity:1;" d="M 84.75 180 L 84.75 160 L 104.75 160 L 104.75 180 Z M 84.75 180 "/>
<path style=" stroke:none;fill-rule:nonzero;fill:rgb(0%,0%,0%);fill-opacity:1;" d="M 84.75 140 L 84.75 120 L 104.75 120 L 104.75 140 Z M 84.75 140 "/>
<path style=" stroke:none;fill-rule:nonzero;fill:rgb(0%,0%,0%);fill-opacity:1;" d="M 84.75 100 L 84.75 80 L 104.75 80 L 104.75 100 Z M 84.75 100 "/>
<path style=" stroke:none;fill-rule:nonzero;fill:rgb(0%,0%,0%);fill-opacity:1;" d="M 84.75 60 L 84.75 40 L 104.75 40 L 104.75 60 Z M 84.75 60 "/>
<path style=" stroke:none;fill-rule:nonzero;fill:rgb(0%,0%,0%);fill-opacity:1;" d="M 84.75 20 L 84.75 0 L 104.75 0 L 104.75 20 Z M 84.75 20 "/>
<path style=" stroke:none;fill-rule:nonzero;fill:rgb(0%,0%,0%);fill-opacity:1;" d="M 120.75 220 L 120.75 200 L 140.75 200 L 140.75 220 Z M 120.75 220 "/>
<path style=" stroke:none;fill-rule:nonzero;fill:rgb(0%,0%,0%);fill-opacity:1;" d="M 120.75 180 L 120.75 160 L 140.75 160 L 140.75 180 Z M 120.75 180 "/>
<path style=" stroke:none;fill-rule:nonzero;fill:rgb(0%,0%,0%);fill-opacity:1;" d="M 120.75 140 L 120.75 120 L 140.75 120 L 140.75 140 Z M 120.75 140 "/>
<path style=" stroke:none;fill-rule:nonzero;fill:rgb(0%,0%,0%);fill-opacity:1;" d="M 120.75 100 L 120.75 80 L 140.75 80 L 140.75 100 Z M 120.75 100 "/>
<path style=" stroke:none;fill-rule:nonzero;fill:rgb(0%,0%,0%);fill-opacity:1;" d="M 120.75 60 L 120.75 40 L 140.75 40 L 140.75 60 Z M 120.75 60 "/>
<path style=" stroke:none;fill-rule:nonzero;fill:rgb(0%,0%,0%);fill-opacity:1;" d="M 120.75 20 L 120.75 0 L 140.75 0 L 140.75 20 Z M 120.75 20 "/>
<path style=" stroke:none;fill-rule:nonzero;fill:rgb(0%,0%,0%);fill-opacity:1;" d="M 156.75 220 L 156.75 200 L 176.75 200 L 176.75 220 Z M 156.75 220 "/>
<path style=" stroke:none;fill-rule:nonzero;fill:rgb(0%,0%,0%);fill-opacity:1;" d="M 156.75 180 L 156.75 160 L 176.75 160 L 176.75 180 Z M 156.75 180 "/>
<path style=" stroke:none;fill-rule:nonzero;fill:rgb(0%,0%,0%);fill-opacity:1;" d="M 156.75 140 L 156.75 120 L 176.75 120 L 176.75 140 Z M 156.75 140 "/>
<path style=" stroke:none;fill-rule:nonzero;fill:rgb(0%,0%,0%);fill-opacity:1;" d="M 156.75 100 L 156.75 80 L 176.75 80 L 176.75 100 Z M 156.75 100 "/>
<path style=" stroke:none;fill-rule:nonzero;fill:rgb(0%,0%,0%);fill-opacity:1;" d="M 156.75 60 L 156.75 40 L 176.75 40 L 176.75 60 Z M 156.75 60 "/>
<path style=" stroke:none;fill-rule:nonzero;fill:rgb(0%,0%,0%);fill-opacity:1;" d="M 156.75 20 L 156.75 0 L 176.75 0 L 176.75 20 Z M 156.75 20 "/>
<path style=" stroke:none;fill-rule:nonzero;fill:rgb(0%,0%,0%);fill-opacity:1;" d="M 192.75 220 L 192.75 200 L 212.75 200 L 212.75 220 Z M 192.75 220 "/>
<path style=" stroke:none;fill-rule:nonzero;fill:rgb(0%,0%,0%);fill-opacity:1;" d="M 192.75 180 L 192.75 160 L 212.75 160 L 212.75 180 Z M 192.75 180 "/>
<path style=" stroke:none;fill-rule:nonzero;fill:rgb(0%,0%,0%);fill-opacity:1;" d="M 192.75 140 L 192.75 120 L 212.75 120 L 212.75 140 Z M 192.75 140 "/>
<path style=" stroke:none;fill-rule:nonzero;fill:rgb(0%,0%,0%);fill-opacity:1;" d="M 192.75 100 L 192.75 80 L 212.75 80 L 212.75 100 Z M 192.75 100 "/>
<path style=" stroke:none;fill-rule:nonzero;fill:rgb(0%,0%,0%);fill-opacity:1;" d="M 192.75 60 L 192.75 40 L 212.75 40 L 212.75 60 Z M 192.75 60 "/>
<path style=" stroke:none;fill-rule:nonzero;fill:rgb(0%,0%,0%);fill-opacity:1;" d="M 192.75 20 L 192.75 0 L 212.75 0 L 212.75 20 Z M 192.75 20 "/>
<path style=" stroke:none;fill-rule:nonzero;fill:rgb(0%,0%,0%);fill-opacity:1;" d="M 228.75 220 L 228.75 200 L 248.75 200 L 248.75 220 Z M 228.75 220 "/>
<path style=" stroke:none;fill-rule:nonzero;fill:rgb(0%,0%,0%);fill-opacity:1;" d="M 228.75 180 L 228.75 160 L 248.75 160 L 248.75 180 Z M 228.75 180 "/>
<path style=" stroke:none;fill-rule:nonzero;fill:rgb(0%,0%,0%);fill-opacity:1;" d="M 228.75 140 L 228.75 120 L 248.75 120 L 248.75 140 Z M 228.75 140 "/>
<path style=" stroke:none;fill-rule:nonzero;fill:rgb(0%,0%,0%);fill-opacity:1;" d="M 228.75 100 L 228.75 80 L 248.75 80 L 248.75 100 Z M 228.75 100 "/>
<path style=" stroke:none;fill-rule:nonzero;fill:rgb(0%,0%,0%);fill-opacity:1;" d="M 228.75 60 L 228.75 40 L 248.75 40 L 248.75 60 Z M 228.75 60 "/>
<path style=" stroke:none;fill-rule:nonzero;fill:rgb(0%,0%,0%);fill-opacity:1;" d="M 228.75 20 L 228.75 0 L 248.75 0 L 248.75 20 Z M 228.75 20 "/>
<path style=" stroke:none;fill-rule:nonzero;fill:rgb(0%,0%,0%);fill-opacity:1;" d="M 264.75 220 L 264.75 200 L 284.75 200 L 284.75 220 Z M 264.75 220 "/>
<path style=" stroke:none;fill-rule:nonzero;fill:rgb(0%,0%,0%);fill-opacity:1;" d="M 264.75 180 L 264.75 160 L 284.75 160 L 284.75 180 Z M 264.75 180 "/>
<path style=" stroke:none;fill-rule:nonzero;fill:rgb(0%,0%,0%);fill-opacity:1;" d="M 264.75 140 L 264.75 120 L 284.75 120 L 284.75 140 Z M 264.75 140 "/>
<path style=" stroke:none;fill-rule:nonzero;fill:rgb(0%,0%,0%);fill-opacity:1;" d="M 264.75 100 L 264.75 80 L 284.75 80 L 284.75 100 Z M 264.75 100 "/>
<path style=" stroke:none;fill-rule:nonzero;fill:rgb(0%,0%,0%);fill-opacity:1;" d="M 264.75 60 L 264.75 40 L 284.75 40 L 284.75 60 Z M 264.75 60 "/>
<path style=" stroke:none;fill-rule:nonzero;fill:rgb(0%,0%,0%);fill-opacity:1;" d="M 264.75 20 L 264.75 0 L 284.75 0 L 284.75 20 Z M 264.75 20 "/>
<path style=" stroke:none;fill-rule:nonzero;fill:rgb(0%,0%,0%);fill-opacity:1;" d="M 300.75 220 L 300.75 200 L 320.75 200 L 320.75 220 Z M 300.75 220 "/>
<path style=" stroke:none;fill-rule:nonzero;fill:rgb(0%,0%,0%);fill-opacity:1;" d="M 300.75 180 L 300.75 160 L 320.75 160 L 320.75 180 Z M 300.75 180 "/>
<path style=" stroke:none;fill-rule:nonzero;fill:rgb(0%,0%,0%);fill-opacity:1;" d="M 300.75 140 L 300.75 120 L 320.75 120 L 320.75 140 Z M 300.75 140 "/>
<path style=" stroke:none;fill-rule:nonzero;fill:rgb(0%,0%,0%);fill-opacity:1;" d="M 300.75 100 L 300.75 80 L 320.75 80 L 320.75 100 Z M 300.75 100 "/>
<path style=" stroke:none;fill-rule:nonzero;fill:rgb(0%,0%,0%);fill-opacity:1;" d="M 300.75 60 L 300.75 40 L 320.75 40 L 320.75 60 Z M 300.75 60 "/>
<path style=" stroke:none;fill-rule:nonzero;fill:rgb(0%,0%,0%);fill-opacity:1;" d="M 300.75 20 L 300.75 0 L 320.75 0 L 320.75 20 Z M 300.75 20 "/>
<path style=" stroke:none;fill-rule:nonzero;fill:rgb(0%,0%,0%);fill-opacity:1;" d="M 336.75 220 L 336.75 200 L 356.75 200 L 356.75 220 Z M 336.75 220 "/>
<path style=" stroke:none;fill-rule:nonzero;fill:rgb(0%,0%,0%);fill-opacity:1;" d="M 336.75 180 L 336.75 160 L 356.75 160 L 356.75 180 Z M 336.75 180 "/>
<path style=" stroke:none;fill-rule:nonzero;fill:rgb(0%,0%,0%);fill-opacity:1;" d="M 336.75 140 L 336.75 120 L 356.75 120 L 356.75 140 Z M 336.75 140 "/>
<path style=" stroke:none;fill-rule:nonzero;fill:rgb(0%,0%,0%);fill-opacity:1;" d="M 336.75 100 L 336.75 80 L 356.75 80 L 356.75 100 Z M 336.75 100 "/>
<path style=" stroke:none;fill-rule:nonzero;fill:rgb(0%,0%,0%);fill-opacity:1;" d="M 336.75 60 L 336.75 40 L 356.75 40 L 356.75 60 Z M 336.75 60 "/>
<path style=" stroke:none;fill-rule:nonzero;fill:rgb(0%,0%,0%);fill-opacity:1;" d="M 336.75 20 L 336.75 0 L 356.75 0 L 356.75 20 Z M 336.75 20 "/>
<path style=" stroke:none;fill-rule:nonzero;fill:rgb(0%,0%,0%);fill-opacity:1;" d="M 372.75 220 L 372.75 200 L 392.75 200 L 392.75 220 Z M 372.75 220 "/>
<path style=" stroke:none;fill-rule:nonzero;fill:rgb(0%,0%,0%);fill-opacity:1;" d="M 372.75 180 L 372.75 160 L 392.75 160 L 392.75 180 Z M 372.75 180 "/>
<path style=" stroke:none;fill-rule:nonzero;fill:rgb(0%,0%,0%);fill-opacity:1;" d="M 372.75 140 L 372.75 120 L 392.75 120 L 392.75 140 Z M 372.75 140 "/>
<path style=" stroke:none;fill-rule:nonzero;fill:rgb(0%,0%,0%);fill-opacity:1;" d="M 372.75 100 L 372.75 80 L 392.75 80 L 392.75 100 Z M 372.75 100 "/>
<path style=" stroke:none;fill-rule:nonzero;fill:rgb(0%,0%,0%);fill-opacity:1;" d="M 372.75 60 L 372.75 40 L 392.75 40 L 392.75 60 Z M 372.75 60 "/>
<path style=" stroke:none;fill-rule:nonzero;fill:rgb(0%,0%,0%);fill-opacity:1;" d="M 372.75 20 L 372.75 0 L 392.75 0 L 392.75 20 Z M 372.75 20 "/>
<path style=" stroke:none;fill-rule:nonzero;fill:rgb(0%,0%,0%);fill-opacity:1;" d="M 0.589844 200 L 0.589844 180 L 20.589844 180 L 20.589844 200 Z M 0.589844 200 "/>
<path style=" stroke:none;fill-rule:nonzero;fill:rgb(0%,0%,0%);fill-opacity:1;" d="M 0.589844 160 L 0.589844 140 L 20.589844 140 L 20.589844 160 Z M 0.589844 160 "/>
<path style=" stroke:none;fill-rule:nonzero;fill:rgb(0%,0%,0%);fill-opacity:1;" d="M 0.589844 120 L 0.589844 100 L 20.589844 100 L 20.589844 120 Z M 0.589844 120 "/>
<path style=" stroke:none;fill-rule:nonzero;fill:rgb(0%,0%,0%);fill-opacity:1;" d="M 0.589844 80 L 0.589844 60 L 20.589844 60 L 20.589844 80 Z M 0.589844 80 "/>
<path style=" stroke:none;fill-rule:nonzero;fill:rgb(0%,0%,0%);fill-opacity:1;" d="M 0.589844 40 L 0.589844 20 L 20.589844 20 L 20.589844 40 Z M 0.589844 40 "/>
<path style=" stroke:none;fill-rule:nonzero;fill:rgb(0%,0%,0%);fill-opacity:1;" d="M 36.589844 200 L 36.589844 180 L 56.589844 180 L 56.589844 200 Z M 36.589844 200 "/>
<path style=" stroke:none;fill-rule:nonzero;fill:rgb(0%,0%,0%);fill-opacity:1;" d="M 36.589844 160 L 36.589844 140 L 56.589844 140 L 56.589844 160 Z M 36.589844 160 "/>
<path style=" stroke:none;fill-rule:nonzero;fill:rgb(0%,0%,0%);fill-opacity:1;" d="M 36.589844 120 L 36.589844 100 L 56.589844 100 L 56.589844 120 Z M 36.589844 120 "/>
<path style=" stroke:none;fill-rule:nonzero;fill:rgb(0%,0%,0%);fill-opacity:1;" d="M 36.589844 80 L 36.589844 60 L 56.589844 60 L 56.589844 80 Z M 36.589844 80 "/>
<path style=" stroke:none;fill-rule:nonzero;fill:rgb(0%,0%,0%);fill-opacity:1;" d="M 36.589844 40 L 36.589844 20 L 56.589844 20 L 56.589844 40 Z M 36.589844 40 "/>
<path style=" stroke:none;fill-rule:nonzero;fill:rgb(0%,0%,0%);fill-opacity:1;" d="M 72.589844 200 L 72.589844 180 L 92.589844 180 L 92.589844 200 Z M 72.589844 200 "/>
<path style=" stroke:none;fill-rule:nonzero;fill:rgb(0%,0%,0%);fill-opacity:1;" d="M 72.589844 160 L 72.589844 140 L 92.589844 140 L 92.589844 160 Z M 72.589844 160 "/>
<path style=" stroke:none;fill-rule:nonzero;fill:rgb(0%,0%,0%);fill-opacity:1;" d="M 72.589844 120 L 72.589844 100 L 92.589844 100 L 92.589844 120 Z M 72.589844 120 "/>
<path style=" stroke:none;fill-rule:nonzero;fill:rgb(0%,0%,0%);fill-opacity:1;" d="M 72.589844 80 L 72.589844 60 L 92.589844 60 L 92.589844 80 Z M 72.589844 80 "/>
<path style=" stroke:none;fill-rule:nonzero;fill:rgb(0%,0%,0%);fill-opacity:1;" d="M 72.589844 40 L 72.589844 20 L 92.589844 20 L 92.589844 40 Z M 72.589844 40 "/>
<path style=" stroke:none;fill-rule:nonzero;fill:rgb(0%,0%,0%);fill-opacity:1;" d="M 108.589844 200 L 108.589844 180 L 128.589844 180 L 128.589844 200 Z M 108.589844 200 "/>
<path style=" stroke:none;fill-rule:nonzero;fill:rgb(0%,0%,0%);fill-opacity:1;" d="M 108.589844 160 L 108.589844 140 L 128.589844 140 L 128.589844 160 Z M 108.589844 160 "/>
<path style=" stroke:none;fill-rule:nonzero;fill:rgb(0%,0%,0%);fill-opacity:1;" d="M 108.589844 120 L 108.589844 100 L 128.589844 100 L 128.589844 120 Z M 108.589844 120 "/>
<path style=" stroke:none;fill-rule:nonzero;fill:rgb(0%,0%,0%);fill-opacity:1;" d="M 108.589844 80 L 108.589844 60 L 128.589844 60 L 128.589844 80 Z M 108.589844 80 "/>
<path style=" stroke:none;fill-rule:nonzero;fill:rgb(0%,0%,0%);fill-opacity:1;" d="M 108.589844 40 L 108.589844 20 L 128.589844 20 L 128.589844 40 Z M 108.589844 40 "/>
<path style=" stroke:none;fill-rule:nonzero;fill:rgb(0%,0%,0%);fill-opacity:1;" d="M 144.589844 200 L 144.589844 180 L 164.589844 180 L 164.589844 200 Z M 144.589844 200 "/>
<path style=" stroke:none;fill-rule:nonzero;fill:rgb(0%,0%,0%);fill-opacity:1;" d="M 144.589844 160 L 144.589844 140 L 164.589844 140 L 164.589844 160 Z M 144.589844 160 "/>
<path style=" stroke:none;fill-rule:nonzero;fill:rgb(0%,0%,0%);fill-opacity:1;" d="M 144.589844 120 L 144.589844 100 L 164.589844 100 L 164.589844 120 Z M 144.589844 120 "/>
<path style=" stroke:none;fill-rule:nonzero;fill:rgb(0%,0%,0%);fill-opacity:1;" d="M 144.589844 80 L 144.589844 60 L 164.589844 60 L 164.589844 80 Z M 144.589844 80 "/>
<path style=" stroke:none;fill-rule:nonzero;fill:rgb(0%,0%,0%);fill-opacity:1;" d="M 144.589844 40 L 144.589844 20 L 164.589844 20 L 164.589844 40 Z M 144.589844 40 "/>
<path style=" stroke:none;fill-rule:nonzero;fill:rgb(0%,0%,0%);fill-opacity:1;" d="M 180.589844 200 L 180.589844 180 L 200.589844 180 L 200.589844 200 Z M 180.589844 200 "/>
<path style=" stroke:none;fill-rule:nonzero;fill:rgb(0%,0%,0%);fill-opacity:1;" d="M 180.589844 160 L 180.589844 140 L 200.589844 140 L 200.589844 160 Z M 180.589844 160 "/>
<path style=" stroke:none;fill-rule:nonzero;fill:rgb(0%,0%,0%);fill-opacity:1;" d="M 180.589844 120 L 180.589844 100 L 200.589844 100 L 200.589844 120 Z M 180.589844 120 "/>
<path style=" stroke:none;fill-rule:nonzero;fill:rgb(0%,0%,0%);fill-opacity:1;" d="M 180.589844 80 L 180.589844 60 L 200.589844 60 L 200.589844 80 Z M 180.589844 80 "/>
<path style=" stroke:none;fill-rule:nonzero;fill:rgb(0%,0%,0%);fill-opacity:1;" d="M 180.589844 40 L 180.589844 20 L 200.589844 20 L 200.589844 40 Z M 180.589844 40 "/>
<path style=" stroke:none;fill-rule:nonzero;fill:rgb(0%,0%,0%);fill-opacity:1;" d="M 216.589844 200 L 216.589844 180 L 236.589844 180 L 236.589844 200 Z M 216.589844 200 "/>
<path style=" stroke:none;fill-rule:nonzero;fill:rgb(0%,0%,0%);fill-opacity:1;" d="M 216.589844 160 L 216.589844 140 L 236.589844 140 L 236.589844 160 Z M 216.589844 160 "/>
<path style=" stroke:none;fill-rule:nonzero;fill:rgb(0%,0%,0%);fill-opacity:1;" d="M 216.589844 120 L 216.589844 100 L 236.589844 100 L 236.589844 120 Z M 216.589844 120 "/>
<path style=" stroke:none;fill-rule:nonzero;fill:rgb(0%,0%,0%);fill-opacity:1;" d="M 216.589844 80 L 216.589844 60 L 236.589844 60 L 236.589844 80 Z M 216.589844 80 "/>
<path style=" stroke:none;fill-rule:nonzero;fill:rgb(0%,0%,0%);fill-opacity:1;" d="M 216.589844 40 L 216.589844 20 L 236.589844 20 L 236.589844 40 Z M 216.589844 40 "/>
<path style=" stroke:none;fill-rule:nonzero;fill:rgb(0%,0%,0%);fill-opacity:1;" d="M 252.589844 200 L 252.589844 180 L 272.589844 180 L 272.589844 200 Z M 252.589844 200 "/>
<path style=" stroke:none;fill-rule:nonzero;fill:rgb(0%,0%,0%);fill-opacity:1;" d="M 252.589844 160 L 252.589844 140 L 272.589844 140 L 272.589844 160 Z M 252.589844 160 "/>
<path style=" stroke:none;fill-rule:nonzero;fill:rgb(0%,0%,0%);fill-opacity:1;" d="M 252.589844 120 L 252.589844 100 L 272.589844 100 L 272.589844 120 Z M 252.589844 120 "/>
<path style=" stroke:none;fill-rule:nonzero;fill:rgb(0%,0%,0%);fill-opacity:1;" d="M 252.589844 80 L 252.589844 60 L 272.589844 60 L 272.589844 80 Z M 252.589844 80 "/>
<path style=" stroke:none;fill-rule:nonzero;fill:rgb(0%,0%,0%);fill-opacity:1;" d="M 252.589844 40 L 252.589844 20 L 272.589844 20 L 272.589844 40 Z M 252.589844 40 "/>
<path style=" stroke:none;fill-rule:nonzero;fill:rgb(0%,0%,0%);fill-opacity:1;" d="M 288.589844 200 L 288.589844 180 L 308.589844 180 L 308.589844 200 Z M 288.589844 200 "/>
<path style=" stroke:none;fill-rule:nonzero;fill:rgb(0%,0%,0%);fill-opacity:1;" d="M 288.589844 160 L 288.589844 140 L 308.589844 140 L 308.589844 160 Z M 288.589844 160 "/>
<path style=" stroke:none;fill-rule:nonzero;fill:rgb(0%,0%,0%);fill-opacity:1;" d="M 288.589844 120 L 288.589844 100 L 308.589844 100 L 308.589844 120 Z M 288.589844 120 "/>
<path style=" stroke:none;fill-rule:nonzero;fill:rgb(0%,0%,0%);fill-opacity:1;" d="M 288.589844 80 L 288.589844 60 L 308.589844 60 L 308.589844 80 Z M 288.589844 80 "/>
<path style=" stroke:none;fill-rule:nonzero;fill:rgb(0%,0%,0%);fill-opacity:1;" d="M 288.589844 40 L 288.589844 20 L 308.589844 20 L 308.589844 40 Z M 288.589844 40 "/>
<path style=" stroke:none;fill-rule:nonzero;fill:rgb(0%,0%,0%);fill-opacity:1;" d="M 324.589844 200 L 324.589844 180 L 344.589844 180 L 344.589844 200 Z M 324.589844 200 "/>
<path style=" stroke:none;fill-rule:nonzero;fill:rgb(0%,0%,0%);fill-opacity:1;" d="M 324.589844 160 L 324.589844 140 L 344.589844 140 L 344.589844 160 Z M 324.589844 160 "/>
<path style=" stroke:none;fill-rule:nonzero;fill:rgb(0%,0%,0%);fill-opacity:1;" d="M 324.589844 120 L 324.589844 100 L 344.589844 100 L 344.589844 120 Z M 324.589844 120 "/>
<path style=" stroke:none;fill-rule:nonzero;fill:rgb(0%,0%,0%);fill-opacity:1;" d="M 324.589844 80 L 324.589844 60 L 344.589844 60 L 344.589844 80 Z M 324.589844 80 "/>
<path style=" stroke:none;fill-rule:nonzero;fill:rgb(0%,0%,0%);fill-opacity:1;" d="M 324.589844 40 L 324.589844 20 L 344.589844 20 L 344.589844 40 Z M 324.589844 40 "/>
<path style=" stroke:none;fill-rule:nonzero;fill:rgb(0%,0%,0%);fill-opacity:1;" d="M 360.589844 200 L 360.589844 180 L 380.589844 180 L 380.589844 200 Z M 360.589844 200 "/>
<path style=" stroke:none;fill-rule:nonzero;fill:rgb(0%,0%,0%);fill-opacity:1;" d="M 360.589844 160 L 360.589844 140 L 380.589844 140 L 380.589844 160 Z M 360.589844 160 "/>
<path style=" stroke:none;fill-rule:nonzero;fill:rgb(0%,0%,0%);fill-opacity:1;" d="M 360.589844 120 L 360.589844 100 L 380.589844 100 L 380.589844 120 Z M 360.589844 120 "/>
<path style=" stroke:none;fill-rule:nonzero;fill:rgb(0%,0%,0%);fill-opacity:1;" d="M 360.589844 80 L 360.589844 60 L 380.589844 60 L 380.589844 80 Z M 360.589844 80 "/>
<path style=" stroke:none;fill-rule:nonzero;fill:rgb(0%,0%,0%);fill-opacity:1;" d="M 360.589844 40 L 360.589844 20 L 380.589844 20 L 380.589844 40 Z M 360.589844 40 "/>
<path style="fill:none;stroke-width:1;stroke-linecap:square;stroke-linejoin:miter;stroke:rgb(100%,0%,0%);stroke-opacity:1;stroke-miterlimit:3.25;" d="M 0 220 L 400 220 "/>
<path style="fill:none;stroke-width:1;stroke-linecap:square;stroke-linejoin:miter;stroke:rgb(100%,0%,0%);stroke-opacity:1;stroke-miterlimit:3.25;" d="M 0 200 L 400 200 "/>
<path style="fill:none;stroke-width:1;stroke-linecap:square;stroke-linejoin:miter;stroke:rgb(100%,0%,0%);stroke-opacity:1;stroke-miterlimit:3.25;" d="M 0 180 L 400 180 "/>
<path style="fill:none;stroke-width:1;stroke-linecap:square;stroke-linejoin:miter;stroke:rgb(100%,0%,0%);stroke-opacity:1;stroke-miterlimit:3.25;" d="M 0 160 L 400 160 "/>
<path style="fill:none;stroke-width:1;stroke-linecap:square;stroke-linejoin:miter;stroke:rgb(100%,0%,0%);stroke-opacity:1;stroke-miterlimit:3.25;" d="M 0 140 L 400 140 "/>
<path style="fill:none;stroke-width:1;stroke-linecap:square;stroke-linejoin:miter;stroke:rgb(100%,0%,0%);stroke-opacity:1;stroke-miterlimit:3.25;" d="M 0 120 L 400 120 "/>
<path style="fill:none;stroke-width:1;stroke-linecap:square;stroke-linejoin:miter;stroke:rgb(100%,0%,0%);stroke-opacity:1;stroke-miterlimit:3.25;" d="M 0 100 L 400 100 "/>
<path style="fill:none;stroke-width:1;stroke-linecap:square;stroke-linejoin:miter;stroke:rgb(100%,0%,0%);stroke-opacity:1;stroke-miterlimit:3.25;" d="M 0 80 L 400 80 "/>
<path style="fill:none;stroke-width:1;stroke-linecap:square;stroke-linejoin:miter;stroke:rgb(100%,0%,0%);stroke-opacity:1;stroke-miterlimit:3.25;" d="M 0 60 L 400 60 "/>
<path style="fill:none;stroke-width:1;stroke-linecap:square;stroke-linejoin:miter;stroke:rgb(100%,0%,0%);stroke-opacity:1;stroke-miterlimit:3.25;" d="M 0 40 L 400 40 "/>
<path style="fill:none;stroke-width:1;stroke-linecap:square;stroke-linejoin:miter;stroke:rgb(100%,0%,0%);stroke-opacity:1;stroke-miterlimit:3.25;" d="M 0 20 L 400 20 "/>
</g>
</svg>
