<?xml version="1.0" encoding="UTF-8"?>
<svg xmlns="http://www.w3.org/2000/svg" xmlns:xlink="http://www.w3.org/1999/xlink" width="400pt" height="220pt" viewBox="0 0 400 220" version="1.1">
<g id="surface601">
<rect x="0" y="0" width="400" height="220" style="fill:rgb(0%,40%,100%);fill-opacity:0.2;stroke:none;"/>
<path style=" stroke:none;fill-rule:nonzero;fill:rgb(0%,0%,0%);fill-opacity:1;" d="M 19.371094 220 L 19.371094 200 L 39.371094 200 L 39.371094 220 Z M 19.371094 220 "/>
<path style=" stroke:none;fill-rule:nonzero;fill:rgb(0%,0%,0%);fill-opacity:1;" d="M 19.371094 180 L 19.371094 160 L 39.371094 160 L 39.371094 180 Z M 19.371094 180 "/>
<path style=" stroke:none;fill-rule:nonzero;fill:rgb(0%,0%,0%);fill-opacity:1;" d="M 19.371094 140 L 19.371094 120 L 39.371094 120 L 39.371094 140 Z M 19.371094 140 "/>
<path style=" stroke:none;fill-rule:nonzero;fill:rgb(0%,0%,0%);fill-opacity:1;" d="M 19.371094 100 L 19.371094 80 L 39.371094 80 L 39.371094 100 Z M 19.371094 100 "/>
<path style=" stroke:none;fill-rule:nonzero;fill:rgb(0%,0%,0%);fill-opacity:1;" d="M 19.371094 60 L 19.371094 40 L 39.371094 40 L 39.371094 60 Z M 19.371094 60 "/>
<path style=" stroke:none;fill-rule:nonzero;fill:rgb(0%,0%,0%);fill-opacity:1;" d="M 19.371094 20 L 19.371094 0 L 39.371094 0 L 39.371094 20 Z M 19.371094 20 "/>
<path style=" stroke:none;fill-rule:nonzero;fill:rgb(0%,0%,0%);fill-opacity:1;" d="M 55.371094 220 L 55.371094 200 L 75.371094 200 L 75.371094 220 Z M 55.371094 220 "/>
<path style=" stroke:none;fill-rule:nonzero;fill:rgb(0%,0%,0%);fill-opacity:1;" d="M 55.371094 180 L 55.371094 160 L 75.371094 160 L 75.371094 180 Z M 55.371094 180 "/>
<path style=" stroke:none;fill-rule:nonzero;fill:rgb(0%,0%,0%);fill-opacity:1;" d="M 55.371094 140 L 55.371094 120 L 75.371094 120 L 75.371094 140 Z M 55.371094 140 "/>
<path style=" stroke:none;fill-rule:nonzero;fill:rgb(0%,0%,0%);fill-opacity:1;" d="M 55.371094 100 L 55.371094 80 L 75.371094 80 L 75.371094 100 Z M 55.371094 100 "/>
<path style=" stroke:none;fill-rule:nonzero;fill:rgb(0%,0%,0%);fill-opacity:1;" d="M 55.371094 60 L 55.371094 40 L 75.371094 40 L 75.371094 60 Z M 55.371094 60 "/>
<path style=" stroke:none;fill-rule:nonzero;fill:rgb(0%,0%,0%);fill-opacity:1;" d="M 55.371094 20 L 55.371094 0 L 75.371094 0 L 75.371094 20 Z M 55.371094 20 "/>
<path style=" stroke:none;fill-rule:nonzero;fill:rgb(0%,0%,0%);fill-opacity:1;" d="M 91.371094 220 L 91.371094 200 L 111.371094 200 L 111.371094 220 Z M 91.371094 220 "/>
<path style=" stroke:none;fill-rule:nonzero;fill:rgb(0%,0%,0%);fill-opacity:1;" d="M 91.371094 180 L 91.371094 160 L 111.371094 160 L 111.371094 180 Z M 91.371094 180 "/>
<path style=" stroke:none;fill-rule:nonzero;fill:rgb(0%,0%,0%);fill-opacity:1;" d="M 91.371094 140 L 91.371094 120 L 111.371094 120 L 111.371094 140 Z M 91.371094 140 "/>
<path style=" stroke:none;fill-rule:nonzero;fill:rgb(0%,0%,0%);fill-opacity:1;" d="M 91.371094 100 L 91.371094 80 L 111.371094 80 L 111.371094 100 Z M 91.371094 100 "/>
<path style=" stroke:none;fill-rule:nonzero;fill:rgb(0%,0%,0%);fill-opacity:1;" d="M 91.371094 60 L 91.371094 40 L 111.371094 40 L 111.371094 60 Z M 91.371094 60 "/>
<path style=" stroke:none;fill-rule:nonzero;fill:rgb(0%,0%,0%);fill-opacity:1;" d="M 91.371094 20 L 91.371094 0 L 111.371094 0 L 111.371094 20 Z M 91.371094 20 "/>
<path style=" stroke:none;fill-rule:nonzero;fill:rgb(0%,0%,0%);fill-opacity:1;" d="M 127.371094 220 L 127.371094 200 L 147.371094 200 L 147.371094 220 Z M 127.371094 220 "/>
<path style=" stroke:none;fill-rule:nonzero;fill:rgb(0%,0%,0%);fill-opacity:1;" d="M 127.371094 180 L 127.371094 160 L 147.371094 160 L 147.371094 180 Z M 127.371094 180 "/>
<path style=" stroke:none;fill-rule:nonzero;fill:rgb(0%,0%,0%);fill-opacity:1;" d="M 127.371094 140 L 127.371094 120 L 147.371094 120 L 147.371094 140 Z M 127.371094 140 "/>
<path style=" stroke:none;fill-rule:nonzero;fill:rgb(0%,0%,0%);fill-opacity:1;" d="M 127.371094 100 L 127.371094 80 L 147.371094 80 L 147.371094 100 Z M 127.371094 100 "/>
<path style=" stroke:none;fill-rule:nonzero;fill:rgb(0%,0%,0%);fill-opacity:1;" d="M 127.371094 60 L 127.371094 40 L 147.371094 40 L 147.371094 60 Z M 127.371094 60 "/>
<path style=" stroke:none;fill-rule:nonzero;fill:rgb(0%,0%,0%);fill-opacity:1;" d="M 127.371094 20 L 127.371094 0 L 147.371094 0 L 147.371094 20 Z M 127.371094 20 "/>
<path style=" stroke:none;fill-rule:nonzero;fill:rgb(0%,0%,0%);fill-opacity:1;" d="M 163.371094 220 L 163.371094 200 L 183.371094 200 L 183.371094 220 Z M 163.371094 220 "/>
<path style=" stroke:none;fill-rule:nonzero;fill:rgb(0%,0%,0%);fill-opacity:1;" d="M 163.371094 180 L 163.371094 160 L 183.371094 160 L 183.371094 180 Z M 163.371094 180 "/>
<path style=" stroke:none;fill-rule:nonzero;fill:rgb(0%,0%,0%);fill-opacity:1;" d="M 163.371094 140 L 163.371094 120 L 183.371094 120 L 183.371094 140 Z M 163.371094 140 "/>
<path style=" stroke:none;fill-rule:nonzero;fill:rgb(0%,0%,0%);fill-opacity:1;" d="M 163.371094 100 L 163.371094 80 L 183.371094 80 L 183.371094 100 Z M 163.371094 100 "/>
<path style=" stroke:none;fill-rule:nonzero;fill:rgb(0%,0%,0%);fill-opacity:1;" d="M 163.371094 60 L 163.371094 40 L 183.371094 40 L 183.371094 60 Z M 163.371094 60 "/>
<path style=" stroke:none;fill-rule:nonzero;fill:rgb(0%,0%,0%);fill-opacity:1;" d="M 163.371094 20 L 163.371094 0 L 183.371094 0 L 183.371094 20 Z M 163.371094 20 "/>
<path style=" stroke:none;fill-rule:nonzero;fill:rgb(0%,0%,0%);fill-opacity:1;" d="M 199.371094 220 L 199.371094 200 L 219.371094 200 L 219.371094 220 Z M 199.371094 220 "/>
<path style=" stroke:none;fill-rule:nonzero;fill:rgb(0%,0%,0%);fill-opacity:1;" d="M 199.371094 180 L 199.371094 160 L 219.371094 160 L 219.371094 180 Z M 199.371094 180 "/>
<path style=" stroke:none;fill-rule:nonzero;fill:rgb(0%,0%,0%);fill-opacity:1;" d="M 199.371094 140 L 199.371094 120 L 219.371094 120 L 219.371094 140 Z M 199.371094 140 "/>
<path style=" stroke:none;fill-rule:nonzero;fill:rgb(0%,0%,0%);fill-opacity:1;" d="M 199.371094 100 L 199.371094 80 L 219.371094 80 L 219.371094 100 Z M 199.371094 100 "/>
<path style=" stroke:none;fill-rule:nonzero;fill:rgb(0%,0%,0%);fill-opacity:1;" d="M 199.371094 60 L 199.371094 40 L 219.371094 40 L 219.371094 60 Z M 199.371094 60 "/>
<path style=" stroke:none;fill-rule:nonzero;fill:rgb(0%,0%,0%);fill-opacity:1;" d="M 199.371094 20 L 199.371094 0 L 219.371094 0 L 219.371094 20 Z M 199.371094 20 "/>
<path style=" stroke:none;fill-rule:nonzero;fill:rgb(0%,0%,0%);fill-opacity:1;" d="M 235.371094 220 L 235.371094 200 L 255.371094 200 L 255.371094 220 Z M 235.371094 220 "/>
<path style=" stroke:none;fill-rule:nonzero;fill:rgb(0%,0%,0%);fill-opacity:1;" d="M 235.371094 180 L 235.371094 160 L 255.371094 160 L 255.371094 180 Z M 235.371094 180 "/>
<path style=" stroke:none;fill-rule:nonzero;fill:rgb(0%,0%,0%);fill-opacity:1;" d="M 235.371094 140 L 235.371094 120 L 255.371094 120 L 255.371094 140 Z M 235.371094 140 "/>
<path style=" stroke:none;fill-rule:nonzero;fill:rgb(0%,0%,0%);fill-opacity:1;" d="M 235.371094 100 L 235.371094 80 L 255.371094 80 L 255.371094 100 Z M 235.371094 100 "/>
<path style=" stroke:none;fill-rule:nonzero;fill:rgb(0%,0%,0%);fill-opacity:1;" d="M 235.371094 60 L 235.371094 40 L 255.371094 40 L 255.371094 60 Z M 235.371094 60 "/>
<path style=" stroke:none;fill-rule:nonzero;fill:rgb(0%,0%,0%);fill-opacity:1;" d="M 235.371094 20 L 235.371094 0 L 255.371094 0 L 255.371094 20 Z M 235.371094 20 "/>
<path style=" stroke:none;fill-rule:nonzero;fill:rgb(0%,0%,0%);fill-opacity:1;" d="M 271.371094 220 L 271.371094 200 L 291.371094 200 L 291.371094 220 Z M 271.371094 220 "/>
<path style=" stroke:none;fill-rule:nonzero;fill:rgb(0%,0%,0%);fill-opacity:1;" d="M 271.371094 180 L 271.371094 160 L 291.371094 160 L 291.371094 180 Z M 271.371094 180 "/>
<path style=" stroke:none;fill-rule:nonzero;fill:rgb(0%,0%,0%);fill-opacity:1;" d="M 271.371094 140 L 271.371094 120 L 291.371094 120 L 291.371094 140 Z M 271.371094 140 "/>
<path style=" stroke:none;fill-rule:nonzero;fill:rgb(0%,0%,0%);fill-opacity:1;" d="M 271.371094 100 L 271.371094 80 L 291.371094 80 L 291.371094 100 Z M 271.371094 100 "/>
<path style=" stroke:none;fill-rule:nonzero;fill:rgb(0%,0%,0%);fill-opacity:1;" d="M 271.371094 60 L 271.371094 40 L 291.371094 40 L 291.371094 60 Z M 271.371094 60 "/>
<path style=" stroke:none;fill-rule:nonzero;fill:rgb(0%,0%,0%);fill-opacity:1;" d="M 271.371094 20 L 271.371094 0 L 291.371094 0 L 291.371094 20 Z M 271.371094 20 "/>
<path style=" stroke:none;fill-rule:nonzero;fill:rgb(0%,0%,0%);fill-opacity:1;" d="M 307.371094 220 L 307.371094 200 L 327.371094 200 L 327.371094 220 Z M 307.371094 220 "/>
<path style=" stroke:none;fill-rule:nonzero;fill:rgb(0%,0%,0%);fill-opacity:1;" d="M 307.371094 180 L 307.371094 160 L 327.371094 160 L 327.371094 180 Z M 307.371094 180 "/>
<path style=" stroke:none;fill-rule:nonzero;fill:rgb(0%,0%,0%);fill-opacity:1;" d="M 307.371094 140 L 307.371094 120 L 327.371094 120 L 327.371094 140 Z M 307.371094 140 "/>
<path style=" stroke:none;fill-rule:nonzero;fill:rgb(0%,0%,0%);fill-opacity:1;" d="M 307.371094 100 L 307.371094 80 L 327.371094 80 L 327.371094 100 Z M 307.371094 100 "/>
<path style=" stroke:none;fill-rule:nonzero;fill:rgb(0%,0%,0%);fill-opacity:1;" d="M 307.371094 60 L 307.371094 40 L 327.371094 40 L 327.371094 60 Z M 307.371094 60 "/>
<path style=" stroke:none;fill-rule:nonzero;fill:rgb(0%,0%,0%);fill-opacity:1;" d="M 307.371094 20 L 307.371094 0 L 327.371094 0 L 327.371094 20 Z M 307.371094 20 "/>
<path style=" stroke:none;fill-rule:nonzero;fill:rgb(0%,0%,0%);fill-opacity:1;" d="M 343.371094 220 L 343.371094 200 L 363.371094 200 L 363.371094 220 Z M 343.371094 220 "/>
<path style=" stroke:none;fill-rule:nonzero;fill:rgb(0%,0%,0%);fill-opacity:1;" d="M 343.371094 180 L 343.371094 160 L 363.371094 160 L 363.371094 180 Z M 343.371094 180 "/>
<path style=" stroke:none;fill-rule:nonzero;fill:rgb(0%,0%,0%);fill-opacity:1;" d="M 343.371094 140 L 343.371094 120 L 363.371094 120 L 363.371094 140 Z M 343.371094 140 "/>
<path style=" stroke:none;fill-rule:nonzero;fill:rgb(0%,0%,0%);fill-opacity:1;" d="M 343.371094 100 L 343.371094 80 L 363.371094 80 L 363.371094 100 Z M 343.371094 100 "/>
<path style=" stroke:none;fill-rule:nonzero;fill:rgb(0%,0%,0%);fill-opacity:1;" d="M 343.371094 60 L 343.371094 40 L 363.371094 40 L 363.371094 60 Z M 343.371094 60 "/>
<path style=" stroke:none;fill-rule:nonzero;fill:rgb(0%,0%,0%);fill-opacity:1;" d="M 343.371094 20 L 343.371094 0 L 363.371094 0 L 363.371094 20 Z M 343.371094 20 "/>
<path style=" stroke:none;fill-rule:nonzero;fill:rgb(0%,0%,0%);fill-opacity:1;" d="M 379.371094 220 L 379.371094 200 L 399.371094 200 L 399.371094 220 Z M 379.371094 220 "/>
<path style=" stroke:none;fill-rule:nonzero;fill:rgb(0%,0%,0%);fill-opacity:1;" d="M 379.371094 180 L 379.371094 160 L 399.371094 160 L 399.371094 180 Z M 379.371094 180 "/>
<path style=" stroke:none;fill-rule:nonzero;fill:rgb(0%,0%,0%);fill-opacity:1;" d="M 379.371094 140 L 379.371094 120 L 399.371094 120 L 399.371094 140 Z M 379.371094 140 "/>
<path style=" stroke:none;fill-rule:nonzero;fill:rgb(0%,0%,0%);fill-opacity:1;" d="M 379.371094 100 L 379.371094 80 L 399.371094 80 L 399.371094 100 Z M 379.371094 100 "/>
<path style=" stroke:none;fill-rule:nonzero;fill:rgb(0%,0%,0%);fill-opacity:1;" d="M 379.371094 60 L 379.371094 40 L 399.371094 40 L 399.371094 60 Z M 379.371094 60 "/>
<path style=" stroke:none;fill-rule:nonzero;fill:rgb(0%,0%,0%);fill-opacity:1;" d="M 379.371094 20 L 379.371094 0 L 399.371094 0 L 399.371094 20 Z M 379.371094 20 "/>
<path style=" stroke:none;fill-rule:nonzero;fill:rgb(0%,0%,0%);fill-opacity:1;" d="M 11.027344 200 L 11.027344 180 L 31.027344 180 L 31.027344 200 Z M 11.027344 200 "/>
<path style=" stroke:none;fill-rule:nonzero;fill:rgb(0%,0%,0%);fill-opacity:1;" d="M 11.027344 160 L 11.027344 140 L 31.027344 140 L 31.027344 160 Z M 11.027344 160 "/>
<path style=" stroke:none;fill-rule:nonzero;fill:rgb(0%,0%,0%);fill-opacity:1;" d="M 11.027344 120 L 11.027344 100 L 31.027344 100 L 31.027344 120 Z M 11.027344 120 "/>
<path style=" stroke:none;fill-rule:nonzero;fill:rgb(0%,0%,0%);fill-opacity:1;" d="M 11.027344 80 L 11.027344 60 L 31.027344 60 L 31.027344 80 Z M 11.027344 80 "/>
<path style=" stroke:none;fill-rule:nonzero;fill:rgb(0%,0%,0%);fill-opacity:1;" d="M 11.027344 40 L 11.027344 20 L 31.027344 20 L 31.027344 40 Z M 11.027344 40 "/>
<path style=" stroke:none;fill-rule:nonzero;fill:rgb(0%,0%,0%);fill-opacity:1;" d="M 47.027344 200 L 47.027344 180 L 67.027344 180 L 67.027344 200 Z M 47.027344 200 "/>
<path style=" stroke:none;fill-rule:nonzero;fill:rgb(0%,0%,0%);fill-opacity:1;" d="M 47.027344 160 L 47.027344 140 L 67.027344 140 L 67.027344 160 Z M 47.027344 160 "/>
<path style=" stroke:none;fill-rule:nonzero;fill:rgb(0%,0%,0%);fill-opacity:1;" d="M 47.027344 120 L 47.027344 100 L 67.027344 100 L 67.027344 120 Z M 47.027344 120 "/>
<path style=" stroke:none;fill-rule:nonzero;fill:rgb(0%,0%,0%);fill-opacity:1;" d="M 47.027344 80 L 47.027344 60 L 67.027344 60 L 67.027344 80 Z M 47.027344 80 "/>
<path style=" stroke:none;fill-rule:nonzero;fill:rgb(0%,0%,0%);fill-opacity:1;" d="M 47.027344 40 L 47.027344 20 L 67.027344 20 L 67.027344 40 Z M 47.027344 40 "/>
<path style=" stroke:none;fill-rule:nonzero;fill:rgb(0%,0%,0%);fill-opacity:1;" d="M 83.027344 200 L 83.027344 180 L 103.027344 180 L 103.027344 200 Z M 83.027344 200 "/>
<path style=" stroke:none;fill-rule:nonzero;fill:rgb(0%,0%,0%);fill-opacity:1;" d="M 83.027344 160 L 83.027344 140 L 103.027344 140 L 103.027344 160 Z M 83.027344 160 "/>
<path style=" stroke:none;fill-rule:nonzero;fill:rgb(0%,0%,0%);fill-opacity:1;" d="M 83.027344 120 L 83.027344 100 L 103.027344 100 L 103.027344 120 Z M 83.027344 120 "/>
<path style=" stroke:none;fill-rule:nonzero;fill:rgb(0%,0%,0%);fill-opacity:1;" d="M 83.027344 80 L 83.027344 60 L 103.027344 60 L 103.027344 80 Z M 83.027344 80 "/>
<path style=" stroke:none;fill-rule:nonzero;fill:rgb(0%,0%,0%);fill-opacity:1;" d="M 83.027344 40 L 83.027344 20 L 103.027344 20 L 103.027344 40 Z M 83.027344 40 "/>
<path style=" stroke:none;fill-rule:nonzero;fill:rgb(0%,0%,0%);fill-opacity:1;" d="M 119.027344 200 L 119.027344 180 L 139.027344 180 L 139.027344 200 Z M 119.027344 200 "/>
<path style=" stroke:none;fill-rule:nonzero;fill:rgb(0%,0%,0%);fill-opacity:1;" d="M 119.027344 160 L 119.027344 140 L 139.027344 140 L 139.027344 160 Z M 119.027344 160 "/>
<path style=" stroke:none;fill-rule:nonzero;fill:rgb(0%,0%,0%);fill-opacity:1;" d="M 119.027344 120 L 119.027344 100 L 139.027344 100 L 139.027344 120 Z M 119.027344 120 "/>
<path style=" stroke:none;fill-rule:nonzero;fill:rgb(0%,0%,0%);fill-opacity:1;" d="M 119.027344 80 L 119.027344 60 L 139.027344 60 L 139.027344 80 Z M 119.027344 80 "/>
<path style=" stroke:none;fill-rule:nonzero;fill:rgb(0%,0%,0%);fill-opacity:1;" d="M 119.027344 40 L 119.027344 20 L 139.027344 20 L 139.027344 40 Z M 119.027344 40 "/>
<path style=" stroke:none;fill-rule:nonzero;fill:rgb(0%,0%,0%);fill-opacity:1;" d="M 155.027344 200 L 155.027344 180 L 175.027344 180 L 175.027344 200 Z M 155.027344 200 "/>
<path style=" stroke:none;fill-rule:nonzero;fill:rgb(0%,0%,0%);fill-opacity:1;" d="M 155.027344 160 L 155.027344 140 L 175.027344 140 L 175.027344 160 Z M 155.027344 160 "/>
<path style=" stroke:none;fill-rule:nonzero;fill:rgb(0%,0%,0%);fill-opacity:1;" d="M 155.027344 120 L 155.027344 100 L 175.027344 100 L 175.027344 120 Z M 155.027344 120 "/>
<path style=" stroke:none;fill-rule:nonzero;fill:rgb(0%,0%,0%);fill-opacity:1;" d="M 155.027344 80 L 155.027344 60 L 175.027344 60 L 175.027344 80 Z M 155.027344 80 "/>
<path style=" stroke:none;fill-rule:nonzero;fill:rgb(0%,0%,0%);fill-opacity:1;" d="M 155.027344 40 L 155.027344 20 L 175.027344 20 L 175.027344 40 Z M 155.027344 40 "/>
<path style=" stroke:none;fill-rule:nonzero;fill:rgb(0%,0%,0%);fill-opacity:1;" d="M 191.027344 200 L 191.027344 180 L 211.027344 180 L 211.027344 200 Z M 191.027344 200 "/>
<path style=" stroke:none;fill-rule:nonzero;fill:rgb(0%,0%,0%);fill-opacity:1;" d="M 191.027344 160 L 191.027344 140 L 211.027344 140 L 211.027344 160 Z M 191.027344 160 "/>
<path style=" stroke:none;fill-rule:nonzero;fill:rgb(0%,0%,0%);fill-opacity:1;" d="M 191.027344 120 L 191.027344 100 L 211.027344 100 L 211.027344 120 Z M 191.027344 120 "/>
<path style=" stroke:none;fill-rule:nonzero;fill:rgb(0%,0%,0%);fill-opacity:1;" d="M 191.027344 80 L 191.027344 60 L 211.027344 60 L 211.027344 80 Z M 191.027344 80 "/>
<path style=" stroke:none;fill-rule:nonzero;fill:rgb(0%,0%,0%);fill-opacity:1;" d="M 191.027344 40 L 191.027344 20 L 211.027344 20 L 211.027344 40 Z M 191.027344 40 "/>
<path style=" stroke:none;fill-rule:nonzero;fill:rgb(0%,0%,0%);fill-opacity:1;" d="M 227.027344 200 L 227.027344 180 L 247.027344 180 L 247.027344 200 Z M 227.027344 200 "/>
<path style=" stroke:none;fill-rule:nonzero;fill:rgb(0%,0%,0%);fill-opacity:1;" d="M 227.027344 160 L 227.027344 140 L 247.027344 140 L 247.027344 160 Z M 227.027344 160 "/>
<path style=" stroke:none;fill-rule:nonzero;fill:rgb(0%,0%,0%);fill-opacity:1;" d="M 227.027344 120 L 227.027344 100 L 247.027344 100 L 247.027344 120 Z M 227.027344 120 "/>
<path style=" stroke:none;fill-rule:nonzero;fill:rgb(0%,0%,0%);fill-opacity:1;" d="M 227.027344 80 L 227.027344 60 L 247.027344 60 L 247.027344 80 Z M 227.027344 80 "/>
<path style=" stroke:none;fill-rule:nonzero;fill:rgb(0%,0%,0%);fill-opacity:1;" d="M 227.027344 40 L 227.027344 20 L 247.027344 20 L 247.027344 40 Z M 227.027344 40 "/>
<path style=" stroke:none;fill-rule:nonzero;fill:rgb(0%,0%,0%);fill-opacity:1;" d="M 263.027344 200 L 263.027344 180 L 283.027344 180 L 283.027344 200 Z M 263.027344 200 "/>
<path style=" stroke:none;fill-rule:nonzero;fill:rgb(0%,0%,0%);fill-opacity:1;" d="M 263.027344 160 L 263.027344 140 L 283.027344 140 L 283.027344 160 Z M 263.027344 160 "/>
<path style=" stroke:none;fill-rule:nonzero;fill:rgb(0%,0%,0%);fill-opacity:1;" d="M 263.027344 120 L 263.027344 100 L 283.027344 100 L 283.027344 120 Z M 263.027344 120 "/>
<path style=" stroke:none;fill-rule:nonzero;fill:rgb(0%,0%,0%);fill-opacity:1;" d="M 263.027344 80 L 263.027344 60 L 283.027344 60 L 283.027344 80 Z M 263.027344 80 "/>
<path style=" stroke:none;fill-rule:nonzero;fill:rgb(0%,0%,0%);fill-opacity:1;" d="M 263.027344 40 L 263.027344 20 L 283.027344 20 L 283.027344 40 Z M 263.027344 40 "/>
<path style=" stroke:none;fill-rule:nonzero;fill:rgb(0%,0%,0%);fill-opacity:1;" d="M 299.027344 200 L 299.027344 180 L 319.027344 180 L 319.027344 200 Z M 299.027344 200 "/>
<path style=" stroke:none;fill-rule:nonzero;fill:rgb(0%,0%,0%);fill-opacity:1;" d="M 299.027344 160 L 299.027344 140 L 319.027344 140 L 319.027344 160 Z M 299.027344 160 "/>
<path style=" stroke:none;fill-rule:nonzero;fill:rgb(0%,0%,0%);fill-opacity:1;" d="M 299.027344 120 L 299.027344 100 L 319.027344 100 L 319.027344 120 Z M 299.027344 120 "/>
<path style=" stroke:none;fill-rule:nonzero;fill:rgb(0%,0%,0%);fill-opacity:1;" d="M 299.027344 80 L 299.027344 60 L 319.027344 60 L 319.027344 80 Z M 299.027344 80 "/>
<path style=" stroke:none;fill-rule:nonzero;fill:rgb(0%,0%,0%);fill-opacity:1;" d="M 299.027344 40 L 299.027344 20 L 319.027344 20 L 319.027344 40 Z M 299.027344 40 "/>
<path style=" stroke:none;fill-rule:nonzero;fill:rgb(0%,0%,0%);fill-opacity:1;" d="M 335.027344 200 L 335.027344 180 L 355.027344 180 L 355.027344 200 Z M 335.027344 200 "/>
<path style=" stroke:none;fill-rule:nonzero;fill:rgb(0%,0%,0%);fill-opacity:1;" d="M 335.027344 160 L 335.027344 140 L 355.027344 140 L 355.027344 160 Z M 335.027344 160 "/>
<path style=" stroke:none;fill-rule:nonzero;fill:rgb(0%,0%,0%);fill-opacity:1;" d="M 335.027344 120 L 335.027344 100 L 355.027344 100 L 355.027344 120 Z M 335.027344 120 "/>
<path style=" stroke:none;fill-rule:nonzero;fill:rgb(0%,0%,0%);fill-opacity:1;" d="M 335.027344 80 L 335.027344 60 L 355.027344 60 L 355.027344 80 Z M 335.027344 80 "/>
<path style=" stroke:none;fill-rule:nonzero;fill:rgb(0%,0%,0%);fill-opacity:1;" d="M 335.027344 40 L 335.027344 20 L 355.027344 20 L 355.027344 40 Z M 335.027344 40 "/>
<path style=" stroke:none;fill-rule:nonzero;fill:rgb(0%,0%,0%);fill-opacity:1;" d="M 371.027344 200 L 371.027344 180 L 391.027344 180 L 391.027344 200 Z M 371.027344 200 "/>
<path style=" stroke:none;fill-rule:nonzero;fill:rgb(0%,0%,0%);fill-opacity:1;" d="M 371.027344 160 L 371.027344 140 L 391.027344 140 L 391.027344 160 Z M 371.027344 160 "/>
<path style=" stroke:none;fill-rule:nonzero;fill:rgb(0%,0%,0%);fill-opacity:1;" d="M 371.027344 120 L 371.027344 100 L 391.027344 100 L 391.027344 120 Z M 371.027344 120 "/>
<path style=" stroke:none;fill-rule:nonzero;fill:rgb(0%,0%,0%);fill-opacity:1;" d="M 371.027344 80 L 371.027344 60 L 391.027344 60 L 391.027344 80 Z M 371.027344 80 "/>
<path style=" stroke:none;fill-rule:nonzero;fill:rgb(0%,0%,0%);fill-opacity:1;" d="M 371.027344 40 L 371.027344 20 L 391.027344 20 L 391.027344 40 Z M 371.027344 40 "/>
<path style="fill:none;stroke-width:1;stroke-linecap:square;stroke-linejoin:miter;stroke:rgb(100%,0%,0%);stroke-opacity:1;stroke-miterlimit:3.25;" d="M 0 220 L 400 220 "/>
<path style="fill:none;stroke-width:1;stroke-linecap:square;stroke-linejoin:miter;stroke:rgb(100%,0%,0%);stroke-opacity:1;stroke-miterlimit:3.25;" d="M 0 200 L 400 200 "/>
<path style="fill:none;stroke-width:1;stroke-linecap:square;stroke-linejoin:miter;stroke:rgb(100%,0%,0%);stroke-opacity:1;stroke-miterlimit:3.25;" d="M 0 180 L 400 180 "/>
<path style="fill:none;stroke-width:1;stroke-linecap:square;stroke-linejoin:miter;stroke:rgb(100%,0%,0%);stroke-opacity:1;stroke-miterlimit:3.25;" d="M 0 160 L 400 160 "/>
<path style="fill:none;stroke-width:1;stroke-linecap:square;stroke-linejoin:miter;stroke:rgb(100%,0%,0%);stroke-opacity:1;stroke-miterlimit:3.25;" d="M 0 140 L 400 140 "/>
<path style="fill:none;stroke-width:1;stroke-linecap:square;stroke-linejoin:miter;stroke:rgb(100%,0%,0%);stroke-opacity:1;stroke-miterlimit:3.25;" d="M 0 120 L 400 120 "/>
<path style="fill:none;stroke-width:1;stroke-linecap:square;stroke-linejoin:miter;stroke:rgb(100%,0%,0%);stroke-opacity:1;stroke-miterlimit:3.25;" d="M 0 100 L 400 100 "/>
<path style="fill:none;stroke-width:1;stroke-linecap:square;stroke-linejoin:miter;stroke:rgb(100%,0%,0%);stroke-opacity:1;stroke-miterlimit:3.25;" d="M 0 80 L 400 80 "/>
<path style="fill:none;stroke-width:1;stroke-linecap:square;stroke-linejoin:miter;stroke:rgb(100%,0%,0%);stroke-opacity:1;stroke-miterlimit:3.25;" d="M 0 60 L 400 60 "/>
<path style="fill:none;stroke-width:1;stroke-linecap:square;stroke-linejoin:miter;stroke:rgb(100%,0%,0%);stroke-opacity:1;stroke-miterlimit:3.25;" d="M 0 40 L 400 40 "/>
<path style="fill:none;stroke-width:1;stroke-linecap:square;stroke-linejoin:miter;stroke:rgb(100%,0%,0%);stroke-opacity:1;stroke-miterlimit:3.25;" d="M 0 20 L 400 20 "/>
</g>
</svg>
