<?xml version="1.0" encoding="UTF-8"?>
<svg xmlns="http://www.w3.org/2000/svg" xmlns:xlink="http://www.w3.org/1999/xlink" width="400pt" height="220pt" viewBox="0 0 400 220" version="1.1">
<g id="surface926">
<rect x="0" y="0" width="400" height="220" style="fill:rgb(0%,40%,100%);fill-opacity:0.2;stroke:none;"/>
<path style=" stroke:none;fill-rule:nonzero;fill:rgb(0%,0%,0%);fill-opacity:1;" d="M -15.410156 220 L -15.410156 200 L 4.589844 200 L 4.589844 220 Z M -15.410156 220 "/>
<path style=" stroke:none;fill-rule:nonzero;fill:rgb(0%,0%,0%);fill-opacity:1;" d="M -15.410156 180 L -15.410156 160 L 4.589844 160 L 4.589844 180 Z M -15.410156 180 "/>
<path style=" stroke:none;fill-rule:nonzero;fill:rgb(0%,0%,0%);fill-opacity:1;" d="M -15.410156 140 L -15.410156 120 L 4.589844 120 L 4.589844 140 Z M -15.410156 140 "/>
<path style=" stroke:none;fill-rule:nonzero;fill:rgb(0%,0%,0%);fill-opacity:1;" d="M -15.410156 100 L -15.410156 80 L 4.589844 80 L 4.589844 100 Z M -15.410156 100 "/>
<path style=" stroke:none;fill-rule:nonzero;fill:rgb(0%,0%,0%);fill-opacity:1;" d="M -15.410156 60 L -15.410156 40 L 4.589844 40 L 4.589844 60 Z M -15.410156 60 "/>
<path style=" stroke:none;fill-rule:nonzero;fill:rgb(0%,0%,0%);fill-opacity:1;" d="M -15.410156 20 L -15.410156 0 L 4.589844 0 L 4.589844 20 Z M -15.410156 20 "/>
<path style=" stroke:none;fill-rule:nonzero;fill:rgb(0%,0%,0%);fill-opacity:1;" d="M 20.589844 220 L 20.589844 200 L 40.589844 200 L 40.589844 220 Z M 20.589844 220 "/>
<path style=" stroke:none;fill-rule:nonzero;fill:rgb(0%,0%,0%);fill-opacity:1;" d="M 20.589844 180 L 20.589844 160 L 40.589844 160 L 40.589844 180 Z M 20.589844 180 "/>
<path style=" stroke:none;fill-rule:nonzero;fill:rgb(0%,0%,0%);fill-opacity:1;" d="M 20.589844 140 L 20.589844 120 L 40.589844 120 L 40.589844 140 Z M 20.589844 140 "/>
<path style=" stroke:none;fill-rule:nonzero;fill:rgb(0%,0%,0%);fill-opacity:1;" d="M 20.589844 100 L 20.589844 80 L 40.589844 80 L 40.589844 100 Z M 20.589844 100 "/>
<path style=" stroke:none;fill-rule:nonzero;fill:rgb(0%,0%,0%);fill-opacity:1;" d="M 20.589844 60 L 20.589844 40 L 40.589844 40 L 40.589844 60 Z M 20.589844 60 "/>
<path style=" stroke:none;fill-rule:nonzero;fill:rgb(0%,0%,0%);fill-opacity:1;" d="M 20.589844 20 L 20.589844 0 L 40.589844 0 L 40.589844 20 Z M 20.589844 20 "/>
<path style=" stroke:none;fill-rule:nonzero;fill:rgb(0%,0%,0%);fill-opacity:1;" d="M 56.589844 220 L 56.589844 200 L 76.589844 200 L 76.589844 220 Z M 56.589844 220 "/>
<path style=" stroke:none;fill-rule:nonzero;fill:rgb(0%,0%,0%);fill-opacity:1;" d="M 56.589844 180 L 56.589844 160 L 76.589844 160 L 76.589844 180 Z M 56.589844 180 "/>
<path style=" stroke:none;fill-rule:nonzero;fill:rgb(0%,0%,0%);fill-opacity:1;" d="M 56.589844 140 L 56.589844 120 L 76.589844 120 L 76.589844 140 Z M 56.589844 140 "/>
<path style=" stroke:none;fill-rule:nonzero;fill:rgb(0%,0%,0%);fill-opacity:1;" d="M 56.589844 100 L 56.589844 80 L 76.589844 80 L 76.589844 100 Z M 56.589844 100 "/>
<path style=" stroke:none;fill-rule:nonzero;fill:rgb(0%,0%,0%);fill-opacity:1;" d="M 56.589844 60 L 56.589844 40 L 76.589844 40 L 76.589844 60 Z M 56.589844 60 "/>
<path style=" stroke:none;fill-rule:nonzero;fill:rgb(0%,0%,0%);fill-opacity:1;" d="M 56.589844 20 L 56.589844 0 L 76.589844 0 L 76.589844 20 Z M 56.589844 20 "/>
<path style=" stroke:none;fill-rule:nonzero;fill:rgb(0%,0%,0%);fill-opacity:1;" d="M 92.589844 220 L 92.589844 200 L 112.589844 200 L 112.589844 220 Z M 92.589844 220 "/>
<path style=" stroke:none;fill-rule:nonzero;fill:rgb(0%,0%,0%);fill-opacity:1;" d="M 92.589844 180 L 92.589844 160 L 112.589844 160 L 112.589844 180 Z M 92.589844 180 "/>
<path style=" stroke:none;fill-rule:nonzero;fill:rgb(0%,0%,0%);fill-opacity:1;" d="M 92.589844 140 L 92.589844 120 L 112.589844 120 L 112.589844 140 Z M 92.589844 140 "/>
<path style=" stroke:none;fill-rule:nonzero;fill:rgb(0%,0%,0%);fill-opacity:1;" d="M 92.589844 100 L 92.589844 80 L 112.589844 80 L 112.589844 100 Z M 92.589844 100 "/>
<path style=" stroke:none;fill-rule:nonzero;fill:rgb(0%,0%,0%);fill-opacity:1;" d="M 92.589844 60 L 92.589844 40 L 112.589844 40 L 112.589844 60 Z M 92.589844 60 "/>
<path style=" stroke:none;fill-rule:nonzero;fill:rgb(0%,0%,0%);fill-opacity:1;" d="M 92.589844 20 L 92.589844 0 L 112.589844 0 L 112.589844 20 Z M 92.589844 20 "/>
<path style=" stroke:none;fill-rule:nonzero;fill:rgb(0%,0%,0%);fill-opacity:1;" d="M 128.589844 220 L 128.589844 200 L 148.589844 200 L 148.589844 220 Z M 128.589844 220 "/>
<path style=" stroke:none;fill-rule:nonzero;fill:rgb(0%,0%,0%);fill-opacity:1;" d="M 128.589844 180 L 128.589844 160 L 148.589844 160 L 148.589844 180 Z M 128.589844 180 "/>
<path style=" stroke:none;fill-rule:nonzero;fill:rgb(0%,0%,0%);fill-opacity:1;" d="M 128.589844 140 L 128.589844 120 L 148.589844 120 L 148.589844 140 Z M 128.589844 140 "/>
<path style=" stroke:none;fill-rule:nonzero;fill:rgb(0%,0%,0%);fill-opacity:1;" d="M 128.589844 100 L 128.589844 80 L 148.589844 80 L 148.589844 100 Z M 128.589844 100 "/>
<path style=" stroke:none;fill-rule:nonzero;fill:rgb(0%,0%,0%);fill-opacity:1;" d="M 128.589844 60 L 128.589844 40 L 148.589844 40 L 148.589844 60 Z M 128.589844 60 "/>
<path style=" stroke:none;fill-rule:nonzero;fill:rgb(0%,0%,0%);fill-opacity:1;" d="M 128.589844 20 L 128.589844 0 L 148.589844 0 L 148.589844 20 Z M 128.589844 20 "/>
<path style=" stroke:none;fill-rule:nonzero;fill:rgb(0%,0%,0%);fill-opacity:1;" d="M 164.589844 220 L 164.589844 200 L 184.589844 200 L 184.589844 220 Z M 164.589844 220 "/>
<path style=" stroke:none;fill-rule:nonzero;fill:rgb(0%,0%,0%);fill-opacity:1;" d="M 164.589844 180 L 164.589844 160 L 184.589844 160 L 184.589844 180 Z M 164.589844 180 "/>
<path style=" stroke:none;fill-rule:nonzero;fill:rgb(0%,0%,0%);fill-opacity:1;" d="M 164.589844 140 L 164.589844 120 L 184.589844 120 L 184.589844 140 Z M 164.589844 140 "/>
<path style=" stroke:none;fill-rule:nonzero;fill:rgb(0%,0%,0%);fill-opacity:1;" d="M 164.589844 100 L 164.589844 80 L 184.589844 80 L 184.589844 100 Z M 164.589844 100 "/>
<path style=" stroke:none;fill-rule:nonzero;fill:rgb(0%,0%,0%);fill-opacity:1;" d="M 164.589844 60 L 164.589844 40 L 184.589844 40 L 184.589844 60 Z M 164.589844 60 "/>
<path style=" stroke:none;fill-rule:nonzero;fill:rgb(0%,0%,0%);fill-opacity:1;" d="M 164.589844 20 L 164.589844 0 L 184.589844 0 L 184.589844 20 Z M 164.589844 20 "/>
<path style=" stroke:none;fill-rule:nonzero;fill:rgb(0%,0%,0%);fill-opacity:1;" d="M 200.589844 220 L 200.589844 200 L 220.589844 200 L 220.589844 220 Z M 200.589844 220 "/>
<path style=" stroke:none;fill-rule:nonzero;fill:rgb(0%,0%,0%);fill-opacity:1;" d="M 200.589844 180 L 200.589844 160 L 220.589844 160 L 220.589844 180 Z M 200.589844 180 "/>
<path style=" stroke:none;fill-rule:nonzero;fill:rgb(0%,0%,0%);fill-opacity:1;" d="M 200.589844 140 L 200.589844 120 L 220.589844 120 L 220.589844 140 Z M 200.589844 140 "/>
<path style=" stroke:none;fill-rule:nonzero;fill:rgb(0%,0%,0%);fill-opacity:1;" d="M 200.589844 100 L 200.589844 80 L 220.589844 80 L 220.589844 100 Z M 200.589844 100 "/>
<path style=" stroke:none;fill-rule:nonzero;fill:rgb(0%,0%,0%);fill-opacity:1;" d="M 200.589844 60 L 200.589844 40 L 220.589844 40 L 220.589844 60 Z M 200.589844 60 "/>
<path style=" stroke:none;fill-rule:nonzero;fill:rgb(0%,0%,0%);fill-opacity:1;" d="M 200.589844 20 L 200.589844 0 L 220.589844 0 L 220.589844 20 Z M 200.589844 20 "/>
<path style=" stroke:none;fill-rule:nonzero;fill:rgb(0%,0%,0%);fill-opacity:1;" d="M 236.589844 220 L 236.589844 200 L 256.589844 200 L 256.589844 220 Z M 236.589844 220 "/>
<path style=" stroke:none;fill-rule:nonzero;fill:rgb(0%,0%,0%);fill-opacity:1;" d="M 236.589844 180 L 236.589844 160 L 256.589844 160 L 256.589844 180 Z M 236.589844 180 "/>
<path style=" stroke:none;fill-rule:nonzero;fill:rgb(0%,0%,0%);fill-opacity:1;" d="M 236.589844 140 L 236.589844 120 L 256.589844 120 L 256.589844 140 Z M 236.589844 140 "/>
<path style=" stroke:none;fill-rule:nonzero;fill:rgb(0%,0%,0%);fill-opacity:1;" d="M 236.589844 100 L 236.589844 80 L 256.589844 80 L 256.589844 100 Z M 236.589844 100 "/>
<path style=" stroke:none;fill-rule:nonzero;fill:rgb(0%,0%,0%);fill-opacity:1;" d="M 236.589844 60 L 236.589844 40 L 256.589844 40 L 256.589844 60 Z M 236.589844 60 "/>
<path style=" stroke:none;fill-rule:nonzero;fill:rgb(0%,0%,0%);fill-opacity:1;" d="M 236.589844 20 L 236.589844 0 L 256.589844 0 L 256.589844 20 Z M 236.589844 20 "/>
<path style=" stroke:none;fill-rule:nonzero;fill:rgb(0%,0%,0%);fill-opacity:1;" d="M 272.589844 220 L 272.589844 200 L 292.589844 200 L 292.589844 220 Z M 272.589844 220 "/>
<path style=" stroke:none;fill-rule:nonzero;fill:rgb(0%,0%,0%);fill-opacity:1;" d="M 272.589844 180 L 272.589844 160 L 292.589844 160 L 292.589844 180 Z M 272.589844 180 "/>
<path style=" stroke:none;fill-rule:nonzero;fill:rgb(0%,0%,0%);fill-opacity:1;" d="M 272.589844 140 L 272.589844 120 L 292.589844 120 L 292.589844 140 Z M 272.589844 140 "/>
<path style=" stroke:none;fill-rule:nonzero;fill:rgb(0%,0%,0%);fill-opacity:1;" d="M 272.589844 100 L 272.589844 80 L 292.589844 80 L 292.589844 100 Z M 272.589844 100 "/>
<path style=" stroke:none;fill-rule:nonzero;fill:rgb(0%,0%,0%);fill-opacity:1;" d="M 272.589844 60 L 272.589844 40 L 292.589844 40 L 292.589844 60 Z M 272.589844 60 "/>
<path style=" stroke:none;fill-rule:nonzero;fill:rgb(0%,0%,0%);fill-opacity:1;" d="M 272.589844 20 L 272.589844 0 L 292.589844 0 L 292.589844 20 Z M 272.589844 20 "/>
<path style=" stroke:none;fill-rule:nonzero;fill:rgb(0%,0%,0%);fill-opacity:1;" d="M 308.589844 220 L 308.589844 200 L 328.589844 200 L 328.589844 220 Z M 308.589844 220 "/>
<path style=" stroke:none;fill-rule:nonzero;fill:rgb(0%,0%,0%);fill-opacity:1;" d="M 308.589844 180 L 308.589844 160 L 328.589844 160 L 328.589844 180 Z M 308.589844 180 "/>
<path style=" stroke:none;fill-rule:nonzero;fill:rgb(0%,0%,0%);fill-opacity:1;" d="M 308.589844 140 L 308.589844 120 L 328.589844 120 L 328.589844 140 Z M 308.589844 140 "/>
<path style=" stroke:none;fill-rule:nonzero;fill:rgb(0%,0%,0%);fill-opacity:1;" d="M 308.589844 100 L 308.589844 80 L 328.589844 80 L 328.589844 100 Z M 308.589844 100 "/>
<path style=" stroke:none;fill-rule:nonzero;fill:rgb(0%,0%,0%);fill-opacity:1;" d="M 308.589844 60 L 308.589844 40 L 328.589844 40 L 328.589844 60 Z M 308.589844 60 "/>
<path style=" stroke:none;fill-rule:nonzero;fill:rgb(0%,0%,0%);fill-opacity:1;" d="M 308.589844 20 L 308.589844 0 L 328.589844 0 L 328.589844 20 Z M 308.589844 20 "/>
<path style=" stroke:none;fill-rule:nonzero;fill:rgb(0%,0%,0%);fill-opacity:1;" d="M 344.589844 220 L 344.589844 200 L 364.589844 200 L 364.589844 220 Z M 344.589844 220 "/>
<path style=" stroke:none;fill-rule:nonzero;fill:rgb(0%,0%,0%);fill-opacity:1;" d="M 344.589844 180 L 344.589844 160 L 364.589844 160 L 364.589844 180 Z M 344.589844 180 "/>
<path style=" stroke:none;fill-rule:nonzero;fill:rgb(0%,0%,0%);fill-opacity:1;" d="M 344.589844 140 L 344.589844 120 L 364.589844 120 L 364.589844 140 Z M 344.589844 140 "/>
<path style=" stroke:none;fill-rule:nonzero;fill:rgb(0%,0%,0%);fill-opacity:1;" d="M 344.589844 100 L 344.589844 80 L 364.589844 80 L 364.589844 100 Z M 344.589844 100 "/>
<path style=" stroke:none;fill-rule:nonzero;fill:rgb(0%,0%,0%);fill-opacity:1;" d="M 344.589844 60 L 344.589844 40 L 364.589844 40 L 364.589844 60 Z M 344.589844 60 "/>
<path style=" stroke:none;fill-rule:nonzero;fill:rgb(0%,0%,0%);fill-opacity:1;" d="M 344.589844 20 L 344.589844 0 L 364.589844 0 L 364.589844 20 Z M 344.589844 20 "/>
<path style=" stroke:none;fill-rule:nonzero;fill:rgb(0%,0%,0%);fill-opacity:1;" d="M 380.589844 220 L 380.589844 200 L 400.589844 200 L 400.589844 220 Z M 380.589844 220 "/>
<path style=" stroke:none;fill-rule:nonzero;fill:rgb(0%,0%,0%);fill-opacity:1;" d="M 380.589844 180 L 380.589844 160 L 400.589844 160 L 400.589844 180 Z M 380.589844 180 "/>
<path style=" stroke:none;fill-rule:nonzero;fill:rgb(0%,0%,0%);fill-opacity:1;" d="M 380.589844 140 L 380.589844 120 L 400.589844 120 L 400.589844 140 Z M 380.589844 140 "/>
<path style=" stroke:none;fill-rule:nonzero;fill:rgb(0%,0%,0%);fill-opacity:1;" d="M 380.589844 100 L 380.589844 80 L 400.589844 80 L 400.589844 100 Z M 380.589844 100 "/>
<path style=" stroke:none;fill-rule:nonzero;fill:rgb(0%,0%,0%);fill-opacity:1;" d="M 380.589844 60 L 380.589844 40 L 400.589844 40 L 400.589844 60 Z M 380.589844 60 "/>
<path style=" stroke:none;fill-rule:nonzero;fill:rgb(0%,0%,0%);fill-opacity:1;" d="M 380.589844 20 L 380.589844 0 L 400.589844 0 L 400.589844 20 Z M 380.589844 20 "/>
<path style=" stroke:none;fill-rule:nonzero;fill:rgb(0%,0%,0%);fill-opacity:1;" d="M 3.25 200 L 3.25 180 L 23.25 180 L 23.25 200 Z M 3.25 200 "/>
<path style=" stroke:none;fill-rule:nonzero;fill:rgb(0%,0%,0%);fill-opacity:1;" d="M 3.25 160 L 3.25 140 L 23.25 140 L 23.25 160 Z M 3.25 160 "/>
<path style=" stroke:none;fill-rule:nonzero;fill:rgb(0%,0%,0%);fill-opacity:1;" d="M 3.25 120 L 3.25 100 L 23.25 100 L 23.25 120 Z M 3.25 120 "/>
<path style=" stroke:none;fill-rule:nonzero;fill:rgb(0%,0%,0%);fill-opacity:1;" d="M 3.25 80 L 3.25 60 L 23.25 60 L 23.25 80 Z M 3.25 80 "/>
<path style=" stroke:none;fill-rule:nonzero;fill:rgb(0%,0%,0%);fill-opacity:1;" d="M 3.25 40 L 3.25 20 L 23.25 20 L 23.25 40 Z M 3.25 40 "/>
<path style=" stroke:none;fill-rule:nonzero;fill:rgb(0%,0%,0%);fill-opacity:1;" d="M 39.25 200 L 39.25 180 L 59.25 180 L 59.25 200 Z M 39.25 200 "/>
<path style=" stroke:none;fill-rule:nonzero;fill:rgb(0%,0%,0%);fill-opacity:1;" d="M 39.25 160 L 39.25 140 L 59.25 140 L 59.25 160 Z M 39.25 160 "/>
<path style=" stroke:none;fill-rule:nonzero;fill:rgb(0%,0%,0%);fill-opacity:1;" d="M 39.25 120 L 39.25 100 L 59.25 100 L 59.25 120 Z M 39.25 120 "/>
<path style=" stroke:none;fill-rule:nonzero;fill:rgb(0%,0%,0%);fill-opacity:1;" d="M 39.25 80 L 39.25 60 L 59.25 60 L 59.25 80 Z M 39.25 80 "/>
<path style=" stroke:none;fill-rule:nonzero;fill:rgb(0%,0%,0%);fill-opacity:1;" d="M 39.25 40 L 39.25 20 L 59.25 20 L 59.25 40 Z M 39.25 40 "/>
<path style=" stroke:none;fill-rule:nonzero;fill:rgb(0%,0%,0%);fill-opacity:1;" d="M 75.25 200 L 75.25 180 L 95.25 180 L 95.25 200 Z M 75.25 200 "/>
<path style=" stroke:none;fill-rule:nonzero;fill:rgb(0%,0%,0%);fill-opacity:1;" d="M 75.25 160 L 75.25 140 L 95.25 140 L 95.25 160 Z M 75.25 160 "/>
<path style=" stroke:none;fill-rule:nonzero;fill:rgb(0%,0%,0%);fill-opacity:1;" d="M 75.25 120 L 75.25 100 L 95.25 100 L 95.25 120 Z M 75.25 120 "/>
<path style=" stroke:none;fill-rule:nonzero;fill:rgb(0%,0%,0%);fill-opacity:1;" d="M 75.25 80 L 75.25 60 L 95.25 60 L 95.25 80 Z M 75.25 80 "/>
<path style=" stroke:none;fill-rule:nonzero;fill:rgb(0%,0%,0%);fill-opacity:1;" d="M 75.25 40 L 75.25 20 L 95.25 20 L 95.25 40 Z M 75.25 40 "/>
<path style=" stroke:none;fill-rule:nonzero;fill:rgb(0%,0%,0%);fill-opacity:1;" d="M 111.25 200 L 111.25 180 L 131.25 180 L 131.25 200 Z M 111.25 200 "/>
<path style=" stroke:none;fill-rule:nonzero;fill:rgb(0%,0%,0%);fill-opacity:1;" d="M 111.25 160 L 111.25 140 L 131.25 140 L 131.25 160 Z M 111.25 160 "/>
<path style=" stroke:none;fill-rule:nonzero;fill:rgb(0%,0%,0%);fill-opacity:1;" d="M 111.25 120 L 111.25 100 L 131.25 100 L 131.25 120 Z M 111.25 120 "/>
<path style=" stroke:none;fill-rule:nonzero;fill:rgb(0%,0%,0%);fill-opacity:1;" d="M 111.25 80 L 111.25 60 L 131.25 60 L 131.25 80 Z M 111.25 80 "/>
<path style=" stroke:none;fill-rule:nonzero;fill:rgb(0%,0%,0%);fill-opacity:1;" d="M 111.25 40 L 111.25 20 L 131.25 20 L 131.25 40 Z M 111.25 40 "/>
<path style=" stroke:none;fill-rule:nonzero;fill:rgb(0%,0%,0%);fill-opacity:1;" d="M 147.25 200 L 147.25 180 L 167.25 180 L 167.25 200 Z M 147.25 200 "/>
<path style=" stroke:none;fill-rule:nonzero;fill:rgb(0%,0%,0%);fill-opacity:1;" d="M 147.25 160 L 147.25 140 L 167.25 140 L 167.25 160 Z M 147.25 160 "/>
<path style=" stroke:none;fill-rule:nonzero;fill:rgb(0%,0%,0%);fill-opacity:1;" d="M 147.25 120 L 147.25 100 L 167.25 100 L 167.25 120 Z M 147.25 120 "/>
<path style=" stroke:none;fill-rule:nonzero;fill:rgb(0%,0%,0%);fill-opacity:1;" d="M 147.25 80 L 147.25 60 L 167.25 60 L 167.25 80 Z M 147.25 80 "/>
<path style=" stroke:none;fill-rule:nonzero;fill:rgb(0%,0%,0%);fill-opacity:1;" d="M 147.25 40 L 147.25 20 L 167.25 20 L 167.25 40 Z M 147.25 40 "/>
<path style=" stroke:none;fill-rule:nonzero;fill:rgb(0%,0%,0%);fill-opacity:1;" d="M 183.25 200 L 183.25 180 L 203.25 180 L 203.25 200 Z M 183.25 200 "/>
<path style=" stroke:none;fill-rule:nonzero;fill:rgb(0%,0%,0%);fill-opacity:1;" d="M 183.25 160 L 183.25 140 L 203.25 140 L 203.25 160 Z M 183.25 160 "/>
<path style=" stroke:none;fill-rule:nonzero;fill:rgb(0%,0%,0%);fill-opacity:1;" d="M 183.25 120 L 183.25 100 L 203.25 100 L 203.25 120 Z M 183.25 120 "/>
<path style=" stroke:none;fill-rule:nonzero;fill:rgb(0%,0%,0%);fill-opacity:1;" d="M 183.25 80 L 183.25 60 L 203.25 60 L 203.25 80 Z M 183.25 80 "/>
<path style=" stroke:none;fill-rule:nonzero;fill:rgb(0%,0%,0%);fill-opacity:1;" d="M 183.25 40 L 183.25 20 L 203.25 20 L 203.25 40 Z M 183.25 40 "/>
<path style=" stroke:none;fill-rule:nonzero;fill:rgb(0%,0%,0%);fill-opacity:1;" d="M 219.25 200 L 219.25 180 L 239.25 180 L 239.25 200 Z M 219.25 200 "/>
<path style=" stroke:none;fill-rule:nonzero;fill:rgb(0%,0%,0%);fill-opacity:1;" d="M 219.25 160 L 219.25 140 L 239.25 140 L 239.25 160 Z M 219.25 160 "/>
<path style=" stroke:none;fill-rule:nonzero;fill:rgb(0%,0%,0%);fill-opacity:1;" d="M 219.25 120 L 219.25 100 L 239.25 100 L 239.25 120 Z M 219.25 120 "/>
<path style=" stroke:none;fill-rule:nonzero;fill:rgb(0%,0%,0%);fill-opacity:1;" d="M 219.25 80 L 219.25 60 L 239.25 60 L 239.25 80 Z M 219.25 80 "/>
<path style=" stroke:none;fill-rule:nonzero;fill:rgb(0%,0%,0%);fill-opacity:1;" d="M 219.25 40 L 219.25 20 L 239.25 20 L 239.25 40 Z M 219.25 40 "/>
<path style=" stroke:none;fill-rule:nonzero;fill:rgb(0%,0%,0%);fill-opacity:1;" d="M 255.25 200 L 255.25 180 L 275.25 180 L 275.25 200 Z M 255.25 200 "/>
<path style=" stroke:none;fill-rule:nonzero;fill:rgb(0%,0%,0%);fill-opacity:1;" d="M 255.25 160 L 255.25 140 L 275.25 140 L 275.25 160 Z M 255.25 160 "/>
<path style=" stroke:none;fill-rule:nonzero;fill:rgb(0%,0%,0%);fill-opacity:1;" d="M 255.25 120 L 255.25 100 L 275.25 100 L 275.25 120 Z M 255.25 120 "/>
<path style=" stroke:none;fill-rule:nonzero;fill:rgb(0%,0%,0%);fill-opacity:1;" d="M 255.25 80 L 255.25 60 L 275.25 60 L 275.25 80 Z M 255.25 80 "/>
<path style=" stroke:none;fill-rule:nonzero;fill:rgb(0%,0%,0%);fill-opacity:1;" d="M 255.25 40 L 255.25 20 L 275.25 20 L 275.25 40 Z M 255.25 40 "/>
<path style=" stroke:none;fill-rule:nonzero;fill:rgb(0%,0%,0%);fill-opacity:1;" d="M 291.25 200 L 291.25 180 L 311.25 180 L 311.25 200 Z M 291.25 200 "/>
<path style=" stroke:none;fill-rule:nonzero;fill:rgb(0%,0%,0%);fill-opacity:1;" d="M 291.25 160 L 291.25 140 L 311.25 140 L 311.25 160 Z M 291.25 160 "/>
<path style=" stroke:none;fill-rule:nonzero;fill:rgb(0%,0%,0%);fill-opacity:1;" d="M 291.25 120 L 291.25 100 L 311.25 100 L 311.25 120 Z M 291.25 120 "/>
<path style=" stroke:none;fill-rule:nonzero;fill:rgb(0%,0%,0%);fill-opacity:1;" d="M 291.25 80 L 291.25 60 L 311.25 60 L 311.25 80 Z M 291.25 80 "/>
<path style=" stroke:none;fill-rule:nonzero;fill:rgb(0%,0%,0%);fill-opacity:1;" d="M 291.25 40 L 291.25 20 L 311.25 20 L 311.25 40 Z M 291.25 40 "/>
<path style=" stroke:none;fill-rule:nonzero;fill:rgb(0%,0%,0%);fill-opacity:1;" d="M 327.25 200 L 327.25 180 L 347.25 180 L 347.25 200 Z M 327.25 200 "/>
<path style=" stroke:none;fill-rule:nonzero;fill:rgb(0%,0%,0%);fill-opacity:1;" d="M 327.25 160 L 327.25 140 L 347.25 140 L 347.25 160 Z M 327.25 160 "/>
<path style=" stroke:none;fill-rule:nonzero;fill:rgb(0%,0%,0%);fill-opacity:1;" d="M 327.25 120 L 327.25 100 L 347.25 100 L 347.25 120 Z M 327.25 120 "/>
<path style=" stroke:none;fill-rule:nonzero;fill:rgb(0%,0%,0%);fill-opacity:1;" d="M 327.25 80 L 327.25 60 L 347.25 60 L 347.25 80 Z M 327.25 80 "/>
<path style=" stroke:none;fill-rule:nonzero;fill:rgb(0%,0%,0%);fill-opacity:1;" d="M 327.25 40 L 327.25 20 L 347.25 20 L 347.25 40 Z M 327.25 40 "/>
<path style=" stroke:none;fill-rule:nonzero;fill:rgb(0%,0%,0%);fill-opacity:1;" d="M 363.25 200 L 363.25 180 L 383.25 180 L 383.25 200 Z M 363.25 200 "/>
<path style=" stroke:none;fill-rule:nonzero;fill:rgb(0%,0%,0%);fill-opacity:1;" d="M 363.25 160 L 363.25 140 L 383.25 140 L 383.25 160 Z M 363.25 160 "/>
<path style=" stroke:none;fill-rule:nonzero;fill:rgb(0%,0%,0%);fill-opacity:1;" d="M 363.25 120 L 363.25 100 L 383.25 100 L 383.25 120 Z M 363.25 120 "/>
<path style=" stroke:none;fill-rule:nonzero;fill:rgb(0%,0%,0%);fill-opacity:1;" d="M 363.25 80 L 363.25 60 L 383.25 60 L 383.25 80 Z M 363.25 80 "/>
<path style=" stroke:none;fill-rule:nonzero;fill:rgb(0%,0%,0%);fill-opacity:1;" d="M 363.25 40 L 363.25 20 L 383.25 20 L 383.25 40 Z M 363.25 40 "/>
<path style="fill:none;stroke-width:1;stroke-linecap:square;stroke-linejoin:miter;stroke:rgb(100%,0%,0%);stroke-opacity:1;stroke-miterlimit:3.25;" d="M 0 220 L 400 220 "/>
<path style="fill:none;stroke-width:1;stroke-linecap:square;stroke-linejoin:miter;stroke:rgb(100%,0%,0%);stroke-opacity:1;stroke-miterlimit:3.25;" d="M 0 200 L 400 200 "/>
<path style="fill:none;stroke-width:1;stroke-linecap:square;stroke-linejoin:miter;stroke:rgb(100%,0%,0%);stroke-opacity:1;stroke-miterlimit:3.25;" d="M 0 180 L 400 180 "/>
<path style="fill:none;stroke-width:1;stroke-linecap:square;stroke-linejoin:miter;stroke:rgb(100%,0%,0%);stroke-opacity:1;stroke-miterlimit:3.25;" d="M 0 160 L 400 160 "/>
<path style="fill:none;stroke-width:1;stroke-linecap:square;stroke-linejoin:miter;stroke:rgb(100%,0%,0%);stroke-opacity:1;stroke-miterlimit:3.25;" d="M 0 140 L 400 140 "/>
<path style="fill:none;stroke-width:1;stroke-linecap:square;stroke-linejoin:miter;stroke:rgb(100%,0%,0%);stroke-opacity:1;stroke-miterlimit:3.25;" d="M 0 120 L 400 120 "/>
<path style="fill:none;stroke-width:1;stroke-linecap:square;stroke-linejoin:miter;stroke:rgb(100%,0%,0%);stroke-opacity:1;stroke-miterlimit:3.25;" d="M 0 100 L 400 100 "/>
<path style="fill:none;stroke-width:1;stroke-linecap:square;stroke-linejoin:miter;stroke:rgb(100%,0%,0%);stroke-opacity:1;stroke-miterlimit:3.25;" d="M 0 80 L 400 80 "/>
<path style="fill:none;stroke-width:1;stroke-linecap:square;stroke-linejoin:miter;stroke:rgb(100%,0%,0%);stroke-opacity:1;stroke-miterlimit:3.25;" d="M 0 60 L 400 60 "/>
<path style="fill:none;stroke-width:1;stroke-linecap:square;stroke-linejoin:miter;stroke:rgb(100%,0%,0%);stroke-opacity:1;stroke-miterlimit:3.25;" d="M 0 40 L 400 40 "/>
<path style="fill:none;stroke-width:1;stroke-linecap:square;stroke-linejoin:miter;stroke:rgb(100%,0%,0%);stroke-opacity:1;stroke-miterlimit:3.25;" d="M 0 20 L 400 20 "/>
</g>
</svg>
