<?xml version="1.0" encoding="UTF-8"?>
<svg xmlns="http://www.w3.org/2000/svg" xmlns:xlink="http://www.w3.org/1999/xlink" width="400pt" height="220pt" viewBox="0 0 400 220" version="1.1">
<g id="surface976">
<rect x="0" y="0" width="400" height="220" style="fill:rgb(0%,40%,100%);fill-opacity:0.2;stroke:none;"/>
<path style=" stroke:none;fill-rule:nonzero;fill:rgb(0%,0%,0%);fill-opacity:1;" d="M -4.972656 220 L -4.972656 200 L 15.027344 200 L 15.027344 220 Z M -4.972656 220 "/>
<path style=" stroke:none;fill-rule:nonzero;fill:rgb(0%,0%,0%);fill-opacity:1;" d="M -4.972656 180 L -4.972656 160 L 15.027344 160 L 15.027344 180 Z M -4.972656 180 "/>
<path style=" stroke:none;fill-rule:nonzero;fill:rgb(0%,0%,0%);fill-opacity:1;" d="M -4.972656 140 L -4.972656 120 L 15.027344 120 L 15.027344 140 Z M -4.972656 140 "/>
<path style=" stroke:none;fill-rule:nonzero;fill:rgb(0%,0%,0%);fill-opacity:1;" d="M -4.972656 100 L -4.972656 80 L 15.027344 80 L 15.027344 100 Z M -4.972656 100 "/>
<path style=" stroke:none;fill-rule:nonzero;fill:rgb(0%,0%,0%);fill-opacity:1;" d="M -4.972656 60 L -4.972656 40 L 15.027344 40 L 15.027344 60 Z M -4.972656 60 "/>
<path style=" stroke:none;fill-rule:nonzero;fill:rgb(0%,0%,0%);fill-opacity:1;" d="M -4.972656 20 L -4.972656 0 L 15.027344 0 L 15.027344 20 Z M -4.972656 20 "/>
<path style=" stroke:none;fill-rule:nonzero;fill:rgb(0%,0%,0%);fill-opacity:1;" d="M 31.027344 220 L 31.027344 200 L 51.027344 200 L 51.027344 220 Z M 31.027344 220 "/>
<path style=" stroke:none;fill-rule:nonzero;fill:rgb(0%,0%,0%);fill-opacity:1;" d="M 31.027344 180 L 31.027344 160 L 51.027344 160 L 51.027344 180 Z M 31.027344 180 "/>
<path style=" stroke:none;fill-rule:nonzero;fill:rgb(0%,0%,0%);fill-opacity:1;" d="M 31.027344 140 L 31.027344 120 L 51.027344 120 L 51.027344 140 Z M 31.027344 140 "/>
<path style=" stroke:none;fill-rule:nonzero;fill:rgb(0%,0%,0%);fill-opacity:1;" d="M 31.027344 100 L 31.027344 80 L 51.027344 80 L 51.027344 100 Z M 31.027344 100 "/>
<path style=" stroke:none;fill-rule:nonzero;fill:rgb(0%,0%,0%);fill-opacity:1;" d="M 31.027344 60 L 31.027344 40 L 51.027344 40 L 51.027344 60 Z M 31.027344 60 "/>
<path style=" stroke:none;fill-rule:nonzero;fill:rgb(0%,0%,0%);fill-opacity:1;" d="M 31.027344 20 L 31.027344 0 L 51.027344 0 L 51.027344 20 Z M 31.027344 20 "/>
<path style=" stroke:none;fill-rule:nonzero;fill:rgb(0%,0%,0%);fill-opacity:1;" d="M 67.027344 220 L 67.027344 200 L 87.027344 200 L 87.027344 220 Z M 67.027344 220 "/>
<path style=" stroke:none;fill-rule:nonzero;fill:rgb(0%,0%,0%);fill-opacity:1;" d="M 67.027344 180 L 67.027344 160 L 87.027344 160 L 87.027344 180 Z M 67.027344 180 "/>
<path style=" stroke:none;fill-rule:nonzero;fill:rgb(0%,0%,0%);fill-opacity:1;" d="M 67.027344 140 L 67.027344 120 L 87.027344 120 L 87.027344 140 Z M 67.027344 140 "/>
<path style=" stroke:none;fill-rule:nonzero;fill:rgb(0%,0%,0%);fill-opacity:1;" d="M 67.027344 100 L 67.027344 80 L 87.027344 80 L 87.027344 100 Z M 67.027344 100 "/>
<path style=" stroke:none;fill-rule:nonzero;fill:rgb(0%,0%,0%);fill-opacity:1;" d="M 67.027344 60 L 67.027344 40 L 87.027344 40 L 87.027344 60 Z M 67.027344 60 "/>
<path style=" stroke:none;fill-rule:nonzero;fill:rgb(0%,0%,0%);fill-opacity:1;" d="M 67.027344 20 L 67.027344 0 L 87.027344 0 L 87.027344 20 Z M 67.027344 20 "/>
<path style=" stroke:none;fill-rule:nonzero;fill:rgb(0%,0%,0%);fill-opacity:1;" d="M 103.027344 220 L 103.027344 200 L 123.027344 200 L 123.027344 220 Z M 103.027344 220 "/>
<path style=" stroke:none;fill-rule:nonzero;fill:rgb(0%,0%,0%);fill-opacity:1;" d="M 103.027344 180 L 103.027344 160 L 123.027344 160 L 123.027344 180 Z M 103.027344 180 "/>
<path style=" stroke:none;fill-rule:nonzero;fill:rgb(0%,0%,0%);fill-opacity:1;" d="M 103.027344 140 L 103.027344 120 L 123.027344 120 L 123.027344 140 Z M 103.027344 140 "/>
<path style=" stroke:none;fill-rule:nonzero;fill:rgb(0%,0%,0%);fill-opacity:1;" d="M 103.027344 100 L 103.027344 80 L 123.027344 80 L 123.027344 100 Z M 103.027344 100 "/>
<path style=" stroke:none;fill-rule:nonzero;fill:rgb(0%,0%,0%);fill-opacity:1;" d="M 103.027344 60 L 103.027344 40 L 123.027344 40 L 123.027344 60 Z M 103.027344 60 "/>
<path style=" stroke:none;fill-rule:nonzero;fill:rgb(0%,0%,0%);fill-opacity:1;" d="M 103.027344 20 L 103.027344 0 L 123.027344 0 L 123.027344 20 Z M 103.027344 20 "/>
<path style=" stroke:none;fill-rule:nonzero;fill:rgb(0%,0%,0%);fill-opacity:1;" d="M 139.027344 220 L 139.027344 200 L 159.027344 200 L 159.027344 220 Z M 139.027344 220 "/>
<path style=" stroke:none;fill-rule:nonzero;fill:rgb(0%,0%,0%);fill-opacity:1;" d="M 139.027344 180 L 139.027344 160 L 159.027344 160 L 159.027344 180 Z M 139.027344 180 "/>
<path style=" stroke:none;fill-rule:nonzero;fill:rgb(0%,0%,0%);fill-opacity:1;" d="M 139.027344 140 L 139.027344 120 L 159.027344 120 L 159.027344 140 Z M 139.027344 140 "/>
<path style=" stroke:none;fill-rule:nonzero;fill:rgb(0%,0%,0%);fill-opacity:1;" d="M 139.027344 100 L 139.027344 80 L 159.027344 80 L 159.027344 100 Z M 139.027344 100 "/>
<path style=" stroke:none;fill-rule:nonzero;fill:rgb(0%,0%,0%);fill-opacity:1;" d="M 139.027344 60 L 139.027344 40 L 159.027344 40 L 159.027344 60 Z M 139.027344 60 "/>
<path style=" stroke:none;fill-rule:nonzero;fill:rgb(0%,0%,0%);fill-opacity:1;" d="M 139.027344 20 L 139.027344 0 L 159.027344 0 L 159.027344 20 Z M 139.027344 20 "/>
<path style=" stroke:none;fill-rule:nonzero;fill:rgb(0%,0%,0%);fill-opacity:1;" d="M 175.027344 220 L 175.027344 200 L 195.027344 200 L 195.027344 220 Z M 175.027344 220 "/>
<path style=" stroke:none;fill-rule:nonzero;fill:rgb(0%,0%,0%);fill-opacity:1;" d="M 175.027344 180 L 175.027344 160 L 195.027344 160 L 195.027344 180 Z M 175.027344 180 "/>
<path style=" stroke:none;fill-rule:nonzero;fill:rgb(0%,0%,0%);fill-opacity:1;" d="M 175.027344 140 L 175.027344 120 L 195.027344 120 L 195.027344 140 Z M 175.027344 140 "/>
<path style=" stroke:none;fill-rule:nonzero;fill:rgb(0%,0%,0%);fill-opacity:1;" d="M 175.027344 100 L 175.027344 80 L 195.027344 80 L 195.027344 100 Z M 175.027344 100 "/>
<path style=" stroke:none;fill-rule:nonzero;fill:rgb(0%,0%,0%);fill-opacity:1;" d="M 175.027344 60 L 175.027344 40 L 195.027344 40 L 195.027344 60 Z M 175.027344 60 "/>
<path style=" stroke:none;fill-rule:nonzero;fill:rgb(0%,0%,0%);fill-opacity:1;" d="M 175.027344 20 L 175.027344 0 L 195.027344 0 L 195.027344 20 Z M 175.027344 20 "/>
<path style=" stroke:none;fill-rule:nonzero;fill:rgb(0%,0%,0%);fill-opacity:1;" d="M 211.027344 220 L 211.027344 200 L 231.027344 200 L 231.027344 220 Z M 211.027344 220 "/>
<path style=" stroke:none;fill-rule:nonzero;fill:rgb(0%,0%,0%);fill-opacity:1;" d="M 211.027344 180 L 211.027344 160 L 231.027344 160 L 231.027344 180 Z M 211.027344 180 "/>
<path style=" stroke:none;fill-rule:nonzero;fill:rgb(0%,0%,0%);fill-opacity:1;" d="M 211.027344 140 L 211.027344 120 L 231.027344 120 L 231.027344 140 Z M 211.027344 140 "/>
<path style=" stroke:none;fill-rule:nonzero;fill:rgb(0%,0%,0%);fill-opacity:1;" d="M 211.027344 100 L 211.027344 80 L 231.027344 80 L 231.027344 100 Z M 211.027344 100 "/>
<path style=" stroke:none;fill-rule:nonzero;fill:rgb(0%,0%,0%);fill-opacity:1;" d="M 211.027344 60 L 211.027344 40 L 231.027344 40 L 231.027344 60 Z M 211.027344 60 "/>
<path style=" stroke:none;fill-rule:nonzero;fill:rgb(0%,0%,0%);fill-opacity:1;" d="M 211.027344 20 L 211.027344 0 L 231.027344 0 L 231.027344 20 Z M 211.027344 20 "/>
<path style=" stroke:none;fill-rule:nonzero;fill:rgb(0%,0%,0%);fill-opacity:1;" d="M 247.027344 220 L 247.027344 200 L 267.027344 200 L 267.027344 220 Z M 247.027344 220 "/>
<path style=" stroke:none;fill-rule:nonzero;fill:rgb(0%,0%,0%);fill-opacity:1;" d="M 247.027344 180 L 247.027344 160 L 267.027344 160 L 267.027344 180 Z M 247.027344 180 "/>
<path style=" stroke:none;fill-rule:nonzero;fill:rgb(0%,0%,0%);fill-opacity:1;" d="M 247.027344 140 L 247.027344 120 L 267.027344 120 L 267.027344 140 Z M 247.027344 140 "/>
<path style=" stroke:none;fill-rule:nonzero;fill:rgb(0%,0%,0%);fill-opacity:1;" d="M 247.027344 100 L 247.027344 80 L 267.027344 80 L 267.027344 100 Z M 247.027344 100 "/>
<path style=" stroke:none;fill-rule:nonzero;fill:rgb(0%,0%,0%);fill-opacity:1;" d="M 247.027344 60 L 247.027344 40 L 267.027344 40 L 267.027344 60 Z M 247.027344 60 "/>
<path style=" stroke:none;fill-rule:nonzero;fill:rgb(0%,0%,0%);fill-opacity:1;" d="M 247.027344 20 L 247.027344 0 L 267.027344 0 L 267.027344 20 Z M 247.027344 20 "/>
<path style=" stroke:none;fill-rule:nonzero;fill:rgb(0%,0%,0%);fill-opacity:1;" d="M 283.027344 220 L 283.027344 200 L 303.027344 200 L 303.027344 220 Z M 283.027344 220 "/>
<path style=" stroke:none;fill-rule:nonzero;fill:rgb(0%,0%,0%);fill-opacity:1;" d="M 283.027344 180 L 283.027344 160 L 303.027344 160 L 303.027344 180 Z M 283.027344 180 "/>
<path style=" stroke:none;fill-rule:nonzero;fill:rgb(0%,0%,0%);fill-opacity:1;" d="M 283.027344 140 L 283.027344 120 L 303.027344 120 L 303.027344 140 Z M 283.027344 140 "/>
<path style=" stroke:none;fill-rule:nonzero;fill:rgb(0%,0%,0%);fill-opacity:1;" d="M 283.027344 100 L 283.027344 80 L 303.027344 80 L 303.027344 100 Z M 283.027344 100 "/>
<path style=" stroke:none;fill-rule:nonzero;fill:rgb(0%,0%,0%);fill-opacity:1;" d="M 283.027344 60 L 283.027344 40 L 303.027344 40 L 303.027344 60 Z M 283.027344 60 "/>
<path style=" stroke:none;fill-rule:nonzero;fill:rgb(0%,0%,0%);fill-opacity:1;" d="M 283.027344 20 L 283.027344 0 L 303.027344 0 L 303.027344 20 Z M 283.027344 20 "/>
<path style=" stroke:none;fill-rule:nonzero;fill:rgb(0%,0%,0%);fill-opacity:1;" d="M 319.027344 220 L 319.027344 200 L 339.027344 200 L 339.027344 220 Z M 319.027344 220 "/>
<path style=" stroke:none;fill-rule:nonzero;fill:rgb(0%,0%,0%);fill-opacity:1;" d="M 319.027344 180 L 319.027344 160 L 339.027344 160 L 339.027344 180 Z M 319.027344 180 "/>
<path style=" stroke:none;fill-rule:nonzero;fill:rgb(0%,0%,0%);fill-opacity:1;" d="M 319.027344 140 L 319.027344 120 L 339.027344 120 L 339.027344 140 Z M 319.027344 140 "/>
<path style=" stroke:none;fill-rule:nonzero;fill:rgb(0%,0%,0%);fill-opacity:1;" d="M 319.027344 100 L 319.027344 80 L 339.027344 80 L 339.027344 100 Z M 319.027344 100 "/>
<path style=" stroke:none;fill-rule:nonzero;fill:rgb(0%,0%,0%);fill-opacity:1;" d="M 319.027344 60 L 319.027344 40 L 339.027344 40 L 339.027344 60 Z M 319.027344 60 "/>
<path style=" stroke:none;fill-rule:nonzero;fill:rgb(0%,0%,0%);fill-opacity:1;" d="M 319.027344 20 L 319.027344 0 L 339.027344 0 L 339.027344 20 Z M 319.027344 20 "/>
<path style=" stroke:none;fill-rule:nonzero;fill:rgb(0%,0%,0%);fill-opacity:1;" d="M 355.027344 220 L 355.027344 200 L 375.027344 200 L 375.027344 220 Z M 355.027344 220 "/>
<path style=" stroke:none;fill-rule:nonzero;fill:rgb(0%,0%,0%);fill-opacity:1;" d="M 355.027344 180 L 355.027344 160 L 375.027344 160 L 375.027344 180 Z M 355.027344 180 "/>
<path style=" stroke:none;fill-rule:nonzero;fill:rgb(0%,0%,0%);fill-opacity:1;" d="M 355.027344 140 L 355.027344 120 L 375.027344 120 L 375.027344 140 Z M 355.027344 140 "/>
<path style=" stroke:none;fill-rule:nonzero;fill:rgb(0%,0%,0%);fill-opacity:1;" d="M 355.027344 100 L 355.027344 80 L 375.027344 80 L 375.027344 100 Z M 355.027344 100 "/>
<path style=" stroke:none;fill-rule:nonzero;fill:rgb(0%,0%,0%);fill-opacity:1;" d="M 355.027344 60 L 355.027344 40 L 375.027344 40 L 375.027344 60 Z M 355.027344 60 "/>
<path style=" stroke:none;fill-rule:nonzero;fill:rgb(0%,0%,0%);fill-opacity:1;" d="M 355.027344 20 L 355.027344 0 L 375.027344 0 L 375.027344 20 Z M 355.027344 20 "/>
<path style=" stroke:none;fill-rule:nonzero;fill:rgb(0%,0%,0%);fill-opacity:1;" d="M 391.027344 220 L 391.027344 200 L 411.027344 200 L 411.027344 220 Z M 391.027344 220 "/>
<path style=" stroke:none;fill-rule:nonzero;fill:rgb(0%,0%,0%);fill-opacity:1;" d="M 391.027344 180 L 391.027344 160 L 411.027344 160 L 411.027344 180 Z M 391.027344 180 "/>
<path style=" stroke:none;fill-rule:nonzero;fill:rgb(0%,0%,0%);fill-opacity:1;" d="M 391.027344 140 L 391.027344 120 L 411.027344 120 L 411.027344 140 Z M 391.027344 140 "/>
<path style=" stroke:none;fill-rule:nonzero;fill:rgb(0%,0%,0%);fill-opacity:1;" d="M 391.027344 100 L 391.027344 80 L 411.027344 80 L 411.027344 100 Z M 391.027344 100 "/>
<path style=" stroke:none;fill-rule:nonzero;fill:rgb(0%,0%,0%);fill-opacity:1;" d="M 391.027344 60 L 391.027344 40 L 411.027344 40 L 411.027344 60 Z M 391.027344 60 "/>
<path style=" stroke:none;fill-rule:nonzero;fill:rgb(0%,0%,0%);fill-opacity:1;" d="M 391.027344 20 L 391.027344 0 L 411.027344 0 L 411.027344 20 Z M 391.027344 20 "/>
<path style=" stroke:none;fill-rule:nonzero;fill:rgb(0%,0%,0%);fill-opacity:1;" d="M -3.371094 200 L -3.371094 180 L 16.628906 180 L 16.628906 200 Z M -3.371094 200 "/>
<path style=" stroke:none;fill-rule:nonzero;fill:rgb(0%,0%,0%);fill-opacity:1;" d="M -3.371094 160 L -3.371094 140 L 16.628906 140 L 16.628906 160 Z M -3.371094 160 "/>
<path style=" stroke:none;fill-rule:nonzero;fill:rgb(0%,0%,0%);fill-opacity:1;" d="M -3.371094 120 L -3.371094 100 L 16.628906 100 L 16.628906 120 Z M -3.371094 120 "/>
<path style=" stroke:none;fill-rule:nonzero;fill:rgb(0%,0%,0%);fill-opacity:1;" d="M -3.371094 80 L -3.371094 60 L 16.628906 60 L 16.628906 80 Z M -3.371094 80 "/>
<path style=" stroke:none;fill-rule:nonzero;fill:rgb(0%,0%,0%);fill-opacity:1;" d="M -3.371094 40 L -3.371094 20 L 16.628906 20 L 16.628906 40 Z M -3.371094 40 "/>
<path style=" stroke:none;fill-rule:nonzero;fill:rgb(0%,0%,0%);fill-opacity:1;" d="M 32.628906 200 L 32.628906 180 L 52.628906 180 L 52.628906 200 Z M 32.628906 200 "/>
<path style=" stroke:none;fill-rule:nonzero;fill:rgb(0%,0%,0%);fill-opacity:1;" d="M 32.628906 160 L 32.628906 140 L 52.628906 140 L 52.628906 160 Z M 32.628906 160 "/>
<path style=" stroke:none;fill-rule:nonzero;fill:rgb(0%,0%,0%);fill-opacity:1;" d="M 32.628906 120 L 32.628906 100 L 52.628906 100 L 52.628906 120 Z M 32.628906 120 "/>
<path style=" stroke:none;fill-rule:nonzero;fill:rgb(0%,0%,0%);fill-opacity:1;" d="M 32.628906 80 L 32.628906 60 L 52.628906 60 L 52.628906 80 Z M 32.628906 80 "/>
<path style=" stroke:none;fill-rule:nonzero;fill:rgb(0%,0%,0%);fill-opacity:1;" d="M 32.628906 40 L 32.628906 20 L 52.628906 20 L 52.628906 40 Z M 32.628906 40 "/>
<path style=" stroke:none;fill-rule:nonzero;fill:rgb(0%,0%,0%);fill-opacity:1;" d="M 68.628906 200 L 68.628906 180 L 88.628906 180 L 88.628906 200 Z M 68.628906 200 "/>
<path style=" stroke:none;fill-rule:nonzero;fill:rgb(0%,0%,0%);fill-opacity:1;" d="M 68.628906 160 L 68.628906 140 L 88.628906 140 L 88.628906 160 Z M 68.628906 160 "/>
<path style=" stroke:none;fill-rule:nonzero;fill:rgb(0%,0%,0%);fill-opacity:1;" d="M 68.628906 120 L 68.628906 100 L 88.628906 100 L 88.628906 120 Z M 68.628906 120 "/>
<path style=" stroke:none;fill-rule:nonzero;fill:rgb(0%,0%,0%);fill-opacity:1;" d="M 68.628906 80 L 68.628906 60 L 88.628906 60 L 88.628906 80 Z M 68.628906 80 "/>
<path style=" stroke:none;fill-rule:nonzero;fill:rgb(0%,0%,0%);fill-opacity:1;" d="M 68.628906 40 L 68.628906 20 L 88.628906 20 L 88.628906 40 Z M 68.628906 40 "/>
<path style=" stroke:none;fill-rule:nonzero;fill:rgb(0%,0%,0%);fill-opacity:1;" d="M 104.628906 200 L 104.628906 180 L 124.628906 180 L 124.628906 200 Z M 104.628906 200 "/>
<path style=" stroke:none;fill-rule:nonzero;fill:rgb(0%,0%,0%);fill-opacity:1;" d="M 104.628906 160 L 104.628906 140 L 124.628906 140 L 124.628906 160 Z M 104.628906 160 "/>
<path style=" stroke:none;fill-rule:nonzero;fill:rgb(0%,0%,0%);fill-opacity:1;" d="M 104.628906 120 L 104.628906 100 L 124.628906 100 L 124.628906 120 Z M 104.628906 120 "/>
<path style=" stroke:none;fill-rule:nonzero;fill:rgb(0%,0%,0%);fill-opacity:1;" d="M 104.628906 80 L 104.628906 60 L 124.628906 60 L 124.628906 80 Z M 104.628906 80 "/>
<path style=" stroke:none;fill-rule:nonzero;fill:rgb(0%,0%,0%);fill-opacity:1;" d="M 104.628906 40 L 104.628906 20 L 124.628906 20 L 124.628906 40 Z M 104.628906 40 "/>
<path style=" stroke:none;fill-rule:nonzero;fill:rgb(0%,0%,0%);fill-opacity:1;" d="M 140.628906 200 L 140.628906 180 L 160.628906 180 L 160.628906 200 Z M 140.628906 200 "/>
<path style=" stroke:none;fill-rule:nonzero;fill:rgb(0%,0%,0%);fill-opacity:1;" d="M 140.628906 160 L 140.628906 140 L 160.628906 140 L 160.628906 160 Z M 140.628906 160 "/>
<path style=" stroke:none;fill-rule:nonzero;fill:rgb(0%,0%,0%);fill-opacity:1;" d="M 140.628906 120 L 140.628906 100 L 160.628906 100 L 160.628906 120 Z M 140.628906 120 "/>
<path style=" stroke:none;fill-rule:nonzero;fill:rgb(0%,0%,0%);fill-opacity:1;" d="M 140.628906 80 L 140.628906 60 L 160.628906 60 L 160.628906 80 Z M 140.628906 80 "/>
<path style=" stroke:none;fill-rule:nonzero;fill:rgb(0%,0%,0%);fill-opacity:1;" d="M 140.628906 40 L 140.628906 20 L 160.628906 20 L 160.628906 40 Z M 140.628906 40 "/>
<path style=" stroke:none;fill-rule:nonzero;fill:rgb(0%,0%,0%);fill-opacity:1;" d="M 176.628906 200 L 176.628906 180 L 196.628906 180 L 196.628906 200 Z M 176.628906 200 "/>
<path style=" stroke:none;fill-rule:nonzero;fill:rgb(0%,0%,0%);fill-opacity:1;" d="M 176.628906 160 L 176.628906 140 L 196.628906 140 L 196.628906 160 Z M 176.628906 160 "/>
<path style=" stroke:none;fill-rule:nonzero;fill:rgb(0%,0%,0%);fill-opacity:1;" d="M 176.628906 120 L 176.628906 100 L 196.628906 100 L 196.628906 120 Z M 176.628906 120 "/>
<path style=" stroke:none;fill-rule:nonzero;fill:rgb(0%,0%,0%);fill-opacity:1;" d="M 176.628906 80 L 176.628906 60 L 196.628906 60 L 196.628906 80 Z M 176.628906 80 "/>
<path style=" stroke:none;fill-rule:nonzero;fill:rgb(0%,0%,0%);fill-opacity:1;" d="M 176.628906 40 L 176.628906 20 L 196.628906 20 L 196.628906 40 Z M 176.628906 40 "/>
<path style=" stroke:none;fill-rule:nonzero;fill:rgb(0%,0%,0%);fill-opacity:1;" d="M 212.628906 200 L 212.628906 180 L 232.628906 180 L 232.628906 200 Z M 212.628906 200 "/>
<path style=" stroke:none;fill-rule:nonzero;fill:rgb(0%,0%,0%);fill-opacity:1;" d="M 212.628906 160 L 212.628906 140 L 232.628906 140 L 232.628906 160 Z M 212.628906 160 "/>
<path style=" stroke:none;fill-rule:nonzero;fill:rgb(0%,0%,0%);fill-opacity:1;" d="M 212.628906 120 L 212.628906 100 L 232.628906 100 L 232.628906 120 Z M 212.628906 120 "/>
<path style=" stroke:none;fill-rule:nonzero;fill:rgb(0%,0%,0%);fill-opacity:1;" d="M 212.628906 80 L 212.628906 60 L 232.628906 60 L 232.628906 80 Z M 212.628906 80 "/>
<path style=" stroke:none;fill-rule:nonzero;fill:rgb(0%,0%,0%);fill-opacity:1;" d="M 212.628906 40 L 212.628906 20 L 232.628906 20 L 232.628906 40 Z M 212.628906 40 "/>
<path style=" stroke:none;fill-rule:nonzero;fill:rgb(0%,0%,0%);fill-opacity:1;" d="M 248.628906 200 L 248.628906 180 L 268.628906 180 L 268.628906 200 Z M 248.628906 200 "/>
<path style=" stroke:none;fill-rule:nonzero;fill:rgb(0%,0%,0%);fill-opacity:1;" d="M 248.628906 160 L 248.628906 140 L 268.628906 140 L 268.628906 160 Z M 248.628906 160 "/>
<path style=" stroke:none;fill-rule:nonzero;fill:rgb(0%,0%,0%);fill-opacity:1;" d="M 248.628906 120 L 248.628906 100 L 268.628906 100 L 268.628906 120 Z M 248.628906 120 "/>
<path style=" stroke:none;fill-rule:nonzero;fill:rgb(0%,0%,0%);fill-opacity:1;" d="M 248.628906 80 L 248.628906 60 L 268.628906 60 L 268.628906 80 Z M 248.628906 80 "/>
<path style=" stroke:none;fill-rule:nonzero;fill:rgb(0%,0%,0%);fill-opacity:1;" d="M 248.628906 40 L 248.628906 20 L 268.628906 20 L 268.628906 40 Z M 248.628906 40 "/>
<path style=" stroke:none;fill-rule:nonzero;fill:rgb(0%,0%,0%);fill-opacity:1;" d="M 284.628906 200 L 284.628906 180 L 304.628906 180 L 304.628906 200 Z M 284.628906 200 "/>
<path style=" stroke:none;fill-rule:nonzero;fill:rgb(0%,0%,0%);fill-opacity:1;" d="M 284.628906 160 L 284.628906 140 L 304.628906 140 L 304.628906 160 Z M 284.628906 160 "/>
<path style=" stroke:none;fill-rule:nonzero;fill:rgb(0%,0%,0%);fill-opacity:1;" d="M 284.628906 120 L 284.628906 100 L 304.628906 100 L 304.628906 120 Z M 284.628906 120 "/>
<path style=" stroke:none;fill-rule:nonzero;fill:rgb(0%,0%,0%);fill-opacity:1;" d="M 284.628906 80 L 284.628906 60 L 304.628906 60 L 304.628906 80 Z M 284.628906 80 "/>
<path style=" stroke:none;fill-rule:nonzero;fill:rgb(0%,0%,0%);fill-opacity:1;" d="M 284.628906 40 L 284.628906 20 L 304.628906 20 L 304.628906 40 Z M 284.628906 40 "/>
<path style=" stroke:none;fill-rule:nonzero;fill:rgb(0%,0%,0%);fill-opacity:1;" d="M 320.628906 200 L 320.628906 180 L 340.628906 180 L 340.628906 200 Z M 320.628906 200 "/>
<path style=" stroke:none;fill-rule:nonzero;fill:rgb(0%,0%,0%);fill-opacity:1;" d="M 320.628906 160 L 320.628906 140 L 340.628906 140 L 340.628906 160 Z M 320.628906 160 "/>
<path style=" stroke:none;fill-rule:nonzero;fill:rgb(0%,0%,0%);fill-opacity:1;" d="M 320.628906 120 L 320.628906 100 L 340.628906 100 L 340.628906 120 Z M 320.628906 120 "/>
<path style=" stroke:none;fill-rule:nonzero;fill:rgb(0%,0%,0%);fill-opacity:1;" d="M 320.628906 80 L 320.628906 60 L 340.628906 60 L 340.628906 80 Z M 320.628906 80 "/>
<path style=" stroke:none;fill-rule:nonzero;fill:rgb(0%,0%,0%);fill-opacity:1;" d="M 320.628906 40 L 320.628906 20 L 340.628906 20 L 340.628906 40 Z M 320.628906 40 "/>
<path style=" stroke:none;fill-rule:nonzero;fill:rgb(0%,0%,0%);fill-opacity:1;" d="M 356.628906 200 L 356.628906 180 L 376.628906 180 L 376.628906 200 Z M 356.628906 200 "/>
<path style=" stroke:none;fill-rule:nonzero;fill:rgb(0%,0%,0%);fill-opacity:1;" d="M 356.628906 160 L 356.628906 140 L 376.628906 140 L 376.628906 160 Z M 356.628906 160 "/>
<path style=" stroke:none;fill-rule:nonzero;fill:rgb(0%,0%,0%);fill-opacity:1;" d="M 356.628906 120 L 356.628906 100 L 376.628906 100 L 376.628906 120 Z M 356.628906 120 "/>
<path style=" stroke:none;fill-rule:nonzero;fill:rgb(0%,0%,0%);fill-opacity:1;" d="M 356.628906 80 L 356.628906 60 L 376.628906 60 L 376.628906 80 Z M 356.628906 80 "/>
<path style=" stroke:none;fill-rule:nonzero;fill:rgb(0%,0%,0%);fill-opacity:1;" d="M 356.628906 40 L 356.628906 20 L 376.628906 20 L 376.628906 40 Z M 356.628906 40 "/>
<path style="fill:none;stroke-width:1;stroke-linecap:square;stroke-linejoin:miter;stroke:rgb(100%,0%,0%);stroke-opacity:1;stroke-miterlimit:3.25;" d="M 0 220 L 400 220 "/>
<path style="fill:none;stroke-width:1;stroke-linecap:square;stroke-linejoin:miter;stroke:rgb(100%,0%,0%);stroke-opacity:1;stroke-miterlimit:3.25;" d="M 0 200 L 400 200 "/>
<path style="fill:none;stroke-width:1;stroke-linecap:square;stroke-linejoin:miter;stroke:rgb(100%,0%,0%);stroke-opacity:1;stroke-miterlimit:3.25;" d="M 0 180 L 400 180 "/>
<path style="fill:none;stroke-width:1;stroke-linecap:square;stroke-linejoin:miter;stroke:rgb(100%,0%,0%);stroke-opacity:1;stroke-miterlimit:3.25;" d="M 0 160 L 400 160 "/>
<path style="fill:none;stroke-width:1;stroke-linecap:square;stroke-linejoin:miter;stroke:rgb(100%,0%,0%);stroke-opacity:1;stroke-miterlimit:3.25;" d="M 0 140 L 400 140 "/>
<path style="fill:none;stroke-width:1;stroke-linecap:square;stroke-linejoin:miter;stroke:rgb(100%,0%,0%);stroke-opacity:1;stroke-miterlimit:3.25;" d="M 0 120 L 400 120 "/>
<path style="fill:none;stroke-width:1;stroke-linecap:square;stroke-linejoin:miter;stroke:rgb(100%,0%,0%);stroke-opacity:1;stroke-miterlimit:3.25;" d="M 0 100 L 400 100 "/>
<path style="fill:none;stroke-width:1;stroke-linecap:square;stroke-linejoin:miter;stroke:rgb(100%,0%,0%);stroke-opacity:1;stroke-miterlimit:3.25;" d="M 0 80 L 400 80 "/>
<path style="fill:none;stroke-width:1;stroke-linecap:square;stroke-linejoin:miter;stroke:rgb(100%,0%,0%);stroke-opacity:1;stroke-miterlimit:3.25;" d="M 0 60 L 400 60 "/>
<path style="fill:none;stroke-width:1;stroke-linecap:square;stroke-linejoin:miter;stroke:rgb(100%,0%,0%);stroke-opacity:1;stroke-miterlimit:3.25;" d="M 0 40 L 400 40 "/>
<path style="fill:none;stroke-width:1;stroke-linecap:square;stroke-linejoin:miter;stroke:rgb(100%,0%,0%);stroke-opacity:1;stroke-miterlimit:3.25;" d="M 0 20 L 400 20 "/>
</g>
</svg>
