<?xml version="1.0" encoding="UTF-8"?>
<svg xmlns="http://www.w3.org/2000/svg" xmlns:xlink="http://www.w3.org/1999/xlink" width="400pt" height="220pt" viewBox="0 0 400 220" version="1.1">
<g id="surface891">
<rect x="0" y="0" width="400" height="220" style="fill:rgb(0%,40%,100%);fill-opacity:0.2;stroke:none;"/>
<path style=" stroke:none;fill-rule:nonzero;fill:rgb(0%,0%,0%);fill-opacity:1;" d="M -19.371094 220 L -19.371094 200 L 0.628906 200 L 0.628906 220 Z M -19.371094 220 "/>
<path style=" stroke:none;fill-rule:nonzero;fill:rgb(0%,0%,0%);fill-opacity:1;" d="M -19.371094 180 L -19.371094 160 L 0.628906 160 L 0.628906 180 Z M -19.371094 180 "/>
<path style=" stroke:none;fill-rule:nonzero;fill:rgb(0%,0%,0%);fill-opacity:1;" d="M -19.371094 140 L -19.371094 120 L 0.628906 120 L 0.628906 140 Z M -19.371094 140 "/>
<path style=" stroke:none;fill-rule:nonzero;fill:rgb(0%,0%,0%);fill-opacity:1;" d="M -19.371094 100 L -19.371094 80 L 0.628906 80 L 0.628906 100 Z M -19.371094 100 "/>
<path style=" stroke:none;fill-rule:nonzero;fill:rgb(0%,0%,0%);fill-opacity:1;" d="M -19.371094 60 L -19.371094 40 L 0.628906 40 L 0.628906 60 Z M -19.371094 60 "/>
<path style=" stroke:none;fill-rule:nonzero;fill:rgb(0%,0%,0%);fill-opacity:1;" d="M -19.371094 20 L -19.371094 0 L 0.628906 0 L 0.628906 20 Z M -19.371094 20 "/>
<path style=" stroke:none;fill-rule:nonzero;fill:rgb(0%,0%,0%);fill-opacity:1;" d="M 16.628906 220 L 16.628906 200 L 36.628906 200 L 36.628906 220 Z M 16.628906 220 "/>
<path style=" stroke:none;fill-rule:nonzero;fill:rgb(0%,0%,0%);fill-opacity:1;" d="M 16.628906 180 L 16.628906 160 L 36.628906 160 L 36.628906 180 Z M 16.628906 180 "/>
<path style=" stroke:none;fill-rule:nonzero;fill:rgb(0%,0%,0%);fill-opacity:1;" d="M 16.628906 140 L 16.628906 120 L 36.628906 120 L 36.628906 140 Z M 16.628906 140 "/>
<path style=" stroke:none;fill-rule:nonzero;fill:rgb(0%,0%,0%);fill-opacity:1;" d="M 16.628906 100 L 16.628906 80 L 36.628906 80 L 36.628906 100 Z M 16.628906 100 "/>
<path style=" stroke:none;fill-rule:nonzero;fill:rgb(0%,0%,0%);fill-opacity:1;" d="M 16.628906 60 L 16.628906 40 L 36.628906 40 L 36.628906 60 Z M 16.628906 60 "/>
<path style=" stroke:none;fill-rule:nonzero;fill:rgb(0%,0%,0%);fill-opacity:1;" d="M 16.628906 20 L 16.628906 0 L 36.628906 0 L 36.628906 20 Z M 16.628906 20 "/>
<path style=" stroke:none;fill-rule:nonzero;fill:rgb(0%,0%,0%);fill-opacity:1;" d="M 52.628906 220 L 52.628906 200 L 72.628906 200 L 72.628906 220 Z M 52.628906 220 "/>
<path style=" stroke:none;fill-rule:nonzero;fill:rgb(0%,0%,0%);fill-opacity:1;" d="M 52.628906 180 L 52.628906 160 L 72.628906 160 L 72.628906 180 Z M 52.628906 180 "/>
<path style=" stroke:none;fill-rule:nonzero;fill:rgb(0%,0%,0%);fill-opacity:1;" d="M 52.628906 140 L 52.628906 120 L 72.628906 120 L 72.628906 140 Z M 52.628906 140 "/>
<path style=" stroke:none;fill-rule:nonzero;fill:rgb(0%,0%,0%);fill-opacity:1;" d="M 52.628906 100 L 52.628906 80 L 72.628906 80 L 72.628906 100 Z M 52.628906 100 "/>
<path style=" stroke:none;fill-rule:nonzero;fill:rgb(0%,0%,0%);fill-opacity:1;" d="M 52.628906 60 L 52.628906 40 L 72.628906 40 L 72.628906 60 Z M 52.628906 60 "/>
<path style=" stroke:none;fill-rule:nonzero;fill:rgb(0%,0%,0%);fill-opacity:1;" d="M 52.628906 20 L 52.628906 0 L 72.628906 0 L 72.628906 20 Z M 52.628906 20 "/>
<path style=" stroke:none;fill-rule:nonzero;fill:rgb(0%,0%,0%);fill-opacity:1;" d="M 88.628906 220 L 88.628906 200 L 108.628906 200 L 108.628906 220 Z M 88.628906 220 "/>
<path style=" stroke:none;fill-rule:nonzero;fill:rgb(0%,0%,0%);fill-opacity:1;" d="M 88.628906 180 L 88.628906 160 L 108.628906 160 L 108.628906 180 Z M 88.628906 180 "/>
<path style=" stroke:none;fill-rule:nonzero;fill:rgb(0%,0%,0%);fill-opacity:1;" d="M 88.628906 140 L 88.628906 120 L 108.628906 120 L 108.628906 140 Z M 88.628906 140 "/>
<path style=" stroke:none;fill-rule:nonzero;fill:rgb(0%,0%,0%);fill-opacity:1;" d="M 88.628906 100 L 88.628906 80 L 108.628906 80 L 108.628906 100 Z M 88.628906 100 "/>
<path style=" stroke:none;fill-rule:nonzero;fill:rgb(0%,0%,0%);fill-opacity:1;" d="M 88.628906 60 L 88.628906 40 L 108.628906 40 L 108.628906 60 Z M 88.628906 60 "/>
<path style=" stroke:none;fill-rule:nonzero;fill:rgb(0%,0%,0%);fill-opacity:1;" d="M 88.628906 20 L 88.628906 0 L 108.628906 0 L 108.628906 20 Z M 88.628906 20 "/>
<path style=" stroke:none;fill-rule:nonzero;fill:rgb(0%,0%,0%);fill-opacity:1;" d="M 124.628906 220 L 124.628906 200 L 144.628906 200 L 144.628906 220 Z M 124.628906 220 "/>
<path style=" stroke:none;fill-rule:nonzero;fill:rgb(0%,0%,0%);fill-opacity:1;" d="M 124.628906 180 L 124.628906 160 L 144.628906 160 L 144.628906 180 Z M 124.628906 180 "/>
<path style=" stroke:none;fill-rule:nonzero;fill:rgb(0%,0%,0%);fill-opacity:1;" d="M 124.628906 140 L 124.628906 120 L 144.628906 120 L 144.628906 140 Z M 124.628906 140 "/>
<path style=" stroke:none;fill-rule:nonzero;fill:rgb(0%,0%,0%);fill-opacity:1;" d="M 124.628906 100 L 124.628906 80 L 144.628906 80 L 144.628906 100 Z M 124.628906 100 "/>
<path style=" stroke:none;fill-rule:nonzero;fill:rgb(0%,0%,0%);fill-opacity:1;" d="M 124.628906 60 L 124.628906 40 L 144.628906 40 L 144.628906 60 Z M 124.628906 60 "/>
<path style=" stroke:none;fill-rule:nonzero;fill:rgb(0%,0%,0%);fill-opacity:1;" d="M 124.628906 20 L 124.628906 0 L 144.628906 0 L 144.628906 20 Z M 124.628906 20 "/>
<path style=" stroke:none;fill-rule:nonzero;fill:rgb(0%,0%,0%);fill-opacity:1;" d="M 160.628906 220 L 160.628906 200 L 180.628906 200 L 180.628906 220 Z M 160.628906 220 "/>
<path style=" stroke:none;fill-rule:nonzero;fill:rgb(0%,0%,0%);fill-opacity:1;" d="M 160.628906 180 L 160.628906 160 L 180.628906 160 L 180.628906 180 Z M 160.628906 180 "/>
<path style=" stroke:none;fill-rule:nonzero;fill:rgb(0%,0%,0%);fill-opacity:1;" d="M 160.628906 140 L 160.628906 120 L 180.628906 120 L 180.628906 140 Z M 160.628906 140 "/>
<path style=" stroke:none;fill-rule:nonzero;fill:rgb(0%,0%,0%);fill-opacity:1;" d="M 160.628906 100 L 160.628906 80 L 180.628906 80 L 180.628906 100 Z M 160.628906 100 "/>
<path style=" stroke:none;fill-rule:nonzero;fill:rgb(0%,0%,0%);fill-opacity:1;" d="M 160.628906 60 L 160.628906 40 L 180.628906 40 L 180.628906 60 Z M 160.628906 60 "/>
<path style=" stroke:none;fill-rule:nonzero;fill:rgb(0%,0%,0%);fill-opacity:1;" d="M 160.628906 20 L 160.628906 0 L 180.628906 0 L 180.628906 20 Z M 160.628906 20 "/>
<path style=" stroke:none;fill-rule:nonzero;fill:rgb(0%,0%,0%);fill-opacity:1;" d="M 196.628906 220 L 196.628906 200 L 216.628906 200 L 216.628906 220 Z M 196.628906 220 "/>
<path style=" stroke:none;fill-rule:nonzero;fill:rgb(0%,0%,0%);fill-opacity:1;" d="M 196.628906 180 L 196.628906 160 L 216.628906 160 L 216.628906 180 Z M 196.628906 180 "/>
<path style=" stroke:none;fill-rule:nonzero;fill:rgb(0%,0%,0%);fill-opacity:1;" d="M 196.628906 140 L 196.628906 120 L 216.628906 120 L 216.628906 140 Z M 196.628906 140 "/>
<path style=" stroke:none;fill-rule:nonzero;fill:rgb(0%,0%,0%);fill-opacity:1;" d="M 196.628906 100 L 196.628906 80 L 216.628906 80 L 216.628906 100 Z M 196.628906 100 "/>
<path style=" stroke:none;fill-rule:nonzero;fill:rgb(0%,0%,0%);fill-opacity:1;" d="M 196.628906 60 L 196.628906 40 L 216.628906 40 L 216.628906 60 Z M 196.628906 60 "/>
<path style=" stroke:none;fill-rule:nonzero;fill:rgb(0%,0%,0%);fill-opacity:1;" d="M 196.628906 20 L 196.628906 0 L 216.628906 0 L 216.628906 20 Z M 196.628906 20 "/>
<path style=" stroke:none;fill-rule:nonzero;fill:rgb(0%,0%,0%);fill-opacity:1;" d="M 232.628906 220 L 232.628906 200 L 252.628906 200 L 252.628906 220 Z M 232.628906 220 "/>
<path style=" stroke:none;fill-rule:nonzero;fill:rgb(0%,0%,0%);fill-opacity:1;" d="M 232.628906 180 L 232.628906 160 L 252.628906 160 L 252.628906 180 Z M 232.628906 180 "/>
<path style=" stroke:none;fill-rule:nonzero;fill:rgb(0%,0%,0%);fill-opacity:1;" d="M 232.628906 140 L 232.628906 120 L 252.628906 120 L 252.628906 140 Z M 232.628906 140 "/>
<path style=" stroke:none;fill-rule:nonzero;fill:rgb(0%,0%,0%);fill-opacity:1;" d="M 232.628906 100 L 232.628906 80 L 252.628906 80 L 252.628906 100 Z M 232.628906 100 "/>
<path style=" stroke:none;fill-rule:nonzero;fill:rgb(0%,0%,0%);fill-opacity:1;" d="M 232.628906 60 L 232.628906 40 L 252.628906 40 L 252.628906 60 Z M 232.628906 60 "/>
<path style=" stroke:none;fill-rule:nonzero;fill:rgb(0%,0%,0%);fill-opacity:1;" d="M 232.628906 20 L 232.628906 0 L 252.628906 0 L 252.628906 20 Z M 232.628906 20 "/>
<path style=" stroke:none;fill-rule:nonzero;fill:rgb(0%,0%,0%);fill-opacity:1;" d="M 268.628906 220 L 268.628906 200 L 288.628906 200 L 288.628906 220 Z M 268.628906 220 "/>
<path style=" stroke:none;fill-rule:nonzero;fill:rgb(0%,0%,0%);fill-opacity:1;" d="M 268.628906 180 L 268.628906 160 L 288.628906 160 L 288.628906 180 Z M 268.628906 180 "/>
<path style=" stroke:none;fill-rule:nonzero;fill:rgb(0%,0%,0%);fill-opacity:1;" d="M 268.628906 140 L 268.628906 120 L 288.628906 120 L 288.628906 140 Z M 268.628906 140 "/>
<path style=" stroke:none;fill-rule:nonzero;fill:rgb(0%,0%,0%);fill-opacity:1;" d="M 268.628906 100 L 268.628906 80 L 288.628906 80 L 288.628906 100 Z M 268.628906 100 "/>
<path style=" stroke:none;fill-rule:nonzero;fill:rgb(0%,0%,0%);fill-opacity:1;" d="M 268.628906 60 L 268.628906 40 L 288.628906 40 L 288.628906 60 Z M 268.628906 60 "/>
<path style=" stroke:none;fill-rule:nonzero;fill:rgb(0%,0%,0%);fill-opacity:1;" d="M 268.628906 20 L 268.628906 0 L 288.628906 0 L 288.628906 20 Z M 268.628906 20 "/>
<path style=" stroke:none;fill-rule:nonzero;fill:rgb(0%,0%,0%);fill-opacity:1;" d="M 304.628906 220 L 304.628906 200 L 324.628906 200 L 324.628906 220 Z M 304.628906 220 "/>
<path style=" stroke:none;fill-rule:nonzero;fill:rgb(0%,0%,0%);fill-opacity:1;" d="M 304.628906 180 L 304.628906 160 L 324.628906 160 L 324.628906 180 Z M 304.628906 180 "/>
<path style=" stroke:none;fill-rule:nonzero;fill:rgb(0%,0%,0%);fill-opacity:1;" d="M 304.628906 140 L 304.628906 120 L 324.628906 120 L 324.628906 140 Z M 304.628906 140 "/>
<path style=" stroke:none;fill-rule:nonzero;fill:rgb(0%,0%,0%);fill-opacity:1;" d="M 304.628906 100 L 304.628906 80 L 324.628906 80 L 324.628906 100 Z M 304.628906 100 "/>
<path style=" stroke:none;fill-rule:nonzero;fill:rgb(0%,0%,0%);fill-opacity:1;" d="M 304.628906 60 L 304.628906 40 L 324.628906 40 L 324.628906 60 Z M 304.628906 60 "/>
<path style=" stroke:none;fill-rule:nonzero;fill:rgb(0%,0%,0%);fill-opacity:1;" d="M 304.628906 20 L 304.628906 0 L 324.628906 0 L 324.628906 20 Z M 304.628906 20 "/>
<path style=" stroke:none;fill-rule:nonzero;fill:rgb(0%,0%,0%);fill-opacity:1;" d="M 340.628906 220 L 340.628906 200 L 360.628906 200 L 360.628906 220 Z M 340.628906 220 "/>
<path style=" stroke:none;fill-rule:nonzero;fill:rgb(0%,0%,0%);fill-opacity:1;" d="M 340.628906 180 L 340.628906 160 L 360.628906 160 L 360.628906 180 Z M 340.628906 180 "/>
<path style=" stroke:none;fill-rule:nonzero;fill:rgb(0%,0%,0%);fill-opacity:1;" d="M 340.628906 140 L 340.628906 120 L 360.628906 120 L 360.628906 140 Z M 340.628906 140 "/>
<path style=" stroke:none;fill-rule:nonzero;fill:rgb(0%,0%,0%);fill-opacity:1;" d="M 340.628906 100 L 340.628906 80 L 360.628906 80 L 360.628906 100 Z M 340.628906 100 "/>
<path style=" stroke:none;fill-rule:nonzero;fill:rgb(0%,0%,0%);fill-opacity:1;" d="M 340.628906 60 L 340.628906 40 L 360.628906 40 L 360.628906 60 Z M 340.628906 60 "/>
<path style=" stroke:none;fill-rule:nonzero;fill:rgb(0%,0%,0%);fill-opacity:1;" d="M 340.628906 20 L 340.628906 0 L 360.628906 0 L 360.628906 20 Z M 340.628906 20 "/>
<path style=" stroke:none;fill-rule:nonzero;fill:rgb(0%,0%,0%);fill-opacity:1;" d="M 376.628906 220 L 376.628906 200 L 396.628906 200 L 396.628906 220 Z M 376.628906 220 "/>
<path style=" stroke:none;fill-rule:nonzero;fill:rgb(0%,0%,0%);fill-opacity:1;" d="M 376.628906 180 L 376.628906 160 L 396.628906 160 L 396.628906 180 Z M 376.628906 180 "/>
<path style=" stroke:none;fill-rule:nonzero;fill:rgb(0%,0%,0%);fill-opacity:1;" d="M 376.628906 140 L 376.628906 120 L 396.628906 120 L 396.628906 140 Z M 376.628906 140 "/>
<path style=" stroke:none;fill-rule:nonzero;fill:rgb(0%,0%,0%);fill-opacity:1;" d="M 376.628906 100 L 376.628906 80 L 396.628906 80 L 396.628906 100 Z M 376.628906 100 "/>
<path style=" stroke:none;fill-rule:nonzero;fill:rgb(0%,0%,0%);fill-opacity:1;" d="M 376.628906 60 L 376.628906 40 L 396.628906 40 L 396.628906 60 Z M 376.628906 60 "/>
<path style=" stroke:none;fill-rule:nonzero;fill:rgb(0%,0%,0%);fill-opacity:1;" d="M 376.628906 20 L 376.628906 0 L 396.628906 0 L 396.628906 20 Z M 376.628906 20 "/>
<path style=" stroke:none;fill-rule:nonzero;fill:rgb(0%,0%,0%);fill-opacity:1;" d="M 11.027344 200 L 11.027344 180 L 31.027344 180 L 31.027344 200 Z M 11.027344 200 "/>
<path style=" stroke:none;fill-rule:nonzero;fill:rgb(0%,0%,0%);fill-opacity:1;" d="M 11.027344 160 L 11.027344 140 L 31.027344 140 L 31.027344 160 Z M 11.027344 160 "/>
<path style=" stroke:none;fill-rule:nonzero;fill:rgb(0%,0%,0%);fill-opacity:1;" d="M 11.027344 120 L 11.027344 100 L 31.027344 100 L 31.027344 120 Z M 11.027344 120 "/>
<path style=" stroke:none;fill-rule:nonzero;fill:rgb(0%,0%,0%);fill-opacity:1;" d="M 11.027344 80 L 11.027344 60 L 31.027344 60 L 31.027344 80 Z M 11.027344 80 "/>
<path style=" stroke:none;fill-rule:nonzero;fill:rgb(0%,0%,0%);fill-opacity:1;" d="M 11.027344 40 L 11.027344 20 L 31.027344 20 L 31.027344 40 Z M 11.027344 40 "/>
<path style=" stroke:none;fill-rule:nonzero;fill:rgb(0%,0%,0%);fill-opacity:1;" d="M 47.027344 200 L 47.027344 180 L 67.027344 180 L 67.027344 200 Z M 47.027344 200 "/>
<path style=" stroke:none;fill-rule:nonzero;fill:rgb(0%,0%,0%);fill-opacity:1;" d="M 47.027344 160 L 47.027344 140 L 67.027344 140 L 67.027344 160 Z M 47.027344 160 "/>
<path style=" stroke:none;fill-rule:nonzero;fill:rgb(0%,0%,0%);fill-opacity:1;" d="M 47.027344 120 L 47.027344 100 L 67.027344 100 L 67.027344 120 Z M 47.027344 120 "/>
<path style=" stroke:none;fill-rule:nonzero;fill:rgb(0%,0%,0%);fill-opacity:1;" d="M 47.027344 80 L 47.027344 60 L 67.027344 60 L 67.027344 80 Z M 47.027344 80 "/>
<path style=" stroke:none;fill-rule:nonzero;fill:rgb(0%,0%,0%);fill-opacity:1;" d="M 47.027344 40 L 47.027344 20 L 67.027344 20 L 67.027344 40 Z M 47.027344 40 "/>
<path style=" stroke:none;fill-rule:nonzero;fill:rgb(0%,0%,0%);fill-opacity:1;" d="M 83.027344 200 L 83.027344 180 L 103.027344 180 L 103.027344 200 Z M 83.027344 200 "/>
<path style=" stroke:none;fill-rule:nonzero;fill:rgb(0%,0%,0%);fill-opacity:1;" d="M 83.027344 160 L 83.027344 140 L 103.027344 140 L 103.027344 160 Z M 83.027344 160 "/>
<path style=" stroke:none;fill-rule:nonzero;fill:rgb(0%,0%,0%);fill-opacity:1;" d="M 83.027344 120 L 83.027344 100 L 103.027344 100 L 103.027344 120 Z M 83.027344 120 "/>
<path style=" stroke:none;fill-rule:nonzero;fill:rgb(0%,0%,0%);fill-opacity:1;" d="M 83.027344 80 L 83.027344 60 L 103.027344 60 L 103.027344 80 Z M 83.027344 80 "/>
<path style=" stroke:none;fill-rule:nonzero;fill:rgb(0%,0%,0%);fill-opacity:1;" d="M 83.027344 40 L 83.027344 20 L 103.027344 20 L 103.027344 40 Z M 83.027344 40 "/>
<path style=" stroke:none;fill-rule:nonzero;fill:rgb(0%,0%,0%);fill-opacity:1;" d="M 119.027344 200 L 119.027344 180 L 139.027344 180 L 139.027344 200 Z M 119.027344 200 "/>
<path style=" stroke:none;fill-rule:nonzero;fill:rgb(0%,0%,0%);fill-opacity:1;" d="M 119.027344 160 L 119.027344 140 L 139.027344 140 L 139.027344 160 Z M 119.027344 160 "/>
<path style=" stroke:none;fill-rule:nonzero;fill:rgb(0%,0%,0%);fill-opacity:1;" d="M 119.027344 120 L 119.027344 100 L 139.027344 100 L 139.027344 120 Z M 119.027344 120 "/>
<path style=" stroke:none;fill-rule:nonzero;fill:rgb(0%,0%,0%);fill-opacity:1;" d="M 119.027344 80 L 119.027344 60 L 139.027344 60 L 139.027344 80 Z M 119.027344 80 "/>
<path style=" stroke:none;fill-rule:nonzero;fill:rgb(0%,0%,0%);fill-opacity:1;" d="M 119.027344 40 L 119.027344 20 L 139.027344 20 L 139.027344 40 Z M 119.027344 40 "/>
<path style=" stroke:none;fill-rule:nonzero;fill:rgb(0%,0%,0%);fill-opacity:1;" d="M 155.027344 200 L 155.027344 180 L 175.027344 180 L 175.027344 200 Z M 155.027344 200 "/>
<path style=" stroke:none;fill-rule:nonzero;fill:rgb(0%,0%,0%);fill-opacity:1;" d="M 155.027344 160 L 155.027344 140 L 175.027344 140 L 175.027344 160 Z M 155.027344 160 "/>
<path style=" stroke:none;fill-rule:nonzero;fill:rgb(0%,0%,0%);fill-opacity:1;" d="M 155.027344 120 L 155.027344 100 L 175.027344 100 L 175.027344 120 Z M 155.027344 120 "/>
<path style=" stroke:none;fill-rule:nonzero;fill:rgb(0%,0%,0%);fill-opacity:1;" d="M 155.027344 80 L 155.027344 60 L 175.027344 60 L 175.027344 80 Z M 155.027344 80 "/>
<path style=" stroke:none;fill-rule:nonzero;fill:rgb(0%,0%,0%);fill-opacity:1;" d="M 155.027344 40 L 155.027344 20 L 175.027344 20 L 175.027344 40 Z M 155.027344 40 "/>
<path style=" stroke:none;fill-rule:nonzero;fill:rgb(0%,0%,0%);fill-opacity:1;" d="M 191.027344 200 L 191.027344 180 L 211.027344 180 L 211.027344 200 Z M 191.027344 200 "/>
<path style=" stroke:none;fill-rule:nonzero;fill:rgb(0%,0%,0%);fill-opacity:1;" d="M 191.027344 160 L 191.027344 140 L 211.027344 140 L 211.027344 160 Z M 191.027344 160 "/>
<path style=" stroke:none;fill-rule:nonzero;fill:rgb(0%,0%,0%);fill-opacity:1;" d="M 191.027344 120 L 191.027344 100 L 211.027344 100 L 211.027344 120 Z M 191.027344 120 "/>
<path style=" stroke:none;fill-rule:nonzero;fill:rgb(0%,0%,0%);fill-opacity:1;" d="M 191.027344 80 L 191.027344 60 L 211.027344 60 L 211.027344 80 Z M 191.027344 80 "/>
<path style=" stroke:none;fill-rule:nonzero;fill:rgb(0%,0%,0%);fill-opacity:1;" d="M 191.027344 40 L 191.027344 20 L 211.027344 20 L 211.027344 40 Z M 191.027344 40 "/>
<path style=" stroke:none;fill-rule:nonzero;fill:rgb(0%,0%,0%);fill-opacity:1;" d="M 227.027344 200 L 227.027344 180 L 247.027344 180 L 247.027344 200 Z M 227.027344 200 "/>
<path style=" stroke:none;fill-rule:nonzero;fill:rgb(0%,0%,0%);fill-opacity:1;" d="M 227.027344 160 L 227.027344 140 L 247.027344 140 L 247.027344 160 Z M 227.027344 160 "/>
<path style=" stroke:none;fill-rule:nonzero;fill:rgb(0%,0%,0%);fill-opacity:1;" d="M 227.027344 120 L 227.027344 100 L 247.027344 100 L 247.027344 120 Z M 227.027344 120 "/>
<path style=" stroke:none;fill-rule:nonzero;fill:rgb(0%,0%,0%);fill-opacity:1;" d="M 227.027344 80 L 227.027344 60 L 247.027344 60 L 247.027344 80 Z M 227.027344 80 "/>
<path style=" stroke:none;fill-rule:nonzero;fill:rgb(0%,0%,0%);fill-opacity:1;" d="M 227.027344 40 L 227.027344 20 L 247.027344 20 L 247.027344 40 Z M 227.027344 40 "/>
<path style=" stroke:none;fill-rule:nonzero;fill:rgb(0%,0%,0%);fill-opacity:1;" d="M 263.027344 200 L 263.027344 180 L 283.027344 180 L 283.027344 200 Z M 263.027344 200 "/>
<path style=" stroke:none;fill-rule:nonzero;fill:rgb(0%,0%,0%);fill-opacity:1;" d="M 263.027344 160 L 263.027344 140 L 283.027344 140 L 283.027344 160 Z M 263.027344 160 "/>
<path style=" stroke:none;fill-rule:nonzero;fill:rgb(0%,0%,0%);fill-opacity:1;" d="M 263.027344 120 L 263.027344 100 L 283.027344 100 L 283.027344 120 Z M 263.027344 120 "/>
<path style=" stroke:none;fill-rule:nonzero;fill:rgb(0%,0%,0%);fill-opacity:1;" d="M 263.027344 80 L 263.027344 60 L 283.027344 60 L 283.027344 80 Z M 263.027344 80 "/>
<path style=" stroke:none;fill-rule:nonzero;fill:rgb(0%,0%,0%);fill-opacity:1;" d="M 263.027344 40 L 263.027344 20 L 283.027344 20 L 283.027344 40 Z M 263.027344 40 "/>
<path style=" stroke:none;fill-rule:nonzero;fill:rgb(0%,0%,0%);fill-opacity:1;" d="M 299.027344 200 L 299.027344 180 L 319.027344 180 L 319.027344 200 Z M 299.027344 200 "/>
<path style=" stroke:none;fill-rule:nonzero;fill:rgb(0%,0%,0%);fill-opacity:1;" d="M 299.027344 160 L 299.027344 140 L 319.027344 140 L 319.027344 160 Z M 299.027344 160 "/>
<path style=" stroke:none;fill-rule:nonzero;fill:rgb(0%,0%,0%);fill-opacity:1;" d="M 299.027344 120 L 299.027344 100 L 319.027344 100 L 319.027344 120 Z M 299.027344 120 "/>
<path style=" stroke:none;fill-rule:nonzero;fill:rgb(0%,0%,0%);fill-opacity:1;" d="M 299.027344 80 L 299.027344 60 L 319.027344 60 L 319.027344 80 Z M 299.027344 80 "/>
<path style=" stroke:none;fill-rule:nonzero;fill:rgb(0%,0%,0%);fill-opacity:1;" d="M 299.027344 40 L 299.027344 20 L 319.027344 20 L 319.027344 40 Z M 299.027344 40 "/>
<path style=" stroke:none;fill-rule:nonzero;fill:rgb(0%,0%,0%);fill-opacity:1;" d="M 335.027344 200 L 335.027344 180 L 355.027344 180 L 355.027344 200 Z M 335.027344 200 "/>
<path style=" stroke:none;fill-rule:nonzero;fill:rgb(0%,0%,0%);fill-opacity:1;" d="M 335.027344 160 L 335.027344 140 L 355.027344 140 L 355.027344 160 Z M 335.027344 160 "/>
<path style=" stroke:none;fill-rule:nonzero;fill:rgb(0%,0%,0%);fill-opacity:1;" d="M 335.027344 120 L 335.027344 100 L 355.027344 100 L 355.027344 120 Z M 335.027344 120 "/>
<path style=" stroke:none;fill-rule:nonzero;fill:rgb(0%,0%,0%);fill-opacity:1;" d="M 335.027344 80 L 335.027344 60 L 355.027344 60 L 355.027344 80 Z M 335.027344 80 "/>
<path style=" stroke:none;fill-rule:nonzero;fill:rgb(0%,0%,0%);fill-opacity:1;" d="M 335.027344 40 L 335.027344 20 L 355.027344 20 L 355.027344 40 Z M 335.027344 40 "/>
<path style=" stroke:none;fill-rule:nonzero;fill:rgb(0%,0%,0%);fill-opacity:1;" d="M 371.027344 200 L 371.027344 180 L 391.027344 180 L 391.027344 200 Z M 371.027344 200 "/>
<path style=" stroke:none;fill-rule:nonzero;fill:rgb(0%,0%,0%);fill-opacity:1;" d="M 371.027344 160 L 371.027344 140 L 391.027344 140 L 391.027344 160 Z M 371.027344 160 "/>
<path style=" stroke:none;fill-rule:nonzero;fill:rgb(0%,0%,0%);fill-opacity:1;" d="M 371.027344 120 L 371.027344 100 L 391.027344 100 L 391.027344 120 Z M 371.027344 120 "/>
<path style=" stroke:none;fill-rule:nonzero;fill:rgb(0%,0%,0%);fill-opacity:1;" d="M 371.027344 80 L 371.027344 60 L 391.027344 60 L 391.027344 80 Z M 371.027344 80 "/>
<path style=" stroke:none;fill-rule:nonzero;fill:rgb(0%,0%,0%);fill-opacity:1;" d="M 371.027344 40 L 371.027344 20 L 391.027344 20 L 391.027344 40 Z M 371.027344 40 "/>
<path style="fill:none;stroke-width:1;stroke-linecap:square;stroke-linejoin:miter;stroke:rgb(100%,0%,0%);stroke-opacity:1;stroke-miterlimit:3.25;" d="M 0 220 L 400 220 "/>
<path style="fill:none;stroke-width:1;stroke-linecap:square;stroke-linejoin:miter;stroke:rgb(100%,0%,0%);stroke-opacity:1;stroke-miterlimit:3.25;" d="M 0 200 L 400 200 "/>
<path style="fill:none;stroke-width:1;stroke-linecap:square;stroke-linejoin:miter;stroke:rgb(100%,0%,0%);stroke-opacity:1;stroke-miterlimit:3.25;" d="M 0 180 L 400 180 "/>
<path style="fill:none;stroke-width:1;stroke-linecap:square;stroke-linejoin:miter;stroke:rgb(100%,0%,0%);stroke-opacity:1;stroke-miterlimit:3.25;" d="M 0 160 L 400 160 "/>
<path style="fill:none;stroke-width:1;stroke-linecap:square;stroke-linejoin:miter;stroke:rgb(100%,0%,0%);stroke-opacity:1;stroke-miterlimit:3.25;" d="M 0 140 L 400 140 "/>
<path style="fill:none;stroke-width:1;stroke-linecap:square;stroke-linejoin:miter;stroke:rgb(100%,0%,0%);stroke-opacity:1;stroke-miterlimit:3.25;" d="M 0 120 L 400 120 "/>
<path style="fill:none;stroke-width:1;stroke-linecap:square;stroke-linejoin:miter;stroke:rgb(100%,0%,0%);stroke-opacity:1;stroke-miterlimit:3.25;" d="M 0 100 L 400 100 "/>
<path style="fill:none;stroke-width:1;stroke-linecap:square;stroke-linejoin:miter;stroke:rgb(100%,0%,0%);stroke-opacity:1;stroke-miterlimit:3.25;" d="M 0 80 L 400 80 "/>
<path style="fill:none;stroke-width:1;stroke-linecap:square;stroke-linejoin:miter;stroke:rgb(100%,0%,0%);stroke-opacity:1;stroke-miterlimit:3.25;" d="M 0 60 L 400 60 "/>
<path style="fill:none;stroke-width:1;stroke-linecap:square;stroke-linejoin:miter;stroke:rgb(100%,0%,0%);stroke-opacity:1;stroke-miterlimit:3.25;" d="M 0 40 L 400 40 "/>
<path style="fill:none;stroke-width:1;stroke-linecap:square;stroke-linejoin:miter;stroke:rgb(100%,0%,0%);stroke-opacity:1;stroke-miterlimit:3.25;" d="M 0 20 L 400 20 "/>
</g>
</svg>
