<?xml version="1.0" encoding="UTF-8"?>
<svg xmlns="http://www.w3.org/2000/svg" xmlns:xlink="http://www.w3.org/1999/xlink" width="400pt" height="220pt" viewBox="0 0 400 220" version="1.1">
<g id="surface866">
<rect x="0" y="0" width="400" height="220" style="fill:rgb(0%,40%,100%);fill-opacity:0.2;stroke:none;"/>
<path style=" stroke:none;fill-rule:nonzero;fill:rgb(0%,0%,0%);fill-opacity:1;" d="M -19.960938 220 L -19.960938 200 L 0.0390625 200 L 0.0390625 220 Z M -19.960938 220 "/>
<path style=" stroke:none;fill-rule:nonzero;fill:rgb(0%,0%,0%);fill-opacity:1;" d="M -19.960938 180 L -19.960938 160 L 0.0390625 160 L 0.0390625 180 Z M -19.960938 180 "/>
<path style=" stroke:none;fill-rule:nonzero;fill:rgb(0%,0%,0%);fill-opacity:1;" d="M -19.960938 140 L -19.960938 120 L 0.0390625 120 L 0.0390625 140 Z M -19.960938 140 "/>
<path style=" stroke:none;fill-rule:nonzero;fill:rgb(0%,0%,0%);fill-opacity:1;" d="M -19.960938 100 L -19.960938 80 L 0.0390625 80 L 0.0390625 100 Z M -19.960938 100 "/>
<path style=" stroke:none;fill-rule:nonzero;fill:rgb(0%,0%,0%);fill-opacity:1;" d="M -19.960938 60 L -19.960938 40 L 0.0390625 40 L 0.0390625 60 Z M -19.960938 60 "/>
<path style=" stroke:none;fill-rule:nonzero;fill:rgb(0%,0%,0%);fill-opacity:1;" d="M -19.960938 20 L -19.960938 0 L 0.0390625 0 L 0.0390625 20 Z M -19.960938 20 "/>
<path style=" stroke:none;fill-rule:nonzero;fill:rgb(0%,0%,0%);fill-opacity:1;" d="M 16.039062 220 L 16.039062 200 L 36.039062 200 L 36.039062 220 Z M 16.039062 220 "/>
<path style=" stroke:none;fill-rule:nonzero;fill:rgb(0%,0%,0%);fill-opacity:1;" d="M 16.039062 180 L 16.039062 160 L 36.039062 160 L 36.039062 180 Z M 16.039062 180 "/>
<path style=" stroke:none;fill-rule:nonzero;fill:rgb(0%,0%,0%);fill-opacity:1;" d="M 16.039062 140 L 16.039062 120 L 36.039062 120 L 36.039062 140 Z M 16.039062 140 "/>
<path style=" stroke:none;fill-rule:nonzero;fill:rgb(0%,0%,0%);fill-opacity:1;" d="M 16.039062 100 L 16.039062 80 L 36.039062 80 L 36.039062 100 Z M 16.039062 100 "/>
<path style=" stroke:none;fill-rule:nonzero;fill:rgb(0%,0%,0%);fill-opacity:1;" d="M 16.039062 60 L 16.039062 40 L 36.039062 40 L 36.039062 60 Z M 16.039062 60 "/>
<path style=" stroke:none;fill-rule:nonzero;fill:rgb(0%,0%,0%);fill-opacity:1;" d="M 16.039062 20 L 16.039062 0 L 36.039062 0 L 36.039062 20 Z M 16.039062 20 "/>
<path style=" stroke:none;fill-rule:nonzero;fill:rgb(0%,0%,0%);fill-opacity:1;" d="M 52.039062 220 L 52.039062 200 L 72.039062 200 L 72.039062 220 Z M 52.039062 220 "/>
<path style=" stroke:none;fill-rule:nonzero;fill:rgb(0%,0%,0%);fill-opacity:1;" d="M 52.039062 180 L 52.039062 160 L 72.039062 160 L 72.039062 180 Z M 52.039062 180 "/>
<path style=" stroke:none;fill-rule:nonzero;fill:rgb(0%,0%,0%);fill-opacity:1;" d="M 52.039062 140 L 52.039062 120 L 72.039062 120 L 72.039062 140 Z M 52.039062 140 "/>
<path style=" stroke:none;fill-rule:nonzero;fill:rgb(0%,0%,0%);fill-opacity:1;" d="M 52.039062 100 L 52.039062 80 L 72.039062 80 L 72.039062 100 Z M 52.039062 100 "/>
<path style=" stroke:none;fill-rule:nonzero;fill:rgb(0%,0%,0%);fill-opacity:1;" d="M 52.039062 60 L 52.039062 40 L 72.039062 40 L 72.039062 60 Z M 52.039062 60 "/>
<path style=" stroke:none;fill-rule:nonzero;fill:rgb(0%,0%,0%);fill-opacity:1;" d="M 52.039062 20 L 52.039062 0 L 72.039062 0 L 72.039062 20 Z M 52.039062 20 "/>
<path style=" stroke:none;fill-rule:nonzero;fill:rgb(0%,0%,0%);fill-opacity:1;" d="M 88.039062 220 L 88.039062 200 L 108.039062 200 L 108.039062 220 Z M 88.039062 220 "/>
<path style=" stroke:none;fill-rule:nonzero;fill:rgb(0%,0%,0%);fill-opacity:1;" d="M 88.039062 180 L 88.039062 160 L 108.039062 160 L 108.039062 180 Z M 88.039062 180 "/>
<path style=" stroke:none;fill-rule:nonzero;fill:rgb(0%,0%,0%);fill-opacity:1;" d="M 88.039062 140 L 88.039062 120 L 108.039062 120 L 108.039062 140 Z M 88.039062 140 "/>
<path style=" stroke:none;fill-rule:nonzero;fill:rgb(0%,0%,0%);fill-opacity:1;" d="M 88.039062 100 L 88.039062 80 L 108.039062 80 L 108.039062 100 Z M 88.039062 100 "/>
<path style=" stroke:none;fill-rule:nonzero;fill:rgb(0%,0%,0%);fill-opacity:1;" d="M 88.039062 60 L 88.039062 40 L 108.039062 40 L 108.039062 60 Z M 88.039062 60 "/>
<path style=" stroke:none;fill-rule:nonzero;fill:rgb(0%,0%,0%);fill-opacity:1;" d="M 88.039062 20 L 88.039062 0 L 108.039062 0 L 108.039062 20 Z M 88.039062 20 "/>
<path style=" stroke:none;fill-rule:nonzero;fill:rgb(0%,0%,0%);fill-opacity:1;" d="M 124.039062 220 L 124.039062 200 L 144.039062 200 L 144.039062 220 Z M 124.039062 220 "/>
<path style=" stroke:none;fill-rule:nonzero;fill:rgb(0%,0%,0%);fill-opacity:1;" d="M 124.039062 180 L 124.039062 160 L 144.039062 160 L 144.039062 180 Z M 124.039062 180 "/>
<path style=" stroke:none;fill-rule:nonzero;fill:rgb(0%,0%,0%);fill-opacity:1;" d="M 124.039062 140 L 124.039062 120 L 144.039062 120 L 144.039062 140 Z M 124.039062 140 "/>
<path style=" stroke:none;fill-rule:nonzero;fill:rgb(0%,0%,0%);fill-opacity:1;" d="M 124.039062 100 L 124.039062 80 L 144.039062 80 L 144.039062 100 Z M 124.039062 100 "/>
<path style=" stroke:none;fill-rule:nonzero;fill:rgb(0%,0%,0%);fill-opacity:1;" d="M 124.039062 60 L 124.039062 40 L 144.039062 40 L 144.039062 60 Z M 124.039062 60 "/>
<path style=" stroke:none;fill-rule:nonzero;fill:rgb(0%,0%,0%);fill-opacity:1;" d="M 124.039062 20 L 124.039062 0 L 144.039062 0 L 144.039062 20 Z M 124.039062 20 "/>
<path style=" stroke:none;fill-rule:nonzero;fill:rgb(0%,0%,0%);fill-opacity:1;" d="M 160.039062 220 L 160.039062 200 L 180.039062 200 L 180.039062 220 Z M 160.039062 220 "/>
<path style=" stroke:none;fill-rule:nonzero;fill:rgb(0%,0%,0%);fill-opacity:1;" d="M 160.039062 180 L 160.039062 160 L 180.039062 160 L 180.039062 180 Z M 160.039062 180 "/>
<path style=" stroke:none;fill-rule:nonzero;fill:rgb(0%,0%,0%);fill-opacity:1;" d="M 160.039062 140 L 160.039062 120 L 180.039062 120 L 180.039062 140 Z M 160.039062 140 "/>
<path style=" stroke:none;fill-rule:nonzero;fill:rgb(0%,0%,0%);fill-opacity:1;" d="M 160.039062 100 L 160.039062 80 L 180.039062 80 L 180.039062 100 Z M 160.039062 100 "/>
<path style=" stroke:none;fill-rule:nonzero;fill:rgb(0%,0%,0%);fill-opacity:1;" d="M 160.039062 60 L 160.039062 40 L 180.039062 40 L 180.039062 60 Z M 160.039062 60 "/>
<path style=" stroke:none;fill-rule:nonzero;fill:rgb(0%,0%,0%);fill-opacity:1;" d="M 160.039062 20 L 160.039062 0 L 180.039062 0 L 180.039062 20 Z M 160.039062 20 "/>
<path style=" stroke:none;fill-rule:nonzero;fill:rgb(0%,0%,0%);fill-opacity:1;" d="M 196.039062 220 L 196.039062 200 L 216.039062 200 L 216.039062 220 Z M 196.039062 220 "/>
<path style=" stroke:none;fill-rule:nonzero;fill:rgb(0%,0%,0%);fill-opacity:1;" d="M 196.039062 180 L 196.039062 160 L 216.039062 160 L 216.039062 180 Z M 196.039062 180 "/>
<path style=" stroke:none;fill-rule:nonzero;fill:rgb(0%,0%,0%);fill-opacity:1;" d="M 196.039062 140 L 196.039062 120 L 216.039062 120 L 216.039062 140 Z M 196.039062 140 "/>
<path style=" stroke:none;fill-rule:nonzero;fill:rgb(0%,0%,0%);fill-opacity:1;" d="M 196.039062 100 L 196.039062 80 L 216.039062 80 L 216.039062 100 Z M 196.039062 100 "/>
<path style=" stroke:none;fill-rule:nonzero;fill:rgb(0%,0%,0%);fill-opacity:1;" d="M 196.039062 60 L 196.039062 40 L 216.039062 40 L 216.039062 60 Z M 196.039062 60 "/>
<path style=" stroke:none;fill-rule:nonzero;fill:rgb(0%,0%,0%);fill-opacity:1;" d="M 196.039062 20 L 196.039062 0 L 216.039062 0 L 216.039062 20 Z M 196.039062 20 "/>
<path style=" stroke:none;fill-rule:nonzero;fill:rgb(0%,0%,0%);fill-opacity:1;" d="M 232.039062 220 L 232.039062 200 L 252.039062 200 L 252.039062 220 Z M 232.039062 220 "/>
<path style=" stroke:none;fill-rule:nonzero;fill:rgb(0%,0%,0%);fill-opacity:1;" d="M 232.039062 180 L 232.039062 160 L 252.039062 160 L 252.039062 180 Z M 232.039062 180 "/>
<path style=" stroke:none;fill-rule:nonzero;fill:rgb(0%,0%,0%);fill-opacity:1;" d="M 232.039062 140 L 232.039062 120 L 252.039062 120 L 252.039062 140 Z M 232.039062 140 "/>
<path style=" stroke:none;fill-rule:nonzero;fill:rgb(0%,0%,0%);fill-opacity:1;" d="M 232.039062 100 L 232.039062 80 L 252.039062 80 L 252.039062 100 Z M 232.039062 100 "/>
<path style=" stroke:none;fill-rule:nonzero;fill:rgb(0%,0%,0%);fill-opacity:1;" d="M 232.039062 60 L 232.039062 40 L 252.039062 40 L 252.039062 60 Z M 232.039062 60 "/>
<path style=" stroke:none;fill-rule:nonzero;fill:rgb(0%,0%,0%);fill-opacity:1;" d="M 232.039062 20 L 232.039062 0 L 252.039062 0 L 252.039062 20 Z M 232.039062 20 "/>
<path style=" stroke:none;fill-rule:nonzero;fill:rgb(0%,0%,0%);fill-opacity:1;" d="M 268.039062 220 L 268.039062 200 L 288.039062 200 L 288.039062 220 Z M 268.039062 220 "/>
<path style=" stroke:none;fill-rule:nonzero;fill:rgb(0%,0%,0%);fill-opacity:1;" d="M 268.039062 180 L 268.039062 160 L 288.039062 160 L 288.039062 180 Z M 268.039062 180 "/>
<path style=" stroke:none;fill-rule:nonzero;fill:rgb(0%,0%,0%);fill-opacity:1;" d="M 268.039062 140 L 268.039062 120 L 288.039062 120 L 288.039062 140 Z M 268.039062 140 "/>
<path style=" stroke:none;fill-rule:nonzero;fill:rgb(0%,0%,0%);fill-opacity:1;" d="M 268.039062 100 L 268.039062 80 L 288.039062 80 L 288.039062 100 Z M 268.039062 100 "/>
<path style=" stroke:none;fill-rule:nonzero;fill:rgb(0%,0%,0%);fill-opacity:1;" d="M 268.039062 60 L 268.039062 40 L 288.039062 40 L 288.039062 60 Z M 268.039062 60 "/>
<path style=" stroke:none;fill-rule:nonzero;fill:rgb(0%,0%,0%);fill-opacity:1;" d="M 268.039062 20 L 268.039062 0 L 288.039062 0 L 288.039062 20 Z M 268.039062 20 "/>
<path style=" stroke:none;fill-rule:nonzero;fill:rgb(0%,0%,0%);fill-opacity:1;" d="M 304.039062 220 L 304.039062 200 L 324.039062 200 L 324.039062 220 Z M 304.039062 220 "/>
<path style=" stroke:none;fill-rule:nonzero;fill:rgb(0%,0%,0%);fill-opacity:1;" d="M 304.039062 180 L 304.039062 160 L 324.039062 160 L 324.039062 180 Z M 304.039062 180 "/>
<path style=" stroke:none;fill-rule:nonzero;fill:rgb(0%,0%,0%);fill-opacity:1;" d="M 304.039062 140 L 304.039062 120 L 324.039062 120 L 324.039062 140 Z M 304.039062 140 "/>
<path style=" stroke:none;fill-rule:nonzero;fill:rgb(0%,0%,0%);fill-opacity:1;" d="M 304.039062 100 L 304.039062 80 L 324.039062 80 L 324.039062 100 Z M 304.039062 100 "/>
<path style=" stroke:none;fill-rule:nonzero;fill:rgb(0%,0%,0%);fill-opacity:1;" d="M 304.039062 60 L 304.039062 40 L 324.039062 40 L 324.039062 60 Z M 304.039062 60 "/>
<path style=" stroke:none;fill-rule:nonzero;fill:rgb(0%,0%,0%);fill-opacity:1;" d="M 304.039062 20 L 304.039062 0 L 324.039062 0 L 324.039062 20 Z M 304.039062 20 "/>
<path style=" stroke:none;fill-rule:nonzero;fill:rgb(0%,0%,0%);fill-opacity:1;" d="M 340.039062 220 L 340.039062 200 L 360.039062 200 L 360.039062 220 Z M 340.039062 220 "/>
<path style=" stroke:none;fill-rule:nonzero;fill:rgb(0%,0%,0%);fill-opacity:1;" d="M 340.039062 180 L 340.039062 160 L 360.039062 160 L 360.039062 180 Z M 340.039062 180 "/>
<path style=" stroke:none;fill-rule:nonzero;fill:rgb(0%,0%,0%);fill-opacity:1;" d="M 340.039062 140 L 340.039062 120 L 360.039062 120 L 360.039062 140 Z M 340.039062 140 "/>
<path style=" stroke:none;fill-rule:nonzero;fill:rgb(0%,0%,0%);fill-opacity:1;" d="M 340.039062 100 L 340.039062 80 L 360.039062 80 L 360.039062 100 Z M 340.039062 100 "/>
<path style=" stroke:none;fill-rule:nonzero;fill:rgb(0%,0%,0%);fill-opacity:1;" d="M 340.039062 60 L 340.039062 40 L 360.039062 40 L 360.039062 60 Z M 340.039062 60 "/>
<path style=" stroke:none;fill-rule:nonzero;fill:rgb(0%,0%,0%);fill-opacity:1;" d="M 340.039062 20 L 340.039062 0 L 360.039062 0 L 360.039062 20 Z M 340.039062 20 "/>
<path style=" stroke:none;fill-rule:nonzero;fill:rgb(0%,0%,0%);fill-opacity:1;" d="M 376.039062 220 L 376.039062 200 L 396.039062 200 L 396.039062 220 Z M 376.039062 220 "/>
<path style=" stroke:none;fill-rule:nonzero;fill:rgb(0%,0%,0%);fill-opacity:1;" d="M 376.039062 180 L 376.039062 160 L 396.039062 160 L 396.039062 180 Z M 376.039062 180 "/>
<path style=" stroke:none;fill-rule:nonzero;fill:rgb(0%,0%,0%);fill-opacity:1;" d="M 376.039062 140 L 376.039062 120 L 396.039062 120 L 396.039062 140 Z M 376.039062 140 "/>
<path style=" stroke:none;fill-rule:nonzero;fill:rgb(0%,0%,0%);fill-opacity:1;" d="M 376.039062 100 L 376.039062 80 L 396.039062 80 L 396.039062 100 Z M 376.039062 100 "/>
<path style=" stroke:none;fill-rule:nonzero;fill:rgb(0%,0%,0%);fill-opacity:1;" d="M 376.039062 60 L 376.039062 40 L 396.039062 40 L 396.039062 60 Z M 376.039062 60 "/>
<path style=" stroke:none;fill-rule:nonzero;fill:rgb(0%,0%,0%);fill-opacity:1;" d="M 376.039062 20 L 376.039062 0 L 396.039062 0 L 396.039062 20 Z M 376.039062 20 "/>
<path style=" stroke:none;fill-rule:nonzero;fill:rgb(0%,0%,0%);fill-opacity:1;" d="M -18.746094 200 L -18.746094 180 L 1.253906 180 L 1.253906 200 Z M -18.746094 200 "/>
<path style=" stroke:none;fill-rule:nonzero;fill:rgb(0%,0%,0%);fill-opacity:1;" d="M -18.746094 160 L -18.746094 140 L 1.253906 140 L 1.253906 160 Z M -18.746094 160 "/>
<path style=" stroke:none;fill-rule:nonzero;fill:rgb(0%,0%,0%);fill-opacity:1;" d="M -18.746094 120 L -18.746094 100 L 1.253906 100 L 1.253906 120 Z M -18.746094 120 "/>
<path style=" stroke:none;fill-rule:nonzero;fill:rgb(0%,0%,0%);fill-opacity:1;" d="M -18.746094 80 L -18.746094 60 L 1.253906 60 L 1.253906 80 Z M -18.746094 80 "/>
<path style=" stroke:none;fill-rule:nonzero;fill:rgb(0%,0%,0%);fill-opacity:1;" d="M -18.746094 40 L -18.746094 20 L 1.253906 20 L 1.253906 40 Z M -18.746094 40 "/>
<path style=" stroke:none;fill-rule:nonzero;fill:rgb(0%,0%,0%);fill-opacity:1;" d="M 17.253906 200 L 17.253906 180 L 37.253906 180 L 37.253906 200 Z M 17.253906 200 "/>
<path style=" stroke:none;fill-rule:nonzero;fill:rgb(0%,0%,0%);fill-opacity:1;" d="M 17.253906 160 L 17.253906 140 L 37.253906 140 L 37.253906 160 Z M 17.253906 160 "/>
<path style=" stroke:none;fill-rule:nonzero;fill:rgb(0%,0%,0%);fill-opacity:1;" d="M 17.253906 120 L 17.253906 100 L 37.253906 100 L 37.253906 120 Z M 17.253906 120 "/>
<path style=" stroke:none;fill-rule:nonzero;fill:rgb(0%,0%,0%);fill-opacity:1;" d="M 17.253906 80 L 17.253906 60 L 37.253906 60 L 37.253906 80 Z M 17.253906 80 "/>
<path style=" stroke:none;fill-rule:nonzero;fill:rgb(0%,0%,0%);fill-opacity:1;" d="M 17.253906 40 L 17.253906 20 L 37.253906 20 L 37.253906 40 Z M 17.253906 40 "/>
<path style=" stroke:none;fill-rule:nonzero;fill:rgb(0%,0%,0%);fill-opacity:1;" d="M 53.253906 200 L 53.253906 180 L 73.253906 180 L 73.253906 200 Z M 53.253906 200 "/>
<path style=" stroke:none;fill-rule:nonzero;fill:rgb(0%,0%,0%);fill-opacity:1;" d="M 53.253906 160 L 53.253906 140 L 73.253906 140 L 73.253906 160 Z M 53.253906 160 "/>
<path style=" stroke:none;fill-rule:nonzero;fill:rgb(0%,0%,0%);fill-opacity:1;" d="M 53.253906 120 L 53.253906 100 L 73.253906 100 L 73.253906 120 Z M 53.253906 120 "/>
<path style=" stroke:none;fill-rule:nonzero;fill:rgb(0%,0%,0%);fill-opacity:1;" d="M 53.253906 80 L 53.253906 60 L 73.253906 60 L 73.253906 80 Z M 53.253906 80 "/>
<path style=" stroke:none;fill-rule:nonzero;fill:rgb(0%,0%,0%);fill-opacity:1;" d="M 53.253906 40 L 53.253906 20 L 73.253906 20 L 73.253906 40 Z M 53.253906 40 "/>
<path style=" stroke:none;fill-rule:nonzero;fill:rgb(0%,0%,0%);fill-opacity:1;" d="M 89.253906 200 L 89.253906 180 L 109.253906 180 L 109.253906 200 Z M 89.253906 200 "/>
<path style=" stroke:none;fill-rule:nonzero;fill:rgb(0%,0%,0%);fill-opacity:1;" d="M 89.253906 160 L 89.253906 140 L 109.253906 140 L 109.253906 160 Z M 89.253906 160 "/>
<path style=" stroke:none;fill-rule:nonzero;fill:rgb(0%,0%,0%);fill-opacity:1;" d="M 89.253906 120 L 89.253906 100 L 109.253906 100 L 109.253906 120 Z M 89.253906 120 "/>
<path style=" stroke:none;fill-rule:nonzero;fill:rgb(0%,0%,0%);fill-opacity:1;" d="M 89.253906 80 L 89.253906 60 L 109.253906 60 L 109.253906 80 Z M 89.253906 80 "/>
<path style=" stroke:none;fill-rule:nonzero;fill:rgb(0%,0%,0%);fill-opacity:1;" d="M 89.253906 40 L 89.253906 20 L 109.253906 20 L 109.253906 40 Z M 89.253906 40 "/>
<path style=" stroke:none;fill-rule:nonzero;fill:rgb(0%,0%,0%);fill-opacity:1;" d="M 125.253906 200 L 125.253906 180 L 145.253906 180 L 145.253906 200 Z M 125.253906 200 "/>
<path style=" stroke:none;fill-rule:nonzero;fill:rgb(0%,0%,0%);fill-opacity:1;" d="M 125.253906 160 L 125.253906 140 L 145.253906 140 L 145.253906 160 Z M 125.253906 160 "/>
<path style=" stroke:none;fill-rule:nonzero;fill:rgb(0%,0%,0%);fill-opacity:1;" d="M 125.253906 120 L 125.253906 100 L 145.253906 100 L 145.253906 120 Z M 125.253906 120 "/>
<path style=" stroke:none;fill-rule:nonzero;fill:rgb(0%,0%,0%);fill-opacity:1;" d="M 125.253906 80 L 125.253906 60 L 145.253906 60 L 145.253906 80 Z M 125.253906 80 "/>
<path style=" stroke:none;fill-rule:nonzero;fill:rgb(0%,0%,0%);fill-opacity:1;" d="M 125.253906 40 L 125.253906 20 L 145.253906 20 L 145.253906 40 Z M 125.253906 40 "/>
<path style=" stroke:none;fill-rule:nonzero;fill:rgb(0%,0%,0%);fill-opacity:1;" d="M 161.253906 200 L 161.253906 180 L 181.253906 180 L 181.253906 200 Z M 161.253906 200 "/>
<path style=" stroke:none;fill-rule:nonzero;fill:rgb(0%,0%,0%);fill-opacity:1;" d="M 161.253906 160 L 161.253906 140 L 181.253906 140 L 181.253906 160 Z M 161.253906 160 "/>
<path style=" stroke:none;fill-rule:nonzero;fill:rgb(0%,0%,0%);fill-opacity:1;" d="M 161.253906 120 L 161.253906 100 L 181.253906 100 L 181.253906 120 Z M 161.253906 120 "/>
<path style=" stroke:none;fill-rule:nonzero;fill:rgb(0%,0%,0%);fill-opacity:1;" d="M 161.253906 80 L 161.253906 60 L 181.253906 60 L 181.253906 80 Z M 161.253906 80 "/>
<path style=" stroke:none;fill-rule:nonzero;fill:rgb(0%,0%,0%);fill-opacity:1;" d="M 161.253906 40 L 161.253906 20 L 181.253906 20 L 181.253906 40 Z M 161.253906 40 "/>
<path style=" stroke:none;fill-rule:nonzero;fill:rgb(0%,0%,0%);fill-opacity:1;" d="M 197.253906 200 L 197.253906 180 L 217.253906 180 L 217.253906 200 Z M 197.253906 200 "/>
<path style=" stroke:none;fill-rule:nonzero;fill:rgb(0%,0%,0%);fill-opacity:1;" d="M 197.253906 160 L 197.253906 140 L 217.253906 140 L 217.253906 160 Z M 197.253906 160 "/>
<path style=" stroke:none;fill-rule:nonzero;fill:rgb(0%,0%,0%);fill-opacity:1;" d="M 197.253906 120 L 197.253906 100 L 217.253906 100 L 217.253906 120 Z M 197.253906 120 "/>
<path style=" stroke:none;fill-rule:nonzero;fill:rgb(0%,0%,0%);fill-opacity:1;" d="M 197.253906 80 L 197.253906 60 L 217.253906 60 L 217.253906 80 Z M 197.253906 80 "/>
<path style=" stroke:none;fill-rule:nonzero;fill:rgb(0%,0%,0%);fill-opacity:1;" d="M 197.253906 40 L 197.253906 20 L 217.253906 20 L 217.253906 40 Z M 197.253906 40 "/>
<path style=" stroke:none;fill-rule:nonzero;fill:rgb(0%,0%,0%);fill-opacity:1;" d="M 233.253906 200 L 233.253906 180 L 253.253906 180 L 253.253906 200 Z M 233.253906 200 "/>
<path style=" stroke:none;fill-rule:nonzero;fill:rgb(0%,0%,0%);fill-opacity:1;" d="M 233.253906 160 L 233.253906 140 L 253.253906 140 L 253.253906 160 Z M 233.253906 160 "/>
<path style=" stroke:none;fill-rule:nonzero;fill:rgb(0%,0%,0%);fill-opacity:1;" d="M 233.253906 120 L 233.253906 100 L 253.253906 100 L 253.253906 120 Z M 233.253906 120 "/>
<path style=" stroke:none;fill-rule:nonzero;fill:rgb(0%,0%,0%);fill-opacity:1;" d="M 233.253906 80 L 233.253906 60 L 253.253906 60 L 253.253906 80 Z M 233.253906 80 "/>
<path style=" stroke:none;fill-rule:nonzero;fill:rgb(0%,0%,0%);fill-opacity:1;" d="M 233.253906 40 L 233.253906 20 L 253.253906 20 L 253.253906 40 Z M 233.253906 40 "/>
<path style=" stroke:none;fill-rule:nonzero;fill:rgb(0%,0%,0%);fill-opacity:1;" d="M 269.253906 200 L 269.253906 180 L 289.253906 180 L 289.253906 200 Z M 269.253906 200 "/>
<path style=" stroke:none;fill-rule:nonzero;fill:rgb(0%,0%,0%);fill-opacity:1;" d="M 269.253906 160 L 269.253906 140 L 289.253906 140 L 289.253906 160 Z M 269.253906 160 "/>
<path style=" stroke:none;fill-rule:nonzero;fill:rgb(0%,0%,0%);fill-opacity:1;" d="M 269.253906 120 L 269.253906 100 L 289.253906 100 L 289.253906 120 Z M 269.253906 120 "/>
<path style=" stroke:none;fill-rule:nonzero;fill:rgb(0%,0%,0%);fill-opacity:1;" d="M 269.253906 80 L 269.253906 60 L 289.253906 60 L 289.253906 80 Z M 269.253906 80 "/>
<path style=" stroke:none;fill-rule:nonzero;fill:rgb(0%,0%,0%);fill-opacity:1;" d="M 269.253906 40 L 269.253906 20 L 289.253906 20 L 289.253906 40 Z M 269.253906 40 "/>
<path style=" stroke:none;fill-rule:nonzero;fill:rgb(0%,0%,0%);fill-opacity:1;" d="M 305.253906 200 L 305.253906 180 L 325.253906 180 L 325.253906 200 Z M 305.253906 200 "/>
<path style=" stroke:none;fill-rule:nonzero;fill:rgb(0%,0%,0%);fill-opacity:1;" d="M 305.253906 160 L 305.253906 140 L 325.253906 140 L 325.253906 160 Z M 305.253906 160 "/>
<path style=" stroke:none;fill-rule:nonzero;fill:rgb(0%,0%,0%);fill-opacity:1;" d="M 305.253906 120 L 305.253906 100 L 325.253906 100 L 325.253906 120 Z M 305.253906 120 "/>
<path style=" stroke:none;fill-rule:nonzero;fill:rgb(0%,0%,0%);fill-opacity:1;" d="M 305.253906 80 L 305.253906 60 L 325.253906 60 L 325.253906 80 Z M 305.253906 80 "/>
<path style=" stroke:none;fill-rule:nonzero;fill:rgb(0%,0%,0%);fill-opacity:1;" d="M 305.253906 40 L 305.253906 20 L 325.253906 20 L 325.253906 40 Z M 305.253906 40 "/>
<path style=" stroke:none;fill-rule:nonzero;fill:rgb(0%,0%,0%);fill-opacity:1;" d="M 341.253906 200 L 341.253906 180 L 361.253906 180 L 361.253906 200 Z M 341.253906 200 "/>
<path style=" stroke:none;fill-rule:nonzero;fill:rgb(0%,0%,0%);fill-opacity:1;" d="M 341.253906 160 L 341.253906 140 L 361.253906 140 L 361.253906 160 Z M 341.253906 160 "/>
<path style=" stroke:none;fill-rule:nonzero;fill:rgb(0%,0%,0%);fill-opacity:1;" d="M 341.253906 120 L 341.253906 100 L 361.253906 100 L 361.253906 120 Z M 341.253906 120 "/>
<path style=" stroke:none;fill-rule:nonzero;fill:rgb(0%,0%,0%);fill-opacity:1;" d="M 341.253906 80 L 341.253906 60 L 361.253906 60 L 361.253906 80 Z M 341.253906 80 "/>
<path style=" stroke:none;fill-rule:nonzero;fill:rgb(0%,0%,0%);fill-opacity:1;" d="M 341.253906 40 L 341.253906 20 L 361.253906 20 L 361.253906 40 Z M 341.253906 40 "/>
<path style=" stroke:none;fill-rule:nonzero;fill:rgb(0%,0%,0%);fill-opacity:1;" d="M 377.253906 200 L 377.253906 180 L 397.253906 180 L 397.253906 200 Z M 377.253906 200 "/>
<path style=" stroke:none;fill-rule:nonzero;fill:rgb(0%,0%,0%);fill-opacity:1;" d="M 377.253906 160 L 377.253906 140 L 397.253906 140 L 397.253906 160 Z M 377.253906 160 "/>
<path style=" stroke:none;fill-rule:nonzero;fill:rgb(0%,0%,0%);fill-opacity:1;" d="M 377.253906 120 L 377.253906 100 L 397.253906 100 L 397.253906 120 Z M 377.253906 120 "/>
<path style=" stroke:none;fill-rule:nonzero;fill:rgb(0%,0%,0%);fill-opacity:1;" d="M 377.253906 80 L 377.253906 60 L 397.253906 60 L 397.253906 80 Z M 377.253906 80 "/>
<path style=" stroke:none;fill-rule:nonzero;fill:rgb(0%,0%,0%);fill-opacity:1;" d="M 377.253906 40 L 377.253906 20 L 397.253906 20 L 397.253906 40 Z M 377.253906 40 "/>
<path style="fill:none;stroke-width:1;stroke-linecap:square;stroke-linejoin:miter;stroke:rgb(100%,0%,0%);stroke-opacity:1;stroke-miterlimit:3.25;" d="M 0 220 L 400 220 "/>
<path style="fill:none;stroke-width:1;stroke-linecap:square;stroke-linejoin:miter;stroke:rgb(100%,0%,0%);stroke-opacity:1;stroke-miterlimit:3.25;" d="M 0 200 L 400 200 "/>
<path style="fill:none;stroke-width:1;stroke-linecap:square;stroke-linejoin:miter;stroke:rgb(100%,0%,0%);stroke-opacity:1;stroke-miterlimit:3.25;" d="M 0 180 L 400 180 "/>
<path style="fill:none;stroke-width:1;stroke-linecap:square;stroke-linejoin:miter;stroke:rgb(100%,0%,0%);stroke-opacity:1;stroke-miterlimit:3.25;" d="M 0 160 L 400 160 "/>
<path style="fill:none;stroke-width:1;stroke-linecap:square;stroke-linejoin:miter;stroke:rgb(100%,0%,0%);stroke-opacity:1;stroke-miterlimit:3.25;" d="M 0 140 L 400 140 "/>
<path style="fill:none;stroke-width:1;stroke-linecap:square;stroke-linejoin:miter;stroke:rgb(100%,0%,0%);stroke-opacity:1;stroke-miterlimit:3.25;" d="M 0 120 L 400 120 "/>
<path style="fill:none;stroke-width:1;stroke-linecap:square;stroke-linejoin:miter;stroke:rgb(100%,0%,0%);stroke-opacity:1;stroke-miterlimit:3.25;" d="M 0 100 L 400 100 "/>
<path style="fill:none;stroke-width:1;stroke-linecap:square;stroke-linejoin:miter;stroke:rgb(100%,0%,0%);stroke-opacity:1;stroke-miterlimit:3.25;" d="M 0 80 L 400 80 "/>
<path style="fill:none;stroke-width:1;stroke-linecap:square;stroke-linejoin:miter;stroke:rgb(100%,0%,0%);stroke-opacity:1;stroke-miterlimit:3.25;" d="M 0 60 L 400 60 "/>
<path style="fill:none;stroke-width:1;stroke-linecap:square;stroke-linejoin:miter;stroke:rgb(100%,0%,0%);stroke-opacity:1;stroke-miterlimit:3.25;" d="M 0 40 L 400 40 "/>
<path style="fill:none;stroke-width:1;stroke-linecap:square;stroke-linejoin:miter;stroke:rgb(100%,0%,0%);stroke-opacity:1;stroke-miterlimit:3.25;" d="M 0 20 L 400 20 "/>
</g>
</svg>
