<?xml version="1.0" encoding="UTF-8"?>
<svg xmlns="http://www.w3.org/2000/svg" xmlns:xlink="http://www.w3.org/1999/xlink" width="400pt" height="220pt" viewBox="0 0 400 220" version="1.1">
<g id="surface966">
<rect x="0" y="0" width="400" height="220" style="fill:rgb(0%,40%,100%);fill-opacity:0.2;stroke:none;"/>
<path style=" stroke:none;fill-rule:nonzero;fill:rgb(0%,0%,0%);fill-opacity:1;" d="M -7.363281 220 L -7.363281 200 L 12.636719 200 L 12.636719 220 Z M -7.363281 220 "/>
<path style=" stroke:none;fill-rule:nonzero;fill:rgb(0%,0%,0%);fill-opacity:1;" d="M -7.363281 180 L -7.363281 160 L 12.636719 160 L 12.636719 180 Z M -7.363281 180 "/>
<path style=" stroke:none;fill-rule:nonzero;fill:rgb(0%,0%,0%);fill-opacity:1;" d="M -7.363281 140 L -7.363281 120 L 12.636719 120 L 12.636719 140 Z M -7.363281 140 "/>
<path style=" stroke:none;fill-rule:nonzero;fill:rgb(0%,0%,0%);fill-opacity:1;" d="M -7.363281 100 L -7.363281 80 L 12.636719 80 L 12.636719 100 Z M -7.363281 100 "/>
<path style=" stroke:none;fill-rule:nonzero;fill:rgb(0%,0%,0%);fill-opacity:1;" d="M -7.363281 60 L -7.363281 40 L 12.636719 40 L 12.636719 60 Z M -7.363281 60 "/>
<path style=" stroke:none;fill-rule:nonzero;fill:rgb(0%,0%,0%);fill-opacity:1;" d="M -7.363281 20 L -7.363281 0 L 12.636719 0 L 12.636719 20 Z M -7.363281 20 "/>
<path style=" stroke:none;fill-rule:nonzero;fill:rgb(0%,0%,0%);fill-opacity:1;" d="M 28.636719 220 L 28.636719 200 L 48.636719 200 L 48.636719 220 Z M 28.636719 220 "/>
<path style=" stroke:none;fill-rule:nonzero;fill:rgb(0%,0%,0%);fill-opacity:1;" d="M 28.636719 180 L 28.636719 160 L 48.636719 160 L 48.636719 180 Z M 28.636719 180 "/>
<path style=" stroke:none;fill-rule:nonzero;fill:rgb(0%,0%,0%);fill-opacity:1;" d="M 28.636719 140 L 28.636719 120 L 48.636719 120 L 48.636719 140 Z M 28.636719 140 "/>
<path style=" stroke:none;fill-rule:nonzero;fill:rgb(0%,0%,0%);fill-opacity:1;" d="M 28.636719 100 L 28.636719 80 L 48.636719 80 L 48.636719 100 Z M 28.636719 100 "/>
<path style=" stroke:none;fill-rule:nonzero;fill:rgb(0%,0%,0%);fill-opacity:1;" d="M 28.636719 60 L 28.636719 40 L 48.636719 40 L 48.636719 60 Z M 28.636719 60 "/>
<path style=" stroke:none;fill-rule:nonzero;fill:rgb(0%,0%,0%);fill-opacity:1;" d="M 28.636719 20 L 28.636719 0 L 48.636719 0 L 48.636719 20 Z M 28.636719 20 "/>
<path style=" stroke:none;fill-rule:nonzero;fill:rgb(0%,0%,0%);fill-opacity:1;" d="M 64.636719 220 L 64.636719 200 L 84.636719 200 L 84.636719 220 Z M 64.636719 220 "/>
<path style=" stroke:none;fill-rule:nonzero;fill:rgb(0%,0%,0%);fill-opacity:1;" d="M 64.636719 180 L 64.636719 160 L 84.636719 160 L 84.636719 180 Z M 64.636719 180 "/>
<path style=" stroke:none;fill-rule:nonzero;fill:rgb(0%,0%,0%);fill-opacity:1;" d="M 64.636719 140 L 64.636719 120 L 84.636719 120 L 84.636719 140 Z M 64.636719 140 "/>
<path style=" stroke:none;fill-rule:nonzero;fill:rgb(0%,0%,0%);fill-opacity:1;" d="M 64.636719 100 L 64.636719 80 L 84.636719 80 L 84.636719 100 Z M 64.636719 100 "/>
<path style=" stroke:none;fill-rule:nonzero;fill:rgb(0%,0%,0%);fill-opacity:1;" d="M 64.636719 60 L 64.636719 40 L 84.636719 40 L 84.636719 60 Z M 64.636719 60 "/>
<path style=" stroke:none;fill-rule:nonzero;fill:rgb(0%,0%,0%);fill-opacity:1;" d="M 64.636719 20 L 64.636719 0 L 84.636719 0 L 84.636719 20 Z M 64.636719 20 "/>
<path style=" stroke:none;fill-rule:nonzero;fill:rgb(0%,0%,0%);fill-opacity:1;" d="M 100.636719 220 L 100.636719 200 L 120.636719 200 L 120.636719 220 Z M 100.636719 220 "/>
<path style=" stroke:none;fill-rule:nonzero;fill:rgb(0%,0%,0%);fill-opacity:1;" d="M 100.636719 180 L 100.636719 160 L 120.636719 160 L 120.636719 180 Z M 100.636719 180 "/>
<path style=" stroke:none;fill-rule:nonzero;fill:rgb(0%,0%,0%);fill-opacity:1;" d="M 100.636719 140 L 100.636719 120 L 120.636719 120 L 120.636719 140 Z M 100.636719 140 "/>
<path style=" stroke:none;fill-rule:nonzero;fill:rgb(0%,0%,0%);fill-opacity:1;" d="M 100.636719 100 L 100.636719 80 L 120.636719 80 L 120.636719 100 Z M 100.636719 100 "/>
<path style=" stroke:none;fill-rule:nonzero;fill:rgb(0%,0%,0%);fill-opacity:1;" d="M 100.636719 60 L 100.636719 40 L 120.636719 40 L 120.636719 60 Z M 100.636719 60 "/>
<path style=" stroke:none;fill-rule:nonzero;fill:rgb(0%,0%,0%);fill-opacity:1;" d="M 100.636719 20 L 100.636719 0 L 120.636719 0 L 120.636719 20 Z M 100.636719 20 "/>
<path style=" stroke:none;fill-rule:nonzero;fill:rgb(0%,0%,0%);fill-opacity:1;" d="M 136.636719 220 L 136.636719 200 L 156.636719 200 L 156.636719 220 Z M 136.636719 220 "/>
<path style=" stroke:none;fill-rule:nonzero;fill:rgb(0%,0%,0%);fill-opacity:1;" d="M 136.636719 180 L 136.636719 160 L 156.636719 160 L 156.636719 180 Z M 136.636719 180 "/>
<path style=" stroke:none;fill-rule:nonzero;fill:rgb(0%,0%,0%);fill-opacity:1;" d="M 136.636719 140 L 136.636719 120 L 156.636719 120 L 156.636719 140 Z M 136.636719 140 "/>
<path style=" stroke:none;fill-rule:nonzero;fill:rgb(0%,0%,0%);fill-opacity:1;" d="M 136.636719 100 L 136.636719 80 L 156.636719 80 L 156.636719 100 Z M 136.636719 100 "/>
<path style=" stroke:none;fill-rule:nonzero;fill:rgb(0%,0%,0%);fill-opacity:1;" d="M 136.636719 60 L 136.636719 40 L 156.636719 40 L 156.636719 60 Z M 136.636719 60 "/>
<path style=" stroke:none;fill-rule:nonzero;fill:rgb(0%,0%,0%);fill-opacity:1;" d="M 136.636719 20 L 136.636719 0 L 156.636719 0 L 156.636719 20 Z M 136.636719 20 "/>
<path style=" stroke:none;fill-rule:nonzero;fill:rgb(0%,0%,0%);fill-opacity:1;" d="M 172.636719 220 L 172.636719 200 L 192.636719 200 L 192.636719 220 Z M 172.636719 220 "/>
<path style=" stroke:none;fill-rule:nonzero;fill:rgb(0%,0%,0%);fill-opacity:1;" d="M 172.636719 180 L 172.636719 160 L 192.636719 160 L 192.636719 180 Z M 172.636719 180 "/>
<path style=" stroke:none;fill-rule:nonzero;fill:rgb(0%,0%,0%);fill-opacity:1;" d="M 172.636719 140 L 172.636719 120 L 192.636719 120 L 192.636719 140 Z M 172.636719 140 "/>
<path style=" stroke:none;fill-rule:nonzero;fill:rgb(0%,0%,0%);fill-opacity:1;" d="M 172.636719 100 L 172.636719 80 L 192.636719 80 L 192.636719 100 Z M 172.636719 100 "/>
<path style=" stroke:none;fill-rule:nonzero;fill:rgb(0%,0%,0%);fill-opacity:1;" d="M 172.636719 60 L 172.636719 40 L 192.636719 40 L 192.636719 60 Z M 172.636719 60 "/>
<path style=" stroke:none;fill-rule:nonzero;fill:rgb(0%,0%,0%);fill-opacity:1;" d="M 172.636719 20 L 172.636719 0 L 192.636719 0 L 192.636719 20 Z M 172.636719 20 "/>
<path style=" stroke:none;fill-rule:nonzero;fill:rgb(0%,0%,0%);fill-opacity:1;" d="M 208.636719 220 L 208.636719 200 L 228.636719 200 L 228.636719 220 Z M 208.636719 220 "/>
<path style=" stroke:none;fill-rule:nonzero;fill:rgb(0%,0%,0%);fill-opacity:1;" d="M 208.636719 180 L 208.636719 160 L 228.636719 160 L 228.636719 180 Z M 208.636719 180 "/>
<path style=" stroke:none;fill-rule:nonzero;fill:rgb(0%,0%,0%);fill-opacity:1;" d="M 208.636719 140 L 208.636719 120 L 228.636719 120 L 228.636719 140 Z M 208.636719 140 "/>
<path style=" stroke:none;fill-rule:nonzero;fill:rgb(0%,0%,0%);fill-opacity:1;" d="M 208.636719 100 L 208.636719 80 L 228.636719 80 L 228.636719 100 Z M 208.636719 100 "/>
<path style=" stroke:none;fill-rule:nonzero;fill:rgb(0%,0%,0%);fill-opacity:1;" d="M 208.636719 60 L 208.636719 40 L 228.636719 40 L 228.636719 60 Z M 208.636719 60 "/>
<path style=" stroke:none;fill-rule:nonzero;fill:rgb(0%,0%,0%);fill-opacity:1;" d="M 208.636719 20 L 208.636719 0 L 228.636719 0 L 228.636719 20 Z M 208.636719 20 "/>
<path style=" stroke:none;fill-rule:nonzero;fill:rgb(0%,0%,0%);fill-opacity:1;" d="M 244.636719 220 L 244.636719 200 L 264.636719 200 L 264.636719 220 Z M 244.636719 220 "/>
<path style=" stroke:none;fill-rule:nonzero;fill:rgb(0%,0%,0%);fill-opacity:1;" d="M 244.636719 180 L 244.636719 160 L 264.636719 160 L 264.636719 180 Z M 244.636719 180 "/>
<path style=" stroke:none;fill-rule:nonzero;fill:rgb(0%,0%,0%);fill-opacity:1;" d="M 244.636719 140 L 244.636719 120 L 264.636719 120 L 264.636719 140 Z M 244.636719 140 "/>
<path style=" stroke:none;fill-rule:nonzero;fill:rgb(0%,0%,0%);fill-opacity:1;" d="M 244.636719 100 L 244.636719 80 L 264.636719 80 L 264.636719 100 Z M 244.636719 100 "/>
<path style=" stroke:none;fill-rule:nonzero;fill:rgb(0%,0%,0%);fill-opacity:1;" d="M 244.636719 60 L 244.636719 40 L 264.636719 40 L 264.636719 60 Z M 244.636719 60 "/>
<path style=" stroke:none;fill-rule:nonzero;fill:rgb(0%,0%,0%);fill-opacity:1;" d="M 244.636719 20 L 244.636719 0 L 264.636719 0 L 264.636719 20 Z M 244.636719 20 "/>
<path style=" stroke:none;fill-rule:nonzero;fill:rgb(0%,0%,0%);fill-opacity:1;" d="M 280.636719 220 L 280.636719 200 L 300.636719 200 L 300.636719 220 Z M 280.636719 220 "/>
<path style=" stroke:none;fill-rule:nonzero;fill:rgb(0%,0%,0%);fill-opacity:1;" d="M 280.636719 180 L 280.636719 160 L 300.636719 160 L 300.636719 180 Z M 280.636719 180 "/>
<path style=" stroke:none;fill-rule:nonzero;fill:rgb(0%,0%,0%);fill-opacity:1;" d="M 280.636719 140 L 280.636719 120 L 300.636719 120 L 300.636719 140 Z M 280.636719 140 "/>
<path style=" stroke:none;fill-rule:nonzero;fill:rgb(0%,0%,0%);fill-opacity:1;" d="M 280.636719 100 L 280.636719 80 L 300.636719 80 L 300.636719 100 Z M 280.636719 100 "/>
<path style=" stroke:none;fill-rule:nonzero;fill:rgb(0%,0%,0%);fill-opacity:1;" d="M 280.636719 60 L 280.636719 40 L 300.636719 40 L 300.636719 60 Z M 280.636719 60 "/>
<path style=" stroke:none;fill-rule:nonzero;fill:rgb(0%,0%,0%);fill-opacity:1;" d="M 280.636719 20 L 280.636719 0 L 300.636719 0 L 300.636719 20 Z M 280.636719 20 "/>
<path style=" stroke:none;fill-rule:nonzero;fill:rgb(0%,0%,0%);fill-opacity:1;" d="M 316.636719 220 L 316.636719 200 L 336.636719 200 L 336.636719 220 Z M 316.636719 220 "/>
<path style=" stroke:none;fill-rule:nonzero;fill:rgb(0%,0%,0%);fill-opacity:1;" d="M 316.636719 180 L 316.636719 160 L 336.636719 160 L 336.636719 180 Z M 316.636719 180 "/>
<path style=" stroke:none;fill-rule:nonzero;fill:rgb(0%,0%,0%);fill-opacity:1;" d="M 316.636719 140 L 316.636719 120 L 336.636719 120 L 336.636719 140 Z M 316.636719 140 "/>
<path style=" stroke:none;fill-rule:nonzero;fill:rgb(0%,0%,0%);fill-opacity:1;" d="M 316.636719 100 L 316.636719 80 L 336.636719 80 L 336.636719 100 Z M 316.636719 100 "/>
<path style=" stroke:none;fill-rule:nonzero;fill:rgb(0%,0%,0%);fill-opacity:1;" d="M 316.636719 60 L 316.636719 40 L 336.636719 40 L 336.636719 60 Z M 316.636719 60 "/>
<path style=" stroke:none;fill-rule:nonzero;fill:rgb(0%,0%,0%);fill-opacity:1;" d="M 316.636719 20 L 316.636719 0 L 336.636719 0 L 336.636719 20 Z M 316.636719 20 "/>
<path style=" stroke:none;fill-rule:nonzero;fill:rgb(0%,0%,0%);fill-opacity:1;" d="M 352.636719 220 L 352.636719 200 L 372.636719 200 L 372.636719 220 Z M 352.636719 220 "/>
<path style=" stroke:none;fill-rule:nonzero;fill:rgb(0%,0%,0%);fill-opacity:1;" d="M 352.636719 180 L 352.636719 160 L 372.636719 160 L 372.636719 180 Z M 352.636719 180 "/>
<path style=" stroke:none;fill-rule:nonzero;fill:rgb(0%,0%,0%);fill-opacity:1;" d="M 352.636719 140 L 352.636719 120 L 372.636719 120 L 372.636719 140 Z M 352.636719 140 "/>
<path style=" stroke:none;fill-rule:nonzero;fill:rgb(0%,0%,0%);fill-opacity:1;" d="M 352.636719 100 L 352.636719 80 L 372.636719 80 L 372.636719 100 Z M 352.636719 100 "/>
<path style=" stroke:none;fill-rule:nonzero;fill:rgb(0%,0%,0%);fill-opacity:1;" d="M 352.636719 60 L 352.636719 40 L 372.636719 40 L 372.636719 60 Z M 352.636719 60 "/>
<path style=" stroke:none;fill-rule:nonzero;fill:rgb(0%,0%,0%);fill-opacity:1;" d="M 352.636719 20 L 352.636719 0 L 372.636719 0 L 372.636719 20 Z M 352.636719 20 "/>
<path style=" stroke:none;fill-rule:nonzero;fill:rgb(0%,0%,0%);fill-opacity:1;" d="M 388.636719 220 L 388.636719 200 L 408.636719 200 L 408.636719 220 Z M 388.636719 220 "/>
<path style=" stroke:none;fill-rule:nonzero;fill:rgb(0%,0%,0%);fill-opacity:1;" d="M 388.636719 180 L 388.636719 160 L 408.636719 160 L 408.636719 180 Z M 388.636719 180 "/>
<path style=" stroke:none;fill-rule:nonzero;fill:rgb(0%,0%,0%);fill-opacity:1;" d="M 388.636719 140 L 388.636719 120 L 408.636719 120 L 408.636719 140 Z M 388.636719 140 "/>
<path style=" stroke:none;fill-rule:nonzero;fill:rgb(0%,0%,0%);fill-opacity:1;" d="M 388.636719 100 L 388.636719 80 L 408.636719 80 L 408.636719 100 Z M 388.636719 100 "/>
<path style=" stroke:none;fill-rule:nonzero;fill:rgb(0%,0%,0%);fill-opacity:1;" d="M 388.636719 60 L 388.636719 40 L 408.636719 40 L 408.636719 60 Z M 388.636719 60 "/>
<path style=" stroke:none;fill-rule:nonzero;fill:rgb(0%,0%,0%);fill-opacity:1;" d="M 388.636719 20 L 388.636719 0 L 408.636719 0 L 408.636719 20 Z M 388.636719 20 "/>
<path style=" stroke:none;fill-rule:nonzero;fill:rgb(0%,0%,0%);fill-opacity:1;" d="M -2.59375 200 L -2.59375 180 L 17.40625 180 L 17.40625 200 Z M -2.59375 200 "/>
<path style=" stroke:none;fill-rule:nonzero;fill:rgb(0%,0%,0%);fill-opacity:1;" d="M -2.59375 160 L -2.59375 140 L 17.40625 140 L 17.40625 160 Z M -2.59375 160 "/>
<path style=" stroke:none;fill-rule:nonzero;fill:rgb(0%,0%,0%);fill-opacity:1;" d="M -2.59375 120 L -2.59375 100 L 17.40625 100 L 17.40625 120 Z M -2.59375 120 "/>
<path style=" stroke:none;fill-rule:nonzero;fill:rgb(0%,0%,0%);fill-opacity:1;" d="M -2.59375 80 L -2.59375 60 L 17.40625 60 L 17.40625 80 Z M -2.59375 80 "/>
<path style=" stroke:none;fill-rule:nonzero;fill:rgb(0%,0%,0%);fill-opacity:1;" d="M -2.59375 40 L -2.59375 20 L 17.40625 20 L 17.40625 40 Z M -2.59375 40 "/>
<path style=" stroke:none;fill-rule:nonzero;fill:rgb(0%,0%,0%);fill-opacity:1;" d="M 33.40625 200 L 33.40625 180 L 53.40625 180 L 53.40625 200 Z M 33.40625 200 "/>
<path style=" stroke:none;fill-rule:nonzero;fill:rgb(0%,0%,0%);fill-opacity:1;" d="M 33.40625 160 L 33.40625 140 L 53.40625 140 L 53.40625 160 Z M 33.40625 160 "/>
<path style=" stroke:none;fill-rule:nonzero;fill:rgb(0%,0%,0%);fill-opacity:1;" d="M 33.40625 120 L 33.40625 100 L 53.40625 100 L 53.40625 120 Z M 33.40625 120 "/>
<path style=" stroke:none;fill-rule:nonzero;fill:rgb(0%,0%,0%);fill-opacity:1;" d="M 33.40625 80 L 33.40625 60 L 53.40625 60 L 53.40625 80 Z M 33.40625 80 "/>
<path style=" stroke:none;fill-rule:nonzero;fill:rgb(0%,0%,0%);fill-opacity:1;" d="M 33.40625 40 L 33.40625 20 L 53.40625 20 L 53.40625 40 Z M 33.40625 40 "/>
<path style=" stroke:none;fill-rule:nonzero;fill:rgb(0%,0%,0%);fill-opacity:1;" d="M 69.40625 200 L 69.40625 180 L 89.40625 180 L 89.40625 200 Z M 69.40625 200 "/>
<path style=" stroke:none;fill-rule:nonzero;fill:rgb(0%,0%,0%);fill-opacity:1;" d="M 69.40625 160 L 69.40625 140 L 89.40625 140 L 89.40625 160 Z M 69.40625 160 "/>
<path style=" stroke:none;fill-rule:nonzero;fill:rgb(0%,0%,0%);fill-opacity:1;" d="M 69.40625 120 L 69.40625 100 L 89.40625 100 L 89.40625 120 Z M 69.40625 120 "/>
<path style=" stroke:none;fill-rule:nonzero;fill:rgb(0%,0%,0%);fill-opacity:1;" d="M 69.40625 80 L 69.40625 60 L 89.40625 60 L 89.40625 80 Z M 69.40625 80 "/>
<path style=" stroke:none;fill-rule:nonzero;fill:rgb(0%,0%,0%);fill-opacity:1;" d="M 69.40625 40 L 69.40625 20 L 89.40625 20 L 89.40625 40 Z M 69.40625 40 "/>
<path style=" stroke:none;fill-rule:nonzero;fill:rgb(0%,0%,0%);fill-opacity:1;" d="M 105.40625 200 L 105.40625 180 L 125.40625 180 L 125.40625 200 Z M 105.40625 200 "/>
<path style=" stroke:none;fill-rule:nonzero;fill:rgb(0%,0%,0%);fill-opacity:1;" d="M 105.40625 160 L 105.40625 140 L 125.40625 140 L 125.40625 160 Z M 105.40625 160 "/>
<path style=" stroke:none;fill-rule:nonzero;fill:rgb(0%,0%,0%);fill-opacity:1;" d="M 105.40625 120 L 105.40625 100 L 125.40625 100 L 125.40625 120 Z M 105.40625 120 "/>
<path style=" stroke:none;fill-rule:nonzero;fill:rgb(0%,0%,0%);fill-opacity:1;" d="M 105.40625 80 L 105.40625 60 L 125.40625 60 L 125.40625 80 Z M 105.40625 80 "/>
<path style=" stroke:none;fill-rule:nonzero;fill:rgb(0%,0%,0%);fill-opacity:1;" d="M 105.40625 40 L 105.40625 20 L 125.40625 20 L 125.40625 40 Z M 105.40625 40 "/>
<path style=" stroke:none;fill-rule:nonzero;fill:rgb(0%,0%,0%);fill-opacity:1;" d="M 141.40625 200 L 141.40625 180 L 161.40625 180 L 161.40625 200 Z M 141.40625 200 "/>
<path style=" stroke:none;fill-rule:nonzero;fill:rgb(0%,0%,0%);fill-opacity:1;" d="M 141.40625 160 L 141.40625 140 L 161.40625 140 L 161.40625 160 Z M 141.40625 160 "/>
<path style=" stroke:none;fill-rule:nonzero;fill:rgb(0%,0%,0%);fill-opacity:1;" d="M 141.40625 120 L 141.40625 100 L 161.40625 100 L 161.40625 120 Z M 141.40625 120 "/>
<path style=" stroke:none;fill-rule:nonzero;fill:rgb(0%,0%,0%);fill-opacity:1;" d="M 141.40625 80 L 141.40625 60 L 161.40625 60 L 161.40625 80 Z M 141.40625 80 "/>
<path style=" stroke:none;fill-rule:nonzero;fill:rgb(0%,0%,0%);fill-opacity:1;" d="M 141.40625 40 L 141.40625 20 L 161.40625 20 L 161.40625 40 Z M 141.40625 40 "/>
<path style=" stroke:none;fill-rule:nonzero;fill:rgb(0%,0%,0%);fill-opacity:1;" d="M 177.40625 200 L 177.40625 180 L 197.40625 180 L 197.40625 200 Z M 177.40625 200 "/>
<path style=" stroke:none;fill-rule:nonzero;fill:rgb(0%,0%,0%);fill-opacity:1;" d="M 177.40625 160 L 177.40625 140 L 197.40625 140 L 197.40625 160 Z M 177.40625 160 "/>
<path style=" stroke:none;fill-rule:nonzero;fill:rgb(0%,0%,0%);fill-opacity:1;" d="M 177.40625 120 L 177.40625 100 L 197.40625 100 L 197.40625 120 Z M 177.40625 120 "/>
<path style=" stroke:none;fill-rule:nonzero;fill:rgb(0%,0%,0%);fill-opacity:1;" d="M 177.40625 80 L 177.40625 60 L 197.40625 60 L 197.40625 80 Z M 177.40625 80 "/>
<path style=" stroke:none;fill-rule:nonzero;fill:rgb(0%,0%,0%);fill-opacity:1;" d="M 177.40625 40 L 177.40625 20 L 197.40625 20 L 197.40625 40 Z M 177.40625 40 "/>
<path style=" stroke:none;fill-rule:nonzero;fill:rgb(0%,0%,0%);fill-opacity:1;" d="M 213.40625 200 L 213.40625 180 L 233.40625 180 L 233.40625 200 Z M 213.40625 200 "/>
<path style=" stroke:none;fill-rule:nonzero;fill:rgb(0%,0%,0%);fill-opacity:1;" d="M 213.40625 160 L 213.40625 140 L 233.40625 140 L 233.40625 160 Z M 213.40625 160 "/>
<path style=" stroke:none;fill-rule:nonzero;fill:rgb(0%,0%,0%);fill-opacity:1;" d="M 213.40625 120 L 213.40625 100 L 233.40625 100 L 233.40625 120 Z M 213.40625 120 "/>
<path style=" stroke:none;fill-rule:nonzero;fill:rgb(0%,0%,0%);fill-opacity:1;" d="M 213.40625 80 L 213.40625 60 L 233.40625 60 L 233.40625 80 Z M 213.40625 80 "/>
<path style=" stroke:none;fill-rule:nonzero;fill:rgb(0%,0%,0%);fill-opacity:1;" d="M 213.40625 40 L 213.40625 20 L 233.40625 20 L 233.40625 40 Z M 213.40625 40 "/>
<path style=" stroke:none;fill-rule:nonzero;fill:rgb(0%,0%,0%);fill-opacity:1;" d="M 249.40625 200 L 249.40625 180 L 269.40625 180 L 269.40625 200 Z M 249.40625 200 "/>
<path style=" stroke:none;fill-rule:nonzero;fill:rgb(0%,0%,0%);fill-opacity:1;" d="M 249.40625 160 L 249.40625 140 L 269.40625 140 L 269.40625 160 Z M 249.40625 160 "/>
<path style=" stroke:none;fill-rule:nonzero;fill:rgb(0%,0%,0%);fill-opacity:1;" d="M 249.40625 120 L 249.40625 100 L 269.40625 100 L 269.40625 120 Z M 249.40625 120 "/>
<path style=" stroke:none;fill-rule:nonzero;fill:rgb(0%,0%,0%);fill-opacity:1;" d="M 249.40625 80 L 249.40625 60 L 269.40625 60 L 269.40625 80 Z M 249.40625 80 "/>
<path style=" stroke:none;fill-rule:nonzero;fill:rgb(0%,0%,0%);fill-opacity:1;" d="M 249.40625 40 L 249.40625 20 L 269.40625 20 L 269.40625 40 Z M 249.40625 40 "/>
<path style=" stroke:none;fill-rule:nonzero;fill:rgb(0%,0%,0%);fill-opacity:1;" d="M 285.40625 200 L 285.40625 180 L 305.40625 180 L 305.40625 200 Z M 285.40625 200 "/>
<path style=" stroke:none;fill-rule:nonzero;fill:rgb(0%,0%,0%);fill-opacity:1;" d="M 285.40625 160 L 285.40625 140 L 305.40625 140 L 305.40625 160 Z M 285.40625 160 "/>
<path style=" stroke:none;fill-rule:nonzero;fill:rgb(0%,0%,0%);fill-opacity:1;" d="M 285.40625 120 L 285.40625 100 L 305.40625 100 L 305.40625 120 Z M 285.40625 120 "/>
<path style=" stroke:none;fill-rule:nonzero;fill:rgb(0%,0%,0%);fill-opacity:1;" d="M 285.40625 80 L 285.40625 60 L 305.40625 60 L 305.40625 80 Z M 285.40625 80 "/>
<path style=" stroke:none;fill-rule:nonzero;fill:rgb(0%,0%,0%);fill-opacity:1;" d="M 285.40625 40 L 285.40625 20 L 305.40625 20 L 305.40625 40 Z M 285.40625 40 "/>
<path style=" stroke:none;fill-rule:nonzero;fill:rgb(0%,0%,0%);fill-opacity:1;" d="M 321.40625 200 L 321.40625 180 L 341.40625 180 L 341.40625 200 Z M 321.40625 200 "/>
<path style=" stroke:none;fill-rule:nonzero;fill:rgb(0%,0%,0%);fill-opacity:1;" d="M 321.40625 160 L 321.40625 140 L 341.40625 140 L 341.40625 160 Z M 321.40625 160 "/>
<path style=" stroke:none;fill-rule:nonzero;fill:rgb(0%,0%,0%);fill-opacity:1;" d="M 321.40625 120 L 321.40625 100 L 341.40625 100 L 341.40625 120 Z M 321.40625 120 "/>
<path style=" stroke:none;fill-rule:nonzero;fill:rgb(0%,0%,0%);fill-opacity:1;" d="M 321.40625 80 L 321.40625 60 L 341.40625 60 L 341.40625 80 Z M 321.40625 80 "/>
<path style=" stroke:none;fill-rule:nonzero;fill:rgb(0%,0%,0%);fill-opacity:1;" d="M 321.40625 40 L 321.40625 20 L 341.40625 20 L 341.40625 40 Z M 321.40625 40 "/>
<path style=" stroke:none;fill-rule:nonzero;fill:rgb(0%,0%,0%);fill-opacity:1;" d="M 357.40625 200 L 357.40625 180 L 377.40625 180 L 377.40625 200 Z M 357.40625 200 "/>
<path style=" stroke:none;fill-rule:nonzero;fill:rgb(0%,0%,0%);fill-opacity:1;" d="M 357.40625 160 L 357.40625 140 L 377.40625 140 L 377.40625 160 Z M 357.40625 160 "/>
<path style=" stroke:none;fill-rule:nonzero;fill:rgb(0%,0%,0%);fill-opacity:1;" d="M 357.40625 120 L 357.40625 100 L 377.40625 100 L 377.40625 120 Z M 357.40625 120 "/>
<path style=" stroke:none;fill-rule:nonzero;fill:rgb(0%,0%,0%);fill-opacity:1;" d="M 357.40625 80 L 357.40625 60 L 377.40625 60 L 377.40625 80 Z M 357.40625 80 "/>
<path style=" stroke:none;fill-rule:nonzero;fill:rgb(0%,0%,0%);fill-opacity:1;" d="M 357.40625 40 L 357.40625 20 L 377.40625 20 L 377.40625 40 Z M 357.40625 40 "/>
<path style="fill:none;stroke-width:1;stroke-linecap:square;stroke-linejoin:miter;stroke:rgb(100%,0%,0%);stroke-opacity:1;stroke-miterlimit:3.25;" d="M 0 220 L 400 220 "/>
<path style="fill:none;stroke-width:1;stroke-linecap:square;stroke-linejoin:miter;stroke:rgb(100%,0%,0%);stroke-opacity:1;stroke-miterlimit:3.25;" d="M 0 200 L 400 200 "/>
<path style="fill:none;stroke-width:1;stroke-linecap:square;stroke-linejoin:miter;stroke:rgb(100%,0%,0%);stroke-opacity:1;stroke-miterlimit:3.25;" d="M 0 180 L 400 180 "/>
<path style="fill:none;stroke-width:1;stroke-linecap:square;stroke-linejoin:miter;stroke:rgb(100%,0%,0%);stroke-opacity:1;stroke-miterlimit:3.25;" d="M 0 160 L 400 160 "/>
<path style="fill:none;stroke-width:1;stroke-linecap:square;stroke-linejoin:miter;stroke:rgb(100%,0%,0%);stroke-opacity:1;stroke-miterlimit:3.25;" d="M 0 140 L 400 140 "/>
<path style="fill:none;stroke-width:1;stroke-linecap:square;stroke-linejoin:miter;stroke:rgb(100%,0%,0%);stroke-opacity:1;stroke-miterlimit:3.25;" d="M 0 120 L 400 120 "/>
<path style="fill:none;stroke-width:1;stroke-linecap:square;stroke-linejoin:miter;stroke:rgb(100%,0%,0%);stroke-opacity:1;stroke-miterlimit:3.25;" d="M 0 100 L 400 100 "/>
<path style="fill:none;stroke-width:1;stroke-linecap:square;stroke-linejoin:miter;stroke:rgb(100%,0%,0%);stroke-opacity:1;stroke-miterlimit:3.25;" d="M 0 80 L 400 80 "/>
<path style="fill:none;stroke-width:1;stroke-linecap:square;stroke-linejoin:miter;stroke:rgb(100%,0%,0%);stroke-opacity:1;stroke-miterlimit:3.25;" d="M 0 60 L 400 60 "/>
<path style="fill:none;stroke-width:1;stroke-linecap:square;stroke-linejoin:miter;stroke:rgb(100%,0%,0%);stroke-opacity:1;stroke-miterlimit:3.25;" d="M 0 40 L 400 40 "/>
<path style="fill:none;stroke-width:1;stroke-linecap:square;stroke-linejoin:miter;stroke:rgb(100%,0%,0%);stroke-opacity:1;stroke-miterlimit:3.25;" d="M 0 20 L 400 20 "/>
</g>
</svg>
