<?xml version="1.0" encoding="UTF-8"?>
<svg xmlns="http://www.w3.org/2000/svg" xmlns:xlink="http://www.w3.org/1999/xlink" width="400pt" height="220pt" viewBox="0 0 400 220" version="1.1">
<g id="surface586">
<rect x="0" y="0" width="400" height="220" style="fill:rgb(0%,40%,100%);fill-opacity:0.2;stroke:none;"/>
<path style=" stroke:none;fill-rule:nonzero;fill:rgb(0%,0%,0%);fill-opacity:1;" d="M 18.097656 220 L 18.097656 200 L 38.097656 200 L 38.097656 220 Z M 18.097656 220 "/>
<path style=" stroke:none;fill-rule:nonzero;fill:rgb(0%,0%,0%);fill-opacity:1;" d="M 18.097656 180 L 18.097656 160 L 38.097656 160 L 38.097656 180 Z M 18.097656 180 "/>
<path style=" stroke:none;fill-rule:nonzero;fill:rgb(0%,0%,0%);fill-opacity:1;" d="M 18.097656 140 L 18.097656 120 L 38.097656 120 L 38.097656 140 Z M 18.097656 140 "/>
<path style=" stroke:none;fill-rule:nonzero;fill:rgb(0%,0%,0%);fill-opacity:1;" d="M 18.097656 100 L 18.097656 80 L 38.097656 80 L 38.097656 100 Z M 18.097656 100 "/>
<path style=" stroke:none;fill-rule:nonzero;fill:rgb(0%,0%,0%);fill-opacity:1;" d="M 18.097656 60 L 18.097656 40 L 38.097656 40 L 38.097656 60 Z M 18.097656 60 "/>
<path style=" stroke:none;fill-rule:nonzero;fill:rgb(0%,0%,0%);fill-opacity:1;" d="M 18.097656 20 L 18.097656 0 L 38.097656 0 L 38.097656 20 Z M 18.097656 20 "/>
<path style=" stroke:none;fill-rule:nonzero;fill:rgb(0%,0%,0%);fill-opacity:1;" d="M 54.097656 220 L 54.097656 200 L 74.097656 200 L 74.097656 220 Z M 54.097656 220 "/>
<path style=" stroke:none;fill-rule:nonzero;fill:rgb(0%,0%,0%);fill-opacity:1;" d="M 54.097656 180 L 54.097656 160 L 74.097656 160 L 74.097656 180 Z M 54.097656 180 "/>
<path style=" stroke:none;fill-rule:nonzero;fill:rgb(0%,0%,0%);fill-opacity:1;" d="M 54.097656 140 L 54.097656 120 L 74.097656 120 L 74.097656 140 Z M 54.097656 140 "/>
<path style=" stroke:none;fill-rule:nonzero;fill:rgb(0%,0%,0%);fill-opacity:1;" d="M 54.097656 100 L 54.097656 80 L 74.097656 80 L 74.097656 100 Z M 54.097656 100 "/>
<path style=" stroke:none;fill-rule:nonzero;fill:rgb(0%,0%,0%);fill-opacity:1;" d="M 54.097656 60 L 54.097656 40 L 74.097656 40 L 74.097656 60 Z M 54.097656 60 "/>
<path style=" stroke:none;fill-rule:nonzero;fill:rgb(0%,0%,0%);fill-opacity:1;" d="M 54.097656 20 L 54.097656 0 L 74.097656 0 L 74.097656 20 Z M 54.097656 20 "/>
<path style=" stroke:none;fill-rule:nonzero;fill:rgb(0%,0%,0%);fill-opacity:1;" d="M 90.097656 220 L 90.097656 200 L 110.097656 200 L 110.097656 220 Z M 90.097656 220 "/>
<path style=" stroke:none;fill-rule:nonzero;fill:rgb(0%,0%,0%);fill-opacity:1;" d="M 90.097656 180 L 90.097656 160 L 110.097656 160 L 110.097656 180 Z M 90.097656 180 "/>
<path style=" stroke:none;fill-rule:nonzero;fill:rgb(0%,0%,0%);fill-opacity:1;" d="M 90.097656 140 L 90.097656 120 L 110.097656 120 L 110.097656 140 Z M 90.097656 140 "/>
<path style=" stroke:none;fill-rule:nonzero;fill:rgb(0%,0%,0%);fill-opacity:1;" d="M 90.097656 100 L 90.097656 80 L 110.097656 80 L 110.097656 100 Z M 90.097656 100 "/>
<path style=" stroke:none;fill-rule:nonzero;fill:rgb(0%,0%,0%);fill-opacity:1;" d="M 90.097656 60 L 90.097656 40 L 110.097656 40 L 110.097656 60 Z M 90.097656 60 "/>
<path style=" stroke:none;fill-rule:nonzero;fill:rgb(0%,0%,0%);fill-opacity:1;" d="M 90.097656 20 L 90.097656 0 L 110.097656 0 L 110.097656 20 Z M 90.097656 20 "/>
<path style=" stroke:none;fill-rule:nonzero;fill:rgb(0%,0%,0%);fill-opacity:1;" d="M 126.097656 220 L 126.097656 200 L 146.097656 200 L 146.097656 220 Z M 126.097656 220 "/>
<path style=" stroke:none;fill-rule:nonzero;fill:rgb(0%,0%,0%);fill-opacity:1;" d="M 126.097656 180 L 126.097656 160 L 146.097656 160 L 146.097656 180 Z M 126.097656 180 "/>
<path style=" stroke:none;fill-rule:nonzero;fill:rgb(0%,0%,0%);fill-opacity:1;" d="M 126.097656 140 L 126.097656 120 L 146.097656 120 L 146.097656 140 Z M 126.097656 140 "/>
<path style=" stroke:none;fill-rule:nonzero;fill:rgb(0%,0%,0%);fill-opacity:1;" d="M 126.097656 100 L 126.097656 80 L 146.097656 80 L 146.097656 100 Z M 126.097656 100 "/>
<path style=" stroke:none;fill-rule:nonzero;fill:rgb(0%,0%,0%);fill-opacity:1;" d="M 126.097656 60 L 126.097656 40 L 146.097656 40 L 146.097656 60 Z M 126.097656 60 "/>
<path style=" stroke:none;fill-rule:nonzero;fill:rgb(0%,0%,0%);fill-opacity:1;" d="M 126.097656 20 L 126.097656 0 L 146.097656 0 L 146.097656 20 Z M 126.097656 20 "/>
<path style=" stroke:none;fill-rule:nonzero;fill:rgb(0%,0%,0%);fill-opacity:1;" d="M 162.097656 220 L 162.097656 200 L 182.097656 200 L 182.097656 220 Z M 162.097656 220 "/>
<path style=" stroke:none;fill-rule:nonzero;fill:rgb(0%,0%,0%);fill-opacity:1;" d="M 162.097656 180 L 162.097656 160 L 182.097656 160 L 182.097656 180 Z M 162.097656 180 "/>
<path style=" stroke:none;fill-rule:nonzero;fill:rgb(0%,0%,0%);fill-opacity:1;" d="M 162.097656 140 L 162.097656 120 L 182.097656 120 L 182.097656 140 Z M 162.097656 140 "/>
<path style=" stroke:none;fill-rule:nonzero;fill:rgb(0%,0%,0%);fill-opacity:1;" d="M 162.097656 100 L 162.097656 80 L 182.097656 80 L 182.097656 100 Z M 162.097656 100 "/>
<path style=" stroke:none;fill-rule:nonzero;fill:rgb(0%,0%,0%);fill-opacity:1;" d="M 162.097656 60 L 162.097656 40 L 182.097656 40 L 182.097656 60 Z M 162.097656 60 "/>
<path style=" stroke:none;fill-rule:nonzero;fill:rgb(0%,0%,0%);fill-opacity:1;" d="M 162.097656 20 L 162.097656 0 L 182.097656 0 L 182.097656 20 Z M 162.097656 20 "/>
<path style=" stroke:none;fill-rule:nonzero;fill:rgb(0%,0%,0%);fill-opacity:1;" d="M 198.097656 220 L 198.097656 200 L 218.097656 200 L 218.097656 220 Z M 198.097656 220 "/>
<path style=" stroke:none;fill-rule:nonzero;fill:rgb(0%,0%,0%);fill-opacity:1;" d="M 198.097656 180 L 198.097656 160 L 218.097656 160 L 218.097656 180 Z M 198.097656 180 "/>
<path style=" stroke:none;fill-rule:nonzero;fill:rgb(0%,0%,0%);fill-opacity:1;" d="M 198.097656 140 L 198.097656 120 L 218.097656 120 L 218.097656 140 Z M 198.097656 140 "/>
<path style=" stroke:none;fill-rule:nonzero;fill:rgb(0%,0%,0%);fill-opacity:1;" d="M 198.097656 100 L 198.097656 80 L 218.097656 80 L 218.097656 100 Z M 198.097656 100 "/>
<path style=" stroke:none;fill-rule:nonzero;fill:rgb(0%,0%,0%);fill-opacity:1;" d="M 198.097656 60 L 198.097656 40 L 218.097656 40 L 218.097656 60 Z M 198.097656 60 "/>
<path style=" stroke:none;fill-rule:nonzero;fill:rgb(0%,0%,0%);fill-opacity:1;" d="M 198.097656 20 L 198.097656 0 L 218.097656 0 L 218.097656 20 Z M 198.097656 20 "/>
<path style=" stroke:none;fill-rule:nonzero;fill:rgb(0%,0%,0%);fill-opacity:1;" d="M 234.097656 220 L 234.097656 200 L 254.097656 200 L 254.097656 220 Z M 234.097656 220 "/>
<path style=" stroke:none;fill-rule:nonzero;fill:rgb(0%,0%,0%);fill-opacity:1;" d="M 234.097656 180 L 234.097656 160 L 254.097656 160 L 254.097656 180 Z M 234.097656 180 "/>
<path style=" stroke:none;fill-rule:nonzero;fill:rgb(0%,0%,0%);fill-opacity:1;" d="M 234.097656 140 L 234.097656 120 L 254.097656 120 L 254.097656 140 Z M 234.097656 140 "/>
<path style=" stroke:none;fill-rule:nonzero;fill:rgb(0%,0%,0%);fill-opacity:1;" d="M 234.097656 100 L 234.097656 80 L 254.097656 80 L 254.097656 100 Z M 234.097656 100 "/>
<path style=" stroke:none;fill-rule:nonzero;fill:rgb(0%,0%,0%);fill-opacity:1;" d="M 234.097656 60 L 234.097656 40 L 254.097656 40 L 254.097656 60 Z M 234.097656 60 "/>
<path style=" stroke:none;fill-rule:nonzero;fill:rgb(0%,0%,0%);fill-opacity:1;" d="M 234.097656 20 L 234.097656 0 L 254.097656 0 L 254.097656 20 Z M 234.097656 20 "/>
<path style=" stroke:none;fill-rule:nonzero;fill:rgb(0%,0%,0%);fill-opacity:1;" d="M 270.097656 220 L 270.097656 200 L 290.097656 200 L 290.097656 220 Z M 270.097656 220 "/>
<path style=" stroke:none;fill-rule:nonzero;fill:rgb(0%,0%,0%);fill-opacity:1;" d="M 270.097656 180 L 270.097656 160 L 290.097656 160 L 290.097656 180 Z M 270.097656 180 "/>
<path style=" stroke:none;fill-rule:nonzero;fill:rgb(0%,0%,0%);fill-opacity:1;" d="M 270.097656 140 L 270.097656 120 L 290.097656 120 L 290.097656 140 Z M 270.097656 140 "/>
<path style=" stroke:none;fill-rule:nonzero;fill:rgb(0%,0%,0%);fill-opacity:1;" d="M 270.097656 100 L 270.097656 80 L 290.097656 80 L 290.097656 100 Z M 270.097656 100 "/>
<path style=" stroke:none;fill-rule:nonzero;fill:rgb(0%,0%,0%);fill-opacity:1;" d="M 270.097656 60 L 270.097656 40 L 290.097656 40 L 290.097656 60 Z M 270.097656 60 "/>
<path style=" stroke:none;fill-rule:nonzero;fill:rgb(0%,0%,0%);fill-opacity:1;" d="M 270.097656 20 L 270.097656 0 L 290.097656 0 L 290.097656 20 Z M 270.097656 20 "/>
<path style=" stroke:none;fill-rule:nonzero;fill:rgb(0%,0%,0%);fill-opacity:1;" d="M 306.097656 220 L 306.097656 200 L 326.097656 200 L 326.097656 220 Z M 306.097656 220 "/>
<path style=" stroke:none;fill-rule:nonzero;fill:rgb(0%,0%,0%);fill-opacity:1;" d="M 306.097656 180 L 306.097656 160 L 326.097656 160 L 326.097656 180 Z M 306.097656 180 "/>
<path style=" stroke:none;fill-rule:nonzero;fill:rgb(0%,0%,0%);fill-opacity:1;" d="M 306.097656 140 L 306.097656 120 L 326.097656 120 L 326.097656 140 Z M 306.097656 140 "/>
<path style=" stroke:none;fill-rule:nonzero;fill:rgb(0%,0%,0%);fill-opacity:1;" d="M 306.097656 100 L 306.097656 80 L 326.097656 80 L 326.097656 100 Z M 306.097656 100 "/>
<path style=" stroke:none;fill-rule:nonzero;fill:rgb(0%,0%,0%);fill-opacity:1;" d="M 306.097656 60 L 306.097656 40 L 326.097656 40 L 326.097656 60 Z M 306.097656 60 "/>
<path style=" stroke:none;fill-rule:nonzero;fill:rgb(0%,0%,0%);fill-opacity:1;" d="M 306.097656 20 L 306.097656 0 L 326.097656 0 L 326.097656 20 Z M 306.097656 20 "/>
<path style=" stroke:none;fill-rule:nonzero;fill:rgb(0%,0%,0%);fill-opacity:1;" d="M 342.097656 220 L 342.097656 200 L 362.097656 200 L 362.097656 220 Z M 342.097656 220 "/>
<path style=" stroke:none;fill-rule:nonzero;fill:rgb(0%,0%,0%);fill-opacity:1;" d="M 342.097656 180 L 342.097656 160 L 362.097656 160 L 362.097656 180 Z M 342.097656 180 "/>
<path style=" stroke:none;fill-rule:nonzero;fill:rgb(0%,0%,0%);fill-opacity:1;" d="M 342.097656 140 L 342.097656 120 L 362.097656 120 L 362.097656 140 Z M 342.097656 140 "/>
<path style=" stroke:none;fill-rule:nonzero;fill:rgb(0%,0%,0%);fill-opacity:1;" d="M 342.097656 100 L 342.097656 80 L 362.097656 80 L 362.097656 100 Z M 342.097656 100 "/>
<path style=" stroke:none;fill-rule:nonzero;fill:rgb(0%,0%,0%);fill-opacity:1;" d="M 342.097656 60 L 342.097656 40 L 362.097656 40 L 362.097656 60 Z M 342.097656 60 "/>
<path style=" stroke:none;fill-rule:nonzero;fill:rgb(0%,0%,0%);fill-opacity:1;" d="M 342.097656 20 L 342.097656 0 L 362.097656 0 L 362.097656 20 Z M 342.097656 20 "/>
<path style=" stroke:none;fill-rule:nonzero;fill:rgb(0%,0%,0%);fill-opacity:1;" d="M 378.097656 220 L 378.097656 200 L 398.097656 200 L 398.097656 220 Z M 378.097656 220 "/>
<path style=" stroke:none;fill-rule:nonzero;fill:rgb(0%,0%,0%);fill-opacity:1;" d="M 378.097656 180 L 378.097656 160 L 398.097656 160 L 398.097656 180 Z M 378.097656 180 "/>
<path style=" stroke:none;fill-rule:nonzero;fill:rgb(0%,0%,0%);fill-opacity:1;" d="M 378.097656 140 L 378.097656 120 L 398.097656 120 L 398.097656 140 Z M 378.097656 140 "/>
<path style=" stroke:none;fill-rule:nonzero;fill:rgb(0%,0%,0%);fill-opacity:1;" d="M 378.097656 100 L 378.097656 80 L 398.097656 80 L 398.097656 100 Z M 378.097656 100 "/>
<path style=" stroke:none;fill-rule:nonzero;fill:rgb(0%,0%,0%);fill-opacity:1;" d="M 378.097656 60 L 378.097656 40 L 398.097656 40 L 398.097656 60 Z M 378.097656 60 "/>
<path style=" stroke:none;fill-rule:nonzero;fill:rgb(0%,0%,0%);fill-opacity:1;" d="M 378.097656 20 L 378.097656 0 L 398.097656 0 L 398.097656 20 Z M 378.097656 20 "/>
<path style=" stroke:none;fill-rule:nonzero;fill:rgb(0%,0%,0%);fill-opacity:1;" d="M 7.484375 200 L 7.484375 180 L 27.484375 180 L 27.484375 200 Z M 7.484375 200 "/>
<path style=" stroke:none;fill-rule:nonzero;fill:rgb(0%,0%,0%);fill-opacity:1;" d="M 7.484375 160 L 7.484375 140 L 27.484375 140 L 27.484375 160 Z M 7.484375 160 "/>
<path style=" stroke:none;fill-rule:nonzero;fill:rgb(0%,0%,0%);fill-opacity:1;" d="M 7.484375 120 L 7.484375 100 L 27.484375 100 L 27.484375 120 Z M 7.484375 120 "/>
<path style=" stroke:none;fill-rule:nonzero;fill:rgb(0%,0%,0%);fill-opacity:1;" d="M 7.484375 80 L 7.484375 60 L 27.484375 60 L 27.484375 80 Z M 7.484375 80 "/>
<path style=" stroke:none;fill-rule:nonzero;fill:rgb(0%,0%,0%);fill-opacity:1;" d="M 7.484375 40 L 7.484375 20 L 27.484375 20 L 27.484375 40 Z M 7.484375 40 "/>
<path style=" stroke:none;fill-rule:nonzero;fill:rgb(0%,0%,0%);fill-opacity:1;" d="M 43.484375 200 L 43.484375 180 L 63.484375 180 L 63.484375 200 Z M 43.484375 200 "/>
<path style=" stroke:none;fill-rule:nonzero;fill:rgb(0%,0%,0%);fill-opacity:1;" d="M 43.484375 160 L 43.484375 140 L 63.484375 140 L 63.484375 160 Z M 43.484375 160 "/>
<path style=" stroke:none;fill-rule:nonzero;fill:rgb(0%,0%,0%);fill-opacity:1;" d="M 43.484375 120 L 43.484375 100 L 63.484375 100 L 63.484375 120 Z M 43.484375 120 "/>
<path style=" stroke:none;fill-rule:nonzero;fill:rgb(0%,0%,0%);fill-opacity:1;" d="M 43.484375 80 L 43.484375 60 L 63.484375 60 L 63.484375 80 Z M 43.484375 80 "/>
<path style=" stroke:none;fill-rule:nonzero;fill:rgb(0%,0%,0%);fill-opacity:1;" d="M 43.484375 40 L 43.484375 20 L 63.484375 20 L 63.484375 40 Z M 43.484375 40 "/>
<path style=" stroke:none;fill-rule:nonzero;fill:rgb(0%,0%,0%);fill-opacity:1;" d="M 79.484375 200 L 79.484375 180 L 99.484375 180 L 99.484375 200 Z M 79.484375 200 "/>
<path style=" stroke:none;fill-rule:nonzero;fill:rgb(0%,0%,0%);fill-opacity:1;" d="M 79.484375 160 L 79.484375 140 L 99.484375 140 L 99.484375 160 Z M 79.484375 160 "/>
<path style=" stroke:none;fill-rule:nonzero;fill:rgb(0%,0%,0%);fill-opacity:1;" d="M 79.484375 120 L 79.484375 100 L 99.484375 100 L 99.484375 120 Z M 79.484375 120 "/>
<path style=" stroke:none;fill-rule:nonzero;fill:rgb(0%,0%,0%);fill-opacity:1;" d="M 79.484375 80 L 79.484375 60 L 99.484375 60 L 99.484375 80 Z M 79.484375 80 "/>
<path style=" stroke:none;fill-rule:nonzero;fill:rgb(0%,0%,0%);fill-opacity:1;" d="M 79.484375 40 L 79.484375 20 L 99.484375 20 L 99.484375 40 Z M 79.484375 40 "/>
<path style=" stroke:none;fill-rule:nonzero;fill:rgb(0%,0%,0%);fill-opacity:1;" d="M 115.484375 200 L 115.484375 180 L 135.484375 180 L 135.484375 200 Z M 115.484375 200 "/>
<path style=" stroke:none;fill-rule:nonzero;fill:rgb(0%,0%,0%);fill-opacity:1;" d="M 115.484375 160 L 115.484375 140 L 135.484375 140 L 135.484375 160 Z M 115.484375 160 "/>
<path style=" stroke:none;fill-rule:nonzero;fill:rgb(0%,0%,0%);fill-opacity:1;" d="M 115.484375 120 L 115.484375 100 L 135.484375 100 L 135.484375 120 Z M 115.484375 120 "/>
<path style=" stroke:none;fill-rule:nonzero;fill:rgb(0%,0%,0%);fill-opacity:1;" d="M 115.484375 80 L 115.484375 60 L 135.484375 60 L 135.484375 80 Z M 115.484375 80 "/>
<path style=" stroke:none;fill-rule:nonzero;fill:rgb(0%,0%,0%);fill-opacity:1;" d="M 115.484375 40 L 115.484375 20 L 135.484375 20 L 135.484375 40 Z M 115.484375 40 "/>
<path style=" stroke:none;fill-rule:nonzero;fill:rgb(0%,0%,0%);fill-opacity:1;" d="M 151.484375 200 L 151.484375 180 L 171.484375 180 L 171.484375 200 Z M 151.484375 200 "/>
<path style=" stroke:none;fill-rule:nonzero;fill:rgb(0%,0%,0%);fill-opacity:1;" d="M 151.484375 160 L 151.484375 140 L 171.484375 140 L 171.484375 160 Z M 151.484375 160 "/>
<path style=" stroke:none;fill-rule:nonzero;fill:rgb(0%,0%,0%);fill-opacity:1;" d="M 151.484375 120 L 151.484375 100 L 171.484375 100 L 171.484375 120 Z M 151.484375 120 "/>
<path style=" stroke:none;fill-rule:nonzero;fill:rgb(0%,0%,0%);fill-opacity:1;" d="M 151.484375 80 L 151.484375 60 L 171.484375 60 L 171.484375 80 Z M 151.484375 80 "/>
<path style=" stroke:none;fill-rule:nonzero;fill:rgb(0%,0%,0%);fill-opacity:1;" d="M 151.484375 40 L 151.484375 20 L 171.484375 20 L 171.484375 40 Z M 151.484375 40 "/>
<path style=" stroke:none;fill-rule:nonzero;fill:rgb(0%,0%,0%);fill-opacity:1;" d="M 187.484375 200 L 187.484375 180 L 207.484375 180 L 207.484375 200 Z M 187.484375 200 "/>
<path style=" stroke:none;fill-rule:nonzero;fill:rgb(0%,0%,0%);fill-opacity:1;" d="M 187.484375 160 L 187.484375 140 L 207.484375 140 L 207.484375 160 Z M 187.484375 160 "/>
<path style=" stroke:none;fill-rule:nonzero;fill:rgb(0%,0%,0%);fill-opacity:1;" d="M 187.484375 120 L 187.484375 100 L 207.484375 100 L 207.484375 120 Z M 187.484375 120 "/>
<path style=" stroke:none;fill-rule:nonzero;fill:rgb(0%,0%,0%);fill-opacity:1;" d="M 187.484375 80 L 187.484375 60 L 207.484375 60 L 207.484375 80 Z M 187.484375 80 "/>
<path style=" stroke:none;fill-rule:nonzero;fill:rgb(0%,0%,0%);fill-opacity:1;" d="M 187.484375 40 L 187.484375 20 L 207.484375 20 L 207.484375 40 Z M 187.484375 40 "/>
<path style=" stroke:none;fill-rule:nonzero;fill:rgb(0%,0%,0%);fill-opacity:1;" d="M 223.484375 200 L 223.484375 180 L 243.484375 180 L 243.484375 200 Z M 223.484375 200 "/>
<path style=" stroke:none;fill-rule:nonzero;fill:rgb(0%,0%,0%);fill-opacity:1;" d="M 223.484375 160 L 223.484375 140 L 243.484375 140 L 243.484375 160 Z M 223.484375 160 "/>
<path style=" stroke:none;fill-rule:nonzero;fill:rgb(0%,0%,0%);fill-opacity:1;" d="M 223.484375 120 L 223.484375 100 L 243.484375 100 L 243.484375 120 Z M 223.484375 120 "/>
<path style=" stroke:none;fill-rule:nonzero;fill:rgb(0%,0%,0%);fill-opacity:1;" d="M 223.484375 80 L 223.484375 60 L 243.484375 60 L 243.484375 80 Z M 223.484375 80 "/>
<path style=" stroke:none;fill-rule:nonzero;fill:rgb(0%,0%,0%);fill-opacity:1;" d="M 223.484375 40 L 223.484375 20 L 243.484375 20 L 243.484375 40 Z M 223.484375 40 "/>
<path style=" stroke:none;fill-rule:nonzero;fill:rgb(0%,0%,0%);fill-opacity:1;" d="M 259.484375 200 L 259.484375 180 L 279.484375 180 L 279.484375 200 Z M 259.484375 200 "/>
<path style=" stroke:none;fill-rule:nonzero;fill:rgb(0%,0%,0%);fill-opacity:1;" d="M 259.484375 160 L 259.484375 140 L 279.484375 140 L 279.484375 160 Z M 259.484375 160 "/>
<path style=" stroke:none;fill-rule:nonzero;fill:rgb(0%,0%,0%);fill-opacity:1;" d="M 259.484375 120 L 259.484375 100 L 279.484375 100 L 279.484375 120 Z M 259.484375 120 "/>
<path style=" stroke:none;fill-rule:nonzero;fill:rgb(0%,0%,0%);fill-opacity:1;" d="M 259.484375 80 L 259.484375 60 L 279.484375 60 L 279.484375 80 Z M 259.484375 80 "/>
<path style=" stroke:none;fill-rule:nonzero;fill:rgb(0%,0%,0%);fill-opacity:1;" d="M 259.484375 40 L 259.484375 20 L 279.484375 20 L 279.484375 40 Z M 259.484375 40 "/>
<path style=" stroke:none;fill-rule:nonzero;fill:rgb(0%,0%,0%);fill-opacity:1;" d="M 295.484375 200 L 295.484375 180 L 315.484375 180 L 315.484375 200 Z M 295.484375 200 "/>
<path style=" stroke:none;fill-rule:nonzero;fill:rgb(0%,0%,0%);fill-opacity:1;" d="M 295.484375 160 L 295.484375 140 L 315.484375 140 L 315.484375 160 Z M 295.484375 160 "/>
<path style=" stroke:none;fill-rule:nonzero;fill:rgb(0%,0%,0%);fill-opacity:1;" d="M 295.484375 120 L 295.484375 100 L 315.484375 100 L 315.484375 120 Z M 295.484375 120 "/>
<path style=" stroke:none;fill-rule:nonzero;fill:rgb(0%,0%,0%);fill-opacity:1;" d="M 295.484375 80 L 295.484375 60 L 315.484375 60 L 315.484375 80 Z M 295.484375 80 "/>
<path style=" stroke:none;fill-rule:nonzero;fill:rgb(0%,0%,0%);fill-opacity:1;" d="M 295.484375 40 L 295.484375 20 L 315.484375 20 L 315.484375 40 Z M 295.484375 40 "/>
<path style=" stroke:none;fill-rule:nonzero;fill:rgb(0%,0%,0%);fill-opacity:1;" d="M 331.484375 200 L 331.484375 180 L 351.484375 180 L 351.484375 200 Z M 331.484375 200 "/>
<path style=" stroke:none;fill-rule:nonzero;fill:rgb(0%,0%,0%);fill-opacity:1;" d="M 331.484375 160 L 331.484375 140 L 351.484375 140 L 351.484375 160 Z M 331.484375 160 "/>
<path style=" stroke:none;fill-rule:nonzero;fill:rgb(0%,0%,0%);fill-opacity:1;" d="M 331.484375 120 L 331.484375 100 L 351.484375 100 L 351.484375 120 Z M 331.484375 120 "/>
<path style=" stroke:none;fill-rule:nonzero;fill:rgb(0%,0%,0%);fill-opacity:1;" d="M 331.484375 80 L 331.484375 60 L 351.484375 60 L 351.484375 80 Z M 331.484375 80 "/>
<path style=" stroke:none;fill-rule:nonzero;fill:rgb(0%,0%,0%);fill-opacity:1;" d="M 331.484375 40 L 331.484375 20 L 351.484375 20 L 351.484375 40 Z M 331.484375 40 "/>
<path style=" stroke:none;fill-rule:nonzero;fill:rgb(0%,0%,0%);fill-opacity:1;" d="M 367.484375 200 L 367.484375 180 L 387.484375 180 L 387.484375 200 Z M 367.484375 200 "/>
<path style=" stroke:none;fill-rule:nonzero;fill:rgb(0%,0%,0%);fill-opacity:1;" d="M 367.484375 160 L 367.484375 140 L 387.484375 140 L 387.484375 160 Z M 367.484375 160 "/>
<path style=" stroke:none;fill-rule:nonzero;fill:rgb(0%,0%,0%);fill-opacity:1;" d="M 367.484375 120 L 367.484375 100 L 387.484375 100 L 387.484375 120 Z M 367.484375 120 "/>
<path style=" stroke:none;fill-rule:nonzero;fill:rgb(0%,0%,0%);fill-opacity:1;" d="M 367.484375 80 L 367.484375 60 L 387.484375 60 L 387.484375 80 Z M 367.484375 80 "/>
<path style=" stroke:none;fill-rule:nonzero;fill:rgb(0%,0%,0%);fill-opacity:1;" d="M 367.484375 40 L 367.484375 20 L 387.484375 20 L 387.484375 40 Z M 367.484375 40 "/>
<path style="fill:none;stroke-width:1;stroke-linecap:square;stroke-linejoin:miter;stroke:rgb(100%,0%,0%);stroke-opacity:1;stroke-miterlimit:3.25;" d="M 0 220 L 400 220 "/>
<path style="fill:none;stroke-width:1;stroke-linecap:square;stroke-linejoin:miter;stroke:rgb(100%,0%,0%);stroke-opacity:1;stroke-miterlimit:3.25;" d="M 0 200 L 400 200 "/>
<path style="fill:none;stroke-width:1;stroke-linecap:square;stroke-linejoin:miter;stroke:rgb(100%,0%,0%);stroke-opacity:1;stroke-miterlimit:3.25;" d="M 0 180 L 400 180 "/>
<path style="fill:none;stroke-width:1;stroke-linecap:square;stroke-linejoin:miter;stroke:rgb(100%,0%,0%);stroke-opacity:1;stroke-miterlimit:3.25;" d="M 0 160 L 400 160 "/>
<path style="fill:none;stroke-width:1;stroke-linecap:square;stroke-linejoin:miter;stroke:rgb(100%,0%,0%);stroke-opacity:1;stroke-miterlimit:3.25;" d="M 0 140 L 400 140 "/>
<path style="fill:none;stroke-width:1;stroke-linecap:square;stroke-linejoin:miter;stroke:rgb(100%,0%,0%);stroke-opacity:1;stroke-miterlimit:3.25;" d="M 0 120 L 400 120 "/>
<path style="fill:none;stroke-width:1;stroke-linecap:square;stroke-linejoin:miter;stroke:rgb(100%,0%,0%);stroke-opacity:1;stroke-miterlimit:3.25;" d="M 0 100 L 400 100 "/>
<path style="fill:none;stroke-width:1;stroke-linecap:square;stroke-linejoin:miter;stroke:rgb(100%,0%,0%);stroke-opacity:1;stroke-miterlimit:3.25;" d="M 0 80 L 400 80 "/>
<path style="fill:none;stroke-width:1;stroke-linecap:square;stroke-linejoin:miter;stroke:rgb(100%,0%,0%);stroke-opacity:1;stroke-miterlimit:3.25;" d="M 0 60 L 400 60 "/>
<path style="fill:none;stroke-width:1;stroke-linecap:square;stroke-linejoin:miter;stroke:rgb(100%,0%,0%);stroke-opacity:1;stroke-miterlimit:3.25;" d="M 0 40 L 400 40 "/>
<path style="fill:none;stroke-width:1;stroke-linecap:square;stroke-linejoin:miter;stroke:rgb(100%,0%,0%);stroke-opacity:1;stroke-miterlimit:3.25;" d="M 0 20 L 400 20 "/>
</g>
</svg>
