<?xml version="1.0" encoding="UTF-8"?>
<svg xmlns="http://www.w3.org/2000/svg" xmlns:xlink="http://www.w3.org/1999/xlink" width="400pt" height="220pt" viewBox="0 0 400 220" version="1.1">
<g id="surface561">
<rect x="0" y="0" width="400" height="220" style="fill:rgb(0%,40%,100%);fill-opacity:0.2;stroke:none;"/>
<path style=" stroke:none;fill-rule:nonzero;fill:rgb(0%,0%,0%);fill-opacity:1;" d="M 14.578125 220 L 14.578125 200 L 34.578125 200 L 34.578125 220 Z M 14.578125 220 "/>
<path style=" stroke:none;fill-rule:nonzero;fill:rgb(0%,0%,0%);fill-opacity:1;" d="M 14.578125 180 L 14.578125 160 L 34.578125 160 L 34.578125 180 Z M 14.578125 180 "/>
<path style=" stroke:none;fill-rule:nonzero;fill:rgb(0%,0%,0%);fill-opacity:1;" d="M 14.578125 140 L 14.578125 120 L 34.578125 120 L 34.578125 140 Z M 14.578125 140 "/>
<path style=" stroke:none;fill-rule:nonzero;fill:rgb(0%,0%,0%);fill-opacity:1;" d="M 14.578125 100 L 14.578125 80 L 34.578125 80 L 34.578125 100 Z M 14.578125 100 "/>
<path style=" stroke:none;fill-rule:nonzero;fill:rgb(0%,0%,0%);fill-opacity:1;" d="M 14.578125 60 L 14.578125 40 L 34.578125 40 L 34.578125 60 Z M 14.578125 60 "/>
<path style=" stroke:none;fill-rule:nonzero;fill:rgb(0%,0%,0%);fill-opacity:1;" d="M 14.578125 20 L 14.578125 0 L 34.578125 0 L 34.578125 20 Z M 14.578125 20 "/>
<path style=" stroke:none;fill-rule:nonzero;fill:rgb(0%,0%,0%);fill-opacity:1;" d="M 50.578125 220 L 50.578125 200 L 70.578125 200 L 70.578125 220 Z M 50.578125 220 "/>
<path style=" stroke:none;fill-rule:nonzero;fill:rgb(0%,0%,0%);fill-opacity:1;" d="M 50.578125 180 L 50.578125 160 L 70.578125 160 L 70.578125 180 Z M 50.578125 180 "/>
<path style=" stroke:none;fill-rule:nonzero;fill:rgb(0%,0%,0%);fill-opacity:1;" d="M 50.578125 140 L 50.578125 120 L 70.578125 120 L 70.578125 140 Z M 50.578125 140 "/>
<path style=" stroke:none;fill-rule:nonzero;fill:rgb(0%,0%,0%);fill-opacity:1;" d="M 50.578125 100 L 50.578125 80 L 70.578125 80 L 70.578125 100 Z M 50.578125 100 "/>
<path style=" stroke:none;fill-rule:nonzero;fill:rgb(0%,0%,0%);fill-opacity:1;" d="M 50.578125 60 L 50.578125 40 L 70.578125 40 L 70.578125 60 Z M 50.578125 60 "/>
<path style=" stroke:none;fill-rule:nonzero;fill:rgb(0%,0%,0%);fill-opacity:1;" d="M 50.578125 20 L 50.578125 0 L 70.578125 0 L 70.578125 20 Z M 50.578125 20 "/>
<path style=" stroke:none;fill-rule:nonzero;fill:rgb(0%,0%,0%);fill-opacity:1;" d="M 86.578125 220 L 86.578125 200 L 106.578125 200 L 106.578125 220 Z M 86.578125 220 "/>
<path style=" stroke:none;fill-rule:nonzero;fill:rgb(0%,0%,0%);fill-opacity:1;" d="M 86.578125 180 L 86.578125 160 L 106.578125 160 L 106.578125 180 Z M 86.578125 180 "/>
<path style=" stroke:none;fill-rule:nonzero;fill:rgb(0%,0%,0%);fill-opacity:1;" d="M 86.578125 140 L 86.578125 120 L 106.578125 120 L 106.578125 140 Z M 86.578125 140 "/>
<path style=" stroke:none;fill-rule:nonzero;fill:rgb(0%,0%,0%);fill-opacity:1;" d="M 86.578125 100 L 86.578125 80 L 106.578125 80 L 106.578125 100 Z M 86.578125 100 "/>
<path style=" stroke:none;fill-rule:nonzero;fill:rgb(0%,0%,0%);fill-opacity:1;" d="M 86.578125 60 L 86.578125 40 L 106.578125 40 L 106.578125 60 Z M 86.578125 60 "/>
<path style=" stroke:none;fill-rule:nonzero;fill:rgb(0%,0%,0%);fill-opacity:1;" d="M 86.578125 20 L 86.578125 0 L 106.578125 0 L 106.578125 20 Z M 86.578125 20 "/>
<path style=" stroke:none;fill-rule:nonzero;fill:rgb(0%,0%,0%);fill-opacity:1;" d="M 122.578125 220 L 122.578125 200 L 142.578125 200 L 142.578125 220 Z M 122.578125 220 "/>
<path style=" stroke:none;fill-rule:nonzero;fill:rgb(0%,0%,0%);fill-opacity:1;" d="M 122.578125 180 L 122.578125 160 L 142.578125 160 L 142.578125 180 Z M 122.578125 180 "/>
<path style=" stroke:none;fill-rule:nonzero;fill:rgb(0%,0%,0%);fill-opacity:1;" d="M 122.578125 140 L 122.578125 120 L 142.578125 120 L 142.578125 140 Z M 122.578125 140 "/>
<path style=" stroke:none;fill-rule:nonzero;fill:rgb(0%,0%,0%);fill-opacity:1;" d="M 122.578125 100 L 122.578125 80 L 142.578125 80 L 142.578125 100 Z M 122.578125 100 "/>
<path style=" stroke:none;fill-rule:nonzero;fill:rgb(0%,0%,0%);fill-opacity:1;" d="M 122.578125 60 L 122.578125 40 L 142.578125 40 L 142.578125 60 Z M 122.578125 60 "/>
<path style=" stroke:none;fill-rule:nonzero;fill:rgb(0%,0%,0%);fill-opacity:1;" d="M 122.578125 20 L 122.578125 0 L 142.578125 0 L 142.578125 20 Z M 122.578125 20 "/>
<path style=" stroke:none;fill-rule:nonzero;fill:rgb(0%,0%,0%);fill-opacity:1;" d="M 158.578125 220 L 158.578125 200 L 178.578125 200 L 178.578125 220 Z M 158.578125 220 "/>
<path style=" stroke:none;fill-rule:nonzero;fill:rgb(0%,0%,0%);fill-opacity:1;" d="M 158.578125 180 L 158.578125 160 L 178.578125 160 L 178.578125 180 Z M 158.578125 180 "/>
<path style=" stroke:none;fill-rule:nonzero;fill:rgb(0%,0%,0%);fill-opacity:1;" d="M 158.578125 140 L 158.578125 120 L 178.578125 120 L 178.578125 140 Z M 158.578125 140 "/>
<path style=" stroke:none;fill-rule:nonzero;fill:rgb(0%,0%,0%);fill-opacity:1;" d="M 158.578125 100 L 158.578125 80 L 178.578125 80 L 178.578125 100 Z M 158.578125 100 "/>
<path style=" stroke:none;fill-rule:nonzero;fill:rgb(0%,0%,0%);fill-opacity:1;" d="M 158.578125 60 L 158.578125 40 L 178.578125 40 L 178.578125 60 Z M 158.578125 60 "/>
<path style=" stroke:none;fill-rule:nonzero;fill:rgb(0%,0%,0%);fill-opacity:1;" d="M 158.578125 20 L 158.578125 0 L 178.578125 0 L 178.578125 20 Z M 158.578125 20 "/>
<path style=" stroke:none;fill-rule:nonzero;fill:rgb(0%,0%,0%);fill-opacity:1;" d="M 194.578125 220 L 194.578125 200 L 214.578125 200 L 214.578125 220 Z M 194.578125 220 "/>
<path style=" stroke:none;fill-rule:nonzero;fill:rgb(0%,0%,0%);fill-opacity:1;" d="M 194.578125 180 L 194.578125 160 L 214.578125 160 L 214.578125 180 Z M 194.578125 180 "/>
<path style=" stroke:none;fill-rule:nonzero;fill:rgb(0%,0%,0%);fill-opacity:1;" d="M 194.578125 140 L 194.578125 120 L 214.578125 120 L 214.578125 140 Z M 194.578125 140 "/>
<path style=" stroke:none;fill-rule:nonzero;fill:rgb(0%,0%,0%);fill-opacity:1;" d="M 194.578125 100 L 194.578125 80 L 214.578125 80 L 214.578125 100 Z M 194.578125 100 "/>
<path style=" stroke:none;fill-rule:nonzero;fill:rgb(0%,0%,0%);fill-opacity:1;" d="M 194.578125 60 L 194.578125 40 L 214.578125 40 L 214.578125 60 Z M 194.578125 60 "/>
<path style=" stroke:none;fill-rule:nonzero;fill:rgb(0%,0%,0%);fill-opacity:1;" d="M 194.578125 20 L 194.578125 0 L 214.578125 0 L 214.578125 20 Z M 194.578125 20 "/>
<path style=" stroke:none;fill-rule:nonzero;fill:rgb(0%,0%,0%);fill-opacity:1;" d="M 230.578125 220 L 230.578125 200 L 250.578125 200 L 250.578125 220 Z M 230.578125 220 "/>
<path style=" stroke:none;fill-rule:nonzero;fill:rgb(0%,0%,0%);fill-opacity:1;" d="M 230.578125 180 L 230.578125 160 L 250.578125 160 L 250.578125 180 Z M 230.578125 180 "/>
<path style=" stroke:none;fill-rule:nonzero;fill:rgb(0%,0%,0%);fill-opacity:1;" d="M 230.578125 140 L 230.578125 120 L 250.578125 120 L 250.578125 140 Z M 230.578125 140 "/>
<path style=" stroke:none;fill-rule:nonzero;fill:rgb(0%,0%,0%);fill-opacity:1;" d="M 230.578125 100 L 230.578125 80 L 250.578125 80 L 250.578125 100 Z M 230.578125 100 "/>
<path style=" stroke:none;fill-rule:nonzero;fill:rgb(0%,0%,0%);fill-opacity:1;" d="M 230.578125 60 L 230.578125 40 L 250.578125 40 L 250.578125 60 Z M 230.578125 60 "/>
<path style=" stroke:none;fill-rule:nonzero;fill:rgb(0%,0%,0%);fill-opacity:1;" d="M 230.578125 20 L 230.578125 0 L 250.578125 0 L 250.578125 20 Z M 230.578125 20 "/>
<path style=" stroke:none;fill-rule:nonzero;fill:rgb(0%,0%,0%);fill-opacity:1;" d="M 266.578125 220 L 266.578125 200 L 286.578125 200 L 286.578125 220 Z M 266.578125 220 "/>
<path style=" stroke:none;fill-rule:nonzero;fill:rgb(0%,0%,0%);fill-opacity:1;" d="M 266.578125 180 L 266.578125 160 L 286.578125 160 L 286.578125 180 Z M 266.578125 180 "/>
<path style=" stroke:none;fill-rule:nonzero;fill:rgb(0%,0%,0%);fill-opacity:1;" d="M 266.578125 140 L 266.578125 120 L 286.578125 120 L 286.578125 140 Z M 266.578125 140 "/>
<path style=" stroke:none;fill-rule:nonzero;fill:rgb(0%,0%,0%);fill-opacity:1;" d="M 266.578125 100 L 266.578125 80 L 286.578125 80 L 286.578125 100 Z M 266.578125 100 "/>
<path style=" stroke:none;fill-rule:nonzero;fill:rgb(0%,0%,0%);fill-opacity:1;" d="M 266.578125 60 L 266.578125 40 L 286.578125 40 L 286.578125 60 Z M 266.578125 60 "/>
<path style=" stroke:none;fill-rule:nonzero;fill:rgb(0%,0%,0%);fill-opacity:1;" d="M 266.578125 20 L 266.578125 0 L 286.578125 0 L 286.578125 20 Z M 266.578125 20 "/>
<path style=" stroke:none;fill-rule:nonzero;fill:rgb(0%,0%,0%);fill-opacity:1;" d="M 302.578125 220 L 302.578125 200 L 322.578125 200 L 322.578125 220 Z M 302.578125 220 "/>
<path style=" stroke:none;fill-rule:nonzero;fill:rgb(0%,0%,0%);fill-opacity:1;" d="M 302.578125 180 L 302.578125 160 L 322.578125 160 L 322.578125 180 Z M 302.578125 180 "/>
<path style=" stroke:none;fill-rule:nonzero;fill:rgb(0%,0%,0%);fill-opacity:1;" d="M 302.578125 140 L 302.578125 120 L 322.578125 120 L 322.578125 140 Z M 302.578125 140 "/>
<path style=" stroke:none;fill-rule:nonzero;fill:rgb(0%,0%,0%);fill-opacity:1;" d="M 302.578125 100 L 302.578125 80 L 322.578125 80 L 322.578125 100 Z M 302.578125 100 "/>
<path style=" stroke:none;fill-rule:nonzero;fill:rgb(0%,0%,0%);fill-opacity:1;" d="M 302.578125 60 L 302.578125 40 L 322.578125 40 L 322.578125 60 Z M 302.578125 60 "/>
<path style=" stroke:none;fill-rule:nonzero;fill:rgb(0%,0%,0%);fill-opacity:1;" d="M 302.578125 20 L 302.578125 0 L 322.578125 0 L 322.578125 20 Z M 302.578125 20 "/>
<path style=" stroke:none;fill-rule:nonzero;fill:rgb(0%,0%,0%);fill-opacity:1;" d="M 338.578125 220 L 338.578125 200 L 358.578125 200 L 358.578125 220 Z M 338.578125 220 "/>
<path style=" stroke:none;fill-rule:nonzero;fill:rgb(0%,0%,0%);fill-opacity:1;" d="M 338.578125 180 L 338.578125 160 L 358.578125 160 L 358.578125 180 Z M 338.578125 180 "/>
<path style=" stroke:none;fill-rule:nonzero;fill:rgb(0%,0%,0%);fill-opacity:1;" d="M 338.578125 140 L 338.578125 120 L 358.578125 120 L 358.578125 140 Z M 338.578125 140 "/>
<path style=" stroke:none;fill-rule:nonzero;fill:rgb(0%,0%,0%);fill-opacity:1;" d="M 338.578125 100 L 338.578125 80 L 358.578125 80 L 358.578125 100 Z M 338.578125 100 "/>
<path style=" stroke:none;fill-rule:nonzero;fill:rgb(0%,0%,0%);fill-opacity:1;" d="M 338.578125 60 L 338.578125 40 L 358.578125 40 L 358.578125 60 Z M 338.578125 60 "/>
<path style=" stroke:none;fill-rule:nonzero;fill:rgb(0%,0%,0%);fill-opacity:1;" d="M 338.578125 20 L 338.578125 0 L 358.578125 0 L 358.578125 20 Z M 338.578125 20 "/>
<path style=" stroke:none;fill-rule:nonzero;fill:rgb(0%,0%,0%);fill-opacity:1;" d="M 374.578125 220 L 374.578125 200 L 394.578125 200 L 394.578125 220 Z M 374.578125 220 "/>
<path style=" stroke:none;fill-rule:nonzero;fill:rgb(0%,0%,0%);fill-opacity:1;" d="M 374.578125 180 L 374.578125 160 L 394.578125 160 L 394.578125 180 Z M 374.578125 180 "/>
<path style=" stroke:none;fill-rule:nonzero;fill:rgb(0%,0%,0%);fill-opacity:1;" d="M 374.578125 140 L 374.578125 120 L 394.578125 120 L 394.578125 140 Z M 374.578125 140 "/>
<path style=" stroke:none;fill-rule:nonzero;fill:rgb(0%,0%,0%);fill-opacity:1;" d="M 374.578125 100 L 374.578125 80 L 394.578125 80 L 394.578125 100 Z M 374.578125 100 "/>
<path style=" stroke:none;fill-rule:nonzero;fill:rgb(0%,0%,0%);fill-opacity:1;" d="M 374.578125 60 L 374.578125 40 L 394.578125 40 L 394.578125 60 Z M 374.578125 60 "/>
<path style=" stroke:none;fill-rule:nonzero;fill:rgb(0%,0%,0%);fill-opacity:1;" d="M 374.578125 20 L 374.578125 0 L 394.578125 0 L 394.578125 20 Z M 374.578125 20 "/>
<path style=" stroke:none;fill-rule:nonzero;fill:rgb(0%,0%,0%);fill-opacity:1;" d="M 2.308594 200 L 2.308594 180 L 22.308594 180 L 22.308594 200 Z M 2.308594 200 "/>
<path style=" stroke:none;fill-rule:nonzero;fill:rgb(0%,0%,0%);fill-opacity:1;" d="M 2.308594 160 L 2.308594 140 L 22.308594 140 L 22.308594 160 Z M 2.308594 160 "/>
<path style=" stroke:none;fill-rule:nonzero;fill:rgb(0%,0%,0%);fill-opacity:1;" d="M 2.308594 120 L 2.308594 100 L 22.308594 100 L 22.308594 120 Z M 2.308594 120 "/>
<path style=" stroke:none;fill-rule:nonzero;fill:rgb(0%,0%,0%);fill-opacity:1;" d="M 2.308594 80 L 2.308594 60 L 22.308594 60 L 22.308594 80 Z M 2.308594 80 "/>
<path style=" stroke:none;fill-rule:nonzero;fill:rgb(0%,0%,0%);fill-opacity:1;" d="M 2.308594 40 L 2.308594 20 L 22.308594 20 L 22.308594 40 Z M 2.308594 40 "/>
<path style=" stroke:none;fill-rule:nonzero;fill:rgb(0%,0%,0%);fill-opacity:1;" d="M 38.308594 200 L 38.308594 180 L 58.308594 180 L 58.308594 200 Z M 38.308594 200 "/>
<path style=" stroke:none;fill-rule:nonzero;fill:rgb(0%,0%,0%);fill-opacity:1;" d="M 38.308594 160 L 38.308594 140 L 58.308594 140 L 58.308594 160 Z M 38.308594 160 "/>
<path style=" stroke:none;fill-rule:nonzero;fill:rgb(0%,0%,0%);fill-opacity:1;" d="M 38.308594 120 L 38.308594 100 L 58.308594 100 L 58.308594 120 Z M 38.308594 120 "/>
<path style=" stroke:none;fill-rule:nonzero;fill:rgb(0%,0%,0%);fill-opacity:1;" d="M 38.308594 80 L 38.308594 60 L 58.308594 60 L 58.308594 80 Z M 38.308594 80 "/>
<path style=" stroke:none;fill-rule:nonzero;fill:rgb(0%,0%,0%);fill-opacity:1;" d="M 38.308594 40 L 38.308594 20 L 58.308594 20 L 58.308594 40 Z M 38.308594 40 "/>
<path style=" stroke:none;fill-rule:nonzero;fill:rgb(0%,0%,0%);fill-opacity:1;" d="M 74.308594 200 L 74.308594 180 L 94.308594 180 L 94.308594 200 Z M 74.308594 200 "/>
<path style=" stroke:none;fill-rule:nonzero;fill:rgb(0%,0%,0%);fill-opacity:1;" d="M 74.308594 160 L 74.308594 140 L 94.308594 140 L 94.308594 160 Z M 74.308594 160 "/>
<path style=" stroke:none;fill-rule:nonzero;fill:rgb(0%,0%,0%);fill-opacity:1;" d="M 74.308594 120 L 74.308594 100 L 94.308594 100 L 94.308594 120 Z M 74.308594 120 "/>
<path style=" stroke:none;fill-rule:nonzero;fill:rgb(0%,0%,0%);fill-opacity:1;" d="M 74.308594 80 L 74.308594 60 L 94.308594 60 L 94.308594 80 Z M 74.308594 80 "/>
<path style=" stroke:none;fill-rule:nonzero;fill:rgb(0%,0%,0%);fill-opacity:1;" d="M 74.308594 40 L 74.308594 20 L 94.308594 20 L 94.308594 40 Z M 74.308594 40 "/>
<path style=" stroke:none;fill-rule:nonzero;fill:rgb(0%,0%,0%);fill-opacity:1;" d="M 110.308594 200 L 110.308594 180 L 130.308594 180 L 130.308594 200 Z M 110.308594 200 "/>
<path style=" stroke:none;fill-rule:nonzero;fill:rgb(0%,0%,0%);fill-opacity:1;" d="M 110.308594 160 L 110.308594 140 L 130.308594 140 L 130.308594 160 Z M 110.308594 160 "/>
<path style=" stroke:none;fill-rule:nonzero;fill:rgb(0%,0%,0%);fill-opacity:1;" d="M 110.308594 120 L 110.308594 100 L 130.308594 100 L 130.308594 120 Z M 110.308594 120 "/>
<path style=" stroke:none;fill-rule:nonzero;fill:rgb(0%,0%,0%);fill-opacity:1;" d="M 110.308594 80 L 110.308594 60 L 130.308594 60 L 130.308594 80 Z M 110.308594 80 "/>
<path style=" stroke:none;fill-rule:nonzero;fill:rgb(0%,0%,0%);fill-opacity:1;" d="M 110.308594 40 L 110.308594 20 L 130.308594 20 L 130.308594 40 Z M 110.308594 40 "/>
<path style=" stroke:none;fill-rule:nonzero;fill:rgb(0%,0%,0%);fill-opacity:1;" d="M 146.308594 200 L 146.308594 180 L 166.308594 180 L 166.308594 200 Z M 146.308594 200 "/>
<path style=" stroke:none;fill-rule:nonzero;fill:rgb(0%,0%,0%);fill-opacity:1;" d="M 146.308594 160 L 146.308594 140 L 166.308594 140 L 166.308594 160 Z M 146.308594 160 "/>
<path style=" stroke:none;fill-rule:nonzero;fill:rgb(0%,0%,0%);fill-opacity:1;" d="M 146.308594 120 L 146.308594 100 L 166.308594 100 L 166.308594 120 Z M 146.308594 120 "/>
<path style=" stroke:none;fill-rule:nonzero;fill:rgb(0%,0%,0%);fill-opacity:1;" d="M 146.308594 80 L 146.308594 60 L 166.308594 60 L 166.308594 80 Z M 146.308594 80 "/>
<path style=" stroke:none;fill-rule:nonzero;fill:rgb(0%,0%,0%);fill-opacity:1;" d="M 146.308594 40 L 146.308594 20 L 166.308594 20 L 166.308594 40 Z M 146.308594 40 "/>
<path style=" stroke:none;fill-rule:nonzero;fill:rgb(0%,0%,0%);fill-opacity:1;" d="M 182.308594 200 L 182.308594 180 L 202.308594 180 L 202.308594 200 Z M 182.308594 200 "/>
<path style=" stroke:none;fill-rule:nonzero;fill:rgb(0%,0%,0%);fill-opacity:1;" d="M 182.308594 160 L 182.308594 140 L 202.308594 140 L 202.308594 160 Z M 182.308594 160 "/>
<path style=" stroke:none;fill-rule:nonzero;fill:rgb(0%,0%,0%);fill-opacity:1;" d="M 182.308594 120 L 182.308594 100 L 202.308594 100 L 202.308594 120 Z M 182.308594 120 "/>
<path style=" stroke:none;fill-rule:nonzero;fill:rgb(0%,0%,0%);fill-opacity:1;" d="M 182.308594 80 L 182.308594 60 L 202.308594 60 L 202.308594 80 Z M 182.308594 80 "/>
<path style=" stroke:none;fill-rule:nonzero;fill:rgb(0%,0%,0%);fill-opacity:1;" d="M 182.308594 40 L 182.308594 20 L 202.308594 20 L 202.308594 40 Z M 182.308594 40 "/>
<path style=" stroke:none;fill-rule:nonzero;fill:rgb(0%,0%,0%);fill-opacity:1;" d="M 218.308594 200 L 218.308594 180 L 238.308594 180 L 238.308594 200 Z M 218.308594 200 "/>
<path style=" stroke:none;fill-rule:nonzero;fill:rgb(0%,0%,0%);fill-opacity:1;" d="M 218.308594 160 L 218.308594 140 L 238.308594 140 L 238.308594 160 Z M 218.308594 160 "/>
<path style=" stroke:none;fill-rule:nonzero;fill:rgb(0%,0%,0%);fill-opacity:1;" d="M 218.308594 120 L 218.308594 100 L 238.308594 100 L 238.308594 120 Z M 218.308594 120 "/>
<path style=" stroke:none;fill-rule:nonzero;fill:rgb(0%,0%,0%);fill-opacity:1;" d="M 218.308594 80 L 218.308594 60 L 238.308594 60 L 238.308594 80 Z M 218.308594 80 "/>
<path style=" stroke:none;fill-rule:nonzero;fill:rgb(0%,0%,0%);fill-opacity:1;" d="M 218.308594 40 L 218.308594 20 L 238.308594 20 L 238.308594 40 Z M 218.308594 40 "/>
<path style=" stroke:none;fill-rule:nonzero;fill:rgb(0%,0%,0%);fill-opacity:1;" d="M 254.308594 200 L 254.308594 180 L 274.308594 180 L 274.308594 200 Z M 254.308594 200 "/>
<path style=" stroke:none;fill-rule:nonzero;fill:rgb(0%,0%,0%);fill-opacity:1;" d="M 254.308594 160 L 254.308594 140 L 274.308594 140 L 274.308594 160 Z M 254.308594 160 "/>
<path style=" stroke:none;fill-rule:nonzero;fill:rgb(0%,0%,0%);fill-opacity:1;" d="M 254.308594 120 L 254.308594 100 L 274.308594 100 L 274.308594 120 Z M 254.308594 120 "/>
<path style=" stroke:none;fill-rule:nonzero;fill:rgb(0%,0%,0%);fill-opacity:1;" d="M 254.308594 80 L 254.308594 60 L 274.308594 60 L 274.308594 80 Z M 254.308594 80 "/>
<path style=" stroke:none;fill-rule:nonzero;fill:rgb(0%,0%,0%);fill-opacity:1;" d="M 254.308594 40 L 254.308594 20 L 274.308594 20 L 274.308594 40 Z M 254.308594 40 "/>
<path style=" stroke:none;fill-rule:nonzero;fill:rgb(0%,0%,0%);fill-opacity:1;" d="M 290.308594 200 L 290.308594 180 L 310.308594 180 L 310.308594 200 Z M 290.308594 200 "/>
<path style=" stroke:none;fill-rule:nonzero;fill:rgb(0%,0%,0%);fill-opacity:1;" d="M 290.308594 160 L 290.308594 140 L 310.308594 140 L 310.308594 160 Z M 290.308594 160 "/>
<path style=" stroke:none;fill-rule:nonzero;fill:rgb(0%,0%,0%);fill-opacity:1;" d="M 290.308594 120 L 290.308594 100 L 310.308594 100 L 310.308594 120 Z M 290.308594 120 "/>
<path style=" stroke:none;fill-rule:nonzero;fill:rgb(0%,0%,0%);fill-opacity:1;" d="M 290.308594 80 L 290.308594 60 L 310.308594 60 L 310.308594 80 Z M 290.308594 80 "/>
<path style=" stroke:none;fill-rule:nonzero;fill:rgb(0%,0%,0%);fill-opacity:1;" d="M 290.308594 40 L 290.308594 20 L 310.308594 20 L 310.308594 40 Z M 290.308594 40 "/>
<path style=" stroke:none;fill-rule:nonzero;fill:rgb(0%,0%,0%);fill-opacity:1;" d="M 326.308594 200 L 326.308594 180 L 346.308594 180 L 346.308594 200 Z M 326.308594 200 "/>
<path style=" stroke:none;fill-rule:nonzero;fill:rgb(0%,0%,0%);fill-opacity:1;" d="M 326.308594 160 L 326.308594 140 L 346.308594 140 L 346.308594 160 Z M 326.308594 160 "/>
<path style=" stroke:none;fill-rule:nonzero;fill:rgb(0%,0%,0%);fill-opacity:1;" d="M 326.308594 120 L 326.308594 100 L 346.308594 100 L 346.308594 120 Z M 326.308594 120 "/>
<path style=" stroke:none;fill-rule:nonzero;fill:rgb(0%,0%,0%);fill-opacity:1;" d="M 326.308594 80 L 326.308594 60 L 346.308594 60 L 346.308594 80 Z M 326.308594 80 "/>
<path style=" stroke:none;fill-rule:nonzero;fill:rgb(0%,0%,0%);fill-opacity:1;" d="M 326.308594 40 L 326.308594 20 L 346.308594 20 L 346.308594 40 Z M 326.308594 40 "/>
<path style=" stroke:none;fill-rule:nonzero;fill:rgb(0%,0%,0%);fill-opacity:1;" d="M 362.308594 200 L 362.308594 180 L 382.308594 180 L 382.308594 200 Z M 362.308594 200 "/>
<path style=" stroke:none;fill-rule:nonzero;fill:rgb(0%,0%,0%);fill-opacity:1;" d="M 362.308594 160 L 362.308594 140 L 382.308594 140 L 382.308594 160 Z M 362.308594 160 "/>
<path style=" stroke:none;fill-rule:nonzero;fill:rgb(0%,0%,0%);fill-opacity:1;" d="M 362.308594 120 L 362.308594 100 L 382.308594 100 L 382.308594 120 Z M 362.308594 120 "/>
<path style=" stroke:none;fill-rule:nonzero;fill:rgb(0%,0%,0%);fill-opacity:1;" d="M 362.308594 80 L 362.308594 60 L 382.308594 60 L 382.308594 80 Z M 362.308594 80 "/>
<path style=" stroke:none;fill-rule:nonzero;fill:rgb(0%,0%,0%);fill-opacity:1;" d="M 362.308594 40 L 362.308594 20 L 382.308594 20 L 382.308594 40 Z M 362.308594 40 "/>
<path style="fill:none;stroke-width:1;stroke-linecap:square;stroke-linejoin:miter;stroke:rgb(100%,0%,0%);stroke-opacity:1;stroke-miterlimit:3.25;" d="M 0 220 L 400 220 "/>
<path style="fill:none;stroke-width:1;stroke-linecap:square;stroke-linejoin:miter;stroke:rgb(100%,0%,0%);stroke-opacity:1;stroke-miterlimit:3.25;" d="M 0 200 L 400 200 "/>
<path style="fill:none;stroke-width:1;stroke-linecap:square;stroke-linejoin:miter;stroke:rgb(100%,0%,0%);stroke-opacity:1;stroke-miterlimit:3.25;" d="M 0 180 L 400 180 "/>
<path style="fill:none;stroke-width:1;stroke-linecap:square;stroke-linejoin:miter;stroke:rgb(100%,0%,0%);stroke-opacity:1;stroke-miterlimit:3.25;" d="M 0 160 L 400 160 "/>
<path style="fill:none;stroke-width:1;stroke-linecap:square;stroke-linejoin:miter;stroke:rgb(100%,0%,0%);stroke-opacity:1;stroke-miterlimit:3.25;" d="M 0 140 L 400 140 "/>
<path style="fill:none;stroke-width:1;stroke-linecap:square;stroke-linejoin:miter;stroke:rgb(100%,0%,0%);stroke-opacity:1;stroke-miterlimit:3.25;" d="M 0 120 L 400 120 "/>
<path style="fill:none;stroke-width:1;stroke-linecap:square;stroke-linejoin:miter;stroke:rgb(100%,0%,0%);stroke-opacity:1;stroke-miterlimit:3.25;" d="M 0 100 L 400 100 "/>
<path style="fill:none;stroke-width:1;stroke-linecap:square;stroke-linejoin:miter;stroke:rgb(100%,0%,0%);stroke-opacity:1;stroke-miterlimit:3.25;" d="M 0 80 L 400 80 "/>
<path style="fill:none;stroke-width:1;stroke-linecap:square;stroke-linejoin:miter;stroke:rgb(100%,0%,0%);stroke-opacity:1;stroke-miterlimit:3.25;" d="M 0 60 L 400 60 "/>
<path style="fill:none;stroke-width:1;stroke-linecap:square;stroke-linejoin:miter;stroke:rgb(100%,0%,0%);stroke-opacity:1;stroke-miterlimit:3.25;" d="M 0 40 L 400 40 "/>
<path style="fill:none;stroke-width:1;stroke-linecap:square;stroke-linejoin:miter;stroke:rgb(100%,0%,0%);stroke-opacity:1;stroke-miterlimit:3.25;" d="M 0 20 L 400 20 "/>
</g>
</svg>
