<?xml version="1.0" encoding="UTF-8"?>
<svg xmlns="http://www.w3.org/2000/svg" xmlns:xlink="http://www.w3.org/1999/xlink" width="400pt" height="220pt" viewBox="0 0 400 220" version="1.1">
<g id="surface521">
<rect x="0" y="0" width="400" height="220" style="fill:rgb(0%,40%,100%);fill-opacity:0.2;stroke:none;"/>
<path style=" stroke:none;fill-rule:nonzero;fill:rgb(0%,0%,0%);fill-opacity:1;" d="M 6.179688 220 L 6.179688 200 L 26.179688 200 L 26.179688 220 Z M 6.179688 220 "/>
<path style=" stroke:none;fill-rule:nonzero;fill:rgb(0%,0%,0%);fill-opacity:1;" d="M 6.179688 180 L 6.179688 160 L 26.179688 160 L 26.179688 180 Z M 6.179688 180 "/>
<path style=" stroke:none;fill-rule:nonzero;fill:rgb(0%,0%,0%);fill-opacity:1;" d="M 6.179688 140 L 6.179688 120 L 26.179688 120 L 26.179688 140 Z M 6.179688 140 "/>
<path style=" stroke:none;fill-rule:nonzero;fill:rgb(0%,0%,0%);fill-opacity:1;" d="M 6.179688 100 L 6.179688 80 L 26.179688 80 L 26.179688 100 Z M 6.179688 100 "/>
<path style=" stroke:none;fill-rule:nonzero;fill:rgb(0%,0%,0%);fill-opacity:1;" d="M 6.179688 60 L 6.179688 40 L 26.179688 40 L 26.179688 60 Z M 6.179688 60 "/>
<path style=" stroke:none;fill-rule:nonzero;fill:rgb(0%,0%,0%);fill-opacity:1;" d="M 6.179688 20 L 6.179688 0 L 26.179688 0 L 26.179688 20 Z M 6.179688 20 "/>
<path style=" stroke:none;fill-rule:nonzero;fill:rgb(0%,0%,0%);fill-opacity:1;" d="M 42.179688 220 L 42.179688 200 L 62.179688 200 L 62.179688 220 Z M 42.179688 220 "/>
<path style=" stroke:none;fill-rule:nonzero;fill:rgb(0%,0%,0%);fill-opacity:1;" d="M 42.179688 180 L 42.179688 160 L 62.179688 160 L 62.179688 180 Z M 42.179688 180 "/>
<path style=" stroke:none;fill-rule:nonzero;fill:rgb(0%,0%,0%);fill-opacity:1;" d="M 42.179688 140 L 42.179688 120 L 62.179688 120 L 62.179688 140 Z M 42.179688 140 "/>
<path style=" stroke:none;fill-rule:nonzero;fill:rgb(0%,0%,0%);fill-opacity:1;" d="M 42.179688 100 L 42.179688 80 L 62.179688 80 L 62.179688 100 Z M 42.179688 100 "/>
<path style=" stroke:none;fill-rule:nonzero;fill:rgb(0%,0%,0%);fill-opacity:1;" d="M 42.179688 60 L 42.179688 40 L 62.179688 40 L 62.179688 60 Z M 42.179688 60 "/>
<path style=" stroke:none;fill-rule:nonzero;fill:rgb(0%,0%,0%);fill-opacity:1;" d="M 42.179688 20 L 42.179688 0 L 62.179688 0 L 62.179688 20 Z M 42.179688 20 "/>
<path style=" stroke:none;fill-rule:nonzero;fill:rgb(0%,0%,0%);fill-opacity:1;" d="M 78.179688 220 L 78.179688 200 L 98.179688 200 L 98.179688 220 Z M 78.179688 220 "/>
<path style=" stroke:none;fill-rule:nonzero;fill:rgb(0%,0%,0%);fill-opacity:1;" d="M 78.179688 180 L 78.179688 160 L 98.179688 160 L 98.179688 180 Z M 78.179688 180 "/>
<path style=" stroke:none;fill-rule:nonzero;fill:rgb(0%,0%,0%);fill-opacity:1;" d="M 78.179688 140 L 78.179688 120 L 98.179688 120 L 98.179688 140 Z M 78.179688 140 "/>
<path style=" stroke:none;fill-rule:nonzero;fill:rgb(0%,0%,0%);fill-opacity:1;" d="M 78.179688 100 L 78.179688 80 L 98.179688 80 L 98.179688 100 Z M 78.179688 100 "/>
<path style=" stroke:none;fill-rule:nonzero;fill:rgb(0%,0%,0%);fill-opacity:1;" d="M 78.179688 60 L 78.179688 40 L 98.179688 40 L 98.179688 60 Z M 78.179688 60 "/>
<path style=" stroke:none;fill-rule:nonzero;fill:rgb(0%,0%,0%);fill-opacity:1;" d="M 78.179688 20 L 78.179688 0 L 98.179688 0 L 98.179688 20 Z M 78.179688 20 "/>
<path style=" stroke:none;fill-rule:nonzero;fill:rgb(0%,0%,0%);fill-opacity:1;" d="M 114.179688 220 L 114.179688 200 L 134.179688 200 L 134.179688 220 Z M 114.179688 220 "/>
<path style=" stroke:none;fill-rule:nonzero;fill:rgb(0%,0%,0%);fill-opacity:1;" d="M 114.179688 180 L 114.179688 160 L 134.179688 160 L 134.179688 180 Z M 114.179688 180 "/>
<path style=" stroke:none;fill-rule:nonzero;fill:rgb(0%,0%,0%);fill-opacity:1;" d="M 114.179688 140 L 114.179688 120 L 134.179688 120 L 134.179688 140 Z M 114.179688 140 "/>
<path style=" stroke:none;fill-rule:nonzero;fill:rgb(0%,0%,0%);fill-opacity:1;" d="M 114.179688 100 L 114.179688 80 L 134.179688 80 L 134.179688 100 Z M 114.179688 100 "/>
<path style=" stroke:none;fill-rule:nonzero;fill:rgb(0%,0%,0%);fill-opacity:1;" d="M 114.179688 60 L 114.179688 40 L 134.179688 40 L 134.179688 60 Z M 114.179688 60 "/>
<path style=" stroke:none;fill-rule:nonzero;fill:rgb(0%,0%,0%);fill-opacity:1;" d="M 114.179688 20 L 114.179688 0 L 134.179688 0 L 134.179688 20 Z M 114.179688 20 "/>
<path style=" stroke:none;fill-rule:nonzero;fill:rgb(0%,0%,0%);fill-opacity:1;" d="M 150.179688 220 L 150.179688 200 L 170.179688 200 L 170.179688 220 Z M 150.179688 220 "/>
<path style=" stroke:none;fill-rule:nonzero;fill:rgb(0%,0%,0%);fill-opacity:1;" d="M 150.179688 180 L 150.179688 160 L 170.179688 160 L 170.179688 180 Z M 150.179688 180 "/>
<path style=" stroke:none;fill-rule:nonzero;fill:rgb(0%,0%,0%);fill-opacity:1;" d="M 150.179688 140 L 150.179688 120 L 170.179688 120 L 170.179688 140 Z M 150.179688 140 "/>
<path style=" stroke:none;fill-rule:nonzero;fill:rgb(0%,0%,0%);fill-opacity:1;" d="M 150.179688 100 L 150.179688 80 L 170.179688 80 L 170.179688 100 Z M 150.179688 100 "/>
<path style=" stroke:none;fill-rule:nonzero;fill:rgb(0%,0%,0%);fill-opacity:1;" d="M 150.179688 60 L 150.179688 40 L 170.179688 40 L 170.179688 60 Z M 150.179688 60 "/>
<path style=" stroke:none;fill-rule:nonzero;fill:rgb(0%,0%,0%);fill-opacity:1;" d="M 150.179688 20 L 150.179688 0 L 170.179688 0 L 170.179688 20 Z M 150.179688 20 "/>
<path style=" stroke:none;fill-rule:nonzero;fill:rgb(0%,0%,0%);fill-opacity:1;" d="M 186.179688 220 L 186.179688 200 L 206.179688 200 L 206.179688 220 Z M 186.179688 220 "/>
<path style=" stroke:none;fill-rule:nonzero;fill:rgb(0%,0%,0%);fill-opacity:1;" d="M 186.179688 180 L 186.179688 160 L 206.179688 160 L 206.179688 180 Z M 186.179688 180 "/>
<path style=" stroke:none;fill-rule:nonzero;fill:rgb(0%,0%,0%);fill-opacity:1;" d="M 186.179688 140 L 186.179688 120 L 206.179688 120 L 206.179688 140 Z M 186.179688 140 "/>
<path style=" stroke:none;fill-rule:nonzero;fill:rgb(0%,0%,0%);fill-opacity:1;" d="M 186.179688 100 L 186.179688 80 L 206.179688 80 L 206.179688 100 Z M 186.179688 100 "/>
<path style=" stroke:none;fill-rule:nonzero;fill:rgb(0%,0%,0%);fill-opacity:1;" d="M 186.179688 60 L 186.179688 40 L 206.179688 40 L 206.179688 60 Z M 186.179688 60 "/>
<path style=" stroke:none;fill-rule:nonzero;fill:rgb(0%,0%,0%);fill-opacity:1;" d="M 186.179688 20 L 186.179688 0 L 206.179688 0 L 206.179688 20 Z M 186.179688 20 "/>
<path style=" stroke:none;fill-rule:nonzero;fill:rgb(0%,0%,0%);fill-opacity:1;" d="M 222.179688 220 L 222.179688 200 L 242.179688 200 L 242.179688 220 Z M 222.179688 220 "/>
<path style=" stroke:none;fill-rule:nonzero;fill:rgb(0%,0%,0%);fill-opacity:1;" d="M 222.179688 180 L 222.179688 160 L 242.179688 160 L 242.179688 180 Z M 222.179688 180 "/>
<path style=" stroke:none;fill-rule:nonzero;fill:rgb(0%,0%,0%);fill-opacity:1;" d="M 222.179688 140 L 222.179688 120 L 242.179688 120 L 242.179688 140 Z M 222.179688 140 "/>
<path style=" stroke:none;fill-rule:nonzero;fill:rgb(0%,0%,0%);fill-opacity:1;" d="M 222.179688 100 L 222.179688 80 L 242.179688 80 L 242.179688 100 Z M 222.179688 100 "/>
<path style=" stroke:none;fill-rule:nonzero;fill:rgb(0%,0%,0%);fill-opacity:1;" d="M 222.179688 60 L 222.179688 40 L 242.179688 40 L 242.179688 60 Z M 222.179688 60 "/>
<path style=" stroke:none;fill-rule:nonzero;fill:rgb(0%,0%,0%);fill-opacity:1;" d="M 222.179688 20 L 222.179688 0 L 242.179688 0 L 242.179688 20 Z M 222.179688 20 "/>
<path style=" stroke:none;fill-rule:nonzero;fill:rgb(0%,0%,0%);fill-opacity:1;" d="M 258.179688 220 L 258.179688 200 L 278.179688 200 L 278.179688 220 Z M 258.179688 220 "/>
<path style=" stroke:none;fill-rule:nonzero;fill:rgb(0%,0%,0%);fill-opacity:1;" d="M 258.179688 180 L 258.179688 160 L 278.179688 160 L 278.179688 180 Z M 258.179688 180 "/>
<path style=" stroke:none;fill-rule:nonzero;fill:rgb(0%,0%,0%);fill-opacity:1;" d="M 258.179688 140 L 258.179688 120 L 278.179688 120 L 278.179688 140 Z M 258.179688 140 "/>
<path style=" stroke:none;fill-rule:nonzero;fill:rgb(0%,0%,0%);fill-opacity:1;" d="M 258.179688 100 L 258.179688 80 L 278.179688 80 L 278.179688 100 Z M 258.179688 100 "/>
<path style=" stroke:none;fill-rule:nonzero;fill:rgb(0%,0%,0%);fill-opacity:1;" d="M 258.179688 60 L 258.179688 40 L 278.179688 40 L 278.179688 60 Z M 258.179688 60 "/>
<path style=" stroke:none;fill-rule:nonzero;fill:rgb(0%,0%,0%);fill-opacity:1;" d="M 258.179688 20 L 258.179688 0 L 278.179688 0 L 278.179688 20 Z M 258.179688 20 "/>
<path style=" stroke:none;fill-rule:nonzero;fill:rgb(0%,0%,0%);fill-opacity:1;" d="M 294.179688 220 L 294.179688 200 L 314.179688 200 L 314.179688 220 Z M 294.179688 220 "/>
<path style=" stroke:none;fill-rule:nonzero;fill:rgb(0%,0%,0%);fill-opacity:1;" d="M 294.179688 180 L 294.179688 160 L 314.179688 160 L 314.179688 180 Z M 294.179688 180 "/>
<path style=" stroke:none;fill-rule:nonzero;fill:rgb(0%,0%,0%);fill-opacity:1;" d="M 294.179688 140 L 294.179688 120 L 314.179688 120 L 314.179688 140 Z M 294.179688 140 "/>
<path style=" stroke:none;fill-rule:nonzero;fill:rgb(0%,0%,0%);fill-opacity:1;" d="M 294.179688 100 L 294.179688 80 L 314.179688 80 L 314.179688 100 Z M 294.179688 100 "/>
<path style=" stroke:none;fill-rule:nonzero;fill:rgb(0%,0%,0%);fill-opacity:1;" d="M 294.179688 60 L 294.179688 40 L 314.179688 40 L 314.179688 60 Z M 294.179688 60 "/>
<path style=" stroke:none;fill-rule:nonzero;fill:rgb(0%,0%,0%);fill-opacity:1;" d="M 294.179688 20 L 294.179688 0 L 314.179688 0 L 314.179688 20 Z M 294.179688 20 "/>
<path style=" stroke:none;fill-rule:nonzero;fill:rgb(0%,0%,0%);fill-opacity:1;" d="M 330.179688 220 L 330.179688 200 L 350.179688 200 L 350.179688 220 Z M 330.179688 220 "/>
<path style=" stroke:none;fill-rule:nonzero;fill:rgb(0%,0%,0%);fill-opacity:1;" d="M 330.179688 180 L 330.179688 160 L 350.179688 160 L 350.179688 180 Z M 330.179688 180 "/>
<path style=" stroke:none;fill-rule:nonzero;fill:rgb(0%,0%,0%);fill-opacity:1;" d="M 330.179688 140 L 330.179688 120 L 350.179688 120 L 350.179688 140 Z M 330.179688 140 "/>
<path style=" stroke:none;fill-rule:nonzero;fill:rgb(0%,0%,0%);fill-opacity:1;" d="M 330.179688 100 L 330.179688 80 L 350.179688 80 L 350.179688 100 Z M 330.179688 100 "/>
<path style=" stroke:none;fill-rule:nonzero;fill:rgb(0%,0%,0%);fill-opacity:1;" d="M 330.179688 60 L 330.179688 40 L 350.179688 40 L 350.179688 60 Z M 330.179688 60 "/>
<path style=" stroke:none;fill-rule:nonzero;fill:rgb(0%,0%,0%);fill-opacity:1;" d="M 330.179688 20 L 330.179688 0 L 350.179688 0 L 350.179688 20 Z M 330.179688 20 "/>
<path style=" stroke:none;fill-rule:nonzero;fill:rgb(0%,0%,0%);fill-opacity:1;" d="M 366.179688 220 L 366.179688 200 L 386.179688 200 L 386.179688 220 Z M 366.179688 220 "/>
<path style=" stroke:none;fill-rule:nonzero;fill:rgb(0%,0%,0%);fill-opacity:1;" d="M 366.179688 180 L 366.179688 160 L 386.179688 160 L 386.179688 180 Z M 366.179688 180 "/>
<path style=" stroke:none;fill-rule:nonzero;fill:rgb(0%,0%,0%);fill-opacity:1;" d="M 366.179688 140 L 366.179688 120 L 386.179688 120 L 386.179688 140 Z M 366.179688 140 "/>
<path style=" stroke:none;fill-rule:nonzero;fill:rgb(0%,0%,0%);fill-opacity:1;" d="M 366.179688 100 L 366.179688 80 L 386.179688 80 L 386.179688 100 Z M 366.179688 100 "/>
<path style=" stroke:none;fill-rule:nonzero;fill:rgb(0%,0%,0%);fill-opacity:1;" d="M 366.179688 60 L 366.179688 40 L 386.179688 40 L 386.179688 60 Z M 366.179688 60 "/>
<path style=" stroke:none;fill-rule:nonzero;fill:rgb(0%,0%,0%);fill-opacity:1;" d="M 366.179688 20 L 366.179688 0 L 386.179688 0 L 386.179688 20 Z M 366.179688 20 "/>
<path style=" stroke:none;fill-rule:nonzero;fill:rgb(0%,0%,0%);fill-opacity:1;" d="M -3.019531 200 L -3.019531 180 L 16.980469 180 L 16.980469 200 Z M -3.019531 200 "/>
<path style=" stroke:none;fill-rule:nonzero;fill:rgb(0%,0%,0%);fill-opacity:1;" d="M -3.019531 160 L -3.019531 140 L 16.980469 140 L 16.980469 160 Z M -3.019531 160 "/>
<path style=" stroke:none;fill-rule:nonzero;fill:rgb(0%,0%,0%);fill-opacity:1;" d="M -3.019531 120 L -3.019531 100 L 16.980469 100 L 16.980469 120 Z M -3.019531 120 "/>
<path style=" stroke:none;fill-rule:nonzero;fill:rgb(0%,0%,0%);fill-opacity:1;" d="M -3.019531 80 L -3.019531 60 L 16.980469 60 L 16.980469 80 Z M -3.019531 80 "/>
<path style=" stroke:none;fill-rule:nonzero;fill:rgb(0%,0%,0%);fill-opacity:1;" d="M -3.019531 40 L -3.019531 20 L 16.980469 20 L 16.980469 40 Z M -3.019531 40 "/>
<path style=" stroke:none;fill-rule:nonzero;fill:rgb(0%,0%,0%);fill-opacity:1;" d="M 32.980469 200 L 32.980469 180 L 52.980469 180 L 52.980469 200 Z M 32.980469 200 "/>
<path style=" stroke:none;fill-rule:nonzero;fill:rgb(0%,0%,0%);fill-opacity:1;" d="M 32.980469 160 L 32.980469 140 L 52.980469 140 L 52.980469 160 Z M 32.980469 160 "/>
<path style=" stroke:none;fill-rule:nonzero;fill:rgb(0%,0%,0%);fill-opacity:1;" d="M 32.980469 120 L 32.980469 100 L 52.980469 100 L 52.980469 120 Z M 32.980469 120 "/>
<path style=" stroke:none;fill-rule:nonzero;fill:rgb(0%,0%,0%);fill-opacity:1;" d="M 32.980469 80 L 32.980469 60 L 52.980469 60 L 52.980469 80 Z M 32.980469 80 "/>
<path style=" stroke:none;fill-rule:nonzero;fill:rgb(0%,0%,0%);fill-opacity:1;" d="M 32.980469 40 L 32.980469 20 L 52.980469 20 L 52.980469 40 Z M 32.980469 40 "/>
<path style=" stroke:none;fill-rule:nonzero;fill:rgb(0%,0%,0%);fill-opacity:1;" d="M 68.980469 200 L 68.980469 180 L 88.980469 180 L 88.980469 200 Z M 68.980469 200 "/>
<path style=" stroke:none;fill-rule:nonzero;fill:rgb(0%,0%,0%);fill-opacity:1;" d="M 68.980469 160 L 68.980469 140 L 88.980469 140 L 88.980469 160 Z M 68.980469 160 "/>
<path style=" stroke:none;fill-rule:nonzero;fill:rgb(0%,0%,0%);fill-opacity:1;" d="M 68.980469 120 L 68.980469 100 L 88.980469 100 L 88.980469 120 Z M 68.980469 120 "/>
<path style=" stroke:none;fill-rule:nonzero;fill:rgb(0%,0%,0%);fill-opacity:1;" d="M 68.980469 80 L 68.980469 60 L 88.980469 60 L 88.980469 80 Z M 68.980469 80 "/>
<path style=" stroke:none;fill-rule:nonzero;fill:rgb(0%,0%,0%);fill-opacity:1;" d="M 68.980469 40 L 68.980469 20 L 88.980469 20 L 88.980469 40 Z M 68.980469 40 "/>
<path style=" stroke:none;fill-rule:nonzero;fill:rgb(0%,0%,0%);fill-opacity:1;" d="M 104.980469 200 L 104.980469 180 L 124.980469 180 L 124.980469 200 Z M 104.980469 200 "/>
<path style=" stroke:none;fill-rule:nonzero;fill:rgb(0%,0%,0%);fill-opacity:1;" d="M 104.980469 160 L 104.980469 140 L 124.980469 140 L 124.980469 160 Z M 104.980469 160 "/>
<path style=" stroke:none;fill-rule:nonzero;fill:rgb(0%,0%,0%);fill-opacity:1;" d="M 104.980469 120 L 104.980469 100 L 124.980469 100 L 124.980469 120 Z M 104.980469 120 "/>
<path style=" stroke:none;fill-rule:nonzero;fill:rgb(0%,0%,0%);fill-opacity:1;" d="M 104.980469 80 L 104.980469 60 L 124.980469 60 L 124.980469 80 Z M 104.980469 80 "/>
<path style=" stroke:none;fill-rule:nonzero;fill:rgb(0%,0%,0%);fill-opacity:1;" d="M 104.980469 40 L 104.980469 20 L 124.980469 20 L 124.980469 40 Z M 104.980469 40 "/>
<path style=" stroke:none;fill-rule:nonzero;fill:rgb(0%,0%,0%);fill-opacity:1;" d="M 140.980469 200 L 140.980469 180 L 160.980469 180 L 160.980469 200 Z M 140.980469 200 "/>
<path style=" stroke:none;fill-rule:nonzero;fill:rgb(0%,0%,0%);fill-opacity:1;" d="M 140.980469 160 L 140.980469 140 L 160.980469 140 L 160.980469 160 Z M 140.980469 160 "/>
<path style=" stroke:none;fill-rule:nonzero;fill:rgb(0%,0%,0%);fill-opacity:1;" d="M 140.980469 120 L 140.980469 100 L 160.980469 100 L 160.980469 120 Z M 140.980469 120 "/>
<path style=" stroke:none;fill-rule:nonzero;fill:rgb(0%,0%,0%);fill-opacity:1;" d="M 140.980469 80 L 140.980469 60 L 160.980469 60 L 160.980469 80 Z M 140.980469 80 "/>
<path style=" stroke:none;fill-rule:nonzero;fill:rgb(0%,0%,0%);fill-opacity:1;" d="M 140.980469 40 L 140.980469 20 L 160.980469 20 L 160.980469 40 Z M 140.980469 40 "/>
<path style=" stroke:none;fill-rule:nonzero;fill:rgb(0%,0%,0%);fill-opacity:1;" d="M 176.980469 200 L 176.980469 180 L 196.980469 180 L 196.980469 200 Z M 176.980469 200 "/>
<path style=" stroke:none;fill-rule:nonzero;fill:rgb(0%,0%,0%);fill-opacity:1;" d="M 176.980469 160 L 176.980469 140 L 196.980469 140 L 196.980469 160 Z M 176.980469 160 "/>
<path style=" stroke:none;fill-rule:nonzero;fill:rgb(0%,0%,0%);fill-opacity:1;" d="M 176.980469 120 L 176.980469 100 L 196.980469 100 L 196.980469 120 Z M 176.980469 120 "/>
<path style=" stroke:none;fill-rule:nonzero;fill:rgb(0%,0%,0%);fill-opacity:1;" d="M 176.980469 80 L 176.980469 60 L 196.980469 60 L 196.980469 80 Z M 176.980469 80 "/>
<path style=" stroke:none;fill-rule:nonzero;fill:rgb(0%,0%,0%);fill-opacity:1;" d="M 176.980469 40 L 176.980469 20 L 196.980469 20 L 196.980469 40 Z M 176.980469 40 "/>
<path style=" stroke:none;fill-rule:nonzero;fill:rgb(0%,0%,0%);fill-opacity:1;" d="M 212.980469 200 L 212.980469 180 L 232.980469 180 L 232.980469 200 Z M 212.980469 200 "/>
<path style=" stroke:none;fill-rule:nonzero;fill:rgb(0%,0%,0%);fill-opacity:1;" d="M 212.980469 160 L 212.980469 140 L 232.980469 140 L 232.980469 160 Z M 212.980469 160 "/>
<path style=" stroke:none;fill-rule:nonzero;fill:rgb(0%,0%,0%);fill-opacity:1;" d="M 212.980469 120 L 212.980469 100 L 232.980469 100 L 232.980469 120 Z M 212.980469 120 "/>
<path style=" stroke:none;fill-rule:nonzero;fill:rgb(0%,0%,0%);fill-opacity:1;" d="M 212.980469 80 L 212.980469 60 L 232.980469 60 L 232.980469 80 Z M 212.980469 80 "/>
<path style=" stroke:none;fill-rule:nonzero;fill:rgb(0%,0%,0%);fill-opacity:1;" d="M 212.980469 40 L 212.980469 20 L 232.980469 20 L 232.980469 40 Z M 212.980469 40 "/>
<path style=" stroke:none;fill-rule:nonzero;fill:rgb(0%,0%,0%);fill-opacity:1;" d="M 248.980469 200 L 248.980469 180 L 268.980469 180 L 268.980469 200 Z M 248.980469 200 "/>
<path style=" stroke:none;fill-rule:nonzero;fill:rgb(0%,0%,0%);fill-opacity:1;" d="M 248.980469 160 L 248.980469 140 L 268.980469 140 L 268.980469 160 Z M 248.980469 160 "/>
<path style=" stroke:none;fill-rule:nonzero;fill:rgb(0%,0%,0%);fill-opacity:1;" d="M 248.980469 120 L 248.980469 100 L 268.980469 100 L 268.980469 120 Z M 248.980469 120 "/>
<path style=" stroke:none;fill-rule:nonzero;fill:rgb(0%,0%,0%);fill-opacity:1;" d="M 248.980469 80 L 248.980469 60 L 268.980469 60 L 268.980469 80 Z M 248.980469 80 "/>
<path style=" stroke:none;fill-rule:nonzero;fill:rgb(0%,0%,0%);fill-opacity:1;" d="M 248.980469 40 L 248.980469 20 L 268.980469 20 L 268.980469 40 Z M 248.980469 40 "/>
<path style=" stroke:none;fill-rule:nonzero;fill:rgb(0%,0%,0%);fill-opacity:1;" d="M 284.980469 200 L 284.980469 180 L 304.980469 180 L 304.980469 200 Z M 284.980469 200 "/>
<path style=" stroke:none;fill-rule:nonzero;fill:rgb(0%,0%,0%);fill-opacity:1;" d="M 284.980469 160 L 284.980469 140 L 304.980469 140 L 304.980469 160 Z M 284.980469 160 "/>
<path style=" stroke:none;fill-rule:nonzero;fill:rgb(0%,0%,0%);fill-opacity:1;" d="M 284.980469 120 L 284.980469 100 L 304.980469 100 L 304.980469 120 Z M 284.980469 120 "/>
<path style=" stroke:none;fill-rule:nonzero;fill:rgb(0%,0%,0%);fill-opacity:1;" d="M 284.980469 80 L 284.980469 60 L 304.980469 60 L 304.980469 80 Z M 284.980469 80 "/>
<path style=" stroke:none;fill-rule:nonzero;fill:rgb(0%,0%,0%);fill-opacity:1;" d="M 284.980469 40 L 284.980469 20 L 304.980469 20 L 304.980469 40 Z M 284.980469 40 "/>
<path style=" stroke:none;fill-rule:nonzero;fill:rgb(0%,0%,0%);fill-opacity:1;" d="M 320.980469 200 L 320.980469 180 L 340.980469 180 L 340.980469 200 Z M 320.980469 200 "/>
<path style=" stroke:none;fill-rule:nonzero;fill:rgb(0%,0%,0%);fill-opacity:1;" d="M 320.980469 160 L 320.980469 140 L 340.980469 140 L 340.980469 160 Z M 320.980469 160 "/>
<path style=" stroke:none;fill-rule:nonzero;fill:rgb(0%,0%,0%);fill-opacity:1;" d="M 320.980469 120 L 320.980469 100 L 340.980469 100 L 340.980469 120 Z M 320.980469 120 "/>
<path style=" stroke:none;fill-rule:nonzero;fill:rgb(0%,0%,0%);fill-opacity:1;" d="M 320.980469 80 L 320.980469 60 L 340.980469 60 L 340.980469 80 Z M 320.980469 80 "/>
<path style=" stroke:none;fill-rule:nonzero;fill:rgb(0%,0%,0%);fill-opacity:1;" d="M 320.980469 40 L 320.980469 20 L 340.980469 20 L 340.980469 40 Z M 320.980469 40 "/>
<path style=" stroke:none;fill-rule:nonzero;fill:rgb(0%,0%,0%);fill-opacity:1;" d="M 356.980469 200 L 356.980469 180 L 376.980469 180 L 376.980469 200 Z M 356.980469 200 "/>
<path style=" stroke:none;fill-rule:nonzero;fill:rgb(0%,0%,0%);fill-opacity:1;" d="M 356.980469 160 L 356.980469 140 L 376.980469 140 L 376.980469 160 Z M 356.980469 160 "/>
<path style=" stroke:none;fill-rule:nonzero;fill:rgb(0%,0%,0%);fill-opacity:1;" d="M 356.980469 120 L 356.980469 100 L 376.980469 100 L 376.980469 120 Z M 356.980469 120 "/>
<path style=" stroke:none;fill-rule:nonzero;fill:rgb(0%,0%,0%);fill-opacity:1;" d="M 356.980469 80 L 356.980469 60 L 376.980469 60 L 376.980469 80 Z M 356.980469 80 "/>
<path style=" stroke:none;fill-rule:nonzero;fill:rgb(0%,0%,0%);fill-opacity:1;" d="M 356.980469 40 L 356.980469 20 L 376.980469 20 L 376.980469 40 Z M 356.980469 40 "/>
<path style="fill:none;stroke-width:1;stroke-linecap:square;stroke-linejoin:miter;stroke:rgb(100%,0%,0%);stroke-opacity:1;stroke-miterlimit:3.25;" d="M 0 220 L 400 220 "/>
<path style="fill:none;stroke-width:1;stroke-linecap:square;stroke-linejoin:miter;stroke:rgb(100%,0%,0%);stroke-opacity:1;stroke-miterlimit:3.25;" d="M 0 200 L 400 200 "/>
<path style="fill:none;stroke-width:1;stroke-linecap:square;stroke-linejoin:miter;stroke:rgb(100%,0%,0%);stroke-opacity:1;stroke-miterlimit:3.25;" d="M 0 180 L 400 180 "/>
<path style="fill:none;stroke-width:1;stroke-linecap:square;stroke-linejoin:miter;stroke:rgb(100%,0%,0%);stroke-opacity:1;stroke-miterlimit:3.25;" d="M 0 160 L 400 160 "/>
<path style="fill:none;stroke-width:1;stroke-linecap:square;stroke-linejoin:miter;stroke:rgb(100%,0%,0%);stroke-opacity:1;stroke-miterlimit:3.25;" d="M 0 140 L 400 140 "/>
<path style="fill:none;stroke-width:1;stroke-linecap:square;stroke-linejoin:miter;stroke:rgb(100%,0%,0%);stroke-opacity:1;stroke-miterlimit:3.25;" d="M 0 120 L 400 120 "/>
<path style="fill:none;stroke-width:1;stroke-linecap:square;stroke-linejoin:miter;stroke:rgb(100%,0%,0%);stroke-opacity:1;stroke-miterlimit:3.25;" d="M 0 100 L 400 100 "/>
<path style="fill:none;stroke-width:1;stroke-linecap:square;stroke-linejoin:miter;stroke:rgb(100%,0%,0%);stroke-opacity:1;stroke-miterlimit:3.25;" d="M 0 80 L 400 80 "/>
<path style="fill:none;stroke-width:1;stroke-linecap:square;stroke-linejoin:miter;stroke:rgb(100%,0%,0%);stroke-opacity:1;stroke-miterlimit:3.25;" d="M 0 60 L 400 60 "/>
<path style="fill:none;stroke-width:1;stroke-linecap:square;stroke-linejoin:miter;stroke:rgb(100%,0%,0%);stroke-opacity:1;stroke-miterlimit:3.25;" d="M 0 40 L 400 40 "/>
<path style="fill:none;stroke-width:1;stroke-linecap:square;stroke-linejoin:miter;stroke:rgb(100%,0%,0%);stroke-opacity:1;stroke-miterlimit:3.25;" d="M 0 20 L 400 20 "/>
</g>
</svg>
