<?xml version="1.0" encoding="UTF-8"?>
<svg xmlns="http://www.w3.org/2000/svg" xmlns:xlink="http://www.w3.org/1999/xlink" width="400pt" height="220pt" viewBox="0 0 400 220" version="1.1">
<g id="surface916">
<rect x="0" y="0" width="400" height="220" style="fill:rgb(0%,40%,100%);fill-opacity:0.2;stroke:none;"/>
<path style=" stroke:none;fill-rule:nonzero;fill:rgb(0%,0%,0%);fill-opacity:1;" d="M -16.886719 220 L -16.886719 200 L 3.113281 200 L 3.113281 220 Z M -16.886719 220 "/>
<path style=" stroke:none;fill-rule:nonzero;fill:rgb(0%,0%,0%);fill-opacity:1;" d="M -16.886719 180 L -16.886719 160 L 3.113281 160 L 3.113281 180 Z M -16.886719 180 "/>
<path style=" stroke:none;fill-rule:nonzero;fill:rgb(0%,0%,0%);fill-opacity:1;" d="M -16.886719 140 L -16.886719 120 L 3.113281 120 L 3.113281 140 Z M -16.886719 140 "/>
<path style=" stroke:none;fill-rule:nonzero;fill:rgb(0%,0%,0%);fill-opacity:1;" d="M -16.886719 100 L -16.886719 80 L 3.113281 80 L 3.113281 100 Z M -16.886719 100 "/>
<path style=" stroke:none;fill-rule:nonzero;fill:rgb(0%,0%,0%);fill-opacity:1;" d="M -16.886719 60 L -16.886719 40 L 3.113281 40 L 3.113281 60 Z M -16.886719 60 "/>
<path style=" stroke:none;fill-rule:nonzero;fill:rgb(0%,0%,0%);fill-opacity:1;" d="M -16.886719 20 L -16.886719 0 L 3.113281 0 L 3.113281 20 Z M -16.886719 20 "/>
<path style=" stroke:none;fill-rule:nonzero;fill:rgb(0%,0%,0%);fill-opacity:1;" d="M 19.113281 220 L 19.113281 200 L 39.113281 200 L 39.113281 220 Z M 19.113281 220 "/>
<path style=" stroke:none;fill-rule:nonzero;fill:rgb(0%,0%,0%);fill-opacity:1;" d="M 19.113281 180 L 19.113281 160 L 39.113281 160 L 39.113281 180 Z M 19.113281 180 "/>
<path style=" stroke:none;fill-rule:nonzero;fill:rgb(0%,0%,0%);fill-opacity:1;" d="M 19.113281 140 L 19.113281 120 L 39.113281 120 L 39.113281 140 Z M 19.113281 140 "/>
<path style=" stroke:none;fill-rule:nonzero;fill:rgb(0%,0%,0%);fill-opacity:1;" d="M 19.113281 100 L 19.113281 80 L 39.113281 80 L 39.113281 100 Z M 19.113281 100 "/>
<path style=" stroke:none;fill-rule:nonzero;fill:rgb(0%,0%,0%);fill-opacity:1;" d="M 19.113281 60 L 19.113281 40 L 39.113281 40 L 39.113281 60 Z M 19.113281 60 "/>
<path style=" stroke:none;fill-rule:nonzero;fill:rgb(0%,0%,0%);fill-opacity:1;" d="M 19.113281 20 L 19.113281 0 L 39.113281 0 L 39.113281 20 Z M 19.113281 20 "/>
<path style=" stroke:none;fill-rule:nonzero;fill:rgb(0%,0%,0%);fill-opacity:1;" d="M 55.113281 220 L 55.113281 200 L 75.113281 200 L 75.113281 220 Z M 55.113281 220 "/>
<path style=" stroke:none;fill-rule:nonzero;fill:rgb(0%,0%,0%);fill-opacity:1;" d="M 55.113281 180 L 55.113281 160 L 75.113281 160 L 75.113281 180 Z M 55.113281 180 "/>
<path style=" stroke:none;fill-rule:nonzero;fill:rgb(0%,0%,0%);fill-opacity:1;" d="M 55.113281 140 L 55.113281 120 L 75.113281 120 L 75.113281 140 Z M 55.113281 140 "/>
<path style=" stroke:none;fill-rule:nonzero;fill:rgb(0%,0%,0%);fill-opacity:1;" d="M 55.113281 100 L 55.113281 80 L 75.113281 80 L 75.113281 100 Z M 55.113281 100 "/>
<path style=" stroke:none;fill-rule:nonzero;fill:rgb(0%,0%,0%);fill-opacity:1;" d="M 55.113281 60 L 55.113281 40 L 75.113281 40 L 75.113281 60 Z M 55.113281 60 "/>
<path style=" stroke:none;fill-rule:nonzero;fill:rgb(0%,0%,0%);fill-opacity:1;" d="M 55.113281 20 L 55.113281 0 L 75.113281 0 L 75.113281 20 Z M 55.113281 20 "/>
<path style=" stroke:none;fill-rule:nonzero;fill:rgb(0%,0%,0%);fill-opacity:1;" d="M 91.113281 220 L 91.113281 200 L 111.113281 200 L 111.113281 220 Z M 91.113281 220 "/>
<path style=" stroke:none;fill-rule:nonzero;fill:rgb(0%,0%,0%);fill-opacity:1;" d="M 91.113281 180 L 91.113281 160 L 111.113281 160 L 111.113281 180 Z M 91.113281 180 "/>
<path style=" stroke:none;fill-rule:nonzero;fill:rgb(0%,0%,0%);fill-opacity:1;" d="M 91.113281 140 L 91.113281 120 L 111.113281 120 L 111.113281 140 Z M 91.113281 140 "/>
<path style=" stroke:none;fill-rule:nonzero;fill:rgb(0%,0%,0%);fill-opacity:1;" d="M 91.113281 100 L 91.113281 80 L 111.113281 80 L 111.113281 100 Z M 91.113281 100 "/>
<path style=" stroke:none;fill-rule:nonzero;fill:rgb(0%,0%,0%);fill-opacity:1;" d="M 91.113281 60 L 91.113281 40 L 111.113281 40 L 111.113281 60 Z M 91.113281 60 "/>
<path style=" stroke:none;fill-rule:nonzero;fill:rgb(0%,0%,0%);fill-opacity:1;" d="M 91.113281 20 L 91.113281 0 L 111.113281 0 L 111.113281 20 Z M 91.113281 20 "/>
<path style=" stroke:none;fill-rule:nonzero;fill:rgb(0%,0%,0%);fill-opacity:1;" d="M 127.113281 220 L 127.113281 200 L 147.113281 200 L 147.113281 220 Z M 127.113281 220 "/>
<path style=" stroke:none;fill-rule:nonzero;fill:rgb(0%,0%,0%);fill-opacity:1;" d="M 127.113281 180 L 127.113281 160 L 147.113281 160 L 147.113281 180 Z M 127.113281 180 "/>
<path style=" stroke:none;fill-rule:nonzero;fill:rgb(0%,0%,0%);fill-opacity:1;" d="M 127.113281 140 L 127.113281 120 L 147.113281 120 L 147.113281 140 Z M 127.113281 140 "/>
<path style=" stroke:none;fill-rule:nonzero;fill:rgb(0%,0%,0%);fill-opacity:1;" d="M 127.113281 100 L 127.113281 80 L 147.113281 80 L 147.113281 100 Z M 127.113281 100 "/>
<path style=" stroke:none;fill-rule:nonzero;fill:rgb(0%,0%,0%);fill-opacity:1;" d="M 127.113281 60 L 127.113281 40 L 147.113281 40 L 147.113281 60 Z M 127.113281 60 "/>
<path style=" stroke:none;fill-rule:nonzero;fill:rgb(0%,0%,0%);fill-opacity:1;" d="M 127.113281 20 L 127.113281 0 L 147.113281 0 L 147.113281 20 Z M 127.113281 20 "/>
<path style=" stroke:none;fill-rule:nonzero;fill:rgb(0%,0%,0%);fill-opacity:1;" d="M 163.113281 220 L 163.113281 200 L 183.113281 200 L 183.113281 220 Z M 163.113281 220 "/>
<path style=" stroke:none;fill-rule:nonzero;fill:rgb(0%,0%,0%);fill-opacity:1;" d="M 163.113281 180 L 163.113281 160 L 183.113281 160 L 183.113281 180 Z M 163.113281 180 "/>
<path style=" stroke:none;fill-rule:nonzero;fill:rgb(0%,0%,0%);fill-opacity:1;" d="M 163.113281 140 L 163.113281 120 L 183.113281 120 L 183.113281 140 Z M 163.113281 140 "/>
<path style=" stroke:none;fill-rule:nonzero;fill:rgb(0%,0%,0%);fill-opacity:1;" d="M 163.113281 100 L 163.113281 80 L 183.113281 80 L 183.113281 100 Z M 163.113281 100 "/>
<path style=" stroke:none;fill-rule:nonzero;fill:rgb(0%,0%,0%);fill-opacity:1;" d="M 163.113281 60 L 163.113281 40 L 183.113281 40 L 183.113281 60 Z M 163.113281 60 "/>
<path style=" stroke:none;fill-rule:nonzero;fill:rgb(0%,0%,0%);fill-opacity:1;" d="M 163.113281 20 L 163.113281 0 L 183.113281 0 L 183.113281 20 Z M 163.113281 20 "/>
<path style=" stroke:none;fill-rule:nonzero;fill:rgb(0%,0%,0%);fill-opacity:1;" d="M 199.113281 220 L 199.113281 200 L 219.113281 200 L 219.113281 220 Z M 199.113281 220 "/>
<path style=" stroke:none;fill-rule:nonzero;fill:rgb(0%,0%,0%);fill-opacity:1;" d="M 199.113281 180 L 199.113281 160 L 219.113281 160 L 219.113281 180 Z M 199.113281 180 "/>
<path style=" stroke:none;fill-rule:nonzero;fill:rgb(0%,0%,0%);fill-opacity:1;" d="M 199.113281 140 L 199.113281 120 L 219.113281 120 L 219.113281 140 Z M 199.113281 140 "/>
<path style=" stroke:none;fill-rule:nonzero;fill:rgb(0%,0%,0%);fill-opacity:1;" d="M 199.113281 100 L 199.113281 80 L 219.113281 80 L 219.113281 100 Z M 199.113281 100 "/>
<path style=" stroke:none;fill-rule:nonzero;fill:rgb(0%,0%,0%);fill-opacity:1;" d="M 199.113281 60 L 199.113281 40 L 219.113281 40 L 219.113281 60 Z M 199.113281 60 "/>
<path style=" stroke:none;fill-rule:nonzero;fill:rgb(0%,0%,0%);fill-opacity:1;" d="M 199.113281 20 L 199.113281 0 L 219.113281 0 L 219.113281 20 Z M 199.113281 20 "/>
<path style=" stroke:none;fill-rule:nonzero;fill:rgb(0%,0%,0%);fill-opacity:1;" d="M 235.113281 220 L 235.113281 200 L 255.113281 200 L 255.113281 220 Z M 235.113281 220 "/>
<path style=" stroke:none;fill-rule:nonzero;fill:rgb(0%,0%,0%);fill-opacity:1;" d="M 235.113281 180 L 235.113281 160 L 255.113281 160 L 255.113281 180 Z M 235.113281 180 "/>
<path style=" stroke:none;fill-rule:nonzero;fill:rgb(0%,0%,0%);fill-opacity:1;" d="M 235.113281 140 L 235.113281 120 L 255.113281 120 L 255.113281 140 Z M 235.113281 140 "/>
<path style=" stroke:none;fill-rule:nonzero;fill:rgb(0%,0%,0%);fill-opacity:1;" d="M 235.113281 100 L 235.113281 80 L 255.113281 80 L 255.113281 100 Z M 235.113281 100 "/>
<path style=" stroke:none;fill-rule:nonzero;fill:rgb(0%,0%,0%);fill-opacity:1;" d="M 235.113281 60 L 235.113281 40 L 255.113281 40 L 255.113281 60 Z M 235.113281 60 "/>
<path style=" stroke:none;fill-rule:nonzero;fill:rgb(0%,0%,0%);fill-opacity:1;" d="M 235.113281 20 L 235.113281 0 L 255.113281 0 L 255.113281 20 Z M 235.113281 20 "/>
<path style=" stroke:none;fill-rule:nonzero;fill:rgb(0%,0%,0%);fill-opacity:1;" d="M 271.113281 220 L 271.113281 200 L 291.113281 200 L 291.113281 220 Z M 271.113281 220 "/>
<path style=" stroke:none;fill-rule:nonzero;fill:rgb(0%,0%,0%);fill-opacity:1;" d="M 271.113281 180 L 271.113281 160 L 291.113281 160 L 291.113281 180 Z M 271.113281 180 "/>
<path style=" stroke:none;fill-rule:nonzero;fill:rgb(0%,0%,0%);fill-opacity:1;" d="M 271.113281 140 L 271.113281 120 L 291.113281 120 L 291.113281 140 Z M 271.113281 140 "/>
<path style=" stroke:none;fill-rule:nonzero;fill:rgb(0%,0%,0%);fill-opacity:1;" d="M 271.113281 100 L 271.113281 80 L 291.113281 80 L 291.113281 100 Z M 271.113281 100 "/>
<path style=" stroke:none;fill-rule:nonzero;fill:rgb(0%,0%,0%);fill-opacity:1;" d="M 271.113281 60 L 271.113281 40 L 291.113281 40 L 291.113281 60 Z M 271.113281 60 "/>
<path style=" stroke:none;fill-rule:nonzero;fill:rgb(0%,0%,0%);fill-opacity:1;" d="M 271.113281 20 L 271.113281 0 L 291.113281 0 L 291.113281 20 Z M 271.113281 20 "/>
<path style=" stroke:none;fill-rule:nonzero;fill:rgb(0%,0%,0%);fill-opacity:1;" d="M 307.113281 220 L 307.113281 200 L 327.113281 200 L 327.113281 220 Z M 307.113281 220 "/>
<path style=" stroke:none;fill-rule:nonzero;fill:rgb(0%,0%,0%);fill-opacity:1;" d="M 307.113281 180 L 307.113281 160 L 327.113281 160 L 327.113281 180 Z M 307.113281 180 "/>
<path style=" stroke:none;fill-rule:nonzero;fill:rgb(0%,0%,0%);fill-opacity:1;" d="M 307.113281 140 L 307.113281 120 L 327.113281 120 L 327.113281 140 Z M 307.113281 140 "/>
<path style=" stroke:none;fill-rule:nonzero;fill:rgb(0%,0%,0%);fill-opacity:1;" d="M 307.113281 100 L 307.113281 80 L 327.113281 80 L 327.113281 100 Z M 307.113281 100 "/>
<path style=" stroke:none;fill-rule:nonzero;fill:rgb(0%,0%,0%);fill-opacity:1;" d="M 307.113281 60 L 307.113281 40 L 327.113281 40 L 327.113281 60 Z M 307.113281 60 "/>
<path style=" stroke:none;fill-rule:nonzero;fill:rgb(0%,0%,0%);fill-opacity:1;" d="M 307.113281 20 L 307.113281 0 L 327.113281 0 L 327.113281 20 Z M 307.113281 20 "/>
<path style=" stroke:none;fill-rule:nonzero;fill:rgb(0%,0%,0%);fill-opacity:1;" d="M 343.113281 220 L 343.113281 200 L 363.113281 200 L 363.113281 220 Z M 343.113281 220 "/>
<path style=" stroke:none;fill-rule:nonzero;fill:rgb(0%,0%,0%);fill-opacity:1;" d="M 343.113281 180 L 343.113281 160 L 363.113281 160 L 363.113281 180 Z M 343.113281 180 "/>
<path style=" stroke:none;fill-rule:nonzero;fill:rgb(0%,0%,0%);fill-opacity:1;" d="M 343.113281 140 L 343.113281 120 L 363.113281 120 L 363.113281 140 Z M 343.113281 140 "/>
<path style=" stroke:none;fill-rule:nonzero;fill:rgb(0%,0%,0%);fill-opacity:1;" d="M 343.113281 100 L 343.113281 80 L 363.113281 80 L 363.113281 100 Z M 343.113281 100 "/>
<path style=" stroke:none;fill-rule:nonzero;fill:rgb(0%,0%,0%);fill-opacity:1;" d="M 343.113281 60 L 343.113281 40 L 363.113281 40 L 363.113281 60 Z M 343.113281 60 "/>
<path style=" stroke:none;fill-rule:nonzero;fill:rgb(0%,0%,0%);fill-opacity:1;" d="M 343.113281 20 L 343.113281 0 L 363.113281 0 L 363.113281 20 Z M 343.113281 20 "/>
<path style=" stroke:none;fill-rule:nonzero;fill:rgb(0%,0%,0%);fill-opacity:1;" d="M 379.113281 220 L 379.113281 200 L 399.113281 200 L 399.113281 220 Z M 379.113281 220 "/>
<path style=" stroke:none;fill-rule:nonzero;fill:rgb(0%,0%,0%);fill-opacity:1;" d="M 379.113281 180 L 379.113281 160 L 399.113281 160 L 399.113281 180 Z M 379.113281 180 "/>
<path style=" stroke:none;fill-rule:nonzero;fill:rgb(0%,0%,0%);fill-opacity:1;" d="M 379.113281 140 L 379.113281 120 L 399.113281 120 L 399.113281 140 Z M 379.113281 140 "/>
<path style=" stroke:none;fill-rule:nonzero;fill:rgb(0%,0%,0%);fill-opacity:1;" d="M 379.113281 100 L 379.113281 80 L 399.113281 80 L 399.113281 100 Z M 379.113281 100 "/>
<path style=" stroke:none;fill-rule:nonzero;fill:rgb(0%,0%,0%);fill-opacity:1;" d="M 379.113281 60 L 379.113281 40 L 399.113281 40 L 399.113281 60 Z M 379.113281 60 "/>
<path style=" stroke:none;fill-rule:nonzero;fill:rgb(0%,0%,0%);fill-opacity:1;" d="M 379.113281 20 L 379.113281 0 L 399.113281 0 L 399.113281 20 Z M 379.113281 20 "/>
<path style=" stroke:none;fill-rule:nonzero;fill:rgb(0%,0%,0%);fill-opacity:1;" d="M 5.285156 200 L 5.285156 180 L 25.285156 180 L 25.285156 200 Z M 5.285156 200 "/>
<path style=" stroke:none;fill-rule:nonzero;fill:rgb(0%,0%,0%);fill-opacity:1;" d="M 5.285156 160 L 5.285156 140 L 25.285156 140 L 25.285156 160 Z M 5.285156 160 "/>
<path style=" stroke:none;fill-rule:nonzero;fill:rgb(0%,0%,0%);fill-opacity:1;" d="M 5.285156 120 L 5.285156 100 L 25.285156 100 L 25.285156 120 Z M 5.285156 120 "/>
<path style=" stroke:none;fill-rule:nonzero;fill:rgb(0%,0%,0%);fill-opacity:1;" d="M 5.285156 80 L 5.285156 60 L 25.285156 60 L 25.285156 80 Z M 5.285156 80 "/>
<path style=" stroke:none;fill-rule:nonzero;fill:rgb(0%,0%,0%);fill-opacity:1;" d="M 5.285156 40 L 5.285156 20 L 25.285156 20 L 25.285156 40 Z M 5.285156 40 "/>
<path style=" stroke:none;fill-rule:nonzero;fill:rgb(0%,0%,0%);fill-opacity:1;" d="M 41.285156 200 L 41.285156 180 L 61.285156 180 L 61.285156 200 Z M 41.285156 200 "/>
<path style=" stroke:none;fill-rule:nonzero;fill:rgb(0%,0%,0%);fill-opacity:1;" d="M 41.285156 160 L 41.285156 140 L 61.285156 140 L 61.285156 160 Z M 41.285156 160 "/>
<path style=" stroke:none;fill-rule:nonzero;fill:rgb(0%,0%,0%);fill-opacity:1;" d="M 41.285156 120 L 41.285156 100 L 61.285156 100 L 61.285156 120 Z M 41.285156 120 "/>
<path style=" stroke:none;fill-rule:nonzero;fill:rgb(0%,0%,0%);fill-opacity:1;" d="M 41.285156 80 L 41.285156 60 L 61.285156 60 L 61.285156 80 Z M 41.285156 80 "/>
<path style=" stroke:none;fill-rule:nonzero;fill:rgb(0%,0%,0%);fill-opacity:1;" d="M 41.285156 40 L 41.285156 20 L 61.285156 20 L 61.285156 40 Z M 41.285156 40 "/>
<path style=" stroke:none;fill-rule:nonzero;fill:rgb(0%,0%,0%);fill-opacity:1;" d="M 77.285156 200 L 77.285156 180 L 97.285156 180 L 97.285156 200 Z M 77.285156 200 "/>
<path style=" stroke:none;fill-rule:nonzero;fill:rgb(0%,0%,0%);fill-opacity:1;" d="M 77.285156 160 L 77.285156 140 L 97.285156 140 L 97.285156 160 Z M 77.285156 160 "/>
<path style=" stroke:none;fill-rule:nonzero;fill:rgb(0%,0%,0%);fill-opacity:1;" d="M 77.285156 120 L 77.285156 100 L 97.285156 100 L 97.285156 120 Z M 77.285156 120 "/>
<path style=" stroke:none;fill-rule:nonzero;fill:rgb(0%,0%,0%);fill-opacity:1;" d="M 77.285156 80 L 77.285156 60 L 97.285156 60 L 97.285156 80 Z M 77.285156 80 "/>
<path style=" stroke:none;fill-rule:nonzero;fill:rgb(0%,0%,0%);fill-opacity:1;" d="M 77.285156 40 L 77.285156 20 L 97.285156 20 L 97.285156 40 Z M 77.285156 40 "/>
<path style=" stroke:none;fill-rule:nonzero;fill:rgb(0%,0%,0%);fill-opacity:1;" d="M 113.285156 200 L 113.285156 180 L 133.285156 180 L 133.285156 200 Z M 113.285156 200 "/>
<path style=" stroke:none;fill-rule:nonzero;fill:rgb(0%,0%,0%);fill-opacity:1;" d="M 113.285156 160 L 113.285156 140 L 133.285156 140 L 133.285156 160 Z M 113.285156 160 "/>
<path style=" stroke:none;fill-rule:nonzero;fill:rgb(0%,0%,0%);fill-opacity:1;" d="M 113.285156 120 L 113.285156 100 L 133.285156 100 L 133.285156 120 Z M 113.285156 120 "/>
<path style=" stroke:none;fill-rule:nonzero;fill:rgb(0%,0%,0%);fill-opacity:1;" d="M 113.285156 80 L 113.285156 60 L 133.285156 60 L 133.285156 80 Z M 113.285156 80 "/>
<path style=" stroke:none;fill-rule:nonzero;fill:rgb(0%,0%,0%);fill-opacity:1;" d="M 113.285156 40 L 113.285156 20 L 133.285156 20 L 133.285156 40 Z M 113.285156 40 "/>
<path style=" stroke:none;fill-rule:nonzero;fill:rgb(0%,0%,0%);fill-opacity:1;" d="M 149.285156 200 L 149.285156 180 L 169.285156 180 L 169.285156 200 Z M 149.285156 200 "/>
<path style=" stroke:none;fill-rule:nonzero;fill:rgb(0%,0%,0%);fill-opacity:1;" d="M 149.285156 160 L 149.285156 140 L 169.285156 140 L 169.285156 160 Z M 149.285156 160 "/>
<path style=" stroke:none;fill-rule:nonzero;fill:rgb(0%,0%,0%);fill-opacity:1;" d="M 149.285156 120 L 149.285156 100 L 169.285156 100 L 169.285156 120 Z M 149.285156 120 "/>
<path style=" stroke:none;fill-rule:nonzero;fill:rgb(0%,0%,0%);fill-opacity:1;" d="M 149.285156 80 L 149.285156 60 L 169.285156 60 L 169.285156 80 Z M 149.285156 80 "/>
<path style=" stroke:none;fill-rule:nonzero;fill:rgb(0%,0%,0%);fill-opacity:1;" d="M 149.285156 40 L 149.285156 20 L 169.285156 20 L 169.285156 40 Z M 149.285156 40 "/>
<path style=" stroke:none;fill-rule:nonzero;fill:rgb(0%,0%,0%);fill-opacity:1;" d="M 185.285156 200 L 185.285156 180 L 205.285156 180 L 205.285156 200 Z M 185.285156 200 "/>
<path style=" stroke:none;fill-rule:nonzero;fill:rgb(0%,0%,0%);fill-opacity:1;" d="M 185.285156 160 L 185.285156 140 L 205.285156 140 L 205.285156 160 Z M 185.285156 160 "/>
<path style=" stroke:none;fill-rule:nonzero;fill:rgb(0%,0%,0%);fill-opacity:1;" d="M 185.285156 120 L 185.285156 100 L 205.285156 100 L 205.285156 120 Z M 185.285156 120 "/>
<path style=" stroke:none;fill-rule:nonzero;fill:rgb(0%,0%,0%);fill-opacity:1;" d="M 185.285156 80 L 185.285156 60 L 205.285156 60 L 205.285156 80 Z M 185.285156 80 "/>
<path style=" stroke:none;fill-rule:nonzero;fill:rgb(0%,0%,0%);fill-opacity:1;" d="M 185.285156 40 L 185.285156 20 L 205.285156 20 L 205.285156 40 Z M 185.285156 40 "/>
<path style=" stroke:none;fill-rule:nonzero;fill:rgb(0%,0%,0%);fill-opacity:1;" d="M 221.285156 200 L 221.285156 180 L 241.285156 180 L 241.285156 200 Z M 221.285156 200 "/>
<path style=" stroke:none;fill-rule:nonzero;fill:rgb(0%,0%,0%);fill-opacity:1;" d="M 221.285156 160 L 221.285156 140 L 241.285156 140 L 241.285156 160 Z M 221.285156 160 "/>
<path style=" stroke:none;fill-rule:nonzero;fill:rgb(0%,0%,0%);fill-opacity:1;" d="M 221.285156 120 L 221.285156 100 L 241.285156 100 L 241.285156 120 Z M 221.285156 120 "/>
<path style=" stroke:none;fill-rule:nonzero;fill:rgb(0%,0%,0%);fill-opacity:1;" d="M 221.285156 80 L 221.285156 60 L 241.285156 60 L 241.285156 80 Z M 221.285156 80 "/>
<path style=" stroke:none;fill-rule:nonzero;fill:rgb(0%,0%,0%);fill-opacity:1;" d="M 221.285156 40 L 221.285156 20 L 241.285156 20 L 241.285156 40 Z M 221.285156 40 "/>
<path style=" stroke:none;fill-rule:nonzero;fill:rgb(0%,0%,0%);fill-opacity:1;" d="M 257.285156 200 L 257.285156 180 L 277.285156 180 L 277.285156 200 Z M 257.285156 200 "/>
<path style=" stroke:none;fill-rule:nonzero;fill:rgb(0%,0%,0%);fill-opacity:1;" d="M 257.285156 160 L 257.285156 140 L 277.285156 140 L 277.285156 160 Z M 257.285156 160 "/>
<path style=" stroke:none;fill-rule:nonzero;fill:rgb(0%,0%,0%);fill-opacity:1;" d="M 257.285156 120 L 257.285156 100 L 277.285156 100 L 277.285156 120 Z M 257.285156 120 "/>
<path style=" stroke:none;fill-rule:nonzero;fill:rgb(0%,0%,0%);fill-opacity:1;" d="M 257.285156 80 L 257.285156 60 L 277.285156 60 L 277.285156 80 Z M 257.285156 80 "/>
<path style=" stroke:none;fill-rule:nonzero;fill:rgb(0%,0%,0%);fill-opacity:1;" d="M 257.285156 40 L 257.285156 20 L 277.285156 20 L 277.285156 40 Z M 257.285156 40 "/>
<path style=" stroke:none;fill-rule:nonzero;fill:rgb(0%,0%,0%);fill-opacity:1;" d="M 293.285156 200 L 293.285156 180 L 313.285156 180 L 313.285156 200 Z M 293.285156 200 "/>
<path style=" stroke:none;fill-rule:nonzero;fill:rgb(0%,0%,0%);fill-opacity:1;" d="M 293.285156 160 L 293.285156 140 L 313.285156 140 L 313.285156 160 Z M 293.285156 160 "/>
<path style=" stroke:none;fill-rule:nonzero;fill:rgb(0%,0%,0%);fill-opacity:1;" d="M 293.285156 120 L 293.285156 100 L 313.285156 100 L 313.285156 120 Z M 293.285156 120 "/>
<path style=" stroke:none;fill-rule:nonzero;fill:rgb(0%,0%,0%);fill-opacity:1;" d="M 293.285156 80 L 293.285156 60 L 313.285156 60 L 313.285156 80 Z M 293.285156 80 "/>
<path style=" stroke:none;fill-rule:nonzero;fill:rgb(0%,0%,0%);fill-opacity:1;" d="M 293.285156 40 L 293.285156 20 L 313.285156 20 L 313.285156 40 Z M 293.285156 40 "/>
<path style=" stroke:none;fill-rule:nonzero;fill:rgb(0%,0%,0%);fill-opacity:1;" d="M 329.285156 200 L 329.285156 180 L 349.285156 180 L 349.285156 200 Z M 329.285156 200 "/>
<path style=" stroke:none;fill-rule:nonzero;fill:rgb(0%,0%,0%);fill-opacity:1;" d="M 329.285156 160 L 329.285156 140 L 349.285156 140 L 349.285156 160 Z M 329.285156 160 "/>
<path style=" stroke:none;fill-rule:nonzero;fill:rgb(0%,0%,0%);fill-opacity:1;" d="M 329.285156 120 L 329.285156 100 L 349.285156 100 L 349.285156 120 Z M 329.285156 120 "/>
<path style=" stroke:none;fill-rule:nonzero;fill:rgb(0%,0%,0%);fill-opacity:1;" d="M 329.285156 80 L 329.285156 60 L 349.285156 60 L 349.285156 80 Z M 329.285156 80 "/>
<path style=" stroke:none;fill-rule:nonzero;fill:rgb(0%,0%,0%);fill-opacity:1;" d="M 329.285156 40 L 329.285156 20 L 349.285156 20 L 349.285156 40 Z M 329.285156 40 "/>
<path style=" stroke:none;fill-rule:nonzero;fill:rgb(0%,0%,0%);fill-opacity:1;" d="M 365.285156 200 L 365.285156 180 L 385.285156 180 L 385.285156 200 Z M 365.285156 200 "/>
<path style=" stroke:none;fill-rule:nonzero;fill:rgb(0%,0%,0%);fill-opacity:1;" d="M 365.285156 160 L 365.285156 140 L 385.285156 140 L 385.285156 160 Z M 365.285156 160 "/>
<path style=" stroke:none;fill-rule:nonzero;fill:rgb(0%,0%,0%);fill-opacity:1;" d="M 365.285156 120 L 365.285156 100 L 385.285156 100 L 385.285156 120 Z M 365.285156 120 "/>
<path style=" stroke:none;fill-rule:nonzero;fill:rgb(0%,0%,0%);fill-opacity:1;" d="M 365.285156 80 L 365.285156 60 L 385.285156 60 L 385.285156 80 Z M 365.285156 80 "/>
<path style=" stroke:none;fill-rule:nonzero;fill:rgb(0%,0%,0%);fill-opacity:1;" d="M 365.285156 40 L 365.285156 20 L 385.285156 20 L 385.285156 40 Z M 365.285156 40 "/>
<path style="fill:none;stroke-width:1;stroke-linecap:square;stroke-linejoin:miter;stroke:rgb(100%,0%,0%);stroke-opacity:1;stroke-miterlimit:3.25;" d="M 0 220 L 400 220 "/>
<path style="fill:none;stroke-width:1;stroke-linecap:square;stroke-linejoin:miter;stroke:rgb(100%,0%,0%);stroke-opacity:1;stroke-miterlimit:3.25;" d="M 0 200 L 400 200 "/>
<path style="fill:none;stroke-width:1;stroke-linecap:square;stroke-linejoin:miter;stroke:rgb(100%,0%,0%);stroke-opacity:1;stroke-miterlimit:3.25;" d="M 0 180 L 400 180 "/>
<path style="fill:none;stroke-width:1;stroke-linecap:square;stroke-linejoin:miter;stroke:rgb(100%,0%,0%);stroke-opacity:1;stroke-miterlimit:3.25;" d="M 0 160 L 400 160 "/>
<path style="fill:none;stroke-width:1;stroke-linecap:square;stroke-linejoin:miter;stroke:rgb(100%,0%,0%);stroke-opacity:1;stroke-miterlimit:3.25;" d="M 0 140 L 400 140 "/>
<path style="fill:none;stroke-width:1;stroke-linecap:square;stroke-linejoin:miter;stroke:rgb(100%,0%,0%);stroke-opacity:1;stroke-miterlimit:3.25;" d="M 0 120 L 400 120 "/>
<path style="fill:none;stroke-width:1;stroke-linecap:square;stroke-linejoin:miter;stroke:rgb(100%,0%,0%);stroke-opacity:1;stroke-miterlimit:3.25;" d="M 0 100 L 400 100 "/>
<path style="fill:none;stroke-width:1;stroke-linecap:square;stroke-linejoin:miter;stroke:rgb(100%,0%,0%);stroke-opacity:1;stroke-miterlimit:3.25;" d="M 0 80 L 400 80 "/>
<path style="fill:none;stroke-width:1;stroke-linecap:square;stroke-linejoin:miter;stroke:rgb(100%,0%,0%);stroke-opacity:1;stroke-miterlimit:3.25;" d="M 0 60 L 400 60 "/>
<path style="fill:none;stroke-width:1;stroke-linecap:square;stroke-linejoin:miter;stroke:rgb(100%,0%,0%);stroke-opacity:1;stroke-miterlimit:3.25;" d="M 0 40 L 400 40 "/>
<path style="fill:none;stroke-width:1;stroke-linecap:square;stroke-linejoin:miter;stroke:rgb(100%,0%,0%);stroke-opacity:1;stroke-miterlimit:3.25;" d="M 0 20 L 400 20 "/>
</g>
</svg>
