<?xml version="1.0" encoding="UTF-8"?>
<svg xmlns="http://www.w3.org/2000/svg" xmlns:xlink="http://www.w3.org/1999/xlink" width="400pt" height="220pt" viewBox="0 0 400 220" version="1.1">
<g id="surface591">
<rect x="0" y="0" width="400" height="220" style="fill:rgb(0%,40%,100%);fill-opacity:0.2;stroke:none;"/>
<path style=" stroke:none;fill-rule:nonzero;fill:rgb(0%,0%,0%);fill-opacity:1;" d="M 18.59375 220 L 18.59375 200 L 38.59375 200 L 38.59375 220 Z M 18.59375 220 "/>
<path style=" stroke:none;fill-rule:nonzero;fill:rgb(0%,0%,0%);fill-opacity:1;" d="M 18.59375 180 L 18.59375 160 L 38.59375 160 L 38.59375 180 Z M 18.59375 180 "/>
<path style=" stroke:none;fill-rule:nonzero;fill:rgb(0%,0%,0%);fill-opacity:1;" d="M 18.59375 140 L 18.59375 120 L 38.59375 120 L 38.59375 140 Z M 18.59375 140 "/>
<path style=" stroke:none;fill-rule:nonzero;fill:rgb(0%,0%,0%);fill-opacity:1;" d="M 18.59375 100 L 18.59375 80 L 38.59375 80 L 38.59375 100 Z M 18.59375 100 "/>
<path style=" stroke:none;fill-rule:nonzero;fill:rgb(0%,0%,0%);fill-opacity:1;" d="M 18.59375 60 L 18.59375 40 L 38.59375 40 L 38.59375 60 Z M 18.59375 60 "/>
<path style=" stroke:none;fill-rule:nonzero;fill:rgb(0%,0%,0%);fill-opacity:1;" d="M 18.59375 20 L 18.59375 0 L 38.59375 0 L 38.59375 20 Z M 18.59375 20 "/>
<path style=" stroke:none;fill-rule:nonzero;fill:rgb(0%,0%,0%);fill-opacity:1;" d="M 54.59375 220 L 54.59375 200 L 74.59375 200 L 74.59375 220 Z M 54.59375 220 "/>
<path style=" stroke:none;fill-rule:nonzero;fill:rgb(0%,0%,0%);fill-opacity:1;" d="M 54.59375 180 L 54.59375 160 L 74.59375 160 L 74.59375 180 Z M 54.59375 180 "/>
<path style=" stroke:none;fill-rule:nonzero;fill:rgb(0%,0%,0%);fill-opacity:1;" d="M 54.59375 140 L 54.59375 120 L 74.59375 120 L 74.59375 140 Z M 54.59375 140 "/>
<path style=" stroke:none;fill-rule:nonzero;fill:rgb(0%,0%,0%);fill-opacity:1;" d="M 54.59375 100 L 54.59375 80 L 74.59375 80 L 74.59375 100 Z M 54.59375 100 "/>
<path style=" stroke:none;fill-rule:nonzero;fill:rgb(0%,0%,0%);fill-opacity:1;" d="M 54.59375 60 L 54.59375 40 L 74.59375 40 L 74.59375 60 Z M 54.59375 60 "/>
<path style=" stroke:none;fill-rule:nonzero;fill:rgb(0%,0%,0%);fill-opacity:1;" d="M 54.59375 20 L 54.59375 0 L 74.59375 0 L 74.59375 20 Z M 54.59375 20 "/>
<path style=" stroke:none;fill-rule:nonzero;fill:rgb(0%,0%,0%);fill-opacity:1;" d="M 90.59375 220 L 90.59375 200 L 110.59375 200 L 110.59375 220 Z M 90.59375 220 "/>
<path style=" stroke:none;fill-rule:nonzero;fill:rgb(0%,0%,0%);fill-opacity:1;" d="M 90.59375 180 L 90.59375 160 L 110.59375 160 L 110.59375 180 Z M 90.59375 180 "/>
<path style=" stroke:none;fill-rule:nonzero;fill:rgb(0%,0%,0%);fill-opacity:1;" d="M 90.59375 140 L 90.59375 120 L 110.59375 120 L 110.59375 140 Z M 90.59375 140 "/>
<path style=" stroke:none;fill-rule:nonzero;fill:rgb(0%,0%,0%);fill-opacity:1;" d="M 90.59375 100 L 90.59375 80 L 110.59375 80 L 110.59375 100 Z M 90.59375 100 "/>
<path style=" stroke:none;fill-rule:nonzero;fill:rgb(0%,0%,0%);fill-opacity:1;" d="M 90.59375 60 L 90.59375 40 L 110.59375 40 L 110.59375 60 Z M 90.59375 60 "/>
<path style=" stroke:none;fill-rule:nonzero;fill:rgb(0%,0%,0%);fill-opacity:1;" d="M 90.59375 20 L 90.59375 0 L 110.59375 0 L 110.59375 20 Z M 90.59375 20 "/>
<path style=" stroke:none;fill-rule:nonzero;fill:rgb(0%,0%,0%);fill-opacity:1;" d="M 126.59375 220 L 126.59375 200 L 146.59375 200 L 146.59375 220 Z M 126.59375 220 "/>
<path style=" stroke:none;fill-rule:nonzero;fill:rgb(0%,0%,0%);fill-opacity:1;" d="M 126.59375 180 L 126.59375 160 L 146.59375 160 L 146.59375 180 Z M 126.59375 180 "/>
<path style=" stroke:none;fill-rule:nonzero;fill:rgb(0%,0%,0%);fill-opacity:1;" d="M 126.59375 140 L 126.59375 120 L 146.59375 120 L 146.59375 140 Z M 126.59375 140 "/>
<path style=" stroke:none;fill-rule:nonzero;fill:rgb(0%,0%,0%);fill-opacity:1;" d="M 126.59375 100 L 126.59375 80 L 146.59375 80 L 146.59375 100 Z M 126.59375 100 "/>
<path style=" stroke:none;fill-rule:nonzero;fill:rgb(0%,0%,0%);fill-opacity:1;" d="M 126.59375 60 L 126.59375 40 L 146.59375 40 L 146.59375 60 Z M 126.59375 60 "/>
<path style=" stroke:none;fill-rule:nonzero;fill:rgb(0%,0%,0%);fill-opacity:1;" d="M 126.59375 20 L 126.59375 0 L 146.59375 0 L 146.59375 20 Z M 126.59375 20 "/>
<path style=" stroke:none;fill-rule:nonzero;fill:rgb(0%,0%,0%);fill-opacity:1;" d="M 162.59375 220 L 162.59375 200 L 182.59375 200 L 182.59375 220 Z M 162.59375 220 "/>
<path style=" stroke:none;fill-rule:nonzero;fill:rgb(0%,0%,0%);fill-opacity:1;" d="M 162.59375 180 L 162.59375 160 L 182.59375 160 L 182.59375 180 Z M 162.59375 180 "/>
<path style=" stroke:none;fill-rule:nonzero;fill:rgb(0%,0%,0%);fill-opacity:1;" d="M 162.59375 140 L 162.59375 120 L 182.59375 120 L 182.59375 140 Z M 162.59375 140 "/>
<path style=" stroke:none;fill-rule:nonzero;fill:rgb(0%,0%,0%);fill-opacity:1;" d="M 162.59375 100 L 162.59375 80 L 182.59375 80 L 182.59375 100 Z M 162.59375 100 "/>
<path style=" stroke:none;fill-rule:nonzero;fill:rgb(0%,0%,0%);fill-opacity:1;" d="M 162.59375 60 L 162.59375 40 L 182.59375 40 L 182.59375 60 Z M 162.59375 60 "/>
<path style=" stroke:none;fill-rule:nonzero;fill:rgb(0%,0%,0%);fill-opacity:1;" d="M 162.59375 20 L 162.59375 0 L 182.59375 0 L 182.59375 20 Z M 162.59375 20 "/>
<path style=" stroke:none;fill-rule:nonzero;fill:rgb(0%,0%,0%);fill-opacity:1;" d="M 198.59375 220 L 198.59375 200 L 218.59375 200 L 218.59375 220 Z M 198.59375 220 "/>
<path style=" stroke:none;fill-rule:nonzero;fill:rgb(0%,0%,0%);fill-opacity:1;" d="M 198.59375 180 L 198.59375 160 L 218.59375 160 L 218.59375 180 Z M 198.59375 180 "/>
<path style=" stroke:none;fill-rule:nonzero;fill:rgb(0%,0%,0%);fill-opacity:1;" d="M 198.59375 140 L 198.59375 120 L 218.59375 120 L 218.59375 140 Z M 198.59375 140 "/>
<path style=" stroke:none;fill-rule:nonzero;fill:rgb(0%,0%,0%);fill-opacity:1;" d="M 198.59375 100 L 198.59375 80 L 218.59375 80 L 218.59375 100 Z M 198.59375 100 "/>
<path style=" stroke:none;fill-rule:nonzero;fill:rgb(0%,0%,0%);fill-opacity:1;" d="M 198.59375 60 L 198.59375 40 L 218.59375 40 L 218.59375 60 Z M 198.59375 60 "/>
<path style=" stroke:none;fill-rule:nonzero;fill:rgb(0%,0%,0%);fill-opacity:1;" d="M 198.59375 20 L 198.59375 0 L 218.59375 0 L 218.59375 20 Z M 198.59375 20 "/>
<path style=" stroke:none;fill-rule:nonzero;fill:rgb(0%,0%,0%);fill-opacity:1;" d="M 234.59375 220 L 234.59375 200 L 254.59375 200 L 254.59375 220 Z M 234.59375 220 "/>
<path style=" stroke:none;fill-rule:nonzero;fill:rgb(0%,0%,0%);fill-opacity:1;" d="M 234.59375 180 L 234.59375 160 L 254.59375 160 L 254.59375 180 Z M 234.59375 180 "/>
<path style=" stroke:none;fill-rule:nonzero;fill:rgb(0%,0%,0%);fill-opacity:1;" d="M 234.59375 140 L 234.59375 120 L 254.59375 120 L 254.59375 140 Z M 234.59375 140 "/>
<path style=" stroke:none;fill-rule:nonzero;fill:rgb(0%,0%,0%);fill-opacity:1;" d="M 234.59375 100 L 234.59375 80 L 254.59375 80 L 254.59375 100 Z M 234.59375 100 "/>
<path style=" stroke:none;fill-rule:nonzero;fill:rgb(0%,0%,0%);fill-opacity:1;" d="M 234.59375 60 L 234.59375 40 L 254.59375 40 L 254.59375 60 Z M 234.59375 60 "/>
<path style=" stroke:none;fill-rule:nonzero;fill:rgb(0%,0%,0%);fill-opacity:1;" d="M 234.59375 20 L 234.59375 0 L 254.59375 0 L 254.59375 20 Z M 234.59375 20 "/>
<path style=" stroke:none;fill-rule:nonzero;fill:rgb(0%,0%,0%);fill-opacity:1;" d="M 270.59375 220 L 270.59375 200 L 290.59375 200 L 290.59375 220 Z M 270.59375 220 "/>
<path style=" stroke:none;fill-rule:nonzero;fill:rgb(0%,0%,0%);fill-opacity:1;" d="M 270.59375 180 L 270.59375 160 L 290.59375 160 L 290.59375 180 Z M 270.59375 180 "/>
<path style=" stroke:none;fill-rule:nonzero;fill:rgb(0%,0%,0%);fill-opacity:1;" d="M 270.59375 140 L 270.59375 120 L 290.59375 120 L 290.59375 140 Z M 270.59375 140 "/>
<path style=" stroke:none;fill-rule:nonzero;fill:rgb(0%,0%,0%);fill-opacity:1;" d="M 270.59375 100 L 270.59375 80 L 290.59375 80 L 290.59375 100 Z M 270.59375 100 "/>
<path style=" stroke:none;fill-rule:nonzero;fill:rgb(0%,0%,0%);fill-opacity:1;" d="M 270.59375 60 L 270.59375 40 L 290.59375 40 L 290.59375 60 Z M 270.59375 60 "/>
<path style=" stroke:none;fill-rule:nonzero;fill:rgb(0%,0%,0%);fill-opacity:1;" d="M 270.59375 20 L 270.59375 0 L 290.59375 0 L 290.59375 20 Z M 270.59375 20 "/>
<path style=" stroke:none;fill-rule:nonzero;fill:rgb(0%,0%,0%);fill-opacity:1;" d="M 306.59375 220 L 306.59375 200 L 326.59375 200 L 326.59375 220 Z M 306.59375 220 "/>
<path style=" stroke:none;fill-rule:nonzero;fill:rgb(0%,0%,0%);fill-opacity:1;" d="M 306.59375 180 L 306.59375 160 L 326.59375 160 L 326.59375 180 Z M 306.59375 180 "/>
<path style=" stroke:none;fill-rule:nonzero;fill:rgb(0%,0%,0%);fill-opacity:1;" d="M 306.59375 140 L 306.59375 120 L 326.59375 120 L 326.59375 140 Z M 306.59375 140 "/>
<path style=" stroke:none;fill-rule:nonzero;fill:rgb(0%,0%,0%);fill-opacity:1;" d="M 306.59375 100 L 306.59375 80 L 326.59375 80 L 326.59375 100 Z M 306.59375 100 "/>
<path style=" stroke:none;fill-rule:nonzero;fill:rgb(0%,0%,0%);fill-opacity:1;" d="M 306.59375 60 L 306.59375 40 L 326.59375 40 L 326.59375 60 Z M 306.59375 60 "/>
<path style=" stroke:none;fill-rule:nonzero;fill:rgb(0%,0%,0%);fill-opacity:1;" d="M 306.59375 20 L 306.59375 0 L 326.59375 0 L 326.59375 20 Z M 306.59375 20 "/>
<path style=" stroke:none;fill-rule:nonzero;fill:rgb(0%,0%,0%);fill-opacity:1;" d="M 342.59375 220 L 342.59375 200 L 362.59375 200 L 362.59375 220 Z M 342.59375 220 "/>
<path style=" stroke:none;fill-rule:nonzero;fill:rgb(0%,0%,0%);fill-opacity:1;" d="M 342.59375 180 L 342.59375 160 L 362.59375 160 L 362.59375 180 Z M 342.59375 180 "/>
<path style=" stroke:none;fill-rule:nonzero;fill:rgb(0%,0%,0%);fill-opacity:1;" d="M 342.59375 140 L 342.59375 120 L 362.59375 120 L 362.59375 140 Z M 342.59375 140 "/>
<path style=" stroke:none;fill-rule:nonzero;fill:rgb(0%,0%,0%);fill-opacity:1;" d="M 342.59375 100 L 342.59375 80 L 362.59375 80 L 362.59375 100 Z M 342.59375 100 "/>
<path style=" stroke:none;fill-rule:nonzero;fill:rgb(0%,0%,0%);fill-opacity:1;" d="M 342.59375 60 L 342.59375 40 L 362.59375 40 L 362.59375 60 Z M 342.59375 60 "/>
<path style=" stroke:none;fill-rule:nonzero;fill:rgb(0%,0%,0%);fill-opacity:1;" d="M 342.59375 20 L 342.59375 0 L 362.59375 0 L 362.59375 20 Z M 342.59375 20 "/>
<path style=" stroke:none;fill-rule:nonzero;fill:rgb(0%,0%,0%);fill-opacity:1;" d="M 378.59375 220 L 378.59375 200 L 398.59375 200 L 398.59375 220 Z M 378.59375 220 "/>
<path style=" stroke:none;fill-rule:nonzero;fill:rgb(0%,0%,0%);fill-opacity:1;" d="M 378.59375 180 L 378.59375 160 L 398.59375 160 L 398.59375 180 Z M 378.59375 180 "/>
<path style=" stroke:none;fill-rule:nonzero;fill:rgb(0%,0%,0%);fill-opacity:1;" d="M 378.59375 140 L 378.59375 120 L 398.59375 120 L 398.59375 140 Z M 378.59375 140 "/>
<path style=" stroke:none;fill-rule:nonzero;fill:rgb(0%,0%,0%);fill-opacity:1;" d="M 378.59375 100 L 378.59375 80 L 398.59375 80 L 398.59375 100 Z M 378.59375 100 "/>
<path style=" stroke:none;fill-rule:nonzero;fill:rgb(0%,0%,0%);fill-opacity:1;" d="M 378.59375 60 L 378.59375 40 L 398.59375 40 L 398.59375 60 Z M 378.59375 60 "/>
<path style=" stroke:none;fill-rule:nonzero;fill:rgb(0%,0%,0%);fill-opacity:1;" d="M 378.59375 20 L 378.59375 0 L 398.59375 0 L 398.59375 20 Z M 378.59375 20 "/>
<path style=" stroke:none;fill-rule:nonzero;fill:rgb(0%,0%,0%);fill-opacity:1;" d="M 8.636719 200 L 8.636719 180 L 28.636719 180 L 28.636719 200 Z M 8.636719 200 "/>
<path style=" stroke:none;fill-rule:nonzero;fill:rgb(0%,0%,0%);fill-opacity:1;" d="M 8.636719 160 L 8.636719 140 L 28.636719 140 L 28.636719 160 Z M 8.636719 160 "/>
<path style=" stroke:none;fill-rule:nonzero;fill:rgb(0%,0%,0%);fill-opacity:1;" d="M 8.636719 120 L 8.636719 100 L 28.636719 100 L 28.636719 120 Z M 8.636719 120 "/>
<path style=" stroke:none;fill-rule:nonzero;fill:rgb(0%,0%,0%);fill-opacity:1;" d="M 8.636719 80 L 8.636719 60 L 28.636719 60 L 28.636719 80 Z M 8.636719 80 "/>
<path style=" stroke:none;fill-rule:nonzero;fill:rgb(0%,0%,0%);fill-opacity:1;" d="M 8.636719 40 L 8.636719 20 L 28.636719 20 L 28.636719 40 Z M 8.636719 40 "/>
<path style=" stroke:none;fill-rule:nonzero;fill:rgb(0%,0%,0%);fill-opacity:1;" d="M 44.636719 200 L 44.636719 180 L 64.636719 180 L 64.636719 200 Z M 44.636719 200 "/>
<path style=" stroke:none;fill-rule:nonzero;fill:rgb(0%,0%,0%);fill-opacity:1;" d="M 44.636719 160 L 44.636719 140 L 64.636719 140 L 64.636719 160 Z M 44.636719 160 "/>
<path style=" stroke:none;fill-rule:nonzero;fill:rgb(0%,0%,0%);fill-opacity:1;" d="M 44.636719 120 L 44.636719 100 L 64.636719 100 L 64.636719 120 Z M 44.636719 120 "/>
<path style=" stroke:none;fill-rule:nonzero;fill:rgb(0%,0%,0%);fill-opacity:1;" d="M 44.636719 80 L 44.636719 60 L 64.636719 60 L 64.636719 80 Z M 44.636719 80 "/>
<path style=" stroke:none;fill-rule:nonzero;fill:rgb(0%,0%,0%);fill-opacity:1;" d="M 44.636719 40 L 44.636719 20 L 64.636719 20 L 64.636719 40 Z M 44.636719 40 "/>
<path style=" stroke:none;fill-rule:nonzero;fill:rgb(0%,0%,0%);fill-opacity:1;" d="M 80.636719 200 L 80.636719 180 L 100.636719 180 L 100.636719 200 Z M 80.636719 200 "/>
<path style=" stroke:none;fill-rule:nonzero;fill:rgb(0%,0%,0%);fill-opacity:1;" d="M 80.636719 160 L 80.636719 140 L 100.636719 140 L 100.636719 160 Z M 80.636719 160 "/>
<path style=" stroke:none;fill-rule:nonzero;fill:rgb(0%,0%,0%);fill-opacity:1;" d="M 80.636719 120 L 80.636719 100 L 100.636719 100 L 100.636719 120 Z M 80.636719 120 "/>
<path style=" stroke:none;fill-rule:nonzero;fill:rgb(0%,0%,0%);fill-opacity:1;" d="M 80.636719 80 L 80.636719 60 L 100.636719 60 L 100.636719 80 Z M 80.636719 80 "/>
<path style=" stroke:none;fill-rule:nonzero;fill:rgb(0%,0%,0%);fill-opacity:1;" d="M 80.636719 40 L 80.636719 20 L 100.636719 20 L 100.636719 40 Z M 80.636719 40 "/>
<path style=" stroke:none;fill-rule:nonzero;fill:rgb(0%,0%,0%);fill-opacity:1;" d="M 116.636719 200 L 116.636719 180 L 136.636719 180 L 136.636719 200 Z M 116.636719 200 "/>
<path style=" stroke:none;fill-rule:nonzero;fill:rgb(0%,0%,0%);fill-opacity:1;" d="M 116.636719 160 L 116.636719 140 L 136.636719 140 L 136.636719 160 Z M 116.636719 160 "/>
<path style=" stroke:none;fill-rule:nonzero;fill:rgb(0%,0%,0%);fill-opacity:1;" d="M 116.636719 120 L 116.636719 100 L 136.636719 100 L 136.636719 120 Z M 116.636719 120 "/>
<path style=" stroke:none;fill-rule:nonzero;fill:rgb(0%,0%,0%);fill-opacity:1;" d="M 116.636719 80 L 116.636719 60 L 136.636719 60 L 136.636719 80 Z M 116.636719 80 "/>
<path style=" stroke:none;fill-rule:nonzero;fill:rgb(0%,0%,0%);fill-opacity:1;" d="M 116.636719 40 L 116.636719 20 L 136.636719 20 L 136.636719 40 Z M 116.636719 40 "/>
<path style=" stroke:none;fill-rule:nonzero;fill:rgb(0%,0%,0%);fill-opacity:1;" d="M 152.636719 200 L 152.636719 180 L 172.636719 180 L 172.636719 200 Z M 152.636719 200 "/>
<path style=" stroke:none;fill-rule:nonzero;fill:rgb(0%,0%,0%);fill-opacity:1;" d="M 152.636719 160 L 152.636719 140 L 172.636719 140 L 172.636719 160 Z M 152.636719 160 "/>
<path style=" stroke:none;fill-rule:nonzero;fill:rgb(0%,0%,0%);fill-opacity:1;" d="M 152.636719 120 L 152.636719 100 L 172.636719 100 L 172.636719 120 Z M 152.636719 120 "/>
<path style=" stroke:none;fill-rule:nonzero;fill:rgb(0%,0%,0%);fill-opacity:1;" d="M 152.636719 80 L 152.636719 60 L 172.636719 60 L 172.636719 80 Z M 152.636719 80 "/>
<path style=" stroke:none;fill-rule:nonzero;fill:rgb(0%,0%,0%);fill-opacity:1;" d="M 152.636719 40 L 152.636719 20 L 172.636719 20 L 172.636719 40 Z M 152.636719 40 "/>
<path style=" stroke:none;fill-rule:nonzero;fill:rgb(0%,0%,0%);fill-opacity:1;" d="M 188.636719 200 L 188.636719 180 L 208.636719 180 L 208.636719 200 Z M 188.636719 200 "/>
<path style=" stroke:none;fill-rule:nonzero;fill:rgb(0%,0%,0%);fill-opacity:1;" d="M 188.636719 160 L 188.636719 140 L 208.636719 140 L 208.636719 160 Z M 188.636719 160 "/>
<path style=" stroke:none;fill-rule:nonzero;fill:rgb(0%,0%,0%);fill-opacity:1;" d="M 188.636719 120 L 188.636719 100 L 208.636719 100 L 208.636719 120 Z M 188.636719 120 "/>
<path style=" stroke:none;fill-rule:nonzero;fill:rgb(0%,0%,0%);fill-opacity:1;" d="M 188.636719 80 L 188.636719 60 L 208.636719 60 L 208.636719 80 Z M 188.636719 80 "/>
<path style=" stroke:none;fill-rule:nonzero;fill:rgb(0%,0%,0%);fill-opacity:1;" d="M 188.636719 40 L 188.636719 20 L 208.636719 20 L 208.636719 40 Z M 188.636719 40 "/>
<path style=" stroke:none;fill-rule:nonzero;fill:rgb(0%,0%,0%);fill-opacity:1;" d="M 224.636719 200 L 224.636719 180 L 244.636719 180 L 244.636719 200 Z M 224.636719 200 "/>
<path style=" stroke:none;fill-rule:nonzero;fill:rgb(0%,0%,0%);fill-opacity:1;" d="M 224.636719 160 L 224.636719 140 L 244.636719 140 L 244.636719 160 Z M 224.636719 160 "/>
<path style=" stroke:none;fill-rule:nonzero;fill:rgb(0%,0%,0%);fill-opacity:1;" d="M 224.636719 120 L 224.636719 100 L 244.636719 100 L 244.636719 120 Z M 224.636719 120 "/>
<path style=" stroke:none;fill-rule:nonzero;fill:rgb(0%,0%,0%);fill-opacity:1;" d="M 224.636719 80 L 224.636719 60 L 244.636719 60 L 244.636719 80 Z M 224.636719 80 "/>
<path style=" stroke:none;fill-rule:nonzero;fill:rgb(0%,0%,0%);fill-opacity:1;" d="M 224.636719 40 L 224.636719 20 L 244.636719 20 L 244.636719 40 Z M 224.636719 40 "/>
<path style=" stroke:none;fill-rule:nonzero;fill:rgb(0%,0%,0%);fill-opacity:1;" d="M 260.636719 200 L 260.636719 180 L 280.636719 180 L 280.636719 200 Z M 260.636719 200 "/>
<path style=" stroke:none;fill-rule:nonzero;fill:rgb(0%,0%,0%);fill-opacity:1;" d="M 260.636719 160 L 260.636719 140 L 280.636719 140 L 280.636719 160 Z M 260.636719 160 "/>
<path style=" stroke:none;fill-rule:nonzero;fill:rgb(0%,0%,0%);fill-opacity:1;" d="M 260.636719 120 L 260.636719 100 L 280.636719 100 L 280.636719 120 Z M 260.636719 120 "/>
<path style=" stroke:none;fill-rule:nonzero;fill:rgb(0%,0%,0%);fill-opacity:1;" d="M 260.636719 80 L 260.636719 60 L 280.636719 60 L 280.636719 80 Z M 260.636719 80 "/>
<path style=" stroke:none;fill-rule:nonzero;fill:rgb(0%,0%,0%);fill-opacity:1;" d="M 260.636719 40 L 260.636719 20 L 280.636719 20 L 280.636719 40 Z M 260.636719 40 "/>
<path style=" stroke:none;fill-rule:nonzero;fill:rgb(0%,0%,0%);fill-opacity:1;" d="M 296.636719 200 L 296.636719 180 L 316.636719 180 L 316.636719 200 Z M 296.636719 200 "/>
<path style=" stroke:none;fill-rule:nonzero;fill:rgb(0%,0%,0%);fill-opacity:1;" d="M 296.636719 160 L 296.636719 140 L 316.636719 140 L 316.636719 160 Z M 296.636719 160 "/>
<path style=" stroke:none;fill-rule:nonzero;fill:rgb(0%,0%,0%);fill-opacity:1;" d="M 296.636719 120 L 296.636719 100 L 316.636719 100 L 316.636719 120 Z M 296.636719 120 "/>
<path style=" stroke:none;fill-rule:nonzero;fill:rgb(0%,0%,0%);fill-opacity:1;" d="M 296.636719 80 L 296.636719 60 L 316.636719 60 L 316.636719 80 Z M 296.636719 80 "/>
<path style=" stroke:none;fill-rule:nonzero;fill:rgb(0%,0%,0%);fill-opacity:1;" d="M 296.636719 40 L 296.636719 20 L 316.636719 20 L 316.636719 40 Z M 296.636719 40 "/>
<path style=" stroke:none;fill-rule:nonzero;fill:rgb(0%,0%,0%);fill-opacity:1;" d="M 332.636719 200 L 332.636719 180 L 352.636719 180 L 352.636719 200 Z M 332.636719 200 "/>
<path style=" stroke:none;fill-rule:nonzero;fill:rgb(0%,0%,0%);fill-opacity:1;" d="M 332.636719 160 L 332.636719 140 L 352.636719 140 L 352.636719 160 Z M 332.636719 160 "/>
<path style=" stroke:none;fill-rule:nonzero;fill:rgb(0%,0%,0%);fill-opacity:1;" d="M 332.636719 120 L 332.636719 100 L 352.636719 100 L 352.636719 120 Z M 332.636719 120 "/>
<path style=" stroke:none;fill-rule:nonzero;fill:rgb(0%,0%,0%);fill-opacity:1;" d="M 332.636719 80 L 332.636719 60 L 352.636719 60 L 352.636719 80 Z M 332.636719 80 "/>
<path style=" stroke:none;fill-rule:nonzero;fill:rgb(0%,0%,0%);fill-opacity:1;" d="M 332.636719 40 L 332.636719 20 L 352.636719 20 L 352.636719 40 Z M 332.636719 40 "/>
<path style=" stroke:none;fill-rule:nonzero;fill:rgb(0%,0%,0%);fill-opacity:1;" d="M 368.636719 200 L 368.636719 180 L 388.636719 180 L 388.636719 200 Z M 368.636719 200 "/>
<path style=" stroke:none;fill-rule:nonzero;fill:rgb(0%,0%,0%);fill-opacity:1;" d="M 368.636719 160 L 368.636719 140 L 388.636719 140 L 388.636719 160 Z M 368.636719 160 "/>
<path style=" stroke:none;fill-rule:nonzero;fill:rgb(0%,0%,0%);fill-opacity:1;" d="M 368.636719 120 L 368.636719 100 L 388.636719 100 L 388.636719 120 Z M 368.636719 120 "/>
<path style=" stroke:none;fill-rule:nonzero;fill:rgb(0%,0%,0%);fill-opacity:1;" d="M 368.636719 80 L 368.636719 60 L 388.636719 60 L 388.636719 80 Z M 368.636719 80 "/>
<path style=" stroke:none;fill-rule:nonzero;fill:rgb(0%,0%,0%);fill-opacity:1;" d="M 368.636719 40 L 368.636719 20 L 388.636719 20 L 388.636719 40 Z M 368.636719 40 "/>
<path style="fill:none;stroke-width:1;stroke-linecap:square;stroke-linejoin:miter;stroke:rgb(100%,0%,0%);stroke-opacity:1;stroke-miterlimit:3.25;" d="M 0 220 L 400 220 "/>
<path style="fill:none;stroke-width:1;stroke-linecap:square;stroke-linejoin:miter;stroke:rgb(100%,0%,0%);stroke-opacity:1;stroke-miterlimit:3.25;" d="M 0 200 L 400 200 "/>
<path style="fill:none;stroke-width:1;stroke-linecap:square;stroke-linejoin:miter;stroke:rgb(100%,0%,0%);stroke-opacity:1;stroke-miterlimit:3.25;" d="M 0 180 L 400 180 "/>
<path style="fill:none;stroke-width:1;stroke-linecap:square;stroke-linejoin:miter;stroke:rgb(100%,0%,0%);stroke-opacity:1;stroke-miterlimit:3.25;" d="M 0 160 L 400 160 "/>
<path style="fill:none;stroke-width:1;stroke-linecap:square;stroke-linejoin:miter;stroke:rgb(100%,0%,0%);stroke-opacity:1;stroke-miterlimit:3.25;" d="M 0 140 L 400 140 "/>
<path style="fill:none;stroke-width:1;stroke-linecap:square;stroke-linejoin:miter;stroke:rgb(100%,0%,0%);stroke-opacity:1;stroke-miterlimit:3.25;" d="M 0 120 L 400 120 "/>
<path style="fill:none;stroke-width:1;stroke-linecap:square;stroke-linejoin:miter;stroke:rgb(100%,0%,0%);stroke-opacity:1;stroke-miterlimit:3.25;" d="M 0 100 L 400 100 "/>
<path style="fill:none;stroke-width:1;stroke-linecap:square;stroke-linejoin:miter;stroke:rgb(100%,0%,0%);stroke-opacity:1;stroke-miterlimit:3.25;" d="M 0 80 L 400 80 "/>
<path style="fill:none;stroke-width:1;stroke-linecap:square;stroke-linejoin:miter;stroke:rgb(100%,0%,0%);stroke-opacity:1;stroke-miterlimit:3.25;" d="M 0 60 L 400 60 "/>
<path style="fill:none;stroke-width:1;stroke-linecap:square;stroke-linejoin:miter;stroke:rgb(100%,0%,0%);stroke-opacity:1;stroke-miterlimit:3.25;" d="M 0 40 L 400 40 "/>
<path style="fill:none;stroke-width:1;stroke-linecap:square;stroke-linejoin:miter;stroke:rgb(100%,0%,0%);stroke-opacity:1;stroke-miterlimit:3.25;" d="M 0 20 L 400 20 "/>
</g>
</svg>
