<?xml version="1.0" encoding="UTF-8"?>
<svg xmlns="http://www.w3.org/2000/svg" xmlns:xlink="http://www.w3.org/1999/xlink" width="400pt" height="220pt" viewBox="0 0 400 220" version="1.1">
<g id="surface736">
<rect x="0" y="0" width="400" height="220" style="fill:rgb(0%,40%,100%);fill-opacity:0.2;stroke:none;"/>
<path style=" stroke:none;fill-rule:nonzero;fill:rgb(0%,0%,0%);fill-opacity:1;" d="M 2.507812 220 L 2.507812 200 L 22.507812 200 L 22.507812 220 Z M 2.507812 220 "/>
<path style=" stroke:none;fill-rule:nonzero;fill:rgb(0%,0%,0%);fill-opacity:1;" d="M 2.507812 180 L 2.507812 160 L 22.507812 160 L 22.507812 180 Z M 2.507812 180 "/>
<path style=" stroke:none;fill-rule:nonzero;fill:rgb(0%,0%,0%);fill-opacity:1;" d="M 2.507812 140 L 2.507812 120 L 22.507812 120 L 22.507812 140 Z M 2.507812 140 "/>
<path style=" stroke:none;fill-rule:nonzero;fill:rgb(0%,0%,0%);fill-opacity:1;" d="M 2.507812 100 L 2.507812 80 L 22.507812 80 L 22.507812 100 Z M 2.507812 100 "/>
<path style=" stroke:none;fill-rule:nonzero;fill:rgb(0%,0%,0%);fill-opacity:1;" d="M 2.507812 60 L 2.507812 40 L 22.507812 40 L 22.507812 60 Z M 2.507812 60 "/>
<path style=" stroke:none;fill-rule:nonzero;fill:rgb(0%,0%,0%);fill-opacity:1;" d="M 2.507812 20 L 2.507812 0 L 22.507812 0 L 22.507812 20 Z M 2.507812 20 "/>
<path style=" stroke:none;fill-rule:nonzero;fill:rgb(0%,0%,0%);fill-opacity:1;" d="M 38.507812 220 L 38.507812 200 L 58.507812 200 L 58.507812 220 Z M 38.507812 220 "/>
<path style=" stroke:none;fill-rule:nonzero;fill:rgb(0%,0%,0%);fill-opacity:1;" d="M 38.507812 180 L 38.507812 160 L 58.507812 160 L 58.507812 180 Z M 38.507812 180 "/>
<path style=" stroke:none;fill-rule:nonzero;fill:rgb(0%,0%,0%);fill-opacity:1;" d="M 38.507812 140 L 38.507812 120 L 58.507812 120 L 58.507812 140 Z M 38.507812 140 "/>
<path style=" stroke:none;fill-rule:nonzero;fill:rgb(0%,0%,0%);fill-opacity:1;" d="M 38.507812 100 L 38.507812 80 L 58.507812 80 L 58.507812 100 Z M 38.507812 100 "/>
<path style=" stroke:none;fill-rule:nonzero;fill:rgb(0%,0%,0%);fill-opacity:1;" d="M 38.507812 60 L 38.507812 40 L 58.507812 40 L 58.507812 60 Z M 38.507812 60 "/>
<path style=" stroke:none;fill-rule:nonzero;fill:rgb(0%,0%,0%);fill-opacity:1;" d="M 38.507812 20 L 38.507812 0 L 58.507812 0 L 58.507812 20 Z M 38.507812 20 "/>
<path style=" stroke:none;fill-rule:nonzero;fill:rgb(0%,0%,0%);fill-opacity:1;" d="M 74.507812 220 L 74.507812 200 L 94.507812 200 L 94.507812 220 Z M 74.507812 220 "/>
<path style=" stroke:none;fill-rule:nonzero;fill:rgb(0%,0%,0%);fill-opacity:1;" d="M 74.507812 180 L 74.507812 160 L 94.507812 160 L 94.507812 180 Z M 74.507812 180 "/>
<path style=" stroke:none;fill-rule:nonzero;fill:rgb(0%,0%,0%);fill-opacity:1;" d="M 74.507812 140 L 74.507812 120 L 94.507812 120 L 94.507812 140 Z M 74.507812 140 "/>
<path style=" stroke:none;fill-rule:nonzero;fill:rgb(0%,0%,0%);fill-opacity:1;" d="M 74.507812 100 L 74.507812 80 L 94.507812 80 L 94.507812 100 Z M 74.507812 100 "/>
<path style=" stroke:none;fill-rule:nonzero;fill:rgb(0%,0%,0%);fill-opacity:1;" d="M 74.507812 60 L 74.507812 40 L 94.507812 40 L 94.507812 60 Z M 74.507812 60 "/>
<path style=" stroke:none;fill-rule:nonzero;fill:rgb(0%,0%,0%);fill-opacity:1;" d="M 74.507812 20 L 74.507812 0 L 94.507812 0 L 94.507812 20 Z M 74.507812 20 "/>
<path style=" stroke:none;fill-rule:nonzero;fill:rgb(0%,0%,0%);fill-opacity:1;" d="M 110.507812 220 L 110.507812 200 L 130.507812 200 L 130.507812 220 Z M 110.507812 220 "/>
<path style=" stroke:none;fill-rule:nonzero;fill:rgb(0%,0%,0%);fill-opacity:1;" d="M 110.507812 180 L 110.507812 160 L 130.507812 160 L 130.507812 180 Z M 110.507812 180 "/>
<path style=" stroke:none;fill-rule:nonzero;fill:rgb(0%,0%,0%);fill-opacity:1;" d="M 110.507812 140 L 110.507812 120 L 130.507812 120 L 130.507812 140 Z M 110.507812 140 "/>
<path style=" stroke:none;fill-rule:nonzero;fill:rgb(0%,0%,0%);fill-opacity:1;" d="M 110.507812 100 L 110.507812 80 L 130.507812 80 L 130.507812 100 Z M 110.507812 100 "/>
<path style=" stroke:none;fill-rule:nonzero;fill:rgb(0%,0%,0%);fill-opacity:1;" d="M 110.507812 60 L 110.507812 40 L 130.507812 40 L 130.507812 60 Z M 110.507812 60 "/>
<path style=" stroke:none;fill-rule:nonzero;fill:rgb(0%,0%,0%);fill-opacity:1;" d="M 110.507812 20 L 110.507812 0 L 130.507812 0 L 130.507812 20 Z M 110.507812 20 "/>
<path style=" stroke:none;fill-rule:nonzero;fill:rgb(0%,0%,0%);fill-opacity:1;" d="M 146.507812 220 L 146.507812 200 L 166.507812 200 L 166.507812 220 Z M 146.507812 220 "/>
<path style=" stroke:none;fill-rule:nonzero;fill:rgb(0%,0%,0%);fill-opacity:1;" d="M 146.507812 180 L 146.507812 160 L 166.507812 160 L 166.507812 180 Z M 146.507812 180 "/>
<path style=" stroke:none;fill-rule:nonzero;fill:rgb(0%,0%,0%);fill-opacity:1;" d="M 146.507812 140 L 146.507812 120 L 166.507812 120 L 166.507812 140 Z M 146.507812 140 "/>
<path style=" stroke:none;fill-rule:nonzero;fill:rgb(0%,0%,0%);fill-opacity:1;" d="M 146.507812 100 L 146.507812 80 L 166.507812 80 L 166.507812 100 Z M 146.507812 100 "/>
<path style=" stroke:none;fill-rule:nonzero;fill:rgb(0%,0%,0%);fill-opacity:1;" d="M 146.507812 60 L 146.507812 40 L 166.507812 40 L 166.507812 60 Z M 146.507812 60 "/>
<path style=" stroke:none;fill-rule:nonzero;fill:rgb(0%,0%,0%);fill-opacity:1;" d="M 146.507812 20 L 146.507812 0 L 166.507812 0 L 166.507812 20 Z M 146.507812 20 "/>
<path style=" stroke:none;fill-rule:nonzero;fill:rgb(0%,0%,0%);fill-opacity:1;" d="M 182.507812 220 L 182.507812 200 L 202.507812 200 L 202.507812 220 Z M 182.507812 220 "/>
<path style=" stroke:none;fill-rule:nonzero;fill:rgb(0%,0%,0%);fill-opacity:1;" d="M 182.507812 180 L 182.507812 160 L 202.507812 160 L 202.507812 180 Z M 182.507812 180 "/>
<path style=" stroke:none;fill-rule:nonzero;fill:rgb(0%,0%,0%);fill-opacity:1;" d="M 182.507812 140 L 182.507812 120 L 202.507812 120 L 202.507812 140 Z M 182.507812 140 "/>
<path style=" stroke:none;fill-rule:nonzero;fill:rgb(0%,0%,0%);fill-opacity:1;" d="M 182.507812 100 L 182.507812 80 L 202.507812 80 L 202.507812 100 Z M 182.507812 100 "/>
<path style=" stroke:none;fill-rule:nonzero;fill:rgb(0%,0%,0%);fill-opacity:1;" d="M 182.507812 60 L 182.507812 40 L 202.507812 40 L 202.507812 60 Z M 182.507812 60 "/>
<path style=" stroke:none;fill-rule:nonzero;fill:rgb(0%,0%,0%);fill-opacity:1;" d="M 182.507812 20 L 182.507812 0 L 202.507812 0 L 202.507812 20 Z M 182.507812 20 "/>
<path style=" stroke:none;fill-rule:nonzero;fill:rgb(0%,0%,0%);fill-opacity:1;" d="M 218.507812 220 L 218.507812 200 L 238.507812 200 L 238.507812 220 Z M 218.507812 220 "/>
<path style=" stroke:none;fill-rule:nonzero;fill:rgb(0%,0%,0%);fill-opacity:1;" d="M 218.507812 180 L 218.507812 160 L 238.507812 160 L 238.507812 180 Z M 218.507812 180 "/>
<path style=" stroke:none;fill-rule:nonzero;fill:rgb(0%,0%,0%);fill-opacity:1;" d="M 218.507812 140 L 218.507812 120 L 238.507812 120 L 238.507812 140 Z M 218.507812 140 "/>
<path style=" stroke:none;fill-rule:nonzero;fill:rgb(0%,0%,0%);fill-opacity:1;" d="M 218.507812 100 L 218.507812 80 L 238.507812 80 L 238.507812 100 Z M 218.507812 100 "/>
<path style=" stroke:none;fill-rule:nonzero;fill:rgb(0%,0%,0%);fill-opacity:1;" d="M 218.507812 60 L 218.507812 40 L 238.507812 40 L 238.507812 60 Z M 218.507812 60 "/>
<path style=" stroke:none;fill-rule:nonzero;fill:rgb(0%,0%,0%);fill-opacity:1;" d="M 218.507812 20 L 218.507812 0 L 238.507812 0 L 238.507812 20 Z M 218.507812 20 "/>
<path style=" stroke:none;fill-rule:nonzero;fill:rgb(0%,0%,0%);fill-opacity:1;" d="M 254.507812 220 L 254.507812 200 L 274.507812 200 L 274.507812 220 Z M 254.507812 220 "/>
<path style=" stroke:none;fill-rule:nonzero;fill:rgb(0%,0%,0%);fill-opacity:1;" d="M 254.507812 180 L 254.507812 160 L 274.507812 160 L 274.507812 180 Z M 254.507812 180 "/>
<path style=" stroke:none;fill-rule:nonzero;fill:rgb(0%,0%,0%);fill-opacity:1;" d="M 254.507812 140 L 254.507812 120 L 274.507812 120 L 274.507812 140 Z M 254.507812 140 "/>
<path style=" stroke:none;fill-rule:nonzero;fill:rgb(0%,0%,0%);fill-opacity:1;" d="M 254.507812 100 L 254.507812 80 L 274.507812 80 L 274.507812 100 Z M 254.507812 100 "/>
<path style=" stroke:none;fill-rule:nonzero;fill:rgb(0%,0%,0%);fill-opacity:1;" d="M 254.507812 60 L 254.507812 40 L 274.507812 40 L 274.507812 60 Z M 254.507812 60 "/>
<path style=" stroke:none;fill-rule:nonzero;fill:rgb(0%,0%,0%);fill-opacity:1;" d="M 254.507812 20 L 254.507812 0 L 274.507812 0 L 274.507812 20 Z M 254.507812 20 "/>
<path style=" stroke:none;fill-rule:nonzero;fill:rgb(0%,0%,0%);fill-opacity:1;" d="M 290.507812 220 L 290.507812 200 L 310.507812 200 L 310.507812 220 Z M 290.507812 220 "/>
<path style=" stroke:none;fill-rule:nonzero;fill:rgb(0%,0%,0%);fill-opacity:1;" d="M 290.507812 180 L 290.507812 160 L 310.507812 160 L 310.507812 180 Z M 290.507812 180 "/>
<path style=" stroke:none;fill-rule:nonzero;fill:rgb(0%,0%,0%);fill-opacity:1;" d="M 290.507812 140 L 290.507812 120 L 310.507812 120 L 310.507812 140 Z M 290.507812 140 "/>
<path style=" stroke:none;fill-rule:nonzero;fill:rgb(0%,0%,0%);fill-opacity:1;" d="M 290.507812 100 L 290.507812 80 L 310.507812 80 L 310.507812 100 Z M 290.507812 100 "/>
<path style=" stroke:none;fill-rule:nonzero;fill:rgb(0%,0%,0%);fill-opacity:1;" d="M 290.507812 60 L 290.507812 40 L 310.507812 40 L 310.507812 60 Z M 290.507812 60 "/>
<path style=" stroke:none;fill-rule:nonzero;fill:rgb(0%,0%,0%);fill-opacity:1;" d="M 290.507812 20 L 290.507812 0 L 310.507812 0 L 310.507812 20 Z M 290.507812 20 "/>
<path style=" stroke:none;fill-rule:nonzero;fill:rgb(0%,0%,0%);fill-opacity:1;" d="M 326.507812 220 L 326.507812 200 L 346.507812 200 L 346.507812 220 Z M 326.507812 220 "/>
<path style=" stroke:none;fill-rule:nonzero;fill:rgb(0%,0%,0%);fill-opacity:1;" d="M 326.507812 180 L 326.507812 160 L 346.507812 160 L 346.507812 180 Z M 326.507812 180 "/>
<path style=" stroke:none;fill-rule:nonzero;fill:rgb(0%,0%,0%);fill-opacity:1;" d="M 326.507812 140 L 326.507812 120 L 346.507812 120 L 346.507812 140 Z M 326.507812 140 "/>
<path style=" stroke:none;fill-rule:nonzero;fill:rgb(0%,0%,0%);fill-opacity:1;" d="M 326.507812 100 L 326.507812 80 L 346.507812 80 L 346.507812 100 Z M 326.507812 100 "/>
<path style=" stroke:none;fill-rule:nonzero;fill:rgb(0%,0%,0%);fill-opacity:1;" d="M 326.507812 60 L 326.507812 40 L 346.507812 40 L 346.507812 60 Z M 326.507812 60 "/>
<path style=" stroke:none;fill-rule:nonzero;fill:rgb(0%,0%,0%);fill-opacity:1;" d="M 326.507812 20 L 326.507812 0 L 346.507812 0 L 346.507812 20 Z M 326.507812 20 "/>
<path style=" stroke:none;fill-rule:nonzero;fill:rgb(0%,0%,0%);fill-opacity:1;" d="M 362.507812 220 L 362.507812 200 L 382.507812 200 L 382.507812 220 Z M 362.507812 220 "/>
<path style=" stroke:none;fill-rule:nonzero;fill:rgb(0%,0%,0%);fill-opacity:1;" d="M 362.507812 180 L 362.507812 160 L 382.507812 160 L 382.507812 180 Z M 362.507812 180 "/>
<path style=" stroke:none;fill-rule:nonzero;fill:rgb(0%,0%,0%);fill-opacity:1;" d="M 362.507812 140 L 362.507812 120 L 382.507812 120 L 382.507812 140 Z M 362.507812 140 "/>
<path style=" stroke:none;fill-rule:nonzero;fill:rgb(0%,0%,0%);fill-opacity:1;" d="M 362.507812 100 L 362.507812 80 L 382.507812 80 L 382.507812 100 Z M 362.507812 100 "/>
<path style=" stroke:none;fill-rule:nonzero;fill:rgb(0%,0%,0%);fill-opacity:1;" d="M 362.507812 60 L 362.507812 40 L 382.507812 40 L 382.507812 60 Z M 362.507812 60 "/>
<path style=" stroke:none;fill-rule:nonzero;fill:rgb(0%,0%,0%);fill-opacity:1;" d="M 362.507812 20 L 362.507812 0 L 382.507812 0 L 382.507812 20 Z M 362.507812 20 "/>
<path style=" stroke:none;fill-rule:nonzero;fill:rgb(0%,0%,0%);fill-opacity:1;" d="M 398.507812 220 L 398.507812 200 L 418.507812 200 L 418.507812 220 Z M 398.507812 220 "/>
<path style=" stroke:none;fill-rule:nonzero;fill:rgb(0%,0%,0%);fill-opacity:1;" d="M 398.507812 180 L 398.507812 160 L 418.507812 160 L 418.507812 180 Z M 398.507812 180 "/>
<path style=" stroke:none;fill-rule:nonzero;fill:rgb(0%,0%,0%);fill-opacity:1;" d="M 398.507812 140 L 398.507812 120 L 418.507812 120 L 418.507812 140 Z M 398.507812 140 "/>
<path style=" stroke:none;fill-rule:nonzero;fill:rgb(0%,0%,0%);fill-opacity:1;" d="M 398.507812 100 L 398.507812 80 L 418.507812 80 L 418.507812 100 Z M 398.507812 100 "/>
<path style=" stroke:none;fill-rule:nonzero;fill:rgb(0%,0%,0%);fill-opacity:1;" d="M 398.507812 60 L 398.507812 40 L 418.507812 40 L 418.507812 60 Z M 398.507812 60 "/>
<path style=" stroke:none;fill-rule:nonzero;fill:rgb(0%,0%,0%);fill-opacity:1;" d="M 398.507812 20 L 398.507812 0 L 418.507812 0 L 418.507812 20 Z M 398.507812 20 "/>
<path style=" stroke:none;fill-rule:nonzero;fill:rgb(0%,0%,0%);fill-opacity:1;" d="M -0.15625 200 L -0.15625 180 L 19.84375 180 L 19.84375 200 Z M -0.15625 200 "/>
<path style=" stroke:none;fill-rule:nonzero;fill:rgb(0%,0%,0%);fill-opacity:1;" d="M -0.15625 160 L -0.15625 140 L 19.84375 140 L 19.84375 160 Z M -0.15625 160 "/>
<path style=" stroke:none;fill-rule:nonzero;fill:rgb(0%,0%,0%);fill-opacity:1;" d="M -0.15625 120 L -0.15625 100 L 19.84375 100 L 19.84375 120 Z M -0.15625 120 "/>
<path style=" stroke:none;fill-rule:nonzero;fill:rgb(0%,0%,0%);fill-opacity:1;" d="M -0.15625 80 L -0.15625 60 L 19.84375 60 L 19.84375 80 Z M -0.15625 80 "/>
<path style=" stroke:none;fill-rule:nonzero;fill:rgb(0%,0%,0%);fill-opacity:1;" d="M -0.15625 40 L -0.15625 20 L 19.84375 20 L 19.84375 40 Z M -0.15625 40 "/>
<path style=" stroke:none;fill-rule:nonzero;fill:rgb(0%,0%,0%);fill-opacity:1;" d="M 35.84375 200 L 35.84375 180 L 55.84375 180 L 55.84375 200 Z M 35.84375 200 "/>
<path style=" stroke:none;fill-rule:nonzero;fill:rgb(0%,0%,0%);fill-opacity:1;" d="M 35.84375 160 L 35.84375 140 L 55.84375 140 L 55.84375 160 Z M 35.84375 160 "/>
<path style=" stroke:none;fill-rule:nonzero;fill:rgb(0%,0%,0%);fill-opacity:1;" d="M 35.84375 120 L 35.84375 100 L 55.84375 100 L 55.84375 120 Z M 35.84375 120 "/>
<path style=" stroke:none;fill-rule:nonzero;fill:rgb(0%,0%,0%);fill-opacity:1;" d="M 35.84375 80 L 35.84375 60 L 55.84375 60 L 55.84375 80 Z M 35.84375 80 "/>
<path style=" stroke:none;fill-rule:nonzero;fill:rgb(0%,0%,0%);fill-opacity:1;" d="M 35.84375 40 L 35.84375 20 L 55.84375 20 L 55.84375 40 Z M 35.84375 40 "/>
<path style=" stroke:none;fill-rule:nonzero;fill:rgb(0%,0%,0%);fill-opacity:1;" d="M 71.84375 200 L 71.84375 180 L 91.84375 180 L 91.84375 200 Z M 71.84375 200 "/>
<path style=" stroke:none;fill-rule:nonzero;fill:rgb(0%,0%,0%);fill-opacity:1;" d="M 71.84375 160 L 71.84375 140 L 91.84375 140 L 91.84375 160 Z M 71.84375 160 "/>
<path style=" stroke:none;fill-rule:nonzero;fill:rgb(0%,0%,0%);fill-opacity:1;" d="M 71.84375 120 L 71.84375 100 L 91.84375 100 L 91.84375 120 Z M 71.84375 120 "/>
<path style=" stroke:none;fill-rule:nonzero;fill:rgb(0%,0%,0%);fill-opacity:1;" d="M 71.84375 80 L 71.84375 60 L 91.84375 60 L 91.84375 80 Z M 71.84375 80 "/>
<path style=" stroke:none;fill-rule:nonzero;fill:rgb(0%,0%,0%);fill-opacity:1;" d="M 71.84375 40 L 71.84375 20 L 91.84375 20 L 91.84375 40 Z M 71.84375 40 "/>
<path style=" stroke:none;fill-rule:nonzero;fill:rgb(0%,0%,0%);fill-opacity:1;" d="M 107.84375 200 L 107.84375 180 L 127.84375 180 L 127.84375 200 Z M 107.84375 200 "/>
<path style=" stroke:none;fill-rule:nonzero;fill:rgb(0%,0%,0%);fill-opacity:1;" d="M 107.84375 160 L 107.84375 140 L 127.84375 140 L 127.84375 160 Z M 107.84375 160 "/>
<path style=" stroke:none;fill-rule:nonzero;fill:rgb(0%,0%,0%);fill-opacity:1;" d="M 107.84375 120 L 107.84375 100 L 127.84375 100 L 127.84375 120 Z M 107.84375 120 "/>
<path style=" stroke:none;fill-rule:nonzero;fill:rgb(0%,0%,0%);fill-opacity:1;" d="M 107.84375 80 L 107.84375 60 L 127.84375 60 L 127.84375 80 Z M 107.84375 80 "/>
<path style=" stroke:none;fill-rule:nonzero;fill:rgb(0%,0%,0%);fill-opacity:1;" d="M 107.84375 40 L 107.84375 20 L 127.84375 20 L 127.84375 40 Z M 107.84375 40 "/>
<path style=" stroke:none;fill-rule:nonzero;fill:rgb(0%,0%,0%);fill-opacity:1;" d="M 143.84375 200 L 143.84375 180 L 163.84375 180 L 163.84375 200 Z M 143.84375 200 "/>
<path style=" stroke:none;fill-rule:nonzero;fill:rgb(0%,0%,0%);fill-opacity:1;" d="M 143.84375 160 L 143.84375 140 L 163.84375 140 L 163.84375 160 Z M 143.84375 160 "/>
<path style=" stroke:none;fill-rule:nonzero;fill:rgb(0%,0%,0%);fill-opacity:1;" d="M 143.84375 120 L 143.84375 100 L 163.84375 100 L 163.84375 120 Z M 143.84375 120 "/>
<path style=" stroke:none;fill-rule:nonzero;fill:rgb(0%,0%,0%);fill-opacity:1;" d="M 143.84375 80 L 143.84375 60 L 163.84375 60 L 163.84375 80 Z M 143.84375 80 "/>
<path style=" stroke:none;fill-rule:nonzero;fill:rgb(0%,0%,0%);fill-opacity:1;" d="M 143.84375 40 L 143.84375 20 L 163.84375 20 L 163.84375 40 Z M 143.84375 40 "/>
<path style=" stroke:none;fill-rule:nonzero;fill:rgb(0%,0%,0%);fill-opacity:1;" d="M 179.84375 200 L 179.84375 180 L 199.84375 180 L 199.84375 200 Z M 179.84375 200 "/>
<path style=" stroke:none;fill-rule:nonzero;fill:rgb(0%,0%,0%);fill-opacity:1;" d="M 179.84375 160 L 179.84375 140 L 199.84375 140 L 199.84375 160 Z M 179.84375 160 "/>
<path style=" stroke:none;fill-rule:nonzero;fill:rgb(0%,0%,0%);fill-opacity:1;" d="M 179.84375 120 L 179.84375 100 L 199.84375 100 L 199.84375 120 Z M 179.84375 120 "/>
<path style=" stroke:none;fill-rule:nonzero;fill:rgb(0%,0%,0%);fill-opacity:1;" d="M 179.84375 80 L 179.84375 60 L 199.84375 60 L 199.84375 80 Z M 179.84375 80 "/>
<path style=" stroke:none;fill-rule:nonzero;fill:rgb(0%,0%,0%);fill-opacity:1;" d="M 179.84375 40 L 179.84375 20 L 199.84375 20 L 199.84375 40 Z M 179.84375 40 "/>
<path style=" stroke:none;fill-rule:nonzero;fill:rgb(0%,0%,0%);fill-opacity:1;" d="M 215.84375 200 L 215.84375 180 L 235.84375 180 L 235.84375 200 Z M 215.84375 200 "/>
<path style=" stroke:none;fill-rule:nonzero;fill:rgb(0%,0%,0%);fill-opacity:1;" d="M 215.84375 160 L 215.84375 140 L 235.84375 140 L 235.84375 160 Z M 215.84375 160 "/>
<path style=" stroke:none;fill-rule:nonzero;fill:rgb(0%,0%,0%);fill-opacity:1;" d="M 215.84375 120 L 215.84375 100 L 235.84375 100 L 235.84375 120 Z M 215.84375 120 "/>
<path style=" stroke:none;fill-rule:nonzero;fill:rgb(0%,0%,0%);fill-opacity:1;" d="M 215.84375 80 L 215.84375 60 L 235.84375 60 L 235.84375 80 Z M 215.84375 80 "/>
<path style=" stroke:none;fill-rule:nonzero;fill:rgb(0%,0%,0%);fill-opacity:1;" d="M 215.84375 40 L 215.84375 20 L 235.84375 20 L 235.84375 40 Z M 215.84375 40 "/>
<path style=" stroke:none;fill-rule:nonzero;fill:rgb(0%,0%,0%);fill-opacity:1;" d="M 251.84375 200 L 251.84375 180 L 271.84375 180 L 271.84375 200 Z M 251.84375 200 "/>
<path style=" stroke:none;fill-rule:nonzero;fill:rgb(0%,0%,0%);fill-opacity:1;" d="M 251.84375 160 L 251.84375 140 L 271.84375 140 L 271.84375 160 Z M 251.84375 160 "/>
<path style=" stroke:none;fill-rule:nonzero;fill:rgb(0%,0%,0%);fill-opacity:1;" d="M 251.84375 120 L 251.84375 100 L 271.84375 100 L 271.84375 120 Z M 251.84375 120 "/>
<path style=" stroke:none;fill-rule:nonzero;fill:rgb(0%,0%,0%);fill-opacity:1;" d="M 251.84375 80 L 251.84375 60 L 271.84375 60 L 271.84375 80 Z M 251.84375 80 "/>
<path style=" stroke:none;fill-rule:nonzero;fill:rgb(0%,0%,0%);fill-opacity:1;" d="M 251.84375 40 L 251.84375 20 L 271.84375 20 L 271.84375 40 Z M 251.84375 40 "/>
<path style=" stroke:none;fill-rule:nonzero;fill:rgb(0%,0%,0%);fill-opacity:1;" d="M 287.84375 200 L 287.84375 180 L 307.84375 180 L 307.84375 200 Z M 287.84375 200 "/>
<path style=" stroke:none;fill-rule:nonzero;fill:rgb(0%,0%,0%);fill-opacity:1;" d="M 287.84375 160 L 287.84375 140 L 307.84375 140 L 307.84375 160 Z M 287.84375 160 "/>
<path style=" stroke:none;fill-rule:nonzero;fill:rgb(0%,0%,0%);fill-opacity:1;" d="M 287.84375 120 L 287.84375 100 L 307.84375 100 L 307.84375 120 Z M 287.84375 120 "/>
<path style=" stroke:none;fill-rule:nonzero;fill:rgb(0%,0%,0%);fill-opacity:1;" d="M 287.84375 80 L 287.84375 60 L 307.84375 60 L 307.84375 80 Z M 287.84375 80 "/>
<path style=" stroke:none;fill-rule:nonzero;fill:rgb(0%,0%,0%);fill-opacity:1;" d="M 287.84375 40 L 287.84375 20 L 307.84375 20 L 307.84375 40 Z M 287.84375 40 "/>
<path style=" stroke:none;fill-rule:nonzero;fill:rgb(0%,0%,0%);fill-opacity:1;" d="M 323.84375 200 L 323.84375 180 L 343.84375 180 L 343.84375 200 Z M 323.84375 200 "/>
<path style=" stroke:none;fill-rule:nonzero;fill:rgb(0%,0%,0%);fill-opacity:1;" d="M 323.84375 160 L 323.84375 140 L 343.84375 140 L 343.84375 160 Z M 323.84375 160 "/>
<path style=" stroke:none;fill-rule:nonzero;fill:rgb(0%,0%,0%);fill-opacity:1;" d="M 323.84375 120 L 323.84375 100 L 343.84375 100 L 343.84375 120 Z M 323.84375 120 "/>
<path style=" stroke:none;fill-rule:nonzero;fill:rgb(0%,0%,0%);fill-opacity:1;" d="M 323.84375 80 L 323.84375 60 L 343.84375 60 L 343.84375 80 Z M 323.84375 80 "/>
<path style=" stroke:none;fill-rule:nonzero;fill:rgb(0%,0%,0%);fill-opacity:1;" d="M 323.84375 40 L 323.84375 20 L 343.84375 20 L 343.84375 40 Z M 323.84375 40 "/>
<path style=" stroke:none;fill-rule:nonzero;fill:rgb(0%,0%,0%);fill-opacity:1;" d="M 359.84375 200 L 359.84375 180 L 379.84375 180 L 379.84375 200 Z M 359.84375 200 "/>
<path style=" stroke:none;fill-rule:nonzero;fill:rgb(0%,0%,0%);fill-opacity:1;" d="M 359.84375 160 L 359.84375 140 L 379.84375 140 L 379.84375 160 Z M 359.84375 160 "/>
<path style=" stroke:none;fill-rule:nonzero;fill:rgb(0%,0%,0%);fill-opacity:1;" d="M 359.84375 120 L 359.84375 100 L 379.84375 100 L 379.84375 120 Z M 359.84375 120 "/>
<path style=" stroke:none;fill-rule:nonzero;fill:rgb(0%,0%,0%);fill-opacity:1;" d="M 359.84375 80 L 359.84375 60 L 379.84375 60 L 379.84375 80 Z M 359.84375 80 "/>
<path style=" stroke:none;fill-rule:nonzero;fill:rgb(0%,0%,0%);fill-opacity:1;" d="M 359.84375 40 L 359.84375 20 L 379.84375 20 L 379.84375 40 Z M 359.84375 40 "/>
<path style=" stroke:none;fill-rule:nonzero;fill:rgb(0%,0%,0%);fill-opacity:1;" d="M 395.84375 200 L 395.84375 180 L 415.84375 180 L 415.84375 200 Z M 395.84375 200 "/>
<path style=" stroke:none;fill-rule:nonzero;fill:rgb(0%,0%,0%);fill-opacity:1;" d="M 395.84375 160 L 395.84375 140 L 415.84375 140 L 415.84375 160 Z M 395.84375 160 "/>
<path style=" stroke:none;fill-rule:nonzero;fill:rgb(0%,0%,0%);fill-opacity:1;" d="M 395.84375 120 L 395.84375 100 L 415.84375 100 L 415.84375 120 Z M 395.84375 120 "/>
<path style=" stroke:none;fill-rule:nonzero;fill:rgb(0%,0%,0%);fill-opacity:1;" d="M 395.84375 80 L 395.84375 60 L 415.84375 60 L 415.84375 80 Z M 395.84375 80 "/>
<path style=" stroke:none;fill-rule:nonzero;fill:rgb(0%,0%,0%);fill-opacity:1;" d="M 395.84375 40 L 395.84375 20 L 415.84375 20 L 415.84375 40 Z M 395.84375 40 "/>
<path style="fill:none;stroke-width:1;stroke-linecap:square;stroke-linejoin:miter;stroke:rgb(100%,0%,0%);stroke-opacity:1;stroke-miterlimit:3.25;" d="M 0 220 L 400 220 "/>
<path style="fill:none;stroke-width:1;stroke-linecap:square;stroke-linejoin:miter;stroke:rgb(100%,0%,0%);stroke-opacity:1;stroke-miterlimit:3.25;" d="M 0 200 L 400 200 "/>
<path style="fill:none;stroke-width:1;stroke-linecap:square;stroke-linejoin:miter;stroke:rgb(100%,0%,0%);stroke-opacity:1;stroke-miterlimit:3.25;" d="M 0 180 L 400 180 "/>
<path style="fill:none;stroke-width:1;stroke-linecap:square;stroke-linejoin:miter;stroke:rgb(100%,0%,0%);stroke-opacity:1;stroke-miterlimit:3.25;" d="M 0 160 L 400 160 "/>
<path style="fill:none;stroke-width:1;stroke-linecap:square;stroke-linejoin:miter;stroke:rgb(100%,0%,0%);stroke-opacity:1;stroke-miterlimit:3.25;" d="M 0 140 L 400 140 "/>
<path style="fill:none;stroke-width:1;stroke-linecap:square;stroke-linejoin:miter;stroke:rgb(100%,0%,0%);stroke-opacity:1;stroke-miterlimit:3.25;" d="M 0 120 L 400 120 "/>
<path style="fill:none;stroke-width:1;stroke-linecap:square;stroke-linejoin:miter;stroke:rgb(100%,0%,0%);stroke-opacity:1;stroke-miterlimit:3.25;" d="M 0 100 L 400 100 "/>
<path style="fill:none;stroke-width:1;stroke-linecap:square;stroke-linejoin:miter;stroke:rgb(100%,0%,0%);stroke-opacity:1;stroke-miterlimit:3.25;" d="M 0 80 L 400 80 "/>
<path style="fill:none;stroke-width:1;stroke-linecap:square;stroke-linejoin:miter;stroke:rgb(100%,0%,0%);stroke-opacity:1;stroke-miterlimit:3.25;" d="M 0 60 L 400 60 "/>
<path style="fill:none;stroke-width:1;stroke-linecap:square;stroke-linejoin:miter;stroke:rgb(100%,0%,0%);stroke-opacity:1;stroke-miterlimit:3.25;" d="M 0 40 L 400 40 "/>
<path style="fill:none;stroke-width:1;stroke-linecap:square;stroke-linejoin:miter;stroke:rgb(100%,0%,0%);stroke-opacity:1;stroke-miterlimit:3.25;" d="M 0 20 L 400 20 "/>
</g>
</svg>
