<?xml version="1.0" encoding="UTF-8"?>
<svg xmlns="http://www.w3.org/2000/svg" xmlns:xlink="http://www.w3.org/1999/xlink" width="400pt" height="220pt" viewBox="0 0 400 220" version="1.1">
<g id="surface581">
<rect x="0" y="0" width="400" height="220" style="fill:rgb(0%,40%,100%);fill-opacity:0.2;stroke:none;"/>
<path style=" stroke:none;fill-rule:nonzero;fill:rgb(0%,0%,0%);fill-opacity:1;" d="M 17.527344 220 L 17.527344 200 L 37.527344 200 L 37.527344 220 Z M 17.527344 220 "/>
<path style=" stroke:none;fill-rule:nonzero;fill:rgb(0%,0%,0%);fill-opacity:1;" d="M 17.527344 180 L 17.527344 160 L 37.527344 160 L 37.527344 180 Z M 17.527344 180 "/>
<path style=" stroke:none;fill-rule:nonzero;fill:rgb(0%,0%,0%);fill-opacity:1;" d="M 17.527344 140 L 17.527344 120 L 37.527344 120 L 37.527344 140 Z M 17.527344 140 "/>
<path style=" stroke:none;fill-rule:nonzero;fill:rgb(0%,0%,0%);fill-opacity:1;" d="M 17.527344 100 L 17.527344 80 L 37.527344 80 L 37.527344 100 Z M 17.527344 100 "/>
<path style=" stroke:none;fill-rule:nonzero;fill:rgb(0%,0%,0%);fill-opacity:1;" d="M 17.527344 60 L 17.527344 40 L 37.527344 40 L 37.527344 60 Z M 17.527344 60 "/>
<path style=" stroke:none;fill-rule:nonzero;fill:rgb(0%,0%,0%);fill-opacity:1;" d="M 17.527344 20 L 17.527344 0 L 37.527344 0 L 37.527344 20 Z M 17.527344 20 "/>
<path style=" stroke:none;fill-rule:nonzero;fill:rgb(0%,0%,0%);fill-opacity:1;" d="M 53.527344 220 L 53.527344 200 L 73.527344 200 L 73.527344 220 Z M 53.527344 220 "/>
<path style=" stroke:none;fill-rule:nonzero;fill:rgb(0%,0%,0%);fill-opacity:1;" d="M 53.527344 180 L 53.527344 160 L 73.527344 160 L 73.527344 180 Z M 53.527344 180 "/>
<path style=" stroke:none;fill-rule:nonzero;fill:rgb(0%,0%,0%);fill-opacity:1;" d="M 53.527344 140 L 53.527344 120 L 73.527344 120 L 73.527344 140 Z M 53.527344 140 "/>
<path style=" stroke:none;fill-rule:nonzero;fill:rgb(0%,0%,0%);fill-opacity:1;" d="M 53.527344 100 L 53.527344 80 L 73.527344 80 L 73.527344 100 Z M 53.527344 100 "/>
<path style=" stroke:none;fill-rule:nonzero;fill:rgb(0%,0%,0%);fill-opacity:1;" d="M 53.527344 60 L 53.527344 40 L 73.527344 40 L 73.527344 60 Z M 53.527344 60 "/>
<path style=" stroke:none;fill-rule:nonzero;fill:rgb(0%,0%,0%);fill-opacity:1;" d="M 53.527344 20 L 53.527344 0 L 73.527344 0 L 73.527344 20 Z M 53.527344 20 "/>
<path style=" stroke:none;fill-rule:nonzero;fill:rgb(0%,0%,0%);fill-opacity:1;" d="M 89.527344 220 L 89.527344 200 L 109.527344 200 L 109.527344 220 Z M 89.527344 220 "/>
<path style=" stroke:none;fill-rule:nonzero;fill:rgb(0%,0%,0%);fill-opacity:1;" d="M 89.527344 180 L 89.527344 160 L 109.527344 160 L 109.527344 180 Z M 89.527344 180 "/>
<path style=" stroke:none;fill-rule:nonzero;fill:rgb(0%,0%,0%);fill-opacity:1;" d="M 89.527344 140 L 89.527344 120 L 109.527344 120 L 109.527344 140 Z M 89.527344 140 "/>
<path style=" stroke:none;fill-rule:nonzero;fill:rgb(0%,0%,0%);fill-opacity:1;" d="M 89.527344 100 L 89.527344 80 L 109.527344 80 L 109.527344 100 Z M 89.527344 100 "/>
<path style=" stroke:none;fill-rule:nonzero;fill:rgb(0%,0%,0%);fill-opacity:1;" d="M 89.527344 60 L 89.527344 40 L 109.527344 40 L 109.527344 60 Z M 89.527344 60 "/>
<path style=" stroke:none;fill-rule:nonzero;fill:rgb(0%,0%,0%);fill-opacity:1;" d="M 89.527344 20 L 89.527344 0 L 109.527344 0 L 109.527344 20 Z M 89.527344 20 "/>
<path style=" stroke:none;fill-rule:nonzero;fill:rgb(0%,0%,0%);fill-opacity:1;" d="M 125.527344 220 L 125.527344 200 L 145.527344 200 L 145.527344 220 Z M 125.527344 220 "/>
<path style=" stroke:none;fill-rule:nonzero;fill:rgb(0%,0%,0%);fill-opacity:1;" d="M 125.527344 180 L 125.527344 160 L 145.527344 160 L 145.527344 180 Z M 125.527344 180 "/>
<path style=" stroke:none;fill-rule:nonzero;fill:rgb(0%,0%,0%);fill-opacity:1;" d="M 125.527344 140 L 125.527344 120 L 145.527344 120 L 145.527344 140 Z M 125.527344 140 "/>
<path style=" stroke:none;fill-rule:nonzero;fill:rgb(0%,0%,0%);fill-opacity:1;" d="M 125.527344 100 L 125.527344 80 L 145.527344 80 L 145.527344 100 Z M 125.527344 100 "/>
<path style=" stroke:none;fill-rule:nonzero;fill:rgb(0%,0%,0%);fill-opacity:1;" d="M 125.527344 60 L 125.527344 40 L 145.527344 40 L 145.527344 60 Z M 125.527344 60 "/>
<path style=" stroke:none;fill-rule:nonzero;fill:rgb(0%,0%,0%);fill-opacity:1;" d="M 125.527344 20 L 125.527344 0 L 145.527344 0 L 145.527344 20 Z M 125.527344 20 "/>
<path style=" stroke:none;fill-rule:nonzero;fill:rgb(0%,0%,0%);fill-opacity:1;" d="M 161.527344 220 L 161.527344 200 L 181.527344 200 L 181.527344 220 Z M 161.527344 220 "/>
<path style=" stroke:none;fill-rule:nonzero;fill:rgb(0%,0%,0%);fill-opacity:1;" d="M 161.527344 180 L 161.527344 160 L 181.527344 160 L 181.527344 180 Z M 161.527344 180 "/>
<path style=" stroke:none;fill-rule:nonzero;fill:rgb(0%,0%,0%);fill-opacity:1;" d="M 161.527344 140 L 161.527344 120 L 181.527344 120 L 181.527344 140 Z M 161.527344 140 "/>
<path style=" stroke:none;fill-rule:nonzero;fill:rgb(0%,0%,0%);fill-opacity:1;" d="M 161.527344 100 L 161.527344 80 L 181.527344 80 L 181.527344 100 Z M 161.527344 100 "/>
<path style=" stroke:none;fill-rule:nonzero;fill:rgb(0%,0%,0%);fill-opacity:1;" d="M 161.527344 60 L 161.527344 40 L 181.527344 40 L 181.527344 60 Z M 161.527344 60 "/>
<path style=" stroke:none;fill-rule:nonzero;fill:rgb(0%,0%,0%);fill-opacity:1;" d="M 161.527344 20 L 161.527344 0 L 181.527344 0 L 181.527344 20 Z M 161.527344 20 "/>
<path style=" stroke:none;fill-rule:nonzero;fill:rgb(0%,0%,0%);fill-opacity:1;" d="M 197.527344 220 L 197.527344 200 L 217.527344 200 L 217.527344 220 Z M 197.527344 220 "/>
<path style=" stroke:none;fill-rule:nonzero;fill:rgb(0%,0%,0%);fill-opacity:1;" d="M 197.527344 180 L 197.527344 160 L 217.527344 160 L 217.527344 180 Z M 197.527344 180 "/>
<path style=" stroke:none;fill-rule:nonzero;fill:rgb(0%,0%,0%);fill-opacity:1;" d="M 197.527344 140 L 197.527344 120 L 217.527344 120 L 217.527344 140 Z M 197.527344 140 "/>
<path style=" stroke:none;fill-rule:nonzero;fill:rgb(0%,0%,0%);fill-opacity:1;" d="M 197.527344 100 L 197.527344 80 L 217.527344 80 L 217.527344 100 Z M 197.527344 100 "/>
<path style=" stroke:none;fill-rule:nonzero;fill:rgb(0%,0%,0%);fill-opacity:1;" d="M 197.527344 60 L 197.527344 40 L 217.527344 40 L 217.527344 60 Z M 197.527344 60 "/>
<path style=" stroke:none;fill-rule:nonzero;fill:rgb(0%,0%,0%);fill-opacity:1;" d="M 197.527344 20 L 197.527344 0 L 217.527344 0 L 217.527344 20 Z M 197.527344 20 "/>
<path style=" stroke:none;fill-rule:nonzero;fill:rgb(0%,0%,0%);fill-opacity:1;" d="M 233.527344 220 L 233.527344 200 L 253.527344 200 L 253.527344 220 Z M 233.527344 220 "/>
<path style=" stroke:none;fill-rule:nonzero;fill:rgb(0%,0%,0%);fill-opacity:1;" d="M 233.527344 180 L 233.527344 160 L 253.527344 160 L 253.527344 180 Z M 233.527344 180 "/>
<path style=" stroke:none;fill-rule:nonzero;fill:rgb(0%,0%,0%);fill-opacity:1;" d="M 233.527344 140 L 233.527344 120 L 253.527344 120 L 253.527344 140 Z M 233.527344 140 "/>
<path style=" stroke:none;fill-rule:nonzero;fill:rgb(0%,0%,0%);fill-opacity:1;" d="M 233.527344 100 L 233.527344 80 L 253.527344 80 L 253.527344 100 Z M 233.527344 100 "/>
<path style=" stroke:none;fill-rule:nonzero;fill:rgb(0%,0%,0%);fill-opacity:1;" d="M 233.527344 60 L 233.527344 40 L 253.527344 40 L 253.527344 60 Z M 233.527344 60 "/>
<path style=" stroke:none;fill-rule:nonzero;fill:rgb(0%,0%,0%);fill-opacity:1;" d="M 233.527344 20 L 233.527344 0 L 253.527344 0 L 253.527344 20 Z M 233.527344 20 "/>
<path style=" stroke:none;fill-rule:nonzero;fill:rgb(0%,0%,0%);fill-opacity:1;" d="M 269.527344 220 L 269.527344 200 L 289.527344 200 L 289.527344 220 Z M 269.527344 220 "/>
<path style=" stroke:none;fill-rule:nonzero;fill:rgb(0%,0%,0%);fill-opacity:1;" d="M 269.527344 180 L 269.527344 160 L 289.527344 160 L 289.527344 180 Z M 269.527344 180 "/>
<path style=" stroke:none;fill-rule:nonzero;fill:rgb(0%,0%,0%);fill-opacity:1;" d="M 269.527344 140 L 269.527344 120 L 289.527344 120 L 289.527344 140 Z M 269.527344 140 "/>
<path style=" stroke:none;fill-rule:nonzero;fill:rgb(0%,0%,0%);fill-opacity:1;" d="M 269.527344 100 L 269.527344 80 L 289.527344 80 L 289.527344 100 Z M 269.527344 100 "/>
<path style=" stroke:none;fill-rule:nonzero;fill:rgb(0%,0%,0%);fill-opacity:1;" d="M 269.527344 60 L 269.527344 40 L 289.527344 40 L 289.527344 60 Z M 269.527344 60 "/>
<path style=" stroke:none;fill-rule:nonzero;fill:rgb(0%,0%,0%);fill-opacity:1;" d="M 269.527344 20 L 269.527344 0 L 289.527344 0 L 289.527344 20 Z M 269.527344 20 "/>
<path style=" stroke:none;fill-rule:nonzero;fill:rgb(0%,0%,0%);fill-opacity:1;" d="M 305.527344 220 L 305.527344 200 L 325.527344 200 L 325.527344 220 Z M 305.527344 220 "/>
<path style=" stroke:none;fill-rule:nonzero;fill:rgb(0%,0%,0%);fill-opacity:1;" d="M 305.527344 180 L 305.527344 160 L 325.527344 160 L 325.527344 180 Z M 305.527344 180 "/>
<path style=" stroke:none;fill-rule:nonzero;fill:rgb(0%,0%,0%);fill-opacity:1;" d="M 305.527344 140 L 305.527344 120 L 325.527344 120 L 325.527344 140 Z M 305.527344 140 "/>
<path style=" stroke:none;fill-rule:nonzero;fill:rgb(0%,0%,0%);fill-opacity:1;" d="M 305.527344 100 L 305.527344 80 L 325.527344 80 L 325.527344 100 Z M 305.527344 100 "/>
<path style=" stroke:none;fill-rule:nonzero;fill:rgb(0%,0%,0%);fill-opacity:1;" d="M 305.527344 60 L 305.527344 40 L 325.527344 40 L 325.527344 60 Z M 305.527344 60 "/>
<path style=" stroke:none;fill-rule:nonzero;fill:rgb(0%,0%,0%);fill-opacity:1;" d="M 305.527344 20 L 305.527344 0 L 325.527344 0 L 325.527344 20 Z M 305.527344 20 "/>
<path style=" stroke:none;fill-rule:nonzero;fill:rgb(0%,0%,0%);fill-opacity:1;" d="M 341.527344 220 L 341.527344 200 L 361.527344 200 L 361.527344 220 Z M 341.527344 220 "/>
<path style=" stroke:none;fill-rule:nonzero;fill:rgb(0%,0%,0%);fill-opacity:1;" d="M 341.527344 180 L 341.527344 160 L 361.527344 160 L 361.527344 180 Z M 341.527344 180 "/>
<path style=" stroke:none;fill-rule:nonzero;fill:rgb(0%,0%,0%);fill-opacity:1;" d="M 341.527344 140 L 341.527344 120 L 361.527344 120 L 361.527344 140 Z M 341.527344 140 "/>
<path style=" stroke:none;fill-rule:nonzero;fill:rgb(0%,0%,0%);fill-opacity:1;" d="M 341.527344 100 L 341.527344 80 L 361.527344 80 L 361.527344 100 Z M 341.527344 100 "/>
<path style=" stroke:none;fill-rule:nonzero;fill:rgb(0%,0%,0%);fill-opacity:1;" d="M 341.527344 60 L 341.527344 40 L 361.527344 40 L 361.527344 60 Z M 341.527344 60 "/>
<path style=" stroke:none;fill-rule:nonzero;fill:rgb(0%,0%,0%);fill-opacity:1;" d="M 341.527344 20 L 341.527344 0 L 361.527344 0 L 361.527344 20 Z M 341.527344 20 "/>
<path style=" stroke:none;fill-rule:nonzero;fill:rgb(0%,0%,0%);fill-opacity:1;" d="M 377.527344 220 L 377.527344 200 L 397.527344 200 L 397.527344 220 Z M 377.527344 220 "/>
<path style=" stroke:none;fill-rule:nonzero;fill:rgb(0%,0%,0%);fill-opacity:1;" d="M 377.527344 180 L 377.527344 160 L 397.527344 160 L 397.527344 180 Z M 377.527344 180 "/>
<path style=" stroke:none;fill-rule:nonzero;fill:rgb(0%,0%,0%);fill-opacity:1;" d="M 377.527344 140 L 377.527344 120 L 397.527344 120 L 397.527344 140 Z M 377.527344 140 "/>
<path style=" stroke:none;fill-rule:nonzero;fill:rgb(0%,0%,0%);fill-opacity:1;" d="M 377.527344 100 L 377.527344 80 L 397.527344 80 L 397.527344 100 Z M 377.527344 100 "/>
<path style=" stroke:none;fill-rule:nonzero;fill:rgb(0%,0%,0%);fill-opacity:1;" d="M 377.527344 60 L 377.527344 40 L 397.527344 40 L 397.527344 60 Z M 377.527344 60 "/>
<path style=" stroke:none;fill-rule:nonzero;fill:rgb(0%,0%,0%);fill-opacity:1;" d="M 377.527344 20 L 377.527344 0 L 397.527344 0 L 397.527344 20 Z M 377.527344 20 "/>
<path style=" stroke:none;fill-rule:nonzero;fill:rgb(0%,0%,0%);fill-opacity:1;" d="M 6.363281 200 L 6.363281 180 L 26.363281 180 L 26.363281 200 Z M 6.363281 200 "/>
<path style=" stroke:none;fill-rule:nonzero;fill:rgb(0%,0%,0%);fill-opacity:1;" d="M 6.363281 160 L 6.363281 140 L 26.363281 140 L 26.363281 160 Z M 6.363281 160 "/>
<path style=" stroke:none;fill-rule:nonzero;fill:rgb(0%,0%,0%);fill-opacity:1;" d="M 6.363281 120 L 6.363281 100 L 26.363281 100 L 26.363281 120 Z M 6.363281 120 "/>
<path style=" stroke:none;fill-rule:nonzero;fill:rgb(0%,0%,0%);fill-opacity:1;" d="M 6.363281 80 L 6.363281 60 L 26.363281 60 L 26.363281 80 Z M 6.363281 80 "/>
<path style=" stroke:none;fill-rule:nonzero;fill:rgb(0%,0%,0%);fill-opacity:1;" d="M 6.363281 40 L 6.363281 20 L 26.363281 20 L 26.363281 40 Z M 6.363281 40 "/>
<path style=" stroke:none;fill-rule:nonzero;fill:rgb(0%,0%,0%);fill-opacity:1;" d="M 42.363281 200 L 42.363281 180 L 62.363281 180 L 62.363281 200 Z M 42.363281 200 "/>
<path style=" stroke:none;fill-rule:nonzero;fill:rgb(0%,0%,0%);fill-opacity:1;" d="M 42.363281 160 L 42.363281 140 L 62.363281 140 L 62.363281 160 Z M 42.363281 160 "/>
<path style=" stroke:none;fill-rule:nonzero;fill:rgb(0%,0%,0%);fill-opacity:1;" d="M 42.363281 120 L 42.363281 100 L 62.363281 100 L 62.363281 120 Z M 42.363281 120 "/>
<path style=" stroke:none;fill-rule:nonzero;fill:rgb(0%,0%,0%);fill-opacity:1;" d="M 42.363281 80 L 42.363281 60 L 62.363281 60 L 62.363281 80 Z M 42.363281 80 "/>
<path style=" stroke:none;fill-rule:nonzero;fill:rgb(0%,0%,0%);fill-opacity:1;" d="M 42.363281 40 L 42.363281 20 L 62.363281 20 L 62.363281 40 Z M 42.363281 40 "/>
<path style=" stroke:none;fill-rule:nonzero;fill:rgb(0%,0%,0%);fill-opacity:1;" d="M 78.363281 200 L 78.363281 180 L 98.363281 180 L 98.363281 200 Z M 78.363281 200 "/>
<path style=" stroke:none;fill-rule:nonzero;fill:rgb(0%,0%,0%);fill-opacity:1;" d="M 78.363281 160 L 78.363281 140 L 98.363281 140 L 98.363281 160 Z M 78.363281 160 "/>
<path style=" stroke:none;fill-rule:nonzero;fill:rgb(0%,0%,0%);fill-opacity:1;" d="M 78.363281 120 L 78.363281 100 L 98.363281 100 L 98.363281 120 Z M 78.363281 120 "/>
<path style=" stroke:none;fill-rule:nonzero;fill:rgb(0%,0%,0%);fill-opacity:1;" d="M 78.363281 80 L 78.363281 60 L 98.363281 60 L 98.363281 80 Z M 78.363281 80 "/>
<path style=" stroke:none;fill-rule:nonzero;fill:rgb(0%,0%,0%);fill-opacity:1;" d="M 78.363281 40 L 78.363281 20 L 98.363281 20 L 98.363281 40 Z M 78.363281 40 "/>
<path style=" stroke:none;fill-rule:nonzero;fill:rgb(0%,0%,0%);fill-opacity:1;" d="M 114.363281 200 L 114.363281 180 L 134.363281 180 L 134.363281 200 Z M 114.363281 200 "/>
<path style=" stroke:none;fill-rule:nonzero;fill:rgb(0%,0%,0%);fill-opacity:1;" d="M 114.363281 160 L 114.363281 140 L 134.363281 140 L 134.363281 160 Z M 114.363281 160 "/>
<path style=" stroke:none;fill-rule:nonzero;fill:rgb(0%,0%,0%);fill-opacity:1;" d="M 114.363281 120 L 114.363281 100 L 134.363281 100 L 134.363281 120 Z M 114.363281 120 "/>
<path style=" stroke:none;fill-rule:nonzero;fill:rgb(0%,0%,0%);fill-opacity:1;" d="M 114.363281 80 L 114.363281 60 L 134.363281 60 L 134.363281 80 Z M 114.363281 80 "/>
<path style=" stroke:none;fill-rule:nonzero;fill:rgb(0%,0%,0%);fill-opacity:1;" d="M 114.363281 40 L 114.363281 20 L 134.363281 20 L 134.363281 40 Z M 114.363281 40 "/>
<path style=" stroke:none;fill-rule:nonzero;fill:rgb(0%,0%,0%);fill-opacity:1;" d="M 150.363281 200 L 150.363281 180 L 170.363281 180 L 170.363281 200 Z M 150.363281 200 "/>
<path style=" stroke:none;fill-rule:nonzero;fill:rgb(0%,0%,0%);fill-opacity:1;" d="M 150.363281 160 L 150.363281 140 L 170.363281 140 L 170.363281 160 Z M 150.363281 160 "/>
<path style=" stroke:none;fill-rule:nonzero;fill:rgb(0%,0%,0%);fill-opacity:1;" d="M 150.363281 120 L 150.363281 100 L 170.363281 100 L 170.363281 120 Z M 150.363281 120 "/>
<path style=" stroke:none;fill-rule:nonzero;fill:rgb(0%,0%,0%);fill-opacity:1;" d="M 150.363281 80 L 150.363281 60 L 170.363281 60 L 170.363281 80 Z M 150.363281 80 "/>
<path style=" stroke:none;fill-rule:nonzero;fill:rgb(0%,0%,0%);fill-opacity:1;" d="M 150.363281 40 L 150.363281 20 L 170.363281 20 L 170.363281 40 Z M 150.363281 40 "/>
<path style=" stroke:none;fill-rule:nonzero;fill:rgb(0%,0%,0%);fill-opacity:1;" d="M 186.363281 200 L 186.363281 180 L 206.363281 180 L 206.363281 200 Z M 186.363281 200 "/>
<path style=" stroke:none;fill-rule:nonzero;fill:rgb(0%,0%,0%);fill-opacity:1;" d="M 186.363281 160 L 186.363281 140 L 206.363281 140 L 206.363281 160 Z M 186.363281 160 "/>
<path style=" stroke:none;fill-rule:nonzero;fill:rgb(0%,0%,0%);fill-opacity:1;" d="M 186.363281 120 L 186.363281 100 L 206.363281 100 L 206.363281 120 Z M 186.363281 120 "/>
<path style=" stroke:none;fill-rule:nonzero;fill:rgb(0%,0%,0%);fill-opacity:1;" d="M 186.363281 80 L 186.363281 60 L 206.363281 60 L 206.363281 80 Z M 186.363281 80 "/>
<path style=" stroke:none;fill-rule:nonzero;fill:rgb(0%,0%,0%);fill-opacity:1;" d="M 186.363281 40 L 186.363281 20 L 206.363281 20 L 206.363281 40 Z M 186.363281 40 "/>
<path style=" stroke:none;fill-rule:nonzero;fill:rgb(0%,0%,0%);fill-opacity:1;" d="M 222.363281 200 L 222.363281 180 L 242.363281 180 L 242.363281 200 Z M 222.363281 200 "/>
<path style=" stroke:none;fill-rule:nonzero;fill:rgb(0%,0%,0%);fill-opacity:1;" d="M 222.363281 160 L 222.363281 140 L 242.363281 140 L 242.363281 160 Z M 222.363281 160 "/>
<path style=" stroke:none;fill-rule:nonzero;fill:rgb(0%,0%,0%);fill-opacity:1;" d="M 222.363281 120 L 222.363281 100 L 242.363281 100 L 242.363281 120 Z M 222.363281 120 "/>
<path style=" stroke:none;fill-rule:nonzero;fill:rgb(0%,0%,0%);fill-opacity:1;" d="M 222.363281 80 L 222.363281 60 L 242.363281 60 L 242.363281 80 Z M 222.363281 80 "/>
<path style=" stroke:none;fill-rule:nonzero;fill:rgb(0%,0%,0%);fill-opacity:1;" d="M 222.363281 40 L 222.363281 20 L 242.363281 20 L 242.363281 40 Z M 222.363281 40 "/>
<path style=" stroke:none;fill-rule:nonzero;fill:rgb(0%,0%,0%);fill-opacity:1;" d="M 258.363281 200 L 258.363281 180 L 278.363281 180 L 278.363281 200 Z M 258.363281 200 "/>
<path style=" stroke:none;fill-rule:nonzero;fill:rgb(0%,0%,0%);fill-opacity:1;" d="M 258.363281 160 L 258.363281 140 L 278.363281 140 L 278.363281 160 Z M 258.363281 160 "/>
<path style=" stroke:none;fill-rule:nonzero;fill:rgb(0%,0%,0%);fill-opacity:1;" d="M 258.363281 120 L 258.363281 100 L 278.363281 100 L 278.363281 120 Z M 258.363281 120 "/>
<path style=" stroke:none;fill-rule:nonzero;fill:rgb(0%,0%,0%);fill-opacity:1;" d="M 258.363281 80 L 258.363281 60 L 278.363281 60 L 278.363281 80 Z M 258.363281 80 "/>
<path style=" stroke:none;fill-rule:nonzero;fill:rgb(0%,0%,0%);fill-opacity:1;" d="M 258.363281 40 L 258.363281 20 L 278.363281 20 L 278.363281 40 Z M 258.363281 40 "/>
<path style=" stroke:none;fill-rule:nonzero;fill:rgb(0%,0%,0%);fill-opacity:1;" d="M 294.363281 200 L 294.363281 180 L 314.363281 180 L 314.363281 200 Z M 294.363281 200 "/>
<path style=" stroke:none;fill-rule:nonzero;fill:rgb(0%,0%,0%);fill-opacity:1;" d="M 294.363281 160 L 294.363281 140 L 314.363281 140 L 314.363281 160 Z M 294.363281 160 "/>
<path style=" stroke:none;fill-rule:nonzero;fill:rgb(0%,0%,0%);fill-opacity:1;" d="M 294.363281 120 L 294.363281 100 L 314.363281 100 L 314.363281 120 Z M 294.363281 120 "/>
<path style=" stroke:none;fill-rule:nonzero;fill:rgb(0%,0%,0%);fill-opacity:1;" d="M 294.363281 80 L 294.363281 60 L 314.363281 60 L 314.363281 80 Z M 294.363281 80 "/>
<path style=" stroke:none;fill-rule:nonzero;fill:rgb(0%,0%,0%);fill-opacity:1;" d="M 294.363281 40 L 294.363281 20 L 314.363281 20 L 314.363281 40 Z M 294.363281 40 "/>
<path style=" stroke:none;fill-rule:nonzero;fill:rgb(0%,0%,0%);fill-opacity:1;" d="M 330.363281 200 L 330.363281 180 L 350.363281 180 L 350.363281 200 Z M 330.363281 200 "/>
<path style=" stroke:none;fill-rule:nonzero;fill:rgb(0%,0%,0%);fill-opacity:1;" d="M 330.363281 160 L 330.363281 140 L 350.363281 140 L 350.363281 160 Z M 330.363281 160 "/>
<path style=" stroke:none;fill-rule:nonzero;fill:rgb(0%,0%,0%);fill-opacity:1;" d="M 330.363281 120 L 330.363281 100 L 350.363281 100 L 350.363281 120 Z M 330.363281 120 "/>
<path style=" stroke:none;fill-rule:nonzero;fill:rgb(0%,0%,0%);fill-opacity:1;" d="M 330.363281 80 L 330.363281 60 L 350.363281 60 L 350.363281 80 Z M 330.363281 80 "/>
<path style=" stroke:none;fill-rule:nonzero;fill:rgb(0%,0%,0%);fill-opacity:1;" d="M 330.363281 40 L 330.363281 20 L 350.363281 20 L 350.363281 40 Z M 330.363281 40 "/>
<path style=" stroke:none;fill-rule:nonzero;fill:rgb(0%,0%,0%);fill-opacity:1;" d="M 366.363281 200 L 366.363281 180 L 386.363281 180 L 386.363281 200 Z M 366.363281 200 "/>
<path style=" stroke:none;fill-rule:nonzero;fill:rgb(0%,0%,0%);fill-opacity:1;" d="M 366.363281 160 L 366.363281 140 L 386.363281 140 L 386.363281 160 Z M 366.363281 160 "/>
<path style=" stroke:none;fill-rule:nonzero;fill:rgb(0%,0%,0%);fill-opacity:1;" d="M 366.363281 120 L 366.363281 100 L 386.363281 100 L 386.363281 120 Z M 366.363281 120 "/>
<path style=" stroke:none;fill-rule:nonzero;fill:rgb(0%,0%,0%);fill-opacity:1;" d="M 366.363281 80 L 366.363281 60 L 386.363281 60 L 386.363281 80 Z M 366.363281 80 "/>
<path style=" stroke:none;fill-rule:nonzero;fill:rgb(0%,0%,0%);fill-opacity:1;" d="M 366.363281 40 L 366.363281 20 L 386.363281 20 L 386.363281 40 Z M 366.363281 40 "/>
<path style="fill:none;stroke-width:1;stroke-linecap:square;stroke-linejoin:miter;stroke:rgb(100%,0%,0%);stroke-opacity:1;stroke-miterlimit:3.25;" d="M 0 220 L 400 220 "/>
<path style="fill:none;stroke-width:1;stroke-linecap:square;stroke-linejoin:miter;stroke:rgb(100%,0%,0%);stroke-opacity:1;stroke-miterlimit:3.25;" d="M 0 200 L 400 200 "/>
<path style="fill:none;stroke-width:1;stroke-linecap:square;stroke-linejoin:miter;stroke:rgb(100%,0%,0%);stroke-opacity:1;stroke-miterlimit:3.25;" d="M 0 180 L 400 180 "/>
<path style="fill:none;stroke-width:1;stroke-linecap:square;stroke-linejoin:miter;stroke:rgb(100%,0%,0%);stroke-opacity:1;stroke-miterlimit:3.25;" d="M 0 160 L 400 160 "/>
<path style="fill:none;stroke-width:1;stroke-linecap:square;stroke-linejoin:miter;stroke:rgb(100%,0%,0%);stroke-opacity:1;stroke-miterlimit:3.25;" d="M 0 140 L 400 140 "/>
<path style="fill:none;stroke-width:1;stroke-linecap:square;stroke-linejoin:miter;stroke:rgb(100%,0%,0%);stroke-opacity:1;stroke-miterlimit:3.25;" d="M 0 120 L 400 120 "/>
<path style="fill:none;stroke-width:1;stroke-linecap:square;stroke-linejoin:miter;stroke:rgb(100%,0%,0%);stroke-opacity:1;stroke-miterlimit:3.25;" d="M 0 100 L 400 100 "/>
<path style="fill:none;stroke-width:1;stroke-linecap:square;stroke-linejoin:miter;stroke:rgb(100%,0%,0%);stroke-opacity:1;stroke-miterlimit:3.25;" d="M 0 80 L 400 80 "/>
<path style="fill:none;stroke-width:1;stroke-linecap:square;stroke-linejoin:miter;stroke:rgb(100%,0%,0%);stroke-opacity:1;stroke-miterlimit:3.25;" d="M 0 60 L 400 60 "/>
<path style="fill:none;stroke-width:1;stroke-linecap:square;stroke-linejoin:miter;stroke:rgb(100%,0%,0%);stroke-opacity:1;stroke-miterlimit:3.25;" d="M 0 40 L 400 40 "/>
<path style="fill:none;stroke-width:1;stroke-linecap:square;stroke-linejoin:miter;stroke:rgb(100%,0%,0%);stroke-opacity:1;stroke-miterlimit:3.25;" d="M 0 20 L 400 20 "/>
</g>
</svg>
