<?xml version="1.0" encoding="UTF-8"?>
<svg xmlns="http://www.w3.org/2000/svg" xmlns:xlink="http://www.w3.org/1999/xlink" width="400pt" height="220pt" viewBox="0 0 400 220" version="1.1">
<g id="surface846">
<rect x="0" y="0" width="400" height="220" style="fill:rgb(0%,40%,100%);fill-opacity:0.2;stroke:none;"/>
<path style=" stroke:none;fill-rule:nonzero;fill:rgb(0%,0%,0%);fill-opacity:1;" d="M -19.019531 220 L -19.019531 200 L 0.980469 200 L 0.980469 220 Z M -19.019531 220 "/>
<path style=" stroke:none;fill-rule:nonzero;fill:rgb(0%,0%,0%);fill-opacity:1;" d="M -19.019531 180 L -19.019531 160 L 0.980469 160 L 0.980469 180 Z M -19.019531 180 "/>
<path style=" stroke:none;fill-rule:nonzero;fill:rgb(0%,0%,0%);fill-opacity:1;" d="M -19.019531 140 L -19.019531 120 L 0.980469 120 L 0.980469 140 Z M -19.019531 140 "/>
<path style=" stroke:none;fill-rule:nonzero;fill:rgb(0%,0%,0%);fill-opacity:1;" d="M -19.019531 100 L -19.019531 80 L 0.980469 80 L 0.980469 100 Z M -19.019531 100 "/>
<path style=" stroke:none;fill-rule:nonzero;fill:rgb(0%,0%,0%);fill-opacity:1;" d="M -19.019531 60 L -19.019531 40 L 0.980469 40 L 0.980469 60 Z M -19.019531 60 "/>
<path style=" stroke:none;fill-rule:nonzero;fill:rgb(0%,0%,0%);fill-opacity:1;" d="M -19.019531 20 L -19.019531 0 L 0.980469 0 L 0.980469 20 Z M -19.019531 20 "/>
<path style=" stroke:none;fill-rule:nonzero;fill:rgb(0%,0%,0%);fill-opacity:1;" d="M 16.980469 220 L 16.980469 200 L 36.980469 200 L 36.980469 220 Z M 16.980469 220 "/>
<path style=" stroke:none;fill-rule:nonzero;fill:rgb(0%,0%,0%);fill-opacity:1;" d="M 16.980469 180 L 16.980469 160 L 36.980469 160 L 36.980469 180 Z M 16.980469 180 "/>
<path style=" stroke:none;fill-rule:nonzero;fill:rgb(0%,0%,0%);fill-opacity:1;" d="M 16.980469 140 L 16.980469 120 L 36.980469 120 L 36.980469 140 Z M 16.980469 140 "/>
<path style=" stroke:none;fill-rule:nonzero;fill:rgb(0%,0%,0%);fill-opacity:1;" d="M 16.980469 100 L 16.980469 80 L 36.980469 80 L 36.980469 100 Z M 16.980469 100 "/>
<path style=" stroke:none;fill-rule:nonzero;fill:rgb(0%,0%,0%);fill-opacity:1;" d="M 16.980469 60 L 16.980469 40 L 36.980469 40 L 36.980469 60 Z M 16.980469 60 "/>
<path style=" stroke:none;fill-rule:nonzero;fill:rgb(0%,0%,0%);fill-opacity:1;" d="M 16.980469 20 L 16.980469 0 L 36.980469 0 L 36.980469 20 Z M 16.980469 20 "/>
<path style=" stroke:none;fill-rule:nonzero;fill:rgb(0%,0%,0%);fill-opacity:1;" d="M 52.980469 220 L 52.980469 200 L 72.980469 200 L 72.980469 220 Z M 52.980469 220 "/>
<path style=" stroke:none;fill-rule:nonzero;fill:rgb(0%,0%,0%);fill-opacity:1;" d="M 52.980469 180 L 52.980469 160 L 72.980469 160 L 72.980469 180 Z M 52.980469 180 "/>
<path style=" stroke:none;fill-rule:nonzero;fill:rgb(0%,0%,0%);fill-opacity:1;" d="M 52.980469 140 L 52.980469 120 L 72.980469 120 L 72.980469 140 Z M 52.980469 140 "/>
<path style=" stroke:none;fill-rule:nonzero;fill:rgb(0%,0%,0%);fill-opacity:1;" d="M 52.980469 100 L 52.980469 80 L 72.980469 80 L 72.980469 100 Z M 52.980469 100 "/>
<path style=" stroke:none;fill-rule:nonzero;fill:rgb(0%,0%,0%);fill-opacity:1;" d="M 52.980469 60 L 52.980469 40 L 72.980469 40 L 72.980469 60 Z M 52.980469 60 "/>
<path style=" stroke:none;fill-rule:nonzero;fill:rgb(0%,0%,0%);fill-opacity:1;" d="M 52.980469 20 L 52.980469 0 L 72.980469 0 L 72.980469 20 Z M 52.980469 20 "/>
<path style=" stroke:none;fill-rule:nonzero;fill:rgb(0%,0%,0%);fill-opacity:1;" d="M 88.980469 220 L 88.980469 200 L 108.980469 200 L 108.980469 220 Z M 88.980469 220 "/>
<path style=" stroke:none;fill-rule:nonzero;fill:rgb(0%,0%,0%);fill-opacity:1;" d="M 88.980469 180 L 88.980469 160 L 108.980469 160 L 108.980469 180 Z M 88.980469 180 "/>
<path style=" stroke:none;fill-rule:nonzero;fill:rgb(0%,0%,0%);fill-opacity:1;" d="M 88.980469 140 L 88.980469 120 L 108.980469 120 L 108.980469 140 Z M 88.980469 140 "/>
<path style=" stroke:none;fill-rule:nonzero;fill:rgb(0%,0%,0%);fill-opacity:1;" d="M 88.980469 100 L 88.980469 80 L 108.980469 80 L 108.980469 100 Z M 88.980469 100 "/>
<path style=" stroke:none;fill-rule:nonzero;fill:rgb(0%,0%,0%);fill-opacity:1;" d="M 88.980469 60 L 88.980469 40 L 108.980469 40 L 108.980469 60 Z M 88.980469 60 "/>
<path style=" stroke:none;fill-rule:nonzero;fill:rgb(0%,0%,0%);fill-opacity:1;" d="M 88.980469 20 L 88.980469 0 L 108.980469 0 L 108.980469 20 Z M 88.980469 20 "/>
<path style=" stroke:none;fill-rule:nonzero;fill:rgb(0%,0%,0%);fill-opacity:1;" d="M 124.980469 220 L 124.980469 200 L 144.980469 200 L 144.980469 220 Z M 124.980469 220 "/>
<path style=" stroke:none;fill-rule:nonzero;fill:rgb(0%,0%,0%);fill-opacity:1;" d="M 124.980469 180 L 124.980469 160 L 144.980469 160 L 144.980469 180 Z M 124.980469 180 "/>
<path style=" stroke:none;fill-rule:nonzero;fill:rgb(0%,0%,0%);fill-opacity:1;" d="M 124.980469 140 L 124.980469 120 L 144.980469 120 L 144.980469 140 Z M 124.980469 140 "/>
<path style=" stroke:none;fill-rule:nonzero;fill:rgb(0%,0%,0%);fill-opacity:1;" d="M 124.980469 100 L 124.980469 80 L 144.980469 80 L 144.980469 100 Z M 124.980469 100 "/>
<path style=" stroke:none;fill-rule:nonzero;fill:rgb(0%,0%,0%);fill-opacity:1;" d="M 124.980469 60 L 124.980469 40 L 144.980469 40 L 144.980469 60 Z M 124.980469 60 "/>
<path style=" stroke:none;fill-rule:nonzero;fill:rgb(0%,0%,0%);fill-opacity:1;" d="M 124.980469 20 L 124.980469 0 L 144.980469 0 L 144.980469 20 Z M 124.980469 20 "/>
<path style=" stroke:none;fill-rule:nonzero;fill:rgb(0%,0%,0%);fill-opacity:1;" d="M 160.980469 220 L 160.980469 200 L 180.980469 200 L 180.980469 220 Z M 160.980469 220 "/>
<path style=" stroke:none;fill-rule:nonzero;fill:rgb(0%,0%,0%);fill-opacity:1;" d="M 160.980469 180 L 160.980469 160 L 180.980469 160 L 180.980469 180 Z M 160.980469 180 "/>
<path style=" stroke:none;fill-rule:nonzero;fill:rgb(0%,0%,0%);fill-opacity:1;" d="M 160.980469 140 L 160.980469 120 L 180.980469 120 L 180.980469 140 Z M 160.980469 140 "/>
<path style=" stroke:none;fill-rule:nonzero;fill:rgb(0%,0%,0%);fill-opacity:1;" d="M 160.980469 100 L 160.980469 80 L 180.980469 80 L 180.980469 100 Z M 160.980469 100 "/>
<path style=" stroke:none;fill-rule:nonzero;fill:rgb(0%,0%,0%);fill-opacity:1;" d="M 160.980469 60 L 160.980469 40 L 180.980469 40 L 180.980469 60 Z M 160.980469 60 "/>
<path style=" stroke:none;fill-rule:nonzero;fill:rgb(0%,0%,0%);fill-opacity:1;" d="M 160.980469 20 L 160.980469 0 L 180.980469 0 L 180.980469 20 Z M 160.980469 20 "/>
<path style=" stroke:none;fill-rule:nonzero;fill:rgb(0%,0%,0%);fill-opacity:1;" d="M 196.980469 220 L 196.980469 200 L 216.980469 200 L 216.980469 220 Z M 196.980469 220 "/>
<path style=" stroke:none;fill-rule:nonzero;fill:rgb(0%,0%,0%);fill-opacity:1;" d="M 196.980469 180 L 196.980469 160 L 216.980469 160 L 216.980469 180 Z M 196.980469 180 "/>
<path style=" stroke:none;fill-rule:nonzero;fill:rgb(0%,0%,0%);fill-opacity:1;" d="M 196.980469 140 L 196.980469 120 L 216.980469 120 L 216.980469 140 Z M 196.980469 140 "/>
<path style=" stroke:none;fill-rule:nonzero;fill:rgb(0%,0%,0%);fill-opacity:1;" d="M 196.980469 100 L 196.980469 80 L 216.980469 80 L 216.980469 100 Z M 196.980469 100 "/>
<path style=" stroke:none;fill-rule:nonzero;fill:rgb(0%,0%,0%);fill-opacity:1;" d="M 196.980469 60 L 196.980469 40 L 216.980469 40 L 216.980469 60 Z M 196.980469 60 "/>
<path style=" stroke:none;fill-rule:nonzero;fill:rgb(0%,0%,0%);fill-opacity:1;" d="M 196.980469 20 L 196.980469 0 L 216.980469 0 L 216.980469 20 Z M 196.980469 20 "/>
<path style=" stroke:none;fill-rule:nonzero;fill:rgb(0%,0%,0%);fill-opacity:1;" d="M 232.980469 220 L 232.980469 200 L 252.980469 200 L 252.980469 220 Z M 232.980469 220 "/>
<path style=" stroke:none;fill-rule:nonzero;fill:rgb(0%,0%,0%);fill-opacity:1;" d="M 232.980469 180 L 232.980469 160 L 252.980469 160 L 252.980469 180 Z M 232.980469 180 "/>
<path style=" stroke:none;fill-rule:nonzero;fill:rgb(0%,0%,0%);fill-opacity:1;" d="M 232.980469 140 L 232.980469 120 L 252.980469 120 L 252.980469 140 Z M 232.980469 140 "/>
<path style=" stroke:none;fill-rule:nonzero;fill:rgb(0%,0%,0%);fill-opacity:1;" d="M 232.980469 100 L 232.980469 80 L 252.980469 80 L 252.980469 100 Z M 232.980469 100 "/>
<path style=" stroke:none;fill-rule:nonzero;fill:rgb(0%,0%,0%);fill-opacity:1;" d="M 232.980469 60 L 232.980469 40 L 252.980469 40 L 252.980469 60 Z M 232.980469 60 "/>
<path style=" stroke:none;fill-rule:nonzero;fill:rgb(0%,0%,0%);fill-opacity:1;" d="M 232.980469 20 L 232.980469 0 L 252.980469 0 L 252.980469 20 Z M 232.980469 20 "/>
<path style=" stroke:none;fill-rule:nonzero;fill:rgb(0%,0%,0%);fill-opacity:1;" d="M 268.980469 220 L 268.980469 200 L 288.980469 200 L 288.980469 220 Z M 268.980469 220 "/>
<path style=" stroke:none;fill-rule:nonzero;fill:rgb(0%,0%,0%);fill-opacity:1;" d="M 268.980469 180 L 268.980469 160 L 288.980469 160 L 288.980469 180 Z M 268.980469 180 "/>
<path style=" stroke:none;fill-rule:nonzero;fill:rgb(0%,0%,0%);fill-opacity:1;" d="M 268.980469 140 L 268.980469 120 L 288.980469 120 L 288.980469 140 Z M 268.980469 140 "/>
<path style=" stroke:none;fill-rule:nonzero;fill:rgb(0%,0%,0%);fill-opacity:1;" d="M 268.980469 100 L 268.980469 80 L 288.980469 80 L 288.980469 100 Z M 268.980469 100 "/>
<path style=" stroke:none;fill-rule:nonzero;fill:rgb(0%,0%,0%);fill-opacity:1;" d="M 268.980469 60 L 268.980469 40 L 288.980469 40 L 288.980469 60 Z M 268.980469 60 "/>
<path style=" stroke:none;fill-rule:nonzero;fill:rgb(0%,0%,0%);fill-opacity:1;" d="M 268.980469 20 L 268.980469 0 L 288.980469 0 L 288.980469 20 Z M 268.980469 20 "/>
<path style=" stroke:none;fill-rule:nonzero;fill:rgb(0%,0%,0%);fill-opacity:1;" d="M 304.980469 220 L 304.980469 200 L 324.980469 200 L 324.980469 220 Z M 304.980469 220 "/>
<path style=" stroke:none;fill-rule:nonzero;fill:rgb(0%,0%,0%);fill-opacity:1;" d="M 304.980469 180 L 304.980469 160 L 324.980469 160 L 324.980469 180 Z M 304.980469 180 "/>
<path style=" stroke:none;fill-rule:nonzero;fill:rgb(0%,0%,0%);fill-opacity:1;" d="M 304.980469 140 L 304.980469 120 L 324.980469 120 L 324.980469 140 Z M 304.980469 140 "/>
<path style=" stroke:none;fill-rule:nonzero;fill:rgb(0%,0%,0%);fill-opacity:1;" d="M 304.980469 100 L 304.980469 80 L 324.980469 80 L 324.980469 100 Z M 304.980469 100 "/>
<path style=" stroke:none;fill-rule:nonzero;fill:rgb(0%,0%,0%);fill-opacity:1;" d="M 304.980469 60 L 304.980469 40 L 324.980469 40 L 324.980469 60 Z M 304.980469 60 "/>
<path style=" stroke:none;fill-rule:nonzero;fill:rgb(0%,0%,0%);fill-opacity:1;" d="M 304.980469 20 L 304.980469 0 L 324.980469 0 L 324.980469 20 Z M 304.980469 20 "/>
<path style=" stroke:none;fill-rule:nonzero;fill:rgb(0%,0%,0%);fill-opacity:1;" d="M 340.980469 220 L 340.980469 200 L 360.980469 200 L 360.980469 220 Z M 340.980469 220 "/>
<path style=" stroke:none;fill-rule:nonzero;fill:rgb(0%,0%,0%);fill-opacity:1;" d="M 340.980469 180 L 340.980469 160 L 360.980469 160 L 360.980469 180 Z M 340.980469 180 "/>
<path style=" stroke:none;fill-rule:nonzero;fill:rgb(0%,0%,0%);fill-opacity:1;" d="M 340.980469 140 L 340.980469 120 L 360.980469 120 L 360.980469 140 Z M 340.980469 140 "/>
<path style=" stroke:none;fill-rule:nonzero;fill:rgb(0%,0%,0%);fill-opacity:1;" d="M 340.980469 100 L 340.980469 80 L 360.980469 80 L 360.980469 100 Z M 340.980469 100 "/>
<path style=" stroke:none;fill-rule:nonzero;fill:rgb(0%,0%,0%);fill-opacity:1;" d="M 340.980469 60 L 340.980469 40 L 360.980469 40 L 360.980469 60 Z M 340.980469 60 "/>
<path style=" stroke:none;fill-rule:nonzero;fill:rgb(0%,0%,0%);fill-opacity:1;" d="M 340.980469 20 L 340.980469 0 L 360.980469 0 L 360.980469 20 Z M 340.980469 20 "/>
<path style=" stroke:none;fill-rule:nonzero;fill:rgb(0%,0%,0%);fill-opacity:1;" d="M 376.980469 220 L 376.980469 200 L 396.980469 200 L 396.980469 220 Z M 376.980469 220 "/>
<path style=" stroke:none;fill-rule:nonzero;fill:rgb(0%,0%,0%);fill-opacity:1;" d="M 376.980469 180 L 376.980469 160 L 396.980469 160 L 396.980469 180 Z M 376.980469 180 "/>
<path style=" stroke:none;fill-rule:nonzero;fill:rgb(0%,0%,0%);fill-opacity:1;" d="M 376.980469 140 L 376.980469 120 L 396.980469 120 L 396.980469 140 Z M 376.980469 140 "/>
<path style=" stroke:none;fill-rule:nonzero;fill:rgb(0%,0%,0%);fill-opacity:1;" d="M 376.980469 100 L 376.980469 80 L 396.980469 80 L 396.980469 100 Z M 376.980469 100 "/>
<path style=" stroke:none;fill-rule:nonzero;fill:rgb(0%,0%,0%);fill-opacity:1;" d="M 376.980469 60 L 376.980469 40 L 396.980469 40 L 396.980469 60 Z M 376.980469 60 "/>
<path style=" stroke:none;fill-rule:nonzero;fill:rgb(0%,0%,0%);fill-opacity:1;" d="M 376.980469 20 L 376.980469 0 L 396.980469 0 L 396.980469 20 Z M 376.980469 20 "/>
<path style=" stroke:none;fill-rule:nonzero;fill:rgb(0%,0%,0%);fill-opacity:1;" d="M -13.820312 200 L -13.820312 180 L 6.179688 180 L 6.179688 200 Z M -13.820312 200 "/>
<path style=" stroke:none;fill-rule:nonzero;fill:rgb(0%,0%,0%);fill-opacity:1;" d="M -13.820312 160 L -13.820312 140 L 6.179688 140 L 6.179688 160 Z M -13.820312 160 "/>
<path style=" stroke:none;fill-rule:nonzero;fill:rgb(0%,0%,0%);fill-opacity:1;" d="M -13.820312 120 L -13.820312 100 L 6.179688 100 L 6.179688 120 Z M -13.820312 120 "/>
<path style=" stroke:none;fill-rule:nonzero;fill:rgb(0%,0%,0%);fill-opacity:1;" d="M -13.820312 80 L -13.820312 60 L 6.179688 60 L 6.179688 80 Z M -13.820312 80 "/>
<path style=" stroke:none;fill-rule:nonzero;fill:rgb(0%,0%,0%);fill-opacity:1;" d="M -13.820312 40 L -13.820312 20 L 6.179688 20 L 6.179688 40 Z M -13.820312 40 "/>
<path style=" stroke:none;fill-rule:nonzero;fill:rgb(0%,0%,0%);fill-opacity:1;" d="M 22.179688 200 L 22.179688 180 L 42.179688 180 L 42.179688 200 Z M 22.179688 200 "/>
<path style=" stroke:none;fill-rule:nonzero;fill:rgb(0%,0%,0%);fill-opacity:1;" d="M 22.179688 160 L 22.179688 140 L 42.179688 140 L 42.179688 160 Z M 22.179688 160 "/>
<path style=" stroke:none;fill-rule:nonzero;fill:rgb(0%,0%,0%);fill-opacity:1;" d="M 22.179688 120 L 22.179688 100 L 42.179688 100 L 42.179688 120 Z M 22.179688 120 "/>
<path style=" stroke:none;fill-rule:nonzero;fill:rgb(0%,0%,0%);fill-opacity:1;" d="M 22.179688 80 L 22.179688 60 L 42.179688 60 L 42.179688 80 Z M 22.179688 80 "/>
<path style=" stroke:none;fill-rule:nonzero;fill:rgb(0%,0%,0%);fill-opacity:1;" d="M 22.179688 40 L 22.179688 20 L 42.179688 20 L 42.179688 40 Z M 22.179688 40 "/>
<path style=" stroke:none;fill-rule:nonzero;fill:rgb(0%,0%,0%);fill-opacity:1;" d="M 58.179688 200 L 58.179688 180 L 78.179688 180 L 78.179688 200 Z M 58.179688 200 "/>
<path style=" stroke:none;fill-rule:nonzero;fill:rgb(0%,0%,0%);fill-opacity:1;" d="M 58.179688 160 L 58.179688 140 L 78.179688 140 L 78.179688 160 Z M 58.179688 160 "/>
<path style=" stroke:none;fill-rule:nonzero;fill:rgb(0%,0%,0%);fill-opacity:1;" d="M 58.179688 120 L 58.179688 100 L 78.179688 100 L 78.179688 120 Z M 58.179688 120 "/>
<path style=" stroke:none;fill-rule:nonzero;fill:rgb(0%,0%,0%);fill-opacity:1;" d="M 58.179688 80 L 58.179688 60 L 78.179688 60 L 78.179688 80 Z M 58.179688 80 "/>
<path style=" stroke:none;fill-rule:nonzero;fill:rgb(0%,0%,0%);fill-opacity:1;" d="M 58.179688 40 L 58.179688 20 L 78.179688 20 L 78.179688 40 Z M 58.179688 40 "/>
<path style=" stroke:none;fill-rule:nonzero;fill:rgb(0%,0%,0%);fill-opacity:1;" d="M 94.179688 200 L 94.179688 180 L 114.179688 180 L 114.179688 200 Z M 94.179688 200 "/>
<path style=" stroke:none;fill-rule:nonzero;fill:rgb(0%,0%,0%);fill-opacity:1;" d="M 94.179688 160 L 94.179688 140 L 114.179688 140 L 114.179688 160 Z M 94.179688 160 "/>
<path style=" stroke:none;fill-rule:nonzero;fill:rgb(0%,0%,0%);fill-opacity:1;" d="M 94.179688 120 L 94.179688 100 L 114.179688 100 L 114.179688 120 Z M 94.179688 120 "/>
<path style=" stroke:none;fill-rule:nonzero;fill:rgb(0%,0%,0%);fill-opacity:1;" d="M 94.179688 80 L 94.179688 60 L 114.179688 60 L 114.179688 80 Z M 94.179688 80 "/>
<path style=" stroke:none;fill-rule:nonzero;fill:rgb(0%,0%,0%);fill-opacity:1;" d="M 94.179688 40 L 94.179688 20 L 114.179688 20 L 114.179688 40 Z M 94.179688 40 "/>
<path style=" stroke:none;fill-rule:nonzero;fill:rgb(0%,0%,0%);fill-opacity:1;" d="M 130.179688 200 L 130.179688 180 L 150.179688 180 L 150.179688 200 Z M 130.179688 200 "/>
<path style=" stroke:none;fill-rule:nonzero;fill:rgb(0%,0%,0%);fill-opacity:1;" d="M 130.179688 160 L 130.179688 140 L 150.179688 140 L 150.179688 160 Z M 130.179688 160 "/>
<path style=" stroke:none;fill-rule:nonzero;fill:rgb(0%,0%,0%);fill-opacity:1;" d="M 130.179688 120 L 130.179688 100 L 150.179688 100 L 150.179688 120 Z M 130.179688 120 "/>
<path style=" stroke:none;fill-rule:nonzero;fill:rgb(0%,0%,0%);fill-opacity:1;" d="M 130.179688 80 L 130.179688 60 L 150.179688 60 L 150.179688 80 Z M 130.179688 80 "/>
<path style=" stroke:none;fill-rule:nonzero;fill:rgb(0%,0%,0%);fill-opacity:1;" d="M 130.179688 40 L 130.179688 20 L 150.179688 20 L 150.179688 40 Z M 130.179688 40 "/>
<path style=" stroke:none;fill-rule:nonzero;fill:rgb(0%,0%,0%);fill-opacity:1;" d="M 166.179688 200 L 166.179688 180 L 186.179688 180 L 186.179688 200 Z M 166.179688 200 "/>
<path style=" stroke:none;fill-rule:nonzero;fill:rgb(0%,0%,0%);fill-opacity:1;" d="M 166.179688 160 L 166.179688 140 L 186.179688 140 L 186.179688 160 Z M 166.179688 160 "/>
<path style=" stroke:none;fill-rule:nonzero;fill:rgb(0%,0%,0%);fill-opacity:1;" d="M 166.179688 120 L 166.179688 100 L 186.179688 100 L 186.179688 120 Z M 166.179688 120 "/>
<path style=" stroke:none;fill-rule:nonzero;fill:rgb(0%,0%,0%);fill-opacity:1;" d="M 166.179688 80 L 166.179688 60 L 186.179688 60 L 186.179688 80 Z M 166.179688 80 "/>
<path style=" stroke:none;fill-rule:nonzero;fill:rgb(0%,0%,0%);fill-opacity:1;" d="M 166.179688 40 L 166.179688 20 L 186.179688 20 L 186.179688 40 Z M 166.179688 40 "/>
<path style=" stroke:none;fill-rule:nonzero;fill:rgb(0%,0%,0%);fill-opacity:1;" d="M 202.179688 200 L 202.179688 180 L 222.179688 180 L 222.179688 200 Z M 202.179688 200 "/>
<path style=" stroke:none;fill-rule:nonzero;fill:rgb(0%,0%,0%);fill-opacity:1;" d="M 202.179688 160 L 202.179688 140 L 222.179688 140 L 222.179688 160 Z M 202.179688 160 "/>
<path style=" stroke:none;fill-rule:nonzero;fill:rgb(0%,0%,0%);fill-opacity:1;" d="M 202.179688 120 L 202.179688 100 L 222.179688 100 L 222.179688 120 Z M 202.179688 120 "/>
<path style=" stroke:none;fill-rule:nonzero;fill:rgb(0%,0%,0%);fill-opacity:1;" d="M 202.179688 80 L 202.179688 60 L 222.179688 60 L 222.179688 80 Z M 202.179688 80 "/>
<path style=" stroke:none;fill-rule:nonzero;fill:rgb(0%,0%,0%);fill-opacity:1;" d="M 202.179688 40 L 202.179688 20 L 222.179688 20 L 222.179688 40 Z M 202.179688 40 "/>
<path style=" stroke:none;fill-rule:nonzero;fill:rgb(0%,0%,0%);fill-opacity:1;" d="M 238.179688 200 L 238.179688 180 L 258.179688 180 L 258.179688 200 Z M 238.179688 200 "/>
<path style=" stroke:none;fill-rule:nonzero;fill:rgb(0%,0%,0%);fill-opacity:1;" d="M 238.179688 160 L 238.179688 140 L 258.179688 140 L 258.179688 160 Z M 238.179688 160 "/>
<path style=" stroke:none;fill-rule:nonzero;fill:rgb(0%,0%,0%);fill-opacity:1;" d="M 238.179688 120 L 238.179688 100 L 258.179688 100 L 258.179688 120 Z M 238.179688 120 "/>
<path style=" stroke:none;fill-rule:nonzero;fill:rgb(0%,0%,0%);fill-opacity:1;" d="M 238.179688 80 L 238.179688 60 L 258.179688 60 L 258.179688 80 Z M 238.179688 80 "/>
<path style=" stroke:none;fill-rule:nonzero;fill:rgb(0%,0%,0%);fill-opacity:1;" d="M 238.179688 40 L 238.179688 20 L 258.179688 20 L 258.179688 40 Z M 238.179688 40 "/>
<path style=" stroke:none;fill-rule:nonzero;fill:rgb(0%,0%,0%);fill-opacity:1;" d="M 274.179688 200 L 274.179688 180 L 294.179688 180 L 294.179688 200 Z M 274.179688 200 "/>
<path style=" stroke:none;fill-rule:nonzero;fill:rgb(0%,0%,0%);fill-opacity:1;" d="M 274.179688 160 L 274.179688 140 L 294.179688 140 L 294.179688 160 Z M 274.179688 160 "/>
<path style=" stroke:none;fill-rule:nonzero;fill:rgb(0%,0%,0%);fill-opacity:1;" d="M 274.179688 120 L 274.179688 100 L 294.179688 100 L 294.179688 120 Z M 274.179688 120 "/>
<path style=" stroke:none;fill-rule:nonzero;fill:rgb(0%,0%,0%);fill-opacity:1;" d="M 274.179688 80 L 274.179688 60 L 294.179688 60 L 294.179688 80 Z M 274.179688 80 "/>
<path style=" stroke:none;fill-rule:nonzero;fill:rgb(0%,0%,0%);fill-opacity:1;" d="M 274.179688 40 L 274.179688 20 L 294.179688 20 L 294.179688 40 Z M 274.179688 40 "/>
<path style=" stroke:none;fill-rule:nonzero;fill:rgb(0%,0%,0%);fill-opacity:1;" d="M 310.179688 200 L 310.179688 180 L 330.179688 180 L 330.179688 200 Z M 310.179688 200 "/>
<path style=" stroke:none;fill-rule:nonzero;fill:rgb(0%,0%,0%);fill-opacity:1;" d="M 310.179688 160 L 310.179688 140 L 330.179688 140 L 330.179688 160 Z M 310.179688 160 "/>
<path style=" stroke:none;fill-rule:nonzero;fill:rgb(0%,0%,0%);fill-opacity:1;" d="M 310.179688 120 L 310.179688 100 L 330.179688 100 L 330.179688 120 Z M 310.179688 120 "/>
<path style=" stroke:none;fill-rule:nonzero;fill:rgb(0%,0%,0%);fill-opacity:1;" d="M 310.179688 80 L 310.179688 60 L 330.179688 60 L 330.179688 80 Z M 310.179688 80 "/>
<path style=" stroke:none;fill-rule:nonzero;fill:rgb(0%,0%,0%);fill-opacity:1;" d="M 310.179688 40 L 310.179688 20 L 330.179688 20 L 330.179688 40 Z M 310.179688 40 "/>
<path style=" stroke:none;fill-rule:nonzero;fill:rgb(0%,0%,0%);fill-opacity:1;" d="M 346.179688 200 L 346.179688 180 L 366.179688 180 L 366.179688 200 Z M 346.179688 200 "/>
<path style=" stroke:none;fill-rule:nonzero;fill:rgb(0%,0%,0%);fill-opacity:1;" d="M 346.179688 160 L 346.179688 140 L 366.179688 140 L 366.179688 160 Z M 346.179688 160 "/>
<path style=" stroke:none;fill-rule:nonzero;fill:rgb(0%,0%,0%);fill-opacity:1;" d="M 346.179688 120 L 346.179688 100 L 366.179688 100 L 366.179688 120 Z M 346.179688 120 "/>
<path style=" stroke:none;fill-rule:nonzero;fill:rgb(0%,0%,0%);fill-opacity:1;" d="M 346.179688 80 L 346.179688 60 L 366.179688 60 L 366.179688 80 Z M 346.179688 80 "/>
<path style=" stroke:none;fill-rule:nonzero;fill:rgb(0%,0%,0%);fill-opacity:1;" d="M 346.179688 40 L 346.179688 20 L 366.179688 20 L 366.179688 40 Z M 346.179688 40 "/>
<path style=" stroke:none;fill-rule:nonzero;fill:rgb(0%,0%,0%);fill-opacity:1;" d="M 382.179688 200 L 382.179688 180 L 402.179688 180 L 402.179688 200 Z M 382.179688 200 "/>
<path style=" stroke:none;fill-rule:nonzero;fill:rgb(0%,0%,0%);fill-opacity:1;" d="M 382.179688 160 L 382.179688 140 L 402.179688 140 L 402.179688 160 Z M 382.179688 160 "/>
<path style=" stroke:none;fill-rule:nonzero;fill:rgb(0%,0%,0%);fill-opacity:1;" d="M 382.179688 120 L 382.179688 100 L 402.179688 100 L 402.179688 120 Z M 382.179688 120 "/>
<path style=" stroke:none;fill-rule:nonzero;fill:rgb(0%,0%,0%);fill-opacity:1;" d="M 382.179688 80 L 382.179688 60 L 402.179688 60 L 402.179688 80 Z M 382.179688 80 "/>
<path style=" stroke:none;fill-rule:nonzero;fill:rgb(0%,0%,0%);fill-opacity:1;" d="M 382.179688 40 L 382.179688 20 L 402.179688 20 L 402.179688 40 Z M 382.179688 40 "/>
<path style="fill:none;stroke-width:1;stroke-linecap:square;stroke-linejoin:miter;stroke:rgb(100%,0%,0%);stroke-opacity:1;stroke-miterlimit:3.25;" d="M 0 220 L 400 220 "/>
<path style="fill:none;stroke-width:1;stroke-linecap:square;stroke-linejoin:miter;stroke:rgb(100%,0%,0%);stroke-opacity:1;stroke-miterlimit:3.25;" d="M 0 200 L 400 200 "/>
<path style="fill:none;stroke-width:1;stroke-linecap:square;stroke-linejoin:miter;stroke:rgb(100%,0%,0%);stroke-opacity:1;stroke-miterlimit:3.25;" d="M 0 180 L 400 180 "/>
<path style="fill:none;stroke-width:1;stroke-linecap:square;stroke-linejoin:miter;stroke:rgb(100%,0%,0%);stroke-opacity:1;stroke-miterlimit:3.25;" d="M 0 160 L 400 160 "/>
<path style="fill:none;stroke-width:1;stroke-linecap:square;stroke-linejoin:miter;stroke:rgb(100%,0%,0%);stroke-opacity:1;stroke-miterlimit:3.25;" d="M 0 140 L 400 140 "/>
<path style="fill:none;stroke-width:1;stroke-linecap:square;stroke-linejoin:miter;stroke:rgb(100%,0%,0%);stroke-opacity:1;stroke-miterlimit:3.25;" d="M 0 120 L 400 120 "/>
<path style="fill:none;stroke-width:1;stroke-linecap:square;stroke-linejoin:miter;stroke:rgb(100%,0%,0%);stroke-opacity:1;stroke-miterlimit:3.25;" d="M 0 100 L 400 100 "/>
<path style="fill:none;stroke-width:1;stroke-linecap:square;stroke-linejoin:miter;stroke:rgb(100%,0%,0%);stroke-opacity:1;stroke-miterlimit:3.25;" d="M 0 80 L 400 80 "/>
<path style="fill:none;stroke-width:1;stroke-linecap:square;stroke-linejoin:miter;stroke:rgb(100%,0%,0%);stroke-opacity:1;stroke-miterlimit:3.25;" d="M 0 60 L 400 60 "/>
<path style="fill:none;stroke-width:1;stroke-linecap:square;stroke-linejoin:miter;stroke:rgb(100%,0%,0%);stroke-opacity:1;stroke-miterlimit:3.25;" d="M 0 40 L 400 40 "/>
<path style="fill:none;stroke-width:1;stroke-linecap:square;stroke-linejoin:miter;stroke:rgb(100%,0%,0%);stroke-opacity:1;stroke-miterlimit:3.25;" d="M 0 20 L 400 20 "/>
</g>
</svg>
