<?xml version="1.0" encoding="UTF-8"?>
<svg xmlns="http://www.w3.org/2000/svg" xmlns:xlink="http://www.w3.org/1999/xlink" width="400pt" height="220pt" viewBox="0 0 400 220" version="1.1">
<g id="surface661">
<rect x="0" y="0" width="400" height="220" style="fill:rgb(0%,40%,100%);fill-opacity:0.2;stroke:none;"/>
<path style=" stroke:none;fill-rule:nonzero;fill:rgb(0%,0%,0%);fill-opacity:1;" d="M 17.527344 220 L 17.527344 200 L 37.527344 200 L 37.527344 220 Z M 17.527344 220 "/>
<path style=" stroke:none;fill-rule:nonzero;fill:rgb(0%,0%,0%);fill-opacity:1;" d="M 17.527344 180 L 17.527344 160 L 37.527344 160 L 37.527344 180 Z M 17.527344 180 "/>
<path style=" stroke:none;fill-rule:nonzero;fill:rgb(0%,0%,0%);fill-opacity:1;" d="M 17.527344 140 L 17.527344 120 L 37.527344 120 L 37.527344 140 Z M 17.527344 140 "/>
<path style=" stroke:none;fill-rule:nonzero;fill:rgb(0%,0%,0%);fill-opacity:1;" d="M 17.527344 100 L 17.527344 80 L 37.527344 80 L 37.527344 100 Z M 17.527344 100 "/>
<path style=" stroke:none;fill-rule:nonzero;fill:rgb(0%,0%,0%);fill-opacity:1;" d="M 17.527344 60 L 17.527344 40 L 37.527344 40 L 37.527344 60 Z M 17.527344 60 "/>
<path style=" stroke:none;fill-rule:nonzero;fill:rgb(0%,0%,0%);fill-opacity:1;" d="M 17.527344 20 L 17.527344 0 L 37.527344 0 L 37.527344 20 Z M 17.527344 20 "/>
<path style=" stroke:none;fill-rule:nonzero;fill:rgb(0%,0%,0%);fill-opacity:1;" d="M 53.527344 220 L 53.527344 200 L 73.527344 200 L 73.527344 220 Z M 53.527344 220 "/>
<path style=" stroke:none;fill-rule:nonzero;fill:rgb(0%,0%,0%);fill-opacity:1;" d="M 53.527344 180 L 53.527344 160 L 73.527344 160 L 73.527344 180 Z M 53.527344 180 "/>
<path style=" stroke:none;fill-rule:nonzero;fill:rgb(0%,0%,0%);fill-opacity:1;" d="M 53.527344 140 L 53.527344 120 L 73.527344 120 L 73.527344 140 Z M 53.527344 140 "/>
<path style=" stroke:none;fill-rule:nonzero;fill:rgb(0%,0%,0%);fill-opacity:1;" d="M 53.527344 100 L 53.527344 80 L 73.527344 80 L 73.527344 100 Z M 53.527344 100 "/>
<path style=" stroke:none;fill-rule:nonzero;fill:rgb(0%,0%,0%);fill-opacity:1;" d="M 53.527344 60 L 53.527344 40 L 73.527344 40 L 73.527344 60 Z M 53.527344 60 "/>
<path style=" stroke:none;fill-rule:nonzero;fill:rgb(0%,0%,0%);fill-opacity:1;" d="M 53.527344 20 L 53.527344 0 L 73.527344 0 L 73.527344 20 Z M 53.527344 20 "/>
<path style=" stroke:none;fill-rule:nonzero;fill:rgb(0%,0%,0%);fill-opacity:1;" d="M 89.527344 220 L 89.527344 200 L 109.527344 200 L 109.527344 220 Z M 89.527344 220 "/>
<path style=" stroke:none;fill-rule:nonzero;fill:rgb(0%,0%,0%);fill-opacity:1;" d="M 89.527344 180 L 89.527344 160 L 109.527344 160 L 109.527344 180 Z M 89.527344 180 "/>
<path style=" stroke:none;fill-rule:nonzero;fill:rgb(0%,0%,0%);fill-opacity:1;" d="M 89.527344 140 L 89.527344 120 L 109.527344 120 L 109.527344 140 Z M 89.527344 140 "/>
<path style=" stroke:none;fill-rule:nonzero;fill:rgb(0%,0%,0%);fill-opacity:1;" d="M 89.527344 100 L 89.527344 80 L 109.527344 80 L 109.527344 100 Z M 89.527344 100 "/>
<path style=" stroke:none;fill-rule:nonzero;fill:rgb(0%,0%,0%);fill-opacity:1;" d="M 89.527344 60 L 89.527344 40 L 109.527344 40 L 109.527344 60 Z M 89.527344 60 "/>
<path style=" stroke:none;fill-rule:nonzero;fill:rgb(0%,0%,0%);fill-opacity:1;" d="M 89.527344 20 L 89.527344 0 L 109.527344 0 L 109.527344 20 Z M 89.527344 20 "/>
<path style=" stroke:none;fill-rule:nonzero;fill:rgb(0%,0%,0%);fill-opacity:1;" d="M 125.527344 220 L 125.527344 200 L 145.527344 200 L 145.527344 220 Z M 125.527344 220 "/>
<path style=" stroke:none;fill-rule:nonzero;fill:rgb(0%,0%,0%);fill-opacity:1;" d="M 125.527344 180 L 125.527344 160 L 145.527344 160 L 145.527344 180 Z M 125.527344 180 "/>
<path style=" stroke:none;fill-rule:nonzero;fill:rgb(0%,0%,0%);fill-opacity:1;" d="M 125.527344 140 L 125.527344 120 L 145.527344 120 L 145.527344 140 Z M 125.527344 140 "/>
<path style=" stroke:none;fill-rule:nonzero;fill:rgb(0%,0%,0%);fill-opacity:1;" d="M 125.527344 100 L 125.527344 80 L 145.527344 80 L 145.527344 100 Z M 125.527344 100 "/>
<path style=" stroke:none;fill-rule:nonzero;fill:rgb(0%,0%,0%);fill-opacity:1;" d="M 125.527344 60 L 125.527344 40 L 145.527344 40 L 145.527344 60 Z M 125.527344 60 "/>
<path style=" stroke:none;fill-rule:nonzero;fill:rgb(0%,0%,0%);fill-opacity:1;" d="M 125.527344 20 L 125.527344 0 L 145.527344 0 L 145.527344 20 Z M 125.527344 20 "/>
<path style=" stroke:none;fill-rule:nonzero;fill:rgb(0%,0%,0%);fill-opacity:1;" d="M 161.527344 220 L 161.527344 200 L 181.527344 200 L 181.527344 220 Z M 161.527344 220 "/>
<path style=" stroke:none;fill-rule:nonzero;fill:rgb(0%,0%,0%);fill-opacity:1;" d="M 161.527344 180 L 161.527344 160 L 181.527344 160 L 181.527344 180 Z M 161.527344 180 "/>
<path style=" stroke:none;fill-rule:nonzero;fill:rgb(0%,0%,0%);fill-opacity:1;" d="M 161.527344 140 L 161.527344 120 L 181.527344 120 L 181.527344 140 Z M 161.527344 140 "/>
<path style=" stroke:none;fill-rule:nonzero;fill:rgb(0%,0%,0%);fill-opacity:1;" d="M 161.527344 100 L 161.527344 80 L 181.527344 80 L 181.527344 100 Z M 161.527344 100 "/>
<path style=" stroke:none;fill-rule:nonzero;fill:rgb(0%,0%,0%);fill-opacity:1;" d="M 161.527344 60 L 161.527344 40 L 181.527344 40 L 181.527344 60 Z M 161.527344 60 "/>
<path style=" stroke:none;fill-rule:nonzero;fill:rgb(0%,0%,0%);fill-opacity:1;" d="M 161.527344 20 L 161.527344 0 L 181.527344 0 L 181.527344 20 Z M 161.527344 20 "/>
<path style=" stroke:none;fill-rule:nonzero;fill:rgb(0%,0%,0%);fill-opacity:1;" d="M 197.527344 220 L 197.527344 200 L 217.527344 200 L 217.527344 220 Z M 197.527344 220 "/>
<path style=" stroke:none;fill-rule:nonzero;fill:rgb(0%,0%,0%);fill-opacity:1;" d="M 197.527344 180 L 197.527344 160 L 217.527344 160 L 217.527344 180 Z M 197.527344 180 "/>
<path style=" stroke:none;fill-rule:nonzero;fill:rgb(0%,0%,0%);fill-opacity:1;" d="M 197.527344 140 L 197.527344 120 L 217.527344 120 L 217.527344 140 Z M 197.527344 140 "/>
<path style=" stroke:none;fill-rule:nonzero;fill:rgb(0%,0%,0%);fill-opacity:1;" d="M 197.527344 100 L 197.527344 80 L 217.527344 80 L 217.527344 100 Z M 197.527344 100 "/>
<path style=" stroke:none;fill-rule:nonzero;fill:rgb(0%,0%,0%);fill-opacity:1;" d="M 197.527344 60 L 197.527344 40 L 217.527344 40 L 217.527344 60 Z M 197.527344 60 "/>
<path style=" stroke:none;fill-rule:nonzero;fill:rgb(0%,0%,0%);fill-opacity:1;" d="M 197.527344 20 L 197.527344 0 L 217.527344 0 L 217.527344 20 Z M 197.527344 20 "/>
<path style=" stroke:none;fill-rule:nonzero;fill:rgb(0%,0%,0%);fill-opacity:1;" d="M 233.527344 220 L 233.527344 200 L 253.527344 200 L 253.527344 220 Z M 233.527344 220 "/>
<path style=" stroke:none;fill-rule:nonzero;fill:rgb(0%,0%,0%);fill-opacity:1;" d="M 233.527344 180 L 233.527344 160 L 253.527344 160 L 253.527344 180 Z M 233.527344 180 "/>
<path style=" stroke:none;fill-rule:nonzero;fill:rgb(0%,0%,0%);fill-opacity:1;" d="M 233.527344 140 L 233.527344 120 L 253.527344 120 L 253.527344 140 Z M 233.527344 140 "/>
<path style=" stroke:none;fill-rule:nonzero;fill:rgb(0%,0%,0%);fill-opacity:1;" d="M 233.527344 100 L 233.527344 80 L 253.527344 80 L 253.527344 100 Z M 233.527344 100 "/>
<path style=" stroke:none;fill-rule:nonzero;fill:rgb(0%,0%,0%);fill-opacity:1;" d="M 233.527344 60 L 233.527344 40 L 253.527344 40 L 253.527344 60 Z M 233.527344 60 "/>
<path style=" stroke:none;fill-rule:nonzero;fill:rgb(0%,0%,0%);fill-opacity:1;" d="M 233.527344 20 L 233.527344 0 L 253.527344 0 L 253.527344 20 Z M 233.527344 20 "/>
<path style=" stroke:none;fill-rule:nonzero;fill:rgb(0%,0%,0%);fill-opacity:1;" d="M 269.527344 220 L 269.527344 200 L 289.527344 200 L 289.527344 220 Z M 269.527344 220 "/>
<path style=" stroke:none;fill-rule:nonzero;fill:rgb(0%,0%,0%);fill-opacity:1;" d="M 269.527344 180 L 269.527344 160 L 289.527344 160 L 289.527344 180 Z M 269.527344 180 "/>
<path style=" stroke:none;fill-rule:nonzero;fill:rgb(0%,0%,0%);fill-opacity:1;" d="M 269.527344 140 L 269.527344 120 L 289.527344 120 L 289.527344 140 Z M 269.527344 140 "/>
<path style=" stroke:none;fill-rule:nonzero;fill:rgb(0%,0%,0%);fill-opacity:1;" d="M 269.527344 100 L 269.527344 80 L 289.527344 80 L 289.527344 100 Z M 269.527344 100 "/>
<path style=" stroke:none;fill-rule:nonzero;fill:rgb(0%,0%,0%);fill-opacity:1;" d="M 269.527344 60 L 269.527344 40 L 289.527344 40 L 289.527344 60 Z M 269.527344 60 "/>
<path style=" stroke:none;fill-rule:nonzero;fill:rgb(0%,0%,0%);fill-opacity:1;" d="M 269.527344 20 L 269.527344 0 L 289.527344 0 L 289.527344 20 Z M 269.527344 20 "/>
<path style=" stroke:none;fill-rule:nonzero;fill:rgb(0%,0%,0%);fill-opacity:1;" d="M 305.527344 220 L 305.527344 200 L 325.527344 200 L 325.527344 220 Z M 305.527344 220 "/>
<path style=" stroke:none;fill-rule:nonzero;fill:rgb(0%,0%,0%);fill-opacity:1;" d="M 305.527344 180 L 305.527344 160 L 325.527344 160 L 325.527344 180 Z M 305.527344 180 "/>
<path style=" stroke:none;fill-rule:nonzero;fill:rgb(0%,0%,0%);fill-opacity:1;" d="M 305.527344 140 L 305.527344 120 L 325.527344 120 L 325.527344 140 Z M 305.527344 140 "/>
<path style=" stroke:none;fill-rule:nonzero;fill:rgb(0%,0%,0%);fill-opacity:1;" d="M 305.527344 100 L 305.527344 80 L 325.527344 80 L 325.527344 100 Z M 305.527344 100 "/>
<path style=" stroke:none;fill-rule:nonzero;fill:rgb(0%,0%,0%);fill-opacity:1;" d="M 305.527344 60 L 305.527344 40 L 325.527344 40 L 325.527344 60 Z M 305.527344 60 "/>
<path style=" stroke:none;fill-rule:nonzero;fill:rgb(0%,0%,0%);fill-opacity:1;" d="M 305.527344 20 L 305.527344 0 L 325.527344 0 L 325.527344 20 Z M 305.527344 20 "/>
<path style=" stroke:none;fill-rule:nonzero;fill:rgb(0%,0%,0%);fill-opacity:1;" d="M 341.527344 220 L 341.527344 200 L 361.527344 200 L 361.527344 220 Z M 341.527344 220 "/>
<path style=" stroke:none;fill-rule:nonzero;fill:rgb(0%,0%,0%);fill-opacity:1;" d="M 341.527344 180 L 341.527344 160 L 361.527344 160 L 361.527344 180 Z M 341.527344 180 "/>
<path style=" stroke:none;fill-rule:nonzero;fill:rgb(0%,0%,0%);fill-opacity:1;" d="M 341.527344 140 L 341.527344 120 L 361.527344 120 L 361.527344 140 Z M 341.527344 140 "/>
<path style=" stroke:none;fill-rule:nonzero;fill:rgb(0%,0%,0%);fill-opacity:1;" d="M 341.527344 100 L 341.527344 80 L 361.527344 80 L 361.527344 100 Z M 341.527344 100 "/>
<path style=" stroke:none;fill-rule:nonzero;fill:rgb(0%,0%,0%);fill-opacity:1;" d="M 341.527344 60 L 341.527344 40 L 361.527344 40 L 361.527344 60 Z M 341.527344 60 "/>
<path style=" stroke:none;fill-rule:nonzero;fill:rgb(0%,0%,0%);fill-opacity:1;" d="M 341.527344 20 L 341.527344 0 L 361.527344 0 L 361.527344 20 Z M 341.527344 20 "/>
<path style=" stroke:none;fill-rule:nonzero;fill:rgb(0%,0%,0%);fill-opacity:1;" d="M 377.527344 220 L 377.527344 200 L 397.527344 200 L 397.527344 220 Z M 377.527344 220 "/>
<path style=" stroke:none;fill-rule:nonzero;fill:rgb(0%,0%,0%);fill-opacity:1;" d="M 377.527344 180 L 377.527344 160 L 397.527344 160 L 397.527344 180 Z M 377.527344 180 "/>
<path style=" stroke:none;fill-rule:nonzero;fill:rgb(0%,0%,0%);fill-opacity:1;" d="M 377.527344 140 L 377.527344 120 L 397.527344 120 L 397.527344 140 Z M 377.527344 140 "/>
<path style=" stroke:none;fill-rule:nonzero;fill:rgb(0%,0%,0%);fill-opacity:1;" d="M 377.527344 100 L 377.527344 80 L 397.527344 80 L 397.527344 100 Z M 377.527344 100 "/>
<path style=" stroke:none;fill-rule:nonzero;fill:rgb(0%,0%,0%);fill-opacity:1;" d="M 377.527344 60 L 377.527344 40 L 397.527344 40 L 397.527344 60 Z M 377.527344 60 "/>
<path style=" stroke:none;fill-rule:nonzero;fill:rgb(0%,0%,0%);fill-opacity:1;" d="M 377.527344 20 L 377.527344 0 L 397.527344 0 L 397.527344 20 Z M 377.527344 20 "/>
<path style=" stroke:none;fill-rule:nonzero;fill:rgb(0%,0%,0%);fill-opacity:1;" d="M -10.363281 200 L -10.363281 180 L 9.636719 180 L 9.636719 200 Z M -10.363281 200 "/>
<path style=" stroke:none;fill-rule:nonzero;fill:rgb(0%,0%,0%);fill-opacity:1;" d="M -10.363281 160 L -10.363281 140 L 9.636719 140 L 9.636719 160 Z M -10.363281 160 "/>
<path style=" stroke:none;fill-rule:nonzero;fill:rgb(0%,0%,0%);fill-opacity:1;" d="M -10.363281 120 L -10.363281 100 L 9.636719 100 L 9.636719 120 Z M -10.363281 120 "/>
<path style=" stroke:none;fill-rule:nonzero;fill:rgb(0%,0%,0%);fill-opacity:1;" d="M -10.363281 80 L -10.363281 60 L 9.636719 60 L 9.636719 80 Z M -10.363281 80 "/>
<path style=" stroke:none;fill-rule:nonzero;fill:rgb(0%,0%,0%);fill-opacity:1;" d="M -10.363281 40 L -10.363281 20 L 9.636719 20 L 9.636719 40 Z M -10.363281 40 "/>
<path style=" stroke:none;fill-rule:nonzero;fill:rgb(0%,0%,0%);fill-opacity:1;" d="M 25.636719 200 L 25.636719 180 L 45.636719 180 L 45.636719 200 Z M 25.636719 200 "/>
<path style=" stroke:none;fill-rule:nonzero;fill:rgb(0%,0%,0%);fill-opacity:1;" d="M 25.636719 160 L 25.636719 140 L 45.636719 140 L 45.636719 160 Z M 25.636719 160 "/>
<path style=" stroke:none;fill-rule:nonzero;fill:rgb(0%,0%,0%);fill-opacity:1;" d="M 25.636719 120 L 25.636719 100 L 45.636719 100 L 45.636719 120 Z M 25.636719 120 "/>
<path style=" stroke:none;fill-rule:nonzero;fill:rgb(0%,0%,0%);fill-opacity:1;" d="M 25.636719 80 L 25.636719 60 L 45.636719 60 L 45.636719 80 Z M 25.636719 80 "/>
<path style=" stroke:none;fill-rule:nonzero;fill:rgb(0%,0%,0%);fill-opacity:1;" d="M 25.636719 40 L 25.636719 20 L 45.636719 20 L 45.636719 40 Z M 25.636719 40 "/>
<path style=" stroke:none;fill-rule:nonzero;fill:rgb(0%,0%,0%);fill-opacity:1;" d="M 61.636719 200 L 61.636719 180 L 81.636719 180 L 81.636719 200 Z M 61.636719 200 "/>
<path style=" stroke:none;fill-rule:nonzero;fill:rgb(0%,0%,0%);fill-opacity:1;" d="M 61.636719 160 L 61.636719 140 L 81.636719 140 L 81.636719 160 Z M 61.636719 160 "/>
<path style=" stroke:none;fill-rule:nonzero;fill:rgb(0%,0%,0%);fill-opacity:1;" d="M 61.636719 120 L 61.636719 100 L 81.636719 100 L 81.636719 120 Z M 61.636719 120 "/>
<path style=" stroke:none;fill-rule:nonzero;fill:rgb(0%,0%,0%);fill-opacity:1;" d="M 61.636719 80 L 61.636719 60 L 81.636719 60 L 81.636719 80 Z M 61.636719 80 "/>
<path style=" stroke:none;fill-rule:nonzero;fill:rgb(0%,0%,0%);fill-opacity:1;" d="M 61.636719 40 L 61.636719 20 L 81.636719 20 L 81.636719 40 Z M 61.636719 40 "/>
<path style=" stroke:none;fill-rule:nonzero;fill:rgb(0%,0%,0%);fill-opacity:1;" d="M 97.636719 200 L 97.636719 180 L 117.636719 180 L 117.636719 200 Z M 97.636719 200 "/>
<path style=" stroke:none;fill-rule:nonzero;fill:rgb(0%,0%,0%);fill-opacity:1;" d="M 97.636719 160 L 97.636719 140 L 117.636719 140 L 117.636719 160 Z M 97.636719 160 "/>
<path style=" stroke:none;fill-rule:nonzero;fill:rgb(0%,0%,0%);fill-opacity:1;" d="M 97.636719 120 L 97.636719 100 L 117.636719 100 L 117.636719 120 Z M 97.636719 120 "/>
<path style=" stroke:none;fill-rule:nonzero;fill:rgb(0%,0%,0%);fill-opacity:1;" d="M 97.636719 80 L 97.636719 60 L 117.636719 60 L 117.636719 80 Z M 97.636719 80 "/>
<path style=" stroke:none;fill-rule:nonzero;fill:rgb(0%,0%,0%);fill-opacity:1;" d="M 97.636719 40 L 97.636719 20 L 117.636719 20 L 117.636719 40 Z M 97.636719 40 "/>
<path style=" stroke:none;fill-rule:nonzero;fill:rgb(0%,0%,0%);fill-opacity:1;" d="M 133.636719 200 L 133.636719 180 L 153.636719 180 L 153.636719 200 Z M 133.636719 200 "/>
<path style=" stroke:none;fill-rule:nonzero;fill:rgb(0%,0%,0%);fill-opacity:1;" d="M 133.636719 160 L 133.636719 140 L 153.636719 140 L 153.636719 160 Z M 133.636719 160 "/>
<path style=" stroke:none;fill-rule:nonzero;fill:rgb(0%,0%,0%);fill-opacity:1;" d="M 133.636719 120 L 133.636719 100 L 153.636719 100 L 153.636719 120 Z M 133.636719 120 "/>
<path style=" stroke:none;fill-rule:nonzero;fill:rgb(0%,0%,0%);fill-opacity:1;" d="M 133.636719 80 L 133.636719 60 L 153.636719 60 L 153.636719 80 Z M 133.636719 80 "/>
<path style=" stroke:none;fill-rule:nonzero;fill:rgb(0%,0%,0%);fill-opacity:1;" d="M 133.636719 40 L 133.636719 20 L 153.636719 20 L 153.636719 40 Z M 133.636719 40 "/>
<path style=" stroke:none;fill-rule:nonzero;fill:rgb(0%,0%,0%);fill-opacity:1;" d="M 169.636719 200 L 169.636719 180 L 189.636719 180 L 189.636719 200 Z M 169.636719 200 "/>
<path style=" stroke:none;fill-rule:nonzero;fill:rgb(0%,0%,0%);fill-opacity:1;" d="M 169.636719 160 L 169.636719 140 L 189.636719 140 L 189.636719 160 Z M 169.636719 160 "/>
<path style=" stroke:none;fill-rule:nonzero;fill:rgb(0%,0%,0%);fill-opacity:1;" d="M 169.636719 120 L 169.636719 100 L 189.636719 100 L 189.636719 120 Z M 169.636719 120 "/>
<path style=" stroke:none;fill-rule:nonzero;fill:rgb(0%,0%,0%);fill-opacity:1;" d="M 169.636719 80 L 169.636719 60 L 189.636719 60 L 189.636719 80 Z M 169.636719 80 "/>
<path style=" stroke:none;fill-rule:nonzero;fill:rgb(0%,0%,0%);fill-opacity:1;" d="M 169.636719 40 L 169.636719 20 L 189.636719 20 L 189.636719 40 Z M 169.636719 40 "/>
<path style=" stroke:none;fill-rule:nonzero;fill:rgb(0%,0%,0%);fill-opacity:1;" d="M 205.636719 200 L 205.636719 180 L 225.636719 180 L 225.636719 200 Z M 205.636719 200 "/>
<path style=" stroke:none;fill-rule:nonzero;fill:rgb(0%,0%,0%);fill-opacity:1;" d="M 205.636719 160 L 205.636719 140 L 225.636719 140 L 225.636719 160 Z M 205.636719 160 "/>
<path style=" stroke:none;fill-rule:nonzero;fill:rgb(0%,0%,0%);fill-opacity:1;" d="M 205.636719 120 L 205.636719 100 L 225.636719 100 L 225.636719 120 Z M 205.636719 120 "/>
<path style=" stroke:none;fill-rule:nonzero;fill:rgb(0%,0%,0%);fill-opacity:1;" d="M 205.636719 80 L 205.636719 60 L 225.636719 60 L 225.636719 80 Z M 205.636719 80 "/>
<path style=" stroke:none;fill-rule:nonzero;fill:rgb(0%,0%,0%);fill-opacity:1;" d="M 205.636719 40 L 205.636719 20 L 225.636719 20 L 225.636719 40 Z M 205.636719 40 "/>
<path style=" stroke:none;fill-rule:nonzero;fill:rgb(0%,0%,0%);fill-opacity:1;" d="M 241.636719 200 L 241.636719 180 L 261.636719 180 L 261.636719 200 Z M 241.636719 200 "/>
<path style=" stroke:none;fill-rule:nonzero;fill:rgb(0%,0%,0%);fill-opacity:1;" d="M 241.636719 160 L 241.636719 140 L 261.636719 140 L 261.636719 160 Z M 241.636719 160 "/>
<path style=" stroke:none;fill-rule:nonzero;fill:rgb(0%,0%,0%);fill-opacity:1;" d="M 241.636719 120 L 241.636719 100 L 261.636719 100 L 261.636719 120 Z M 241.636719 120 "/>
<path style=" stroke:none;fill-rule:nonzero;fill:rgb(0%,0%,0%);fill-opacity:1;" d="M 241.636719 80 L 241.636719 60 L 261.636719 60 L 261.636719 80 Z M 241.636719 80 "/>
<path style=" stroke:none;fill-rule:nonzero;fill:rgb(0%,0%,0%);fill-opacity:1;" d="M 241.636719 40 L 241.636719 20 L 261.636719 20 L 261.636719 40 Z M 241.636719 40 "/>
<path style=" stroke:none;fill-rule:nonzero;fill:rgb(0%,0%,0%);fill-opacity:1;" d="M 277.636719 200 L 277.636719 180 L 297.636719 180 L 297.636719 200 Z M 277.636719 200 "/>
<path style=" stroke:none;fill-rule:nonzero;fill:rgb(0%,0%,0%);fill-opacity:1;" d="M 277.636719 160 L 277.636719 140 L 297.636719 140 L 297.636719 160 Z M 277.636719 160 "/>
<path style=" stroke:none;fill-rule:nonzero;fill:rgb(0%,0%,0%);fill-opacity:1;" d="M 277.636719 120 L 277.636719 100 L 297.636719 100 L 297.636719 120 Z M 277.636719 120 "/>
<path style=" stroke:none;fill-rule:nonzero;fill:rgb(0%,0%,0%);fill-opacity:1;" d="M 277.636719 80 L 277.636719 60 L 297.636719 60 L 297.636719 80 Z M 277.636719 80 "/>
<path style=" stroke:none;fill-rule:nonzero;fill:rgb(0%,0%,0%);fill-opacity:1;" d="M 277.636719 40 L 277.636719 20 L 297.636719 20 L 297.636719 40 Z M 277.636719 40 "/>
<path style=" stroke:none;fill-rule:nonzero;fill:rgb(0%,0%,0%);fill-opacity:1;" d="M 313.636719 200 L 313.636719 180 L 333.636719 180 L 333.636719 200 Z M 313.636719 200 "/>
<path style=" stroke:none;fill-rule:nonzero;fill:rgb(0%,0%,0%);fill-opacity:1;" d="M 313.636719 160 L 313.636719 140 L 333.636719 140 L 333.636719 160 Z M 313.636719 160 "/>
<path style=" stroke:none;fill-rule:nonzero;fill:rgb(0%,0%,0%);fill-opacity:1;" d="M 313.636719 120 L 313.636719 100 L 333.636719 100 L 333.636719 120 Z M 313.636719 120 "/>
<path style=" stroke:none;fill-rule:nonzero;fill:rgb(0%,0%,0%);fill-opacity:1;" d="M 313.636719 80 L 313.636719 60 L 333.636719 60 L 333.636719 80 Z M 313.636719 80 "/>
<path style=" stroke:none;fill-rule:nonzero;fill:rgb(0%,0%,0%);fill-opacity:1;" d="M 313.636719 40 L 313.636719 20 L 333.636719 20 L 333.636719 40 Z M 313.636719 40 "/>
<path style=" stroke:none;fill-rule:nonzero;fill:rgb(0%,0%,0%);fill-opacity:1;" d="M 349.636719 200 L 349.636719 180 L 369.636719 180 L 369.636719 200 Z M 349.636719 200 "/>
<path style=" stroke:none;fill-rule:nonzero;fill:rgb(0%,0%,0%);fill-opacity:1;" d="M 349.636719 160 L 349.636719 140 L 369.636719 140 L 369.636719 160 Z M 349.636719 160 "/>
<path style=" stroke:none;fill-rule:nonzero;fill:rgb(0%,0%,0%);fill-opacity:1;" d="M 349.636719 120 L 349.636719 100 L 369.636719 100 L 369.636719 120 Z M 349.636719 120 "/>
<path style=" stroke:none;fill-rule:nonzero;fill:rgb(0%,0%,0%);fill-opacity:1;" d="M 349.636719 80 L 349.636719 60 L 369.636719 60 L 369.636719 80 Z M 349.636719 80 "/>
<path style=" stroke:none;fill-rule:nonzero;fill:rgb(0%,0%,0%);fill-opacity:1;" d="M 349.636719 40 L 349.636719 20 L 369.636719 20 L 369.636719 40 Z M 349.636719 40 "/>
<path style=" stroke:none;fill-rule:nonzero;fill:rgb(0%,0%,0%);fill-opacity:1;" d="M 385.636719 200 L 385.636719 180 L 405.636719 180 L 405.636719 200 Z M 385.636719 200 "/>
<path style=" stroke:none;fill-rule:nonzero;fill:rgb(0%,0%,0%);fill-opacity:1;" d="M 385.636719 160 L 385.636719 140 L 405.636719 140 L 405.636719 160 Z M 385.636719 160 "/>
<path style=" stroke:none;fill-rule:nonzero;fill:rgb(0%,0%,0%);fill-opacity:1;" d="M 385.636719 120 L 385.636719 100 L 405.636719 100 L 405.636719 120 Z M 385.636719 120 "/>
<path style=" stroke:none;fill-rule:nonzero;fill:rgb(0%,0%,0%);fill-opacity:1;" d="M 385.636719 80 L 385.636719 60 L 405.636719 60 L 405.636719 80 Z M 385.636719 80 "/>
<path style=" stroke:none;fill-rule:nonzero;fill:rgb(0%,0%,0%);fill-opacity:1;" d="M 385.636719 40 L 385.636719 20 L 405.636719 20 L 405.636719 40 Z M 385.636719 40 "/>
<path style="fill:none;stroke-width:1;stroke-linecap:square;stroke-linejoin:miter;stroke:rgb(100%,0%,0%);stroke-opacity:1;stroke-miterlimit:3.25;" d="M 0 220 L 400 220 "/>
<path style="fill:none;stroke-width:1;stroke-linecap:square;stroke-linejoin:miter;stroke:rgb(100%,0%,0%);stroke-opacity:1;stroke-miterlimit:3.25;" d="M 0 200 L 400 200 "/>
<path style="fill:none;stroke-width:1;stroke-linecap:square;stroke-linejoin:miter;stroke:rgb(100%,0%,0%);stroke-opacity:1;stroke-miterlimit:3.25;" d="M 0 180 L 400 180 "/>
<path style="fill:none;stroke-width:1;stroke-linecap:square;stroke-linejoin:miter;stroke:rgb(100%,0%,0%);stroke-opacity:1;stroke-miterlimit:3.25;" d="M 0 160 L 400 160 "/>
<path style="fill:none;stroke-width:1;stroke-linecap:square;stroke-linejoin:miter;stroke:rgb(100%,0%,0%);stroke-opacity:1;stroke-miterlimit:3.25;" d="M 0 140 L 400 140 "/>
<path style="fill:none;stroke-width:1;stroke-linecap:square;stroke-linejoin:miter;stroke:rgb(100%,0%,0%);stroke-opacity:1;stroke-miterlimit:3.25;" d="M 0 120 L 400 120 "/>
<path style="fill:none;stroke-width:1;stroke-linecap:square;stroke-linejoin:miter;stroke:rgb(100%,0%,0%);stroke-opacity:1;stroke-miterlimit:3.25;" d="M 0 100 L 400 100 "/>
<path style="fill:none;stroke-width:1;stroke-linecap:square;stroke-linejoin:miter;stroke:rgb(100%,0%,0%);stroke-opacity:1;stroke-miterlimit:3.25;" d="M 0 80 L 400 80 "/>
<path style="fill:none;stroke-width:1;stroke-linecap:square;stroke-linejoin:miter;stroke:rgb(100%,0%,0%);stroke-opacity:1;stroke-miterlimit:3.25;" d="M 0 60 L 400 60 "/>
<path style="fill:none;stroke-width:1;stroke-linecap:square;stroke-linejoin:miter;stroke:rgb(100%,0%,0%);stroke-opacity:1;stroke-miterlimit:3.25;" d="M 0 40 L 400 40 "/>
<path style="fill:none;stroke-width:1;stroke-linecap:square;stroke-linejoin:miter;stroke:rgb(100%,0%,0%);stroke-opacity:1;stroke-miterlimit:3.25;" d="M 0 20 L 400 20 "/>
</g>
</svg>
