<?xml version="1.0" encoding="UTF-8"?>
<svg xmlns="http://www.w3.org/2000/svg" xmlns:xlink="http://www.w3.org/1999/xlink" width="400pt" height="220pt" viewBox="0 0 400 220" version="1.1">
<g id="surface606">
<rect x="0" y="0" width="400" height="220" style="fill:rgb(0%,40%,100%);fill-opacity:0.2;stroke:none;"/>
<path style=" stroke:none;fill-rule:nonzero;fill:rgb(0%,0%,0%);fill-opacity:1;" d="M 19.644531 220 L 19.644531 200 L 39.644531 200 L 39.644531 220 Z M 19.644531 220 "/>
<path style=" stroke:none;fill-rule:nonzero;fill:rgb(0%,0%,0%);fill-opacity:1;" d="M 19.644531 180 L 19.644531 160 L 39.644531 160 L 39.644531 180 Z M 19.644531 180 "/>
<path style=" stroke:none;fill-rule:nonzero;fill:rgb(0%,0%,0%);fill-opacity:1;" d="M 19.644531 140 L 19.644531 120 L 39.644531 120 L 39.644531 140 Z M 19.644531 140 "/>
<path style=" stroke:none;fill-rule:nonzero;fill:rgb(0%,0%,0%);fill-opacity:1;" d="M 19.644531 100 L 19.644531 80 L 39.644531 80 L 39.644531 100 Z M 19.644531 100 "/>
<path style=" stroke:none;fill-rule:nonzero;fill:rgb(0%,0%,0%);fill-opacity:1;" d="M 19.644531 60 L 19.644531 40 L 39.644531 40 L 39.644531 60 Z M 19.644531 60 "/>
<path style=" stroke:none;fill-rule:nonzero;fill:rgb(0%,0%,0%);fill-opacity:1;" d="M 19.644531 20 L 19.644531 0 L 39.644531 0 L 39.644531 20 Z M 19.644531 20 "/>
<path style=" stroke:none;fill-rule:nonzero;fill:rgb(0%,0%,0%);fill-opacity:1;" d="M 55.644531 220 L 55.644531 200 L 75.644531 200 L 75.644531 220 Z M 55.644531 220 "/>
<path style=" stroke:none;fill-rule:nonzero;fill:rgb(0%,0%,0%);fill-opacity:1;" d="M 55.644531 180 L 55.644531 160 L 75.644531 160 L 75.644531 180 Z M 55.644531 180 "/>
<path style=" stroke:none;fill-rule:nonzero;fill:rgb(0%,0%,0%);fill-opacity:1;" d="M 55.644531 140 L 55.644531 120 L 75.644531 120 L 75.644531 140 Z M 55.644531 140 "/>
<path style=" stroke:none;fill-rule:nonzero;fill:rgb(0%,0%,0%);fill-opacity:1;" d="M 55.644531 100 L 55.644531 80 L 75.644531 80 L 75.644531 100 Z M 55.644531 100 "/>
<path style=" stroke:none;fill-rule:nonzero;fill:rgb(0%,0%,0%);fill-opacity:1;" d="M 55.644531 60 L 55.644531 40 L 75.644531 40 L 75.644531 60 Z M 55.644531 60 "/>
<path style=" stroke:none;fill-rule:nonzero;fill:rgb(0%,0%,0%);fill-opacity:1;" d="M 55.644531 20 L 55.644531 0 L 75.644531 0 L 75.644531 20 Z M 55.644531 20 "/>
<path style=" stroke:none;fill-rule:nonzero;fill:rgb(0%,0%,0%);fill-opacity:1;" d="M 91.644531 220 L 91.644531 200 L 111.644531 200 L 111.644531 220 Z M 91.644531 220 "/>
<path style=" stroke:none;fill-rule:nonzero;fill:rgb(0%,0%,0%);fill-opacity:1;" d="M 91.644531 180 L 91.644531 160 L 111.644531 160 L 111.644531 180 Z M 91.644531 180 "/>
<path style=" stroke:none;fill-rule:nonzero;fill:rgb(0%,0%,0%);fill-opacity:1;" d="M 91.644531 140 L 91.644531 120 L 111.644531 120 L 111.644531 140 Z M 91.644531 140 "/>
<path style=" stroke:none;fill-rule:nonzero;fill:rgb(0%,0%,0%);fill-opacity:1;" d="M 91.644531 100 L 91.644531 80 L 111.644531 80 L 111.644531 100 Z M 91.644531 100 "/>
<path style=" stroke:none;fill-rule:nonzero;fill:rgb(0%,0%,0%);fill-opacity:1;" d="M 91.644531 60 L 91.644531 40 L 111.644531 40 L 111.644531 60 Z M 91.644531 60 "/>
<path style=" stroke:none;fill-rule:nonzero;fill:rgb(0%,0%,0%);fill-opacity:1;" d="M 91.644531 20 L 91.644531 0 L 111.644531 0 L 111.644531 20 Z M 91.644531 20 "/>
<path style=" stroke:none;fill-rule:nonzero;fill:rgb(0%,0%,0%);fill-opacity:1;" d="M 127.644531 220 L 127.644531 200 L 147.644531 200 L 147.644531 220 Z M 127.644531 220 "/>
<path style=" stroke:none;fill-rule:nonzero;fill:rgb(0%,0%,0%);fill-opacity:1;" d="M 127.644531 180 L 127.644531 160 L 147.644531 160 L 147.644531 180 Z M 127.644531 180 "/>
<path style=" stroke:none;fill-rule:nonzero;fill:rgb(0%,0%,0%);fill-opacity:1;" d="M 127.644531 140 L 127.644531 120 L 147.644531 120 L 147.644531 140 Z M 127.644531 140 "/>
<path style=" stroke:none;fill-rule:nonzero;fill:rgb(0%,0%,0%);fill-opacity:1;" d="M 127.644531 100 L 127.644531 80 L 147.644531 80 L 147.644531 100 Z M 127.644531 100 "/>
<path style=" stroke:none;fill-rule:nonzero;fill:rgb(0%,0%,0%);fill-opacity:1;" d="M 127.644531 60 L 127.644531 40 L 147.644531 40 L 147.644531 60 Z M 127.644531 60 "/>
<path style=" stroke:none;fill-rule:nonzero;fill:rgb(0%,0%,0%);fill-opacity:1;" d="M 127.644531 20 L 127.644531 0 L 147.644531 0 L 147.644531 20 Z M 127.644531 20 "/>
<path style=" stroke:none;fill-rule:nonzero;fill:rgb(0%,0%,0%);fill-opacity:1;" d="M 163.644531 220 L 163.644531 200 L 183.644531 200 L 183.644531 220 Z M 163.644531 220 "/>
<path style=" stroke:none;fill-rule:nonzero;fill:rgb(0%,0%,0%);fill-opacity:1;" d="M 163.644531 180 L 163.644531 160 L 183.644531 160 L 183.644531 180 Z M 163.644531 180 "/>
<path style=" stroke:none;fill-rule:nonzero;fill:rgb(0%,0%,0%);fill-opacity:1;" d="M 163.644531 140 L 163.644531 120 L 183.644531 120 L 183.644531 140 Z M 163.644531 140 "/>
<path style=" stroke:none;fill-rule:nonzero;fill:rgb(0%,0%,0%);fill-opacity:1;" d="M 163.644531 100 L 163.644531 80 L 183.644531 80 L 183.644531 100 Z M 163.644531 100 "/>
<path style=" stroke:none;fill-rule:nonzero;fill:rgb(0%,0%,0%);fill-opacity:1;" d="M 163.644531 60 L 163.644531 40 L 183.644531 40 L 183.644531 60 Z M 163.644531 60 "/>
<path style=" stroke:none;fill-rule:nonzero;fill:rgb(0%,0%,0%);fill-opacity:1;" d="M 163.644531 20 L 163.644531 0 L 183.644531 0 L 183.644531 20 Z M 163.644531 20 "/>
<path style=" stroke:none;fill-rule:nonzero;fill:rgb(0%,0%,0%);fill-opacity:1;" d="M 199.644531 220 L 199.644531 200 L 219.644531 200 L 219.644531 220 Z M 199.644531 220 "/>
<path style=" stroke:none;fill-rule:nonzero;fill:rgb(0%,0%,0%);fill-opacity:1;" d="M 199.644531 180 L 199.644531 160 L 219.644531 160 L 219.644531 180 Z M 199.644531 180 "/>
<path style=" stroke:none;fill-rule:nonzero;fill:rgb(0%,0%,0%);fill-opacity:1;" d="M 199.644531 140 L 199.644531 120 L 219.644531 120 L 219.644531 140 Z M 199.644531 140 "/>
<path style=" stroke:none;fill-rule:nonzero;fill:rgb(0%,0%,0%);fill-opacity:1;" d="M 199.644531 100 L 199.644531 80 L 219.644531 80 L 219.644531 100 Z M 199.644531 100 "/>
<path style=" stroke:none;fill-rule:nonzero;fill:rgb(0%,0%,0%);fill-opacity:1;" d="M 199.644531 60 L 199.644531 40 L 219.644531 40 L 219.644531 60 Z M 199.644531 60 "/>
<path style=" stroke:none;fill-rule:nonzero;fill:rgb(0%,0%,0%);fill-opacity:1;" d="M 199.644531 20 L 199.644531 0 L 219.644531 0 L 219.644531 20 Z M 199.644531 20 "/>
<path style=" stroke:none;fill-rule:nonzero;fill:rgb(0%,0%,0%);fill-opacity:1;" d="M 235.644531 220 L 235.644531 200 L 255.644531 200 L 255.644531 220 Z M 235.644531 220 "/>
<path style=" stroke:none;fill-rule:nonzero;fill:rgb(0%,0%,0%);fill-opacity:1;" d="M 235.644531 180 L 235.644531 160 L 255.644531 160 L 255.644531 180 Z M 235.644531 180 "/>
<path style=" stroke:none;fill-rule:nonzero;fill:rgb(0%,0%,0%);fill-opacity:1;" d="M 235.644531 140 L 235.644531 120 L 255.644531 120 L 255.644531 140 Z M 235.644531 140 "/>
<path style=" stroke:none;fill-rule:nonzero;fill:rgb(0%,0%,0%);fill-opacity:1;" d="M 235.644531 100 L 235.644531 80 L 255.644531 80 L 255.644531 100 Z M 235.644531 100 "/>
<path style=" stroke:none;fill-rule:nonzero;fill:rgb(0%,0%,0%);fill-opacity:1;" d="M 235.644531 60 L 235.644531 40 L 255.644531 40 L 255.644531 60 Z M 235.644531 60 "/>
<path style=" stroke:none;fill-rule:nonzero;fill:rgb(0%,0%,0%);fill-opacity:1;" d="M 235.644531 20 L 235.644531 0 L 255.644531 0 L 255.644531 20 Z M 235.644531 20 "/>
<path style=" stroke:none;fill-rule:nonzero;fill:rgb(0%,0%,0%);fill-opacity:1;" d="M 271.644531 220 L 271.644531 200 L 291.644531 200 L 291.644531 220 Z M 271.644531 220 "/>
<path style=" stroke:none;fill-rule:nonzero;fill:rgb(0%,0%,0%);fill-opacity:1;" d="M 271.644531 180 L 271.644531 160 L 291.644531 160 L 291.644531 180 Z M 271.644531 180 "/>
<path style=" stroke:none;fill-rule:nonzero;fill:rgb(0%,0%,0%);fill-opacity:1;" d="M 271.644531 140 L 271.644531 120 L 291.644531 120 L 291.644531 140 Z M 271.644531 140 "/>
<path style=" stroke:none;fill-rule:nonzero;fill:rgb(0%,0%,0%);fill-opacity:1;" d="M 271.644531 100 L 271.644531 80 L 291.644531 80 L 291.644531 100 Z M 271.644531 100 "/>
<path style=" stroke:none;fill-rule:nonzero;fill:rgb(0%,0%,0%);fill-opacity:1;" d="M 271.644531 60 L 271.644531 40 L 291.644531 40 L 291.644531 60 Z M 271.644531 60 "/>
<path style=" stroke:none;fill-rule:nonzero;fill:rgb(0%,0%,0%);fill-opacity:1;" d="M 271.644531 20 L 271.644531 0 L 291.644531 0 L 291.644531 20 Z M 271.644531 20 "/>
<path style=" stroke:none;fill-rule:nonzero;fill:rgb(0%,0%,0%);fill-opacity:1;" d="M 307.644531 220 L 307.644531 200 L 327.644531 200 L 327.644531 220 Z M 307.644531 220 "/>
<path style=" stroke:none;fill-rule:nonzero;fill:rgb(0%,0%,0%);fill-opacity:1;" d="M 307.644531 180 L 307.644531 160 L 327.644531 160 L 327.644531 180 Z M 307.644531 180 "/>
<path style=" stroke:none;fill-rule:nonzero;fill:rgb(0%,0%,0%);fill-opacity:1;" d="M 307.644531 140 L 307.644531 120 L 327.644531 120 L 327.644531 140 Z M 307.644531 140 "/>
<path style=" stroke:none;fill-rule:nonzero;fill:rgb(0%,0%,0%);fill-opacity:1;" d="M 307.644531 100 L 307.644531 80 L 327.644531 80 L 327.644531 100 Z M 307.644531 100 "/>
<path style=" stroke:none;fill-rule:nonzero;fill:rgb(0%,0%,0%);fill-opacity:1;" d="M 307.644531 60 L 307.644531 40 L 327.644531 40 L 327.644531 60 Z M 307.644531 60 "/>
<path style=" stroke:none;fill-rule:nonzero;fill:rgb(0%,0%,0%);fill-opacity:1;" d="M 307.644531 20 L 307.644531 0 L 327.644531 0 L 327.644531 20 Z M 307.644531 20 "/>
<path style=" stroke:none;fill-rule:nonzero;fill:rgb(0%,0%,0%);fill-opacity:1;" d="M 343.644531 220 L 343.644531 200 L 363.644531 200 L 363.644531 220 Z M 343.644531 220 "/>
<path style=" stroke:none;fill-rule:nonzero;fill:rgb(0%,0%,0%);fill-opacity:1;" d="M 343.644531 180 L 343.644531 160 L 363.644531 160 L 363.644531 180 Z M 343.644531 180 "/>
<path style=" stroke:none;fill-rule:nonzero;fill:rgb(0%,0%,0%);fill-opacity:1;" d="M 343.644531 140 L 343.644531 120 L 363.644531 120 L 363.644531 140 Z M 343.644531 140 "/>
<path style=" stroke:none;fill-rule:nonzero;fill:rgb(0%,0%,0%);fill-opacity:1;" d="M 343.644531 100 L 343.644531 80 L 363.644531 80 L 363.644531 100 Z M 343.644531 100 "/>
<path style=" stroke:none;fill-rule:nonzero;fill:rgb(0%,0%,0%);fill-opacity:1;" d="M 343.644531 60 L 343.644531 40 L 363.644531 40 L 363.644531 60 Z M 343.644531 60 "/>
<path style=" stroke:none;fill-rule:nonzero;fill:rgb(0%,0%,0%);fill-opacity:1;" d="M 343.644531 20 L 343.644531 0 L 363.644531 0 L 363.644531 20 Z M 343.644531 20 "/>
<path style=" stroke:none;fill-rule:nonzero;fill:rgb(0%,0%,0%);fill-opacity:1;" d="M 379.644531 220 L 379.644531 200 L 399.644531 200 L 399.644531 220 Z M 379.644531 220 "/>
<path style=" stroke:none;fill-rule:nonzero;fill:rgb(0%,0%,0%);fill-opacity:1;" d="M 379.644531 180 L 379.644531 160 L 399.644531 160 L 399.644531 180 Z M 379.644531 180 "/>
<path style=" stroke:none;fill-rule:nonzero;fill:rgb(0%,0%,0%);fill-opacity:1;" d="M 379.644531 140 L 379.644531 120 L 399.644531 120 L 399.644531 140 Z M 379.644531 140 "/>
<path style=" stroke:none;fill-rule:nonzero;fill:rgb(0%,0%,0%);fill-opacity:1;" d="M 379.644531 100 L 379.644531 80 L 399.644531 80 L 399.644531 100 Z M 379.644531 100 "/>
<path style=" stroke:none;fill-rule:nonzero;fill:rgb(0%,0%,0%);fill-opacity:1;" d="M 379.644531 60 L 379.644531 40 L 399.644531 40 L 399.644531 60 Z M 379.644531 60 "/>
<path style=" stroke:none;fill-rule:nonzero;fill:rgb(0%,0%,0%);fill-opacity:1;" d="M 379.644531 20 L 379.644531 0 L 399.644531 0 L 399.644531 20 Z M 379.644531 20 "/>
<path style=" stroke:none;fill-rule:nonzero;fill:rgb(0%,0%,0%);fill-opacity:1;" d="M 12.253906 200 L 12.253906 180 L 32.253906 180 L 32.253906 200 Z M 12.253906 200 "/>
<path style=" stroke:none;fill-rule:nonzero;fill:rgb(0%,0%,0%);fill-opacity:1;" d="M 12.253906 160 L 12.253906 140 L 32.253906 140 L 32.253906 160 Z M 12.253906 160 "/>
<path style=" stroke:none;fill-rule:nonzero;fill:rgb(0%,0%,0%);fill-opacity:1;" d="M 12.253906 120 L 12.253906 100 L 32.253906 100 L 32.253906 120 Z M 12.253906 120 "/>
<path style=" stroke:none;fill-rule:nonzero;fill:rgb(0%,0%,0%);fill-opacity:1;" d="M 12.253906 80 L 12.253906 60 L 32.253906 60 L 32.253906 80 Z M 12.253906 80 "/>
<path style=" stroke:none;fill-rule:nonzero;fill:rgb(0%,0%,0%);fill-opacity:1;" d="M 12.253906 40 L 12.253906 20 L 32.253906 20 L 32.253906 40 Z M 12.253906 40 "/>
<path style=" stroke:none;fill-rule:nonzero;fill:rgb(0%,0%,0%);fill-opacity:1;" d="M 48.253906 200 L 48.253906 180 L 68.253906 180 L 68.253906 200 Z M 48.253906 200 "/>
<path style=" stroke:none;fill-rule:nonzero;fill:rgb(0%,0%,0%);fill-opacity:1;" d="M 48.253906 160 L 48.253906 140 L 68.253906 140 L 68.253906 160 Z M 48.253906 160 "/>
<path style=" stroke:none;fill-rule:nonzero;fill:rgb(0%,0%,0%);fill-opacity:1;" d="M 48.253906 120 L 48.253906 100 L 68.253906 100 L 68.253906 120 Z M 48.253906 120 "/>
<path style=" stroke:none;fill-rule:nonzero;fill:rgb(0%,0%,0%);fill-opacity:1;" d="M 48.253906 80 L 48.253906 60 L 68.253906 60 L 68.253906 80 Z M 48.253906 80 "/>
<path style=" stroke:none;fill-rule:nonzero;fill:rgb(0%,0%,0%);fill-opacity:1;" d="M 48.253906 40 L 48.253906 20 L 68.253906 20 L 68.253906 40 Z M 48.253906 40 "/>
<path style=" stroke:none;fill-rule:nonzero;fill:rgb(0%,0%,0%);fill-opacity:1;" d="M 84.253906 200 L 84.253906 180 L 104.253906 180 L 104.253906 200 Z M 84.253906 200 "/>
<path style=" stroke:none;fill-rule:nonzero;fill:rgb(0%,0%,0%);fill-opacity:1;" d="M 84.253906 160 L 84.253906 140 L 104.253906 140 L 104.253906 160 Z M 84.253906 160 "/>
<path style=" stroke:none;fill-rule:nonzero;fill:rgb(0%,0%,0%);fill-opacity:1;" d="M 84.253906 120 L 84.253906 100 L 104.253906 100 L 104.253906 120 Z M 84.253906 120 "/>
<path style=" stroke:none;fill-rule:nonzero;fill:rgb(0%,0%,0%);fill-opacity:1;" d="M 84.253906 80 L 84.253906 60 L 104.253906 60 L 104.253906 80 Z M 84.253906 80 "/>
<path style=" stroke:none;fill-rule:nonzero;fill:rgb(0%,0%,0%);fill-opacity:1;" d="M 84.253906 40 L 84.253906 20 L 104.253906 20 L 104.253906 40 Z M 84.253906 40 "/>
<path style=" stroke:none;fill-rule:nonzero;fill:rgb(0%,0%,0%);fill-opacity:1;" d="M 120.253906 200 L 120.253906 180 L 140.253906 180 L 140.253906 200 Z M 120.253906 200 "/>
<path style=" stroke:none;fill-rule:nonzero;fill:rgb(0%,0%,0%);fill-opacity:1;" d="M 120.253906 160 L 120.253906 140 L 140.253906 140 L 140.253906 160 Z M 120.253906 160 "/>
<path style=" stroke:none;fill-rule:nonzero;fill:rgb(0%,0%,0%);fill-opacity:1;" d="M 120.253906 120 L 120.253906 100 L 140.253906 100 L 140.253906 120 Z M 120.253906 120 "/>
<path style=" stroke:none;fill-rule:nonzero;fill:rgb(0%,0%,0%);fill-opacity:1;" d="M 120.253906 80 L 120.253906 60 L 140.253906 60 L 140.253906 80 Z M 120.253906 80 "/>
<path style=" stroke:none;fill-rule:nonzero;fill:rgb(0%,0%,0%);fill-opacity:1;" d="M 120.253906 40 L 120.253906 20 L 140.253906 20 L 140.253906 40 Z M 120.253906 40 "/>
<path style=" stroke:none;fill-rule:nonzero;fill:rgb(0%,0%,0%);fill-opacity:1;" d="M 156.253906 200 L 156.253906 180 L 176.253906 180 L 176.253906 200 Z M 156.253906 200 "/>
<path style=" stroke:none;fill-rule:nonzero;fill:rgb(0%,0%,0%);fill-opacity:1;" d="M 156.253906 160 L 156.253906 140 L 176.253906 140 L 176.253906 160 Z M 156.253906 160 "/>
<path style=" stroke:none;fill-rule:nonzero;fill:rgb(0%,0%,0%);fill-opacity:1;" d="M 156.253906 120 L 156.253906 100 L 176.253906 100 L 176.253906 120 Z M 156.253906 120 "/>
<path style=" stroke:none;fill-rule:nonzero;fill:rgb(0%,0%,0%);fill-opacity:1;" d="M 156.253906 80 L 156.253906 60 L 176.253906 60 L 176.253906 80 Z M 156.253906 80 "/>
<path style=" stroke:none;fill-rule:nonzero;fill:rgb(0%,0%,0%);fill-opacity:1;" d="M 156.253906 40 L 156.253906 20 L 176.253906 20 L 176.253906 40 Z M 156.253906 40 "/>
<path style=" stroke:none;fill-rule:nonzero;fill:rgb(0%,0%,0%);fill-opacity:1;" d="M 192.253906 200 L 192.253906 180 L 212.253906 180 L 212.253906 200 Z M 192.253906 200 "/>
<path style=" stroke:none;fill-rule:nonzero;fill:rgb(0%,0%,0%);fill-opacity:1;" d="M 192.253906 160 L 192.253906 140 L 212.253906 140 L 212.253906 160 Z M 192.253906 160 "/>
<path style=" stroke:none;fill-rule:nonzero;fill:rgb(0%,0%,0%);fill-opacity:1;" d="M 192.253906 120 L 192.253906 100 L 212.253906 100 L 212.253906 120 Z M 192.253906 120 "/>
<path style=" stroke:none;fill-rule:nonzero;fill:rgb(0%,0%,0%);fill-opacity:1;" d="M 192.253906 80 L 192.253906 60 L 212.253906 60 L 212.253906 80 Z M 192.253906 80 "/>
<path style=" stroke:none;fill-rule:nonzero;fill:rgb(0%,0%,0%);fill-opacity:1;" d="M 192.253906 40 L 192.253906 20 L 212.253906 20 L 212.253906 40 Z M 192.253906 40 "/>
<path style=" stroke:none;fill-rule:nonzero;fill:rgb(0%,0%,0%);fill-opacity:1;" d="M 228.253906 200 L 228.253906 180 L 248.253906 180 L 248.253906 200 Z M 228.253906 200 "/>
<path style=" stroke:none;fill-rule:nonzero;fill:rgb(0%,0%,0%);fill-opacity:1;" d="M 228.253906 160 L 228.253906 140 L 248.253906 140 L 248.253906 160 Z M 228.253906 160 "/>
<path style=" stroke:none;fill-rule:nonzero;fill:rgb(0%,0%,0%);fill-opacity:1;" d="M 228.253906 120 L 228.253906 100 L 248.253906 100 L 248.253906 120 Z M 228.253906 120 "/>
<path style=" stroke:none;fill-rule:nonzero;fill:rgb(0%,0%,0%);fill-opacity:1;" d="M 228.253906 80 L 228.253906 60 L 248.253906 60 L 248.253906 80 Z M 228.253906 80 "/>
<path style=" stroke:none;fill-rule:nonzero;fill:rgb(0%,0%,0%);fill-opacity:1;" d="M 228.253906 40 L 228.253906 20 L 248.253906 20 L 248.253906 40 Z M 228.253906 40 "/>
<path style=" stroke:none;fill-rule:nonzero;fill:rgb(0%,0%,0%);fill-opacity:1;" d="M 264.253906 200 L 264.253906 180 L 284.253906 180 L 284.253906 200 Z M 264.253906 200 "/>
<path style=" stroke:none;fill-rule:nonzero;fill:rgb(0%,0%,0%);fill-opacity:1;" d="M 264.253906 160 L 264.253906 140 L 284.253906 140 L 284.253906 160 Z M 264.253906 160 "/>
<path style=" stroke:none;fill-rule:nonzero;fill:rgb(0%,0%,0%);fill-opacity:1;" d="M 264.253906 120 L 264.253906 100 L 284.253906 100 L 284.253906 120 Z M 264.253906 120 "/>
<path style=" stroke:none;fill-rule:nonzero;fill:rgb(0%,0%,0%);fill-opacity:1;" d="M 264.253906 80 L 264.253906 60 L 284.253906 60 L 284.253906 80 Z M 264.253906 80 "/>
<path style=" stroke:none;fill-rule:nonzero;fill:rgb(0%,0%,0%);fill-opacity:1;" d="M 264.253906 40 L 264.253906 20 L 284.253906 20 L 284.253906 40 Z M 264.253906 40 "/>
<path style=" stroke:none;fill-rule:nonzero;fill:rgb(0%,0%,0%);fill-opacity:1;" d="M 300.253906 200 L 300.253906 180 L 320.253906 180 L 320.253906 200 Z M 300.253906 200 "/>
<path style=" stroke:none;fill-rule:nonzero;fill:rgb(0%,0%,0%);fill-opacity:1;" d="M 300.253906 160 L 300.253906 140 L 320.253906 140 L 320.253906 160 Z M 300.253906 160 "/>
<path style=" stroke:none;fill-rule:nonzero;fill:rgb(0%,0%,0%);fill-opacity:1;" d="M 300.253906 120 L 300.253906 100 L 320.253906 100 L 320.253906 120 Z M 300.253906 120 "/>
<path style=" stroke:none;fill-rule:nonzero;fill:rgb(0%,0%,0%);fill-opacity:1;" d="M 300.253906 80 L 300.253906 60 L 320.253906 60 L 320.253906 80 Z M 300.253906 80 "/>
<path style=" stroke:none;fill-rule:nonzero;fill:rgb(0%,0%,0%);fill-opacity:1;" d="M 300.253906 40 L 300.253906 20 L 320.253906 20 L 320.253906 40 Z M 300.253906 40 "/>
<path style=" stroke:none;fill-rule:nonzero;fill:rgb(0%,0%,0%);fill-opacity:1;" d="M 336.253906 200 L 336.253906 180 L 356.253906 180 L 356.253906 200 Z M 336.253906 200 "/>
<path style=" stroke:none;fill-rule:nonzero;fill:rgb(0%,0%,0%);fill-opacity:1;" d="M 336.253906 160 L 336.253906 140 L 356.253906 140 L 356.253906 160 Z M 336.253906 160 "/>
<path style=" stroke:none;fill-rule:nonzero;fill:rgb(0%,0%,0%);fill-opacity:1;" d="M 336.253906 120 L 336.253906 100 L 356.253906 100 L 356.253906 120 Z M 336.253906 120 "/>
<path style=" stroke:none;fill-rule:nonzero;fill:rgb(0%,0%,0%);fill-opacity:1;" d="M 336.253906 80 L 336.253906 60 L 356.253906 60 L 356.253906 80 Z M 336.253906 80 "/>
<path style=" stroke:none;fill-rule:nonzero;fill:rgb(0%,0%,0%);fill-opacity:1;" d="M 336.253906 40 L 336.253906 20 L 356.253906 20 L 356.253906 40 Z M 336.253906 40 "/>
<path style=" stroke:none;fill-rule:nonzero;fill:rgb(0%,0%,0%);fill-opacity:1;" d="M 372.253906 200 L 372.253906 180 L 392.253906 180 L 392.253906 200 Z M 372.253906 200 "/>
<path style=" stroke:none;fill-rule:nonzero;fill:rgb(0%,0%,0%);fill-opacity:1;" d="M 372.253906 160 L 372.253906 140 L 392.253906 140 L 392.253906 160 Z M 372.253906 160 "/>
<path style=" stroke:none;fill-rule:nonzero;fill:rgb(0%,0%,0%);fill-opacity:1;" d="M 372.253906 120 L 372.253906 100 L 392.253906 100 L 392.253906 120 Z M 372.253906 120 "/>
<path style=" stroke:none;fill-rule:nonzero;fill:rgb(0%,0%,0%);fill-opacity:1;" d="M 372.253906 80 L 372.253906 60 L 392.253906 60 L 392.253906 80 Z M 372.253906 80 "/>
<path style=" stroke:none;fill-rule:nonzero;fill:rgb(0%,0%,0%);fill-opacity:1;" d="M 372.253906 40 L 372.253906 20 L 392.253906 20 L 392.253906 40 Z M 372.253906 40 "/>
<path style="fill:none;stroke-width:1;stroke-linecap:square;stroke-linejoin:miter;stroke:rgb(100%,0%,0%);stroke-opacity:1;stroke-miterlimit:3.25;" d="M 0 220 L 400 220 "/>
<path style="fill:none;stroke-width:1;stroke-linecap:square;stroke-linejoin:miter;stroke:rgb(100%,0%,0%);stroke-opacity:1;stroke-miterlimit:3.25;" d="M 0 200 L 400 200 "/>
<path style="fill:none;stroke-width:1;stroke-linecap:square;stroke-linejoin:miter;stroke:rgb(100%,0%,0%);stroke-opacity:1;stroke-miterlimit:3.25;" d="M 0 180 L 400 180 "/>
<path style="fill:none;stroke-width:1;stroke-linecap:square;stroke-linejoin:miter;stroke:rgb(100%,0%,0%);stroke-opacity:1;stroke-miterlimit:3.25;" d="M 0 160 L 400 160 "/>
<path style="fill:none;stroke-width:1;stroke-linecap:square;stroke-linejoin:miter;stroke:rgb(100%,0%,0%);stroke-opacity:1;stroke-miterlimit:3.25;" d="M 0 140 L 400 140 "/>
<path style="fill:none;stroke-width:1;stroke-linecap:square;stroke-linejoin:miter;stroke:rgb(100%,0%,0%);stroke-opacity:1;stroke-miterlimit:3.25;" d="M 0 120 L 400 120 "/>
<path style="fill:none;stroke-width:1;stroke-linecap:square;stroke-linejoin:miter;stroke:rgb(100%,0%,0%);stroke-opacity:1;stroke-miterlimit:3.25;" d="M 0 100 L 400 100 "/>
<path style="fill:none;stroke-width:1;stroke-linecap:square;stroke-linejoin:miter;stroke:rgb(100%,0%,0%);stroke-opacity:1;stroke-miterlimit:3.25;" d="M 0 80 L 400 80 "/>
<path style="fill:none;stroke-width:1;stroke-linecap:square;stroke-linejoin:miter;stroke:rgb(100%,0%,0%);stroke-opacity:1;stroke-miterlimit:3.25;" d="M 0 60 L 400 60 "/>
<path style="fill:none;stroke-width:1;stroke-linecap:square;stroke-linejoin:miter;stroke:rgb(100%,0%,0%);stroke-opacity:1;stroke-miterlimit:3.25;" d="M 0 40 L 400 40 "/>
<path style="fill:none;stroke-width:1;stroke-linecap:square;stroke-linejoin:miter;stroke:rgb(100%,0%,0%);stroke-opacity:1;stroke-miterlimit:3.25;" d="M 0 20 L 400 20 "/>
</g>
</svg>
