<?xml version="1.0" encoding="UTF-8"?>
<svg xmlns="http://www.w3.org/2000/svg" xmlns:xlink="http://www.w3.org/1999/xlink" width="400pt" height="220pt" viewBox="0 0 400 220" version="1.1">
<g id="surface906">
<rect x="0" y="0" width="400" height="220" style="fill:rgb(0%,40%,100%);fill-opacity:0.2;stroke:none;"/>
<path style=" stroke:none;fill-rule:nonzero;fill:rgb(0%,0%,0%);fill-opacity:1;" d="M -18.097656 220 L -18.097656 200 L 1.902344 200 L 1.902344 220 Z M -18.097656 220 "/>
<path style=" stroke:none;fill-rule:nonzero;fill:rgb(0%,0%,0%);fill-opacity:1;" d="M -18.097656 180 L -18.097656 160 L 1.902344 160 L 1.902344 180 Z M -18.097656 180 "/>
<path style=" stroke:none;fill-rule:nonzero;fill:rgb(0%,0%,0%);fill-opacity:1;" d="M -18.097656 140 L -18.097656 120 L 1.902344 120 L 1.902344 140 Z M -18.097656 140 "/>
<path style=" stroke:none;fill-rule:nonzero;fill:rgb(0%,0%,0%);fill-opacity:1;" d="M -18.097656 100 L -18.097656 80 L 1.902344 80 L 1.902344 100 Z M -18.097656 100 "/>
<path style=" stroke:none;fill-rule:nonzero;fill:rgb(0%,0%,0%);fill-opacity:1;" d="M -18.097656 60 L -18.097656 40 L 1.902344 40 L 1.902344 60 Z M -18.097656 60 "/>
<path style=" stroke:none;fill-rule:nonzero;fill:rgb(0%,0%,0%);fill-opacity:1;" d="M -18.097656 20 L -18.097656 0 L 1.902344 0 L 1.902344 20 Z M -18.097656 20 "/>
<path style=" stroke:none;fill-rule:nonzero;fill:rgb(0%,0%,0%);fill-opacity:1;" d="M 17.902344 220 L 17.902344 200 L 37.902344 200 L 37.902344 220 Z M 17.902344 220 "/>
<path style=" stroke:none;fill-rule:nonzero;fill:rgb(0%,0%,0%);fill-opacity:1;" d="M 17.902344 180 L 17.902344 160 L 37.902344 160 L 37.902344 180 Z M 17.902344 180 "/>
<path style=" stroke:none;fill-rule:nonzero;fill:rgb(0%,0%,0%);fill-opacity:1;" d="M 17.902344 140 L 17.902344 120 L 37.902344 120 L 37.902344 140 Z M 17.902344 140 "/>
<path style=" stroke:none;fill-rule:nonzero;fill:rgb(0%,0%,0%);fill-opacity:1;" d="M 17.902344 100 L 17.902344 80 L 37.902344 80 L 37.902344 100 Z M 17.902344 100 "/>
<path style=" stroke:none;fill-rule:nonzero;fill:rgb(0%,0%,0%);fill-opacity:1;" d="M 17.902344 60 L 17.902344 40 L 37.902344 40 L 37.902344 60 Z M 17.902344 60 "/>
<path style=" stroke:none;fill-rule:nonzero;fill:rgb(0%,0%,0%);fill-opacity:1;" d="M 17.902344 20 L 17.902344 0 L 37.902344 0 L 37.902344 20 Z M 17.902344 20 "/>
<path style=" stroke:none;fill-rule:nonzero;fill:rgb(0%,0%,0%);fill-opacity:1;" d="M 53.902344 220 L 53.902344 200 L 73.902344 200 L 73.902344 220 Z M 53.902344 220 "/>
<path style=" stroke:none;fill-rule:nonzero;fill:rgb(0%,0%,0%);fill-opacity:1;" d="M 53.902344 180 L 53.902344 160 L 73.902344 160 L 73.902344 180 Z M 53.902344 180 "/>
<path style=" stroke:none;fill-rule:nonzero;fill:rgb(0%,0%,0%);fill-opacity:1;" d="M 53.902344 140 L 53.902344 120 L 73.902344 120 L 73.902344 140 Z M 53.902344 140 "/>
<path style=" stroke:none;fill-rule:nonzero;fill:rgb(0%,0%,0%);fill-opacity:1;" d="M 53.902344 100 L 53.902344 80 L 73.902344 80 L 73.902344 100 Z M 53.902344 100 "/>
<path style=" stroke:none;fill-rule:nonzero;fill:rgb(0%,0%,0%);fill-opacity:1;" d="M 53.902344 60 L 53.902344 40 L 73.902344 40 L 73.902344 60 Z M 53.902344 60 "/>
<path style=" stroke:none;fill-rule:nonzero;fill:rgb(0%,0%,0%);fill-opacity:1;" d="M 53.902344 20 L 53.902344 0 L 73.902344 0 L 73.902344 20 Z M 53.902344 20 "/>
<path style=" stroke:none;fill-rule:nonzero;fill:rgb(0%,0%,0%);fill-opacity:1;" d="M 89.902344 220 L 89.902344 200 L 109.902344 200 L 109.902344 220 Z M 89.902344 220 "/>
<path style=" stroke:none;fill-rule:nonzero;fill:rgb(0%,0%,0%);fill-opacity:1;" d="M 89.902344 180 L 89.902344 160 L 109.902344 160 L 109.902344 180 Z M 89.902344 180 "/>
<path style=" stroke:none;fill-rule:nonzero;fill:rgb(0%,0%,0%);fill-opacity:1;" d="M 89.902344 140 L 89.902344 120 L 109.902344 120 L 109.902344 140 Z M 89.902344 140 "/>
<path style=" stroke:none;fill-rule:nonzero;fill:rgb(0%,0%,0%);fill-opacity:1;" d="M 89.902344 100 L 89.902344 80 L 109.902344 80 L 109.902344 100 Z M 89.902344 100 "/>
<path style=" stroke:none;fill-rule:nonzero;fill:rgb(0%,0%,0%);fill-opacity:1;" d="M 89.902344 60 L 89.902344 40 L 109.902344 40 L 109.902344 60 Z M 89.902344 60 "/>
<path style=" stroke:none;fill-rule:nonzero;fill:rgb(0%,0%,0%);fill-opacity:1;" d="M 89.902344 20 L 89.902344 0 L 109.902344 0 L 109.902344 20 Z M 89.902344 20 "/>
<path style=" stroke:none;fill-rule:nonzero;fill:rgb(0%,0%,0%);fill-opacity:1;" d="M 125.902344 220 L 125.902344 200 L 145.902344 200 L 145.902344 220 Z M 125.902344 220 "/>
<path style=" stroke:none;fill-rule:nonzero;fill:rgb(0%,0%,0%);fill-opacity:1;" d="M 125.902344 180 L 125.902344 160 L 145.902344 160 L 145.902344 180 Z M 125.902344 180 "/>
<path style=" stroke:none;fill-rule:nonzero;fill:rgb(0%,0%,0%);fill-opacity:1;" d="M 125.902344 140 L 125.902344 120 L 145.902344 120 L 145.902344 140 Z M 125.902344 140 "/>
<path style=" stroke:none;fill-rule:nonzero;fill:rgb(0%,0%,0%);fill-opacity:1;" d="M 125.902344 100 L 125.902344 80 L 145.902344 80 L 145.902344 100 Z M 125.902344 100 "/>
<path style=" stroke:none;fill-rule:nonzero;fill:rgb(0%,0%,0%);fill-opacity:1;" d="M 125.902344 60 L 125.902344 40 L 145.902344 40 L 145.902344 60 Z M 125.902344 60 "/>
<path style=" stroke:none;fill-rule:nonzero;fill:rgb(0%,0%,0%);fill-opacity:1;" d="M 125.902344 20 L 125.902344 0 L 145.902344 0 L 145.902344 20 Z M 125.902344 20 "/>
<path style=" stroke:none;fill-rule:nonzero;fill:rgb(0%,0%,0%);fill-opacity:1;" d="M 161.902344 220 L 161.902344 200 L 181.902344 200 L 181.902344 220 Z M 161.902344 220 "/>
<path style=" stroke:none;fill-rule:nonzero;fill:rgb(0%,0%,0%);fill-opacity:1;" d="M 161.902344 180 L 161.902344 160 L 181.902344 160 L 181.902344 180 Z M 161.902344 180 "/>
<path style=" stroke:none;fill-rule:nonzero;fill:rgb(0%,0%,0%);fill-opacity:1;" d="M 161.902344 140 L 161.902344 120 L 181.902344 120 L 181.902344 140 Z M 161.902344 140 "/>
<path style=" stroke:none;fill-rule:nonzero;fill:rgb(0%,0%,0%);fill-opacity:1;" d="M 161.902344 100 L 161.902344 80 L 181.902344 80 L 181.902344 100 Z M 161.902344 100 "/>
<path style=" stroke:none;fill-rule:nonzero;fill:rgb(0%,0%,0%);fill-opacity:1;" d="M 161.902344 60 L 161.902344 40 L 181.902344 40 L 181.902344 60 Z M 161.902344 60 "/>
<path style=" stroke:none;fill-rule:nonzero;fill:rgb(0%,0%,0%);fill-opacity:1;" d="M 161.902344 20 L 161.902344 0 L 181.902344 0 L 181.902344 20 Z M 161.902344 20 "/>
<path style=" stroke:none;fill-rule:nonzero;fill:rgb(0%,0%,0%);fill-opacity:1;" d="M 197.902344 220 L 197.902344 200 L 217.902344 200 L 217.902344 220 Z M 197.902344 220 "/>
<path style=" stroke:none;fill-rule:nonzero;fill:rgb(0%,0%,0%);fill-opacity:1;" d="M 197.902344 180 L 197.902344 160 L 217.902344 160 L 217.902344 180 Z M 197.902344 180 "/>
<path style=" stroke:none;fill-rule:nonzero;fill:rgb(0%,0%,0%);fill-opacity:1;" d="M 197.902344 140 L 197.902344 120 L 217.902344 120 L 217.902344 140 Z M 197.902344 140 "/>
<path style=" stroke:none;fill-rule:nonzero;fill:rgb(0%,0%,0%);fill-opacity:1;" d="M 197.902344 100 L 197.902344 80 L 217.902344 80 L 217.902344 100 Z M 197.902344 100 "/>
<path style=" stroke:none;fill-rule:nonzero;fill:rgb(0%,0%,0%);fill-opacity:1;" d="M 197.902344 60 L 197.902344 40 L 217.902344 40 L 217.902344 60 Z M 197.902344 60 "/>
<path style=" stroke:none;fill-rule:nonzero;fill:rgb(0%,0%,0%);fill-opacity:1;" d="M 197.902344 20 L 197.902344 0 L 217.902344 0 L 217.902344 20 Z M 197.902344 20 "/>
<path style=" stroke:none;fill-rule:nonzero;fill:rgb(0%,0%,0%);fill-opacity:1;" d="M 233.902344 220 L 233.902344 200 L 253.902344 200 L 253.902344 220 Z M 233.902344 220 "/>
<path style=" stroke:none;fill-rule:nonzero;fill:rgb(0%,0%,0%);fill-opacity:1;" d="M 233.902344 180 L 233.902344 160 L 253.902344 160 L 253.902344 180 Z M 233.902344 180 "/>
<path style=" stroke:none;fill-rule:nonzero;fill:rgb(0%,0%,0%);fill-opacity:1;" d="M 233.902344 140 L 233.902344 120 L 253.902344 120 L 253.902344 140 Z M 233.902344 140 "/>
<path style=" stroke:none;fill-rule:nonzero;fill:rgb(0%,0%,0%);fill-opacity:1;" d="M 233.902344 100 L 233.902344 80 L 253.902344 80 L 253.902344 100 Z M 233.902344 100 "/>
<path style=" stroke:none;fill-rule:nonzero;fill:rgb(0%,0%,0%);fill-opacity:1;" d="M 233.902344 60 L 233.902344 40 L 253.902344 40 L 253.902344 60 Z M 233.902344 60 "/>
<path style=" stroke:none;fill-rule:nonzero;fill:rgb(0%,0%,0%);fill-opacity:1;" d="M 233.902344 20 L 233.902344 0 L 253.902344 0 L 253.902344 20 Z M 233.902344 20 "/>
<path style=" stroke:none;fill-rule:nonzero;fill:rgb(0%,0%,0%);fill-opacity:1;" d="M 269.902344 220 L 269.902344 200 L 289.902344 200 L 289.902344 220 Z M 269.902344 220 "/>
<path style=" stroke:none;fill-rule:nonzero;fill:rgb(0%,0%,0%);fill-opacity:1;" d="M 269.902344 180 L 269.902344 160 L 289.902344 160 L 289.902344 180 Z M 269.902344 180 "/>
<path style=" stroke:none;fill-rule:nonzero;fill:rgb(0%,0%,0%);fill-opacity:1;" d="M 269.902344 140 L 269.902344 120 L 289.902344 120 L 289.902344 140 Z M 269.902344 140 "/>
<path style=" stroke:none;fill-rule:nonzero;fill:rgb(0%,0%,0%);fill-opacity:1;" d="M 269.902344 100 L 269.902344 80 L 289.902344 80 L 289.902344 100 Z M 269.902344 100 "/>
<path style=" stroke:none;fill-rule:nonzero;fill:rgb(0%,0%,0%);fill-opacity:1;" d="M 269.902344 60 L 269.902344 40 L 289.902344 40 L 289.902344 60 Z M 269.902344 60 "/>
<path style=" stroke:none;fill-rule:nonzero;fill:rgb(0%,0%,0%);fill-opacity:1;" d="M 269.902344 20 L 269.902344 0 L 289.902344 0 L 289.902344 20 Z M 269.902344 20 "/>
<path style=" stroke:none;fill-rule:nonzero;fill:rgb(0%,0%,0%);fill-opacity:1;" d="M 305.902344 220 L 305.902344 200 L 325.902344 200 L 325.902344 220 Z M 305.902344 220 "/>
<path style=" stroke:none;fill-rule:nonzero;fill:rgb(0%,0%,0%);fill-opacity:1;" d="M 305.902344 180 L 305.902344 160 L 325.902344 160 L 325.902344 180 Z M 305.902344 180 "/>
<path style=" stroke:none;fill-rule:nonzero;fill:rgb(0%,0%,0%);fill-opacity:1;" d="M 305.902344 140 L 305.902344 120 L 325.902344 120 L 325.902344 140 Z M 305.902344 140 "/>
<path style=" stroke:none;fill-rule:nonzero;fill:rgb(0%,0%,0%);fill-opacity:1;" d="M 305.902344 100 L 305.902344 80 L 325.902344 80 L 325.902344 100 Z M 305.902344 100 "/>
<path style=" stroke:none;fill-rule:nonzero;fill:rgb(0%,0%,0%);fill-opacity:1;" d="M 305.902344 60 L 305.902344 40 L 325.902344 40 L 325.902344 60 Z M 305.902344 60 "/>
<path style=" stroke:none;fill-rule:nonzero;fill:rgb(0%,0%,0%);fill-opacity:1;" d="M 305.902344 20 L 305.902344 0 L 325.902344 0 L 325.902344 20 Z M 305.902344 20 "/>
<path style=" stroke:none;fill-rule:nonzero;fill:rgb(0%,0%,0%);fill-opacity:1;" d="M 341.902344 220 L 341.902344 200 L 361.902344 200 L 361.902344 220 Z M 341.902344 220 "/>
<path style=" stroke:none;fill-rule:nonzero;fill:rgb(0%,0%,0%);fill-opacity:1;" d="M 341.902344 180 L 341.902344 160 L 361.902344 160 L 361.902344 180 Z M 341.902344 180 "/>
<path style=" stroke:none;fill-rule:nonzero;fill:rgb(0%,0%,0%);fill-opacity:1;" d="M 341.902344 140 L 341.902344 120 L 361.902344 120 L 361.902344 140 Z M 341.902344 140 "/>
<path style=" stroke:none;fill-rule:nonzero;fill:rgb(0%,0%,0%);fill-opacity:1;" d="M 341.902344 100 L 341.902344 80 L 361.902344 80 L 361.902344 100 Z M 341.902344 100 "/>
<path style=" stroke:none;fill-rule:nonzero;fill:rgb(0%,0%,0%);fill-opacity:1;" d="M 341.902344 60 L 341.902344 40 L 361.902344 40 L 361.902344 60 Z M 341.902344 60 "/>
<path style=" stroke:none;fill-rule:nonzero;fill:rgb(0%,0%,0%);fill-opacity:1;" d="M 341.902344 20 L 341.902344 0 L 361.902344 0 L 361.902344 20 Z M 341.902344 20 "/>
<path style=" stroke:none;fill-rule:nonzero;fill:rgb(0%,0%,0%);fill-opacity:1;" d="M 377.902344 220 L 377.902344 200 L 397.902344 200 L 397.902344 220 Z M 377.902344 220 "/>
<path style=" stroke:none;fill-rule:nonzero;fill:rgb(0%,0%,0%);fill-opacity:1;" d="M 377.902344 180 L 377.902344 160 L 397.902344 160 L 397.902344 180 Z M 377.902344 180 "/>
<path style=" stroke:none;fill-rule:nonzero;fill:rgb(0%,0%,0%);fill-opacity:1;" d="M 377.902344 140 L 377.902344 120 L 397.902344 120 L 397.902344 140 Z M 377.902344 140 "/>
<path style=" stroke:none;fill-rule:nonzero;fill:rgb(0%,0%,0%);fill-opacity:1;" d="M 377.902344 100 L 377.902344 80 L 397.902344 80 L 397.902344 100 Z M 377.902344 100 "/>
<path style=" stroke:none;fill-rule:nonzero;fill:rgb(0%,0%,0%);fill-opacity:1;" d="M 377.902344 60 L 377.902344 40 L 397.902344 40 L 397.902344 60 Z M 377.902344 60 "/>
<path style=" stroke:none;fill-rule:nonzero;fill:rgb(0%,0%,0%);fill-opacity:1;" d="M 377.902344 20 L 377.902344 0 L 397.902344 0 L 397.902344 20 Z M 377.902344 20 "/>
<path style=" stroke:none;fill-rule:nonzero;fill:rgb(0%,0%,0%);fill-opacity:1;" d="M 7.484375 200 L 7.484375 180 L 27.484375 180 L 27.484375 200 Z M 7.484375 200 "/>
<path style=" stroke:none;fill-rule:nonzero;fill:rgb(0%,0%,0%);fill-opacity:1;" d="M 7.484375 160 L 7.484375 140 L 27.484375 140 L 27.484375 160 Z M 7.484375 160 "/>
<path style=" stroke:none;fill-rule:nonzero;fill:rgb(0%,0%,0%);fill-opacity:1;" d="M 7.484375 120 L 7.484375 100 L 27.484375 100 L 27.484375 120 Z M 7.484375 120 "/>
<path style=" stroke:none;fill-rule:nonzero;fill:rgb(0%,0%,0%);fill-opacity:1;" d="M 7.484375 80 L 7.484375 60 L 27.484375 60 L 27.484375 80 Z M 7.484375 80 "/>
<path style=" stroke:none;fill-rule:nonzero;fill:rgb(0%,0%,0%);fill-opacity:1;" d="M 7.484375 40 L 7.484375 20 L 27.484375 20 L 27.484375 40 Z M 7.484375 40 "/>
<path style=" stroke:none;fill-rule:nonzero;fill:rgb(0%,0%,0%);fill-opacity:1;" d="M 43.484375 200 L 43.484375 180 L 63.484375 180 L 63.484375 200 Z M 43.484375 200 "/>
<path style=" stroke:none;fill-rule:nonzero;fill:rgb(0%,0%,0%);fill-opacity:1;" d="M 43.484375 160 L 43.484375 140 L 63.484375 140 L 63.484375 160 Z M 43.484375 160 "/>
<path style=" stroke:none;fill-rule:nonzero;fill:rgb(0%,0%,0%);fill-opacity:1;" d="M 43.484375 120 L 43.484375 100 L 63.484375 100 L 63.484375 120 Z M 43.484375 120 "/>
<path style=" stroke:none;fill-rule:nonzero;fill:rgb(0%,0%,0%);fill-opacity:1;" d="M 43.484375 80 L 43.484375 60 L 63.484375 60 L 63.484375 80 Z M 43.484375 80 "/>
<path style=" stroke:none;fill-rule:nonzero;fill:rgb(0%,0%,0%);fill-opacity:1;" d="M 43.484375 40 L 43.484375 20 L 63.484375 20 L 63.484375 40 Z M 43.484375 40 "/>
<path style=" stroke:none;fill-rule:nonzero;fill:rgb(0%,0%,0%);fill-opacity:1;" d="M 79.484375 200 L 79.484375 180 L 99.484375 180 L 99.484375 200 Z M 79.484375 200 "/>
<path style=" stroke:none;fill-rule:nonzero;fill:rgb(0%,0%,0%);fill-opacity:1;" d="M 79.484375 160 L 79.484375 140 L 99.484375 140 L 99.484375 160 Z M 79.484375 160 "/>
<path style=" stroke:none;fill-rule:nonzero;fill:rgb(0%,0%,0%);fill-opacity:1;" d="M 79.484375 120 L 79.484375 100 L 99.484375 100 L 99.484375 120 Z M 79.484375 120 "/>
<path style=" stroke:none;fill-rule:nonzero;fill:rgb(0%,0%,0%);fill-opacity:1;" d="M 79.484375 80 L 79.484375 60 L 99.484375 60 L 99.484375 80 Z M 79.484375 80 "/>
<path style=" stroke:none;fill-rule:nonzero;fill:rgb(0%,0%,0%);fill-opacity:1;" d="M 79.484375 40 L 79.484375 20 L 99.484375 20 L 99.484375 40 Z M 79.484375 40 "/>
<path style=" stroke:none;fill-rule:nonzero;fill:rgb(0%,0%,0%);fill-opacity:1;" d="M 115.484375 200 L 115.484375 180 L 135.484375 180 L 135.484375 200 Z M 115.484375 200 "/>
<path style=" stroke:none;fill-rule:nonzero;fill:rgb(0%,0%,0%);fill-opacity:1;" d="M 115.484375 160 L 115.484375 140 L 135.484375 140 L 135.484375 160 Z M 115.484375 160 "/>
<path style=" stroke:none;fill-rule:nonzero;fill:rgb(0%,0%,0%);fill-opacity:1;" d="M 115.484375 120 L 115.484375 100 L 135.484375 100 L 135.484375 120 Z M 115.484375 120 "/>
<path style=" stroke:none;fill-rule:nonzero;fill:rgb(0%,0%,0%);fill-opacity:1;" d="M 115.484375 80 L 115.484375 60 L 135.484375 60 L 135.484375 80 Z M 115.484375 80 "/>
<path style=" stroke:none;fill-rule:nonzero;fill:rgb(0%,0%,0%);fill-opacity:1;" d="M 115.484375 40 L 115.484375 20 L 135.484375 20 L 135.484375 40 Z M 115.484375 40 "/>
<path style=" stroke:none;fill-rule:nonzero;fill:rgb(0%,0%,0%);fill-opacity:1;" d="M 151.484375 200 L 151.484375 180 L 171.484375 180 L 171.484375 200 Z M 151.484375 200 "/>
<path style=" stroke:none;fill-rule:nonzero;fill:rgb(0%,0%,0%);fill-opacity:1;" d="M 151.484375 160 L 151.484375 140 L 171.484375 140 L 171.484375 160 Z M 151.484375 160 "/>
<path style=" stroke:none;fill-rule:nonzero;fill:rgb(0%,0%,0%);fill-opacity:1;" d="M 151.484375 120 L 151.484375 100 L 171.484375 100 L 171.484375 120 Z M 151.484375 120 "/>
<path style=" stroke:none;fill-rule:nonzero;fill:rgb(0%,0%,0%);fill-opacity:1;" d="M 151.484375 80 L 151.484375 60 L 171.484375 60 L 171.484375 80 Z M 151.484375 80 "/>
<path style=" stroke:none;fill-rule:nonzero;fill:rgb(0%,0%,0%);fill-opacity:1;" d="M 151.484375 40 L 151.484375 20 L 171.484375 20 L 171.484375 40 Z M 151.484375 40 "/>
<path style=" stroke:none;fill-rule:nonzero;fill:rgb(0%,0%,0%);fill-opacity:1;" d="M 187.484375 200 L 187.484375 180 L 207.484375 180 L 207.484375 200 Z M 187.484375 200 "/>
<path style=" stroke:none;fill-rule:nonzero;fill:rgb(0%,0%,0%);fill-opacity:1;" d="M 187.484375 160 L 187.484375 140 L 207.484375 140 L 207.484375 160 Z M 187.484375 160 "/>
<path style=" stroke:none;fill-rule:nonzero;fill:rgb(0%,0%,0%);fill-opacity:1;" d="M 187.484375 120 L 187.484375 100 L 207.484375 100 L 207.484375 120 Z M 187.484375 120 "/>
<path style=" stroke:none;fill-rule:nonzero;fill:rgb(0%,0%,0%);fill-opacity:1;" d="M 187.484375 80 L 187.484375 60 L 207.484375 60 L 207.484375 80 Z M 187.484375 80 "/>
<path style=" stroke:none;fill-rule:nonzero;fill:rgb(0%,0%,0%);fill-opacity:1;" d="M 187.484375 40 L 187.484375 20 L 207.484375 20 L 207.484375 40 Z M 187.484375 40 "/>
<path style=" stroke:none;fill-rule:nonzero;fill:rgb(0%,0%,0%);fill-opacity:1;" d="M 223.484375 200 L 223.484375 180 L 243.484375 180 L 243.484375 200 Z M 223.484375 200 "/>
<path style=" stroke:none;fill-rule:nonzero;fill:rgb(0%,0%,0%);fill-opacity:1;" d="M 223.484375 160 L 223.484375 140 L 243.484375 140 L 243.484375 160 Z M 223.484375 160 "/>
<path style=" stroke:none;fill-rule:nonzero;fill:rgb(0%,0%,0%);fill-opacity:1;" d="M 223.484375 120 L 223.484375 100 L 243.484375 100 L 243.484375 120 Z M 223.484375 120 "/>
<path style=" stroke:none;fill-rule:nonzero;fill:rgb(0%,0%,0%);fill-opacity:1;" d="M 223.484375 80 L 223.484375 60 L 243.484375 60 L 243.484375 80 Z M 223.484375 80 "/>
<path style=" stroke:none;fill-rule:nonzero;fill:rgb(0%,0%,0%);fill-opacity:1;" d="M 223.484375 40 L 223.484375 20 L 243.484375 20 L 243.484375 40 Z M 223.484375 40 "/>
<path style=" stroke:none;fill-rule:nonzero;fill:rgb(0%,0%,0%);fill-opacity:1;" d="M 259.484375 200 L 259.484375 180 L 279.484375 180 L 279.484375 200 Z M 259.484375 200 "/>
<path style=" stroke:none;fill-rule:nonzero;fill:rgb(0%,0%,0%);fill-opacity:1;" d="M 259.484375 160 L 259.484375 140 L 279.484375 140 L 279.484375 160 Z M 259.484375 160 "/>
<path style=" stroke:none;fill-rule:nonzero;fill:rgb(0%,0%,0%);fill-opacity:1;" d="M 259.484375 120 L 259.484375 100 L 279.484375 100 L 279.484375 120 Z M 259.484375 120 "/>
<path style=" stroke:none;fill-rule:nonzero;fill:rgb(0%,0%,0%);fill-opacity:1;" d="M 259.484375 80 L 259.484375 60 L 279.484375 60 L 279.484375 80 Z M 259.484375 80 "/>
<path style=" stroke:none;fill-rule:nonzero;fill:rgb(0%,0%,0%);fill-opacity:1;" d="M 259.484375 40 L 259.484375 20 L 279.484375 20 L 279.484375 40 Z M 259.484375 40 "/>
<path style=" stroke:none;fill-rule:nonzero;fill:rgb(0%,0%,0%);fill-opacity:1;" d="M 295.484375 200 L 295.484375 180 L 315.484375 180 L 315.484375 200 Z M 295.484375 200 "/>
<path style=" stroke:none;fill-rule:nonzero;fill:rgb(0%,0%,0%);fill-opacity:1;" d="M 295.484375 160 L 295.484375 140 L 315.484375 140 L 315.484375 160 Z M 295.484375 160 "/>
<path style=" stroke:none;fill-rule:nonzero;fill:rgb(0%,0%,0%);fill-opacity:1;" d="M 295.484375 120 L 295.484375 100 L 315.484375 100 L 315.484375 120 Z M 295.484375 120 "/>
<path style=" stroke:none;fill-rule:nonzero;fill:rgb(0%,0%,0%);fill-opacity:1;" d="M 295.484375 80 L 295.484375 60 L 315.484375 60 L 315.484375 80 Z M 295.484375 80 "/>
<path style=" stroke:none;fill-rule:nonzero;fill:rgb(0%,0%,0%);fill-opacity:1;" d="M 295.484375 40 L 295.484375 20 L 315.484375 20 L 315.484375 40 Z M 295.484375 40 "/>
<path style=" stroke:none;fill-rule:nonzero;fill:rgb(0%,0%,0%);fill-opacity:1;" d="M 331.484375 200 L 331.484375 180 L 351.484375 180 L 351.484375 200 Z M 331.484375 200 "/>
<path style=" stroke:none;fill-rule:nonzero;fill:rgb(0%,0%,0%);fill-opacity:1;" d="M 331.484375 160 L 331.484375 140 L 351.484375 140 L 351.484375 160 Z M 331.484375 160 "/>
<path style=" stroke:none;fill-rule:nonzero;fill:rgb(0%,0%,0%);fill-opacity:1;" d="M 331.484375 120 L 331.484375 100 L 351.484375 100 L 351.484375 120 Z M 331.484375 120 "/>
<path style=" stroke:none;fill-rule:nonzero;fill:rgb(0%,0%,0%);fill-opacity:1;" d="M 331.484375 80 L 331.484375 60 L 351.484375 60 L 351.484375 80 Z M 331.484375 80 "/>
<path style=" stroke:none;fill-rule:nonzero;fill:rgb(0%,0%,0%);fill-opacity:1;" d="M 331.484375 40 L 331.484375 20 L 351.484375 20 L 351.484375 40 Z M 331.484375 40 "/>
<path style=" stroke:none;fill-rule:nonzero;fill:rgb(0%,0%,0%);fill-opacity:1;" d="M 367.484375 200 L 367.484375 180 L 387.484375 180 L 387.484375 200 Z M 367.484375 200 "/>
<path style=" stroke:none;fill-rule:nonzero;fill:rgb(0%,0%,0%);fill-opacity:1;" d="M 367.484375 160 L 367.484375 140 L 387.484375 140 L 387.484375 160 Z M 367.484375 160 "/>
<path style=" stroke:none;fill-rule:nonzero;fill:rgb(0%,0%,0%);fill-opacity:1;" d="M 367.484375 120 L 367.484375 100 L 387.484375 100 L 387.484375 120 Z M 367.484375 120 "/>
<path style=" stroke:none;fill-rule:nonzero;fill:rgb(0%,0%,0%);fill-opacity:1;" d="M 367.484375 80 L 367.484375 60 L 387.484375 60 L 387.484375 80 Z M 367.484375 80 "/>
<path style=" stroke:none;fill-rule:nonzero;fill:rgb(0%,0%,0%);fill-opacity:1;" d="M 367.484375 40 L 367.484375 20 L 387.484375 20 L 387.484375 40 Z M 367.484375 40 "/>
<path style="fill:none;stroke-width:1;stroke-linecap:square;stroke-linejoin:miter;stroke:rgb(100%,0%,0%);stroke-opacity:1;stroke-miterlimit:3.25;" d="M 0 220 L 400 220 "/>
<path style="fill:none;stroke-width:1;stroke-linecap:square;stroke-linejoin:miter;stroke:rgb(100%,0%,0%);stroke-opacity:1;stroke-miterlimit:3.25;" d="M 0 200 L 400 200 "/>
<path style="fill:none;stroke-width:1;stroke-linecap:square;stroke-linejoin:miter;stroke:rgb(100%,0%,0%);stroke-opacity:1;stroke-miterlimit:3.25;" d="M 0 180 L 400 180 "/>
<path style="fill:none;stroke-width:1;stroke-linecap:square;stroke-linejoin:miter;stroke:rgb(100%,0%,0%);stroke-opacity:1;stroke-miterlimit:3.25;" d="M 0 160 L 400 160 "/>
<path style="fill:none;stroke-width:1;stroke-linecap:square;stroke-linejoin:miter;stroke:rgb(100%,0%,0%);stroke-opacity:1;stroke-miterlimit:3.25;" d="M 0 140 L 400 140 "/>
<path style="fill:none;stroke-width:1;stroke-linecap:square;stroke-linejoin:miter;stroke:rgb(100%,0%,0%);stroke-opacity:1;stroke-miterlimit:3.25;" d="M 0 120 L 400 120 "/>
<path style="fill:none;stroke-width:1;stroke-linecap:square;stroke-linejoin:miter;stroke:rgb(100%,0%,0%);stroke-opacity:1;stroke-miterlimit:3.25;" d="M 0 100 L 400 100 "/>
<path style="fill:none;stroke-width:1;stroke-linecap:square;stroke-linejoin:miter;stroke:rgb(100%,0%,0%);stroke-opacity:1;stroke-miterlimit:3.25;" d="M 0 80 L 400 80 "/>
<path style="fill:none;stroke-width:1;stroke-linecap:square;stroke-linejoin:miter;stroke:rgb(100%,0%,0%);stroke-opacity:1;stroke-miterlimit:3.25;" d="M 0 60 L 400 60 "/>
<path style="fill:none;stroke-width:1;stroke-linecap:square;stroke-linejoin:miter;stroke:rgb(100%,0%,0%);stroke-opacity:1;stroke-miterlimit:3.25;" d="M 0 40 L 400 40 "/>
<path style="fill:none;stroke-width:1;stroke-linecap:square;stroke-linejoin:miter;stroke:rgb(100%,0%,0%);stroke-opacity:1;stroke-miterlimit:3.25;" d="M 0 20 L 400 20 "/>
</g>
</svg>
