<?xml version="1.0" encoding="UTF-8"?>
<svg xmlns="http://www.w3.org/2000/svg" xmlns:xlink="http://www.w3.org/1999/xlink" width="400pt" height="220pt" viewBox="0 0 400 220" version="1.1">
<g id="surface791">
<rect x="0" y="0" width="400" height="220" style="fill:rgb(0%,40%,100%);fill-opacity:0.2;stroke:none;"/>
<path style=" stroke:none;fill-rule:nonzero;fill:rgb(0%,0%,0%);fill-opacity:1;" d="M -10.714844 220 L -10.714844 200 L 9.285156 200 L 9.285156 220 Z M -10.714844 220 "/>
<path style=" stroke:none;fill-rule:nonzero;fill:rgb(0%,0%,0%);fill-opacity:1;" d="M -10.714844 180 L -10.714844 160 L 9.285156 160 L 9.285156 180 Z M -10.714844 180 "/>
<path style=" stroke:none;fill-rule:nonzero;fill:rgb(0%,0%,0%);fill-opacity:1;" d="M -10.714844 140 L -10.714844 120 L 9.285156 120 L 9.285156 140 Z M -10.714844 140 "/>
<path style=" stroke:none;fill-rule:nonzero;fill:rgb(0%,0%,0%);fill-opacity:1;" d="M -10.714844 100 L -10.714844 80 L 9.285156 80 L 9.285156 100 Z M -10.714844 100 "/>
<path style=" stroke:none;fill-rule:nonzero;fill:rgb(0%,0%,0%);fill-opacity:1;" d="M -10.714844 60 L -10.714844 40 L 9.285156 40 L 9.285156 60 Z M -10.714844 60 "/>
<path style=" stroke:none;fill-rule:nonzero;fill:rgb(0%,0%,0%);fill-opacity:1;" d="M -10.714844 20 L -10.714844 0 L 9.285156 0 L 9.285156 20 Z M -10.714844 20 "/>
<path style=" stroke:none;fill-rule:nonzero;fill:rgb(0%,0%,0%);fill-opacity:1;" d="M 25.285156 220 L 25.285156 200 L 45.285156 200 L 45.285156 220 Z M 25.285156 220 "/>
<path style=" stroke:none;fill-rule:nonzero;fill:rgb(0%,0%,0%);fill-opacity:1;" d="M 25.285156 180 L 25.285156 160 L 45.285156 160 L 45.285156 180 Z M 25.285156 180 "/>
<path style=" stroke:none;fill-rule:nonzero;fill:rgb(0%,0%,0%);fill-opacity:1;" d="M 25.285156 140 L 25.285156 120 L 45.285156 120 L 45.285156 140 Z M 25.285156 140 "/>
<path style=" stroke:none;fill-rule:nonzero;fill:rgb(0%,0%,0%);fill-opacity:1;" d="M 25.285156 100 L 25.285156 80 L 45.285156 80 L 45.285156 100 Z M 25.285156 100 "/>
<path style=" stroke:none;fill-rule:nonzero;fill:rgb(0%,0%,0%);fill-opacity:1;" d="M 25.285156 60 L 25.285156 40 L 45.285156 40 L 45.285156 60 Z M 25.285156 60 "/>
<path style=" stroke:none;fill-rule:nonzero;fill:rgb(0%,0%,0%);fill-opacity:1;" d="M 25.285156 20 L 25.285156 0 L 45.285156 0 L 45.285156 20 Z M 25.285156 20 "/>
<path style=" stroke:none;fill-rule:nonzero;fill:rgb(0%,0%,0%);fill-opacity:1;" d="M 61.285156 220 L 61.285156 200 L 81.285156 200 L 81.285156 220 Z M 61.285156 220 "/>
<path style=" stroke:none;fill-rule:nonzero;fill:rgb(0%,0%,0%);fill-opacity:1;" d="M 61.285156 180 L 61.285156 160 L 81.285156 160 L 81.285156 180 Z M 61.285156 180 "/>
<path style=" stroke:none;fill-rule:nonzero;fill:rgb(0%,0%,0%);fill-opacity:1;" d="M 61.285156 140 L 61.285156 120 L 81.285156 120 L 81.285156 140 Z M 61.285156 140 "/>
<path style=" stroke:none;fill-rule:nonzero;fill:rgb(0%,0%,0%);fill-opacity:1;" d="M 61.285156 100 L 61.285156 80 L 81.285156 80 L 81.285156 100 Z M 61.285156 100 "/>
<path style=" stroke:none;fill-rule:nonzero;fill:rgb(0%,0%,0%);fill-opacity:1;" d="M 61.285156 60 L 61.285156 40 L 81.285156 40 L 81.285156 60 Z M 61.285156 60 "/>
<path style=" stroke:none;fill-rule:nonzero;fill:rgb(0%,0%,0%);fill-opacity:1;" d="M 61.285156 20 L 61.285156 0 L 81.285156 0 L 81.285156 20 Z M 61.285156 20 "/>
<path style=" stroke:none;fill-rule:nonzero;fill:rgb(0%,0%,0%);fill-opacity:1;" d="M 97.285156 220 L 97.285156 200 L 117.285156 200 L 117.285156 220 Z M 97.285156 220 "/>
<path style=" stroke:none;fill-rule:nonzero;fill:rgb(0%,0%,0%);fill-opacity:1;" d="M 97.285156 180 L 97.285156 160 L 117.285156 160 L 117.285156 180 Z M 97.285156 180 "/>
<path style=" stroke:none;fill-rule:nonzero;fill:rgb(0%,0%,0%);fill-opacity:1;" d="M 97.285156 140 L 97.285156 120 L 117.285156 120 L 117.285156 140 Z M 97.285156 140 "/>
<path style=" stroke:none;fill-rule:nonzero;fill:rgb(0%,0%,0%);fill-opacity:1;" d="M 97.285156 100 L 97.285156 80 L 117.285156 80 L 117.285156 100 Z M 97.285156 100 "/>
<path style=" stroke:none;fill-rule:nonzero;fill:rgb(0%,0%,0%);fill-opacity:1;" d="M 97.285156 60 L 97.285156 40 L 117.285156 40 L 117.285156 60 Z M 97.285156 60 "/>
<path style=" stroke:none;fill-rule:nonzero;fill:rgb(0%,0%,0%);fill-opacity:1;" d="M 97.285156 20 L 97.285156 0 L 117.285156 0 L 117.285156 20 Z M 97.285156 20 "/>
<path style=" stroke:none;fill-rule:nonzero;fill:rgb(0%,0%,0%);fill-opacity:1;" d="M 133.285156 220 L 133.285156 200 L 153.285156 200 L 153.285156 220 Z M 133.285156 220 "/>
<path style=" stroke:none;fill-rule:nonzero;fill:rgb(0%,0%,0%);fill-opacity:1;" d="M 133.285156 180 L 133.285156 160 L 153.285156 160 L 153.285156 180 Z M 133.285156 180 "/>
<path style=" stroke:none;fill-rule:nonzero;fill:rgb(0%,0%,0%);fill-opacity:1;" d="M 133.285156 140 L 133.285156 120 L 153.285156 120 L 153.285156 140 Z M 133.285156 140 "/>
<path style=" stroke:none;fill-rule:nonzero;fill:rgb(0%,0%,0%);fill-opacity:1;" d="M 133.285156 100 L 133.285156 80 L 153.285156 80 L 153.285156 100 Z M 133.285156 100 "/>
<path style=" stroke:none;fill-rule:nonzero;fill:rgb(0%,0%,0%);fill-opacity:1;" d="M 133.285156 60 L 133.285156 40 L 153.285156 40 L 153.285156 60 Z M 133.285156 60 "/>
<path style=" stroke:none;fill-rule:nonzero;fill:rgb(0%,0%,0%);fill-opacity:1;" d="M 133.285156 20 L 133.285156 0 L 153.285156 0 L 153.285156 20 Z M 133.285156 20 "/>
<path style=" stroke:none;fill-rule:nonzero;fill:rgb(0%,0%,0%);fill-opacity:1;" d="M 169.285156 220 L 169.285156 200 L 189.285156 200 L 189.285156 220 Z M 169.285156 220 "/>
<path style=" stroke:none;fill-rule:nonzero;fill:rgb(0%,0%,0%);fill-opacity:1;" d="M 169.285156 180 L 169.285156 160 L 189.285156 160 L 189.285156 180 Z M 169.285156 180 "/>
<path style=" stroke:none;fill-rule:nonzero;fill:rgb(0%,0%,0%);fill-opacity:1;" d="M 169.285156 140 L 169.285156 120 L 189.285156 120 L 189.285156 140 Z M 169.285156 140 "/>
<path style=" stroke:none;fill-rule:nonzero;fill:rgb(0%,0%,0%);fill-opacity:1;" d="M 169.285156 100 L 169.285156 80 L 189.285156 80 L 189.285156 100 Z M 169.285156 100 "/>
<path style=" stroke:none;fill-rule:nonzero;fill:rgb(0%,0%,0%);fill-opacity:1;" d="M 169.285156 60 L 169.285156 40 L 189.285156 40 L 189.285156 60 Z M 169.285156 60 "/>
<path style=" stroke:none;fill-rule:nonzero;fill:rgb(0%,0%,0%);fill-opacity:1;" d="M 169.285156 20 L 169.285156 0 L 189.285156 0 L 189.285156 20 Z M 169.285156 20 "/>
<path style=" stroke:none;fill-rule:nonzero;fill:rgb(0%,0%,0%);fill-opacity:1;" d="M 205.285156 220 L 205.285156 200 L 225.285156 200 L 225.285156 220 Z M 205.285156 220 "/>
<path style=" stroke:none;fill-rule:nonzero;fill:rgb(0%,0%,0%);fill-opacity:1;" d="M 205.285156 180 L 205.285156 160 L 225.285156 160 L 225.285156 180 Z M 205.285156 180 "/>
<path style=" stroke:none;fill-rule:nonzero;fill:rgb(0%,0%,0%);fill-opacity:1;" d="M 205.285156 140 L 205.285156 120 L 225.285156 120 L 225.285156 140 Z M 205.285156 140 "/>
<path style=" stroke:none;fill-rule:nonzero;fill:rgb(0%,0%,0%);fill-opacity:1;" d="M 205.285156 100 L 205.285156 80 L 225.285156 80 L 225.285156 100 Z M 205.285156 100 "/>
<path style=" stroke:none;fill-rule:nonzero;fill:rgb(0%,0%,0%);fill-opacity:1;" d="M 205.285156 60 L 205.285156 40 L 225.285156 40 L 225.285156 60 Z M 205.285156 60 "/>
<path style=" stroke:none;fill-rule:nonzero;fill:rgb(0%,0%,0%);fill-opacity:1;" d="M 205.285156 20 L 205.285156 0 L 225.285156 0 L 225.285156 20 Z M 205.285156 20 "/>
<path style=" stroke:none;fill-rule:nonzero;fill:rgb(0%,0%,0%);fill-opacity:1;" d="M 241.285156 220 L 241.285156 200 L 261.285156 200 L 261.285156 220 Z M 241.285156 220 "/>
<path style=" stroke:none;fill-rule:nonzero;fill:rgb(0%,0%,0%);fill-opacity:1;" d="M 241.285156 180 L 241.285156 160 L 261.285156 160 L 261.285156 180 Z M 241.285156 180 "/>
<path style=" stroke:none;fill-rule:nonzero;fill:rgb(0%,0%,0%);fill-opacity:1;" d="M 241.285156 140 L 241.285156 120 L 261.285156 120 L 261.285156 140 Z M 241.285156 140 "/>
<path style=" stroke:none;fill-rule:nonzero;fill:rgb(0%,0%,0%);fill-opacity:1;" d="M 241.285156 100 L 241.285156 80 L 261.285156 80 L 261.285156 100 Z M 241.285156 100 "/>
<path style=" stroke:none;fill-rule:nonzero;fill:rgb(0%,0%,0%);fill-opacity:1;" d="M 241.285156 60 L 241.285156 40 L 261.285156 40 L 261.285156 60 Z M 241.285156 60 "/>
<path style=" stroke:none;fill-rule:nonzero;fill:rgb(0%,0%,0%);fill-opacity:1;" d="M 241.285156 20 L 241.285156 0 L 261.285156 0 L 261.285156 20 Z M 241.285156 20 "/>
<path style=" stroke:none;fill-rule:nonzero;fill:rgb(0%,0%,0%);fill-opacity:1;" d="M 277.285156 220 L 277.285156 200 L 297.285156 200 L 297.285156 220 Z M 277.285156 220 "/>
<path style=" stroke:none;fill-rule:nonzero;fill:rgb(0%,0%,0%);fill-opacity:1;" d="M 277.285156 180 L 277.285156 160 L 297.285156 160 L 297.285156 180 Z M 277.285156 180 "/>
<path style=" stroke:none;fill-rule:nonzero;fill:rgb(0%,0%,0%);fill-opacity:1;" d="M 277.285156 140 L 277.285156 120 L 297.285156 120 L 297.285156 140 Z M 277.285156 140 "/>
<path style=" stroke:none;fill-rule:nonzero;fill:rgb(0%,0%,0%);fill-opacity:1;" d="M 277.285156 100 L 277.285156 80 L 297.285156 80 L 297.285156 100 Z M 277.285156 100 "/>
<path style=" stroke:none;fill-rule:nonzero;fill:rgb(0%,0%,0%);fill-opacity:1;" d="M 277.285156 60 L 277.285156 40 L 297.285156 40 L 297.285156 60 Z M 277.285156 60 "/>
<path style=" stroke:none;fill-rule:nonzero;fill:rgb(0%,0%,0%);fill-opacity:1;" d="M 277.285156 20 L 277.285156 0 L 297.285156 0 L 297.285156 20 Z M 277.285156 20 "/>
<path style=" stroke:none;fill-rule:nonzero;fill:rgb(0%,0%,0%);fill-opacity:1;" d="M 313.285156 220 L 313.285156 200 L 333.285156 200 L 333.285156 220 Z M 313.285156 220 "/>
<path style=" stroke:none;fill-rule:nonzero;fill:rgb(0%,0%,0%);fill-opacity:1;" d="M 313.285156 180 L 313.285156 160 L 333.285156 160 L 333.285156 180 Z M 313.285156 180 "/>
<path style=" stroke:none;fill-rule:nonzero;fill:rgb(0%,0%,0%);fill-opacity:1;" d="M 313.285156 140 L 313.285156 120 L 333.285156 120 L 333.285156 140 Z M 313.285156 140 "/>
<path style=" stroke:none;fill-rule:nonzero;fill:rgb(0%,0%,0%);fill-opacity:1;" d="M 313.285156 100 L 313.285156 80 L 333.285156 80 L 333.285156 100 Z M 313.285156 100 "/>
<path style=" stroke:none;fill-rule:nonzero;fill:rgb(0%,0%,0%);fill-opacity:1;" d="M 313.285156 60 L 313.285156 40 L 333.285156 40 L 333.285156 60 Z M 313.285156 60 "/>
<path style=" stroke:none;fill-rule:nonzero;fill:rgb(0%,0%,0%);fill-opacity:1;" d="M 313.285156 20 L 313.285156 0 L 333.285156 0 L 333.285156 20 Z M 313.285156 20 "/>
<path style=" stroke:none;fill-rule:nonzero;fill:rgb(0%,0%,0%);fill-opacity:1;" d="M 349.285156 220 L 349.285156 200 L 369.285156 200 L 369.285156 220 Z M 349.285156 220 "/>
<path style=" stroke:none;fill-rule:nonzero;fill:rgb(0%,0%,0%);fill-opacity:1;" d="M 349.285156 180 L 349.285156 160 L 369.285156 160 L 369.285156 180 Z M 349.285156 180 "/>
<path style=" stroke:none;fill-rule:nonzero;fill:rgb(0%,0%,0%);fill-opacity:1;" d="M 349.285156 140 L 349.285156 120 L 369.285156 120 L 369.285156 140 Z M 349.285156 140 "/>
<path style=" stroke:none;fill-rule:nonzero;fill:rgb(0%,0%,0%);fill-opacity:1;" d="M 349.285156 100 L 349.285156 80 L 369.285156 80 L 369.285156 100 Z M 349.285156 100 "/>
<path style=" stroke:none;fill-rule:nonzero;fill:rgb(0%,0%,0%);fill-opacity:1;" d="M 349.285156 60 L 349.285156 40 L 369.285156 40 L 369.285156 60 Z M 349.285156 60 "/>
<path style=" stroke:none;fill-rule:nonzero;fill:rgb(0%,0%,0%);fill-opacity:1;" d="M 349.285156 20 L 349.285156 0 L 369.285156 0 L 369.285156 20 Z M 349.285156 20 "/>
<path style=" stroke:none;fill-rule:nonzero;fill:rgb(0%,0%,0%);fill-opacity:1;" d="M 385.285156 220 L 385.285156 200 L 405.285156 200 L 405.285156 220 Z M 385.285156 220 "/>
<path style=" stroke:none;fill-rule:nonzero;fill:rgb(0%,0%,0%);fill-opacity:1;" d="M 385.285156 180 L 385.285156 160 L 405.285156 160 L 405.285156 180 Z M 385.285156 180 "/>
<path style=" stroke:none;fill-rule:nonzero;fill:rgb(0%,0%,0%);fill-opacity:1;" d="M 385.285156 140 L 385.285156 120 L 405.285156 120 L 405.285156 140 Z M 385.285156 140 "/>
<path style=" stroke:none;fill-rule:nonzero;fill:rgb(0%,0%,0%);fill-opacity:1;" d="M 385.285156 100 L 385.285156 80 L 405.285156 80 L 405.285156 100 Z M 385.285156 100 "/>
<path style=" stroke:none;fill-rule:nonzero;fill:rgb(0%,0%,0%);fill-opacity:1;" d="M 385.285156 60 L 385.285156 40 L 405.285156 40 L 405.285156 60 Z M 385.285156 60 "/>
<path style=" stroke:none;fill-rule:nonzero;fill:rgb(0%,0%,0%);fill-opacity:1;" d="M 385.285156 20 L 385.285156 0 L 405.285156 0 L 405.285156 20 Z M 385.285156 20 "/>
<path style=" stroke:none;fill-rule:nonzero;fill:rgb(0%,0%,0%);fill-opacity:1;" d="M -3.113281 200 L -3.113281 180 L 16.886719 180 L 16.886719 200 Z M -3.113281 200 "/>
<path style=" stroke:none;fill-rule:nonzero;fill:rgb(0%,0%,0%);fill-opacity:1;" d="M -3.113281 160 L -3.113281 140 L 16.886719 140 L 16.886719 160 Z M -3.113281 160 "/>
<path style=" stroke:none;fill-rule:nonzero;fill:rgb(0%,0%,0%);fill-opacity:1;" d="M -3.113281 120 L -3.113281 100 L 16.886719 100 L 16.886719 120 Z M -3.113281 120 "/>
<path style=" stroke:none;fill-rule:nonzero;fill:rgb(0%,0%,0%);fill-opacity:1;" d="M -3.113281 80 L -3.113281 60 L 16.886719 60 L 16.886719 80 Z M -3.113281 80 "/>
<path style=" stroke:none;fill-rule:nonzero;fill:rgb(0%,0%,0%);fill-opacity:1;" d="M -3.113281 40 L -3.113281 20 L 16.886719 20 L 16.886719 40 Z M -3.113281 40 "/>
<path style=" stroke:none;fill-rule:nonzero;fill:rgb(0%,0%,0%);fill-opacity:1;" d="M 32.886719 200 L 32.886719 180 L 52.886719 180 L 52.886719 200 Z M 32.886719 200 "/>
<path style=" stroke:none;fill-rule:nonzero;fill:rgb(0%,0%,0%);fill-opacity:1;" d="M 32.886719 160 L 32.886719 140 L 52.886719 140 L 52.886719 160 Z M 32.886719 160 "/>
<path style=" stroke:none;fill-rule:nonzero;fill:rgb(0%,0%,0%);fill-opacity:1;" d="M 32.886719 120 L 32.886719 100 L 52.886719 100 L 52.886719 120 Z M 32.886719 120 "/>
<path style=" stroke:none;fill-rule:nonzero;fill:rgb(0%,0%,0%);fill-opacity:1;" d="M 32.886719 80 L 32.886719 60 L 52.886719 60 L 52.886719 80 Z M 32.886719 80 "/>
<path style=" stroke:none;fill-rule:nonzero;fill:rgb(0%,0%,0%);fill-opacity:1;" d="M 32.886719 40 L 32.886719 20 L 52.886719 20 L 52.886719 40 Z M 32.886719 40 "/>
<path style=" stroke:none;fill-rule:nonzero;fill:rgb(0%,0%,0%);fill-opacity:1;" d="M 68.886719 200 L 68.886719 180 L 88.886719 180 L 88.886719 200 Z M 68.886719 200 "/>
<path style=" stroke:none;fill-rule:nonzero;fill:rgb(0%,0%,0%);fill-opacity:1;" d="M 68.886719 160 L 68.886719 140 L 88.886719 140 L 88.886719 160 Z M 68.886719 160 "/>
<path style=" stroke:none;fill-rule:nonzero;fill:rgb(0%,0%,0%);fill-opacity:1;" d="M 68.886719 120 L 68.886719 100 L 88.886719 100 L 88.886719 120 Z M 68.886719 120 "/>
<path style=" stroke:none;fill-rule:nonzero;fill:rgb(0%,0%,0%);fill-opacity:1;" d="M 68.886719 80 L 68.886719 60 L 88.886719 60 L 88.886719 80 Z M 68.886719 80 "/>
<path style=" stroke:none;fill-rule:nonzero;fill:rgb(0%,0%,0%);fill-opacity:1;" d="M 68.886719 40 L 68.886719 20 L 88.886719 20 L 88.886719 40 Z M 68.886719 40 "/>
<path style=" stroke:none;fill-rule:nonzero;fill:rgb(0%,0%,0%);fill-opacity:1;" d="M 104.886719 200 L 104.886719 180 L 124.886719 180 L 124.886719 200 Z M 104.886719 200 "/>
<path style=" stroke:none;fill-rule:nonzero;fill:rgb(0%,0%,0%);fill-opacity:1;" d="M 104.886719 160 L 104.886719 140 L 124.886719 140 L 124.886719 160 Z M 104.886719 160 "/>
<path style=" stroke:none;fill-rule:nonzero;fill:rgb(0%,0%,0%);fill-opacity:1;" d="M 104.886719 120 L 104.886719 100 L 124.886719 100 L 124.886719 120 Z M 104.886719 120 "/>
<path style=" stroke:none;fill-rule:nonzero;fill:rgb(0%,0%,0%);fill-opacity:1;" d="M 104.886719 80 L 104.886719 60 L 124.886719 60 L 124.886719 80 Z M 104.886719 80 "/>
<path style=" stroke:none;fill-rule:nonzero;fill:rgb(0%,0%,0%);fill-opacity:1;" d="M 104.886719 40 L 104.886719 20 L 124.886719 20 L 124.886719 40 Z M 104.886719 40 "/>
<path style=" stroke:none;fill-rule:nonzero;fill:rgb(0%,0%,0%);fill-opacity:1;" d="M 140.886719 200 L 140.886719 180 L 160.886719 180 L 160.886719 200 Z M 140.886719 200 "/>
<path style=" stroke:none;fill-rule:nonzero;fill:rgb(0%,0%,0%);fill-opacity:1;" d="M 140.886719 160 L 140.886719 140 L 160.886719 140 L 160.886719 160 Z M 140.886719 160 "/>
<path style=" stroke:none;fill-rule:nonzero;fill:rgb(0%,0%,0%);fill-opacity:1;" d="M 140.886719 120 L 140.886719 100 L 160.886719 100 L 160.886719 120 Z M 140.886719 120 "/>
<path style=" stroke:none;fill-rule:nonzero;fill:rgb(0%,0%,0%);fill-opacity:1;" d="M 140.886719 80 L 140.886719 60 L 160.886719 60 L 160.886719 80 Z M 140.886719 80 "/>
<path style=" stroke:none;fill-rule:nonzero;fill:rgb(0%,0%,0%);fill-opacity:1;" d="M 140.886719 40 L 140.886719 20 L 160.886719 20 L 160.886719 40 Z M 140.886719 40 "/>
<path style=" stroke:none;fill-rule:nonzero;fill:rgb(0%,0%,0%);fill-opacity:1;" d="M 176.886719 200 L 176.886719 180 L 196.886719 180 L 196.886719 200 Z M 176.886719 200 "/>
<path style=" stroke:none;fill-rule:nonzero;fill:rgb(0%,0%,0%);fill-opacity:1;" d="M 176.886719 160 L 176.886719 140 L 196.886719 140 L 196.886719 160 Z M 176.886719 160 "/>
<path style=" stroke:none;fill-rule:nonzero;fill:rgb(0%,0%,0%);fill-opacity:1;" d="M 176.886719 120 L 176.886719 100 L 196.886719 100 L 196.886719 120 Z M 176.886719 120 "/>
<path style=" stroke:none;fill-rule:nonzero;fill:rgb(0%,0%,0%);fill-opacity:1;" d="M 176.886719 80 L 176.886719 60 L 196.886719 60 L 196.886719 80 Z M 176.886719 80 "/>
<path style=" stroke:none;fill-rule:nonzero;fill:rgb(0%,0%,0%);fill-opacity:1;" d="M 176.886719 40 L 176.886719 20 L 196.886719 20 L 196.886719 40 Z M 176.886719 40 "/>
<path style=" stroke:none;fill-rule:nonzero;fill:rgb(0%,0%,0%);fill-opacity:1;" d="M 212.886719 200 L 212.886719 180 L 232.886719 180 L 232.886719 200 Z M 212.886719 200 "/>
<path style=" stroke:none;fill-rule:nonzero;fill:rgb(0%,0%,0%);fill-opacity:1;" d="M 212.886719 160 L 212.886719 140 L 232.886719 140 L 232.886719 160 Z M 212.886719 160 "/>
<path style=" stroke:none;fill-rule:nonzero;fill:rgb(0%,0%,0%);fill-opacity:1;" d="M 212.886719 120 L 212.886719 100 L 232.886719 100 L 232.886719 120 Z M 212.886719 120 "/>
<path style=" stroke:none;fill-rule:nonzero;fill:rgb(0%,0%,0%);fill-opacity:1;" d="M 212.886719 80 L 212.886719 60 L 232.886719 60 L 232.886719 80 Z M 212.886719 80 "/>
<path style=" stroke:none;fill-rule:nonzero;fill:rgb(0%,0%,0%);fill-opacity:1;" d="M 212.886719 40 L 212.886719 20 L 232.886719 20 L 232.886719 40 Z M 212.886719 40 "/>
<path style=" stroke:none;fill-rule:nonzero;fill:rgb(0%,0%,0%);fill-opacity:1;" d="M 248.886719 200 L 248.886719 180 L 268.886719 180 L 268.886719 200 Z M 248.886719 200 "/>
<path style=" stroke:none;fill-rule:nonzero;fill:rgb(0%,0%,0%);fill-opacity:1;" d="M 248.886719 160 L 248.886719 140 L 268.886719 140 L 268.886719 160 Z M 248.886719 160 "/>
<path style=" stroke:none;fill-rule:nonzero;fill:rgb(0%,0%,0%);fill-opacity:1;" d="M 248.886719 120 L 248.886719 100 L 268.886719 100 L 268.886719 120 Z M 248.886719 120 "/>
<path style=" stroke:none;fill-rule:nonzero;fill:rgb(0%,0%,0%);fill-opacity:1;" d="M 248.886719 80 L 248.886719 60 L 268.886719 60 L 268.886719 80 Z M 248.886719 80 "/>
<path style=" stroke:none;fill-rule:nonzero;fill:rgb(0%,0%,0%);fill-opacity:1;" d="M 248.886719 40 L 248.886719 20 L 268.886719 20 L 268.886719 40 Z M 248.886719 40 "/>
<path style=" stroke:none;fill-rule:nonzero;fill:rgb(0%,0%,0%);fill-opacity:1;" d="M 284.886719 200 L 284.886719 180 L 304.886719 180 L 304.886719 200 Z M 284.886719 200 "/>
<path style=" stroke:none;fill-rule:nonzero;fill:rgb(0%,0%,0%);fill-opacity:1;" d="M 284.886719 160 L 284.886719 140 L 304.886719 140 L 304.886719 160 Z M 284.886719 160 "/>
<path style=" stroke:none;fill-rule:nonzero;fill:rgb(0%,0%,0%);fill-opacity:1;" d="M 284.886719 120 L 284.886719 100 L 304.886719 100 L 304.886719 120 Z M 284.886719 120 "/>
<path style=" stroke:none;fill-rule:nonzero;fill:rgb(0%,0%,0%);fill-opacity:1;" d="M 284.886719 80 L 284.886719 60 L 304.886719 60 L 304.886719 80 Z M 284.886719 80 "/>
<path style=" stroke:none;fill-rule:nonzero;fill:rgb(0%,0%,0%);fill-opacity:1;" d="M 284.886719 40 L 284.886719 20 L 304.886719 20 L 304.886719 40 Z M 284.886719 40 "/>
<path style=" stroke:none;fill-rule:nonzero;fill:rgb(0%,0%,0%);fill-opacity:1;" d="M 320.886719 200 L 320.886719 180 L 340.886719 180 L 340.886719 200 Z M 320.886719 200 "/>
<path style=" stroke:none;fill-rule:nonzero;fill:rgb(0%,0%,0%);fill-opacity:1;" d="M 320.886719 160 L 320.886719 140 L 340.886719 140 L 340.886719 160 Z M 320.886719 160 "/>
<path style=" stroke:none;fill-rule:nonzero;fill:rgb(0%,0%,0%);fill-opacity:1;" d="M 320.886719 120 L 320.886719 100 L 340.886719 100 L 340.886719 120 Z M 320.886719 120 "/>
<path style=" stroke:none;fill-rule:nonzero;fill:rgb(0%,0%,0%);fill-opacity:1;" d="M 320.886719 80 L 320.886719 60 L 340.886719 60 L 340.886719 80 Z M 320.886719 80 "/>
<path style=" stroke:none;fill-rule:nonzero;fill:rgb(0%,0%,0%);fill-opacity:1;" d="M 320.886719 40 L 320.886719 20 L 340.886719 20 L 340.886719 40 Z M 320.886719 40 "/>
<path style=" stroke:none;fill-rule:nonzero;fill:rgb(0%,0%,0%);fill-opacity:1;" d="M 356.886719 200 L 356.886719 180 L 376.886719 180 L 376.886719 200 Z M 356.886719 200 "/>
<path style=" stroke:none;fill-rule:nonzero;fill:rgb(0%,0%,0%);fill-opacity:1;" d="M 356.886719 160 L 356.886719 140 L 376.886719 140 L 376.886719 160 Z M 356.886719 160 "/>
<path style=" stroke:none;fill-rule:nonzero;fill:rgb(0%,0%,0%);fill-opacity:1;" d="M 356.886719 120 L 356.886719 100 L 376.886719 100 L 376.886719 120 Z M 356.886719 120 "/>
<path style=" stroke:none;fill-rule:nonzero;fill:rgb(0%,0%,0%);fill-opacity:1;" d="M 356.886719 80 L 356.886719 60 L 376.886719 60 L 376.886719 80 Z M 356.886719 80 "/>
<path style=" stroke:none;fill-rule:nonzero;fill:rgb(0%,0%,0%);fill-opacity:1;" d="M 356.886719 40 L 356.886719 20 L 376.886719 20 L 376.886719 40 Z M 356.886719 40 "/>
<path style=" stroke:none;fill-rule:nonzero;fill:rgb(0%,0%,0%);fill-opacity:1;" d="M 392.886719 200 L 392.886719 180 L 412.886719 180 L 412.886719 200 Z M 392.886719 200 "/>
<path style=" stroke:none;fill-rule:nonzero;fill:rgb(0%,0%,0%);fill-opacity:1;" d="M 392.886719 160 L 392.886719 140 L 412.886719 140 L 412.886719 160 Z M 392.886719 160 "/>
<path style=" stroke:none;fill-rule:nonzero;fill:rgb(0%,0%,0%);fill-opacity:1;" d="M 392.886719 120 L 392.886719 100 L 412.886719 100 L 412.886719 120 Z M 392.886719 120 "/>
<path style=" stroke:none;fill-rule:nonzero;fill:rgb(0%,0%,0%);fill-opacity:1;" d="M 392.886719 80 L 392.886719 60 L 412.886719 60 L 412.886719 80 Z M 392.886719 80 "/>
<path style=" stroke:none;fill-rule:nonzero;fill:rgb(0%,0%,0%);fill-opacity:1;" d="M 392.886719 40 L 392.886719 20 L 412.886719 20 L 412.886719 40 Z M 392.886719 40 "/>
<path style="fill:none;stroke-width:1;stroke-linecap:square;stroke-linejoin:miter;stroke:rgb(100%,0%,0%);stroke-opacity:1;stroke-miterlimit:3.25;" d="M 0 220 L 400 220 "/>
<path style="fill:none;stroke-width:1;stroke-linecap:square;stroke-linejoin:miter;stroke:rgb(100%,0%,0%);stroke-opacity:1;stroke-miterlimit:3.25;" d="M 0 200 L 400 200 "/>
<path style="fill:none;stroke-width:1;stroke-linecap:square;stroke-linejoin:miter;stroke:rgb(100%,0%,0%);stroke-opacity:1;stroke-miterlimit:3.25;" d="M 0 180 L 400 180 "/>
<path style="fill:none;stroke-width:1;stroke-linecap:square;stroke-linejoin:miter;stroke:rgb(100%,0%,0%);stroke-opacity:1;stroke-miterlimit:3.25;" d="M 0 160 L 400 160 "/>
<path style="fill:none;stroke-width:1;stroke-linecap:square;stroke-linejoin:miter;stroke:rgb(100%,0%,0%);stroke-opacity:1;stroke-miterlimit:3.25;" d="M 0 140 L 400 140 "/>
<path style="fill:none;stroke-width:1;stroke-linecap:square;stroke-linejoin:miter;stroke:rgb(100%,0%,0%);stroke-opacity:1;stroke-miterlimit:3.25;" d="M 0 120 L 400 120 "/>
<path style="fill:none;stroke-width:1;stroke-linecap:square;stroke-linejoin:miter;stroke:rgb(100%,0%,0%);stroke-opacity:1;stroke-miterlimit:3.25;" d="M 0 100 L 400 100 "/>
<path style="fill:none;stroke-width:1;stroke-linecap:square;stroke-linejoin:miter;stroke:rgb(100%,0%,0%);stroke-opacity:1;stroke-miterlimit:3.25;" d="M 0 80 L 400 80 "/>
<path style="fill:none;stroke-width:1;stroke-linecap:square;stroke-linejoin:miter;stroke:rgb(100%,0%,0%);stroke-opacity:1;stroke-miterlimit:3.25;" d="M 0 60 L 400 60 "/>
<path style="fill:none;stroke-width:1;stroke-linecap:square;stroke-linejoin:miter;stroke:rgb(100%,0%,0%);stroke-opacity:1;stroke-miterlimit:3.25;" d="M 0 40 L 400 40 "/>
<path style="fill:none;stroke-width:1;stroke-linecap:square;stroke-linejoin:miter;stroke:rgb(100%,0%,0%);stroke-opacity:1;stroke-miterlimit:3.25;" d="M 0 20 L 400 20 "/>
</g>
</svg>
