<?xml version="1.0" encoding="UTF-8"?>
<svg xmlns="http://www.w3.org/2000/svg" xmlns:xlink="http://www.w3.org/1999/xlink" width="400pt" height="220pt" viewBox="0 0 400 220" version="1.1">
<g id="surface556">
<rect x="0" y="0" width="400" height="220" style="fill:rgb(0%,40%,100%);fill-opacity:0.2;stroke:none;"/>
<path style=" stroke:none;fill-rule:nonzero;fill:rgb(0%,0%,0%);fill-opacity:1;" d="M 13.691406 220 L 13.691406 200 L 33.691406 200 L 33.691406 220 Z M 13.691406 220 "/>
<path style=" stroke:none;fill-rule:nonzero;fill:rgb(0%,0%,0%);fill-opacity:1;" d="M 13.691406 180 L 13.691406 160 L 33.691406 160 L 33.691406 180 Z M 13.691406 180 "/>
<path style=" stroke:none;fill-rule:nonzero;fill:rgb(0%,0%,0%);fill-opacity:1;" d="M 13.691406 140 L 13.691406 120 L 33.691406 120 L 33.691406 140 Z M 13.691406 140 "/>
<path style=" stroke:none;fill-rule:nonzero;fill:rgb(0%,0%,0%);fill-opacity:1;" d="M 13.691406 100 L 13.691406 80 L 33.691406 80 L 33.691406 100 Z M 13.691406 100 "/>
<path style=" stroke:none;fill-rule:nonzero;fill:rgb(0%,0%,0%);fill-opacity:1;" d="M 13.691406 60 L 13.691406 40 L 33.691406 40 L 33.691406 60 Z M 13.691406 60 "/>
<path style=" stroke:none;fill-rule:nonzero;fill:rgb(0%,0%,0%);fill-opacity:1;" d="M 13.691406 20 L 13.691406 0 L 33.691406 0 L 33.691406 20 Z M 13.691406 20 "/>
<path style=" stroke:none;fill-rule:nonzero;fill:rgb(0%,0%,0%);fill-opacity:1;" d="M 49.691406 220 L 49.691406 200 L 69.691406 200 L 69.691406 220 Z M 49.691406 220 "/>
<path style=" stroke:none;fill-rule:nonzero;fill:rgb(0%,0%,0%);fill-opacity:1;" d="M 49.691406 180 L 49.691406 160 L 69.691406 160 L 69.691406 180 Z M 49.691406 180 "/>
<path style=" stroke:none;fill-rule:nonzero;fill:rgb(0%,0%,0%);fill-opacity:1;" d="M 49.691406 140 L 49.691406 120 L 69.691406 120 L 69.691406 140 Z M 49.691406 140 "/>
<path style=" stroke:none;fill-rule:nonzero;fill:rgb(0%,0%,0%);fill-opacity:1;" d="M 49.691406 100 L 49.691406 80 L 69.691406 80 L 69.691406 100 Z M 49.691406 100 "/>
<path style=" stroke:none;fill-rule:nonzero;fill:rgb(0%,0%,0%);fill-opacity:1;" d="M 49.691406 60 L 49.691406 40 L 69.691406 40 L 69.691406 60 Z M 49.691406 60 "/>
<path style=" stroke:none;fill-rule:nonzero;fill:rgb(0%,0%,0%);fill-opacity:1;" d="M 49.691406 20 L 49.691406 0 L 69.691406 0 L 69.691406 20 Z M 49.691406 20 "/>
<path style=" stroke:none;fill-rule:nonzero;fill:rgb(0%,0%,0%);fill-opacity:1;" d="M 85.691406 220 L 85.691406 200 L 105.691406 200 L 105.691406 220 Z M 85.691406 220 "/>
<path style=" stroke:none;fill-rule:nonzero;fill:rgb(0%,0%,0%);fill-opacity:1;" d="M 85.691406 180 L 85.691406 160 L 105.691406 160 L 105.691406 180 Z M 85.691406 180 "/>
<path style=" stroke:none;fill-rule:nonzero;fill:rgb(0%,0%,0%);fill-opacity:1;" d="M 85.691406 140 L 85.691406 120 L 105.691406 120 L 105.691406 140 Z M 85.691406 140 "/>
<path style=" stroke:none;fill-rule:nonzero;fill:rgb(0%,0%,0%);fill-opacity:1;" d="M 85.691406 100 L 85.691406 80 L 105.691406 80 L 105.691406 100 Z M 85.691406 100 "/>
<path style=" stroke:none;fill-rule:nonzero;fill:rgb(0%,0%,0%);fill-opacity:1;" d="M 85.691406 60 L 85.691406 40 L 105.691406 40 L 105.691406 60 Z M 85.691406 60 "/>
<path style=" stroke:none;fill-rule:nonzero;fill:rgb(0%,0%,0%);fill-opacity:1;" d="M 85.691406 20 L 85.691406 0 L 105.691406 0 L 105.691406 20 Z M 85.691406 20 "/>
<path style=" stroke:none;fill-rule:nonzero;fill:rgb(0%,0%,0%);fill-opacity:1;" d="M 121.691406 220 L 121.691406 200 L 141.691406 200 L 141.691406 220 Z M 121.691406 220 "/>
<path style=" stroke:none;fill-rule:nonzero;fill:rgb(0%,0%,0%);fill-opacity:1;" d="M 121.691406 180 L 121.691406 160 L 141.691406 160 L 141.691406 180 Z M 121.691406 180 "/>
<path style=" stroke:none;fill-rule:nonzero;fill:rgb(0%,0%,0%);fill-opacity:1;" d="M 121.691406 140 L 121.691406 120 L 141.691406 120 L 141.691406 140 Z M 121.691406 140 "/>
<path style=" stroke:none;fill-rule:nonzero;fill:rgb(0%,0%,0%);fill-opacity:1;" d="M 121.691406 100 L 121.691406 80 L 141.691406 80 L 141.691406 100 Z M 121.691406 100 "/>
<path style=" stroke:none;fill-rule:nonzero;fill:rgb(0%,0%,0%);fill-opacity:1;" d="M 121.691406 60 L 121.691406 40 L 141.691406 40 L 141.691406 60 Z M 121.691406 60 "/>
<path style=" stroke:none;fill-rule:nonzero;fill:rgb(0%,0%,0%);fill-opacity:1;" d="M 121.691406 20 L 121.691406 0 L 141.691406 0 L 141.691406 20 Z M 121.691406 20 "/>
<path style=" stroke:none;fill-rule:nonzero;fill:rgb(0%,0%,0%);fill-opacity:1;" d="M 157.691406 220 L 157.691406 200 L 177.691406 200 L 177.691406 220 Z M 157.691406 220 "/>
<path style=" stroke:none;fill-rule:nonzero;fill:rgb(0%,0%,0%);fill-opacity:1;" d="M 157.691406 180 L 157.691406 160 L 177.691406 160 L 177.691406 180 Z M 157.691406 180 "/>
<path style=" stroke:none;fill-rule:nonzero;fill:rgb(0%,0%,0%);fill-opacity:1;" d="M 157.691406 140 L 157.691406 120 L 177.691406 120 L 177.691406 140 Z M 157.691406 140 "/>
<path style=" stroke:none;fill-rule:nonzero;fill:rgb(0%,0%,0%);fill-opacity:1;" d="M 157.691406 100 L 157.691406 80 L 177.691406 80 L 177.691406 100 Z M 157.691406 100 "/>
<path style=" stroke:none;fill-rule:nonzero;fill:rgb(0%,0%,0%);fill-opacity:1;" d="M 157.691406 60 L 157.691406 40 L 177.691406 40 L 177.691406 60 Z M 157.691406 60 "/>
<path style=" stroke:none;fill-rule:nonzero;fill:rgb(0%,0%,0%);fill-opacity:1;" d="M 157.691406 20 L 157.691406 0 L 177.691406 0 L 177.691406 20 Z M 157.691406 20 "/>
<path style=" stroke:none;fill-rule:nonzero;fill:rgb(0%,0%,0%);fill-opacity:1;" d="M 193.691406 220 L 193.691406 200 L 213.691406 200 L 213.691406 220 Z M 193.691406 220 "/>
<path style=" stroke:none;fill-rule:nonzero;fill:rgb(0%,0%,0%);fill-opacity:1;" d="M 193.691406 180 L 193.691406 160 L 213.691406 160 L 213.691406 180 Z M 193.691406 180 "/>
<path style=" stroke:none;fill-rule:nonzero;fill:rgb(0%,0%,0%);fill-opacity:1;" d="M 193.691406 140 L 193.691406 120 L 213.691406 120 L 213.691406 140 Z M 193.691406 140 "/>
<path style=" stroke:none;fill-rule:nonzero;fill:rgb(0%,0%,0%);fill-opacity:1;" d="M 193.691406 100 L 193.691406 80 L 213.691406 80 L 213.691406 100 Z M 193.691406 100 "/>
<path style=" stroke:none;fill-rule:nonzero;fill:rgb(0%,0%,0%);fill-opacity:1;" d="M 193.691406 60 L 193.691406 40 L 213.691406 40 L 213.691406 60 Z M 193.691406 60 "/>
<path style=" stroke:none;fill-rule:nonzero;fill:rgb(0%,0%,0%);fill-opacity:1;" d="M 193.691406 20 L 193.691406 0 L 213.691406 0 L 213.691406 20 Z M 193.691406 20 "/>
<path style=" stroke:none;fill-rule:nonzero;fill:rgb(0%,0%,0%);fill-opacity:1;" d="M 229.691406 220 L 229.691406 200 L 249.691406 200 L 249.691406 220 Z M 229.691406 220 "/>
<path style=" stroke:none;fill-rule:nonzero;fill:rgb(0%,0%,0%);fill-opacity:1;" d="M 229.691406 180 L 229.691406 160 L 249.691406 160 L 249.691406 180 Z M 229.691406 180 "/>
<path style=" stroke:none;fill-rule:nonzero;fill:rgb(0%,0%,0%);fill-opacity:1;" d="M 229.691406 140 L 229.691406 120 L 249.691406 120 L 249.691406 140 Z M 229.691406 140 "/>
<path style=" stroke:none;fill-rule:nonzero;fill:rgb(0%,0%,0%);fill-opacity:1;" d="M 229.691406 100 L 229.691406 80 L 249.691406 80 L 249.691406 100 Z M 229.691406 100 "/>
<path style=" stroke:none;fill-rule:nonzero;fill:rgb(0%,0%,0%);fill-opacity:1;" d="M 229.691406 60 L 229.691406 40 L 249.691406 40 L 249.691406 60 Z M 229.691406 60 "/>
<path style=" stroke:none;fill-rule:nonzero;fill:rgb(0%,0%,0%);fill-opacity:1;" d="M 229.691406 20 L 229.691406 0 L 249.691406 0 L 249.691406 20 Z M 229.691406 20 "/>
<path style=" stroke:none;fill-rule:nonzero;fill:rgb(0%,0%,0%);fill-opacity:1;" d="M 265.691406 220 L 265.691406 200 L 285.691406 200 L 285.691406 220 Z M 265.691406 220 "/>
<path style=" stroke:none;fill-rule:nonzero;fill:rgb(0%,0%,0%);fill-opacity:1;" d="M 265.691406 180 L 265.691406 160 L 285.691406 160 L 285.691406 180 Z M 265.691406 180 "/>
<path style=" stroke:none;fill-rule:nonzero;fill:rgb(0%,0%,0%);fill-opacity:1;" d="M 265.691406 140 L 265.691406 120 L 285.691406 120 L 285.691406 140 Z M 265.691406 140 "/>
<path style=" stroke:none;fill-rule:nonzero;fill:rgb(0%,0%,0%);fill-opacity:1;" d="M 265.691406 100 L 265.691406 80 L 285.691406 80 L 285.691406 100 Z M 265.691406 100 "/>
<path style=" stroke:none;fill-rule:nonzero;fill:rgb(0%,0%,0%);fill-opacity:1;" d="M 265.691406 60 L 265.691406 40 L 285.691406 40 L 285.691406 60 Z M 265.691406 60 "/>
<path style=" stroke:none;fill-rule:nonzero;fill:rgb(0%,0%,0%);fill-opacity:1;" d="M 265.691406 20 L 265.691406 0 L 285.691406 0 L 285.691406 20 Z M 265.691406 20 "/>
<path style=" stroke:none;fill-rule:nonzero;fill:rgb(0%,0%,0%);fill-opacity:1;" d="M 301.691406 220 L 301.691406 200 L 321.691406 200 L 321.691406 220 Z M 301.691406 220 "/>
<path style=" stroke:none;fill-rule:nonzero;fill:rgb(0%,0%,0%);fill-opacity:1;" d="M 301.691406 180 L 301.691406 160 L 321.691406 160 L 321.691406 180 Z M 301.691406 180 "/>
<path style=" stroke:none;fill-rule:nonzero;fill:rgb(0%,0%,0%);fill-opacity:1;" d="M 301.691406 140 L 301.691406 120 L 321.691406 120 L 321.691406 140 Z M 301.691406 140 "/>
<path style=" stroke:none;fill-rule:nonzero;fill:rgb(0%,0%,0%);fill-opacity:1;" d="M 301.691406 100 L 301.691406 80 L 321.691406 80 L 321.691406 100 Z M 301.691406 100 "/>
<path style=" stroke:none;fill-rule:nonzero;fill:rgb(0%,0%,0%);fill-opacity:1;" d="M 301.691406 60 L 301.691406 40 L 321.691406 40 L 321.691406 60 Z M 301.691406 60 "/>
<path style=" stroke:none;fill-rule:nonzero;fill:rgb(0%,0%,0%);fill-opacity:1;" d="M 301.691406 20 L 301.691406 0 L 321.691406 0 L 321.691406 20 Z M 301.691406 20 "/>
<path style=" stroke:none;fill-rule:nonzero;fill:rgb(0%,0%,0%);fill-opacity:1;" d="M 337.691406 220 L 337.691406 200 L 357.691406 200 L 357.691406 220 Z M 337.691406 220 "/>
<path style=" stroke:none;fill-rule:nonzero;fill:rgb(0%,0%,0%);fill-opacity:1;" d="M 337.691406 180 L 337.691406 160 L 357.691406 160 L 357.691406 180 Z M 337.691406 180 "/>
<path style=" stroke:none;fill-rule:nonzero;fill:rgb(0%,0%,0%);fill-opacity:1;" d="M 337.691406 140 L 337.691406 120 L 357.691406 120 L 357.691406 140 Z M 337.691406 140 "/>
<path style=" stroke:none;fill-rule:nonzero;fill:rgb(0%,0%,0%);fill-opacity:1;" d="M 337.691406 100 L 337.691406 80 L 357.691406 80 L 357.691406 100 Z M 337.691406 100 "/>
<path style=" stroke:none;fill-rule:nonzero;fill:rgb(0%,0%,0%);fill-opacity:1;" d="M 337.691406 60 L 337.691406 40 L 357.691406 40 L 357.691406 60 Z M 337.691406 60 "/>
<path style=" stroke:none;fill-rule:nonzero;fill:rgb(0%,0%,0%);fill-opacity:1;" d="M 337.691406 20 L 337.691406 0 L 357.691406 0 L 357.691406 20 Z M 337.691406 20 "/>
<path style=" stroke:none;fill-rule:nonzero;fill:rgb(0%,0%,0%);fill-opacity:1;" d="M 373.691406 220 L 373.691406 200 L 393.691406 200 L 393.691406 220 Z M 373.691406 220 "/>
<path style=" stroke:none;fill-rule:nonzero;fill:rgb(0%,0%,0%);fill-opacity:1;" d="M 373.691406 180 L 373.691406 160 L 393.691406 160 L 393.691406 180 Z M 373.691406 180 "/>
<path style=" stroke:none;fill-rule:nonzero;fill:rgb(0%,0%,0%);fill-opacity:1;" d="M 373.691406 140 L 373.691406 120 L 393.691406 120 L 393.691406 140 Z M 373.691406 140 "/>
<path style=" stroke:none;fill-rule:nonzero;fill:rgb(0%,0%,0%);fill-opacity:1;" d="M 373.691406 100 L 373.691406 80 L 393.691406 80 L 393.691406 100 Z M 373.691406 100 "/>
<path style=" stroke:none;fill-rule:nonzero;fill:rgb(0%,0%,0%);fill-opacity:1;" d="M 373.691406 60 L 373.691406 40 L 393.691406 40 L 393.691406 60 Z M 373.691406 60 "/>
<path style=" stroke:none;fill-rule:nonzero;fill:rgb(0%,0%,0%);fill-opacity:1;" d="M 373.691406 20 L 373.691406 0 L 393.691406 0 L 393.691406 20 Z M 373.691406 20 "/>
<path style=" stroke:none;fill-rule:nonzero;fill:rgb(0%,0%,0%);fill-opacity:1;" d="M 1.421875 200 L 1.421875 180 L 21.421875 180 L 21.421875 200 Z M 1.421875 200 "/>
<path style=" stroke:none;fill-rule:nonzero;fill:rgb(0%,0%,0%);fill-opacity:1;" d="M 1.421875 160 L 1.421875 140 L 21.421875 140 L 21.421875 160 Z M 1.421875 160 "/>
<path style=" stroke:none;fill-rule:nonzero;fill:rgb(0%,0%,0%);fill-opacity:1;" d="M 1.421875 120 L 1.421875 100 L 21.421875 100 L 21.421875 120 Z M 1.421875 120 "/>
<path style=" stroke:none;fill-rule:nonzero;fill:rgb(0%,0%,0%);fill-opacity:1;" d="M 1.421875 80 L 1.421875 60 L 21.421875 60 L 21.421875 80 Z M 1.421875 80 "/>
<path style=" stroke:none;fill-rule:nonzero;fill:rgb(0%,0%,0%);fill-opacity:1;" d="M 1.421875 40 L 1.421875 20 L 21.421875 20 L 21.421875 40 Z M 1.421875 40 "/>
<path style=" stroke:none;fill-rule:nonzero;fill:rgb(0%,0%,0%);fill-opacity:1;" d="M 37.421875 200 L 37.421875 180 L 57.421875 180 L 57.421875 200 Z M 37.421875 200 "/>
<path style=" stroke:none;fill-rule:nonzero;fill:rgb(0%,0%,0%);fill-opacity:1;" d="M 37.421875 160 L 37.421875 140 L 57.421875 140 L 57.421875 160 Z M 37.421875 160 "/>
<path style=" stroke:none;fill-rule:nonzero;fill:rgb(0%,0%,0%);fill-opacity:1;" d="M 37.421875 120 L 37.421875 100 L 57.421875 100 L 57.421875 120 Z M 37.421875 120 "/>
<path style=" stroke:none;fill-rule:nonzero;fill:rgb(0%,0%,0%);fill-opacity:1;" d="M 37.421875 80 L 37.421875 60 L 57.421875 60 L 57.421875 80 Z M 37.421875 80 "/>
<path style=" stroke:none;fill-rule:nonzero;fill:rgb(0%,0%,0%);fill-opacity:1;" d="M 37.421875 40 L 37.421875 20 L 57.421875 20 L 57.421875 40 Z M 37.421875 40 "/>
<path style=" stroke:none;fill-rule:nonzero;fill:rgb(0%,0%,0%);fill-opacity:1;" d="M 73.421875 200 L 73.421875 180 L 93.421875 180 L 93.421875 200 Z M 73.421875 200 "/>
<path style=" stroke:none;fill-rule:nonzero;fill:rgb(0%,0%,0%);fill-opacity:1;" d="M 73.421875 160 L 73.421875 140 L 93.421875 140 L 93.421875 160 Z M 73.421875 160 "/>
<path style=" stroke:none;fill-rule:nonzero;fill:rgb(0%,0%,0%);fill-opacity:1;" d="M 73.421875 120 L 73.421875 100 L 93.421875 100 L 93.421875 120 Z M 73.421875 120 "/>
<path style=" stroke:none;fill-rule:nonzero;fill:rgb(0%,0%,0%);fill-opacity:1;" d="M 73.421875 80 L 73.421875 60 L 93.421875 60 L 93.421875 80 Z M 73.421875 80 "/>
<path style=" stroke:none;fill-rule:nonzero;fill:rgb(0%,0%,0%);fill-opacity:1;" d="M 73.421875 40 L 73.421875 20 L 93.421875 20 L 93.421875 40 Z M 73.421875 40 "/>
<path style=" stroke:none;fill-rule:nonzero;fill:rgb(0%,0%,0%);fill-opacity:1;" d="M 109.421875 200 L 109.421875 180 L 129.421875 180 L 129.421875 200 Z M 109.421875 200 "/>
<path style=" stroke:none;fill-rule:nonzero;fill:rgb(0%,0%,0%);fill-opacity:1;" d="M 109.421875 160 L 109.421875 140 L 129.421875 140 L 129.421875 160 Z M 109.421875 160 "/>
<path style=" stroke:none;fill-rule:nonzero;fill:rgb(0%,0%,0%);fill-opacity:1;" d="M 109.421875 120 L 109.421875 100 L 129.421875 100 L 129.421875 120 Z M 109.421875 120 "/>
<path style=" stroke:none;fill-rule:nonzero;fill:rgb(0%,0%,0%);fill-opacity:1;" d="M 109.421875 80 L 109.421875 60 L 129.421875 60 L 129.421875 80 Z M 109.421875 80 "/>
<path style=" stroke:none;fill-rule:nonzero;fill:rgb(0%,0%,0%);fill-opacity:1;" d="M 109.421875 40 L 109.421875 20 L 129.421875 20 L 129.421875 40 Z M 109.421875 40 "/>
<path style=" stroke:none;fill-rule:nonzero;fill:rgb(0%,0%,0%);fill-opacity:1;" d="M 145.421875 200 L 145.421875 180 L 165.421875 180 L 165.421875 200 Z M 145.421875 200 "/>
<path style=" stroke:none;fill-rule:nonzero;fill:rgb(0%,0%,0%);fill-opacity:1;" d="M 145.421875 160 L 145.421875 140 L 165.421875 140 L 165.421875 160 Z M 145.421875 160 "/>
<path style=" stroke:none;fill-rule:nonzero;fill:rgb(0%,0%,0%);fill-opacity:1;" d="M 145.421875 120 L 145.421875 100 L 165.421875 100 L 165.421875 120 Z M 145.421875 120 "/>
<path style=" stroke:none;fill-rule:nonzero;fill:rgb(0%,0%,0%);fill-opacity:1;" d="M 145.421875 80 L 145.421875 60 L 165.421875 60 L 165.421875 80 Z M 145.421875 80 "/>
<path style=" stroke:none;fill-rule:nonzero;fill:rgb(0%,0%,0%);fill-opacity:1;" d="M 145.421875 40 L 145.421875 20 L 165.421875 20 L 165.421875 40 Z M 145.421875 40 "/>
<path style=" stroke:none;fill-rule:nonzero;fill:rgb(0%,0%,0%);fill-opacity:1;" d="M 181.421875 200 L 181.421875 180 L 201.421875 180 L 201.421875 200 Z M 181.421875 200 "/>
<path style=" stroke:none;fill-rule:nonzero;fill:rgb(0%,0%,0%);fill-opacity:1;" d="M 181.421875 160 L 181.421875 140 L 201.421875 140 L 201.421875 160 Z M 181.421875 160 "/>
<path style=" stroke:none;fill-rule:nonzero;fill:rgb(0%,0%,0%);fill-opacity:1;" d="M 181.421875 120 L 181.421875 100 L 201.421875 100 L 201.421875 120 Z M 181.421875 120 "/>
<path style=" stroke:none;fill-rule:nonzero;fill:rgb(0%,0%,0%);fill-opacity:1;" d="M 181.421875 80 L 181.421875 60 L 201.421875 60 L 201.421875 80 Z M 181.421875 80 "/>
<path style=" stroke:none;fill-rule:nonzero;fill:rgb(0%,0%,0%);fill-opacity:1;" d="M 181.421875 40 L 181.421875 20 L 201.421875 20 L 201.421875 40 Z M 181.421875 40 "/>
<path style=" stroke:none;fill-rule:nonzero;fill:rgb(0%,0%,0%);fill-opacity:1;" d="M 217.421875 200 L 217.421875 180 L 237.421875 180 L 237.421875 200 Z M 217.421875 200 "/>
<path style=" stroke:none;fill-rule:nonzero;fill:rgb(0%,0%,0%);fill-opacity:1;" d="M 217.421875 160 L 217.421875 140 L 237.421875 140 L 237.421875 160 Z M 217.421875 160 "/>
<path style=" stroke:none;fill-rule:nonzero;fill:rgb(0%,0%,0%);fill-opacity:1;" d="M 217.421875 120 L 217.421875 100 L 237.421875 100 L 237.421875 120 Z M 217.421875 120 "/>
<path style=" stroke:none;fill-rule:nonzero;fill:rgb(0%,0%,0%);fill-opacity:1;" d="M 217.421875 80 L 217.421875 60 L 237.421875 60 L 237.421875 80 Z M 217.421875 80 "/>
<path style=" stroke:none;fill-rule:nonzero;fill:rgb(0%,0%,0%);fill-opacity:1;" d="M 217.421875 40 L 217.421875 20 L 237.421875 20 L 237.421875 40 Z M 217.421875 40 "/>
<path style=" stroke:none;fill-rule:nonzero;fill:rgb(0%,0%,0%);fill-opacity:1;" d="M 253.421875 200 L 253.421875 180 L 273.421875 180 L 273.421875 200 Z M 253.421875 200 "/>
<path style=" stroke:none;fill-rule:nonzero;fill:rgb(0%,0%,0%);fill-opacity:1;" d="M 253.421875 160 L 253.421875 140 L 273.421875 140 L 273.421875 160 Z M 253.421875 160 "/>
<path style=" stroke:none;fill-rule:nonzero;fill:rgb(0%,0%,0%);fill-opacity:1;" d="M 253.421875 120 L 253.421875 100 L 273.421875 100 L 273.421875 120 Z M 253.421875 120 "/>
<path style=" stroke:none;fill-rule:nonzero;fill:rgb(0%,0%,0%);fill-opacity:1;" d="M 253.421875 80 L 253.421875 60 L 273.421875 60 L 273.421875 80 Z M 253.421875 80 "/>
<path style=" stroke:none;fill-rule:nonzero;fill:rgb(0%,0%,0%);fill-opacity:1;" d="M 253.421875 40 L 253.421875 20 L 273.421875 20 L 273.421875 40 Z M 253.421875 40 "/>
<path style=" stroke:none;fill-rule:nonzero;fill:rgb(0%,0%,0%);fill-opacity:1;" d="M 289.421875 200 L 289.421875 180 L 309.421875 180 L 309.421875 200 Z M 289.421875 200 "/>
<path style=" stroke:none;fill-rule:nonzero;fill:rgb(0%,0%,0%);fill-opacity:1;" d="M 289.421875 160 L 289.421875 140 L 309.421875 140 L 309.421875 160 Z M 289.421875 160 "/>
<path style=" stroke:none;fill-rule:nonzero;fill:rgb(0%,0%,0%);fill-opacity:1;" d="M 289.421875 120 L 289.421875 100 L 309.421875 100 L 309.421875 120 Z M 289.421875 120 "/>
<path style=" stroke:none;fill-rule:nonzero;fill:rgb(0%,0%,0%);fill-opacity:1;" d="M 289.421875 80 L 289.421875 60 L 309.421875 60 L 309.421875 80 Z M 289.421875 80 "/>
<path style=" stroke:none;fill-rule:nonzero;fill:rgb(0%,0%,0%);fill-opacity:1;" d="M 289.421875 40 L 289.421875 20 L 309.421875 20 L 309.421875 40 Z M 289.421875 40 "/>
<path style=" stroke:none;fill-rule:nonzero;fill:rgb(0%,0%,0%);fill-opacity:1;" d="M 325.421875 200 L 325.421875 180 L 345.421875 180 L 345.421875 200 Z M 325.421875 200 "/>
<path style=" stroke:none;fill-rule:nonzero;fill:rgb(0%,0%,0%);fill-opacity:1;" d="M 325.421875 160 L 325.421875 140 L 345.421875 140 L 345.421875 160 Z M 325.421875 160 "/>
<path style=" stroke:none;fill-rule:nonzero;fill:rgb(0%,0%,0%);fill-opacity:1;" d="M 325.421875 120 L 325.421875 100 L 345.421875 100 L 345.421875 120 Z M 325.421875 120 "/>
<path style=" stroke:none;fill-rule:nonzero;fill:rgb(0%,0%,0%);fill-opacity:1;" d="M 325.421875 80 L 325.421875 60 L 345.421875 60 L 345.421875 80 Z M 325.421875 80 "/>
<path style=" stroke:none;fill-rule:nonzero;fill:rgb(0%,0%,0%);fill-opacity:1;" d="M 325.421875 40 L 325.421875 20 L 345.421875 20 L 345.421875 40 Z M 325.421875 40 "/>
<path style=" stroke:none;fill-rule:nonzero;fill:rgb(0%,0%,0%);fill-opacity:1;" d="M 361.421875 200 L 361.421875 180 L 381.421875 180 L 381.421875 200 Z M 361.421875 200 "/>
<path style=" stroke:none;fill-rule:nonzero;fill:rgb(0%,0%,0%);fill-opacity:1;" d="M 361.421875 160 L 361.421875 140 L 381.421875 140 L 381.421875 160 Z M 361.421875 160 "/>
<path style=" stroke:none;fill-rule:nonzero;fill:rgb(0%,0%,0%);fill-opacity:1;" d="M 361.421875 120 L 361.421875 100 L 381.421875 100 L 381.421875 120 Z M 361.421875 120 "/>
<path style=" stroke:none;fill-rule:nonzero;fill:rgb(0%,0%,0%);fill-opacity:1;" d="M 361.421875 80 L 361.421875 60 L 381.421875 60 L 381.421875 80 Z M 361.421875 80 "/>
<path style=" stroke:none;fill-rule:nonzero;fill:rgb(0%,0%,0%);fill-opacity:1;" d="M 361.421875 40 L 361.421875 20 L 381.421875 20 L 381.421875 40 Z M 361.421875 40 "/>
<path style="fill:none;stroke-width:1;stroke-linecap:square;stroke-linejoin:miter;stroke:rgb(100%,0%,0%);stroke-opacity:1;stroke-miterlimit:3.25;" d="M 0 220 L 400 220 "/>
<path style="fill:none;stroke-width:1;stroke-linecap:square;stroke-linejoin:miter;stroke:rgb(100%,0%,0%);stroke-opacity:1;stroke-miterlimit:3.25;" d="M 0 200 L 400 200 "/>
<path style="fill:none;stroke-width:1;stroke-linecap:square;stroke-linejoin:miter;stroke:rgb(100%,0%,0%);stroke-opacity:1;stroke-miterlimit:3.25;" d="M 0 180 L 400 180 "/>
<path style="fill:none;stroke-width:1;stroke-linecap:square;stroke-linejoin:miter;stroke:rgb(100%,0%,0%);stroke-opacity:1;stroke-miterlimit:3.25;" d="M 0 160 L 400 160 "/>
<path style="fill:none;stroke-width:1;stroke-linecap:square;stroke-linejoin:miter;stroke:rgb(100%,0%,0%);stroke-opacity:1;stroke-miterlimit:3.25;" d="M 0 140 L 400 140 "/>
<path style="fill:none;stroke-width:1;stroke-linecap:square;stroke-linejoin:miter;stroke:rgb(100%,0%,0%);stroke-opacity:1;stroke-miterlimit:3.25;" d="M 0 120 L 400 120 "/>
<path style="fill:none;stroke-width:1;stroke-linecap:square;stroke-linejoin:miter;stroke:rgb(100%,0%,0%);stroke-opacity:1;stroke-miterlimit:3.25;" d="M 0 100 L 400 100 "/>
<path style="fill:none;stroke-width:1;stroke-linecap:square;stroke-linejoin:miter;stroke:rgb(100%,0%,0%);stroke-opacity:1;stroke-miterlimit:3.25;" d="M 0 80 L 400 80 "/>
<path style="fill:none;stroke-width:1;stroke-linecap:square;stroke-linejoin:miter;stroke:rgb(100%,0%,0%);stroke-opacity:1;stroke-miterlimit:3.25;" d="M 0 60 L 400 60 "/>
<path style="fill:none;stroke-width:1;stroke-linecap:square;stroke-linejoin:miter;stroke:rgb(100%,0%,0%);stroke-opacity:1;stroke-miterlimit:3.25;" d="M 0 40 L 400 40 "/>
<path style="fill:none;stroke-width:1;stroke-linecap:square;stroke-linejoin:miter;stroke:rgb(100%,0%,0%);stroke-opacity:1;stroke-miterlimit:3.25;" d="M 0 20 L 400 20 "/>
</g>
</svg>
