<?xml version="1.0" encoding="UTF-8"?>
<svg xmlns="http://www.w3.org/2000/svg" xmlns:xlink="http://www.w3.org/1999/xlink" width="400pt" height="220pt" viewBox="0 0 400 220" version="1.1">
<g id="surface901">
<rect x="0" y="0" width="400" height="220" style="fill:rgb(0%,40%,100%);fill-opacity:0.2;stroke:none;"/>
<path style=" stroke:none;fill-rule:nonzero;fill:rgb(0%,0%,0%);fill-opacity:1;" d="M -18.59375 220 L -18.59375 200 L 1.40625 200 L 1.40625 220 Z M -18.59375 220 "/>
<path style=" stroke:none;fill-rule:nonzero;fill:rgb(0%,0%,0%);fill-opacity:1;" d="M -18.59375 180 L -18.59375 160 L 1.40625 160 L 1.40625 180 Z M -18.59375 180 "/>
<path style=" stroke:none;fill-rule:nonzero;fill:rgb(0%,0%,0%);fill-opacity:1;" d="M -18.59375 140 L -18.59375 120 L 1.40625 120 L 1.40625 140 Z M -18.59375 140 "/>
<path style=" stroke:none;fill-rule:nonzero;fill:rgb(0%,0%,0%);fill-opacity:1;" d="M -18.59375 100 L -18.59375 80 L 1.40625 80 L 1.40625 100 Z M -18.59375 100 "/>
<path style=" stroke:none;fill-rule:nonzero;fill:rgb(0%,0%,0%);fill-opacity:1;" d="M -18.59375 60 L -18.59375 40 L 1.40625 40 L 1.40625 60 Z M -18.59375 60 "/>
<path style=" stroke:none;fill-rule:nonzero;fill:rgb(0%,0%,0%);fill-opacity:1;" d="M -18.59375 20 L -18.59375 0 L 1.40625 0 L 1.40625 20 Z M -18.59375 20 "/>
<path style=" stroke:none;fill-rule:nonzero;fill:rgb(0%,0%,0%);fill-opacity:1;" d="M 17.40625 220 L 17.40625 200 L 37.40625 200 L 37.40625 220 Z M 17.40625 220 "/>
<path style=" stroke:none;fill-rule:nonzero;fill:rgb(0%,0%,0%);fill-opacity:1;" d="M 17.40625 180 L 17.40625 160 L 37.40625 160 L 37.40625 180 Z M 17.40625 180 "/>
<path style=" stroke:none;fill-rule:nonzero;fill:rgb(0%,0%,0%);fill-opacity:1;" d="M 17.40625 140 L 17.40625 120 L 37.40625 120 L 37.40625 140 Z M 17.40625 140 "/>
<path style=" stroke:none;fill-rule:nonzero;fill:rgb(0%,0%,0%);fill-opacity:1;" d="M 17.40625 100 L 17.40625 80 L 37.40625 80 L 37.40625 100 Z M 17.40625 100 "/>
<path style=" stroke:none;fill-rule:nonzero;fill:rgb(0%,0%,0%);fill-opacity:1;" d="M 17.40625 60 L 17.40625 40 L 37.40625 40 L 37.40625 60 Z M 17.40625 60 "/>
<path style=" stroke:none;fill-rule:nonzero;fill:rgb(0%,0%,0%);fill-opacity:1;" d="M 17.40625 20 L 17.40625 0 L 37.40625 0 L 37.40625 20 Z M 17.40625 20 "/>
<path style=" stroke:none;fill-rule:nonzero;fill:rgb(0%,0%,0%);fill-opacity:1;" d="M 53.40625 220 L 53.40625 200 L 73.40625 200 L 73.40625 220 Z M 53.40625 220 "/>
<path style=" stroke:none;fill-rule:nonzero;fill:rgb(0%,0%,0%);fill-opacity:1;" d="M 53.40625 180 L 53.40625 160 L 73.40625 160 L 73.40625 180 Z M 53.40625 180 "/>
<path style=" stroke:none;fill-rule:nonzero;fill:rgb(0%,0%,0%);fill-opacity:1;" d="M 53.40625 140 L 53.40625 120 L 73.40625 120 L 73.40625 140 Z M 53.40625 140 "/>
<path style=" stroke:none;fill-rule:nonzero;fill:rgb(0%,0%,0%);fill-opacity:1;" d="M 53.40625 100 L 53.40625 80 L 73.40625 80 L 73.40625 100 Z M 53.40625 100 "/>
<path style=" stroke:none;fill-rule:nonzero;fill:rgb(0%,0%,0%);fill-opacity:1;" d="M 53.40625 60 L 53.40625 40 L 73.40625 40 L 73.40625 60 Z M 53.40625 60 "/>
<path style=" stroke:none;fill-rule:nonzero;fill:rgb(0%,0%,0%);fill-opacity:1;" d="M 53.40625 20 L 53.40625 0 L 73.40625 0 L 73.40625 20 Z M 53.40625 20 "/>
<path style=" stroke:none;fill-rule:nonzero;fill:rgb(0%,0%,0%);fill-opacity:1;" d="M 89.40625 220 L 89.40625 200 L 109.40625 200 L 109.40625 220 Z M 89.40625 220 "/>
<path style=" stroke:none;fill-rule:nonzero;fill:rgb(0%,0%,0%);fill-opacity:1;" d="M 89.40625 180 L 89.40625 160 L 109.40625 160 L 109.40625 180 Z M 89.40625 180 "/>
<path style=" stroke:none;fill-rule:nonzero;fill:rgb(0%,0%,0%);fill-opacity:1;" d="M 89.40625 140 L 89.40625 120 L 109.40625 120 L 109.40625 140 Z M 89.40625 140 "/>
<path style=" stroke:none;fill-rule:nonzero;fill:rgb(0%,0%,0%);fill-opacity:1;" d="M 89.40625 100 L 89.40625 80 L 109.40625 80 L 109.40625 100 Z M 89.40625 100 "/>
<path style=" stroke:none;fill-rule:nonzero;fill:rgb(0%,0%,0%);fill-opacity:1;" d="M 89.40625 60 L 89.40625 40 L 109.40625 40 L 109.40625 60 Z M 89.40625 60 "/>
<path style=" stroke:none;fill-rule:nonzero;fill:rgb(0%,0%,0%);fill-opacity:1;" d="M 89.40625 20 L 89.40625 0 L 109.40625 0 L 109.40625 20 Z M 89.40625 20 "/>
<path style=" stroke:none;fill-rule:nonzero;fill:rgb(0%,0%,0%);fill-opacity:1;" d="M 125.40625 220 L 125.40625 200 L 145.40625 200 L 145.40625 220 Z M 125.40625 220 "/>
<path style=" stroke:none;fill-rule:nonzero;fill:rgb(0%,0%,0%);fill-opacity:1;" d="M 125.40625 180 L 125.40625 160 L 145.40625 160 L 145.40625 180 Z M 125.40625 180 "/>
<path style=" stroke:none;fill-rule:nonzero;fill:rgb(0%,0%,0%);fill-opacity:1;" d="M 125.40625 140 L 125.40625 120 L 145.40625 120 L 145.40625 140 Z M 125.40625 140 "/>
<path style=" stroke:none;fill-rule:nonzero;fill:rgb(0%,0%,0%);fill-opacity:1;" d="M 125.40625 100 L 125.40625 80 L 145.40625 80 L 145.40625 100 Z M 125.40625 100 "/>
<path style=" stroke:none;fill-rule:nonzero;fill:rgb(0%,0%,0%);fill-opacity:1;" d="M 125.40625 60 L 125.40625 40 L 145.40625 40 L 145.40625 60 Z M 125.40625 60 "/>
<path style=" stroke:none;fill-rule:nonzero;fill:rgb(0%,0%,0%);fill-opacity:1;" d="M 125.40625 20 L 125.40625 0 L 145.40625 0 L 145.40625 20 Z M 125.40625 20 "/>
<path style=" stroke:none;fill-rule:nonzero;fill:rgb(0%,0%,0%);fill-opacity:1;" d="M 161.40625 220 L 161.40625 200 L 181.40625 200 L 181.40625 220 Z M 161.40625 220 "/>
<path style=" stroke:none;fill-rule:nonzero;fill:rgb(0%,0%,0%);fill-opacity:1;" d="M 161.40625 180 L 161.40625 160 L 181.40625 160 L 181.40625 180 Z M 161.40625 180 "/>
<path style=" stroke:none;fill-rule:nonzero;fill:rgb(0%,0%,0%);fill-opacity:1;" d="M 161.40625 140 L 161.40625 120 L 181.40625 120 L 181.40625 140 Z M 161.40625 140 "/>
<path style=" stroke:none;fill-rule:nonzero;fill:rgb(0%,0%,0%);fill-opacity:1;" d="M 161.40625 100 L 161.40625 80 L 181.40625 80 L 181.40625 100 Z M 161.40625 100 "/>
<path style=" stroke:none;fill-rule:nonzero;fill:rgb(0%,0%,0%);fill-opacity:1;" d="M 161.40625 60 L 161.40625 40 L 181.40625 40 L 181.40625 60 Z M 161.40625 60 "/>
<path style=" stroke:none;fill-rule:nonzero;fill:rgb(0%,0%,0%);fill-opacity:1;" d="M 161.40625 20 L 161.40625 0 L 181.40625 0 L 181.40625 20 Z M 161.40625 20 "/>
<path style=" stroke:none;fill-rule:nonzero;fill:rgb(0%,0%,0%);fill-opacity:1;" d="M 197.40625 220 L 197.40625 200 L 217.40625 200 L 217.40625 220 Z M 197.40625 220 "/>
<path style=" stroke:none;fill-rule:nonzero;fill:rgb(0%,0%,0%);fill-opacity:1;" d="M 197.40625 180 L 197.40625 160 L 217.40625 160 L 217.40625 180 Z M 197.40625 180 "/>
<path style=" stroke:none;fill-rule:nonzero;fill:rgb(0%,0%,0%);fill-opacity:1;" d="M 197.40625 140 L 197.40625 120 L 217.40625 120 L 217.40625 140 Z M 197.40625 140 "/>
<path style=" stroke:none;fill-rule:nonzero;fill:rgb(0%,0%,0%);fill-opacity:1;" d="M 197.40625 100 L 197.40625 80 L 217.40625 80 L 217.40625 100 Z M 197.40625 100 "/>
<path style=" stroke:none;fill-rule:nonzero;fill:rgb(0%,0%,0%);fill-opacity:1;" d="M 197.40625 60 L 197.40625 40 L 217.40625 40 L 217.40625 60 Z M 197.40625 60 "/>
<path style=" stroke:none;fill-rule:nonzero;fill:rgb(0%,0%,0%);fill-opacity:1;" d="M 197.40625 20 L 197.40625 0 L 217.40625 0 L 217.40625 20 Z M 197.40625 20 "/>
<path style=" stroke:none;fill-rule:nonzero;fill:rgb(0%,0%,0%);fill-opacity:1;" d="M 233.40625 220 L 233.40625 200 L 253.40625 200 L 253.40625 220 Z M 233.40625 220 "/>
<path style=" stroke:none;fill-rule:nonzero;fill:rgb(0%,0%,0%);fill-opacity:1;" d="M 233.40625 180 L 233.40625 160 L 253.40625 160 L 253.40625 180 Z M 233.40625 180 "/>
<path style=" stroke:none;fill-rule:nonzero;fill:rgb(0%,0%,0%);fill-opacity:1;" d="M 233.40625 140 L 233.40625 120 L 253.40625 120 L 253.40625 140 Z M 233.40625 140 "/>
<path style=" stroke:none;fill-rule:nonzero;fill:rgb(0%,0%,0%);fill-opacity:1;" d="M 233.40625 100 L 233.40625 80 L 253.40625 80 L 253.40625 100 Z M 233.40625 100 "/>
<path style=" stroke:none;fill-rule:nonzero;fill:rgb(0%,0%,0%);fill-opacity:1;" d="M 233.40625 60 L 233.40625 40 L 253.40625 40 L 253.40625 60 Z M 233.40625 60 "/>
<path style=" stroke:none;fill-rule:nonzero;fill:rgb(0%,0%,0%);fill-opacity:1;" d="M 233.40625 20 L 233.40625 0 L 253.40625 0 L 253.40625 20 Z M 233.40625 20 "/>
<path style=" stroke:none;fill-rule:nonzero;fill:rgb(0%,0%,0%);fill-opacity:1;" d="M 269.40625 220 L 269.40625 200 L 289.40625 200 L 289.40625 220 Z M 269.40625 220 "/>
<path style=" stroke:none;fill-rule:nonzero;fill:rgb(0%,0%,0%);fill-opacity:1;" d="M 269.40625 180 L 269.40625 160 L 289.40625 160 L 289.40625 180 Z M 269.40625 180 "/>
<path style=" stroke:none;fill-rule:nonzero;fill:rgb(0%,0%,0%);fill-opacity:1;" d="M 269.40625 140 L 269.40625 120 L 289.40625 120 L 289.40625 140 Z M 269.40625 140 "/>
<path style=" stroke:none;fill-rule:nonzero;fill:rgb(0%,0%,0%);fill-opacity:1;" d="M 269.40625 100 L 269.40625 80 L 289.40625 80 L 289.40625 100 Z M 269.40625 100 "/>
<path style=" stroke:none;fill-rule:nonzero;fill:rgb(0%,0%,0%);fill-opacity:1;" d="M 269.40625 60 L 269.40625 40 L 289.40625 40 L 289.40625 60 Z M 269.40625 60 "/>
<path style=" stroke:none;fill-rule:nonzero;fill:rgb(0%,0%,0%);fill-opacity:1;" d="M 269.40625 20 L 269.40625 0 L 289.40625 0 L 289.40625 20 Z M 269.40625 20 "/>
<path style=" stroke:none;fill-rule:nonzero;fill:rgb(0%,0%,0%);fill-opacity:1;" d="M 305.40625 220 L 305.40625 200 L 325.40625 200 L 325.40625 220 Z M 305.40625 220 "/>
<path style=" stroke:none;fill-rule:nonzero;fill:rgb(0%,0%,0%);fill-opacity:1;" d="M 305.40625 180 L 305.40625 160 L 325.40625 160 L 325.40625 180 Z M 305.40625 180 "/>
<path style=" stroke:none;fill-rule:nonzero;fill:rgb(0%,0%,0%);fill-opacity:1;" d="M 305.40625 140 L 305.40625 120 L 325.40625 120 L 325.40625 140 Z M 305.40625 140 "/>
<path style=" stroke:none;fill-rule:nonzero;fill:rgb(0%,0%,0%);fill-opacity:1;" d="M 305.40625 100 L 305.40625 80 L 325.40625 80 L 325.40625 100 Z M 305.40625 100 "/>
<path style=" stroke:none;fill-rule:nonzero;fill:rgb(0%,0%,0%);fill-opacity:1;" d="M 305.40625 60 L 305.40625 40 L 325.40625 40 L 325.40625 60 Z M 305.40625 60 "/>
<path style=" stroke:none;fill-rule:nonzero;fill:rgb(0%,0%,0%);fill-opacity:1;" d="M 305.40625 20 L 305.40625 0 L 325.40625 0 L 325.40625 20 Z M 305.40625 20 "/>
<path style=" stroke:none;fill-rule:nonzero;fill:rgb(0%,0%,0%);fill-opacity:1;" d="M 341.40625 220 L 341.40625 200 L 361.40625 200 L 361.40625 220 Z M 341.40625 220 "/>
<path style=" stroke:none;fill-rule:nonzero;fill:rgb(0%,0%,0%);fill-opacity:1;" d="M 341.40625 180 L 341.40625 160 L 361.40625 160 L 361.40625 180 Z M 341.40625 180 "/>
<path style=" stroke:none;fill-rule:nonzero;fill:rgb(0%,0%,0%);fill-opacity:1;" d="M 341.40625 140 L 341.40625 120 L 361.40625 120 L 361.40625 140 Z M 341.40625 140 "/>
<path style=" stroke:none;fill-rule:nonzero;fill:rgb(0%,0%,0%);fill-opacity:1;" d="M 341.40625 100 L 341.40625 80 L 361.40625 80 L 361.40625 100 Z M 341.40625 100 "/>
<path style=" stroke:none;fill-rule:nonzero;fill:rgb(0%,0%,0%);fill-opacity:1;" d="M 341.40625 60 L 341.40625 40 L 361.40625 40 L 361.40625 60 Z M 341.40625 60 "/>
<path style=" stroke:none;fill-rule:nonzero;fill:rgb(0%,0%,0%);fill-opacity:1;" d="M 341.40625 20 L 341.40625 0 L 361.40625 0 L 361.40625 20 Z M 341.40625 20 "/>
<path style=" stroke:none;fill-rule:nonzero;fill:rgb(0%,0%,0%);fill-opacity:1;" d="M 377.40625 220 L 377.40625 200 L 397.40625 200 L 397.40625 220 Z M 377.40625 220 "/>
<path style=" stroke:none;fill-rule:nonzero;fill:rgb(0%,0%,0%);fill-opacity:1;" d="M 377.40625 180 L 377.40625 160 L 397.40625 160 L 397.40625 180 Z M 377.40625 180 "/>
<path style=" stroke:none;fill-rule:nonzero;fill:rgb(0%,0%,0%);fill-opacity:1;" d="M 377.40625 140 L 377.40625 120 L 397.40625 120 L 397.40625 140 Z M 377.40625 140 "/>
<path style=" stroke:none;fill-rule:nonzero;fill:rgb(0%,0%,0%);fill-opacity:1;" d="M 377.40625 100 L 377.40625 80 L 397.40625 80 L 397.40625 100 Z M 377.40625 100 "/>
<path style=" stroke:none;fill-rule:nonzero;fill:rgb(0%,0%,0%);fill-opacity:1;" d="M 377.40625 60 L 377.40625 40 L 397.40625 40 L 397.40625 60 Z M 377.40625 60 "/>
<path style=" stroke:none;fill-rule:nonzero;fill:rgb(0%,0%,0%);fill-opacity:1;" d="M 377.40625 20 L 377.40625 0 L 397.40625 0 L 397.40625 20 Z M 377.40625 20 "/>
<path style=" stroke:none;fill-rule:nonzero;fill:rgb(0%,0%,0%);fill-opacity:1;" d="M 8.636719 200 L 8.636719 180 L 28.636719 180 L 28.636719 200 Z M 8.636719 200 "/>
<path style=" stroke:none;fill-rule:nonzero;fill:rgb(0%,0%,0%);fill-opacity:1;" d="M 8.636719 160 L 8.636719 140 L 28.636719 140 L 28.636719 160 Z M 8.636719 160 "/>
<path style=" stroke:none;fill-rule:nonzero;fill:rgb(0%,0%,0%);fill-opacity:1;" d="M 8.636719 120 L 8.636719 100 L 28.636719 100 L 28.636719 120 Z M 8.636719 120 "/>
<path style=" stroke:none;fill-rule:nonzero;fill:rgb(0%,0%,0%);fill-opacity:1;" d="M 8.636719 80 L 8.636719 60 L 28.636719 60 L 28.636719 80 Z M 8.636719 80 "/>
<path style=" stroke:none;fill-rule:nonzero;fill:rgb(0%,0%,0%);fill-opacity:1;" d="M 8.636719 40 L 8.636719 20 L 28.636719 20 L 28.636719 40 Z M 8.636719 40 "/>
<path style=" stroke:none;fill-rule:nonzero;fill:rgb(0%,0%,0%);fill-opacity:1;" d="M 44.636719 200 L 44.636719 180 L 64.636719 180 L 64.636719 200 Z M 44.636719 200 "/>
<path style=" stroke:none;fill-rule:nonzero;fill:rgb(0%,0%,0%);fill-opacity:1;" d="M 44.636719 160 L 44.636719 140 L 64.636719 140 L 64.636719 160 Z M 44.636719 160 "/>
<path style=" stroke:none;fill-rule:nonzero;fill:rgb(0%,0%,0%);fill-opacity:1;" d="M 44.636719 120 L 44.636719 100 L 64.636719 100 L 64.636719 120 Z M 44.636719 120 "/>
<path style=" stroke:none;fill-rule:nonzero;fill:rgb(0%,0%,0%);fill-opacity:1;" d="M 44.636719 80 L 44.636719 60 L 64.636719 60 L 64.636719 80 Z M 44.636719 80 "/>
<path style=" stroke:none;fill-rule:nonzero;fill:rgb(0%,0%,0%);fill-opacity:1;" d="M 44.636719 40 L 44.636719 20 L 64.636719 20 L 64.636719 40 Z M 44.636719 40 "/>
<path style=" stroke:none;fill-rule:nonzero;fill:rgb(0%,0%,0%);fill-opacity:1;" d="M 80.636719 200 L 80.636719 180 L 100.636719 180 L 100.636719 200 Z M 80.636719 200 "/>
<path style=" stroke:none;fill-rule:nonzero;fill:rgb(0%,0%,0%);fill-opacity:1;" d="M 80.636719 160 L 80.636719 140 L 100.636719 140 L 100.636719 160 Z M 80.636719 160 "/>
<path style=" stroke:none;fill-rule:nonzero;fill:rgb(0%,0%,0%);fill-opacity:1;" d="M 80.636719 120 L 80.636719 100 L 100.636719 100 L 100.636719 120 Z M 80.636719 120 "/>
<path style=" stroke:none;fill-rule:nonzero;fill:rgb(0%,0%,0%);fill-opacity:1;" d="M 80.636719 80 L 80.636719 60 L 100.636719 60 L 100.636719 80 Z M 80.636719 80 "/>
<path style=" stroke:none;fill-rule:nonzero;fill:rgb(0%,0%,0%);fill-opacity:1;" d="M 80.636719 40 L 80.636719 20 L 100.636719 20 L 100.636719 40 Z M 80.636719 40 "/>
<path style=" stroke:none;fill-rule:nonzero;fill:rgb(0%,0%,0%);fill-opacity:1;" d="M 116.636719 200 L 116.636719 180 L 136.636719 180 L 136.636719 200 Z M 116.636719 200 "/>
<path style=" stroke:none;fill-rule:nonzero;fill:rgb(0%,0%,0%);fill-opacity:1;" d="M 116.636719 160 L 116.636719 140 L 136.636719 140 L 136.636719 160 Z M 116.636719 160 "/>
<path style=" stroke:none;fill-rule:nonzero;fill:rgb(0%,0%,0%);fill-opacity:1;" d="M 116.636719 120 L 116.636719 100 L 136.636719 100 L 136.636719 120 Z M 116.636719 120 "/>
<path style=" stroke:none;fill-rule:nonzero;fill:rgb(0%,0%,0%);fill-opacity:1;" d="M 116.636719 80 L 116.636719 60 L 136.636719 60 L 136.636719 80 Z M 116.636719 80 "/>
<path style=" stroke:none;fill-rule:nonzero;fill:rgb(0%,0%,0%);fill-opacity:1;" d="M 116.636719 40 L 116.636719 20 L 136.636719 20 L 136.636719 40 Z M 116.636719 40 "/>
<path style=" stroke:none;fill-rule:nonzero;fill:rgb(0%,0%,0%);fill-opacity:1;" d="M 152.636719 200 L 152.636719 180 L 172.636719 180 L 172.636719 200 Z M 152.636719 200 "/>
<path style=" stroke:none;fill-rule:nonzero;fill:rgb(0%,0%,0%);fill-opacity:1;" d="M 152.636719 160 L 152.636719 140 L 172.636719 140 L 172.636719 160 Z M 152.636719 160 "/>
<path style=" stroke:none;fill-rule:nonzero;fill:rgb(0%,0%,0%);fill-opacity:1;" d="M 152.636719 120 L 152.636719 100 L 172.636719 100 L 172.636719 120 Z M 152.636719 120 "/>
<path style=" stroke:none;fill-rule:nonzero;fill:rgb(0%,0%,0%);fill-opacity:1;" d="M 152.636719 80 L 152.636719 60 L 172.636719 60 L 172.636719 80 Z M 152.636719 80 "/>
<path style=" stroke:none;fill-rule:nonzero;fill:rgb(0%,0%,0%);fill-opacity:1;" d="M 152.636719 40 L 152.636719 20 L 172.636719 20 L 172.636719 40 Z M 152.636719 40 "/>
<path style=" stroke:none;fill-rule:nonzero;fill:rgb(0%,0%,0%);fill-opacity:1;" d="M 188.636719 200 L 188.636719 180 L 208.636719 180 L 208.636719 200 Z M 188.636719 200 "/>
<path style=" stroke:none;fill-rule:nonzero;fill:rgb(0%,0%,0%);fill-opacity:1;" d="M 188.636719 160 L 188.636719 140 L 208.636719 140 L 208.636719 160 Z M 188.636719 160 "/>
<path style=" stroke:none;fill-rule:nonzero;fill:rgb(0%,0%,0%);fill-opacity:1;" d="M 188.636719 120 L 188.636719 100 L 208.636719 100 L 208.636719 120 Z M 188.636719 120 "/>
<path style=" stroke:none;fill-rule:nonzero;fill:rgb(0%,0%,0%);fill-opacity:1;" d="M 188.636719 80 L 188.636719 60 L 208.636719 60 L 208.636719 80 Z M 188.636719 80 "/>
<path style=" stroke:none;fill-rule:nonzero;fill:rgb(0%,0%,0%);fill-opacity:1;" d="M 188.636719 40 L 188.636719 20 L 208.636719 20 L 208.636719 40 Z M 188.636719 40 "/>
<path style=" stroke:none;fill-rule:nonzero;fill:rgb(0%,0%,0%);fill-opacity:1;" d="M 224.636719 200 L 224.636719 180 L 244.636719 180 L 244.636719 200 Z M 224.636719 200 "/>
<path style=" stroke:none;fill-rule:nonzero;fill:rgb(0%,0%,0%);fill-opacity:1;" d="M 224.636719 160 L 224.636719 140 L 244.636719 140 L 244.636719 160 Z M 224.636719 160 "/>
<path style=" stroke:none;fill-rule:nonzero;fill:rgb(0%,0%,0%);fill-opacity:1;" d="M 224.636719 120 L 224.636719 100 L 244.636719 100 L 244.636719 120 Z M 224.636719 120 "/>
<path style=" stroke:none;fill-rule:nonzero;fill:rgb(0%,0%,0%);fill-opacity:1;" d="M 224.636719 80 L 224.636719 60 L 244.636719 60 L 244.636719 80 Z M 224.636719 80 "/>
<path style=" stroke:none;fill-rule:nonzero;fill:rgb(0%,0%,0%);fill-opacity:1;" d="M 224.636719 40 L 224.636719 20 L 244.636719 20 L 244.636719 40 Z M 224.636719 40 "/>
<path style=" stroke:none;fill-rule:nonzero;fill:rgb(0%,0%,0%);fill-opacity:1;" d="M 260.636719 200 L 260.636719 180 L 280.636719 180 L 280.636719 200 Z M 260.636719 200 "/>
<path style=" stroke:none;fill-rule:nonzero;fill:rgb(0%,0%,0%);fill-opacity:1;" d="M 260.636719 160 L 260.636719 140 L 280.636719 140 L 280.636719 160 Z M 260.636719 160 "/>
<path style=" stroke:none;fill-rule:nonzero;fill:rgb(0%,0%,0%);fill-opacity:1;" d="M 260.636719 120 L 260.636719 100 L 280.636719 100 L 280.636719 120 Z M 260.636719 120 "/>
<path style=" stroke:none;fill-rule:nonzero;fill:rgb(0%,0%,0%);fill-opacity:1;" d="M 260.636719 80 L 260.636719 60 L 280.636719 60 L 280.636719 80 Z M 260.636719 80 "/>
<path style=" stroke:none;fill-rule:nonzero;fill:rgb(0%,0%,0%);fill-opacity:1;" d="M 260.636719 40 L 260.636719 20 L 280.636719 20 L 280.636719 40 Z M 260.636719 40 "/>
<path style=" stroke:none;fill-rule:nonzero;fill:rgb(0%,0%,0%);fill-opacity:1;" d="M 296.636719 200 L 296.636719 180 L 316.636719 180 L 316.636719 200 Z M 296.636719 200 "/>
<path style=" stroke:none;fill-rule:nonzero;fill:rgb(0%,0%,0%);fill-opacity:1;" d="M 296.636719 160 L 296.636719 140 L 316.636719 140 L 316.636719 160 Z M 296.636719 160 "/>
<path style=" stroke:none;fill-rule:nonzero;fill:rgb(0%,0%,0%);fill-opacity:1;" d="M 296.636719 120 L 296.636719 100 L 316.636719 100 L 316.636719 120 Z M 296.636719 120 "/>
<path style=" stroke:none;fill-rule:nonzero;fill:rgb(0%,0%,0%);fill-opacity:1;" d="M 296.636719 80 L 296.636719 60 L 316.636719 60 L 316.636719 80 Z M 296.636719 80 "/>
<path style=" stroke:none;fill-rule:nonzero;fill:rgb(0%,0%,0%);fill-opacity:1;" d="M 296.636719 40 L 296.636719 20 L 316.636719 20 L 316.636719 40 Z M 296.636719 40 "/>
<path style=" stroke:none;fill-rule:nonzero;fill:rgb(0%,0%,0%);fill-opacity:1;" d="M 332.636719 200 L 332.636719 180 L 352.636719 180 L 352.636719 200 Z M 332.636719 200 "/>
<path style=" stroke:none;fill-rule:nonzero;fill:rgb(0%,0%,0%);fill-opacity:1;" d="M 332.636719 160 L 332.636719 140 L 352.636719 140 L 352.636719 160 Z M 332.636719 160 "/>
<path style=" stroke:none;fill-rule:nonzero;fill:rgb(0%,0%,0%);fill-opacity:1;" d="M 332.636719 120 L 332.636719 100 L 352.636719 100 L 352.636719 120 Z M 332.636719 120 "/>
<path style=" stroke:none;fill-rule:nonzero;fill:rgb(0%,0%,0%);fill-opacity:1;" d="M 332.636719 80 L 332.636719 60 L 352.636719 60 L 352.636719 80 Z M 332.636719 80 "/>
<path style=" stroke:none;fill-rule:nonzero;fill:rgb(0%,0%,0%);fill-opacity:1;" d="M 332.636719 40 L 332.636719 20 L 352.636719 20 L 352.636719 40 Z M 332.636719 40 "/>
<path style=" stroke:none;fill-rule:nonzero;fill:rgb(0%,0%,0%);fill-opacity:1;" d="M 368.636719 200 L 368.636719 180 L 388.636719 180 L 388.636719 200 Z M 368.636719 200 "/>
<path style=" stroke:none;fill-rule:nonzero;fill:rgb(0%,0%,0%);fill-opacity:1;" d="M 368.636719 160 L 368.636719 140 L 388.636719 140 L 388.636719 160 Z M 368.636719 160 "/>
<path style=" stroke:none;fill-rule:nonzero;fill:rgb(0%,0%,0%);fill-opacity:1;" d="M 368.636719 120 L 368.636719 100 L 388.636719 100 L 388.636719 120 Z M 368.636719 120 "/>
<path style=" stroke:none;fill-rule:nonzero;fill:rgb(0%,0%,0%);fill-opacity:1;" d="M 368.636719 80 L 368.636719 60 L 388.636719 60 L 388.636719 80 Z M 368.636719 80 "/>
<path style=" stroke:none;fill-rule:nonzero;fill:rgb(0%,0%,0%);fill-opacity:1;" d="M 368.636719 40 L 368.636719 20 L 388.636719 20 L 388.636719 40 Z M 368.636719 40 "/>
<path style="fill:none;stroke-width:1;stroke-linecap:square;stroke-linejoin:miter;stroke:rgb(100%,0%,0%);stroke-opacity:1;stroke-miterlimit:3.25;" d="M 0 220 L 400 220 "/>
<path style="fill:none;stroke-width:1;stroke-linecap:square;stroke-linejoin:miter;stroke:rgb(100%,0%,0%);stroke-opacity:1;stroke-miterlimit:3.25;" d="M 0 200 L 400 200 "/>
<path style="fill:none;stroke-width:1;stroke-linecap:square;stroke-linejoin:miter;stroke:rgb(100%,0%,0%);stroke-opacity:1;stroke-miterlimit:3.25;" d="M 0 180 L 400 180 "/>
<path style="fill:none;stroke-width:1;stroke-linecap:square;stroke-linejoin:miter;stroke:rgb(100%,0%,0%);stroke-opacity:1;stroke-miterlimit:3.25;" d="M 0 160 L 400 160 "/>
<path style="fill:none;stroke-width:1;stroke-linecap:square;stroke-linejoin:miter;stroke:rgb(100%,0%,0%);stroke-opacity:1;stroke-miterlimit:3.25;" d="M 0 140 L 400 140 "/>
<path style="fill:none;stroke-width:1;stroke-linecap:square;stroke-linejoin:miter;stroke:rgb(100%,0%,0%);stroke-opacity:1;stroke-miterlimit:3.25;" d="M 0 120 L 400 120 "/>
<path style="fill:none;stroke-width:1;stroke-linecap:square;stroke-linejoin:miter;stroke:rgb(100%,0%,0%);stroke-opacity:1;stroke-miterlimit:3.25;" d="M 0 100 L 400 100 "/>
<path style="fill:none;stroke-width:1;stroke-linecap:square;stroke-linejoin:miter;stroke:rgb(100%,0%,0%);stroke-opacity:1;stroke-miterlimit:3.25;" d="M 0 80 L 400 80 "/>
<path style="fill:none;stroke-width:1;stroke-linecap:square;stroke-linejoin:miter;stroke:rgb(100%,0%,0%);stroke-opacity:1;stroke-miterlimit:3.25;" d="M 0 60 L 400 60 "/>
<path style="fill:none;stroke-width:1;stroke-linecap:square;stroke-linejoin:miter;stroke:rgb(100%,0%,0%);stroke-opacity:1;stroke-miterlimit:3.25;" d="M 0 40 L 400 40 "/>
<path style="fill:none;stroke-width:1;stroke-linecap:square;stroke-linejoin:miter;stroke:rgb(100%,0%,0%);stroke-opacity:1;stroke-miterlimit:3.25;" d="M 0 20 L 400 20 "/>
</g>
</svg>
