<?xml version="1.0" encoding="UTF-8"?>
<svg xmlns="http://www.w3.org/2000/svg" xmlns:xlink="http://www.w3.org/1999/xlink" width="400pt" height="220pt" viewBox="0 0 400 220" version="1.1">
<g id="surface536">
<rect x="0" y="0" width="400" height="220" style="fill:rgb(0%,40%,100%);fill-opacity:0.2;stroke:none;"/>
<path style=" stroke:none;fill-rule:nonzero;fill:rgb(0%,0%,0%);fill-opacity:1;" d="M 9.636719 220 L 9.636719 200 L 29.636719 200 L 29.636719 220 Z M 9.636719 220 "/>
<path style=" stroke:none;fill-rule:nonzero;fill:rgb(0%,0%,0%);fill-opacity:1;" d="M 9.636719 180 L 9.636719 160 L 29.636719 160 L 29.636719 180 Z M 9.636719 180 "/>
<path style=" stroke:none;fill-rule:nonzero;fill:rgb(0%,0%,0%);fill-opacity:1;" d="M 9.636719 140 L 9.636719 120 L 29.636719 120 L 29.636719 140 Z M 9.636719 140 "/>
<path style=" stroke:none;fill-rule:nonzero;fill:rgb(0%,0%,0%);fill-opacity:1;" d="M 9.636719 100 L 9.636719 80 L 29.636719 80 L 29.636719 100 Z M 9.636719 100 "/>
<path style=" stroke:none;fill-rule:nonzero;fill:rgb(0%,0%,0%);fill-opacity:1;" d="M 9.636719 60 L 9.636719 40 L 29.636719 40 L 29.636719 60 Z M 9.636719 60 "/>
<path style=" stroke:none;fill-rule:nonzero;fill:rgb(0%,0%,0%);fill-opacity:1;" d="M 9.636719 20 L 9.636719 0 L 29.636719 0 L 29.636719 20 Z M 9.636719 20 "/>
<path style=" stroke:none;fill-rule:nonzero;fill:rgb(0%,0%,0%);fill-opacity:1;" d="M 45.636719 220 L 45.636719 200 L 65.636719 200 L 65.636719 220 Z M 45.636719 220 "/>
<path style=" stroke:none;fill-rule:nonzero;fill:rgb(0%,0%,0%);fill-opacity:1;" d="M 45.636719 180 L 45.636719 160 L 65.636719 160 L 65.636719 180 Z M 45.636719 180 "/>
<path style=" stroke:none;fill-rule:nonzero;fill:rgb(0%,0%,0%);fill-opacity:1;" d="M 45.636719 140 L 45.636719 120 L 65.636719 120 L 65.636719 140 Z M 45.636719 140 "/>
<path style=" stroke:none;fill-rule:nonzero;fill:rgb(0%,0%,0%);fill-opacity:1;" d="M 45.636719 100 L 45.636719 80 L 65.636719 80 L 65.636719 100 Z M 45.636719 100 "/>
<path style=" stroke:none;fill-rule:nonzero;fill:rgb(0%,0%,0%);fill-opacity:1;" d="M 45.636719 60 L 45.636719 40 L 65.636719 40 L 65.636719 60 Z M 45.636719 60 "/>
<path style=" stroke:none;fill-rule:nonzero;fill:rgb(0%,0%,0%);fill-opacity:1;" d="M 45.636719 20 L 45.636719 0 L 65.636719 0 L 65.636719 20 Z M 45.636719 20 "/>
<path style=" stroke:none;fill-rule:nonzero;fill:rgb(0%,0%,0%);fill-opacity:1;" d="M 81.636719 220 L 81.636719 200 L 101.636719 200 L 101.636719 220 Z M 81.636719 220 "/>
<path style=" stroke:none;fill-rule:nonzero;fill:rgb(0%,0%,0%);fill-opacity:1;" d="M 81.636719 180 L 81.636719 160 L 101.636719 160 L 101.636719 180 Z M 81.636719 180 "/>
<path style=" stroke:none;fill-rule:nonzero;fill:rgb(0%,0%,0%);fill-opacity:1;" d="M 81.636719 140 L 81.636719 120 L 101.636719 120 L 101.636719 140 Z M 81.636719 140 "/>
<path style=" stroke:none;fill-rule:nonzero;fill:rgb(0%,0%,0%);fill-opacity:1;" d="M 81.636719 100 L 81.636719 80 L 101.636719 80 L 101.636719 100 Z M 81.636719 100 "/>
<path style=" stroke:none;fill-rule:nonzero;fill:rgb(0%,0%,0%);fill-opacity:1;" d="M 81.636719 60 L 81.636719 40 L 101.636719 40 L 101.636719 60 Z M 81.636719 60 "/>
<path style=" stroke:none;fill-rule:nonzero;fill:rgb(0%,0%,0%);fill-opacity:1;" d="M 81.636719 20 L 81.636719 0 L 101.636719 0 L 101.636719 20 Z M 81.636719 20 "/>
<path style=" stroke:none;fill-rule:nonzero;fill:rgb(0%,0%,0%);fill-opacity:1;" d="M 117.636719 220 L 117.636719 200 L 137.636719 200 L 137.636719 220 Z M 117.636719 220 "/>
<path style=" stroke:none;fill-rule:nonzero;fill:rgb(0%,0%,0%);fill-opacity:1;" d="M 117.636719 180 L 117.636719 160 L 137.636719 160 L 137.636719 180 Z M 117.636719 180 "/>
<path style=" stroke:none;fill-rule:nonzero;fill:rgb(0%,0%,0%);fill-opacity:1;" d="M 117.636719 140 L 117.636719 120 L 137.636719 120 L 137.636719 140 Z M 117.636719 140 "/>
<path style=" stroke:none;fill-rule:nonzero;fill:rgb(0%,0%,0%);fill-opacity:1;" d="M 117.636719 100 L 117.636719 80 L 137.636719 80 L 137.636719 100 Z M 117.636719 100 "/>
<path style=" stroke:none;fill-rule:nonzero;fill:rgb(0%,0%,0%);fill-opacity:1;" d="M 117.636719 60 L 117.636719 40 L 137.636719 40 L 137.636719 60 Z M 117.636719 60 "/>
<path style=" stroke:none;fill-rule:nonzero;fill:rgb(0%,0%,0%);fill-opacity:1;" d="M 117.636719 20 L 117.636719 0 L 137.636719 0 L 137.636719 20 Z M 117.636719 20 "/>
<path style=" stroke:none;fill-rule:nonzero;fill:rgb(0%,0%,0%);fill-opacity:1;" d="M 153.636719 220 L 153.636719 200 L 173.636719 200 L 173.636719 220 Z M 153.636719 220 "/>
<path style=" stroke:none;fill-rule:nonzero;fill:rgb(0%,0%,0%);fill-opacity:1;" d="M 153.636719 180 L 153.636719 160 L 173.636719 160 L 173.636719 180 Z M 153.636719 180 "/>
<path style=" stroke:none;fill-rule:nonzero;fill:rgb(0%,0%,0%);fill-opacity:1;" d="M 153.636719 140 L 153.636719 120 L 173.636719 120 L 173.636719 140 Z M 153.636719 140 "/>
<path style=" stroke:none;fill-rule:nonzero;fill:rgb(0%,0%,0%);fill-opacity:1;" d="M 153.636719 100 L 153.636719 80 L 173.636719 80 L 173.636719 100 Z M 153.636719 100 "/>
<path style=" stroke:none;fill-rule:nonzero;fill:rgb(0%,0%,0%);fill-opacity:1;" d="M 153.636719 60 L 153.636719 40 L 173.636719 40 L 173.636719 60 Z M 153.636719 60 "/>
<path style=" stroke:none;fill-rule:nonzero;fill:rgb(0%,0%,0%);fill-opacity:1;" d="M 153.636719 20 L 153.636719 0 L 173.636719 0 L 173.636719 20 Z M 153.636719 20 "/>
<path style=" stroke:none;fill-rule:nonzero;fill:rgb(0%,0%,0%);fill-opacity:1;" d="M 189.636719 220 L 189.636719 200 L 209.636719 200 L 209.636719 220 Z M 189.636719 220 "/>
<path style=" stroke:none;fill-rule:nonzero;fill:rgb(0%,0%,0%);fill-opacity:1;" d="M 189.636719 180 L 189.636719 160 L 209.636719 160 L 209.636719 180 Z M 189.636719 180 "/>
<path style=" stroke:none;fill-rule:nonzero;fill:rgb(0%,0%,0%);fill-opacity:1;" d="M 189.636719 140 L 189.636719 120 L 209.636719 120 L 209.636719 140 Z M 189.636719 140 "/>
<path style=" stroke:none;fill-rule:nonzero;fill:rgb(0%,0%,0%);fill-opacity:1;" d="M 189.636719 100 L 189.636719 80 L 209.636719 80 L 209.636719 100 Z M 189.636719 100 "/>
<path style=" stroke:none;fill-rule:nonzero;fill:rgb(0%,0%,0%);fill-opacity:1;" d="M 189.636719 60 L 189.636719 40 L 209.636719 40 L 209.636719 60 Z M 189.636719 60 "/>
<path style=" stroke:none;fill-rule:nonzero;fill:rgb(0%,0%,0%);fill-opacity:1;" d="M 189.636719 20 L 189.636719 0 L 209.636719 0 L 209.636719 20 Z M 189.636719 20 "/>
<path style=" stroke:none;fill-rule:nonzero;fill:rgb(0%,0%,0%);fill-opacity:1;" d="M 225.636719 220 L 225.636719 200 L 245.636719 200 L 245.636719 220 Z M 225.636719 220 "/>
<path style=" stroke:none;fill-rule:nonzero;fill:rgb(0%,0%,0%);fill-opacity:1;" d="M 225.636719 180 L 225.636719 160 L 245.636719 160 L 245.636719 180 Z M 225.636719 180 "/>
<path style=" stroke:none;fill-rule:nonzero;fill:rgb(0%,0%,0%);fill-opacity:1;" d="M 225.636719 140 L 225.636719 120 L 245.636719 120 L 245.636719 140 Z M 225.636719 140 "/>
<path style=" stroke:none;fill-rule:nonzero;fill:rgb(0%,0%,0%);fill-opacity:1;" d="M 225.636719 100 L 225.636719 80 L 245.636719 80 L 245.636719 100 Z M 225.636719 100 "/>
<path style=" stroke:none;fill-rule:nonzero;fill:rgb(0%,0%,0%);fill-opacity:1;" d="M 225.636719 60 L 225.636719 40 L 245.636719 40 L 245.636719 60 Z M 225.636719 60 "/>
<path style=" stroke:none;fill-rule:nonzero;fill:rgb(0%,0%,0%);fill-opacity:1;" d="M 225.636719 20 L 225.636719 0 L 245.636719 0 L 245.636719 20 Z M 225.636719 20 "/>
<path style=" stroke:none;fill-rule:nonzero;fill:rgb(0%,0%,0%);fill-opacity:1;" d="M 261.636719 220 L 261.636719 200 L 281.636719 200 L 281.636719 220 Z M 261.636719 220 "/>
<path style=" stroke:none;fill-rule:nonzero;fill:rgb(0%,0%,0%);fill-opacity:1;" d="M 261.636719 180 L 261.636719 160 L 281.636719 160 L 281.636719 180 Z M 261.636719 180 "/>
<path style=" stroke:none;fill-rule:nonzero;fill:rgb(0%,0%,0%);fill-opacity:1;" d="M 261.636719 140 L 261.636719 120 L 281.636719 120 L 281.636719 140 Z M 261.636719 140 "/>
<path style=" stroke:none;fill-rule:nonzero;fill:rgb(0%,0%,0%);fill-opacity:1;" d="M 261.636719 100 L 261.636719 80 L 281.636719 80 L 281.636719 100 Z M 261.636719 100 "/>
<path style=" stroke:none;fill-rule:nonzero;fill:rgb(0%,0%,0%);fill-opacity:1;" d="M 261.636719 60 L 261.636719 40 L 281.636719 40 L 281.636719 60 Z M 261.636719 60 "/>
<path style=" stroke:none;fill-rule:nonzero;fill:rgb(0%,0%,0%);fill-opacity:1;" d="M 261.636719 20 L 261.636719 0 L 281.636719 0 L 281.636719 20 Z M 261.636719 20 "/>
<path style=" stroke:none;fill-rule:nonzero;fill:rgb(0%,0%,0%);fill-opacity:1;" d="M 297.636719 220 L 297.636719 200 L 317.636719 200 L 317.636719 220 Z M 297.636719 220 "/>
<path style=" stroke:none;fill-rule:nonzero;fill:rgb(0%,0%,0%);fill-opacity:1;" d="M 297.636719 180 L 297.636719 160 L 317.636719 160 L 317.636719 180 Z M 297.636719 180 "/>
<path style=" stroke:none;fill-rule:nonzero;fill:rgb(0%,0%,0%);fill-opacity:1;" d="M 297.636719 140 L 297.636719 120 L 317.636719 120 L 317.636719 140 Z M 297.636719 140 "/>
<path style=" stroke:none;fill-rule:nonzero;fill:rgb(0%,0%,0%);fill-opacity:1;" d="M 297.636719 100 L 297.636719 80 L 317.636719 80 L 317.636719 100 Z M 297.636719 100 "/>
<path style=" stroke:none;fill-rule:nonzero;fill:rgb(0%,0%,0%);fill-opacity:1;" d="M 297.636719 60 L 297.636719 40 L 317.636719 40 L 317.636719 60 Z M 297.636719 60 "/>
<path style=" stroke:none;fill-rule:nonzero;fill:rgb(0%,0%,0%);fill-opacity:1;" d="M 297.636719 20 L 297.636719 0 L 317.636719 0 L 317.636719 20 Z M 297.636719 20 "/>
<path style=" stroke:none;fill-rule:nonzero;fill:rgb(0%,0%,0%);fill-opacity:1;" d="M 333.636719 220 L 333.636719 200 L 353.636719 200 L 353.636719 220 Z M 333.636719 220 "/>
<path style=" stroke:none;fill-rule:nonzero;fill:rgb(0%,0%,0%);fill-opacity:1;" d="M 333.636719 180 L 333.636719 160 L 353.636719 160 L 353.636719 180 Z M 333.636719 180 "/>
<path style=" stroke:none;fill-rule:nonzero;fill:rgb(0%,0%,0%);fill-opacity:1;" d="M 333.636719 140 L 333.636719 120 L 353.636719 120 L 353.636719 140 Z M 333.636719 140 "/>
<path style=" stroke:none;fill-rule:nonzero;fill:rgb(0%,0%,0%);fill-opacity:1;" d="M 333.636719 100 L 333.636719 80 L 353.636719 80 L 353.636719 100 Z M 333.636719 100 "/>
<path style=" stroke:none;fill-rule:nonzero;fill:rgb(0%,0%,0%);fill-opacity:1;" d="M 333.636719 60 L 333.636719 40 L 353.636719 40 L 353.636719 60 Z M 333.636719 60 "/>
<path style=" stroke:none;fill-rule:nonzero;fill:rgb(0%,0%,0%);fill-opacity:1;" d="M 333.636719 20 L 333.636719 0 L 353.636719 0 L 353.636719 20 Z M 333.636719 20 "/>
<path style=" stroke:none;fill-rule:nonzero;fill:rgb(0%,0%,0%);fill-opacity:1;" d="M 369.636719 220 L 369.636719 200 L 389.636719 200 L 389.636719 220 Z M 369.636719 220 "/>
<path style=" stroke:none;fill-rule:nonzero;fill:rgb(0%,0%,0%);fill-opacity:1;" d="M 369.636719 180 L 369.636719 160 L 389.636719 160 L 389.636719 180 Z M 369.636719 180 "/>
<path style=" stroke:none;fill-rule:nonzero;fill:rgb(0%,0%,0%);fill-opacity:1;" d="M 369.636719 140 L 369.636719 120 L 389.636719 120 L 389.636719 140 Z M 369.636719 140 "/>
<path style=" stroke:none;fill-rule:nonzero;fill:rgb(0%,0%,0%);fill-opacity:1;" d="M 369.636719 100 L 369.636719 80 L 389.636719 80 L 389.636719 100 Z M 369.636719 100 "/>
<path style=" stroke:none;fill-rule:nonzero;fill:rgb(0%,0%,0%);fill-opacity:1;" d="M 369.636719 60 L 369.636719 40 L 389.636719 40 L 389.636719 60 Z M 369.636719 60 "/>
<path style=" stroke:none;fill-rule:nonzero;fill:rgb(0%,0%,0%);fill-opacity:1;" d="M 369.636719 20 L 369.636719 0 L 389.636719 0 L 389.636719 20 Z M 369.636719 20 "/>
<path style=" stroke:none;fill-rule:nonzero;fill:rgb(0%,0%,0%);fill-opacity:1;" d="M -1.527344 200 L -1.527344 180 L 18.472656 180 L 18.472656 200 Z M -1.527344 200 "/>
<path style=" stroke:none;fill-rule:nonzero;fill:rgb(0%,0%,0%);fill-opacity:1;" d="M -1.527344 160 L -1.527344 140 L 18.472656 140 L 18.472656 160 Z M -1.527344 160 "/>
<path style=" stroke:none;fill-rule:nonzero;fill:rgb(0%,0%,0%);fill-opacity:1;" d="M -1.527344 120 L -1.527344 100 L 18.472656 100 L 18.472656 120 Z M -1.527344 120 "/>
<path style=" stroke:none;fill-rule:nonzero;fill:rgb(0%,0%,0%);fill-opacity:1;" d="M -1.527344 80 L -1.527344 60 L 18.472656 60 L 18.472656 80 Z M -1.527344 80 "/>
<path style=" stroke:none;fill-rule:nonzero;fill:rgb(0%,0%,0%);fill-opacity:1;" d="M -1.527344 40 L -1.527344 20 L 18.472656 20 L 18.472656 40 Z M -1.527344 40 "/>
<path style=" stroke:none;fill-rule:nonzero;fill:rgb(0%,0%,0%);fill-opacity:1;" d="M 34.472656 200 L 34.472656 180 L 54.472656 180 L 54.472656 200 Z M 34.472656 200 "/>
<path style=" stroke:none;fill-rule:nonzero;fill:rgb(0%,0%,0%);fill-opacity:1;" d="M 34.472656 160 L 34.472656 140 L 54.472656 140 L 54.472656 160 Z M 34.472656 160 "/>
<path style=" stroke:none;fill-rule:nonzero;fill:rgb(0%,0%,0%);fill-opacity:1;" d="M 34.472656 120 L 34.472656 100 L 54.472656 100 L 54.472656 120 Z M 34.472656 120 "/>
<path style=" stroke:none;fill-rule:nonzero;fill:rgb(0%,0%,0%);fill-opacity:1;" d="M 34.472656 80 L 34.472656 60 L 54.472656 60 L 54.472656 80 Z M 34.472656 80 "/>
<path style=" stroke:none;fill-rule:nonzero;fill:rgb(0%,0%,0%);fill-opacity:1;" d="M 34.472656 40 L 34.472656 20 L 54.472656 20 L 54.472656 40 Z M 34.472656 40 "/>
<path style=" stroke:none;fill-rule:nonzero;fill:rgb(0%,0%,0%);fill-opacity:1;" d="M 70.472656 200 L 70.472656 180 L 90.472656 180 L 90.472656 200 Z M 70.472656 200 "/>
<path style=" stroke:none;fill-rule:nonzero;fill:rgb(0%,0%,0%);fill-opacity:1;" d="M 70.472656 160 L 70.472656 140 L 90.472656 140 L 90.472656 160 Z M 70.472656 160 "/>
<path style=" stroke:none;fill-rule:nonzero;fill:rgb(0%,0%,0%);fill-opacity:1;" d="M 70.472656 120 L 70.472656 100 L 90.472656 100 L 90.472656 120 Z M 70.472656 120 "/>
<path style=" stroke:none;fill-rule:nonzero;fill:rgb(0%,0%,0%);fill-opacity:1;" d="M 70.472656 80 L 70.472656 60 L 90.472656 60 L 90.472656 80 Z M 70.472656 80 "/>
<path style=" stroke:none;fill-rule:nonzero;fill:rgb(0%,0%,0%);fill-opacity:1;" d="M 70.472656 40 L 70.472656 20 L 90.472656 20 L 90.472656 40 Z M 70.472656 40 "/>
<path style=" stroke:none;fill-rule:nonzero;fill:rgb(0%,0%,0%);fill-opacity:1;" d="M 106.472656 200 L 106.472656 180 L 126.472656 180 L 126.472656 200 Z M 106.472656 200 "/>
<path style=" stroke:none;fill-rule:nonzero;fill:rgb(0%,0%,0%);fill-opacity:1;" d="M 106.472656 160 L 106.472656 140 L 126.472656 140 L 126.472656 160 Z M 106.472656 160 "/>
<path style=" stroke:none;fill-rule:nonzero;fill:rgb(0%,0%,0%);fill-opacity:1;" d="M 106.472656 120 L 106.472656 100 L 126.472656 100 L 126.472656 120 Z M 106.472656 120 "/>
<path style=" stroke:none;fill-rule:nonzero;fill:rgb(0%,0%,0%);fill-opacity:1;" d="M 106.472656 80 L 106.472656 60 L 126.472656 60 L 126.472656 80 Z M 106.472656 80 "/>
<path style=" stroke:none;fill-rule:nonzero;fill:rgb(0%,0%,0%);fill-opacity:1;" d="M 106.472656 40 L 106.472656 20 L 126.472656 20 L 126.472656 40 Z M 106.472656 40 "/>
<path style=" stroke:none;fill-rule:nonzero;fill:rgb(0%,0%,0%);fill-opacity:1;" d="M 142.472656 200 L 142.472656 180 L 162.472656 180 L 162.472656 200 Z M 142.472656 200 "/>
<path style=" stroke:none;fill-rule:nonzero;fill:rgb(0%,0%,0%);fill-opacity:1;" d="M 142.472656 160 L 142.472656 140 L 162.472656 140 L 162.472656 160 Z M 142.472656 160 "/>
<path style=" stroke:none;fill-rule:nonzero;fill:rgb(0%,0%,0%);fill-opacity:1;" d="M 142.472656 120 L 142.472656 100 L 162.472656 100 L 162.472656 120 Z M 142.472656 120 "/>
<path style=" stroke:none;fill-rule:nonzero;fill:rgb(0%,0%,0%);fill-opacity:1;" d="M 142.472656 80 L 142.472656 60 L 162.472656 60 L 162.472656 80 Z M 142.472656 80 "/>
<path style=" stroke:none;fill-rule:nonzero;fill:rgb(0%,0%,0%);fill-opacity:1;" d="M 142.472656 40 L 142.472656 20 L 162.472656 20 L 162.472656 40 Z M 142.472656 40 "/>
<path style=" stroke:none;fill-rule:nonzero;fill:rgb(0%,0%,0%);fill-opacity:1;" d="M 178.472656 200 L 178.472656 180 L 198.472656 180 L 198.472656 200 Z M 178.472656 200 "/>
<path style=" stroke:none;fill-rule:nonzero;fill:rgb(0%,0%,0%);fill-opacity:1;" d="M 178.472656 160 L 178.472656 140 L 198.472656 140 L 198.472656 160 Z M 178.472656 160 "/>
<path style=" stroke:none;fill-rule:nonzero;fill:rgb(0%,0%,0%);fill-opacity:1;" d="M 178.472656 120 L 178.472656 100 L 198.472656 100 L 198.472656 120 Z M 178.472656 120 "/>
<path style=" stroke:none;fill-rule:nonzero;fill:rgb(0%,0%,0%);fill-opacity:1;" d="M 178.472656 80 L 178.472656 60 L 198.472656 60 L 198.472656 80 Z M 178.472656 80 "/>
<path style=" stroke:none;fill-rule:nonzero;fill:rgb(0%,0%,0%);fill-opacity:1;" d="M 178.472656 40 L 178.472656 20 L 198.472656 20 L 198.472656 40 Z M 178.472656 40 "/>
<path style=" stroke:none;fill-rule:nonzero;fill:rgb(0%,0%,0%);fill-opacity:1;" d="M 214.472656 200 L 214.472656 180 L 234.472656 180 L 234.472656 200 Z M 214.472656 200 "/>
<path style=" stroke:none;fill-rule:nonzero;fill:rgb(0%,0%,0%);fill-opacity:1;" d="M 214.472656 160 L 214.472656 140 L 234.472656 140 L 234.472656 160 Z M 214.472656 160 "/>
<path style=" stroke:none;fill-rule:nonzero;fill:rgb(0%,0%,0%);fill-opacity:1;" d="M 214.472656 120 L 214.472656 100 L 234.472656 100 L 234.472656 120 Z M 214.472656 120 "/>
<path style=" stroke:none;fill-rule:nonzero;fill:rgb(0%,0%,0%);fill-opacity:1;" d="M 214.472656 80 L 214.472656 60 L 234.472656 60 L 234.472656 80 Z M 214.472656 80 "/>
<path style=" stroke:none;fill-rule:nonzero;fill:rgb(0%,0%,0%);fill-opacity:1;" d="M 214.472656 40 L 214.472656 20 L 234.472656 20 L 234.472656 40 Z M 214.472656 40 "/>
<path style=" stroke:none;fill-rule:nonzero;fill:rgb(0%,0%,0%);fill-opacity:1;" d="M 250.472656 200 L 250.472656 180 L 270.472656 180 L 270.472656 200 Z M 250.472656 200 "/>
<path style=" stroke:none;fill-rule:nonzero;fill:rgb(0%,0%,0%);fill-opacity:1;" d="M 250.472656 160 L 250.472656 140 L 270.472656 140 L 270.472656 160 Z M 250.472656 160 "/>
<path style=" stroke:none;fill-rule:nonzero;fill:rgb(0%,0%,0%);fill-opacity:1;" d="M 250.472656 120 L 250.472656 100 L 270.472656 100 L 270.472656 120 Z M 250.472656 120 "/>
<path style=" stroke:none;fill-rule:nonzero;fill:rgb(0%,0%,0%);fill-opacity:1;" d="M 250.472656 80 L 250.472656 60 L 270.472656 60 L 270.472656 80 Z M 250.472656 80 "/>
<path style=" stroke:none;fill-rule:nonzero;fill:rgb(0%,0%,0%);fill-opacity:1;" d="M 250.472656 40 L 250.472656 20 L 270.472656 20 L 270.472656 40 Z M 250.472656 40 "/>
<path style=" stroke:none;fill-rule:nonzero;fill:rgb(0%,0%,0%);fill-opacity:1;" d="M 286.472656 200 L 286.472656 180 L 306.472656 180 L 306.472656 200 Z M 286.472656 200 "/>
<path style=" stroke:none;fill-rule:nonzero;fill:rgb(0%,0%,0%);fill-opacity:1;" d="M 286.472656 160 L 286.472656 140 L 306.472656 140 L 306.472656 160 Z M 286.472656 160 "/>
<path style=" stroke:none;fill-rule:nonzero;fill:rgb(0%,0%,0%);fill-opacity:1;" d="M 286.472656 120 L 286.472656 100 L 306.472656 100 L 306.472656 120 Z M 286.472656 120 "/>
<path style=" stroke:none;fill-rule:nonzero;fill:rgb(0%,0%,0%);fill-opacity:1;" d="M 286.472656 80 L 286.472656 60 L 306.472656 60 L 306.472656 80 Z M 286.472656 80 "/>
<path style=" stroke:none;fill-rule:nonzero;fill:rgb(0%,0%,0%);fill-opacity:1;" d="M 286.472656 40 L 286.472656 20 L 306.472656 20 L 306.472656 40 Z M 286.472656 40 "/>
<path style=" stroke:none;fill-rule:nonzero;fill:rgb(0%,0%,0%);fill-opacity:1;" d="M 322.472656 200 L 322.472656 180 L 342.472656 180 L 342.472656 200 Z M 322.472656 200 "/>
<path style=" stroke:none;fill-rule:nonzero;fill:rgb(0%,0%,0%);fill-opacity:1;" d="M 322.472656 160 L 322.472656 140 L 342.472656 140 L 342.472656 160 Z M 322.472656 160 "/>
<path style=" stroke:none;fill-rule:nonzero;fill:rgb(0%,0%,0%);fill-opacity:1;" d="M 322.472656 120 L 322.472656 100 L 342.472656 100 L 342.472656 120 Z M 322.472656 120 "/>
<path style=" stroke:none;fill-rule:nonzero;fill:rgb(0%,0%,0%);fill-opacity:1;" d="M 322.472656 80 L 322.472656 60 L 342.472656 60 L 342.472656 80 Z M 322.472656 80 "/>
<path style=" stroke:none;fill-rule:nonzero;fill:rgb(0%,0%,0%);fill-opacity:1;" d="M 322.472656 40 L 322.472656 20 L 342.472656 20 L 342.472656 40 Z M 322.472656 40 "/>
<path style=" stroke:none;fill-rule:nonzero;fill:rgb(0%,0%,0%);fill-opacity:1;" d="M 358.472656 200 L 358.472656 180 L 378.472656 180 L 378.472656 200 Z M 358.472656 200 "/>
<path style=" stroke:none;fill-rule:nonzero;fill:rgb(0%,0%,0%);fill-opacity:1;" d="M 358.472656 160 L 358.472656 140 L 378.472656 140 L 378.472656 160 Z M 358.472656 160 "/>
<path style=" stroke:none;fill-rule:nonzero;fill:rgb(0%,0%,0%);fill-opacity:1;" d="M 358.472656 120 L 358.472656 100 L 378.472656 100 L 378.472656 120 Z M 358.472656 120 "/>
<path style=" stroke:none;fill-rule:nonzero;fill:rgb(0%,0%,0%);fill-opacity:1;" d="M 358.472656 80 L 358.472656 60 L 378.472656 60 L 378.472656 80 Z M 358.472656 80 "/>
<path style=" stroke:none;fill-rule:nonzero;fill:rgb(0%,0%,0%);fill-opacity:1;" d="M 358.472656 40 L 358.472656 20 L 378.472656 20 L 378.472656 40 Z M 358.472656 40 "/>
<path style="fill:none;stroke-width:1;stroke-linecap:square;stroke-linejoin:miter;stroke:rgb(100%,0%,0%);stroke-opacity:1;stroke-miterlimit:3.25;" d="M 0 220 L 400 220 "/>
<path style="fill:none;stroke-width:1;stroke-linecap:square;stroke-linejoin:miter;stroke:rgb(100%,0%,0%);stroke-opacity:1;stroke-miterlimit:3.25;" d="M 0 200 L 400 200 "/>
<path style="fill:none;stroke-width:1;stroke-linecap:square;stroke-linejoin:miter;stroke:rgb(100%,0%,0%);stroke-opacity:1;stroke-miterlimit:3.25;" d="M 0 180 L 400 180 "/>
<path style="fill:none;stroke-width:1;stroke-linecap:square;stroke-linejoin:miter;stroke:rgb(100%,0%,0%);stroke-opacity:1;stroke-miterlimit:3.25;" d="M 0 160 L 400 160 "/>
<path style="fill:none;stroke-width:1;stroke-linecap:square;stroke-linejoin:miter;stroke:rgb(100%,0%,0%);stroke-opacity:1;stroke-miterlimit:3.25;" d="M 0 140 L 400 140 "/>
<path style="fill:none;stroke-width:1;stroke-linecap:square;stroke-linejoin:miter;stroke:rgb(100%,0%,0%);stroke-opacity:1;stroke-miterlimit:3.25;" d="M 0 120 L 400 120 "/>
<path style="fill:none;stroke-width:1;stroke-linecap:square;stroke-linejoin:miter;stroke:rgb(100%,0%,0%);stroke-opacity:1;stroke-miterlimit:3.25;" d="M 0 100 L 400 100 "/>
<path style="fill:none;stroke-width:1;stroke-linecap:square;stroke-linejoin:miter;stroke:rgb(100%,0%,0%);stroke-opacity:1;stroke-miterlimit:3.25;" d="M 0 80 L 400 80 "/>
<path style="fill:none;stroke-width:1;stroke-linecap:square;stroke-linejoin:miter;stroke:rgb(100%,0%,0%);stroke-opacity:1;stroke-miterlimit:3.25;" d="M 0 60 L 400 60 "/>
<path style="fill:none;stroke-width:1;stroke-linecap:square;stroke-linejoin:miter;stroke:rgb(100%,0%,0%);stroke-opacity:1;stroke-miterlimit:3.25;" d="M 0 40 L 400 40 "/>
<path style="fill:none;stroke-width:1;stroke-linecap:square;stroke-linejoin:miter;stroke:rgb(100%,0%,0%);stroke-opacity:1;stroke-miterlimit:3.25;" d="M 0 20 L 400 20 "/>
</g>
</svg>
