<?xml version="1.0" encoding="UTF-8"?>
<svg xmlns="http://www.w3.org/2000/svg" xmlns:xlink="http://www.w3.org/1999/xlink" width="400pt" height="220pt" viewBox="0 0 400 220" version="1.1">
<g id="surface686">
<rect x="0" y="0" width="400" height="220" style="fill:rgb(0%,40%,100%);fill-opacity:0.2;stroke:none;"/>
<path style=" stroke:none;fill-rule:nonzero;fill:rgb(0%,0%,0%);fill-opacity:1;" d="M 13.691406 220 L 13.691406 200 L 33.691406 200 L 33.691406 220 Z M 13.691406 220 "/>
<path style=" stroke:none;fill-rule:nonzero;fill:rgb(0%,0%,0%);fill-opacity:1;" d="M 13.691406 180 L 13.691406 160 L 33.691406 160 L 33.691406 180 Z M 13.691406 180 "/>
<path style=" stroke:none;fill-rule:nonzero;fill:rgb(0%,0%,0%);fill-opacity:1;" d="M 13.691406 140 L 13.691406 120 L 33.691406 120 L 33.691406 140 Z M 13.691406 140 "/>
<path style=" stroke:none;fill-rule:nonzero;fill:rgb(0%,0%,0%);fill-opacity:1;" d="M 13.691406 100 L 13.691406 80 L 33.691406 80 L 33.691406 100 Z M 13.691406 100 "/>
<path style=" stroke:none;fill-rule:nonzero;fill:rgb(0%,0%,0%);fill-opacity:1;" d="M 13.691406 60 L 13.691406 40 L 33.691406 40 L 33.691406 60 Z M 13.691406 60 "/>
<path style=" stroke:none;fill-rule:nonzero;fill:rgb(0%,0%,0%);fill-opacity:1;" d="M 13.691406 20 L 13.691406 0 L 33.691406 0 L 33.691406 20 Z M 13.691406 20 "/>
<path style=" stroke:none;fill-rule:nonzero;fill:rgb(0%,0%,0%);fill-opacity:1;" d="M 49.691406 220 L 49.691406 200 L 69.691406 200 L 69.691406 220 Z M 49.691406 220 "/>
<path style=" stroke:none;fill-rule:nonzero;fill:rgb(0%,0%,0%);fill-opacity:1;" d="M 49.691406 180 L 49.691406 160 L 69.691406 160 L 69.691406 180 Z M 49.691406 180 "/>
<path style=" stroke:none;fill-rule:nonzero;fill:rgb(0%,0%,0%);fill-opacity:1;" d="M 49.691406 140 L 49.691406 120 L 69.691406 120 L 69.691406 140 Z M 49.691406 140 "/>
<path style=" stroke:none;fill-rule:nonzero;fill:rgb(0%,0%,0%);fill-opacity:1;" d="M 49.691406 100 L 49.691406 80 L 69.691406 80 L 69.691406 100 Z M 49.691406 100 "/>
<path style=" stroke:none;fill-rule:nonzero;fill:rgb(0%,0%,0%);fill-opacity:1;" d="M 49.691406 60 L 49.691406 40 L 69.691406 40 L 69.691406 60 Z M 49.691406 60 "/>
<path style=" stroke:none;fill-rule:nonzero;fill:rgb(0%,0%,0%);fill-opacity:1;" d="M 49.691406 20 L 49.691406 0 L 69.691406 0 L 69.691406 20 Z M 49.691406 20 "/>
<path style=" stroke:none;fill-rule:nonzero;fill:rgb(0%,0%,0%);fill-opacity:1;" d="M 85.691406 220 L 85.691406 200 L 105.691406 200 L 105.691406 220 Z M 85.691406 220 "/>
<path style=" stroke:none;fill-rule:nonzero;fill:rgb(0%,0%,0%);fill-opacity:1;" d="M 85.691406 180 L 85.691406 160 L 105.691406 160 L 105.691406 180 Z M 85.691406 180 "/>
<path style=" stroke:none;fill-rule:nonzero;fill:rgb(0%,0%,0%);fill-opacity:1;" d="M 85.691406 140 L 85.691406 120 L 105.691406 120 L 105.691406 140 Z M 85.691406 140 "/>
<path style=" stroke:none;fill-rule:nonzero;fill:rgb(0%,0%,0%);fill-opacity:1;" d="M 85.691406 100 L 85.691406 80 L 105.691406 80 L 105.691406 100 Z M 85.691406 100 "/>
<path style=" stroke:none;fill-rule:nonzero;fill:rgb(0%,0%,0%);fill-opacity:1;" d="M 85.691406 60 L 85.691406 40 L 105.691406 40 L 105.691406 60 Z M 85.691406 60 "/>
<path style=" stroke:none;fill-rule:nonzero;fill:rgb(0%,0%,0%);fill-opacity:1;" d="M 85.691406 20 L 85.691406 0 L 105.691406 0 L 105.691406 20 Z M 85.691406 20 "/>
<path style=" stroke:none;fill-rule:nonzero;fill:rgb(0%,0%,0%);fill-opacity:1;" d="M 121.691406 220 L 121.691406 200 L 141.691406 200 L 141.691406 220 Z M 121.691406 220 "/>
<path style=" stroke:none;fill-rule:nonzero;fill:rgb(0%,0%,0%);fill-opacity:1;" d="M 121.691406 180 L 121.691406 160 L 141.691406 160 L 141.691406 180 Z M 121.691406 180 "/>
<path style=" stroke:none;fill-rule:nonzero;fill:rgb(0%,0%,0%);fill-opacity:1;" d="M 121.691406 140 L 121.691406 120 L 141.691406 120 L 141.691406 140 Z M 121.691406 140 "/>
<path style=" stroke:none;fill-rule:nonzero;fill:rgb(0%,0%,0%);fill-opacity:1;" d="M 121.691406 100 L 121.691406 80 L 141.691406 80 L 141.691406 100 Z M 121.691406 100 "/>
<path style=" stroke:none;fill-rule:nonzero;fill:rgb(0%,0%,0%);fill-opacity:1;" d="M 121.691406 60 L 121.691406 40 L 141.691406 40 L 141.691406 60 Z M 121.691406 60 "/>
<path style=" stroke:none;fill-rule:nonzero;fill:rgb(0%,0%,0%);fill-opacity:1;" d="M 121.691406 20 L 121.691406 0 L 141.691406 0 L 141.691406 20 Z M 121.691406 20 "/>
<path style=" stroke:none;fill-rule:nonzero;fill:rgb(0%,0%,0%);fill-opacity:1;" d="M 157.691406 220 L 157.691406 200 L 177.691406 200 L 177.691406 220 Z M 157.691406 220 "/>
<path style=" stroke:none;fill-rule:nonzero;fill:rgb(0%,0%,0%);fill-opacity:1;" d="M 157.691406 180 L 157.691406 160 L 177.691406 160 L 177.691406 180 Z M 157.691406 180 "/>
<path style=" stroke:none;fill-rule:nonzero;fill:rgb(0%,0%,0%);fill-opacity:1;" d="M 157.691406 140 L 157.691406 120 L 177.691406 120 L 177.691406 140 Z M 157.691406 140 "/>
<path style=" stroke:none;fill-rule:nonzero;fill:rgb(0%,0%,0%);fill-opacity:1;" d="M 157.691406 100 L 157.691406 80 L 177.691406 80 L 177.691406 100 Z M 157.691406 100 "/>
<path style=" stroke:none;fill-rule:nonzero;fill:rgb(0%,0%,0%);fill-opacity:1;" d="M 157.691406 60 L 157.691406 40 L 177.691406 40 L 177.691406 60 Z M 157.691406 60 "/>
<path style=" stroke:none;fill-rule:nonzero;fill:rgb(0%,0%,0%);fill-opacity:1;" d="M 157.691406 20 L 157.691406 0 L 177.691406 0 L 177.691406 20 Z M 157.691406 20 "/>
<path style=" stroke:none;fill-rule:nonzero;fill:rgb(0%,0%,0%);fill-opacity:1;" d="M 193.691406 220 L 193.691406 200 L 213.691406 200 L 213.691406 220 Z M 193.691406 220 "/>
<path style=" stroke:none;fill-rule:nonzero;fill:rgb(0%,0%,0%);fill-opacity:1;" d="M 193.691406 180 L 193.691406 160 L 213.691406 160 L 213.691406 180 Z M 193.691406 180 "/>
<path style=" stroke:none;fill-rule:nonzero;fill:rgb(0%,0%,0%);fill-opacity:1;" d="M 193.691406 140 L 193.691406 120 L 213.691406 120 L 213.691406 140 Z M 193.691406 140 "/>
<path style=" stroke:none;fill-rule:nonzero;fill:rgb(0%,0%,0%);fill-opacity:1;" d="M 193.691406 100 L 193.691406 80 L 213.691406 80 L 213.691406 100 Z M 193.691406 100 "/>
<path style=" stroke:none;fill-rule:nonzero;fill:rgb(0%,0%,0%);fill-opacity:1;" d="M 193.691406 60 L 193.691406 40 L 213.691406 40 L 213.691406 60 Z M 193.691406 60 "/>
<path style=" stroke:none;fill-rule:nonzero;fill:rgb(0%,0%,0%);fill-opacity:1;" d="M 193.691406 20 L 193.691406 0 L 213.691406 0 L 213.691406 20 Z M 193.691406 20 "/>
<path style=" stroke:none;fill-rule:nonzero;fill:rgb(0%,0%,0%);fill-opacity:1;" d="M 229.691406 220 L 229.691406 200 L 249.691406 200 L 249.691406 220 Z M 229.691406 220 "/>
<path style=" stroke:none;fill-rule:nonzero;fill:rgb(0%,0%,0%);fill-opacity:1;" d="M 229.691406 180 L 229.691406 160 L 249.691406 160 L 249.691406 180 Z M 229.691406 180 "/>
<path style=" stroke:none;fill-rule:nonzero;fill:rgb(0%,0%,0%);fill-opacity:1;" d="M 229.691406 140 L 229.691406 120 L 249.691406 120 L 249.691406 140 Z M 229.691406 140 "/>
<path style=" stroke:none;fill-rule:nonzero;fill:rgb(0%,0%,0%);fill-opacity:1;" d="M 229.691406 100 L 229.691406 80 L 249.691406 80 L 249.691406 100 Z M 229.691406 100 "/>
<path style=" stroke:none;fill-rule:nonzero;fill:rgb(0%,0%,0%);fill-opacity:1;" d="M 229.691406 60 L 229.691406 40 L 249.691406 40 L 249.691406 60 Z M 229.691406 60 "/>
<path style=" stroke:none;fill-rule:nonzero;fill:rgb(0%,0%,0%);fill-opacity:1;" d="M 229.691406 20 L 229.691406 0 L 249.691406 0 L 249.691406 20 Z M 229.691406 20 "/>
<path style=" stroke:none;fill-rule:nonzero;fill:rgb(0%,0%,0%);fill-opacity:1;" d="M 265.691406 220 L 265.691406 200 L 285.691406 200 L 285.691406 220 Z M 265.691406 220 "/>
<path style=" stroke:none;fill-rule:nonzero;fill:rgb(0%,0%,0%);fill-opacity:1;" d="M 265.691406 180 L 265.691406 160 L 285.691406 160 L 285.691406 180 Z M 265.691406 180 "/>
<path style=" stroke:none;fill-rule:nonzero;fill:rgb(0%,0%,0%);fill-opacity:1;" d="M 265.691406 140 L 265.691406 120 L 285.691406 120 L 285.691406 140 Z M 265.691406 140 "/>
<path style=" stroke:none;fill-rule:nonzero;fill:rgb(0%,0%,0%);fill-opacity:1;" d="M 265.691406 100 L 265.691406 80 L 285.691406 80 L 285.691406 100 Z M 265.691406 100 "/>
<path style=" stroke:none;fill-rule:nonzero;fill:rgb(0%,0%,0%);fill-opacity:1;" d="M 265.691406 60 L 265.691406 40 L 285.691406 40 L 285.691406 60 Z M 265.691406 60 "/>
<path style=" stroke:none;fill-rule:nonzero;fill:rgb(0%,0%,0%);fill-opacity:1;" d="M 265.691406 20 L 265.691406 0 L 285.691406 0 L 285.691406 20 Z M 265.691406 20 "/>
<path style=" stroke:none;fill-rule:nonzero;fill:rgb(0%,0%,0%);fill-opacity:1;" d="M 301.691406 220 L 301.691406 200 L 321.691406 200 L 321.691406 220 Z M 301.691406 220 "/>
<path style=" stroke:none;fill-rule:nonzero;fill:rgb(0%,0%,0%);fill-opacity:1;" d="M 301.691406 180 L 301.691406 160 L 321.691406 160 L 321.691406 180 Z M 301.691406 180 "/>
<path style=" stroke:none;fill-rule:nonzero;fill:rgb(0%,0%,0%);fill-opacity:1;" d="M 301.691406 140 L 301.691406 120 L 321.691406 120 L 321.691406 140 Z M 301.691406 140 "/>
<path style=" stroke:none;fill-rule:nonzero;fill:rgb(0%,0%,0%);fill-opacity:1;" d="M 301.691406 100 L 301.691406 80 L 321.691406 80 L 321.691406 100 Z M 301.691406 100 "/>
<path style=" stroke:none;fill-rule:nonzero;fill:rgb(0%,0%,0%);fill-opacity:1;" d="M 301.691406 60 L 301.691406 40 L 321.691406 40 L 321.691406 60 Z M 301.691406 60 "/>
<path style=" stroke:none;fill-rule:nonzero;fill:rgb(0%,0%,0%);fill-opacity:1;" d="M 301.691406 20 L 301.691406 0 L 321.691406 0 L 321.691406 20 Z M 301.691406 20 "/>
<path style=" stroke:none;fill-rule:nonzero;fill:rgb(0%,0%,0%);fill-opacity:1;" d="M 337.691406 220 L 337.691406 200 L 357.691406 200 L 357.691406 220 Z M 337.691406 220 "/>
<path style=" stroke:none;fill-rule:nonzero;fill:rgb(0%,0%,0%);fill-opacity:1;" d="M 337.691406 180 L 337.691406 160 L 357.691406 160 L 357.691406 180 Z M 337.691406 180 "/>
<path style=" stroke:none;fill-rule:nonzero;fill:rgb(0%,0%,0%);fill-opacity:1;" d="M 337.691406 140 L 337.691406 120 L 357.691406 120 L 357.691406 140 Z M 337.691406 140 "/>
<path style=" stroke:none;fill-rule:nonzero;fill:rgb(0%,0%,0%);fill-opacity:1;" d="M 337.691406 100 L 337.691406 80 L 357.691406 80 L 357.691406 100 Z M 337.691406 100 "/>
<path style=" stroke:none;fill-rule:nonzero;fill:rgb(0%,0%,0%);fill-opacity:1;" d="M 337.691406 60 L 337.691406 40 L 357.691406 40 L 357.691406 60 Z M 337.691406 60 "/>
<path style=" stroke:none;fill-rule:nonzero;fill:rgb(0%,0%,0%);fill-opacity:1;" d="M 337.691406 20 L 337.691406 0 L 357.691406 0 L 357.691406 20 Z M 337.691406 20 "/>
<path style=" stroke:none;fill-rule:nonzero;fill:rgb(0%,0%,0%);fill-opacity:1;" d="M 373.691406 220 L 373.691406 200 L 393.691406 200 L 393.691406 220 Z M 373.691406 220 "/>
<path style=" stroke:none;fill-rule:nonzero;fill:rgb(0%,0%,0%);fill-opacity:1;" d="M 373.691406 180 L 373.691406 160 L 393.691406 160 L 393.691406 180 Z M 373.691406 180 "/>
<path style=" stroke:none;fill-rule:nonzero;fill:rgb(0%,0%,0%);fill-opacity:1;" d="M 373.691406 140 L 373.691406 120 L 393.691406 120 L 393.691406 140 Z M 373.691406 140 "/>
<path style=" stroke:none;fill-rule:nonzero;fill:rgb(0%,0%,0%);fill-opacity:1;" d="M 373.691406 100 L 373.691406 80 L 393.691406 80 L 393.691406 100 Z M 373.691406 100 "/>
<path style=" stroke:none;fill-rule:nonzero;fill:rgb(0%,0%,0%);fill-opacity:1;" d="M 373.691406 60 L 373.691406 40 L 393.691406 40 L 393.691406 60 Z M 373.691406 60 "/>
<path style=" stroke:none;fill-rule:nonzero;fill:rgb(0%,0%,0%);fill-opacity:1;" d="M 373.691406 20 L 373.691406 0 L 393.691406 0 L 393.691406 20 Z M 373.691406 20 "/>
<path style=" stroke:none;fill-rule:nonzero;fill:rgb(0%,0%,0%);fill-opacity:1;" d="M -5.421875 200 L -5.421875 180 L 14.578125 180 L 14.578125 200 Z M -5.421875 200 "/>
<path style=" stroke:none;fill-rule:nonzero;fill:rgb(0%,0%,0%);fill-opacity:1;" d="M -5.421875 160 L -5.421875 140 L 14.578125 140 L 14.578125 160 Z M -5.421875 160 "/>
<path style=" stroke:none;fill-rule:nonzero;fill:rgb(0%,0%,0%);fill-opacity:1;" d="M -5.421875 120 L -5.421875 100 L 14.578125 100 L 14.578125 120 Z M -5.421875 120 "/>
<path style=" stroke:none;fill-rule:nonzero;fill:rgb(0%,0%,0%);fill-opacity:1;" d="M -5.421875 80 L -5.421875 60 L 14.578125 60 L 14.578125 80 Z M -5.421875 80 "/>
<path style=" stroke:none;fill-rule:nonzero;fill:rgb(0%,0%,0%);fill-opacity:1;" d="M -5.421875 40 L -5.421875 20 L 14.578125 20 L 14.578125 40 Z M -5.421875 40 "/>
<path style=" stroke:none;fill-rule:nonzero;fill:rgb(0%,0%,0%);fill-opacity:1;" d="M 30.578125 200 L 30.578125 180 L 50.578125 180 L 50.578125 200 Z M 30.578125 200 "/>
<path style=" stroke:none;fill-rule:nonzero;fill:rgb(0%,0%,0%);fill-opacity:1;" d="M 30.578125 160 L 30.578125 140 L 50.578125 140 L 50.578125 160 Z M 30.578125 160 "/>
<path style=" stroke:none;fill-rule:nonzero;fill:rgb(0%,0%,0%);fill-opacity:1;" d="M 30.578125 120 L 30.578125 100 L 50.578125 100 L 50.578125 120 Z M 30.578125 120 "/>
<path style=" stroke:none;fill-rule:nonzero;fill:rgb(0%,0%,0%);fill-opacity:1;" d="M 30.578125 80 L 30.578125 60 L 50.578125 60 L 50.578125 80 Z M 30.578125 80 "/>
<path style=" stroke:none;fill-rule:nonzero;fill:rgb(0%,0%,0%);fill-opacity:1;" d="M 30.578125 40 L 30.578125 20 L 50.578125 20 L 50.578125 40 Z M 30.578125 40 "/>
<path style=" stroke:none;fill-rule:nonzero;fill:rgb(0%,0%,0%);fill-opacity:1;" d="M 66.578125 200 L 66.578125 180 L 86.578125 180 L 86.578125 200 Z M 66.578125 200 "/>
<path style=" stroke:none;fill-rule:nonzero;fill:rgb(0%,0%,0%);fill-opacity:1;" d="M 66.578125 160 L 66.578125 140 L 86.578125 140 L 86.578125 160 Z M 66.578125 160 "/>
<path style=" stroke:none;fill-rule:nonzero;fill:rgb(0%,0%,0%);fill-opacity:1;" d="M 66.578125 120 L 66.578125 100 L 86.578125 100 L 86.578125 120 Z M 66.578125 120 "/>
<path style=" stroke:none;fill-rule:nonzero;fill:rgb(0%,0%,0%);fill-opacity:1;" d="M 66.578125 80 L 66.578125 60 L 86.578125 60 L 86.578125 80 Z M 66.578125 80 "/>
<path style=" stroke:none;fill-rule:nonzero;fill:rgb(0%,0%,0%);fill-opacity:1;" d="M 66.578125 40 L 66.578125 20 L 86.578125 20 L 86.578125 40 Z M 66.578125 40 "/>
<path style=" stroke:none;fill-rule:nonzero;fill:rgb(0%,0%,0%);fill-opacity:1;" d="M 102.578125 200 L 102.578125 180 L 122.578125 180 L 122.578125 200 Z M 102.578125 200 "/>
<path style=" stroke:none;fill-rule:nonzero;fill:rgb(0%,0%,0%);fill-opacity:1;" d="M 102.578125 160 L 102.578125 140 L 122.578125 140 L 122.578125 160 Z M 102.578125 160 "/>
<path style=" stroke:none;fill-rule:nonzero;fill:rgb(0%,0%,0%);fill-opacity:1;" d="M 102.578125 120 L 102.578125 100 L 122.578125 100 L 122.578125 120 Z M 102.578125 120 "/>
<path style=" stroke:none;fill-rule:nonzero;fill:rgb(0%,0%,0%);fill-opacity:1;" d="M 102.578125 80 L 102.578125 60 L 122.578125 60 L 122.578125 80 Z M 102.578125 80 "/>
<path style=" stroke:none;fill-rule:nonzero;fill:rgb(0%,0%,0%);fill-opacity:1;" d="M 102.578125 40 L 102.578125 20 L 122.578125 20 L 122.578125 40 Z M 102.578125 40 "/>
<path style=" stroke:none;fill-rule:nonzero;fill:rgb(0%,0%,0%);fill-opacity:1;" d="M 138.578125 200 L 138.578125 180 L 158.578125 180 L 158.578125 200 Z M 138.578125 200 "/>
<path style=" stroke:none;fill-rule:nonzero;fill:rgb(0%,0%,0%);fill-opacity:1;" d="M 138.578125 160 L 138.578125 140 L 158.578125 140 L 158.578125 160 Z M 138.578125 160 "/>
<path style=" stroke:none;fill-rule:nonzero;fill:rgb(0%,0%,0%);fill-opacity:1;" d="M 138.578125 120 L 138.578125 100 L 158.578125 100 L 158.578125 120 Z M 138.578125 120 "/>
<path style=" stroke:none;fill-rule:nonzero;fill:rgb(0%,0%,0%);fill-opacity:1;" d="M 138.578125 80 L 138.578125 60 L 158.578125 60 L 158.578125 80 Z M 138.578125 80 "/>
<path style=" stroke:none;fill-rule:nonzero;fill:rgb(0%,0%,0%);fill-opacity:1;" d="M 138.578125 40 L 138.578125 20 L 158.578125 20 L 158.578125 40 Z M 138.578125 40 "/>
<path style=" stroke:none;fill-rule:nonzero;fill:rgb(0%,0%,0%);fill-opacity:1;" d="M 174.578125 200 L 174.578125 180 L 194.578125 180 L 194.578125 200 Z M 174.578125 200 "/>
<path style=" stroke:none;fill-rule:nonzero;fill:rgb(0%,0%,0%);fill-opacity:1;" d="M 174.578125 160 L 174.578125 140 L 194.578125 140 L 194.578125 160 Z M 174.578125 160 "/>
<path style=" stroke:none;fill-rule:nonzero;fill:rgb(0%,0%,0%);fill-opacity:1;" d="M 174.578125 120 L 174.578125 100 L 194.578125 100 L 194.578125 120 Z M 174.578125 120 "/>
<path style=" stroke:none;fill-rule:nonzero;fill:rgb(0%,0%,0%);fill-opacity:1;" d="M 174.578125 80 L 174.578125 60 L 194.578125 60 L 194.578125 80 Z M 174.578125 80 "/>
<path style=" stroke:none;fill-rule:nonzero;fill:rgb(0%,0%,0%);fill-opacity:1;" d="M 174.578125 40 L 174.578125 20 L 194.578125 20 L 194.578125 40 Z M 174.578125 40 "/>
<path style=" stroke:none;fill-rule:nonzero;fill:rgb(0%,0%,0%);fill-opacity:1;" d="M 210.578125 200 L 210.578125 180 L 230.578125 180 L 230.578125 200 Z M 210.578125 200 "/>
<path style=" stroke:none;fill-rule:nonzero;fill:rgb(0%,0%,0%);fill-opacity:1;" d="M 210.578125 160 L 210.578125 140 L 230.578125 140 L 230.578125 160 Z M 210.578125 160 "/>
<path style=" stroke:none;fill-rule:nonzero;fill:rgb(0%,0%,0%);fill-opacity:1;" d="M 210.578125 120 L 210.578125 100 L 230.578125 100 L 230.578125 120 Z M 210.578125 120 "/>
<path style=" stroke:none;fill-rule:nonzero;fill:rgb(0%,0%,0%);fill-opacity:1;" d="M 210.578125 80 L 210.578125 60 L 230.578125 60 L 230.578125 80 Z M 210.578125 80 "/>
<path style=" stroke:none;fill-rule:nonzero;fill:rgb(0%,0%,0%);fill-opacity:1;" d="M 210.578125 40 L 210.578125 20 L 230.578125 20 L 230.578125 40 Z M 210.578125 40 "/>
<path style=" stroke:none;fill-rule:nonzero;fill:rgb(0%,0%,0%);fill-opacity:1;" d="M 246.578125 200 L 246.578125 180 L 266.578125 180 L 266.578125 200 Z M 246.578125 200 "/>
<path style=" stroke:none;fill-rule:nonzero;fill:rgb(0%,0%,0%);fill-opacity:1;" d="M 246.578125 160 L 246.578125 140 L 266.578125 140 L 266.578125 160 Z M 246.578125 160 "/>
<path style=" stroke:none;fill-rule:nonzero;fill:rgb(0%,0%,0%);fill-opacity:1;" d="M 246.578125 120 L 246.578125 100 L 266.578125 100 L 266.578125 120 Z M 246.578125 120 "/>
<path style=" stroke:none;fill-rule:nonzero;fill:rgb(0%,0%,0%);fill-opacity:1;" d="M 246.578125 80 L 246.578125 60 L 266.578125 60 L 266.578125 80 Z M 246.578125 80 "/>
<path style=" stroke:none;fill-rule:nonzero;fill:rgb(0%,0%,0%);fill-opacity:1;" d="M 246.578125 40 L 246.578125 20 L 266.578125 20 L 266.578125 40 Z M 246.578125 40 "/>
<path style=" stroke:none;fill-rule:nonzero;fill:rgb(0%,0%,0%);fill-opacity:1;" d="M 282.578125 200 L 282.578125 180 L 302.578125 180 L 302.578125 200 Z M 282.578125 200 "/>
<path style=" stroke:none;fill-rule:nonzero;fill:rgb(0%,0%,0%);fill-opacity:1;" d="M 282.578125 160 L 282.578125 140 L 302.578125 140 L 302.578125 160 Z M 282.578125 160 "/>
<path style=" stroke:none;fill-rule:nonzero;fill:rgb(0%,0%,0%);fill-opacity:1;" d="M 282.578125 120 L 282.578125 100 L 302.578125 100 L 302.578125 120 Z M 282.578125 120 "/>
<path style=" stroke:none;fill-rule:nonzero;fill:rgb(0%,0%,0%);fill-opacity:1;" d="M 282.578125 80 L 282.578125 60 L 302.578125 60 L 302.578125 80 Z M 282.578125 80 "/>
<path style=" stroke:none;fill-rule:nonzero;fill:rgb(0%,0%,0%);fill-opacity:1;" d="M 282.578125 40 L 282.578125 20 L 302.578125 20 L 302.578125 40 Z M 282.578125 40 "/>
<path style=" stroke:none;fill-rule:nonzero;fill:rgb(0%,0%,0%);fill-opacity:1;" d="M 318.578125 200 L 318.578125 180 L 338.578125 180 L 338.578125 200 Z M 318.578125 200 "/>
<path style=" stroke:none;fill-rule:nonzero;fill:rgb(0%,0%,0%);fill-opacity:1;" d="M 318.578125 160 L 318.578125 140 L 338.578125 140 L 338.578125 160 Z M 318.578125 160 "/>
<path style=" stroke:none;fill-rule:nonzero;fill:rgb(0%,0%,0%);fill-opacity:1;" d="M 318.578125 120 L 318.578125 100 L 338.578125 100 L 338.578125 120 Z M 318.578125 120 "/>
<path style=" stroke:none;fill-rule:nonzero;fill:rgb(0%,0%,0%);fill-opacity:1;" d="M 318.578125 80 L 318.578125 60 L 338.578125 60 L 338.578125 80 Z M 318.578125 80 "/>
<path style=" stroke:none;fill-rule:nonzero;fill:rgb(0%,0%,0%);fill-opacity:1;" d="M 318.578125 40 L 318.578125 20 L 338.578125 20 L 338.578125 40 Z M 318.578125 40 "/>
<path style=" stroke:none;fill-rule:nonzero;fill:rgb(0%,0%,0%);fill-opacity:1;" d="M 354.578125 200 L 354.578125 180 L 374.578125 180 L 374.578125 200 Z M 354.578125 200 "/>
<path style=" stroke:none;fill-rule:nonzero;fill:rgb(0%,0%,0%);fill-opacity:1;" d="M 354.578125 160 L 354.578125 140 L 374.578125 140 L 374.578125 160 Z M 354.578125 160 "/>
<path style=" stroke:none;fill-rule:nonzero;fill:rgb(0%,0%,0%);fill-opacity:1;" d="M 354.578125 120 L 354.578125 100 L 374.578125 100 L 374.578125 120 Z M 354.578125 120 "/>
<path style=" stroke:none;fill-rule:nonzero;fill:rgb(0%,0%,0%);fill-opacity:1;" d="M 354.578125 80 L 354.578125 60 L 374.578125 60 L 374.578125 80 Z M 354.578125 80 "/>
<path style=" stroke:none;fill-rule:nonzero;fill:rgb(0%,0%,0%);fill-opacity:1;" d="M 354.578125 40 L 354.578125 20 L 374.578125 20 L 374.578125 40 Z M 354.578125 40 "/>
<path style=" stroke:none;fill-rule:nonzero;fill:rgb(0%,0%,0%);fill-opacity:1;" d="M 390.578125 200 L 390.578125 180 L 410.578125 180 L 410.578125 200 Z M 390.578125 200 "/>
<path style=" stroke:none;fill-rule:nonzero;fill:rgb(0%,0%,0%);fill-opacity:1;" d="M 390.578125 160 L 390.578125 140 L 410.578125 140 L 410.578125 160 Z M 390.578125 160 "/>
<path style=" stroke:none;fill-rule:nonzero;fill:rgb(0%,0%,0%);fill-opacity:1;" d="M 390.578125 120 L 390.578125 100 L 410.578125 100 L 410.578125 120 Z M 390.578125 120 "/>
<path style=" stroke:none;fill-rule:nonzero;fill:rgb(0%,0%,0%);fill-opacity:1;" d="M 390.578125 80 L 390.578125 60 L 410.578125 60 L 410.578125 80 Z M 390.578125 80 "/>
<path style=" stroke:none;fill-rule:nonzero;fill:rgb(0%,0%,0%);fill-opacity:1;" d="M 390.578125 40 L 390.578125 20 L 410.578125 20 L 410.578125 40 Z M 390.578125 40 "/>
<path style="fill:none;stroke-width:1;stroke-linecap:square;stroke-linejoin:miter;stroke:rgb(100%,0%,0%);stroke-opacity:1;stroke-miterlimit:3.25;" d="M 0 220 L 400 220 "/>
<path style="fill:none;stroke-width:1;stroke-linecap:square;stroke-linejoin:miter;stroke:rgb(100%,0%,0%);stroke-opacity:1;stroke-miterlimit:3.25;" d="M 0 200 L 400 200 "/>
<path style="fill:none;stroke-width:1;stroke-linecap:square;stroke-linejoin:miter;stroke:rgb(100%,0%,0%);stroke-opacity:1;stroke-miterlimit:3.25;" d="M 0 180 L 400 180 "/>
<path style="fill:none;stroke-width:1;stroke-linecap:square;stroke-linejoin:miter;stroke:rgb(100%,0%,0%);stroke-opacity:1;stroke-miterlimit:3.25;" d="M 0 160 L 400 160 "/>
<path style="fill:none;stroke-width:1;stroke-linecap:square;stroke-linejoin:miter;stroke:rgb(100%,0%,0%);stroke-opacity:1;stroke-miterlimit:3.25;" d="M 0 140 L 400 140 "/>
<path style="fill:none;stroke-width:1;stroke-linecap:square;stroke-linejoin:miter;stroke:rgb(100%,0%,0%);stroke-opacity:1;stroke-miterlimit:3.25;" d="M 0 120 L 400 120 "/>
<path style="fill:none;stroke-width:1;stroke-linecap:square;stroke-linejoin:miter;stroke:rgb(100%,0%,0%);stroke-opacity:1;stroke-miterlimit:3.25;" d="M 0 100 L 400 100 "/>
<path style="fill:none;stroke-width:1;stroke-linecap:square;stroke-linejoin:miter;stroke:rgb(100%,0%,0%);stroke-opacity:1;stroke-miterlimit:3.25;" d="M 0 80 L 400 80 "/>
<path style="fill:none;stroke-width:1;stroke-linecap:square;stroke-linejoin:miter;stroke:rgb(100%,0%,0%);stroke-opacity:1;stroke-miterlimit:3.25;" d="M 0 60 L 400 60 "/>
<path style="fill:none;stroke-width:1;stroke-linecap:square;stroke-linejoin:miter;stroke:rgb(100%,0%,0%);stroke-opacity:1;stroke-miterlimit:3.25;" d="M 0 40 L 400 40 "/>
<path style="fill:none;stroke-width:1;stroke-linecap:square;stroke-linejoin:miter;stroke:rgb(100%,0%,0%);stroke-opacity:1;stroke-miterlimit:3.25;" d="M 0 20 L 400 20 "/>
</g>
</svg>
