<?xml version="1.0" encoding="UTF-8"?>
<svg xmlns="http://www.w3.org/2000/svg" xmlns:xlink="http://www.w3.org/1999/xlink" width="400pt" height="220pt" viewBox="0 0 400 220" version="1.1">
<g id="surface711">
<rect x="0" y="0" width="400" height="220" style="fill:rgb(0%,40%,100%);fill-opacity:0.2;stroke:none;"/>
<path style=" stroke:none;fill-rule:nonzero;fill:rgb(0%,0%,0%);fill-opacity:1;" d="M 8.515625 220 L 8.515625 200 L 28.515625 200 L 28.515625 220 Z M 8.515625 220 "/>
<path style=" stroke:none;fill-rule:nonzero;fill:rgb(0%,0%,0%);fill-opacity:1;" d="M 8.515625 180 L 8.515625 160 L 28.515625 160 L 28.515625 180 Z M 8.515625 180 "/>
<path style=" stroke:none;fill-rule:nonzero;fill:rgb(0%,0%,0%);fill-opacity:1;" d="M 8.515625 140 L 8.515625 120 L 28.515625 120 L 28.515625 140 Z M 8.515625 140 "/>
<path style=" stroke:none;fill-rule:nonzero;fill:rgb(0%,0%,0%);fill-opacity:1;" d="M 8.515625 100 L 8.515625 80 L 28.515625 80 L 28.515625 100 Z M 8.515625 100 "/>
<path style=" stroke:none;fill-rule:nonzero;fill:rgb(0%,0%,0%);fill-opacity:1;" d="M 8.515625 60 L 8.515625 40 L 28.515625 40 L 28.515625 60 Z M 8.515625 60 "/>
<path style=" stroke:none;fill-rule:nonzero;fill:rgb(0%,0%,0%);fill-opacity:1;" d="M 8.515625 20 L 8.515625 0 L 28.515625 0 L 28.515625 20 Z M 8.515625 20 "/>
<path style=" stroke:none;fill-rule:nonzero;fill:rgb(0%,0%,0%);fill-opacity:1;" d="M 44.515625 220 L 44.515625 200 L 64.515625 200 L 64.515625 220 Z M 44.515625 220 "/>
<path style=" stroke:none;fill-rule:nonzero;fill:rgb(0%,0%,0%);fill-opacity:1;" d="M 44.515625 180 L 44.515625 160 L 64.515625 160 L 64.515625 180 Z M 44.515625 180 "/>
<path style=" stroke:none;fill-rule:nonzero;fill:rgb(0%,0%,0%);fill-opacity:1;" d="M 44.515625 140 L 44.515625 120 L 64.515625 120 L 64.515625 140 Z M 44.515625 140 "/>
<path style=" stroke:none;fill-rule:nonzero;fill:rgb(0%,0%,0%);fill-opacity:1;" d="M 44.515625 100 L 44.515625 80 L 64.515625 80 L 64.515625 100 Z M 44.515625 100 "/>
<path style=" stroke:none;fill-rule:nonzero;fill:rgb(0%,0%,0%);fill-opacity:1;" d="M 44.515625 60 L 44.515625 40 L 64.515625 40 L 64.515625 60 Z M 44.515625 60 "/>
<path style=" stroke:none;fill-rule:nonzero;fill:rgb(0%,0%,0%);fill-opacity:1;" d="M 44.515625 20 L 44.515625 0 L 64.515625 0 L 64.515625 20 Z M 44.515625 20 "/>
<path style=" stroke:none;fill-rule:nonzero;fill:rgb(0%,0%,0%);fill-opacity:1;" d="M 80.515625 220 L 80.515625 200 L 100.515625 200 L 100.515625 220 Z M 80.515625 220 "/>
<path style=" stroke:none;fill-rule:nonzero;fill:rgb(0%,0%,0%);fill-opacity:1;" d="M 80.515625 180 L 80.515625 160 L 100.515625 160 L 100.515625 180 Z M 80.515625 180 "/>
<path style=" stroke:none;fill-rule:nonzero;fill:rgb(0%,0%,0%);fill-opacity:1;" d="M 80.515625 140 L 80.515625 120 L 100.515625 120 L 100.515625 140 Z M 80.515625 140 "/>
<path style=" stroke:none;fill-rule:nonzero;fill:rgb(0%,0%,0%);fill-opacity:1;" d="M 80.515625 100 L 80.515625 80 L 100.515625 80 L 100.515625 100 Z M 80.515625 100 "/>
<path style=" stroke:none;fill-rule:nonzero;fill:rgb(0%,0%,0%);fill-opacity:1;" d="M 80.515625 60 L 80.515625 40 L 100.515625 40 L 100.515625 60 Z M 80.515625 60 "/>
<path style=" stroke:none;fill-rule:nonzero;fill:rgb(0%,0%,0%);fill-opacity:1;" d="M 80.515625 20 L 80.515625 0 L 100.515625 0 L 100.515625 20 Z M 80.515625 20 "/>
<path style=" stroke:none;fill-rule:nonzero;fill:rgb(0%,0%,0%);fill-opacity:1;" d="M 116.515625 220 L 116.515625 200 L 136.515625 200 L 136.515625 220 Z M 116.515625 220 "/>
<path style=" stroke:none;fill-rule:nonzero;fill:rgb(0%,0%,0%);fill-opacity:1;" d="M 116.515625 180 L 116.515625 160 L 136.515625 160 L 136.515625 180 Z M 116.515625 180 "/>
<path style=" stroke:none;fill-rule:nonzero;fill:rgb(0%,0%,0%);fill-opacity:1;" d="M 116.515625 140 L 116.515625 120 L 136.515625 120 L 136.515625 140 Z M 116.515625 140 "/>
<path style=" stroke:none;fill-rule:nonzero;fill:rgb(0%,0%,0%);fill-opacity:1;" d="M 116.515625 100 L 116.515625 80 L 136.515625 80 L 136.515625 100 Z M 116.515625 100 "/>
<path style=" stroke:none;fill-rule:nonzero;fill:rgb(0%,0%,0%);fill-opacity:1;" d="M 116.515625 60 L 116.515625 40 L 136.515625 40 L 136.515625 60 Z M 116.515625 60 "/>
<path style=" stroke:none;fill-rule:nonzero;fill:rgb(0%,0%,0%);fill-opacity:1;" d="M 116.515625 20 L 116.515625 0 L 136.515625 0 L 136.515625 20 Z M 116.515625 20 "/>
<path style=" stroke:none;fill-rule:nonzero;fill:rgb(0%,0%,0%);fill-opacity:1;" d="M 152.515625 220 L 152.515625 200 L 172.515625 200 L 172.515625 220 Z M 152.515625 220 "/>
<path style=" stroke:none;fill-rule:nonzero;fill:rgb(0%,0%,0%);fill-opacity:1;" d="M 152.515625 180 L 152.515625 160 L 172.515625 160 L 172.515625 180 Z M 152.515625 180 "/>
<path style=" stroke:none;fill-rule:nonzero;fill:rgb(0%,0%,0%);fill-opacity:1;" d="M 152.515625 140 L 152.515625 120 L 172.515625 120 L 172.515625 140 Z M 152.515625 140 "/>
<path style=" stroke:none;fill-rule:nonzero;fill:rgb(0%,0%,0%);fill-opacity:1;" d="M 152.515625 100 L 152.515625 80 L 172.515625 80 L 172.515625 100 Z M 152.515625 100 "/>
<path style=" stroke:none;fill-rule:nonzero;fill:rgb(0%,0%,0%);fill-opacity:1;" d="M 152.515625 60 L 152.515625 40 L 172.515625 40 L 172.515625 60 Z M 152.515625 60 "/>
<path style=" stroke:none;fill-rule:nonzero;fill:rgb(0%,0%,0%);fill-opacity:1;" d="M 152.515625 20 L 152.515625 0 L 172.515625 0 L 172.515625 20 Z M 152.515625 20 "/>
<path style=" stroke:none;fill-rule:nonzero;fill:rgb(0%,0%,0%);fill-opacity:1;" d="M 188.515625 220 L 188.515625 200 L 208.515625 200 L 208.515625 220 Z M 188.515625 220 "/>
<path style=" stroke:none;fill-rule:nonzero;fill:rgb(0%,0%,0%);fill-opacity:1;" d="M 188.515625 180 L 188.515625 160 L 208.515625 160 L 208.515625 180 Z M 188.515625 180 "/>
<path style=" stroke:none;fill-rule:nonzero;fill:rgb(0%,0%,0%);fill-opacity:1;" d="M 188.515625 140 L 188.515625 120 L 208.515625 120 L 208.515625 140 Z M 188.515625 140 "/>
<path style=" stroke:none;fill-rule:nonzero;fill:rgb(0%,0%,0%);fill-opacity:1;" d="M 188.515625 100 L 188.515625 80 L 208.515625 80 L 208.515625 100 Z M 188.515625 100 "/>
<path style=" stroke:none;fill-rule:nonzero;fill:rgb(0%,0%,0%);fill-opacity:1;" d="M 188.515625 60 L 188.515625 40 L 208.515625 40 L 208.515625 60 Z M 188.515625 60 "/>
<path style=" stroke:none;fill-rule:nonzero;fill:rgb(0%,0%,0%);fill-opacity:1;" d="M 188.515625 20 L 188.515625 0 L 208.515625 0 L 208.515625 20 Z M 188.515625 20 "/>
<path style=" stroke:none;fill-rule:nonzero;fill:rgb(0%,0%,0%);fill-opacity:1;" d="M 224.515625 220 L 224.515625 200 L 244.515625 200 L 244.515625 220 Z M 224.515625 220 "/>
<path style=" stroke:none;fill-rule:nonzero;fill:rgb(0%,0%,0%);fill-opacity:1;" d="M 224.515625 180 L 224.515625 160 L 244.515625 160 L 244.515625 180 Z M 224.515625 180 "/>
<path style=" stroke:none;fill-rule:nonzero;fill:rgb(0%,0%,0%);fill-opacity:1;" d="M 224.515625 140 L 224.515625 120 L 244.515625 120 L 244.515625 140 Z M 224.515625 140 "/>
<path style=" stroke:none;fill-rule:nonzero;fill:rgb(0%,0%,0%);fill-opacity:1;" d="M 224.515625 100 L 224.515625 80 L 244.515625 80 L 244.515625 100 Z M 224.515625 100 "/>
<path style=" stroke:none;fill-rule:nonzero;fill:rgb(0%,0%,0%);fill-opacity:1;" d="M 224.515625 60 L 224.515625 40 L 244.515625 40 L 244.515625 60 Z M 224.515625 60 "/>
<path style=" stroke:none;fill-rule:nonzero;fill:rgb(0%,0%,0%);fill-opacity:1;" d="M 224.515625 20 L 224.515625 0 L 244.515625 0 L 244.515625 20 Z M 224.515625 20 "/>
<path style=" stroke:none;fill-rule:nonzero;fill:rgb(0%,0%,0%);fill-opacity:1;" d="M 260.515625 220 L 260.515625 200 L 280.515625 200 L 280.515625 220 Z M 260.515625 220 "/>
<path style=" stroke:none;fill-rule:nonzero;fill:rgb(0%,0%,0%);fill-opacity:1;" d="M 260.515625 180 L 260.515625 160 L 280.515625 160 L 280.515625 180 Z M 260.515625 180 "/>
<path style=" stroke:none;fill-rule:nonzero;fill:rgb(0%,0%,0%);fill-opacity:1;" d="M 260.515625 140 L 260.515625 120 L 280.515625 120 L 280.515625 140 Z M 260.515625 140 "/>
<path style=" stroke:none;fill-rule:nonzero;fill:rgb(0%,0%,0%);fill-opacity:1;" d="M 260.515625 100 L 260.515625 80 L 280.515625 80 L 280.515625 100 Z M 260.515625 100 "/>
<path style=" stroke:none;fill-rule:nonzero;fill:rgb(0%,0%,0%);fill-opacity:1;" d="M 260.515625 60 L 260.515625 40 L 280.515625 40 L 280.515625 60 Z M 260.515625 60 "/>
<path style=" stroke:none;fill-rule:nonzero;fill:rgb(0%,0%,0%);fill-opacity:1;" d="M 260.515625 20 L 260.515625 0 L 280.515625 0 L 280.515625 20 Z M 260.515625 20 "/>
<path style=" stroke:none;fill-rule:nonzero;fill:rgb(0%,0%,0%);fill-opacity:1;" d="M 296.515625 220 L 296.515625 200 L 316.515625 200 L 316.515625 220 Z M 296.515625 220 "/>
<path style=" stroke:none;fill-rule:nonzero;fill:rgb(0%,0%,0%);fill-opacity:1;" d="M 296.515625 180 L 296.515625 160 L 316.515625 160 L 316.515625 180 Z M 296.515625 180 "/>
<path style=" stroke:none;fill-rule:nonzero;fill:rgb(0%,0%,0%);fill-opacity:1;" d="M 296.515625 140 L 296.515625 120 L 316.515625 120 L 316.515625 140 Z M 296.515625 140 "/>
<path style=" stroke:none;fill-rule:nonzero;fill:rgb(0%,0%,0%);fill-opacity:1;" d="M 296.515625 100 L 296.515625 80 L 316.515625 80 L 316.515625 100 Z M 296.515625 100 "/>
<path style=" stroke:none;fill-rule:nonzero;fill:rgb(0%,0%,0%);fill-opacity:1;" d="M 296.515625 60 L 296.515625 40 L 316.515625 40 L 316.515625 60 Z M 296.515625 60 "/>
<path style=" stroke:none;fill-rule:nonzero;fill:rgb(0%,0%,0%);fill-opacity:1;" d="M 296.515625 20 L 296.515625 0 L 316.515625 0 L 316.515625 20 Z M 296.515625 20 "/>
<path style=" stroke:none;fill-rule:nonzero;fill:rgb(0%,0%,0%);fill-opacity:1;" d="M 332.515625 220 L 332.515625 200 L 352.515625 200 L 352.515625 220 Z M 332.515625 220 "/>
<path style=" stroke:none;fill-rule:nonzero;fill:rgb(0%,0%,0%);fill-opacity:1;" d="M 332.515625 180 L 332.515625 160 L 352.515625 160 L 352.515625 180 Z M 332.515625 180 "/>
<path style=" stroke:none;fill-rule:nonzero;fill:rgb(0%,0%,0%);fill-opacity:1;" d="M 332.515625 140 L 332.515625 120 L 352.515625 120 L 352.515625 140 Z M 332.515625 140 "/>
<path style=" stroke:none;fill-rule:nonzero;fill:rgb(0%,0%,0%);fill-opacity:1;" d="M 332.515625 100 L 332.515625 80 L 352.515625 80 L 352.515625 100 Z M 332.515625 100 "/>
<path style=" stroke:none;fill-rule:nonzero;fill:rgb(0%,0%,0%);fill-opacity:1;" d="M 332.515625 60 L 332.515625 40 L 352.515625 40 L 352.515625 60 Z M 332.515625 60 "/>
<path style=" stroke:none;fill-rule:nonzero;fill:rgb(0%,0%,0%);fill-opacity:1;" d="M 332.515625 20 L 332.515625 0 L 352.515625 0 L 352.515625 20 Z M 332.515625 20 "/>
<path style=" stroke:none;fill-rule:nonzero;fill:rgb(0%,0%,0%);fill-opacity:1;" d="M 368.515625 220 L 368.515625 200 L 388.515625 200 L 388.515625 220 Z M 368.515625 220 "/>
<path style=" stroke:none;fill-rule:nonzero;fill:rgb(0%,0%,0%);fill-opacity:1;" d="M 368.515625 180 L 368.515625 160 L 388.515625 160 L 388.515625 180 Z M 368.515625 180 "/>
<path style=" stroke:none;fill-rule:nonzero;fill:rgb(0%,0%,0%);fill-opacity:1;" d="M 368.515625 140 L 368.515625 120 L 388.515625 120 L 388.515625 140 Z M 368.515625 140 "/>
<path style=" stroke:none;fill-rule:nonzero;fill:rgb(0%,0%,0%);fill-opacity:1;" d="M 368.515625 100 L 368.515625 80 L 388.515625 80 L 388.515625 100 Z M 368.515625 100 "/>
<path style=" stroke:none;fill-rule:nonzero;fill:rgb(0%,0%,0%);fill-opacity:1;" d="M 368.515625 60 L 368.515625 40 L 388.515625 40 L 388.515625 60 Z M 368.515625 60 "/>
<path style=" stroke:none;fill-rule:nonzero;fill:rgb(0%,0%,0%);fill-opacity:1;" d="M 368.515625 20 L 368.515625 0 L 388.515625 0 L 388.515625 20 Z M 368.515625 20 "/>
<path style=" stroke:none;fill-rule:nonzero;fill:rgb(0%,0%,0%);fill-opacity:1;" d="M -1.902344 200 L -1.902344 180 L 18.097656 180 L 18.097656 200 Z M -1.902344 200 "/>
<path style=" stroke:none;fill-rule:nonzero;fill:rgb(0%,0%,0%);fill-opacity:1;" d="M -1.902344 160 L -1.902344 140 L 18.097656 140 L 18.097656 160 Z M -1.902344 160 "/>
<path style=" stroke:none;fill-rule:nonzero;fill:rgb(0%,0%,0%);fill-opacity:1;" d="M -1.902344 120 L -1.902344 100 L 18.097656 100 L 18.097656 120 Z M -1.902344 120 "/>
<path style=" stroke:none;fill-rule:nonzero;fill:rgb(0%,0%,0%);fill-opacity:1;" d="M -1.902344 80 L -1.902344 60 L 18.097656 60 L 18.097656 80 Z M -1.902344 80 "/>
<path style=" stroke:none;fill-rule:nonzero;fill:rgb(0%,0%,0%);fill-opacity:1;" d="M -1.902344 40 L -1.902344 20 L 18.097656 20 L 18.097656 40 Z M -1.902344 40 "/>
<path style=" stroke:none;fill-rule:nonzero;fill:rgb(0%,0%,0%);fill-opacity:1;" d="M 34.097656 200 L 34.097656 180 L 54.097656 180 L 54.097656 200 Z M 34.097656 200 "/>
<path style=" stroke:none;fill-rule:nonzero;fill:rgb(0%,0%,0%);fill-opacity:1;" d="M 34.097656 160 L 34.097656 140 L 54.097656 140 L 54.097656 160 Z M 34.097656 160 "/>
<path style=" stroke:none;fill-rule:nonzero;fill:rgb(0%,0%,0%);fill-opacity:1;" d="M 34.097656 120 L 34.097656 100 L 54.097656 100 L 54.097656 120 Z M 34.097656 120 "/>
<path style=" stroke:none;fill-rule:nonzero;fill:rgb(0%,0%,0%);fill-opacity:1;" d="M 34.097656 80 L 34.097656 60 L 54.097656 60 L 54.097656 80 Z M 34.097656 80 "/>
<path style=" stroke:none;fill-rule:nonzero;fill:rgb(0%,0%,0%);fill-opacity:1;" d="M 34.097656 40 L 34.097656 20 L 54.097656 20 L 54.097656 40 Z M 34.097656 40 "/>
<path style=" stroke:none;fill-rule:nonzero;fill:rgb(0%,0%,0%);fill-opacity:1;" d="M 70.097656 200 L 70.097656 180 L 90.097656 180 L 90.097656 200 Z M 70.097656 200 "/>
<path style=" stroke:none;fill-rule:nonzero;fill:rgb(0%,0%,0%);fill-opacity:1;" d="M 70.097656 160 L 70.097656 140 L 90.097656 140 L 90.097656 160 Z M 70.097656 160 "/>
<path style=" stroke:none;fill-rule:nonzero;fill:rgb(0%,0%,0%);fill-opacity:1;" d="M 70.097656 120 L 70.097656 100 L 90.097656 100 L 90.097656 120 Z M 70.097656 120 "/>
<path style=" stroke:none;fill-rule:nonzero;fill:rgb(0%,0%,0%);fill-opacity:1;" d="M 70.097656 80 L 70.097656 60 L 90.097656 60 L 90.097656 80 Z M 70.097656 80 "/>
<path style=" stroke:none;fill-rule:nonzero;fill:rgb(0%,0%,0%);fill-opacity:1;" d="M 70.097656 40 L 70.097656 20 L 90.097656 20 L 90.097656 40 Z M 70.097656 40 "/>
<path style=" stroke:none;fill-rule:nonzero;fill:rgb(0%,0%,0%);fill-opacity:1;" d="M 106.097656 200 L 106.097656 180 L 126.097656 180 L 126.097656 200 Z M 106.097656 200 "/>
<path style=" stroke:none;fill-rule:nonzero;fill:rgb(0%,0%,0%);fill-opacity:1;" d="M 106.097656 160 L 106.097656 140 L 126.097656 140 L 126.097656 160 Z M 106.097656 160 "/>
<path style=" stroke:none;fill-rule:nonzero;fill:rgb(0%,0%,0%);fill-opacity:1;" d="M 106.097656 120 L 106.097656 100 L 126.097656 100 L 126.097656 120 Z M 106.097656 120 "/>
<path style=" stroke:none;fill-rule:nonzero;fill:rgb(0%,0%,0%);fill-opacity:1;" d="M 106.097656 80 L 106.097656 60 L 126.097656 60 L 126.097656 80 Z M 106.097656 80 "/>
<path style=" stroke:none;fill-rule:nonzero;fill:rgb(0%,0%,0%);fill-opacity:1;" d="M 106.097656 40 L 106.097656 20 L 126.097656 20 L 126.097656 40 Z M 106.097656 40 "/>
<path style=" stroke:none;fill-rule:nonzero;fill:rgb(0%,0%,0%);fill-opacity:1;" d="M 142.097656 200 L 142.097656 180 L 162.097656 180 L 162.097656 200 Z M 142.097656 200 "/>
<path style=" stroke:none;fill-rule:nonzero;fill:rgb(0%,0%,0%);fill-opacity:1;" d="M 142.097656 160 L 142.097656 140 L 162.097656 140 L 162.097656 160 Z M 142.097656 160 "/>
<path style=" stroke:none;fill-rule:nonzero;fill:rgb(0%,0%,0%);fill-opacity:1;" d="M 142.097656 120 L 142.097656 100 L 162.097656 100 L 162.097656 120 Z M 142.097656 120 "/>
<path style=" stroke:none;fill-rule:nonzero;fill:rgb(0%,0%,0%);fill-opacity:1;" d="M 142.097656 80 L 142.097656 60 L 162.097656 60 L 162.097656 80 Z M 142.097656 80 "/>
<path style=" stroke:none;fill-rule:nonzero;fill:rgb(0%,0%,0%);fill-opacity:1;" d="M 142.097656 40 L 142.097656 20 L 162.097656 20 L 162.097656 40 Z M 142.097656 40 "/>
<path style=" stroke:none;fill-rule:nonzero;fill:rgb(0%,0%,0%);fill-opacity:1;" d="M 178.097656 200 L 178.097656 180 L 198.097656 180 L 198.097656 200 Z M 178.097656 200 "/>
<path style=" stroke:none;fill-rule:nonzero;fill:rgb(0%,0%,0%);fill-opacity:1;" d="M 178.097656 160 L 178.097656 140 L 198.097656 140 L 198.097656 160 Z M 178.097656 160 "/>
<path style=" stroke:none;fill-rule:nonzero;fill:rgb(0%,0%,0%);fill-opacity:1;" d="M 178.097656 120 L 178.097656 100 L 198.097656 100 L 198.097656 120 Z M 178.097656 120 "/>
<path style=" stroke:none;fill-rule:nonzero;fill:rgb(0%,0%,0%);fill-opacity:1;" d="M 178.097656 80 L 178.097656 60 L 198.097656 60 L 198.097656 80 Z M 178.097656 80 "/>
<path style=" stroke:none;fill-rule:nonzero;fill:rgb(0%,0%,0%);fill-opacity:1;" d="M 178.097656 40 L 178.097656 20 L 198.097656 20 L 198.097656 40 Z M 178.097656 40 "/>
<path style=" stroke:none;fill-rule:nonzero;fill:rgb(0%,0%,0%);fill-opacity:1;" d="M 214.097656 200 L 214.097656 180 L 234.097656 180 L 234.097656 200 Z M 214.097656 200 "/>
<path style=" stroke:none;fill-rule:nonzero;fill:rgb(0%,0%,0%);fill-opacity:1;" d="M 214.097656 160 L 214.097656 140 L 234.097656 140 L 234.097656 160 Z M 214.097656 160 "/>
<path style=" stroke:none;fill-rule:nonzero;fill:rgb(0%,0%,0%);fill-opacity:1;" d="M 214.097656 120 L 214.097656 100 L 234.097656 100 L 234.097656 120 Z M 214.097656 120 "/>
<path style=" stroke:none;fill-rule:nonzero;fill:rgb(0%,0%,0%);fill-opacity:1;" d="M 214.097656 80 L 214.097656 60 L 234.097656 60 L 234.097656 80 Z M 214.097656 80 "/>
<path style=" stroke:none;fill-rule:nonzero;fill:rgb(0%,0%,0%);fill-opacity:1;" d="M 214.097656 40 L 214.097656 20 L 234.097656 20 L 234.097656 40 Z M 214.097656 40 "/>
<path style=" stroke:none;fill-rule:nonzero;fill:rgb(0%,0%,0%);fill-opacity:1;" d="M 250.097656 200 L 250.097656 180 L 270.097656 180 L 270.097656 200 Z M 250.097656 200 "/>
<path style=" stroke:none;fill-rule:nonzero;fill:rgb(0%,0%,0%);fill-opacity:1;" d="M 250.097656 160 L 250.097656 140 L 270.097656 140 L 270.097656 160 Z M 250.097656 160 "/>
<path style=" stroke:none;fill-rule:nonzero;fill:rgb(0%,0%,0%);fill-opacity:1;" d="M 250.097656 120 L 250.097656 100 L 270.097656 100 L 270.097656 120 Z M 250.097656 120 "/>
<path style=" stroke:none;fill-rule:nonzero;fill:rgb(0%,0%,0%);fill-opacity:1;" d="M 250.097656 80 L 250.097656 60 L 270.097656 60 L 270.097656 80 Z M 250.097656 80 "/>
<path style=" stroke:none;fill-rule:nonzero;fill:rgb(0%,0%,0%);fill-opacity:1;" d="M 250.097656 40 L 250.097656 20 L 270.097656 20 L 270.097656 40 Z M 250.097656 40 "/>
<path style=" stroke:none;fill-rule:nonzero;fill:rgb(0%,0%,0%);fill-opacity:1;" d="M 286.097656 200 L 286.097656 180 L 306.097656 180 L 306.097656 200 Z M 286.097656 200 "/>
<path style=" stroke:none;fill-rule:nonzero;fill:rgb(0%,0%,0%);fill-opacity:1;" d="M 286.097656 160 L 286.097656 140 L 306.097656 140 L 306.097656 160 Z M 286.097656 160 "/>
<path style=" stroke:none;fill-rule:nonzero;fill:rgb(0%,0%,0%);fill-opacity:1;" d="M 286.097656 120 L 286.097656 100 L 306.097656 100 L 306.097656 120 Z M 286.097656 120 "/>
<path style=" stroke:none;fill-rule:nonzero;fill:rgb(0%,0%,0%);fill-opacity:1;" d="M 286.097656 80 L 286.097656 60 L 306.097656 60 L 306.097656 80 Z M 286.097656 80 "/>
<path style=" stroke:none;fill-rule:nonzero;fill:rgb(0%,0%,0%);fill-opacity:1;" d="M 286.097656 40 L 286.097656 20 L 306.097656 20 L 306.097656 40 Z M 286.097656 40 "/>
<path style=" stroke:none;fill-rule:nonzero;fill:rgb(0%,0%,0%);fill-opacity:1;" d="M 322.097656 200 L 322.097656 180 L 342.097656 180 L 342.097656 200 Z M 322.097656 200 "/>
<path style=" stroke:none;fill-rule:nonzero;fill:rgb(0%,0%,0%);fill-opacity:1;" d="M 322.097656 160 L 322.097656 140 L 342.097656 140 L 342.097656 160 Z M 322.097656 160 "/>
<path style=" stroke:none;fill-rule:nonzero;fill:rgb(0%,0%,0%);fill-opacity:1;" d="M 322.097656 120 L 322.097656 100 L 342.097656 100 L 342.097656 120 Z M 322.097656 120 "/>
<path style=" stroke:none;fill-rule:nonzero;fill:rgb(0%,0%,0%);fill-opacity:1;" d="M 322.097656 80 L 322.097656 60 L 342.097656 60 L 342.097656 80 Z M 322.097656 80 "/>
<path style=" stroke:none;fill-rule:nonzero;fill:rgb(0%,0%,0%);fill-opacity:1;" d="M 322.097656 40 L 322.097656 20 L 342.097656 20 L 342.097656 40 Z M 322.097656 40 "/>
<path style=" stroke:none;fill-rule:nonzero;fill:rgb(0%,0%,0%);fill-opacity:1;" d="M 358.097656 200 L 358.097656 180 L 378.097656 180 L 378.097656 200 Z M 358.097656 200 "/>
<path style=" stroke:none;fill-rule:nonzero;fill:rgb(0%,0%,0%);fill-opacity:1;" d="M 358.097656 160 L 358.097656 140 L 378.097656 140 L 378.097656 160 Z M 358.097656 160 "/>
<path style=" stroke:none;fill-rule:nonzero;fill:rgb(0%,0%,0%);fill-opacity:1;" d="M 358.097656 120 L 358.097656 100 L 378.097656 100 L 378.097656 120 Z M 358.097656 120 "/>
<path style=" stroke:none;fill-rule:nonzero;fill:rgb(0%,0%,0%);fill-opacity:1;" d="M 358.097656 80 L 358.097656 60 L 378.097656 60 L 378.097656 80 Z M 358.097656 80 "/>
<path style=" stroke:none;fill-rule:nonzero;fill:rgb(0%,0%,0%);fill-opacity:1;" d="M 358.097656 40 L 358.097656 20 L 378.097656 20 L 378.097656 40 Z M 358.097656 40 "/>
<path style=" stroke:none;fill-rule:nonzero;fill:rgb(0%,0%,0%);fill-opacity:1;" d="M 394.097656 200 L 394.097656 180 L 414.097656 180 L 414.097656 200 Z M 394.097656 200 "/>
<path style=" stroke:none;fill-rule:nonzero;fill:rgb(0%,0%,0%);fill-opacity:1;" d="M 394.097656 160 L 394.097656 140 L 414.097656 140 L 414.097656 160 Z M 394.097656 160 "/>
<path style=" stroke:none;fill-rule:nonzero;fill:rgb(0%,0%,0%);fill-opacity:1;" d="M 394.097656 120 L 394.097656 100 L 414.097656 100 L 414.097656 120 Z M 394.097656 120 "/>
<path style=" stroke:none;fill-rule:nonzero;fill:rgb(0%,0%,0%);fill-opacity:1;" d="M 394.097656 80 L 394.097656 60 L 414.097656 60 L 414.097656 80 Z M 394.097656 80 "/>
<path style=" stroke:none;fill-rule:nonzero;fill:rgb(0%,0%,0%);fill-opacity:1;" d="M 394.097656 40 L 394.097656 20 L 414.097656 20 L 414.097656 40 Z M 394.097656 40 "/>
<path style="fill:none;stroke-width:1;stroke-linecap:square;stroke-linejoin:miter;stroke:rgb(100%,0%,0%);stroke-opacity:1;stroke-miterlimit:3.25;" d="M 0 220 L 400 220 "/>
<path style="fill:none;stroke-width:1;stroke-linecap:square;stroke-linejoin:miter;stroke:rgb(100%,0%,0%);stroke-opacity:1;stroke-miterlimit:3.25;" d="M 0 200 L 400 200 "/>
<path style="fill:none;stroke-width:1;stroke-linecap:square;stroke-linejoin:miter;stroke:rgb(100%,0%,0%);stroke-opacity:1;stroke-miterlimit:3.25;" d="M 0 180 L 400 180 "/>
<path style="fill:none;stroke-width:1;stroke-linecap:square;stroke-linejoin:miter;stroke:rgb(100%,0%,0%);stroke-opacity:1;stroke-miterlimit:3.25;" d="M 0 160 L 400 160 "/>
<path style="fill:none;stroke-width:1;stroke-linecap:square;stroke-linejoin:miter;stroke:rgb(100%,0%,0%);stroke-opacity:1;stroke-miterlimit:3.25;" d="M 0 140 L 400 140 "/>
<path style="fill:none;stroke-width:1;stroke-linecap:square;stroke-linejoin:miter;stroke:rgb(100%,0%,0%);stroke-opacity:1;stroke-miterlimit:3.25;" d="M 0 120 L 400 120 "/>
<path style="fill:none;stroke-width:1;stroke-linecap:square;stroke-linejoin:miter;stroke:rgb(100%,0%,0%);stroke-opacity:1;stroke-miterlimit:3.25;" d="M 0 100 L 400 100 "/>
<path style="fill:none;stroke-width:1;stroke-linecap:square;stroke-linejoin:miter;stroke:rgb(100%,0%,0%);stroke-opacity:1;stroke-miterlimit:3.25;" d="M 0 80 L 400 80 "/>
<path style="fill:none;stroke-width:1;stroke-linecap:square;stroke-linejoin:miter;stroke:rgb(100%,0%,0%);stroke-opacity:1;stroke-miterlimit:3.25;" d="M 0 60 L 400 60 "/>
<path style="fill:none;stroke-width:1;stroke-linecap:square;stroke-linejoin:miter;stroke:rgb(100%,0%,0%);stroke-opacity:1;stroke-miterlimit:3.25;" d="M 0 40 L 400 40 "/>
<path style="fill:none;stroke-width:1;stroke-linecap:square;stroke-linejoin:miter;stroke:rgb(100%,0%,0%);stroke-opacity:1;stroke-miterlimit:3.25;" d="M 0 20 L 400 20 "/>
</g>
</svg>
