<?xml version="1.0" encoding="UTF-8"?>
<svg xmlns="http://www.w3.org/2000/svg" xmlns:xlink="http://www.w3.org/1999/xlink" width="400pt" height="220pt" viewBox="0 0 400 220" version="1.1">
<g id="surface831">
<rect x="0" y="0" width="400" height="220" style="fill:rgb(0%,40%,100%);fill-opacity:0.2;stroke:none;"/>
<path style=" stroke:none;fill-rule:nonzero;fill:rgb(0%,0%,0%);fill-opacity:1;" d="M -17.527344 220 L -17.527344 200 L 2.472656 200 L 2.472656 220 Z M -17.527344 220 "/>
<path style=" stroke:none;fill-rule:nonzero;fill:rgb(0%,0%,0%);fill-opacity:1;" d="M -17.527344 180 L -17.527344 160 L 2.472656 160 L 2.472656 180 Z M -17.527344 180 "/>
<path style=" stroke:none;fill-rule:nonzero;fill:rgb(0%,0%,0%);fill-opacity:1;" d="M -17.527344 140 L -17.527344 120 L 2.472656 120 L 2.472656 140 Z M -17.527344 140 "/>
<path style=" stroke:none;fill-rule:nonzero;fill:rgb(0%,0%,0%);fill-opacity:1;" d="M -17.527344 100 L -17.527344 80 L 2.472656 80 L 2.472656 100 Z M -17.527344 100 "/>
<path style=" stroke:none;fill-rule:nonzero;fill:rgb(0%,0%,0%);fill-opacity:1;" d="M -17.527344 60 L -17.527344 40 L 2.472656 40 L 2.472656 60 Z M -17.527344 60 "/>
<path style=" stroke:none;fill-rule:nonzero;fill:rgb(0%,0%,0%);fill-opacity:1;" d="M -17.527344 20 L -17.527344 0 L 2.472656 0 L 2.472656 20 Z M -17.527344 20 "/>
<path style=" stroke:none;fill-rule:nonzero;fill:rgb(0%,0%,0%);fill-opacity:1;" d="M 18.472656 220 L 18.472656 200 L 38.472656 200 L 38.472656 220 Z M 18.472656 220 "/>
<path style=" stroke:none;fill-rule:nonzero;fill:rgb(0%,0%,0%);fill-opacity:1;" d="M 18.472656 180 L 18.472656 160 L 38.472656 160 L 38.472656 180 Z M 18.472656 180 "/>
<path style=" stroke:none;fill-rule:nonzero;fill:rgb(0%,0%,0%);fill-opacity:1;" d="M 18.472656 140 L 18.472656 120 L 38.472656 120 L 38.472656 140 Z M 18.472656 140 "/>
<path style=" stroke:none;fill-rule:nonzero;fill:rgb(0%,0%,0%);fill-opacity:1;" d="M 18.472656 100 L 18.472656 80 L 38.472656 80 L 38.472656 100 Z M 18.472656 100 "/>
<path style=" stroke:none;fill-rule:nonzero;fill:rgb(0%,0%,0%);fill-opacity:1;" d="M 18.472656 60 L 18.472656 40 L 38.472656 40 L 38.472656 60 Z M 18.472656 60 "/>
<path style=" stroke:none;fill-rule:nonzero;fill:rgb(0%,0%,0%);fill-opacity:1;" d="M 18.472656 20 L 18.472656 0 L 38.472656 0 L 38.472656 20 Z M 18.472656 20 "/>
<path style=" stroke:none;fill-rule:nonzero;fill:rgb(0%,0%,0%);fill-opacity:1;" d="M 54.472656 220 L 54.472656 200 L 74.472656 200 L 74.472656 220 Z M 54.472656 220 "/>
<path style=" stroke:none;fill-rule:nonzero;fill:rgb(0%,0%,0%);fill-opacity:1;" d="M 54.472656 180 L 54.472656 160 L 74.472656 160 L 74.472656 180 Z M 54.472656 180 "/>
<path style=" stroke:none;fill-rule:nonzero;fill:rgb(0%,0%,0%);fill-opacity:1;" d="M 54.472656 140 L 54.472656 120 L 74.472656 120 L 74.472656 140 Z M 54.472656 140 "/>
<path style=" stroke:none;fill-rule:nonzero;fill:rgb(0%,0%,0%);fill-opacity:1;" d="M 54.472656 100 L 54.472656 80 L 74.472656 80 L 74.472656 100 Z M 54.472656 100 "/>
<path style=" stroke:none;fill-rule:nonzero;fill:rgb(0%,0%,0%);fill-opacity:1;" d="M 54.472656 60 L 54.472656 40 L 74.472656 40 L 74.472656 60 Z M 54.472656 60 "/>
<path style=" stroke:none;fill-rule:nonzero;fill:rgb(0%,0%,0%);fill-opacity:1;" d="M 54.472656 20 L 54.472656 0 L 74.472656 0 L 74.472656 20 Z M 54.472656 20 "/>
<path style=" stroke:none;fill-rule:nonzero;fill:rgb(0%,0%,0%);fill-opacity:1;" d="M 90.472656 220 L 90.472656 200 L 110.472656 200 L 110.472656 220 Z M 90.472656 220 "/>
<path style=" stroke:none;fill-rule:nonzero;fill:rgb(0%,0%,0%);fill-opacity:1;" d="M 90.472656 180 L 90.472656 160 L 110.472656 160 L 110.472656 180 Z M 90.472656 180 "/>
<path style=" stroke:none;fill-rule:nonzero;fill:rgb(0%,0%,0%);fill-opacity:1;" d="M 90.472656 140 L 90.472656 120 L 110.472656 120 L 110.472656 140 Z M 90.472656 140 "/>
<path style=" stroke:none;fill-rule:nonzero;fill:rgb(0%,0%,0%);fill-opacity:1;" d="M 90.472656 100 L 90.472656 80 L 110.472656 80 L 110.472656 100 Z M 90.472656 100 "/>
<path style=" stroke:none;fill-rule:nonzero;fill:rgb(0%,0%,0%);fill-opacity:1;" d="M 90.472656 60 L 90.472656 40 L 110.472656 40 L 110.472656 60 Z M 90.472656 60 "/>
<path style=" stroke:none;fill-rule:nonzero;fill:rgb(0%,0%,0%);fill-opacity:1;" d="M 90.472656 20 L 90.472656 0 L 110.472656 0 L 110.472656 20 Z M 90.472656 20 "/>
<path style=" stroke:none;fill-rule:nonzero;fill:rgb(0%,0%,0%);fill-opacity:1;" d="M 126.472656 220 L 126.472656 200 L 146.472656 200 L 146.472656 220 Z M 126.472656 220 "/>
<path style=" stroke:none;fill-rule:nonzero;fill:rgb(0%,0%,0%);fill-opacity:1;" d="M 126.472656 180 L 126.472656 160 L 146.472656 160 L 146.472656 180 Z M 126.472656 180 "/>
<path style=" stroke:none;fill-rule:nonzero;fill:rgb(0%,0%,0%);fill-opacity:1;" d="M 126.472656 140 L 126.472656 120 L 146.472656 120 L 146.472656 140 Z M 126.472656 140 "/>
<path style=" stroke:none;fill-rule:nonzero;fill:rgb(0%,0%,0%);fill-opacity:1;" d="M 126.472656 100 L 126.472656 80 L 146.472656 80 L 146.472656 100 Z M 126.472656 100 "/>
<path style=" stroke:none;fill-rule:nonzero;fill:rgb(0%,0%,0%);fill-opacity:1;" d="M 126.472656 60 L 126.472656 40 L 146.472656 40 L 146.472656 60 Z M 126.472656 60 "/>
<path style=" stroke:none;fill-rule:nonzero;fill:rgb(0%,0%,0%);fill-opacity:1;" d="M 126.472656 20 L 126.472656 0 L 146.472656 0 L 146.472656 20 Z M 126.472656 20 "/>
<path style=" stroke:none;fill-rule:nonzero;fill:rgb(0%,0%,0%);fill-opacity:1;" d="M 162.472656 220 L 162.472656 200 L 182.472656 200 L 182.472656 220 Z M 162.472656 220 "/>
<path style=" stroke:none;fill-rule:nonzero;fill:rgb(0%,0%,0%);fill-opacity:1;" d="M 162.472656 180 L 162.472656 160 L 182.472656 160 L 182.472656 180 Z M 162.472656 180 "/>
<path style=" stroke:none;fill-rule:nonzero;fill:rgb(0%,0%,0%);fill-opacity:1;" d="M 162.472656 140 L 162.472656 120 L 182.472656 120 L 182.472656 140 Z M 162.472656 140 "/>
<path style=" stroke:none;fill-rule:nonzero;fill:rgb(0%,0%,0%);fill-opacity:1;" d="M 162.472656 100 L 162.472656 80 L 182.472656 80 L 182.472656 100 Z M 162.472656 100 "/>
<path style=" stroke:none;fill-rule:nonzero;fill:rgb(0%,0%,0%);fill-opacity:1;" d="M 162.472656 60 L 162.472656 40 L 182.472656 40 L 182.472656 60 Z M 162.472656 60 "/>
<path style=" stroke:none;fill-rule:nonzero;fill:rgb(0%,0%,0%);fill-opacity:1;" d="M 162.472656 20 L 162.472656 0 L 182.472656 0 L 182.472656 20 Z M 162.472656 20 "/>
<path style=" stroke:none;fill-rule:nonzero;fill:rgb(0%,0%,0%);fill-opacity:1;" d="M 198.472656 220 L 198.472656 200 L 218.472656 200 L 218.472656 220 Z M 198.472656 220 "/>
<path style=" stroke:none;fill-rule:nonzero;fill:rgb(0%,0%,0%);fill-opacity:1;" d="M 198.472656 180 L 198.472656 160 L 218.472656 160 L 218.472656 180 Z M 198.472656 180 "/>
<path style=" stroke:none;fill-rule:nonzero;fill:rgb(0%,0%,0%);fill-opacity:1;" d="M 198.472656 140 L 198.472656 120 L 218.472656 120 L 218.472656 140 Z M 198.472656 140 "/>
<path style=" stroke:none;fill-rule:nonzero;fill:rgb(0%,0%,0%);fill-opacity:1;" d="M 198.472656 100 L 198.472656 80 L 218.472656 80 L 218.472656 100 Z M 198.472656 100 "/>
<path style=" stroke:none;fill-rule:nonzero;fill:rgb(0%,0%,0%);fill-opacity:1;" d="M 198.472656 60 L 198.472656 40 L 218.472656 40 L 218.472656 60 Z M 198.472656 60 "/>
<path style=" stroke:none;fill-rule:nonzero;fill:rgb(0%,0%,0%);fill-opacity:1;" d="M 198.472656 20 L 198.472656 0 L 218.472656 0 L 218.472656 20 Z M 198.472656 20 "/>
<path style=" stroke:none;fill-rule:nonzero;fill:rgb(0%,0%,0%);fill-opacity:1;" d="M 234.472656 220 L 234.472656 200 L 254.472656 200 L 254.472656 220 Z M 234.472656 220 "/>
<path style=" stroke:none;fill-rule:nonzero;fill:rgb(0%,0%,0%);fill-opacity:1;" d="M 234.472656 180 L 234.472656 160 L 254.472656 160 L 254.472656 180 Z M 234.472656 180 "/>
<path style=" stroke:none;fill-rule:nonzero;fill:rgb(0%,0%,0%);fill-opacity:1;" d="M 234.472656 140 L 234.472656 120 L 254.472656 120 L 254.472656 140 Z M 234.472656 140 "/>
<path style=" stroke:none;fill-rule:nonzero;fill:rgb(0%,0%,0%);fill-opacity:1;" d="M 234.472656 100 L 234.472656 80 L 254.472656 80 L 254.472656 100 Z M 234.472656 100 "/>
<path style=" stroke:none;fill-rule:nonzero;fill:rgb(0%,0%,0%);fill-opacity:1;" d="M 234.472656 60 L 234.472656 40 L 254.472656 40 L 254.472656 60 Z M 234.472656 60 "/>
<path style=" stroke:none;fill-rule:nonzero;fill:rgb(0%,0%,0%);fill-opacity:1;" d="M 234.472656 20 L 234.472656 0 L 254.472656 0 L 254.472656 20 Z M 234.472656 20 "/>
<path style=" stroke:none;fill-rule:nonzero;fill:rgb(0%,0%,0%);fill-opacity:1;" d="M 270.472656 220 L 270.472656 200 L 290.472656 200 L 290.472656 220 Z M 270.472656 220 "/>
<path style=" stroke:none;fill-rule:nonzero;fill:rgb(0%,0%,0%);fill-opacity:1;" d="M 270.472656 180 L 270.472656 160 L 290.472656 160 L 290.472656 180 Z M 270.472656 180 "/>
<path style=" stroke:none;fill-rule:nonzero;fill:rgb(0%,0%,0%);fill-opacity:1;" d="M 270.472656 140 L 270.472656 120 L 290.472656 120 L 290.472656 140 Z M 270.472656 140 "/>
<path style=" stroke:none;fill-rule:nonzero;fill:rgb(0%,0%,0%);fill-opacity:1;" d="M 270.472656 100 L 270.472656 80 L 290.472656 80 L 290.472656 100 Z M 270.472656 100 "/>
<path style=" stroke:none;fill-rule:nonzero;fill:rgb(0%,0%,0%);fill-opacity:1;" d="M 270.472656 60 L 270.472656 40 L 290.472656 40 L 290.472656 60 Z M 270.472656 60 "/>
<path style=" stroke:none;fill-rule:nonzero;fill:rgb(0%,0%,0%);fill-opacity:1;" d="M 270.472656 20 L 270.472656 0 L 290.472656 0 L 290.472656 20 Z M 270.472656 20 "/>
<path style=" stroke:none;fill-rule:nonzero;fill:rgb(0%,0%,0%);fill-opacity:1;" d="M 306.472656 220 L 306.472656 200 L 326.472656 200 L 326.472656 220 Z M 306.472656 220 "/>
<path style=" stroke:none;fill-rule:nonzero;fill:rgb(0%,0%,0%);fill-opacity:1;" d="M 306.472656 180 L 306.472656 160 L 326.472656 160 L 326.472656 180 Z M 306.472656 180 "/>
<path style=" stroke:none;fill-rule:nonzero;fill:rgb(0%,0%,0%);fill-opacity:1;" d="M 306.472656 140 L 306.472656 120 L 326.472656 120 L 326.472656 140 Z M 306.472656 140 "/>
<path style=" stroke:none;fill-rule:nonzero;fill:rgb(0%,0%,0%);fill-opacity:1;" d="M 306.472656 100 L 306.472656 80 L 326.472656 80 L 326.472656 100 Z M 306.472656 100 "/>
<path style=" stroke:none;fill-rule:nonzero;fill:rgb(0%,0%,0%);fill-opacity:1;" d="M 306.472656 60 L 306.472656 40 L 326.472656 40 L 326.472656 60 Z M 306.472656 60 "/>
<path style=" stroke:none;fill-rule:nonzero;fill:rgb(0%,0%,0%);fill-opacity:1;" d="M 306.472656 20 L 306.472656 0 L 326.472656 0 L 326.472656 20 Z M 306.472656 20 "/>
<path style=" stroke:none;fill-rule:nonzero;fill:rgb(0%,0%,0%);fill-opacity:1;" d="M 342.472656 220 L 342.472656 200 L 362.472656 200 L 362.472656 220 Z M 342.472656 220 "/>
<path style=" stroke:none;fill-rule:nonzero;fill:rgb(0%,0%,0%);fill-opacity:1;" d="M 342.472656 180 L 342.472656 160 L 362.472656 160 L 362.472656 180 Z M 342.472656 180 "/>
<path style=" stroke:none;fill-rule:nonzero;fill:rgb(0%,0%,0%);fill-opacity:1;" d="M 342.472656 140 L 342.472656 120 L 362.472656 120 L 362.472656 140 Z M 342.472656 140 "/>
<path style=" stroke:none;fill-rule:nonzero;fill:rgb(0%,0%,0%);fill-opacity:1;" d="M 342.472656 100 L 342.472656 80 L 362.472656 80 L 362.472656 100 Z M 342.472656 100 "/>
<path style=" stroke:none;fill-rule:nonzero;fill:rgb(0%,0%,0%);fill-opacity:1;" d="M 342.472656 60 L 342.472656 40 L 362.472656 40 L 362.472656 60 Z M 342.472656 60 "/>
<path style=" stroke:none;fill-rule:nonzero;fill:rgb(0%,0%,0%);fill-opacity:1;" d="M 342.472656 20 L 342.472656 0 L 362.472656 0 L 362.472656 20 Z M 342.472656 20 "/>
<path style=" stroke:none;fill-rule:nonzero;fill:rgb(0%,0%,0%);fill-opacity:1;" d="M 378.472656 220 L 378.472656 200 L 398.472656 200 L 398.472656 220 Z M 378.472656 220 "/>
<path style=" stroke:none;fill-rule:nonzero;fill:rgb(0%,0%,0%);fill-opacity:1;" d="M 378.472656 180 L 378.472656 160 L 398.472656 160 L 398.472656 180 Z M 378.472656 180 "/>
<path style=" stroke:none;fill-rule:nonzero;fill:rgb(0%,0%,0%);fill-opacity:1;" d="M 378.472656 140 L 378.472656 120 L 398.472656 120 L 398.472656 140 Z M 378.472656 140 "/>
<path style=" stroke:none;fill-rule:nonzero;fill:rgb(0%,0%,0%);fill-opacity:1;" d="M 378.472656 100 L 378.472656 80 L 398.472656 80 L 398.472656 100 Z M 378.472656 100 "/>
<path style=" stroke:none;fill-rule:nonzero;fill:rgb(0%,0%,0%);fill-opacity:1;" d="M 378.472656 60 L 378.472656 40 L 398.472656 40 L 398.472656 60 Z M 378.472656 60 "/>
<path style=" stroke:none;fill-rule:nonzero;fill:rgb(0%,0%,0%);fill-opacity:1;" d="M 378.472656 20 L 378.472656 0 L 398.472656 0 L 398.472656 20 Z M 378.472656 20 "/>
<path style=" stroke:none;fill-rule:nonzero;fill:rgb(0%,0%,0%);fill-opacity:1;" d="M -10.363281 200 L -10.363281 180 L 9.636719 180 L 9.636719 200 Z M -10.363281 200 "/>
<path style=" stroke:none;fill-rule:nonzero;fill:rgb(0%,0%,0%);fill-opacity:1;" d="M -10.363281 160 L -10.363281 140 L 9.636719 140 L 9.636719 160 Z M -10.363281 160 "/>
<path style=" stroke:none;fill-rule:nonzero;fill:rgb(0%,0%,0%);fill-opacity:1;" d="M -10.363281 120 L -10.363281 100 L 9.636719 100 L 9.636719 120 Z M -10.363281 120 "/>
<path style=" stroke:none;fill-rule:nonzero;fill:rgb(0%,0%,0%);fill-opacity:1;" d="M -10.363281 80 L -10.363281 60 L 9.636719 60 L 9.636719 80 Z M -10.363281 80 "/>
<path style=" stroke:none;fill-rule:nonzero;fill:rgb(0%,0%,0%);fill-opacity:1;" d="M -10.363281 40 L -10.363281 20 L 9.636719 20 L 9.636719 40 Z M -10.363281 40 "/>
<path style=" stroke:none;fill-rule:nonzero;fill:rgb(0%,0%,0%);fill-opacity:1;" d="M 25.636719 200 L 25.636719 180 L 45.636719 180 L 45.636719 200 Z M 25.636719 200 "/>
<path style=" stroke:none;fill-rule:nonzero;fill:rgb(0%,0%,0%);fill-opacity:1;" d="M 25.636719 160 L 25.636719 140 L 45.636719 140 L 45.636719 160 Z M 25.636719 160 "/>
<path style=" stroke:none;fill-rule:nonzero;fill:rgb(0%,0%,0%);fill-opacity:1;" d="M 25.636719 120 L 25.636719 100 L 45.636719 100 L 45.636719 120 Z M 25.636719 120 "/>
<path style=" stroke:none;fill-rule:nonzero;fill:rgb(0%,0%,0%);fill-opacity:1;" d="M 25.636719 80 L 25.636719 60 L 45.636719 60 L 45.636719 80 Z M 25.636719 80 "/>
<path style=" stroke:none;fill-rule:nonzero;fill:rgb(0%,0%,0%);fill-opacity:1;" d="M 25.636719 40 L 25.636719 20 L 45.636719 20 L 45.636719 40 Z M 25.636719 40 "/>
<path style=" stroke:none;fill-rule:nonzero;fill:rgb(0%,0%,0%);fill-opacity:1;" d="M 61.636719 200 L 61.636719 180 L 81.636719 180 L 81.636719 200 Z M 61.636719 200 "/>
<path style=" stroke:none;fill-rule:nonzero;fill:rgb(0%,0%,0%);fill-opacity:1;" d="M 61.636719 160 L 61.636719 140 L 81.636719 140 L 81.636719 160 Z M 61.636719 160 "/>
<path style=" stroke:none;fill-rule:nonzero;fill:rgb(0%,0%,0%);fill-opacity:1;" d="M 61.636719 120 L 61.636719 100 L 81.636719 100 L 81.636719 120 Z M 61.636719 120 "/>
<path style=" stroke:none;fill-rule:nonzero;fill:rgb(0%,0%,0%);fill-opacity:1;" d="M 61.636719 80 L 61.636719 60 L 81.636719 60 L 81.636719 80 Z M 61.636719 80 "/>
<path style=" stroke:none;fill-rule:nonzero;fill:rgb(0%,0%,0%);fill-opacity:1;" d="M 61.636719 40 L 61.636719 20 L 81.636719 20 L 81.636719 40 Z M 61.636719 40 "/>
<path style=" stroke:none;fill-rule:nonzero;fill:rgb(0%,0%,0%);fill-opacity:1;" d="M 97.636719 200 L 97.636719 180 L 117.636719 180 L 117.636719 200 Z M 97.636719 200 "/>
<path style=" stroke:none;fill-rule:nonzero;fill:rgb(0%,0%,0%);fill-opacity:1;" d="M 97.636719 160 L 97.636719 140 L 117.636719 140 L 117.636719 160 Z M 97.636719 160 "/>
<path style=" stroke:none;fill-rule:nonzero;fill:rgb(0%,0%,0%);fill-opacity:1;" d="M 97.636719 120 L 97.636719 100 L 117.636719 100 L 117.636719 120 Z M 97.636719 120 "/>
<path style=" stroke:none;fill-rule:nonzero;fill:rgb(0%,0%,0%);fill-opacity:1;" d="M 97.636719 80 L 97.636719 60 L 117.636719 60 L 117.636719 80 Z M 97.636719 80 "/>
<path style=" stroke:none;fill-rule:nonzero;fill:rgb(0%,0%,0%);fill-opacity:1;" d="M 97.636719 40 L 97.636719 20 L 117.636719 20 L 117.636719 40 Z M 97.636719 40 "/>
<path style=" stroke:none;fill-rule:nonzero;fill:rgb(0%,0%,0%);fill-opacity:1;" d="M 133.636719 200 L 133.636719 180 L 153.636719 180 L 153.636719 200 Z M 133.636719 200 "/>
<path style=" stroke:none;fill-rule:nonzero;fill:rgb(0%,0%,0%);fill-opacity:1;" d="M 133.636719 160 L 133.636719 140 L 153.636719 140 L 153.636719 160 Z M 133.636719 160 "/>
<path style=" stroke:none;fill-rule:nonzero;fill:rgb(0%,0%,0%);fill-opacity:1;" d="M 133.636719 120 L 133.636719 100 L 153.636719 100 L 153.636719 120 Z M 133.636719 120 "/>
<path style=" stroke:none;fill-rule:nonzero;fill:rgb(0%,0%,0%);fill-opacity:1;" d="M 133.636719 80 L 133.636719 60 L 153.636719 60 L 153.636719 80 Z M 133.636719 80 "/>
<path style=" stroke:none;fill-rule:nonzero;fill:rgb(0%,0%,0%);fill-opacity:1;" d="M 133.636719 40 L 133.636719 20 L 153.636719 20 L 153.636719 40 Z M 133.636719 40 "/>
<path style=" stroke:none;fill-rule:nonzero;fill:rgb(0%,0%,0%);fill-opacity:1;" d="M 169.636719 200 L 169.636719 180 L 189.636719 180 L 189.636719 200 Z M 169.636719 200 "/>
<path style=" stroke:none;fill-rule:nonzero;fill:rgb(0%,0%,0%);fill-opacity:1;" d="M 169.636719 160 L 169.636719 140 L 189.636719 140 L 189.636719 160 Z M 169.636719 160 "/>
<path style=" stroke:none;fill-rule:nonzero;fill:rgb(0%,0%,0%);fill-opacity:1;" d="M 169.636719 120 L 169.636719 100 L 189.636719 100 L 189.636719 120 Z M 169.636719 120 "/>
<path style=" stroke:none;fill-rule:nonzero;fill:rgb(0%,0%,0%);fill-opacity:1;" d="M 169.636719 80 L 169.636719 60 L 189.636719 60 L 189.636719 80 Z M 169.636719 80 "/>
<path style=" stroke:none;fill-rule:nonzero;fill:rgb(0%,0%,0%);fill-opacity:1;" d="M 169.636719 40 L 169.636719 20 L 189.636719 20 L 189.636719 40 Z M 169.636719 40 "/>
<path style=" stroke:none;fill-rule:nonzero;fill:rgb(0%,0%,0%);fill-opacity:1;" d="M 205.636719 200 L 205.636719 180 L 225.636719 180 L 225.636719 200 Z M 205.636719 200 "/>
<path style=" stroke:none;fill-rule:nonzero;fill:rgb(0%,0%,0%);fill-opacity:1;" d="M 205.636719 160 L 205.636719 140 L 225.636719 140 L 225.636719 160 Z M 205.636719 160 "/>
<path style=" stroke:none;fill-rule:nonzero;fill:rgb(0%,0%,0%);fill-opacity:1;" d="M 205.636719 120 L 205.636719 100 L 225.636719 100 L 225.636719 120 Z M 205.636719 120 "/>
<path style=" stroke:none;fill-rule:nonzero;fill:rgb(0%,0%,0%);fill-opacity:1;" d="M 205.636719 80 L 205.636719 60 L 225.636719 60 L 225.636719 80 Z M 205.636719 80 "/>
<path style=" stroke:none;fill-rule:nonzero;fill:rgb(0%,0%,0%);fill-opacity:1;" d="M 205.636719 40 L 205.636719 20 L 225.636719 20 L 225.636719 40 Z M 205.636719 40 "/>
<path style=" stroke:none;fill-rule:nonzero;fill:rgb(0%,0%,0%);fill-opacity:1;" d="M 241.636719 200 L 241.636719 180 L 261.636719 180 L 261.636719 200 Z M 241.636719 200 "/>
<path style=" stroke:none;fill-rule:nonzero;fill:rgb(0%,0%,0%);fill-opacity:1;" d="M 241.636719 160 L 241.636719 140 L 261.636719 140 L 261.636719 160 Z M 241.636719 160 "/>
<path style=" stroke:none;fill-rule:nonzero;fill:rgb(0%,0%,0%);fill-opacity:1;" d="M 241.636719 120 L 241.636719 100 L 261.636719 100 L 261.636719 120 Z M 241.636719 120 "/>
<path style=" stroke:none;fill-rule:nonzero;fill:rgb(0%,0%,0%);fill-opacity:1;" d="M 241.636719 80 L 241.636719 60 L 261.636719 60 L 261.636719 80 Z M 241.636719 80 "/>
<path style=" stroke:none;fill-rule:nonzero;fill:rgb(0%,0%,0%);fill-opacity:1;" d="M 241.636719 40 L 241.636719 20 L 261.636719 20 L 261.636719 40 Z M 241.636719 40 "/>
<path style=" stroke:none;fill-rule:nonzero;fill:rgb(0%,0%,0%);fill-opacity:1;" d="M 277.636719 200 L 277.636719 180 L 297.636719 180 L 297.636719 200 Z M 277.636719 200 "/>
<path style=" stroke:none;fill-rule:nonzero;fill:rgb(0%,0%,0%);fill-opacity:1;" d="M 277.636719 160 L 277.636719 140 L 297.636719 140 L 297.636719 160 Z M 277.636719 160 "/>
<path style=" stroke:none;fill-rule:nonzero;fill:rgb(0%,0%,0%);fill-opacity:1;" d="M 277.636719 120 L 277.636719 100 L 297.636719 100 L 297.636719 120 Z M 277.636719 120 "/>
<path style=" stroke:none;fill-rule:nonzero;fill:rgb(0%,0%,0%);fill-opacity:1;" d="M 277.636719 80 L 277.636719 60 L 297.636719 60 L 297.636719 80 Z M 277.636719 80 "/>
<path style=" stroke:none;fill-rule:nonzero;fill:rgb(0%,0%,0%);fill-opacity:1;" d="M 277.636719 40 L 277.636719 20 L 297.636719 20 L 297.636719 40 Z M 277.636719 40 "/>
<path style=" stroke:none;fill-rule:nonzero;fill:rgb(0%,0%,0%);fill-opacity:1;" d="M 313.636719 200 L 313.636719 180 L 333.636719 180 L 333.636719 200 Z M 313.636719 200 "/>
<path style=" stroke:none;fill-rule:nonzero;fill:rgb(0%,0%,0%);fill-opacity:1;" d="M 313.636719 160 L 313.636719 140 L 333.636719 140 L 333.636719 160 Z M 313.636719 160 "/>
<path style=" stroke:none;fill-rule:nonzero;fill:rgb(0%,0%,0%);fill-opacity:1;" d="M 313.636719 120 L 313.636719 100 L 333.636719 100 L 333.636719 120 Z M 313.636719 120 "/>
<path style=" stroke:none;fill-rule:nonzero;fill:rgb(0%,0%,0%);fill-opacity:1;" d="M 313.636719 80 L 313.636719 60 L 333.636719 60 L 333.636719 80 Z M 313.636719 80 "/>
<path style=" stroke:none;fill-rule:nonzero;fill:rgb(0%,0%,0%);fill-opacity:1;" d="M 313.636719 40 L 313.636719 20 L 333.636719 20 L 333.636719 40 Z M 313.636719 40 "/>
<path style=" stroke:none;fill-rule:nonzero;fill:rgb(0%,0%,0%);fill-opacity:1;" d="M 349.636719 200 L 349.636719 180 L 369.636719 180 L 369.636719 200 Z M 349.636719 200 "/>
<path style=" stroke:none;fill-rule:nonzero;fill:rgb(0%,0%,0%);fill-opacity:1;" d="M 349.636719 160 L 349.636719 140 L 369.636719 140 L 369.636719 160 Z M 349.636719 160 "/>
<path style=" stroke:none;fill-rule:nonzero;fill:rgb(0%,0%,0%);fill-opacity:1;" d="M 349.636719 120 L 349.636719 100 L 369.636719 100 L 369.636719 120 Z M 349.636719 120 "/>
<path style=" stroke:none;fill-rule:nonzero;fill:rgb(0%,0%,0%);fill-opacity:1;" d="M 349.636719 80 L 349.636719 60 L 369.636719 60 L 369.636719 80 Z M 349.636719 80 "/>
<path style=" stroke:none;fill-rule:nonzero;fill:rgb(0%,0%,0%);fill-opacity:1;" d="M 349.636719 40 L 349.636719 20 L 369.636719 20 L 369.636719 40 Z M 349.636719 40 "/>
<path style=" stroke:none;fill-rule:nonzero;fill:rgb(0%,0%,0%);fill-opacity:1;" d="M 385.636719 200 L 385.636719 180 L 405.636719 180 L 405.636719 200 Z M 385.636719 200 "/>
<path style=" stroke:none;fill-rule:nonzero;fill:rgb(0%,0%,0%);fill-opacity:1;" d="M 385.636719 160 L 385.636719 140 L 405.636719 140 L 405.636719 160 Z M 385.636719 160 "/>
<path style=" stroke:none;fill-rule:nonzero;fill:rgb(0%,0%,0%);fill-opacity:1;" d="M 385.636719 120 L 385.636719 100 L 405.636719 100 L 405.636719 120 Z M 385.636719 120 "/>
<path style=" stroke:none;fill-rule:nonzero;fill:rgb(0%,0%,0%);fill-opacity:1;" d="M 385.636719 80 L 385.636719 60 L 405.636719 60 L 405.636719 80 Z M 385.636719 80 "/>
<path style=" stroke:none;fill-rule:nonzero;fill:rgb(0%,0%,0%);fill-opacity:1;" d="M 385.636719 40 L 385.636719 20 L 405.636719 20 L 405.636719 40 Z M 385.636719 40 "/>
<path style="fill:none;stroke-width:1;stroke-linecap:square;stroke-linejoin:miter;stroke:rgb(100%,0%,0%);stroke-opacity:1;stroke-miterlimit:3.25;" d="M 0 220 L 400 220 "/>
<path style="fill:none;stroke-width:1;stroke-linecap:square;stroke-linejoin:miter;stroke:rgb(100%,0%,0%);stroke-opacity:1;stroke-miterlimit:3.25;" d="M 0 200 L 400 200 "/>
<path style="fill:none;stroke-width:1;stroke-linecap:square;stroke-linejoin:miter;stroke:rgb(100%,0%,0%);stroke-opacity:1;stroke-miterlimit:3.25;" d="M 0 180 L 400 180 "/>
<path style="fill:none;stroke-width:1;stroke-linecap:square;stroke-linejoin:miter;stroke:rgb(100%,0%,0%);stroke-opacity:1;stroke-miterlimit:3.25;" d="M 0 160 L 400 160 "/>
<path style="fill:none;stroke-width:1;stroke-linecap:square;stroke-linejoin:miter;stroke:rgb(100%,0%,0%);stroke-opacity:1;stroke-miterlimit:3.25;" d="M 0 140 L 400 140 "/>
<path style="fill:none;stroke-width:1;stroke-linecap:square;stroke-linejoin:miter;stroke:rgb(100%,0%,0%);stroke-opacity:1;stroke-miterlimit:3.25;" d="M 0 120 L 400 120 "/>
<path style="fill:none;stroke-width:1;stroke-linecap:square;stroke-linejoin:miter;stroke:rgb(100%,0%,0%);stroke-opacity:1;stroke-miterlimit:3.25;" d="M 0 100 L 400 100 "/>
<path style="fill:none;stroke-width:1;stroke-linecap:square;stroke-linejoin:miter;stroke:rgb(100%,0%,0%);stroke-opacity:1;stroke-miterlimit:3.25;" d="M 0 80 L 400 80 "/>
<path style="fill:none;stroke-width:1;stroke-linecap:square;stroke-linejoin:miter;stroke:rgb(100%,0%,0%);stroke-opacity:1;stroke-miterlimit:3.25;" d="M 0 60 L 400 60 "/>
<path style="fill:none;stroke-width:1;stroke-linecap:square;stroke-linejoin:miter;stroke:rgb(100%,0%,0%);stroke-opacity:1;stroke-miterlimit:3.25;" d="M 0 40 L 400 40 "/>
<path style="fill:none;stroke-width:1;stroke-linecap:square;stroke-linejoin:miter;stroke:rgb(100%,0%,0%);stroke-opacity:1;stroke-miterlimit:3.25;" d="M 0 20 L 400 20 "/>
</g>
</svg>
