<?xml version="1.0" encoding="UTF-8"?>
<svg xmlns="http://www.w3.org/2000/svg" xmlns:xlink="http://www.w3.org/1999/xlink" width="400pt" height="220pt" viewBox="0 0 400 220" version="1.1">
<g id="surface886">
<rect x="0" y="0" width="400" height="220" style="fill:rgb(0%,40%,100%);fill-opacity:0.2;stroke:none;"/>
<path style=" stroke:none;fill-rule:nonzero;fill:rgb(0%,0%,0%);fill-opacity:1;" d="M -19.644531 220 L -19.644531 200 L 0.355469 200 L 0.355469 220 Z M -19.644531 220 "/>
<path style=" stroke:none;fill-rule:nonzero;fill:rgb(0%,0%,0%);fill-opacity:1;" d="M -19.644531 180 L -19.644531 160 L 0.355469 160 L 0.355469 180 Z M -19.644531 180 "/>
<path style=" stroke:none;fill-rule:nonzero;fill:rgb(0%,0%,0%);fill-opacity:1;" d="M -19.644531 140 L -19.644531 120 L 0.355469 120 L 0.355469 140 Z M -19.644531 140 "/>
<path style=" stroke:none;fill-rule:nonzero;fill:rgb(0%,0%,0%);fill-opacity:1;" d="M -19.644531 100 L -19.644531 80 L 0.355469 80 L 0.355469 100 Z M -19.644531 100 "/>
<path style=" stroke:none;fill-rule:nonzero;fill:rgb(0%,0%,0%);fill-opacity:1;" d="M -19.644531 60 L -19.644531 40 L 0.355469 40 L 0.355469 60 Z M -19.644531 60 "/>
<path style=" stroke:none;fill-rule:nonzero;fill:rgb(0%,0%,0%);fill-opacity:1;" d="M -19.644531 20 L -19.644531 0 L 0.355469 0 L 0.355469 20 Z M -19.644531 20 "/>
<path style=" stroke:none;fill-rule:nonzero;fill:rgb(0%,0%,0%);fill-opacity:1;" d="M 16.355469 220 L 16.355469 200 L 36.355469 200 L 36.355469 220 Z M 16.355469 220 "/>
<path style=" stroke:none;fill-rule:nonzero;fill:rgb(0%,0%,0%);fill-opacity:1;" d="M 16.355469 180 L 16.355469 160 L 36.355469 160 L 36.355469 180 Z M 16.355469 180 "/>
<path style=" stroke:none;fill-rule:nonzero;fill:rgb(0%,0%,0%);fill-opacity:1;" d="M 16.355469 140 L 16.355469 120 L 36.355469 120 L 36.355469 140 Z M 16.355469 140 "/>
<path style=" stroke:none;fill-rule:nonzero;fill:rgb(0%,0%,0%);fill-opacity:1;" d="M 16.355469 100 L 16.355469 80 L 36.355469 80 L 36.355469 100 Z M 16.355469 100 "/>
<path style=" stroke:none;fill-rule:nonzero;fill:rgb(0%,0%,0%);fill-opacity:1;" d="M 16.355469 60 L 16.355469 40 L 36.355469 40 L 36.355469 60 Z M 16.355469 60 "/>
<path style=" stroke:none;fill-rule:nonzero;fill:rgb(0%,0%,0%);fill-opacity:1;" d="M 16.355469 20 L 16.355469 0 L 36.355469 0 L 36.355469 20 Z M 16.355469 20 "/>
<path style=" stroke:none;fill-rule:nonzero;fill:rgb(0%,0%,0%);fill-opacity:1;" d="M 52.355469 220 L 52.355469 200 L 72.355469 200 L 72.355469 220 Z M 52.355469 220 "/>
<path style=" stroke:none;fill-rule:nonzero;fill:rgb(0%,0%,0%);fill-opacity:1;" d="M 52.355469 180 L 52.355469 160 L 72.355469 160 L 72.355469 180 Z M 52.355469 180 "/>
<path style=" stroke:none;fill-rule:nonzero;fill:rgb(0%,0%,0%);fill-opacity:1;" d="M 52.355469 140 L 52.355469 120 L 72.355469 120 L 72.355469 140 Z M 52.355469 140 "/>
<path style=" stroke:none;fill-rule:nonzero;fill:rgb(0%,0%,0%);fill-opacity:1;" d="M 52.355469 100 L 52.355469 80 L 72.355469 80 L 72.355469 100 Z M 52.355469 100 "/>
<path style=" stroke:none;fill-rule:nonzero;fill:rgb(0%,0%,0%);fill-opacity:1;" d="M 52.355469 60 L 52.355469 40 L 72.355469 40 L 72.355469 60 Z M 52.355469 60 "/>
<path style=" stroke:none;fill-rule:nonzero;fill:rgb(0%,0%,0%);fill-opacity:1;" d="M 52.355469 20 L 52.355469 0 L 72.355469 0 L 72.355469 20 Z M 52.355469 20 "/>
<path style=" stroke:none;fill-rule:nonzero;fill:rgb(0%,0%,0%);fill-opacity:1;" d="M 88.355469 220 L 88.355469 200 L 108.355469 200 L 108.355469 220 Z M 88.355469 220 "/>
<path style=" stroke:none;fill-rule:nonzero;fill:rgb(0%,0%,0%);fill-opacity:1;" d="M 88.355469 180 L 88.355469 160 L 108.355469 160 L 108.355469 180 Z M 88.355469 180 "/>
<path style=" stroke:none;fill-rule:nonzero;fill:rgb(0%,0%,0%);fill-opacity:1;" d="M 88.355469 140 L 88.355469 120 L 108.355469 120 L 108.355469 140 Z M 88.355469 140 "/>
<path style=" stroke:none;fill-rule:nonzero;fill:rgb(0%,0%,0%);fill-opacity:1;" d="M 88.355469 100 L 88.355469 80 L 108.355469 80 L 108.355469 100 Z M 88.355469 100 "/>
<path style=" stroke:none;fill-rule:nonzero;fill:rgb(0%,0%,0%);fill-opacity:1;" d="M 88.355469 60 L 88.355469 40 L 108.355469 40 L 108.355469 60 Z M 88.355469 60 "/>
<path style=" stroke:none;fill-rule:nonzero;fill:rgb(0%,0%,0%);fill-opacity:1;" d="M 88.355469 20 L 88.355469 0 L 108.355469 0 L 108.355469 20 Z M 88.355469 20 "/>
<path style=" stroke:none;fill-rule:nonzero;fill:rgb(0%,0%,0%);fill-opacity:1;" d="M 124.355469 220 L 124.355469 200 L 144.355469 200 L 144.355469 220 Z M 124.355469 220 "/>
<path style=" stroke:none;fill-rule:nonzero;fill:rgb(0%,0%,0%);fill-opacity:1;" d="M 124.355469 180 L 124.355469 160 L 144.355469 160 L 144.355469 180 Z M 124.355469 180 "/>
<path style=" stroke:none;fill-rule:nonzero;fill:rgb(0%,0%,0%);fill-opacity:1;" d="M 124.355469 140 L 124.355469 120 L 144.355469 120 L 144.355469 140 Z M 124.355469 140 "/>
<path style=" stroke:none;fill-rule:nonzero;fill:rgb(0%,0%,0%);fill-opacity:1;" d="M 124.355469 100 L 124.355469 80 L 144.355469 80 L 144.355469 100 Z M 124.355469 100 "/>
<path style=" stroke:none;fill-rule:nonzero;fill:rgb(0%,0%,0%);fill-opacity:1;" d="M 124.355469 60 L 124.355469 40 L 144.355469 40 L 144.355469 60 Z M 124.355469 60 "/>
<path style=" stroke:none;fill-rule:nonzero;fill:rgb(0%,0%,0%);fill-opacity:1;" d="M 124.355469 20 L 124.355469 0 L 144.355469 0 L 144.355469 20 Z M 124.355469 20 "/>
<path style=" stroke:none;fill-rule:nonzero;fill:rgb(0%,0%,0%);fill-opacity:1;" d="M 160.355469 220 L 160.355469 200 L 180.355469 200 L 180.355469 220 Z M 160.355469 220 "/>
<path style=" stroke:none;fill-rule:nonzero;fill:rgb(0%,0%,0%);fill-opacity:1;" d="M 160.355469 180 L 160.355469 160 L 180.355469 160 L 180.355469 180 Z M 160.355469 180 "/>
<path style=" stroke:none;fill-rule:nonzero;fill:rgb(0%,0%,0%);fill-opacity:1;" d="M 160.355469 140 L 160.355469 120 L 180.355469 120 L 180.355469 140 Z M 160.355469 140 "/>
<path style=" stroke:none;fill-rule:nonzero;fill:rgb(0%,0%,0%);fill-opacity:1;" d="M 160.355469 100 L 160.355469 80 L 180.355469 80 L 180.355469 100 Z M 160.355469 100 "/>
<path style=" stroke:none;fill-rule:nonzero;fill:rgb(0%,0%,0%);fill-opacity:1;" d="M 160.355469 60 L 160.355469 40 L 180.355469 40 L 180.355469 60 Z M 160.355469 60 "/>
<path style=" stroke:none;fill-rule:nonzero;fill:rgb(0%,0%,0%);fill-opacity:1;" d="M 160.355469 20 L 160.355469 0 L 180.355469 0 L 180.355469 20 Z M 160.355469 20 "/>
<path style=" stroke:none;fill-rule:nonzero;fill:rgb(0%,0%,0%);fill-opacity:1;" d="M 196.355469 220 L 196.355469 200 L 216.355469 200 L 216.355469 220 Z M 196.355469 220 "/>
<path style=" stroke:none;fill-rule:nonzero;fill:rgb(0%,0%,0%);fill-opacity:1;" d="M 196.355469 180 L 196.355469 160 L 216.355469 160 L 216.355469 180 Z M 196.355469 180 "/>
<path style=" stroke:none;fill-rule:nonzero;fill:rgb(0%,0%,0%);fill-opacity:1;" d="M 196.355469 140 L 196.355469 120 L 216.355469 120 L 216.355469 140 Z M 196.355469 140 "/>
<path style=" stroke:none;fill-rule:nonzero;fill:rgb(0%,0%,0%);fill-opacity:1;" d="M 196.355469 100 L 196.355469 80 L 216.355469 80 L 216.355469 100 Z M 196.355469 100 "/>
<path style=" stroke:none;fill-rule:nonzero;fill:rgb(0%,0%,0%);fill-opacity:1;" d="M 196.355469 60 L 196.355469 40 L 216.355469 40 L 216.355469 60 Z M 196.355469 60 "/>
<path style=" stroke:none;fill-rule:nonzero;fill:rgb(0%,0%,0%);fill-opacity:1;" d="M 196.355469 20 L 196.355469 0 L 216.355469 0 L 216.355469 20 Z M 196.355469 20 "/>
<path style=" stroke:none;fill-rule:nonzero;fill:rgb(0%,0%,0%);fill-opacity:1;" d="M 232.355469 220 L 232.355469 200 L 252.355469 200 L 252.355469 220 Z M 232.355469 220 "/>
<path style=" stroke:none;fill-rule:nonzero;fill:rgb(0%,0%,0%);fill-opacity:1;" d="M 232.355469 180 L 232.355469 160 L 252.355469 160 L 252.355469 180 Z M 232.355469 180 "/>
<path style=" stroke:none;fill-rule:nonzero;fill:rgb(0%,0%,0%);fill-opacity:1;" d="M 232.355469 140 L 232.355469 120 L 252.355469 120 L 252.355469 140 Z M 232.355469 140 "/>
<path style=" stroke:none;fill-rule:nonzero;fill:rgb(0%,0%,0%);fill-opacity:1;" d="M 232.355469 100 L 232.355469 80 L 252.355469 80 L 252.355469 100 Z M 232.355469 100 "/>
<path style=" stroke:none;fill-rule:nonzero;fill:rgb(0%,0%,0%);fill-opacity:1;" d="M 232.355469 60 L 232.355469 40 L 252.355469 40 L 252.355469 60 Z M 232.355469 60 "/>
<path style=" stroke:none;fill-rule:nonzero;fill:rgb(0%,0%,0%);fill-opacity:1;" d="M 232.355469 20 L 232.355469 0 L 252.355469 0 L 252.355469 20 Z M 232.355469 20 "/>
<path style=" stroke:none;fill-rule:nonzero;fill:rgb(0%,0%,0%);fill-opacity:1;" d="M 268.355469 220 L 268.355469 200 L 288.355469 200 L 288.355469 220 Z M 268.355469 220 "/>
<path style=" stroke:none;fill-rule:nonzero;fill:rgb(0%,0%,0%);fill-opacity:1;" d="M 268.355469 180 L 268.355469 160 L 288.355469 160 L 288.355469 180 Z M 268.355469 180 "/>
<path style=" stroke:none;fill-rule:nonzero;fill:rgb(0%,0%,0%);fill-opacity:1;" d="M 268.355469 140 L 268.355469 120 L 288.355469 120 L 288.355469 140 Z M 268.355469 140 "/>
<path style=" stroke:none;fill-rule:nonzero;fill:rgb(0%,0%,0%);fill-opacity:1;" d="M 268.355469 100 L 268.355469 80 L 288.355469 80 L 288.355469 100 Z M 268.355469 100 "/>
<path style=" stroke:none;fill-rule:nonzero;fill:rgb(0%,0%,0%);fill-opacity:1;" d="M 268.355469 60 L 268.355469 40 L 288.355469 40 L 288.355469 60 Z M 268.355469 60 "/>
<path style=" stroke:none;fill-rule:nonzero;fill:rgb(0%,0%,0%);fill-opacity:1;" d="M 268.355469 20 L 268.355469 0 L 288.355469 0 L 288.355469 20 Z M 268.355469 20 "/>
<path style=" stroke:none;fill-rule:nonzero;fill:rgb(0%,0%,0%);fill-opacity:1;" d="M 304.355469 220 L 304.355469 200 L 324.355469 200 L 324.355469 220 Z M 304.355469 220 "/>
<path style=" stroke:none;fill-rule:nonzero;fill:rgb(0%,0%,0%);fill-opacity:1;" d="M 304.355469 180 L 304.355469 160 L 324.355469 160 L 324.355469 180 Z M 304.355469 180 "/>
<path style=" stroke:none;fill-rule:nonzero;fill:rgb(0%,0%,0%);fill-opacity:1;" d="M 304.355469 140 L 304.355469 120 L 324.355469 120 L 324.355469 140 Z M 304.355469 140 "/>
<path style=" stroke:none;fill-rule:nonzero;fill:rgb(0%,0%,0%);fill-opacity:1;" d="M 304.355469 100 L 304.355469 80 L 324.355469 80 L 324.355469 100 Z M 304.355469 100 "/>
<path style=" stroke:none;fill-rule:nonzero;fill:rgb(0%,0%,0%);fill-opacity:1;" d="M 304.355469 60 L 304.355469 40 L 324.355469 40 L 324.355469 60 Z M 304.355469 60 "/>
<path style=" stroke:none;fill-rule:nonzero;fill:rgb(0%,0%,0%);fill-opacity:1;" d="M 304.355469 20 L 304.355469 0 L 324.355469 0 L 324.355469 20 Z M 304.355469 20 "/>
<path style=" stroke:none;fill-rule:nonzero;fill:rgb(0%,0%,0%);fill-opacity:1;" d="M 340.355469 220 L 340.355469 200 L 360.355469 200 L 360.355469 220 Z M 340.355469 220 "/>
<path style=" stroke:none;fill-rule:nonzero;fill:rgb(0%,0%,0%);fill-opacity:1;" d="M 340.355469 180 L 340.355469 160 L 360.355469 160 L 360.355469 180 Z M 340.355469 180 "/>
<path style=" stroke:none;fill-rule:nonzero;fill:rgb(0%,0%,0%);fill-opacity:1;" d="M 340.355469 140 L 340.355469 120 L 360.355469 120 L 360.355469 140 Z M 340.355469 140 "/>
<path style=" stroke:none;fill-rule:nonzero;fill:rgb(0%,0%,0%);fill-opacity:1;" d="M 340.355469 100 L 340.355469 80 L 360.355469 80 L 360.355469 100 Z M 340.355469 100 "/>
<path style=" stroke:none;fill-rule:nonzero;fill:rgb(0%,0%,0%);fill-opacity:1;" d="M 340.355469 60 L 340.355469 40 L 360.355469 40 L 360.355469 60 Z M 340.355469 60 "/>
<path style=" stroke:none;fill-rule:nonzero;fill:rgb(0%,0%,0%);fill-opacity:1;" d="M 340.355469 20 L 340.355469 0 L 360.355469 0 L 360.355469 20 Z M 340.355469 20 "/>
<path style=" stroke:none;fill-rule:nonzero;fill:rgb(0%,0%,0%);fill-opacity:1;" d="M 376.355469 220 L 376.355469 200 L 396.355469 200 L 396.355469 220 Z M 376.355469 220 "/>
<path style=" stroke:none;fill-rule:nonzero;fill:rgb(0%,0%,0%);fill-opacity:1;" d="M 376.355469 180 L 376.355469 160 L 396.355469 160 L 396.355469 180 Z M 376.355469 180 "/>
<path style=" stroke:none;fill-rule:nonzero;fill:rgb(0%,0%,0%);fill-opacity:1;" d="M 376.355469 140 L 376.355469 120 L 396.355469 120 L 396.355469 140 Z M 376.355469 140 "/>
<path style=" stroke:none;fill-rule:nonzero;fill:rgb(0%,0%,0%);fill-opacity:1;" d="M 376.355469 100 L 376.355469 80 L 396.355469 80 L 396.355469 100 Z M 376.355469 100 "/>
<path style=" stroke:none;fill-rule:nonzero;fill:rgb(0%,0%,0%);fill-opacity:1;" d="M 376.355469 60 L 376.355469 40 L 396.355469 40 L 396.355469 60 Z M 376.355469 60 "/>
<path style=" stroke:none;fill-rule:nonzero;fill:rgb(0%,0%,0%);fill-opacity:1;" d="M 376.355469 20 L 376.355469 0 L 396.355469 0 L 396.355469 20 Z M 376.355469 20 "/>
<path style=" stroke:none;fill-rule:nonzero;fill:rgb(0%,0%,0%);fill-opacity:1;" d="M 12.253906 200 L 12.253906 180 L 32.253906 180 L 32.253906 200 Z M 12.253906 200 "/>
<path style=" stroke:none;fill-rule:nonzero;fill:rgb(0%,0%,0%);fill-opacity:1;" d="M 12.253906 160 L 12.253906 140 L 32.253906 140 L 32.253906 160 Z M 12.253906 160 "/>
<path style=" stroke:none;fill-rule:nonzero;fill:rgb(0%,0%,0%);fill-opacity:1;" d="M 12.253906 120 L 12.253906 100 L 32.253906 100 L 32.253906 120 Z M 12.253906 120 "/>
<path style=" stroke:none;fill-rule:nonzero;fill:rgb(0%,0%,0%);fill-opacity:1;" d="M 12.253906 80 L 12.253906 60 L 32.253906 60 L 32.253906 80 Z M 12.253906 80 "/>
<path style=" stroke:none;fill-rule:nonzero;fill:rgb(0%,0%,0%);fill-opacity:1;" d="M 12.253906 40 L 12.253906 20 L 32.253906 20 L 32.253906 40 Z M 12.253906 40 "/>
<path style=" stroke:none;fill-rule:nonzero;fill:rgb(0%,0%,0%);fill-opacity:1;" d="M 48.253906 200 L 48.253906 180 L 68.253906 180 L 68.253906 200 Z M 48.253906 200 "/>
<path style=" stroke:none;fill-rule:nonzero;fill:rgb(0%,0%,0%);fill-opacity:1;" d="M 48.253906 160 L 48.253906 140 L 68.253906 140 L 68.253906 160 Z M 48.253906 160 "/>
<path style=" stroke:none;fill-rule:nonzero;fill:rgb(0%,0%,0%);fill-opacity:1;" d="M 48.253906 120 L 48.253906 100 L 68.253906 100 L 68.253906 120 Z M 48.253906 120 "/>
<path style=" stroke:none;fill-rule:nonzero;fill:rgb(0%,0%,0%);fill-opacity:1;" d="M 48.253906 80 L 48.253906 60 L 68.253906 60 L 68.253906 80 Z M 48.253906 80 "/>
<path style=" stroke:none;fill-rule:nonzero;fill:rgb(0%,0%,0%);fill-opacity:1;" d="M 48.253906 40 L 48.253906 20 L 68.253906 20 L 68.253906 40 Z M 48.253906 40 "/>
<path style=" stroke:none;fill-rule:nonzero;fill:rgb(0%,0%,0%);fill-opacity:1;" d="M 84.253906 200 L 84.253906 180 L 104.253906 180 L 104.253906 200 Z M 84.253906 200 "/>
<path style=" stroke:none;fill-rule:nonzero;fill:rgb(0%,0%,0%);fill-opacity:1;" d="M 84.253906 160 L 84.253906 140 L 104.253906 140 L 104.253906 160 Z M 84.253906 160 "/>
<path style=" stroke:none;fill-rule:nonzero;fill:rgb(0%,0%,0%);fill-opacity:1;" d="M 84.253906 120 L 84.253906 100 L 104.253906 100 L 104.253906 120 Z M 84.253906 120 "/>
<path style=" stroke:none;fill-rule:nonzero;fill:rgb(0%,0%,0%);fill-opacity:1;" d="M 84.253906 80 L 84.253906 60 L 104.253906 60 L 104.253906 80 Z M 84.253906 80 "/>
<path style=" stroke:none;fill-rule:nonzero;fill:rgb(0%,0%,0%);fill-opacity:1;" d="M 84.253906 40 L 84.253906 20 L 104.253906 20 L 104.253906 40 Z M 84.253906 40 "/>
<path style=" stroke:none;fill-rule:nonzero;fill:rgb(0%,0%,0%);fill-opacity:1;" d="M 120.253906 200 L 120.253906 180 L 140.253906 180 L 140.253906 200 Z M 120.253906 200 "/>
<path style=" stroke:none;fill-rule:nonzero;fill:rgb(0%,0%,0%);fill-opacity:1;" d="M 120.253906 160 L 120.253906 140 L 140.253906 140 L 140.253906 160 Z M 120.253906 160 "/>
<path style=" stroke:none;fill-rule:nonzero;fill:rgb(0%,0%,0%);fill-opacity:1;" d="M 120.253906 120 L 120.253906 100 L 140.253906 100 L 140.253906 120 Z M 120.253906 120 "/>
<path style=" stroke:none;fill-rule:nonzero;fill:rgb(0%,0%,0%);fill-opacity:1;" d="M 120.253906 80 L 120.253906 60 L 140.253906 60 L 140.253906 80 Z M 120.253906 80 "/>
<path style=" stroke:none;fill-rule:nonzero;fill:rgb(0%,0%,0%);fill-opacity:1;" d="M 120.253906 40 L 120.253906 20 L 140.253906 20 L 140.253906 40 Z M 120.253906 40 "/>
<path style=" stroke:none;fill-rule:nonzero;fill:rgb(0%,0%,0%);fill-opacity:1;" d="M 156.253906 200 L 156.253906 180 L 176.253906 180 L 176.253906 200 Z M 156.253906 200 "/>
<path style=" stroke:none;fill-rule:nonzero;fill:rgb(0%,0%,0%);fill-opacity:1;" d="M 156.253906 160 L 156.253906 140 L 176.253906 140 L 176.253906 160 Z M 156.253906 160 "/>
<path style=" stroke:none;fill-rule:nonzero;fill:rgb(0%,0%,0%);fill-opacity:1;" d="M 156.253906 120 L 156.253906 100 L 176.253906 100 L 176.253906 120 Z M 156.253906 120 "/>
<path style=" stroke:none;fill-rule:nonzero;fill:rgb(0%,0%,0%);fill-opacity:1;" d="M 156.253906 80 L 156.253906 60 L 176.253906 60 L 176.253906 80 Z M 156.253906 80 "/>
<path style=" stroke:none;fill-rule:nonzero;fill:rgb(0%,0%,0%);fill-opacity:1;" d="M 156.253906 40 L 156.253906 20 L 176.253906 20 L 176.253906 40 Z M 156.253906 40 "/>
<path style=" stroke:none;fill-rule:nonzero;fill:rgb(0%,0%,0%);fill-opacity:1;" d="M 192.253906 200 L 192.253906 180 L 212.253906 180 L 212.253906 200 Z M 192.253906 200 "/>
<path style=" stroke:none;fill-rule:nonzero;fill:rgb(0%,0%,0%);fill-opacity:1;" d="M 192.253906 160 L 192.253906 140 L 212.253906 140 L 212.253906 160 Z M 192.253906 160 "/>
<path style=" stroke:none;fill-rule:nonzero;fill:rgb(0%,0%,0%);fill-opacity:1;" d="M 192.253906 120 L 192.253906 100 L 212.253906 100 L 212.253906 120 Z M 192.253906 120 "/>
<path style=" stroke:none;fill-rule:nonzero;fill:rgb(0%,0%,0%);fill-opacity:1;" d="M 192.253906 80 L 192.253906 60 L 212.253906 60 L 212.253906 80 Z M 192.253906 80 "/>
<path style=" stroke:none;fill-rule:nonzero;fill:rgb(0%,0%,0%);fill-opacity:1;" d="M 192.253906 40 L 192.253906 20 L 212.253906 20 L 212.253906 40 Z M 192.253906 40 "/>
<path style=" stroke:none;fill-rule:nonzero;fill:rgb(0%,0%,0%);fill-opacity:1;" d="M 228.253906 200 L 228.253906 180 L 248.253906 180 L 248.253906 200 Z M 228.253906 200 "/>
<path style=" stroke:none;fill-rule:nonzero;fill:rgb(0%,0%,0%);fill-opacity:1;" d="M 228.253906 160 L 228.253906 140 L 248.253906 140 L 248.253906 160 Z M 228.253906 160 "/>
<path style=" stroke:none;fill-rule:nonzero;fill:rgb(0%,0%,0%);fill-opacity:1;" d="M 228.253906 120 L 228.253906 100 L 248.253906 100 L 248.253906 120 Z M 228.253906 120 "/>
<path style=" stroke:none;fill-rule:nonzero;fill:rgb(0%,0%,0%);fill-opacity:1;" d="M 228.253906 80 L 228.253906 60 L 248.253906 60 L 248.253906 80 Z M 228.253906 80 "/>
<path style=" stroke:none;fill-rule:nonzero;fill:rgb(0%,0%,0%);fill-opacity:1;" d="M 228.253906 40 L 228.253906 20 L 248.253906 20 L 248.253906 40 Z M 228.253906 40 "/>
<path style=" stroke:none;fill-rule:nonzero;fill:rgb(0%,0%,0%);fill-opacity:1;" d="M 264.253906 200 L 264.253906 180 L 284.253906 180 L 284.253906 200 Z M 264.253906 200 "/>
<path style=" stroke:none;fill-rule:nonzero;fill:rgb(0%,0%,0%);fill-opacity:1;" d="M 264.253906 160 L 264.253906 140 L 284.253906 140 L 284.253906 160 Z M 264.253906 160 "/>
<path style=" stroke:none;fill-rule:nonzero;fill:rgb(0%,0%,0%);fill-opacity:1;" d="M 264.253906 120 L 264.253906 100 L 284.253906 100 L 284.253906 120 Z M 264.253906 120 "/>
<path style=" stroke:none;fill-rule:nonzero;fill:rgb(0%,0%,0%);fill-opacity:1;" d="M 264.253906 80 L 264.253906 60 L 284.253906 60 L 284.253906 80 Z M 264.253906 80 "/>
<path style=" stroke:none;fill-rule:nonzero;fill:rgb(0%,0%,0%);fill-opacity:1;" d="M 264.253906 40 L 264.253906 20 L 284.253906 20 L 284.253906 40 Z M 264.253906 40 "/>
<path style=" stroke:none;fill-rule:nonzero;fill:rgb(0%,0%,0%);fill-opacity:1;" d="M 300.253906 200 L 300.253906 180 L 320.253906 180 L 320.253906 200 Z M 300.253906 200 "/>
<path style=" stroke:none;fill-rule:nonzero;fill:rgb(0%,0%,0%);fill-opacity:1;" d="M 300.253906 160 L 300.253906 140 L 320.253906 140 L 320.253906 160 Z M 300.253906 160 "/>
<path style=" stroke:none;fill-rule:nonzero;fill:rgb(0%,0%,0%);fill-opacity:1;" d="M 300.253906 120 L 300.253906 100 L 320.253906 100 L 320.253906 120 Z M 300.253906 120 "/>
<path style=" stroke:none;fill-rule:nonzero;fill:rgb(0%,0%,0%);fill-opacity:1;" d="M 300.253906 80 L 300.253906 60 L 320.253906 60 L 320.253906 80 Z M 300.253906 80 "/>
<path style=" stroke:none;fill-rule:nonzero;fill:rgb(0%,0%,0%);fill-opacity:1;" d="M 300.253906 40 L 300.253906 20 L 320.253906 20 L 320.253906 40 Z M 300.253906 40 "/>
<path style=" stroke:none;fill-rule:nonzero;fill:rgb(0%,0%,0%);fill-opacity:1;" d="M 336.253906 200 L 336.253906 180 L 356.253906 180 L 356.253906 200 Z M 336.253906 200 "/>
<path style=" stroke:none;fill-rule:nonzero;fill:rgb(0%,0%,0%);fill-opacity:1;" d="M 336.253906 160 L 336.253906 140 L 356.253906 140 L 356.253906 160 Z M 336.253906 160 "/>
<path style=" stroke:none;fill-rule:nonzero;fill:rgb(0%,0%,0%);fill-opacity:1;" d="M 336.253906 120 L 336.253906 100 L 356.253906 100 L 356.253906 120 Z M 336.253906 120 "/>
<path style=" stroke:none;fill-rule:nonzero;fill:rgb(0%,0%,0%);fill-opacity:1;" d="M 336.253906 80 L 336.253906 60 L 356.253906 60 L 356.253906 80 Z M 336.253906 80 "/>
<path style=" stroke:none;fill-rule:nonzero;fill:rgb(0%,0%,0%);fill-opacity:1;" d="M 336.253906 40 L 336.253906 20 L 356.253906 20 L 356.253906 40 Z M 336.253906 40 "/>
<path style=" stroke:none;fill-rule:nonzero;fill:rgb(0%,0%,0%);fill-opacity:1;" d="M 372.253906 200 L 372.253906 180 L 392.253906 180 L 392.253906 200 Z M 372.253906 200 "/>
<path style=" stroke:none;fill-rule:nonzero;fill:rgb(0%,0%,0%);fill-opacity:1;" d="M 372.253906 160 L 372.253906 140 L 392.253906 140 L 392.253906 160 Z M 372.253906 160 "/>
<path style=" stroke:none;fill-rule:nonzero;fill:rgb(0%,0%,0%);fill-opacity:1;" d="M 372.253906 120 L 372.253906 100 L 392.253906 100 L 392.253906 120 Z M 372.253906 120 "/>
<path style=" stroke:none;fill-rule:nonzero;fill:rgb(0%,0%,0%);fill-opacity:1;" d="M 372.253906 80 L 372.253906 60 L 392.253906 60 L 392.253906 80 Z M 372.253906 80 "/>
<path style=" stroke:none;fill-rule:nonzero;fill:rgb(0%,0%,0%);fill-opacity:1;" d="M 372.253906 40 L 372.253906 20 L 392.253906 20 L 392.253906 40 Z M 372.253906 40 "/>
<path style="fill:none;stroke-width:1;stroke-linecap:square;stroke-linejoin:miter;stroke:rgb(100%,0%,0%);stroke-opacity:1;stroke-miterlimit:3.25;" d="M 0 220 L 400 220 "/>
<path style="fill:none;stroke-width:1;stroke-linecap:square;stroke-linejoin:miter;stroke:rgb(100%,0%,0%);stroke-opacity:1;stroke-miterlimit:3.25;" d="M 0 200 L 400 200 "/>
<path style="fill:none;stroke-width:1;stroke-linecap:square;stroke-linejoin:miter;stroke:rgb(100%,0%,0%);stroke-opacity:1;stroke-miterlimit:3.25;" d="M 0 180 L 400 180 "/>
<path style="fill:none;stroke-width:1;stroke-linecap:square;stroke-linejoin:miter;stroke:rgb(100%,0%,0%);stroke-opacity:1;stroke-miterlimit:3.25;" d="M 0 160 L 400 160 "/>
<path style="fill:none;stroke-width:1;stroke-linecap:square;stroke-linejoin:miter;stroke:rgb(100%,0%,0%);stroke-opacity:1;stroke-miterlimit:3.25;" d="M 0 140 L 400 140 "/>
<path style="fill:none;stroke-width:1;stroke-linecap:square;stroke-linejoin:miter;stroke:rgb(100%,0%,0%);stroke-opacity:1;stroke-miterlimit:3.25;" d="M 0 120 L 400 120 "/>
<path style="fill:none;stroke-width:1;stroke-linecap:square;stroke-linejoin:miter;stroke:rgb(100%,0%,0%);stroke-opacity:1;stroke-miterlimit:3.25;" d="M 0 100 L 400 100 "/>
<path style="fill:none;stroke-width:1;stroke-linecap:square;stroke-linejoin:miter;stroke:rgb(100%,0%,0%);stroke-opacity:1;stroke-miterlimit:3.25;" d="M 0 80 L 400 80 "/>
<path style="fill:none;stroke-width:1;stroke-linecap:square;stroke-linejoin:miter;stroke:rgb(100%,0%,0%);stroke-opacity:1;stroke-miterlimit:3.25;" d="M 0 60 L 400 60 "/>
<path style="fill:none;stroke-width:1;stroke-linecap:square;stroke-linejoin:miter;stroke:rgb(100%,0%,0%);stroke-opacity:1;stroke-miterlimit:3.25;" d="M 0 40 L 400 40 "/>
<path style="fill:none;stroke-width:1;stroke-linecap:square;stroke-linejoin:miter;stroke:rgb(100%,0%,0%);stroke-opacity:1;stroke-miterlimit:3.25;" d="M 0 20 L 400 20 "/>
</g>
</svg>
