<?xml version="1.0" encoding="UTF-8"?>
<svg xmlns="http://www.w3.org/2000/svg" xmlns:xlink="http://www.w3.org/1999/xlink" width="400pt" height="220pt" viewBox="0 0 400 220" version="1.1">
<g id="surface741">
<rect x="0" y="0" width="400" height="220" style="fill:rgb(0%,40%,100%);fill-opacity:0.2;stroke:none;"/>
<path style=" stroke:none;fill-rule:nonzero;fill:rgb(0%,0%,0%);fill-opacity:1;" d="M 1.253906 220 L 1.253906 200 L 21.253906 200 L 21.253906 220 Z M 1.253906 220 "/>
<path style=" stroke:none;fill-rule:nonzero;fill:rgb(0%,0%,0%);fill-opacity:1;" d="M 1.253906 180 L 1.253906 160 L 21.253906 160 L 21.253906 180 Z M 1.253906 180 "/>
<path style=" stroke:none;fill-rule:nonzero;fill:rgb(0%,0%,0%);fill-opacity:1;" d="M 1.253906 140 L 1.253906 120 L 21.253906 120 L 21.253906 140 Z M 1.253906 140 "/>
<path style=" stroke:none;fill-rule:nonzero;fill:rgb(0%,0%,0%);fill-opacity:1;" d="M 1.253906 100 L 1.253906 80 L 21.253906 80 L 21.253906 100 Z M 1.253906 100 "/>
<path style=" stroke:none;fill-rule:nonzero;fill:rgb(0%,0%,0%);fill-opacity:1;" d="M 1.253906 60 L 1.253906 40 L 21.253906 40 L 21.253906 60 Z M 1.253906 60 "/>
<path style=" stroke:none;fill-rule:nonzero;fill:rgb(0%,0%,0%);fill-opacity:1;" d="M 1.253906 20 L 1.253906 0 L 21.253906 0 L 21.253906 20 Z M 1.253906 20 "/>
<path style=" stroke:none;fill-rule:nonzero;fill:rgb(0%,0%,0%);fill-opacity:1;" d="M 37.253906 220 L 37.253906 200 L 57.253906 200 L 57.253906 220 Z M 37.253906 220 "/>
<path style=" stroke:none;fill-rule:nonzero;fill:rgb(0%,0%,0%);fill-opacity:1;" d="M 37.253906 180 L 37.253906 160 L 57.253906 160 L 57.253906 180 Z M 37.253906 180 "/>
<path style=" stroke:none;fill-rule:nonzero;fill:rgb(0%,0%,0%);fill-opacity:1;" d="M 37.253906 140 L 37.253906 120 L 57.253906 120 L 57.253906 140 Z M 37.253906 140 "/>
<path style=" stroke:none;fill-rule:nonzero;fill:rgb(0%,0%,0%);fill-opacity:1;" d="M 37.253906 100 L 37.253906 80 L 57.253906 80 L 57.253906 100 Z M 37.253906 100 "/>
<path style=" stroke:none;fill-rule:nonzero;fill:rgb(0%,0%,0%);fill-opacity:1;" d="M 37.253906 60 L 37.253906 40 L 57.253906 40 L 57.253906 60 Z M 37.253906 60 "/>
<path style=" stroke:none;fill-rule:nonzero;fill:rgb(0%,0%,0%);fill-opacity:1;" d="M 37.253906 20 L 37.253906 0 L 57.253906 0 L 57.253906 20 Z M 37.253906 20 "/>
<path style=" stroke:none;fill-rule:nonzero;fill:rgb(0%,0%,0%);fill-opacity:1;" d="M 73.253906 220 L 73.253906 200 L 93.253906 200 L 93.253906 220 Z M 73.253906 220 "/>
<path style=" stroke:none;fill-rule:nonzero;fill:rgb(0%,0%,0%);fill-opacity:1;" d="M 73.253906 180 L 73.253906 160 L 93.253906 160 L 93.253906 180 Z M 73.253906 180 "/>
<path style=" stroke:none;fill-rule:nonzero;fill:rgb(0%,0%,0%);fill-opacity:1;" d="M 73.253906 140 L 73.253906 120 L 93.253906 120 L 93.253906 140 Z M 73.253906 140 "/>
<path style=" stroke:none;fill-rule:nonzero;fill:rgb(0%,0%,0%);fill-opacity:1;" d="M 73.253906 100 L 73.253906 80 L 93.253906 80 L 93.253906 100 Z M 73.253906 100 "/>
<path style=" stroke:none;fill-rule:nonzero;fill:rgb(0%,0%,0%);fill-opacity:1;" d="M 73.253906 60 L 73.253906 40 L 93.253906 40 L 93.253906 60 Z M 73.253906 60 "/>
<path style=" stroke:none;fill-rule:nonzero;fill:rgb(0%,0%,0%);fill-opacity:1;" d="M 73.253906 20 L 73.253906 0 L 93.253906 0 L 93.253906 20 Z M 73.253906 20 "/>
<path style=" stroke:none;fill-rule:nonzero;fill:rgb(0%,0%,0%);fill-opacity:1;" d="M 109.253906 220 L 109.253906 200 L 129.253906 200 L 129.253906 220 Z M 109.253906 220 "/>
<path style=" stroke:none;fill-rule:nonzero;fill:rgb(0%,0%,0%);fill-opacity:1;" d="M 109.253906 180 L 109.253906 160 L 129.253906 160 L 129.253906 180 Z M 109.253906 180 "/>
<path style=" stroke:none;fill-rule:nonzero;fill:rgb(0%,0%,0%);fill-opacity:1;" d="M 109.253906 140 L 109.253906 120 L 129.253906 120 L 129.253906 140 Z M 109.253906 140 "/>
<path style=" stroke:none;fill-rule:nonzero;fill:rgb(0%,0%,0%);fill-opacity:1;" d="M 109.253906 100 L 109.253906 80 L 129.253906 80 L 129.253906 100 Z M 109.253906 100 "/>
<path style=" stroke:none;fill-rule:nonzero;fill:rgb(0%,0%,0%);fill-opacity:1;" d="M 109.253906 60 L 109.253906 40 L 129.253906 40 L 129.253906 60 Z M 109.253906 60 "/>
<path style=" stroke:none;fill-rule:nonzero;fill:rgb(0%,0%,0%);fill-opacity:1;" d="M 109.253906 20 L 109.253906 0 L 129.253906 0 L 129.253906 20 Z M 109.253906 20 "/>
<path style=" stroke:none;fill-rule:nonzero;fill:rgb(0%,0%,0%);fill-opacity:1;" d="M 145.253906 220 L 145.253906 200 L 165.253906 200 L 165.253906 220 Z M 145.253906 220 "/>
<path style=" stroke:none;fill-rule:nonzero;fill:rgb(0%,0%,0%);fill-opacity:1;" d="M 145.253906 180 L 145.253906 160 L 165.253906 160 L 165.253906 180 Z M 145.253906 180 "/>
<path style=" stroke:none;fill-rule:nonzero;fill:rgb(0%,0%,0%);fill-opacity:1;" d="M 145.253906 140 L 145.253906 120 L 165.253906 120 L 165.253906 140 Z M 145.253906 140 "/>
<path style=" stroke:none;fill-rule:nonzero;fill:rgb(0%,0%,0%);fill-opacity:1;" d="M 145.253906 100 L 145.253906 80 L 165.253906 80 L 165.253906 100 Z M 145.253906 100 "/>
<path style=" stroke:none;fill-rule:nonzero;fill:rgb(0%,0%,0%);fill-opacity:1;" d="M 145.253906 60 L 145.253906 40 L 165.253906 40 L 165.253906 60 Z M 145.253906 60 "/>
<path style=" stroke:none;fill-rule:nonzero;fill:rgb(0%,0%,0%);fill-opacity:1;" d="M 145.253906 20 L 145.253906 0 L 165.253906 0 L 165.253906 20 Z M 145.253906 20 "/>
<path style=" stroke:none;fill-rule:nonzero;fill:rgb(0%,0%,0%);fill-opacity:1;" d="M 181.253906 220 L 181.253906 200 L 201.253906 200 L 201.253906 220 Z M 181.253906 220 "/>
<path style=" stroke:none;fill-rule:nonzero;fill:rgb(0%,0%,0%);fill-opacity:1;" d="M 181.253906 180 L 181.253906 160 L 201.253906 160 L 201.253906 180 Z M 181.253906 180 "/>
<path style=" stroke:none;fill-rule:nonzero;fill:rgb(0%,0%,0%);fill-opacity:1;" d="M 181.253906 140 L 181.253906 120 L 201.253906 120 L 201.253906 140 Z M 181.253906 140 "/>
<path style=" stroke:none;fill-rule:nonzero;fill:rgb(0%,0%,0%);fill-opacity:1;" d="M 181.253906 100 L 181.253906 80 L 201.253906 80 L 201.253906 100 Z M 181.253906 100 "/>
<path style=" stroke:none;fill-rule:nonzero;fill:rgb(0%,0%,0%);fill-opacity:1;" d="M 181.253906 60 L 181.253906 40 L 201.253906 40 L 201.253906 60 Z M 181.253906 60 "/>
<path style=" stroke:none;fill-rule:nonzero;fill:rgb(0%,0%,0%);fill-opacity:1;" d="M 181.253906 20 L 181.253906 0 L 201.253906 0 L 201.253906 20 Z M 181.253906 20 "/>
<path style=" stroke:none;fill-rule:nonzero;fill:rgb(0%,0%,0%);fill-opacity:1;" d="M 217.253906 220 L 217.253906 200 L 237.253906 200 L 237.253906 220 Z M 217.253906 220 "/>
<path style=" stroke:none;fill-rule:nonzero;fill:rgb(0%,0%,0%);fill-opacity:1;" d="M 217.253906 180 L 217.253906 160 L 237.253906 160 L 237.253906 180 Z M 217.253906 180 "/>
<path style=" stroke:none;fill-rule:nonzero;fill:rgb(0%,0%,0%);fill-opacity:1;" d="M 217.253906 140 L 217.253906 120 L 237.253906 120 L 237.253906 140 Z M 217.253906 140 "/>
<path style=" stroke:none;fill-rule:nonzero;fill:rgb(0%,0%,0%);fill-opacity:1;" d="M 217.253906 100 L 217.253906 80 L 237.253906 80 L 237.253906 100 Z M 217.253906 100 "/>
<path style=" stroke:none;fill-rule:nonzero;fill:rgb(0%,0%,0%);fill-opacity:1;" d="M 217.253906 60 L 217.253906 40 L 237.253906 40 L 237.253906 60 Z M 217.253906 60 "/>
<path style=" stroke:none;fill-rule:nonzero;fill:rgb(0%,0%,0%);fill-opacity:1;" d="M 217.253906 20 L 217.253906 0 L 237.253906 0 L 237.253906 20 Z M 217.253906 20 "/>
<path style=" stroke:none;fill-rule:nonzero;fill:rgb(0%,0%,0%);fill-opacity:1;" d="M 253.253906 220 L 253.253906 200 L 273.253906 200 L 273.253906 220 Z M 253.253906 220 "/>
<path style=" stroke:none;fill-rule:nonzero;fill:rgb(0%,0%,0%);fill-opacity:1;" d="M 253.253906 180 L 253.253906 160 L 273.253906 160 L 273.253906 180 Z M 253.253906 180 "/>
<path style=" stroke:none;fill-rule:nonzero;fill:rgb(0%,0%,0%);fill-opacity:1;" d="M 253.253906 140 L 253.253906 120 L 273.253906 120 L 273.253906 140 Z M 253.253906 140 "/>
<path style=" stroke:none;fill-rule:nonzero;fill:rgb(0%,0%,0%);fill-opacity:1;" d="M 253.253906 100 L 253.253906 80 L 273.253906 80 L 273.253906 100 Z M 253.253906 100 "/>
<path style=" stroke:none;fill-rule:nonzero;fill:rgb(0%,0%,0%);fill-opacity:1;" d="M 253.253906 60 L 253.253906 40 L 273.253906 40 L 273.253906 60 Z M 253.253906 60 "/>
<path style=" stroke:none;fill-rule:nonzero;fill:rgb(0%,0%,0%);fill-opacity:1;" d="M 253.253906 20 L 253.253906 0 L 273.253906 0 L 273.253906 20 Z M 253.253906 20 "/>
<path style=" stroke:none;fill-rule:nonzero;fill:rgb(0%,0%,0%);fill-opacity:1;" d="M 289.253906 220 L 289.253906 200 L 309.253906 200 L 309.253906 220 Z M 289.253906 220 "/>
<path style=" stroke:none;fill-rule:nonzero;fill:rgb(0%,0%,0%);fill-opacity:1;" d="M 289.253906 180 L 289.253906 160 L 309.253906 160 L 309.253906 180 Z M 289.253906 180 "/>
<path style=" stroke:none;fill-rule:nonzero;fill:rgb(0%,0%,0%);fill-opacity:1;" d="M 289.253906 140 L 289.253906 120 L 309.253906 120 L 309.253906 140 Z M 289.253906 140 "/>
<path style=" stroke:none;fill-rule:nonzero;fill:rgb(0%,0%,0%);fill-opacity:1;" d="M 289.253906 100 L 289.253906 80 L 309.253906 80 L 309.253906 100 Z M 289.253906 100 "/>
<path style=" stroke:none;fill-rule:nonzero;fill:rgb(0%,0%,0%);fill-opacity:1;" d="M 289.253906 60 L 289.253906 40 L 309.253906 40 L 309.253906 60 Z M 289.253906 60 "/>
<path style=" stroke:none;fill-rule:nonzero;fill:rgb(0%,0%,0%);fill-opacity:1;" d="M 289.253906 20 L 289.253906 0 L 309.253906 0 L 309.253906 20 Z M 289.253906 20 "/>
<path style=" stroke:none;fill-rule:nonzero;fill:rgb(0%,0%,0%);fill-opacity:1;" d="M 325.253906 220 L 325.253906 200 L 345.253906 200 L 345.253906 220 Z M 325.253906 220 "/>
<path style=" stroke:none;fill-rule:nonzero;fill:rgb(0%,0%,0%);fill-opacity:1;" d="M 325.253906 180 L 325.253906 160 L 345.253906 160 L 345.253906 180 Z M 325.253906 180 "/>
<path style=" stroke:none;fill-rule:nonzero;fill:rgb(0%,0%,0%);fill-opacity:1;" d="M 325.253906 140 L 325.253906 120 L 345.253906 120 L 345.253906 140 Z M 325.253906 140 "/>
<path style=" stroke:none;fill-rule:nonzero;fill:rgb(0%,0%,0%);fill-opacity:1;" d="M 325.253906 100 L 325.253906 80 L 345.253906 80 L 345.253906 100 Z M 325.253906 100 "/>
<path style=" stroke:none;fill-rule:nonzero;fill:rgb(0%,0%,0%);fill-opacity:1;" d="M 325.253906 60 L 325.253906 40 L 345.253906 40 L 345.253906 60 Z M 325.253906 60 "/>
<path style=" stroke:none;fill-rule:nonzero;fill:rgb(0%,0%,0%);fill-opacity:1;" d="M 325.253906 20 L 325.253906 0 L 345.253906 0 L 345.253906 20 Z M 325.253906 20 "/>
<path style=" stroke:none;fill-rule:nonzero;fill:rgb(0%,0%,0%);fill-opacity:1;" d="M 361.253906 220 L 361.253906 200 L 381.253906 200 L 381.253906 220 Z M 361.253906 220 "/>
<path style=" stroke:none;fill-rule:nonzero;fill:rgb(0%,0%,0%);fill-opacity:1;" d="M 361.253906 180 L 361.253906 160 L 381.253906 160 L 381.253906 180 Z M 361.253906 180 "/>
<path style=" stroke:none;fill-rule:nonzero;fill:rgb(0%,0%,0%);fill-opacity:1;" d="M 361.253906 140 L 361.253906 120 L 381.253906 120 L 381.253906 140 Z M 361.253906 140 "/>
<path style=" stroke:none;fill-rule:nonzero;fill:rgb(0%,0%,0%);fill-opacity:1;" d="M 361.253906 100 L 361.253906 80 L 381.253906 80 L 381.253906 100 Z M 361.253906 100 "/>
<path style=" stroke:none;fill-rule:nonzero;fill:rgb(0%,0%,0%);fill-opacity:1;" d="M 361.253906 60 L 361.253906 40 L 381.253906 40 L 381.253906 60 Z M 361.253906 60 "/>
<path style=" stroke:none;fill-rule:nonzero;fill:rgb(0%,0%,0%);fill-opacity:1;" d="M 361.253906 20 L 361.253906 0 L 381.253906 0 L 381.253906 20 Z M 361.253906 20 "/>
<path style=" stroke:none;fill-rule:nonzero;fill:rgb(0%,0%,0%);fill-opacity:1;" d="M 397.253906 220 L 397.253906 200 L 417.253906 200 L 417.253906 220 Z M 397.253906 220 "/>
<path style=" stroke:none;fill-rule:nonzero;fill:rgb(0%,0%,0%);fill-opacity:1;" d="M 397.253906 180 L 397.253906 160 L 417.253906 160 L 417.253906 180 Z M 397.253906 180 "/>
<path style=" stroke:none;fill-rule:nonzero;fill:rgb(0%,0%,0%);fill-opacity:1;" d="M 397.253906 140 L 397.253906 120 L 417.253906 120 L 417.253906 140 Z M 397.253906 140 "/>
<path style=" stroke:none;fill-rule:nonzero;fill:rgb(0%,0%,0%);fill-opacity:1;" d="M 397.253906 100 L 397.253906 80 L 417.253906 80 L 417.253906 100 Z M 397.253906 100 "/>
<path style=" stroke:none;fill-rule:nonzero;fill:rgb(0%,0%,0%);fill-opacity:1;" d="M 397.253906 60 L 397.253906 40 L 417.253906 40 L 417.253906 60 Z M 397.253906 60 "/>
<path style=" stroke:none;fill-rule:nonzero;fill:rgb(0%,0%,0%);fill-opacity:1;" d="M 397.253906 20 L 397.253906 0 L 417.253906 0 L 417.253906 20 Z M 397.253906 20 "/>
<path style=" stroke:none;fill-rule:nonzero;fill:rgb(0%,0%,0%);fill-opacity:1;" d="M -0.0390625 200 L -0.0390625 180 L 19.960938 180 L 19.960938 200 Z M -0.0390625 200 "/>
<path style=" stroke:none;fill-rule:nonzero;fill:rgb(0%,0%,0%);fill-opacity:1;" d="M -0.0390625 160 L -0.0390625 140 L 19.960938 140 L 19.960938 160 Z M -0.0390625 160 "/>
<path style=" stroke:none;fill-rule:nonzero;fill:rgb(0%,0%,0%);fill-opacity:1;" d="M -0.0390625 120 L -0.0390625 100 L 19.960938 100 L 19.960938 120 Z M -0.0390625 120 "/>
<path style=" stroke:none;fill-rule:nonzero;fill:rgb(0%,0%,0%);fill-opacity:1;" d="M -0.0390625 80 L -0.0390625 60 L 19.960938 60 L 19.960938 80 Z M -0.0390625 80 "/>
<path style=" stroke:none;fill-rule:nonzero;fill:rgb(0%,0%,0%);fill-opacity:1;" d="M -0.0390625 40 L -0.0390625 20 L 19.960938 20 L 19.960938 40 Z M -0.0390625 40 "/>
<path style=" stroke:none;fill-rule:nonzero;fill:rgb(0%,0%,0%);fill-opacity:1;" d="M 35.960938 200 L 35.960938 180 L 55.960938 180 L 55.960938 200 Z M 35.960938 200 "/>
<path style=" stroke:none;fill-rule:nonzero;fill:rgb(0%,0%,0%);fill-opacity:1;" d="M 35.960938 160 L 35.960938 140 L 55.960938 140 L 55.960938 160 Z M 35.960938 160 "/>
<path style=" stroke:none;fill-rule:nonzero;fill:rgb(0%,0%,0%);fill-opacity:1;" d="M 35.960938 120 L 35.960938 100 L 55.960938 100 L 55.960938 120 Z M 35.960938 120 "/>
<path style=" stroke:none;fill-rule:nonzero;fill:rgb(0%,0%,0%);fill-opacity:1;" d="M 35.960938 80 L 35.960938 60 L 55.960938 60 L 55.960938 80 Z M 35.960938 80 "/>
<path style=" stroke:none;fill-rule:nonzero;fill:rgb(0%,0%,0%);fill-opacity:1;" d="M 35.960938 40 L 35.960938 20 L 55.960938 20 L 55.960938 40 Z M 35.960938 40 "/>
<path style=" stroke:none;fill-rule:nonzero;fill:rgb(0%,0%,0%);fill-opacity:1;" d="M 71.960938 200 L 71.960938 180 L 91.960938 180 L 91.960938 200 Z M 71.960938 200 "/>
<path style=" stroke:none;fill-rule:nonzero;fill:rgb(0%,0%,0%);fill-opacity:1;" d="M 71.960938 160 L 71.960938 140 L 91.960938 140 L 91.960938 160 Z M 71.960938 160 "/>
<path style=" stroke:none;fill-rule:nonzero;fill:rgb(0%,0%,0%);fill-opacity:1;" d="M 71.960938 120 L 71.960938 100 L 91.960938 100 L 91.960938 120 Z M 71.960938 120 "/>
<path style=" stroke:none;fill-rule:nonzero;fill:rgb(0%,0%,0%);fill-opacity:1;" d="M 71.960938 80 L 71.960938 60 L 91.960938 60 L 91.960938 80 Z M 71.960938 80 "/>
<path style=" stroke:none;fill-rule:nonzero;fill:rgb(0%,0%,0%);fill-opacity:1;" d="M 71.960938 40 L 71.960938 20 L 91.960938 20 L 91.960938 40 Z M 71.960938 40 "/>
<path style=" stroke:none;fill-rule:nonzero;fill:rgb(0%,0%,0%);fill-opacity:1;" d="M 107.960938 200 L 107.960938 180 L 127.960938 180 L 127.960938 200 Z M 107.960938 200 "/>
<path style=" stroke:none;fill-rule:nonzero;fill:rgb(0%,0%,0%);fill-opacity:1;" d="M 107.960938 160 L 107.960938 140 L 127.960938 140 L 127.960938 160 Z M 107.960938 160 "/>
<path style=" stroke:none;fill-rule:nonzero;fill:rgb(0%,0%,0%);fill-opacity:1;" d="M 107.960938 120 L 107.960938 100 L 127.960938 100 L 127.960938 120 Z M 107.960938 120 "/>
<path style=" stroke:none;fill-rule:nonzero;fill:rgb(0%,0%,0%);fill-opacity:1;" d="M 107.960938 80 L 107.960938 60 L 127.960938 60 L 127.960938 80 Z M 107.960938 80 "/>
<path style=" stroke:none;fill-rule:nonzero;fill:rgb(0%,0%,0%);fill-opacity:1;" d="M 107.960938 40 L 107.960938 20 L 127.960938 20 L 127.960938 40 Z M 107.960938 40 "/>
<path style=" stroke:none;fill-rule:nonzero;fill:rgb(0%,0%,0%);fill-opacity:1;" d="M 143.960938 200 L 143.960938 180 L 163.960938 180 L 163.960938 200 Z M 143.960938 200 "/>
<path style=" stroke:none;fill-rule:nonzero;fill:rgb(0%,0%,0%);fill-opacity:1;" d="M 143.960938 160 L 143.960938 140 L 163.960938 140 L 163.960938 160 Z M 143.960938 160 "/>
<path style=" stroke:none;fill-rule:nonzero;fill:rgb(0%,0%,0%);fill-opacity:1;" d="M 143.960938 120 L 143.960938 100 L 163.960938 100 L 163.960938 120 Z M 143.960938 120 "/>
<path style=" stroke:none;fill-rule:nonzero;fill:rgb(0%,0%,0%);fill-opacity:1;" d="M 143.960938 80 L 143.960938 60 L 163.960938 60 L 163.960938 80 Z M 143.960938 80 "/>
<path style=" stroke:none;fill-rule:nonzero;fill:rgb(0%,0%,0%);fill-opacity:1;" d="M 143.960938 40 L 143.960938 20 L 163.960938 20 L 163.960938 40 Z M 143.960938 40 "/>
<path style=" stroke:none;fill-rule:nonzero;fill:rgb(0%,0%,0%);fill-opacity:1;" d="M 179.960938 200 L 179.960938 180 L 199.960938 180 L 199.960938 200 Z M 179.960938 200 "/>
<path style=" stroke:none;fill-rule:nonzero;fill:rgb(0%,0%,0%);fill-opacity:1;" d="M 179.960938 160 L 179.960938 140 L 199.960938 140 L 199.960938 160 Z M 179.960938 160 "/>
<path style=" stroke:none;fill-rule:nonzero;fill:rgb(0%,0%,0%);fill-opacity:1;" d="M 179.960938 120 L 179.960938 100 L 199.960938 100 L 199.960938 120 Z M 179.960938 120 "/>
<path style=" stroke:none;fill-rule:nonzero;fill:rgb(0%,0%,0%);fill-opacity:1;" d="M 179.960938 80 L 179.960938 60 L 199.960938 60 L 199.960938 80 Z M 179.960938 80 "/>
<path style=" stroke:none;fill-rule:nonzero;fill:rgb(0%,0%,0%);fill-opacity:1;" d="M 179.960938 40 L 179.960938 20 L 199.960938 20 L 199.960938 40 Z M 179.960938 40 "/>
<path style=" stroke:none;fill-rule:nonzero;fill:rgb(0%,0%,0%);fill-opacity:1;" d="M 215.960938 200 L 215.960938 180 L 235.960938 180 L 235.960938 200 Z M 215.960938 200 "/>
<path style=" stroke:none;fill-rule:nonzero;fill:rgb(0%,0%,0%);fill-opacity:1;" d="M 215.960938 160 L 215.960938 140 L 235.960938 140 L 235.960938 160 Z M 215.960938 160 "/>
<path style=" stroke:none;fill-rule:nonzero;fill:rgb(0%,0%,0%);fill-opacity:1;" d="M 215.960938 120 L 215.960938 100 L 235.960938 100 L 235.960938 120 Z M 215.960938 120 "/>
<path style=" stroke:none;fill-rule:nonzero;fill:rgb(0%,0%,0%);fill-opacity:1;" d="M 215.960938 80 L 215.960938 60 L 235.960938 60 L 235.960938 80 Z M 215.960938 80 "/>
<path style=" stroke:none;fill-rule:nonzero;fill:rgb(0%,0%,0%);fill-opacity:1;" d="M 215.960938 40 L 215.960938 20 L 235.960938 20 L 235.960938 40 Z M 215.960938 40 "/>
<path style=" stroke:none;fill-rule:nonzero;fill:rgb(0%,0%,0%);fill-opacity:1;" d="M 251.960938 200 L 251.960938 180 L 271.960938 180 L 271.960938 200 Z M 251.960938 200 "/>
<path style=" stroke:none;fill-rule:nonzero;fill:rgb(0%,0%,0%);fill-opacity:1;" d="M 251.960938 160 L 251.960938 140 L 271.960938 140 L 271.960938 160 Z M 251.960938 160 "/>
<path style=" stroke:none;fill-rule:nonzero;fill:rgb(0%,0%,0%);fill-opacity:1;" d="M 251.960938 120 L 251.960938 100 L 271.960938 100 L 271.960938 120 Z M 251.960938 120 "/>
<path style=" stroke:none;fill-rule:nonzero;fill:rgb(0%,0%,0%);fill-opacity:1;" d="M 251.960938 80 L 251.960938 60 L 271.960938 60 L 271.960938 80 Z M 251.960938 80 "/>
<path style=" stroke:none;fill-rule:nonzero;fill:rgb(0%,0%,0%);fill-opacity:1;" d="M 251.960938 40 L 251.960938 20 L 271.960938 20 L 271.960938 40 Z M 251.960938 40 "/>
<path style=" stroke:none;fill-rule:nonzero;fill:rgb(0%,0%,0%);fill-opacity:1;" d="M 287.960938 200 L 287.960938 180 L 307.960938 180 L 307.960938 200 Z M 287.960938 200 "/>
<path style=" stroke:none;fill-rule:nonzero;fill:rgb(0%,0%,0%);fill-opacity:1;" d="M 287.960938 160 L 287.960938 140 L 307.960938 140 L 307.960938 160 Z M 287.960938 160 "/>
<path style=" stroke:none;fill-rule:nonzero;fill:rgb(0%,0%,0%);fill-opacity:1;" d="M 287.960938 120 L 287.960938 100 L 307.960938 100 L 307.960938 120 Z M 287.960938 120 "/>
<path style=" stroke:none;fill-rule:nonzero;fill:rgb(0%,0%,0%);fill-opacity:1;" d="M 287.960938 80 L 287.960938 60 L 307.960938 60 L 307.960938 80 Z M 287.960938 80 "/>
<path style=" stroke:none;fill-rule:nonzero;fill:rgb(0%,0%,0%);fill-opacity:1;" d="M 287.960938 40 L 287.960938 20 L 307.960938 20 L 307.960938 40 Z M 287.960938 40 "/>
<path style=" stroke:none;fill-rule:nonzero;fill:rgb(0%,0%,0%);fill-opacity:1;" d="M 323.960938 200 L 323.960938 180 L 343.960938 180 L 343.960938 200 Z M 323.960938 200 "/>
<path style=" stroke:none;fill-rule:nonzero;fill:rgb(0%,0%,0%);fill-opacity:1;" d="M 323.960938 160 L 323.960938 140 L 343.960938 140 L 343.960938 160 Z M 323.960938 160 "/>
<path style=" stroke:none;fill-rule:nonzero;fill:rgb(0%,0%,0%);fill-opacity:1;" d="M 323.960938 120 L 323.960938 100 L 343.960938 100 L 343.960938 120 Z M 323.960938 120 "/>
<path style=" stroke:none;fill-rule:nonzero;fill:rgb(0%,0%,0%);fill-opacity:1;" d="M 323.960938 80 L 323.960938 60 L 343.960938 60 L 343.960938 80 Z M 323.960938 80 "/>
<path style=" stroke:none;fill-rule:nonzero;fill:rgb(0%,0%,0%);fill-opacity:1;" d="M 323.960938 40 L 323.960938 20 L 343.960938 20 L 343.960938 40 Z M 323.960938 40 "/>
<path style=" stroke:none;fill-rule:nonzero;fill:rgb(0%,0%,0%);fill-opacity:1;" d="M 359.960938 200 L 359.960938 180 L 379.960938 180 L 379.960938 200 Z M 359.960938 200 "/>
<path style=" stroke:none;fill-rule:nonzero;fill:rgb(0%,0%,0%);fill-opacity:1;" d="M 359.960938 160 L 359.960938 140 L 379.960938 140 L 379.960938 160 Z M 359.960938 160 "/>
<path style=" stroke:none;fill-rule:nonzero;fill:rgb(0%,0%,0%);fill-opacity:1;" d="M 359.960938 120 L 359.960938 100 L 379.960938 100 L 379.960938 120 Z M 359.960938 120 "/>
<path style=" stroke:none;fill-rule:nonzero;fill:rgb(0%,0%,0%);fill-opacity:1;" d="M 359.960938 80 L 359.960938 60 L 379.960938 60 L 379.960938 80 Z M 359.960938 80 "/>
<path style=" stroke:none;fill-rule:nonzero;fill:rgb(0%,0%,0%);fill-opacity:1;" d="M 359.960938 40 L 359.960938 20 L 379.960938 20 L 379.960938 40 Z M 359.960938 40 "/>
<path style=" stroke:none;fill-rule:nonzero;fill:rgb(0%,0%,0%);fill-opacity:1;" d="M 395.960938 200 L 395.960938 180 L 415.960938 180 L 415.960938 200 Z M 395.960938 200 "/>
<path style=" stroke:none;fill-rule:nonzero;fill:rgb(0%,0%,0%);fill-opacity:1;" d="M 395.960938 160 L 395.960938 140 L 415.960938 140 L 415.960938 160 Z M 395.960938 160 "/>
<path style=" stroke:none;fill-rule:nonzero;fill:rgb(0%,0%,0%);fill-opacity:1;" d="M 395.960938 120 L 395.960938 100 L 415.960938 100 L 415.960938 120 Z M 395.960938 120 "/>
<path style=" stroke:none;fill-rule:nonzero;fill:rgb(0%,0%,0%);fill-opacity:1;" d="M 395.960938 80 L 395.960938 60 L 415.960938 60 L 415.960938 80 Z M 395.960938 80 "/>
<path style=" stroke:none;fill-rule:nonzero;fill:rgb(0%,0%,0%);fill-opacity:1;" d="M 395.960938 40 L 395.960938 20 L 415.960938 20 L 415.960938 40 Z M 395.960938 40 "/>
<path style="fill:none;stroke-width:1;stroke-linecap:square;stroke-linejoin:miter;stroke:rgb(100%,0%,0%);stroke-opacity:1;stroke-miterlimit:3.25;" d="M 0 220 L 400 220 "/>
<path style="fill:none;stroke-width:1;stroke-linecap:square;stroke-linejoin:miter;stroke:rgb(100%,0%,0%);stroke-opacity:1;stroke-miterlimit:3.25;" d="M 0 200 L 400 200 "/>
<path style="fill:none;stroke-width:1;stroke-linecap:square;stroke-linejoin:miter;stroke:rgb(100%,0%,0%);stroke-opacity:1;stroke-miterlimit:3.25;" d="M 0 180 L 400 180 "/>
<path style="fill:none;stroke-width:1;stroke-linecap:square;stroke-linejoin:miter;stroke:rgb(100%,0%,0%);stroke-opacity:1;stroke-miterlimit:3.25;" d="M 0 160 L 400 160 "/>
<path style="fill:none;stroke-width:1;stroke-linecap:square;stroke-linejoin:miter;stroke:rgb(100%,0%,0%);stroke-opacity:1;stroke-miterlimit:3.25;" d="M 0 140 L 400 140 "/>
<path style="fill:none;stroke-width:1;stroke-linecap:square;stroke-linejoin:miter;stroke:rgb(100%,0%,0%);stroke-opacity:1;stroke-miterlimit:3.25;" d="M 0 120 L 400 120 "/>
<path style="fill:none;stroke-width:1;stroke-linecap:square;stroke-linejoin:miter;stroke:rgb(100%,0%,0%);stroke-opacity:1;stroke-miterlimit:3.25;" d="M 0 100 L 400 100 "/>
<path style="fill:none;stroke-width:1;stroke-linecap:square;stroke-linejoin:miter;stroke:rgb(100%,0%,0%);stroke-opacity:1;stroke-miterlimit:3.25;" d="M 0 80 L 400 80 "/>
<path style="fill:none;stroke-width:1;stroke-linecap:square;stroke-linejoin:miter;stroke:rgb(100%,0%,0%);stroke-opacity:1;stroke-miterlimit:3.25;" d="M 0 60 L 400 60 "/>
<path style="fill:none;stroke-width:1;stroke-linecap:square;stroke-linejoin:miter;stroke:rgb(100%,0%,0%);stroke-opacity:1;stroke-miterlimit:3.25;" d="M 0 40 L 400 40 "/>
<path style="fill:none;stroke-width:1;stroke-linecap:square;stroke-linejoin:miter;stroke:rgb(100%,0%,0%);stroke-opacity:1;stroke-miterlimit:3.25;" d="M 0 20 L 400 20 "/>
</g>
</svg>
