<?xml version="1.0" encoding="UTF-8"?>
<svg xmlns="http://www.w3.org/2000/svg" xmlns:xlink="http://www.w3.org/1999/xlink" width="400pt" height="220pt" viewBox="0 0 400 220" version="1.1">
<g id="surface981">
<rect x="0" y="0" width="400" height="220" style="fill:rgb(0%,40%,100%);fill-opacity:0.2;stroke:none;"/>
<path style=" stroke:none;fill-rule:nonzero;fill:rgb(0%,0%,0%);fill-opacity:1;" d="M -3.746094 220 L -3.746094 200 L 16.253906 200 L 16.253906 220 Z M -3.746094 220 "/>
<path style=" stroke:none;fill-rule:nonzero;fill:rgb(0%,0%,0%);fill-opacity:1;" d="M -3.746094 180 L -3.746094 160 L 16.253906 160 L 16.253906 180 Z M -3.746094 180 "/>
<path style=" stroke:none;fill-rule:nonzero;fill:rgb(0%,0%,0%);fill-opacity:1;" d="M -3.746094 140 L -3.746094 120 L 16.253906 120 L 16.253906 140 Z M -3.746094 140 "/>
<path style=" stroke:none;fill-rule:nonzero;fill:rgb(0%,0%,0%);fill-opacity:1;" d="M -3.746094 100 L -3.746094 80 L 16.253906 80 L 16.253906 100 Z M -3.746094 100 "/>
<path style=" stroke:none;fill-rule:nonzero;fill:rgb(0%,0%,0%);fill-opacity:1;" d="M -3.746094 60 L -3.746094 40 L 16.253906 40 L 16.253906 60 Z M -3.746094 60 "/>
<path style=" stroke:none;fill-rule:nonzero;fill:rgb(0%,0%,0%);fill-opacity:1;" d="M -3.746094 20 L -3.746094 0 L 16.253906 0 L 16.253906 20 Z M -3.746094 20 "/>
<path style=" stroke:none;fill-rule:nonzero;fill:rgb(0%,0%,0%);fill-opacity:1;" d="M 32.253906 220 L 32.253906 200 L 52.253906 200 L 52.253906 220 Z M 32.253906 220 "/>
<path style=" stroke:none;fill-rule:nonzero;fill:rgb(0%,0%,0%);fill-opacity:1;" d="M 32.253906 180 L 32.253906 160 L 52.253906 160 L 52.253906 180 Z M 32.253906 180 "/>
<path style=" stroke:none;fill-rule:nonzero;fill:rgb(0%,0%,0%);fill-opacity:1;" d="M 32.253906 140 L 32.253906 120 L 52.253906 120 L 52.253906 140 Z M 32.253906 140 "/>
<path style=" stroke:none;fill-rule:nonzero;fill:rgb(0%,0%,0%);fill-opacity:1;" d="M 32.253906 100 L 32.253906 80 L 52.253906 80 L 52.253906 100 Z M 32.253906 100 "/>
<path style=" stroke:none;fill-rule:nonzero;fill:rgb(0%,0%,0%);fill-opacity:1;" d="M 32.253906 60 L 32.253906 40 L 52.253906 40 L 52.253906 60 Z M 32.253906 60 "/>
<path style=" stroke:none;fill-rule:nonzero;fill:rgb(0%,0%,0%);fill-opacity:1;" d="M 32.253906 20 L 32.253906 0 L 52.253906 0 L 52.253906 20 Z M 32.253906 20 "/>
<path style=" stroke:none;fill-rule:nonzero;fill:rgb(0%,0%,0%);fill-opacity:1;" d="M 68.253906 220 L 68.253906 200 L 88.253906 200 L 88.253906 220 Z M 68.253906 220 "/>
<path style=" stroke:none;fill-rule:nonzero;fill:rgb(0%,0%,0%);fill-opacity:1;" d="M 68.253906 180 L 68.253906 160 L 88.253906 160 L 88.253906 180 Z M 68.253906 180 "/>
<path style=" stroke:none;fill-rule:nonzero;fill:rgb(0%,0%,0%);fill-opacity:1;" d="M 68.253906 140 L 68.253906 120 L 88.253906 120 L 88.253906 140 Z M 68.253906 140 "/>
<path style=" stroke:none;fill-rule:nonzero;fill:rgb(0%,0%,0%);fill-opacity:1;" d="M 68.253906 100 L 68.253906 80 L 88.253906 80 L 88.253906 100 Z M 68.253906 100 "/>
<path style=" stroke:none;fill-rule:nonzero;fill:rgb(0%,0%,0%);fill-opacity:1;" d="M 68.253906 60 L 68.253906 40 L 88.253906 40 L 88.253906 60 Z M 68.253906 60 "/>
<path style=" stroke:none;fill-rule:nonzero;fill:rgb(0%,0%,0%);fill-opacity:1;" d="M 68.253906 20 L 68.253906 0 L 88.253906 0 L 88.253906 20 Z M 68.253906 20 "/>
<path style=" stroke:none;fill-rule:nonzero;fill:rgb(0%,0%,0%);fill-opacity:1;" d="M 104.253906 220 L 104.253906 200 L 124.253906 200 L 124.253906 220 Z M 104.253906 220 "/>
<path style=" stroke:none;fill-rule:nonzero;fill:rgb(0%,0%,0%);fill-opacity:1;" d="M 104.253906 180 L 104.253906 160 L 124.253906 160 L 124.253906 180 Z M 104.253906 180 "/>
<path style=" stroke:none;fill-rule:nonzero;fill:rgb(0%,0%,0%);fill-opacity:1;" d="M 104.253906 140 L 104.253906 120 L 124.253906 120 L 124.253906 140 Z M 104.253906 140 "/>
<path style=" stroke:none;fill-rule:nonzero;fill:rgb(0%,0%,0%);fill-opacity:1;" d="M 104.253906 100 L 104.253906 80 L 124.253906 80 L 124.253906 100 Z M 104.253906 100 "/>
<path style=" stroke:none;fill-rule:nonzero;fill:rgb(0%,0%,0%);fill-opacity:1;" d="M 104.253906 60 L 104.253906 40 L 124.253906 40 L 124.253906 60 Z M 104.253906 60 "/>
<path style=" stroke:none;fill-rule:nonzero;fill:rgb(0%,0%,0%);fill-opacity:1;" d="M 104.253906 20 L 104.253906 0 L 124.253906 0 L 124.253906 20 Z M 104.253906 20 "/>
<path style=" stroke:none;fill-rule:nonzero;fill:rgb(0%,0%,0%);fill-opacity:1;" d="M 140.253906 220 L 140.253906 200 L 160.253906 200 L 160.253906 220 Z M 140.253906 220 "/>
<path style=" stroke:none;fill-rule:nonzero;fill:rgb(0%,0%,0%);fill-opacity:1;" d="M 140.253906 180 L 140.253906 160 L 160.253906 160 L 160.253906 180 Z M 140.253906 180 "/>
<path style=" stroke:none;fill-rule:nonzero;fill:rgb(0%,0%,0%);fill-opacity:1;" d="M 140.253906 140 L 140.253906 120 L 160.253906 120 L 160.253906 140 Z M 140.253906 140 "/>
<path style=" stroke:none;fill-rule:nonzero;fill:rgb(0%,0%,0%);fill-opacity:1;" d="M 140.253906 100 L 140.253906 80 L 160.253906 80 L 160.253906 100 Z M 140.253906 100 "/>
<path style=" stroke:none;fill-rule:nonzero;fill:rgb(0%,0%,0%);fill-opacity:1;" d="M 140.253906 60 L 140.253906 40 L 160.253906 40 L 160.253906 60 Z M 140.253906 60 "/>
<path style=" stroke:none;fill-rule:nonzero;fill:rgb(0%,0%,0%);fill-opacity:1;" d="M 140.253906 20 L 140.253906 0 L 160.253906 0 L 160.253906 20 Z M 140.253906 20 "/>
<path style=" stroke:none;fill-rule:nonzero;fill:rgb(0%,0%,0%);fill-opacity:1;" d="M 176.253906 220 L 176.253906 200 L 196.253906 200 L 196.253906 220 Z M 176.253906 220 "/>
<path style=" stroke:none;fill-rule:nonzero;fill:rgb(0%,0%,0%);fill-opacity:1;" d="M 176.253906 180 L 176.253906 160 L 196.253906 160 L 196.253906 180 Z M 176.253906 180 "/>
<path style=" stroke:none;fill-rule:nonzero;fill:rgb(0%,0%,0%);fill-opacity:1;" d="M 176.253906 140 L 176.253906 120 L 196.253906 120 L 196.253906 140 Z M 176.253906 140 "/>
<path style=" stroke:none;fill-rule:nonzero;fill:rgb(0%,0%,0%);fill-opacity:1;" d="M 176.253906 100 L 176.253906 80 L 196.253906 80 L 196.253906 100 Z M 176.253906 100 "/>
<path style=" stroke:none;fill-rule:nonzero;fill:rgb(0%,0%,0%);fill-opacity:1;" d="M 176.253906 60 L 176.253906 40 L 196.253906 40 L 196.253906 60 Z M 176.253906 60 "/>
<path style=" stroke:none;fill-rule:nonzero;fill:rgb(0%,0%,0%);fill-opacity:1;" d="M 176.253906 20 L 176.253906 0 L 196.253906 0 L 196.253906 20 Z M 176.253906 20 "/>
<path style=" stroke:none;fill-rule:nonzero;fill:rgb(0%,0%,0%);fill-opacity:1;" d="M 212.253906 220 L 212.253906 200 L 232.253906 200 L 232.253906 220 Z M 212.253906 220 "/>
<path style=" stroke:none;fill-rule:nonzero;fill:rgb(0%,0%,0%);fill-opacity:1;" d="M 212.253906 180 L 212.253906 160 L 232.253906 160 L 232.253906 180 Z M 212.253906 180 "/>
<path style=" stroke:none;fill-rule:nonzero;fill:rgb(0%,0%,0%);fill-opacity:1;" d="M 212.253906 140 L 212.253906 120 L 232.253906 120 L 232.253906 140 Z M 212.253906 140 "/>
<path style=" stroke:none;fill-rule:nonzero;fill:rgb(0%,0%,0%);fill-opacity:1;" d="M 212.253906 100 L 212.253906 80 L 232.253906 80 L 232.253906 100 Z M 212.253906 100 "/>
<path style=" stroke:none;fill-rule:nonzero;fill:rgb(0%,0%,0%);fill-opacity:1;" d="M 212.253906 60 L 212.253906 40 L 232.253906 40 L 232.253906 60 Z M 212.253906 60 "/>
<path style=" stroke:none;fill-rule:nonzero;fill:rgb(0%,0%,0%);fill-opacity:1;" d="M 212.253906 20 L 212.253906 0 L 232.253906 0 L 232.253906 20 Z M 212.253906 20 "/>
<path style=" stroke:none;fill-rule:nonzero;fill:rgb(0%,0%,0%);fill-opacity:1;" d="M 248.253906 220 L 248.253906 200 L 268.253906 200 L 268.253906 220 Z M 248.253906 220 "/>
<path style=" stroke:none;fill-rule:nonzero;fill:rgb(0%,0%,0%);fill-opacity:1;" d="M 248.253906 180 L 248.253906 160 L 268.253906 160 L 268.253906 180 Z M 248.253906 180 "/>
<path style=" stroke:none;fill-rule:nonzero;fill:rgb(0%,0%,0%);fill-opacity:1;" d="M 248.253906 140 L 248.253906 120 L 268.253906 120 L 268.253906 140 Z M 248.253906 140 "/>
<path style=" stroke:none;fill-rule:nonzero;fill:rgb(0%,0%,0%);fill-opacity:1;" d="M 248.253906 100 L 248.253906 80 L 268.253906 80 L 268.253906 100 Z M 248.253906 100 "/>
<path style=" stroke:none;fill-rule:nonzero;fill:rgb(0%,0%,0%);fill-opacity:1;" d="M 248.253906 60 L 248.253906 40 L 268.253906 40 L 268.253906 60 Z M 248.253906 60 "/>
<path style=" stroke:none;fill-rule:nonzero;fill:rgb(0%,0%,0%);fill-opacity:1;" d="M 248.253906 20 L 248.253906 0 L 268.253906 0 L 268.253906 20 Z M 248.253906 20 "/>
<path style=" stroke:none;fill-rule:nonzero;fill:rgb(0%,0%,0%);fill-opacity:1;" d="M 284.253906 220 L 284.253906 200 L 304.253906 200 L 304.253906 220 Z M 284.253906 220 "/>
<path style=" stroke:none;fill-rule:nonzero;fill:rgb(0%,0%,0%);fill-opacity:1;" d="M 284.253906 180 L 284.253906 160 L 304.253906 160 L 304.253906 180 Z M 284.253906 180 "/>
<path style=" stroke:none;fill-rule:nonzero;fill:rgb(0%,0%,0%);fill-opacity:1;" d="M 284.253906 140 L 284.253906 120 L 304.253906 120 L 304.253906 140 Z M 284.253906 140 "/>
<path style=" stroke:none;fill-rule:nonzero;fill:rgb(0%,0%,0%);fill-opacity:1;" d="M 284.253906 100 L 284.253906 80 L 304.253906 80 L 304.253906 100 Z M 284.253906 100 "/>
<path style=" stroke:none;fill-rule:nonzero;fill:rgb(0%,0%,0%);fill-opacity:1;" d="M 284.253906 60 L 284.253906 40 L 304.253906 40 L 304.253906 60 Z M 284.253906 60 "/>
<path style=" stroke:none;fill-rule:nonzero;fill:rgb(0%,0%,0%);fill-opacity:1;" d="M 284.253906 20 L 284.253906 0 L 304.253906 0 L 304.253906 20 Z M 284.253906 20 "/>
<path style=" stroke:none;fill-rule:nonzero;fill:rgb(0%,0%,0%);fill-opacity:1;" d="M 320.253906 220 L 320.253906 200 L 340.253906 200 L 340.253906 220 Z M 320.253906 220 "/>
<path style=" stroke:none;fill-rule:nonzero;fill:rgb(0%,0%,0%);fill-opacity:1;" d="M 320.253906 180 L 320.253906 160 L 340.253906 160 L 340.253906 180 Z M 320.253906 180 "/>
<path style=" stroke:none;fill-rule:nonzero;fill:rgb(0%,0%,0%);fill-opacity:1;" d="M 320.253906 140 L 320.253906 120 L 340.253906 120 L 340.253906 140 Z M 320.253906 140 "/>
<path style=" stroke:none;fill-rule:nonzero;fill:rgb(0%,0%,0%);fill-opacity:1;" d="M 320.253906 100 L 320.253906 80 L 340.253906 80 L 340.253906 100 Z M 320.253906 100 "/>
<path style=" stroke:none;fill-rule:nonzero;fill:rgb(0%,0%,0%);fill-opacity:1;" d="M 320.253906 60 L 320.253906 40 L 340.253906 40 L 340.253906 60 Z M 320.253906 60 "/>
<path style=" stroke:none;fill-rule:nonzero;fill:rgb(0%,0%,0%);fill-opacity:1;" d="M 320.253906 20 L 320.253906 0 L 340.253906 0 L 340.253906 20 Z M 320.253906 20 "/>
<path style=" stroke:none;fill-rule:nonzero;fill:rgb(0%,0%,0%);fill-opacity:1;" d="M 356.253906 220 L 356.253906 200 L 376.253906 200 L 376.253906 220 Z M 356.253906 220 "/>
<path style=" stroke:none;fill-rule:nonzero;fill:rgb(0%,0%,0%);fill-opacity:1;" d="M 356.253906 180 L 356.253906 160 L 376.253906 160 L 376.253906 180 Z M 356.253906 180 "/>
<path style=" stroke:none;fill-rule:nonzero;fill:rgb(0%,0%,0%);fill-opacity:1;" d="M 356.253906 140 L 356.253906 120 L 376.253906 120 L 376.253906 140 Z M 356.253906 140 "/>
<path style=" stroke:none;fill-rule:nonzero;fill:rgb(0%,0%,0%);fill-opacity:1;" d="M 356.253906 100 L 356.253906 80 L 376.253906 80 L 376.253906 100 Z M 356.253906 100 "/>
<path style=" stroke:none;fill-rule:nonzero;fill:rgb(0%,0%,0%);fill-opacity:1;" d="M 356.253906 60 L 356.253906 40 L 376.253906 40 L 376.253906 60 Z M 356.253906 60 "/>
<path style=" stroke:none;fill-rule:nonzero;fill:rgb(0%,0%,0%);fill-opacity:1;" d="M 356.253906 20 L 356.253906 0 L 376.253906 0 L 376.253906 20 Z M 356.253906 20 "/>
<path style=" stroke:none;fill-rule:nonzero;fill:rgb(0%,0%,0%);fill-opacity:1;" d="M 392.253906 220 L 392.253906 200 L 412.253906 200 L 412.253906 220 Z M 392.253906 220 "/>
<path style=" stroke:none;fill-rule:nonzero;fill:rgb(0%,0%,0%);fill-opacity:1;" d="M 392.253906 180 L 392.253906 160 L 412.253906 160 L 412.253906 180 Z M 392.253906 180 "/>
<path style=" stroke:none;fill-rule:nonzero;fill:rgb(0%,0%,0%);fill-opacity:1;" d="M 392.253906 140 L 392.253906 120 L 412.253906 120 L 412.253906 140 Z M 392.253906 140 "/>
<path style=" stroke:none;fill-rule:nonzero;fill:rgb(0%,0%,0%);fill-opacity:1;" d="M 392.253906 100 L 392.253906 80 L 412.253906 80 L 412.253906 100 Z M 392.253906 100 "/>
<path style=" stroke:none;fill-rule:nonzero;fill:rgb(0%,0%,0%);fill-opacity:1;" d="M 392.253906 60 L 392.253906 40 L 412.253906 40 L 412.253906 60 Z M 392.253906 60 "/>
<path style=" stroke:none;fill-rule:nonzero;fill:rgb(0%,0%,0%);fill-opacity:1;" d="M 392.253906 20 L 392.253906 0 L 412.253906 0 L 412.253906 20 Z M 392.253906 20 "/>
<path style=" stroke:none;fill-rule:nonzero;fill:rgb(0%,0%,0%);fill-opacity:1;" d="M -3.644531 200 L -3.644531 180 L 16.355469 180 L 16.355469 200 Z M -3.644531 200 "/>
<path style=" stroke:none;fill-rule:nonzero;fill:rgb(0%,0%,0%);fill-opacity:1;" d="M -3.644531 160 L -3.644531 140 L 16.355469 140 L 16.355469 160 Z M -3.644531 160 "/>
<path style=" stroke:none;fill-rule:nonzero;fill:rgb(0%,0%,0%);fill-opacity:1;" d="M -3.644531 120 L -3.644531 100 L 16.355469 100 L 16.355469 120 Z M -3.644531 120 "/>
<path style=" stroke:none;fill-rule:nonzero;fill:rgb(0%,0%,0%);fill-opacity:1;" d="M -3.644531 80 L -3.644531 60 L 16.355469 60 L 16.355469 80 Z M -3.644531 80 "/>
<path style=" stroke:none;fill-rule:nonzero;fill:rgb(0%,0%,0%);fill-opacity:1;" d="M -3.644531 40 L -3.644531 20 L 16.355469 20 L 16.355469 40 Z M -3.644531 40 "/>
<path style=" stroke:none;fill-rule:nonzero;fill:rgb(0%,0%,0%);fill-opacity:1;" d="M 32.355469 200 L 32.355469 180 L 52.355469 180 L 52.355469 200 Z M 32.355469 200 "/>
<path style=" stroke:none;fill-rule:nonzero;fill:rgb(0%,0%,0%);fill-opacity:1;" d="M 32.355469 160 L 32.355469 140 L 52.355469 140 L 52.355469 160 Z M 32.355469 160 "/>
<path style=" stroke:none;fill-rule:nonzero;fill:rgb(0%,0%,0%);fill-opacity:1;" d="M 32.355469 120 L 32.355469 100 L 52.355469 100 L 52.355469 120 Z M 32.355469 120 "/>
<path style=" stroke:none;fill-rule:nonzero;fill:rgb(0%,0%,0%);fill-opacity:1;" d="M 32.355469 80 L 32.355469 60 L 52.355469 60 L 52.355469 80 Z M 32.355469 80 "/>
<path style=" stroke:none;fill-rule:nonzero;fill:rgb(0%,0%,0%);fill-opacity:1;" d="M 32.355469 40 L 32.355469 20 L 52.355469 20 L 52.355469 40 Z M 32.355469 40 "/>
<path style=" stroke:none;fill-rule:nonzero;fill:rgb(0%,0%,0%);fill-opacity:1;" d="M 68.355469 200 L 68.355469 180 L 88.355469 180 L 88.355469 200 Z M 68.355469 200 "/>
<path style=" stroke:none;fill-rule:nonzero;fill:rgb(0%,0%,0%);fill-opacity:1;" d="M 68.355469 160 L 68.355469 140 L 88.355469 140 L 88.355469 160 Z M 68.355469 160 "/>
<path style=" stroke:none;fill-rule:nonzero;fill:rgb(0%,0%,0%);fill-opacity:1;" d="M 68.355469 120 L 68.355469 100 L 88.355469 100 L 88.355469 120 Z M 68.355469 120 "/>
<path style=" stroke:none;fill-rule:nonzero;fill:rgb(0%,0%,0%);fill-opacity:1;" d="M 68.355469 80 L 68.355469 60 L 88.355469 60 L 88.355469 80 Z M 68.355469 80 "/>
<path style=" stroke:none;fill-rule:nonzero;fill:rgb(0%,0%,0%);fill-opacity:1;" d="M 68.355469 40 L 68.355469 20 L 88.355469 20 L 88.355469 40 Z M 68.355469 40 "/>
<path style=" stroke:none;fill-rule:nonzero;fill:rgb(0%,0%,0%);fill-opacity:1;" d="M 104.355469 200 L 104.355469 180 L 124.355469 180 L 124.355469 200 Z M 104.355469 200 "/>
<path style=" stroke:none;fill-rule:nonzero;fill:rgb(0%,0%,0%);fill-opacity:1;" d="M 104.355469 160 L 104.355469 140 L 124.355469 140 L 124.355469 160 Z M 104.355469 160 "/>
<path style=" stroke:none;fill-rule:nonzero;fill:rgb(0%,0%,0%);fill-opacity:1;" d="M 104.355469 120 L 104.355469 100 L 124.355469 100 L 124.355469 120 Z M 104.355469 120 "/>
<path style=" stroke:none;fill-rule:nonzero;fill:rgb(0%,0%,0%);fill-opacity:1;" d="M 104.355469 80 L 104.355469 60 L 124.355469 60 L 124.355469 80 Z M 104.355469 80 "/>
<path style=" stroke:none;fill-rule:nonzero;fill:rgb(0%,0%,0%);fill-opacity:1;" d="M 104.355469 40 L 104.355469 20 L 124.355469 20 L 124.355469 40 Z M 104.355469 40 "/>
<path style=" stroke:none;fill-rule:nonzero;fill:rgb(0%,0%,0%);fill-opacity:1;" d="M 140.355469 200 L 140.355469 180 L 160.355469 180 L 160.355469 200 Z M 140.355469 200 "/>
<path style=" stroke:none;fill-rule:nonzero;fill:rgb(0%,0%,0%);fill-opacity:1;" d="M 140.355469 160 L 140.355469 140 L 160.355469 140 L 160.355469 160 Z M 140.355469 160 "/>
<path style=" stroke:none;fill-rule:nonzero;fill:rgb(0%,0%,0%);fill-opacity:1;" d="M 140.355469 120 L 140.355469 100 L 160.355469 100 L 160.355469 120 Z M 140.355469 120 "/>
<path style=" stroke:none;fill-rule:nonzero;fill:rgb(0%,0%,0%);fill-opacity:1;" d="M 140.355469 80 L 140.355469 60 L 160.355469 60 L 160.355469 80 Z M 140.355469 80 "/>
<path style=" stroke:none;fill-rule:nonzero;fill:rgb(0%,0%,0%);fill-opacity:1;" d="M 140.355469 40 L 140.355469 20 L 160.355469 20 L 160.355469 40 Z M 140.355469 40 "/>
<path style=" stroke:none;fill-rule:nonzero;fill:rgb(0%,0%,0%);fill-opacity:1;" d="M 176.355469 200 L 176.355469 180 L 196.355469 180 L 196.355469 200 Z M 176.355469 200 "/>
<path style=" stroke:none;fill-rule:nonzero;fill:rgb(0%,0%,0%);fill-opacity:1;" d="M 176.355469 160 L 176.355469 140 L 196.355469 140 L 196.355469 160 Z M 176.355469 160 "/>
<path style=" stroke:none;fill-rule:nonzero;fill:rgb(0%,0%,0%);fill-opacity:1;" d="M 176.355469 120 L 176.355469 100 L 196.355469 100 L 196.355469 120 Z M 176.355469 120 "/>
<path style=" stroke:none;fill-rule:nonzero;fill:rgb(0%,0%,0%);fill-opacity:1;" d="M 176.355469 80 L 176.355469 60 L 196.355469 60 L 196.355469 80 Z M 176.355469 80 "/>
<path style=" stroke:none;fill-rule:nonzero;fill:rgb(0%,0%,0%);fill-opacity:1;" d="M 176.355469 40 L 176.355469 20 L 196.355469 20 L 196.355469 40 Z M 176.355469 40 "/>
<path style=" stroke:none;fill-rule:nonzero;fill:rgb(0%,0%,0%);fill-opacity:1;" d="M 212.355469 200 L 212.355469 180 L 232.355469 180 L 232.355469 200 Z M 212.355469 200 "/>
<path style=" stroke:none;fill-rule:nonzero;fill:rgb(0%,0%,0%);fill-opacity:1;" d="M 212.355469 160 L 212.355469 140 L 232.355469 140 L 232.355469 160 Z M 212.355469 160 "/>
<path style=" stroke:none;fill-rule:nonzero;fill:rgb(0%,0%,0%);fill-opacity:1;" d="M 212.355469 120 L 212.355469 100 L 232.355469 100 L 232.355469 120 Z M 212.355469 120 "/>
<path style=" stroke:none;fill-rule:nonzero;fill:rgb(0%,0%,0%);fill-opacity:1;" d="M 212.355469 80 L 212.355469 60 L 232.355469 60 L 232.355469 80 Z M 212.355469 80 "/>
<path style=" stroke:none;fill-rule:nonzero;fill:rgb(0%,0%,0%);fill-opacity:1;" d="M 212.355469 40 L 212.355469 20 L 232.355469 20 L 232.355469 40 Z M 212.355469 40 "/>
<path style=" stroke:none;fill-rule:nonzero;fill:rgb(0%,0%,0%);fill-opacity:1;" d="M 248.355469 200 L 248.355469 180 L 268.355469 180 L 268.355469 200 Z M 248.355469 200 "/>
<path style=" stroke:none;fill-rule:nonzero;fill:rgb(0%,0%,0%);fill-opacity:1;" d="M 248.355469 160 L 248.355469 140 L 268.355469 140 L 268.355469 160 Z M 248.355469 160 "/>
<path style=" stroke:none;fill-rule:nonzero;fill:rgb(0%,0%,0%);fill-opacity:1;" d="M 248.355469 120 L 248.355469 100 L 268.355469 100 L 268.355469 120 Z M 248.355469 120 "/>
<path style=" stroke:none;fill-rule:nonzero;fill:rgb(0%,0%,0%);fill-opacity:1;" d="M 248.355469 80 L 248.355469 60 L 268.355469 60 L 268.355469 80 Z M 248.355469 80 "/>
<path style=" stroke:none;fill-rule:nonzero;fill:rgb(0%,0%,0%);fill-opacity:1;" d="M 248.355469 40 L 248.355469 20 L 268.355469 20 L 268.355469 40 Z M 248.355469 40 "/>
<path style=" stroke:none;fill-rule:nonzero;fill:rgb(0%,0%,0%);fill-opacity:1;" d="M 284.355469 200 L 284.355469 180 L 304.355469 180 L 304.355469 200 Z M 284.355469 200 "/>
<path style=" stroke:none;fill-rule:nonzero;fill:rgb(0%,0%,0%);fill-opacity:1;" d="M 284.355469 160 L 284.355469 140 L 304.355469 140 L 304.355469 160 Z M 284.355469 160 "/>
<path style=" stroke:none;fill-rule:nonzero;fill:rgb(0%,0%,0%);fill-opacity:1;" d="M 284.355469 120 L 284.355469 100 L 304.355469 100 L 304.355469 120 Z M 284.355469 120 "/>
<path style=" stroke:none;fill-rule:nonzero;fill:rgb(0%,0%,0%);fill-opacity:1;" d="M 284.355469 80 L 284.355469 60 L 304.355469 60 L 304.355469 80 Z M 284.355469 80 "/>
<path style=" stroke:none;fill-rule:nonzero;fill:rgb(0%,0%,0%);fill-opacity:1;" d="M 284.355469 40 L 284.355469 20 L 304.355469 20 L 304.355469 40 Z M 284.355469 40 "/>
<path style=" stroke:none;fill-rule:nonzero;fill:rgb(0%,0%,0%);fill-opacity:1;" d="M 320.355469 200 L 320.355469 180 L 340.355469 180 L 340.355469 200 Z M 320.355469 200 "/>
<path style=" stroke:none;fill-rule:nonzero;fill:rgb(0%,0%,0%);fill-opacity:1;" d="M 320.355469 160 L 320.355469 140 L 340.355469 140 L 340.355469 160 Z M 320.355469 160 "/>
<path style=" stroke:none;fill-rule:nonzero;fill:rgb(0%,0%,0%);fill-opacity:1;" d="M 320.355469 120 L 320.355469 100 L 340.355469 100 L 340.355469 120 Z M 320.355469 120 "/>
<path style=" stroke:none;fill-rule:nonzero;fill:rgb(0%,0%,0%);fill-opacity:1;" d="M 320.355469 80 L 320.355469 60 L 340.355469 60 L 340.355469 80 Z M 320.355469 80 "/>
<path style=" stroke:none;fill-rule:nonzero;fill:rgb(0%,0%,0%);fill-opacity:1;" d="M 320.355469 40 L 320.355469 20 L 340.355469 20 L 340.355469 40 Z M 320.355469 40 "/>
<path style=" stroke:none;fill-rule:nonzero;fill:rgb(0%,0%,0%);fill-opacity:1;" d="M 356.355469 200 L 356.355469 180 L 376.355469 180 L 376.355469 200 Z M 356.355469 200 "/>
<path style=" stroke:none;fill-rule:nonzero;fill:rgb(0%,0%,0%);fill-opacity:1;" d="M 356.355469 160 L 356.355469 140 L 376.355469 140 L 376.355469 160 Z M 356.355469 160 "/>
<path style=" stroke:none;fill-rule:nonzero;fill:rgb(0%,0%,0%);fill-opacity:1;" d="M 356.355469 120 L 356.355469 100 L 376.355469 100 L 376.355469 120 Z M 356.355469 120 "/>
<path style=" stroke:none;fill-rule:nonzero;fill:rgb(0%,0%,0%);fill-opacity:1;" d="M 356.355469 80 L 356.355469 60 L 376.355469 60 L 376.355469 80 Z M 356.355469 80 "/>
<path style=" stroke:none;fill-rule:nonzero;fill:rgb(0%,0%,0%);fill-opacity:1;" d="M 356.355469 40 L 356.355469 20 L 376.355469 20 L 376.355469 40 Z M 356.355469 40 "/>
<path style="fill:none;stroke-width:1;stroke-linecap:square;stroke-linejoin:miter;stroke:rgb(100%,0%,0%);stroke-opacity:1;stroke-miterlimit:3.25;" d="M 0 220 L 400 220 "/>
<path style="fill:none;stroke-width:1;stroke-linecap:square;stroke-linejoin:miter;stroke:rgb(100%,0%,0%);stroke-opacity:1;stroke-miterlimit:3.25;" d="M 0 200 L 400 200 "/>
<path style="fill:none;stroke-width:1;stroke-linecap:square;stroke-linejoin:miter;stroke:rgb(100%,0%,0%);stroke-opacity:1;stroke-miterlimit:3.25;" d="M 0 180 L 400 180 "/>
<path style="fill:none;stroke-width:1;stroke-linecap:square;stroke-linejoin:miter;stroke:rgb(100%,0%,0%);stroke-opacity:1;stroke-miterlimit:3.25;" d="M 0 160 L 400 160 "/>
<path style="fill:none;stroke-width:1;stroke-linecap:square;stroke-linejoin:miter;stroke:rgb(100%,0%,0%);stroke-opacity:1;stroke-miterlimit:3.25;" d="M 0 140 L 400 140 "/>
<path style="fill:none;stroke-width:1;stroke-linecap:square;stroke-linejoin:miter;stroke:rgb(100%,0%,0%);stroke-opacity:1;stroke-miterlimit:3.25;" d="M 0 120 L 400 120 "/>
<path style="fill:none;stroke-width:1;stroke-linecap:square;stroke-linejoin:miter;stroke:rgb(100%,0%,0%);stroke-opacity:1;stroke-miterlimit:3.25;" d="M 0 100 L 400 100 "/>
<path style="fill:none;stroke-width:1;stroke-linecap:square;stroke-linejoin:miter;stroke:rgb(100%,0%,0%);stroke-opacity:1;stroke-miterlimit:3.25;" d="M 0 80 L 400 80 "/>
<path style="fill:none;stroke-width:1;stroke-linecap:square;stroke-linejoin:miter;stroke:rgb(100%,0%,0%);stroke-opacity:1;stroke-miterlimit:3.25;" d="M 0 60 L 400 60 "/>
<path style="fill:none;stroke-width:1;stroke-linecap:square;stroke-linejoin:miter;stroke:rgb(100%,0%,0%);stroke-opacity:1;stroke-miterlimit:3.25;" d="M 0 40 L 400 40 "/>
<path style="fill:none;stroke-width:1;stroke-linecap:square;stroke-linejoin:miter;stroke:rgb(100%,0%,0%);stroke-opacity:1;stroke-miterlimit:3.25;" d="M 0 20 L 400 20 "/>
</g>
</svg>
