<?xml version="1.0" encoding="UTF-8"?>
<svg xmlns="http://www.w3.org/2000/svg" xmlns:xlink="http://www.w3.org/1999/xlink" width="400pt" height="220pt" viewBox="0 0 400 220" version="1.1">
<g id="surface631">
<rect x="0" y="0" width="400" height="220" style="fill:rgb(0%,40%,100%);fill-opacity:0.2;stroke:none;"/>
<path style=" stroke:none;fill-rule:nonzero;fill:rgb(0%,0%,0%);fill-opacity:1;" d="M 19.84375 220 L 19.84375 200 L 39.84375 200 L 39.84375 220 Z M 19.84375 220 "/>
<path style=" stroke:none;fill-rule:nonzero;fill:rgb(0%,0%,0%);fill-opacity:1;" d="M 19.84375 180 L 19.84375 160 L 39.84375 160 L 39.84375 180 Z M 19.84375 180 "/>
<path style=" stroke:none;fill-rule:nonzero;fill:rgb(0%,0%,0%);fill-opacity:1;" d="M 19.84375 140 L 19.84375 120 L 39.84375 120 L 39.84375 140 Z M 19.84375 140 "/>
<path style=" stroke:none;fill-rule:nonzero;fill:rgb(0%,0%,0%);fill-opacity:1;" d="M 19.84375 100 L 19.84375 80 L 39.84375 80 L 39.84375 100 Z M 19.84375 100 "/>
<path style=" stroke:none;fill-rule:nonzero;fill:rgb(0%,0%,0%);fill-opacity:1;" d="M 19.84375 60 L 19.84375 40 L 39.84375 40 L 39.84375 60 Z M 19.84375 60 "/>
<path style=" stroke:none;fill-rule:nonzero;fill:rgb(0%,0%,0%);fill-opacity:1;" d="M 19.84375 20 L 19.84375 0 L 39.84375 0 L 39.84375 20 Z M 19.84375 20 "/>
<path style=" stroke:none;fill-rule:nonzero;fill:rgb(0%,0%,0%);fill-opacity:1;" d="M 55.84375 220 L 55.84375 200 L 75.84375 200 L 75.84375 220 Z M 55.84375 220 "/>
<path style=" stroke:none;fill-rule:nonzero;fill:rgb(0%,0%,0%);fill-opacity:1;" d="M 55.84375 180 L 55.84375 160 L 75.84375 160 L 75.84375 180 Z M 55.84375 180 "/>
<path style=" stroke:none;fill-rule:nonzero;fill:rgb(0%,0%,0%);fill-opacity:1;" d="M 55.84375 140 L 55.84375 120 L 75.84375 120 L 75.84375 140 Z M 55.84375 140 "/>
<path style=" stroke:none;fill-rule:nonzero;fill:rgb(0%,0%,0%);fill-opacity:1;" d="M 55.84375 100 L 55.84375 80 L 75.84375 80 L 75.84375 100 Z M 55.84375 100 "/>
<path style=" stroke:none;fill-rule:nonzero;fill:rgb(0%,0%,0%);fill-opacity:1;" d="M 55.84375 60 L 55.84375 40 L 75.84375 40 L 75.84375 60 Z M 55.84375 60 "/>
<path style=" stroke:none;fill-rule:nonzero;fill:rgb(0%,0%,0%);fill-opacity:1;" d="M 55.84375 20 L 55.84375 0 L 75.84375 0 L 75.84375 20 Z M 55.84375 20 "/>
<path style=" stroke:none;fill-rule:nonzero;fill:rgb(0%,0%,0%);fill-opacity:1;" d="M 91.84375 220 L 91.84375 200 L 111.84375 200 L 111.84375 220 Z M 91.84375 220 "/>
<path style=" stroke:none;fill-rule:nonzero;fill:rgb(0%,0%,0%);fill-opacity:1;" d="M 91.84375 180 L 91.84375 160 L 111.84375 160 L 111.84375 180 Z M 91.84375 180 "/>
<path style=" stroke:none;fill-rule:nonzero;fill:rgb(0%,0%,0%);fill-opacity:1;" d="M 91.84375 140 L 91.84375 120 L 111.84375 120 L 111.84375 140 Z M 91.84375 140 "/>
<path style=" stroke:none;fill-rule:nonzero;fill:rgb(0%,0%,0%);fill-opacity:1;" d="M 91.84375 100 L 91.84375 80 L 111.84375 80 L 111.84375 100 Z M 91.84375 100 "/>
<path style=" stroke:none;fill-rule:nonzero;fill:rgb(0%,0%,0%);fill-opacity:1;" d="M 91.84375 60 L 91.84375 40 L 111.84375 40 L 111.84375 60 Z M 91.84375 60 "/>
<path style=" stroke:none;fill-rule:nonzero;fill:rgb(0%,0%,0%);fill-opacity:1;" d="M 91.84375 20 L 91.84375 0 L 111.84375 0 L 111.84375 20 Z M 91.84375 20 "/>
<path style=" stroke:none;fill-rule:nonzero;fill:rgb(0%,0%,0%);fill-opacity:1;" d="M 127.84375 220 L 127.84375 200 L 147.84375 200 L 147.84375 220 Z M 127.84375 220 "/>
<path style=" stroke:none;fill-rule:nonzero;fill:rgb(0%,0%,0%);fill-opacity:1;" d="M 127.84375 180 L 127.84375 160 L 147.84375 160 L 147.84375 180 Z M 127.84375 180 "/>
<path style=" stroke:none;fill-rule:nonzero;fill:rgb(0%,0%,0%);fill-opacity:1;" d="M 127.84375 140 L 127.84375 120 L 147.84375 120 L 147.84375 140 Z M 127.84375 140 "/>
<path style=" stroke:none;fill-rule:nonzero;fill:rgb(0%,0%,0%);fill-opacity:1;" d="M 127.84375 100 L 127.84375 80 L 147.84375 80 L 147.84375 100 Z M 127.84375 100 "/>
<path style=" stroke:none;fill-rule:nonzero;fill:rgb(0%,0%,0%);fill-opacity:1;" d="M 127.84375 60 L 127.84375 40 L 147.84375 40 L 147.84375 60 Z M 127.84375 60 "/>
<path style=" stroke:none;fill-rule:nonzero;fill:rgb(0%,0%,0%);fill-opacity:1;" d="M 127.84375 20 L 127.84375 0 L 147.84375 0 L 147.84375 20 Z M 127.84375 20 "/>
<path style=" stroke:none;fill-rule:nonzero;fill:rgb(0%,0%,0%);fill-opacity:1;" d="M 163.84375 220 L 163.84375 200 L 183.84375 200 L 183.84375 220 Z M 163.84375 220 "/>
<path style=" stroke:none;fill-rule:nonzero;fill:rgb(0%,0%,0%);fill-opacity:1;" d="M 163.84375 180 L 163.84375 160 L 183.84375 160 L 183.84375 180 Z M 163.84375 180 "/>
<path style=" stroke:none;fill-rule:nonzero;fill:rgb(0%,0%,0%);fill-opacity:1;" d="M 163.84375 140 L 163.84375 120 L 183.84375 120 L 183.84375 140 Z M 163.84375 140 "/>
<path style=" stroke:none;fill-rule:nonzero;fill:rgb(0%,0%,0%);fill-opacity:1;" d="M 163.84375 100 L 163.84375 80 L 183.84375 80 L 183.84375 100 Z M 163.84375 100 "/>
<path style=" stroke:none;fill-rule:nonzero;fill:rgb(0%,0%,0%);fill-opacity:1;" d="M 163.84375 60 L 163.84375 40 L 183.84375 40 L 183.84375 60 Z M 163.84375 60 "/>
<path style=" stroke:none;fill-rule:nonzero;fill:rgb(0%,0%,0%);fill-opacity:1;" d="M 163.84375 20 L 163.84375 0 L 183.84375 0 L 183.84375 20 Z M 163.84375 20 "/>
<path style=" stroke:none;fill-rule:nonzero;fill:rgb(0%,0%,0%);fill-opacity:1;" d="M 199.84375 220 L 199.84375 200 L 219.84375 200 L 219.84375 220 Z M 199.84375 220 "/>
<path style=" stroke:none;fill-rule:nonzero;fill:rgb(0%,0%,0%);fill-opacity:1;" d="M 199.84375 180 L 199.84375 160 L 219.84375 160 L 219.84375 180 Z M 199.84375 180 "/>
<path style=" stroke:none;fill-rule:nonzero;fill:rgb(0%,0%,0%);fill-opacity:1;" d="M 199.84375 140 L 199.84375 120 L 219.84375 120 L 219.84375 140 Z M 199.84375 140 "/>
<path style=" stroke:none;fill-rule:nonzero;fill:rgb(0%,0%,0%);fill-opacity:1;" d="M 199.84375 100 L 199.84375 80 L 219.84375 80 L 219.84375 100 Z M 199.84375 100 "/>
<path style=" stroke:none;fill-rule:nonzero;fill:rgb(0%,0%,0%);fill-opacity:1;" d="M 199.84375 60 L 199.84375 40 L 219.84375 40 L 219.84375 60 Z M 199.84375 60 "/>
<path style=" stroke:none;fill-rule:nonzero;fill:rgb(0%,0%,0%);fill-opacity:1;" d="M 199.84375 20 L 199.84375 0 L 219.84375 0 L 219.84375 20 Z M 199.84375 20 "/>
<path style=" stroke:none;fill-rule:nonzero;fill:rgb(0%,0%,0%);fill-opacity:1;" d="M 235.84375 220 L 235.84375 200 L 255.84375 200 L 255.84375 220 Z M 235.84375 220 "/>
<path style=" stroke:none;fill-rule:nonzero;fill:rgb(0%,0%,0%);fill-opacity:1;" d="M 235.84375 180 L 235.84375 160 L 255.84375 160 L 255.84375 180 Z M 235.84375 180 "/>
<path style=" stroke:none;fill-rule:nonzero;fill:rgb(0%,0%,0%);fill-opacity:1;" d="M 235.84375 140 L 235.84375 120 L 255.84375 120 L 255.84375 140 Z M 235.84375 140 "/>
<path style=" stroke:none;fill-rule:nonzero;fill:rgb(0%,0%,0%);fill-opacity:1;" d="M 235.84375 100 L 235.84375 80 L 255.84375 80 L 255.84375 100 Z M 235.84375 100 "/>
<path style=" stroke:none;fill-rule:nonzero;fill:rgb(0%,0%,0%);fill-opacity:1;" d="M 235.84375 60 L 235.84375 40 L 255.84375 40 L 255.84375 60 Z M 235.84375 60 "/>
<path style=" stroke:none;fill-rule:nonzero;fill:rgb(0%,0%,0%);fill-opacity:1;" d="M 235.84375 20 L 235.84375 0 L 255.84375 0 L 255.84375 20 Z M 235.84375 20 "/>
<path style=" stroke:none;fill-rule:nonzero;fill:rgb(0%,0%,0%);fill-opacity:1;" d="M 271.84375 220 L 271.84375 200 L 291.84375 200 L 291.84375 220 Z M 271.84375 220 "/>
<path style=" stroke:none;fill-rule:nonzero;fill:rgb(0%,0%,0%);fill-opacity:1;" d="M 271.84375 180 L 271.84375 160 L 291.84375 160 L 291.84375 180 Z M 271.84375 180 "/>
<path style=" stroke:none;fill-rule:nonzero;fill:rgb(0%,0%,0%);fill-opacity:1;" d="M 271.84375 140 L 271.84375 120 L 291.84375 120 L 291.84375 140 Z M 271.84375 140 "/>
<path style=" stroke:none;fill-rule:nonzero;fill:rgb(0%,0%,0%);fill-opacity:1;" d="M 271.84375 100 L 271.84375 80 L 291.84375 80 L 291.84375 100 Z M 271.84375 100 "/>
<path style=" stroke:none;fill-rule:nonzero;fill:rgb(0%,0%,0%);fill-opacity:1;" d="M 271.84375 60 L 271.84375 40 L 291.84375 40 L 291.84375 60 Z M 271.84375 60 "/>
<path style=" stroke:none;fill-rule:nonzero;fill:rgb(0%,0%,0%);fill-opacity:1;" d="M 271.84375 20 L 271.84375 0 L 291.84375 0 L 291.84375 20 Z M 271.84375 20 "/>
<path style=" stroke:none;fill-rule:nonzero;fill:rgb(0%,0%,0%);fill-opacity:1;" d="M 307.84375 220 L 307.84375 200 L 327.84375 200 L 327.84375 220 Z M 307.84375 220 "/>
<path style=" stroke:none;fill-rule:nonzero;fill:rgb(0%,0%,0%);fill-opacity:1;" d="M 307.84375 180 L 307.84375 160 L 327.84375 160 L 327.84375 180 Z M 307.84375 180 "/>
<path style=" stroke:none;fill-rule:nonzero;fill:rgb(0%,0%,0%);fill-opacity:1;" d="M 307.84375 140 L 307.84375 120 L 327.84375 120 L 327.84375 140 Z M 307.84375 140 "/>
<path style=" stroke:none;fill-rule:nonzero;fill:rgb(0%,0%,0%);fill-opacity:1;" d="M 307.84375 100 L 307.84375 80 L 327.84375 80 L 327.84375 100 Z M 307.84375 100 "/>
<path style=" stroke:none;fill-rule:nonzero;fill:rgb(0%,0%,0%);fill-opacity:1;" d="M 307.84375 60 L 307.84375 40 L 327.84375 40 L 327.84375 60 Z M 307.84375 60 "/>
<path style=" stroke:none;fill-rule:nonzero;fill:rgb(0%,0%,0%);fill-opacity:1;" d="M 307.84375 20 L 307.84375 0 L 327.84375 0 L 327.84375 20 Z M 307.84375 20 "/>
<path style=" stroke:none;fill-rule:nonzero;fill:rgb(0%,0%,0%);fill-opacity:1;" d="M 343.84375 220 L 343.84375 200 L 363.84375 200 L 363.84375 220 Z M 343.84375 220 "/>
<path style=" stroke:none;fill-rule:nonzero;fill:rgb(0%,0%,0%);fill-opacity:1;" d="M 343.84375 180 L 343.84375 160 L 363.84375 160 L 363.84375 180 Z M 343.84375 180 "/>
<path style=" stroke:none;fill-rule:nonzero;fill:rgb(0%,0%,0%);fill-opacity:1;" d="M 343.84375 140 L 343.84375 120 L 363.84375 120 L 363.84375 140 Z M 343.84375 140 "/>
<path style=" stroke:none;fill-rule:nonzero;fill:rgb(0%,0%,0%);fill-opacity:1;" d="M 343.84375 100 L 343.84375 80 L 363.84375 80 L 363.84375 100 Z M 343.84375 100 "/>
<path style=" stroke:none;fill-rule:nonzero;fill:rgb(0%,0%,0%);fill-opacity:1;" d="M 343.84375 60 L 343.84375 40 L 363.84375 40 L 363.84375 60 Z M 343.84375 60 "/>
<path style=" stroke:none;fill-rule:nonzero;fill:rgb(0%,0%,0%);fill-opacity:1;" d="M 343.84375 20 L 343.84375 0 L 363.84375 0 L 363.84375 20 Z M 343.84375 20 "/>
<path style=" stroke:none;fill-rule:nonzero;fill:rgb(0%,0%,0%);fill-opacity:1;" d="M 379.84375 220 L 379.84375 200 L 399.84375 200 L 399.84375 220 Z M 379.84375 220 "/>
<path style=" stroke:none;fill-rule:nonzero;fill:rgb(0%,0%,0%);fill-opacity:1;" d="M 379.84375 180 L 379.84375 160 L 399.84375 160 L 399.84375 180 Z M 379.84375 180 "/>
<path style=" stroke:none;fill-rule:nonzero;fill:rgb(0%,0%,0%);fill-opacity:1;" d="M 379.84375 140 L 379.84375 120 L 399.84375 120 L 399.84375 140 Z M 379.84375 140 "/>
<path style=" stroke:none;fill-rule:nonzero;fill:rgb(0%,0%,0%);fill-opacity:1;" d="M 379.84375 100 L 379.84375 80 L 399.84375 80 L 399.84375 100 Z M 379.84375 100 "/>
<path style=" stroke:none;fill-rule:nonzero;fill:rgb(0%,0%,0%);fill-opacity:1;" d="M 379.84375 60 L 379.84375 40 L 399.84375 40 L 399.84375 60 Z M 379.84375 60 "/>
<path style=" stroke:none;fill-rule:nonzero;fill:rgb(0%,0%,0%);fill-opacity:1;" d="M 379.84375 20 L 379.84375 0 L 399.84375 0 L 399.84375 20 Z M 379.84375 20 "/>
<path style=" stroke:none;fill-rule:nonzero;fill:rgb(0%,0%,0%);fill-opacity:1;" d="M -17.492188 200 L -17.492188 180 L 2.507812 180 L 2.507812 200 Z M -17.492188 200 "/>
<path style=" stroke:none;fill-rule:nonzero;fill:rgb(0%,0%,0%);fill-opacity:1;" d="M -17.492188 160 L -17.492188 140 L 2.507812 140 L 2.507812 160 Z M -17.492188 160 "/>
<path style=" stroke:none;fill-rule:nonzero;fill:rgb(0%,0%,0%);fill-opacity:1;" d="M -17.492188 120 L -17.492188 100 L 2.507812 100 L 2.507812 120 Z M -17.492188 120 "/>
<path style=" stroke:none;fill-rule:nonzero;fill:rgb(0%,0%,0%);fill-opacity:1;" d="M -17.492188 80 L -17.492188 60 L 2.507812 60 L 2.507812 80 Z M -17.492188 80 "/>
<path style=" stroke:none;fill-rule:nonzero;fill:rgb(0%,0%,0%);fill-opacity:1;" d="M -17.492188 40 L -17.492188 20 L 2.507812 20 L 2.507812 40 Z M -17.492188 40 "/>
<path style=" stroke:none;fill-rule:nonzero;fill:rgb(0%,0%,0%);fill-opacity:1;" d="M 18.507812 200 L 18.507812 180 L 38.507812 180 L 38.507812 200 Z M 18.507812 200 "/>
<path style=" stroke:none;fill-rule:nonzero;fill:rgb(0%,0%,0%);fill-opacity:1;" d="M 18.507812 160 L 18.507812 140 L 38.507812 140 L 38.507812 160 Z M 18.507812 160 "/>
<path style=" stroke:none;fill-rule:nonzero;fill:rgb(0%,0%,0%);fill-opacity:1;" d="M 18.507812 120 L 18.507812 100 L 38.507812 100 L 38.507812 120 Z M 18.507812 120 "/>
<path style=" stroke:none;fill-rule:nonzero;fill:rgb(0%,0%,0%);fill-opacity:1;" d="M 18.507812 80 L 18.507812 60 L 38.507812 60 L 38.507812 80 Z M 18.507812 80 "/>
<path style=" stroke:none;fill-rule:nonzero;fill:rgb(0%,0%,0%);fill-opacity:1;" d="M 18.507812 40 L 18.507812 20 L 38.507812 20 L 38.507812 40 Z M 18.507812 40 "/>
<path style=" stroke:none;fill-rule:nonzero;fill:rgb(0%,0%,0%);fill-opacity:1;" d="M 54.507812 200 L 54.507812 180 L 74.507812 180 L 74.507812 200 Z M 54.507812 200 "/>
<path style=" stroke:none;fill-rule:nonzero;fill:rgb(0%,0%,0%);fill-opacity:1;" d="M 54.507812 160 L 54.507812 140 L 74.507812 140 L 74.507812 160 Z M 54.507812 160 "/>
<path style=" stroke:none;fill-rule:nonzero;fill:rgb(0%,0%,0%);fill-opacity:1;" d="M 54.507812 120 L 54.507812 100 L 74.507812 100 L 74.507812 120 Z M 54.507812 120 "/>
<path style=" stroke:none;fill-rule:nonzero;fill:rgb(0%,0%,0%);fill-opacity:1;" d="M 54.507812 80 L 54.507812 60 L 74.507812 60 L 74.507812 80 Z M 54.507812 80 "/>
<path style=" stroke:none;fill-rule:nonzero;fill:rgb(0%,0%,0%);fill-opacity:1;" d="M 54.507812 40 L 54.507812 20 L 74.507812 20 L 74.507812 40 Z M 54.507812 40 "/>
<path style=" stroke:none;fill-rule:nonzero;fill:rgb(0%,0%,0%);fill-opacity:1;" d="M 90.507812 200 L 90.507812 180 L 110.507812 180 L 110.507812 200 Z M 90.507812 200 "/>
<path style=" stroke:none;fill-rule:nonzero;fill:rgb(0%,0%,0%);fill-opacity:1;" d="M 90.507812 160 L 90.507812 140 L 110.507812 140 L 110.507812 160 Z M 90.507812 160 "/>
<path style=" stroke:none;fill-rule:nonzero;fill:rgb(0%,0%,0%);fill-opacity:1;" d="M 90.507812 120 L 90.507812 100 L 110.507812 100 L 110.507812 120 Z M 90.507812 120 "/>
<path style=" stroke:none;fill-rule:nonzero;fill:rgb(0%,0%,0%);fill-opacity:1;" d="M 90.507812 80 L 90.507812 60 L 110.507812 60 L 110.507812 80 Z M 90.507812 80 "/>
<path style=" stroke:none;fill-rule:nonzero;fill:rgb(0%,0%,0%);fill-opacity:1;" d="M 90.507812 40 L 90.507812 20 L 110.507812 20 L 110.507812 40 Z M 90.507812 40 "/>
<path style=" stroke:none;fill-rule:nonzero;fill:rgb(0%,0%,0%);fill-opacity:1;" d="M 126.507812 200 L 126.507812 180 L 146.507812 180 L 146.507812 200 Z M 126.507812 200 "/>
<path style=" stroke:none;fill-rule:nonzero;fill:rgb(0%,0%,0%);fill-opacity:1;" d="M 126.507812 160 L 126.507812 140 L 146.507812 140 L 146.507812 160 Z M 126.507812 160 "/>
<path style=" stroke:none;fill-rule:nonzero;fill:rgb(0%,0%,0%);fill-opacity:1;" d="M 126.507812 120 L 126.507812 100 L 146.507812 100 L 146.507812 120 Z M 126.507812 120 "/>
<path style=" stroke:none;fill-rule:nonzero;fill:rgb(0%,0%,0%);fill-opacity:1;" d="M 126.507812 80 L 126.507812 60 L 146.507812 60 L 146.507812 80 Z M 126.507812 80 "/>
<path style=" stroke:none;fill-rule:nonzero;fill:rgb(0%,0%,0%);fill-opacity:1;" d="M 126.507812 40 L 126.507812 20 L 146.507812 20 L 146.507812 40 Z M 126.507812 40 "/>
<path style=" stroke:none;fill-rule:nonzero;fill:rgb(0%,0%,0%);fill-opacity:1;" d="M 162.507812 200 L 162.507812 180 L 182.507812 180 L 182.507812 200 Z M 162.507812 200 "/>
<path style=" stroke:none;fill-rule:nonzero;fill:rgb(0%,0%,0%);fill-opacity:1;" d="M 162.507812 160 L 162.507812 140 L 182.507812 140 L 182.507812 160 Z M 162.507812 160 "/>
<path style=" stroke:none;fill-rule:nonzero;fill:rgb(0%,0%,0%);fill-opacity:1;" d="M 162.507812 120 L 162.507812 100 L 182.507812 100 L 182.507812 120 Z M 162.507812 120 "/>
<path style=" stroke:none;fill-rule:nonzero;fill:rgb(0%,0%,0%);fill-opacity:1;" d="M 162.507812 80 L 162.507812 60 L 182.507812 60 L 182.507812 80 Z M 162.507812 80 "/>
<path style=" stroke:none;fill-rule:nonzero;fill:rgb(0%,0%,0%);fill-opacity:1;" d="M 162.507812 40 L 162.507812 20 L 182.507812 20 L 182.507812 40 Z M 162.507812 40 "/>
<path style=" stroke:none;fill-rule:nonzero;fill:rgb(0%,0%,0%);fill-opacity:1;" d="M 198.507812 200 L 198.507812 180 L 218.507812 180 L 218.507812 200 Z M 198.507812 200 "/>
<path style=" stroke:none;fill-rule:nonzero;fill:rgb(0%,0%,0%);fill-opacity:1;" d="M 198.507812 160 L 198.507812 140 L 218.507812 140 L 218.507812 160 Z M 198.507812 160 "/>
<path style=" stroke:none;fill-rule:nonzero;fill:rgb(0%,0%,0%);fill-opacity:1;" d="M 198.507812 120 L 198.507812 100 L 218.507812 100 L 218.507812 120 Z M 198.507812 120 "/>
<path style=" stroke:none;fill-rule:nonzero;fill:rgb(0%,0%,0%);fill-opacity:1;" d="M 198.507812 80 L 198.507812 60 L 218.507812 60 L 218.507812 80 Z M 198.507812 80 "/>
<path style=" stroke:none;fill-rule:nonzero;fill:rgb(0%,0%,0%);fill-opacity:1;" d="M 198.507812 40 L 198.507812 20 L 218.507812 20 L 218.507812 40 Z M 198.507812 40 "/>
<path style=" stroke:none;fill-rule:nonzero;fill:rgb(0%,0%,0%);fill-opacity:1;" d="M 234.507812 200 L 234.507812 180 L 254.507812 180 L 254.507812 200 Z M 234.507812 200 "/>
<path style=" stroke:none;fill-rule:nonzero;fill:rgb(0%,0%,0%);fill-opacity:1;" d="M 234.507812 160 L 234.507812 140 L 254.507812 140 L 254.507812 160 Z M 234.507812 160 "/>
<path style=" stroke:none;fill-rule:nonzero;fill:rgb(0%,0%,0%);fill-opacity:1;" d="M 234.507812 120 L 234.507812 100 L 254.507812 100 L 254.507812 120 Z M 234.507812 120 "/>
<path style=" stroke:none;fill-rule:nonzero;fill:rgb(0%,0%,0%);fill-opacity:1;" d="M 234.507812 80 L 234.507812 60 L 254.507812 60 L 254.507812 80 Z M 234.507812 80 "/>
<path style=" stroke:none;fill-rule:nonzero;fill:rgb(0%,0%,0%);fill-opacity:1;" d="M 234.507812 40 L 234.507812 20 L 254.507812 20 L 254.507812 40 Z M 234.507812 40 "/>
<path style=" stroke:none;fill-rule:nonzero;fill:rgb(0%,0%,0%);fill-opacity:1;" d="M 270.507812 200 L 270.507812 180 L 290.507812 180 L 290.507812 200 Z M 270.507812 200 "/>
<path style=" stroke:none;fill-rule:nonzero;fill:rgb(0%,0%,0%);fill-opacity:1;" d="M 270.507812 160 L 270.507812 140 L 290.507812 140 L 290.507812 160 Z M 270.507812 160 "/>
<path style=" stroke:none;fill-rule:nonzero;fill:rgb(0%,0%,0%);fill-opacity:1;" d="M 270.507812 120 L 270.507812 100 L 290.507812 100 L 290.507812 120 Z M 270.507812 120 "/>
<path style=" stroke:none;fill-rule:nonzero;fill:rgb(0%,0%,0%);fill-opacity:1;" d="M 270.507812 80 L 270.507812 60 L 290.507812 60 L 290.507812 80 Z M 270.507812 80 "/>
<path style=" stroke:none;fill-rule:nonzero;fill:rgb(0%,0%,0%);fill-opacity:1;" d="M 270.507812 40 L 270.507812 20 L 290.507812 20 L 290.507812 40 Z M 270.507812 40 "/>
<path style=" stroke:none;fill-rule:nonzero;fill:rgb(0%,0%,0%);fill-opacity:1;" d="M 306.507812 200 L 306.507812 180 L 326.507812 180 L 326.507812 200 Z M 306.507812 200 "/>
<path style=" stroke:none;fill-rule:nonzero;fill:rgb(0%,0%,0%);fill-opacity:1;" d="M 306.507812 160 L 306.507812 140 L 326.507812 140 L 326.507812 160 Z M 306.507812 160 "/>
<path style=" stroke:none;fill-rule:nonzero;fill:rgb(0%,0%,0%);fill-opacity:1;" d="M 306.507812 120 L 306.507812 100 L 326.507812 100 L 326.507812 120 Z M 306.507812 120 "/>
<path style=" stroke:none;fill-rule:nonzero;fill:rgb(0%,0%,0%);fill-opacity:1;" d="M 306.507812 80 L 306.507812 60 L 326.507812 60 L 326.507812 80 Z M 306.507812 80 "/>
<path style=" stroke:none;fill-rule:nonzero;fill:rgb(0%,0%,0%);fill-opacity:1;" d="M 306.507812 40 L 306.507812 20 L 326.507812 20 L 326.507812 40 Z M 306.507812 40 "/>
<path style=" stroke:none;fill-rule:nonzero;fill:rgb(0%,0%,0%);fill-opacity:1;" d="M 342.507812 200 L 342.507812 180 L 362.507812 180 L 362.507812 200 Z M 342.507812 200 "/>
<path style=" stroke:none;fill-rule:nonzero;fill:rgb(0%,0%,0%);fill-opacity:1;" d="M 342.507812 160 L 342.507812 140 L 362.507812 140 L 362.507812 160 Z M 342.507812 160 "/>
<path style=" stroke:none;fill-rule:nonzero;fill:rgb(0%,0%,0%);fill-opacity:1;" d="M 342.507812 120 L 342.507812 100 L 362.507812 100 L 362.507812 120 Z M 342.507812 120 "/>
<path style=" stroke:none;fill-rule:nonzero;fill:rgb(0%,0%,0%);fill-opacity:1;" d="M 342.507812 80 L 342.507812 60 L 362.507812 60 L 362.507812 80 Z M 342.507812 80 "/>
<path style=" stroke:none;fill-rule:nonzero;fill:rgb(0%,0%,0%);fill-opacity:1;" d="M 342.507812 40 L 342.507812 20 L 362.507812 20 L 362.507812 40 Z M 342.507812 40 "/>
<path style=" stroke:none;fill-rule:nonzero;fill:rgb(0%,0%,0%);fill-opacity:1;" d="M 378.507812 200 L 378.507812 180 L 398.507812 180 L 398.507812 200 Z M 378.507812 200 "/>
<path style=" stroke:none;fill-rule:nonzero;fill:rgb(0%,0%,0%);fill-opacity:1;" d="M 378.507812 160 L 378.507812 140 L 398.507812 140 L 398.507812 160 Z M 378.507812 160 "/>
<path style=" stroke:none;fill-rule:nonzero;fill:rgb(0%,0%,0%);fill-opacity:1;" d="M 378.507812 120 L 378.507812 100 L 398.507812 100 L 398.507812 120 Z M 378.507812 120 "/>
<path style=" stroke:none;fill-rule:nonzero;fill:rgb(0%,0%,0%);fill-opacity:1;" d="M 378.507812 80 L 378.507812 60 L 398.507812 60 L 398.507812 80 Z M 378.507812 80 "/>
<path style=" stroke:none;fill-rule:nonzero;fill:rgb(0%,0%,0%);fill-opacity:1;" d="M 378.507812 40 L 378.507812 20 L 398.507812 20 L 398.507812 40 Z M 378.507812 40 "/>
<path style="fill:none;stroke-width:1;stroke-linecap:square;stroke-linejoin:miter;stroke:rgb(100%,0%,0%);stroke-opacity:1;stroke-miterlimit:3.25;" d="M 0 220 L 400 220 "/>
<path style="fill:none;stroke-width:1;stroke-linecap:square;stroke-linejoin:miter;stroke:rgb(100%,0%,0%);stroke-opacity:1;stroke-miterlimit:3.25;" d="M 0 200 L 400 200 "/>
<path style="fill:none;stroke-width:1;stroke-linecap:square;stroke-linejoin:miter;stroke:rgb(100%,0%,0%);stroke-opacity:1;stroke-miterlimit:3.25;" d="M 0 180 L 400 180 "/>
<path style="fill:none;stroke-width:1;stroke-linecap:square;stroke-linejoin:miter;stroke:rgb(100%,0%,0%);stroke-opacity:1;stroke-miterlimit:3.25;" d="M 0 160 L 400 160 "/>
<path style="fill:none;stroke-width:1;stroke-linecap:square;stroke-linejoin:miter;stroke:rgb(100%,0%,0%);stroke-opacity:1;stroke-miterlimit:3.25;" d="M 0 140 L 400 140 "/>
<path style="fill:none;stroke-width:1;stroke-linecap:square;stroke-linejoin:miter;stroke:rgb(100%,0%,0%);stroke-opacity:1;stroke-miterlimit:3.25;" d="M 0 120 L 400 120 "/>
<path style="fill:none;stroke-width:1;stroke-linecap:square;stroke-linejoin:miter;stroke:rgb(100%,0%,0%);stroke-opacity:1;stroke-miterlimit:3.25;" d="M 0 100 L 400 100 "/>
<path style="fill:none;stroke-width:1;stroke-linecap:square;stroke-linejoin:miter;stroke:rgb(100%,0%,0%);stroke-opacity:1;stroke-miterlimit:3.25;" d="M 0 80 L 400 80 "/>
<path style="fill:none;stroke-width:1;stroke-linecap:square;stroke-linejoin:miter;stroke:rgb(100%,0%,0%);stroke-opacity:1;stroke-miterlimit:3.25;" d="M 0 60 L 400 60 "/>
<path style="fill:none;stroke-width:1;stroke-linecap:square;stroke-linejoin:miter;stroke:rgb(100%,0%,0%);stroke-opacity:1;stroke-miterlimit:3.25;" d="M 0 40 L 400 40 "/>
<path style="fill:none;stroke-width:1;stroke-linecap:square;stroke-linejoin:miter;stroke:rgb(100%,0%,0%);stroke-opacity:1;stroke-miterlimit:3.25;" d="M 0 20 L 400 20 "/>
</g>
</svg>
