<?xml version="1.0" encoding="UTF-8"?>
<svg xmlns="http://www.w3.org/2000/svg" xmlns:xlink="http://www.w3.org/1999/xlink" width="400pt" height="220pt" viewBox="0 0 400 220" version="1.1">
<g id="surface616">
<rect x="0" y="0" width="400" height="220" style="fill:rgb(0%,40%,100%);fill-opacity:0.2;stroke:none;"/>
<path style=" stroke:none;fill-rule:nonzero;fill:rgb(0%,0%,0%);fill-opacity:1;" d="M 19.960938 220 L 19.960938 200 L 39.960938 200 L 39.960938 220 Z M 19.960938 220 "/>
<path style=" stroke:none;fill-rule:nonzero;fill:rgb(0%,0%,0%);fill-opacity:1;" d="M 19.960938 180 L 19.960938 160 L 39.960938 160 L 39.960938 180 Z M 19.960938 180 "/>
<path style=" stroke:none;fill-rule:nonzero;fill:rgb(0%,0%,0%);fill-opacity:1;" d="M 19.960938 140 L 19.960938 120 L 39.960938 120 L 39.960938 140 Z M 19.960938 140 "/>
<path style=" stroke:none;fill-rule:nonzero;fill:rgb(0%,0%,0%);fill-opacity:1;" d="M 19.960938 100 L 19.960938 80 L 39.960938 80 L 39.960938 100 Z M 19.960938 100 "/>
<path style=" stroke:none;fill-rule:nonzero;fill:rgb(0%,0%,0%);fill-opacity:1;" d="M 19.960938 60 L 19.960938 40 L 39.960938 40 L 39.960938 60 Z M 19.960938 60 "/>
<path style=" stroke:none;fill-rule:nonzero;fill:rgb(0%,0%,0%);fill-opacity:1;" d="M 19.960938 20 L 19.960938 0 L 39.960938 0 L 39.960938 20 Z M 19.960938 20 "/>
<path style=" stroke:none;fill-rule:nonzero;fill:rgb(0%,0%,0%);fill-opacity:1;" d="M 55.960938 220 L 55.960938 200 L 75.960938 200 L 75.960938 220 Z M 55.960938 220 "/>
<path style=" stroke:none;fill-rule:nonzero;fill:rgb(0%,0%,0%);fill-opacity:1;" d="M 55.960938 180 L 55.960938 160 L 75.960938 160 L 75.960938 180 Z M 55.960938 180 "/>
<path style=" stroke:none;fill-rule:nonzero;fill:rgb(0%,0%,0%);fill-opacity:1;" d="M 55.960938 140 L 55.960938 120 L 75.960938 120 L 75.960938 140 Z M 55.960938 140 "/>
<path style=" stroke:none;fill-rule:nonzero;fill:rgb(0%,0%,0%);fill-opacity:1;" d="M 55.960938 100 L 55.960938 80 L 75.960938 80 L 75.960938 100 Z M 55.960938 100 "/>
<path style=" stroke:none;fill-rule:nonzero;fill:rgb(0%,0%,0%);fill-opacity:1;" d="M 55.960938 60 L 55.960938 40 L 75.960938 40 L 75.960938 60 Z M 55.960938 60 "/>
<path style=" stroke:none;fill-rule:nonzero;fill:rgb(0%,0%,0%);fill-opacity:1;" d="M 55.960938 20 L 55.960938 0 L 75.960938 0 L 75.960938 20 Z M 55.960938 20 "/>
<path style=" stroke:none;fill-rule:nonzero;fill:rgb(0%,0%,0%);fill-opacity:1;" d="M 91.960938 220 L 91.960938 200 L 111.960938 200 L 111.960938 220 Z M 91.960938 220 "/>
<path style=" stroke:none;fill-rule:nonzero;fill:rgb(0%,0%,0%);fill-opacity:1;" d="M 91.960938 180 L 91.960938 160 L 111.960938 160 L 111.960938 180 Z M 91.960938 180 "/>
<path style=" stroke:none;fill-rule:nonzero;fill:rgb(0%,0%,0%);fill-opacity:1;" d="M 91.960938 140 L 91.960938 120 L 111.960938 120 L 111.960938 140 Z M 91.960938 140 "/>
<path style=" stroke:none;fill-rule:nonzero;fill:rgb(0%,0%,0%);fill-opacity:1;" d="M 91.960938 100 L 91.960938 80 L 111.960938 80 L 111.960938 100 Z M 91.960938 100 "/>
<path style=" stroke:none;fill-rule:nonzero;fill:rgb(0%,0%,0%);fill-opacity:1;" d="M 91.960938 60 L 91.960938 40 L 111.960938 40 L 111.960938 60 Z M 91.960938 60 "/>
<path style=" stroke:none;fill-rule:nonzero;fill:rgb(0%,0%,0%);fill-opacity:1;" d="M 91.960938 20 L 91.960938 0 L 111.960938 0 L 111.960938 20 Z M 91.960938 20 "/>
<path style=" stroke:none;fill-rule:nonzero;fill:rgb(0%,0%,0%);fill-opacity:1;" d="M 127.960938 220 L 127.960938 200 L 147.960938 200 L 147.960938 220 Z M 127.960938 220 "/>
<path style=" stroke:none;fill-rule:nonzero;fill:rgb(0%,0%,0%);fill-opacity:1;" d="M 127.960938 180 L 127.960938 160 L 147.960938 160 L 147.960938 180 Z M 127.960938 180 "/>
<path style=" stroke:none;fill-rule:nonzero;fill:rgb(0%,0%,0%);fill-opacity:1;" d="M 127.960938 140 L 127.960938 120 L 147.960938 120 L 147.960938 140 Z M 127.960938 140 "/>
<path style=" stroke:none;fill-rule:nonzero;fill:rgb(0%,0%,0%);fill-opacity:1;" d="M 127.960938 100 L 127.960938 80 L 147.960938 80 L 147.960938 100 Z M 127.960938 100 "/>
<path style=" stroke:none;fill-rule:nonzero;fill:rgb(0%,0%,0%);fill-opacity:1;" d="M 127.960938 60 L 127.960938 40 L 147.960938 40 L 147.960938 60 Z M 127.960938 60 "/>
<path style=" stroke:none;fill-rule:nonzero;fill:rgb(0%,0%,0%);fill-opacity:1;" d="M 127.960938 20 L 127.960938 0 L 147.960938 0 L 147.960938 20 Z M 127.960938 20 "/>
<path style=" stroke:none;fill-rule:nonzero;fill:rgb(0%,0%,0%);fill-opacity:1;" d="M 163.960938 220 L 163.960938 200 L 183.960938 200 L 183.960938 220 Z M 163.960938 220 "/>
<path style=" stroke:none;fill-rule:nonzero;fill:rgb(0%,0%,0%);fill-opacity:1;" d="M 163.960938 180 L 163.960938 160 L 183.960938 160 L 183.960938 180 Z M 163.960938 180 "/>
<path style=" stroke:none;fill-rule:nonzero;fill:rgb(0%,0%,0%);fill-opacity:1;" d="M 163.960938 140 L 163.960938 120 L 183.960938 120 L 183.960938 140 Z M 163.960938 140 "/>
<path style=" stroke:none;fill-rule:nonzero;fill:rgb(0%,0%,0%);fill-opacity:1;" d="M 163.960938 100 L 163.960938 80 L 183.960938 80 L 183.960938 100 Z M 163.960938 100 "/>
<path style=" stroke:none;fill-rule:nonzero;fill:rgb(0%,0%,0%);fill-opacity:1;" d="M 163.960938 60 L 163.960938 40 L 183.960938 40 L 183.960938 60 Z M 163.960938 60 "/>
<path style=" stroke:none;fill-rule:nonzero;fill:rgb(0%,0%,0%);fill-opacity:1;" d="M 163.960938 20 L 163.960938 0 L 183.960938 0 L 183.960938 20 Z M 163.960938 20 "/>
<path style=" stroke:none;fill-rule:nonzero;fill:rgb(0%,0%,0%);fill-opacity:1;" d="M 199.960938 220 L 199.960938 200 L 219.960938 200 L 219.960938 220 Z M 199.960938 220 "/>
<path style=" stroke:none;fill-rule:nonzero;fill:rgb(0%,0%,0%);fill-opacity:1;" d="M 199.960938 180 L 199.960938 160 L 219.960938 160 L 219.960938 180 Z M 199.960938 180 "/>
<path style=" stroke:none;fill-rule:nonzero;fill:rgb(0%,0%,0%);fill-opacity:1;" d="M 199.960938 140 L 199.960938 120 L 219.960938 120 L 219.960938 140 Z M 199.960938 140 "/>
<path style=" stroke:none;fill-rule:nonzero;fill:rgb(0%,0%,0%);fill-opacity:1;" d="M 199.960938 100 L 199.960938 80 L 219.960938 80 L 219.960938 100 Z M 199.960938 100 "/>
<path style=" stroke:none;fill-rule:nonzero;fill:rgb(0%,0%,0%);fill-opacity:1;" d="M 199.960938 60 L 199.960938 40 L 219.960938 40 L 219.960938 60 Z M 199.960938 60 "/>
<path style=" stroke:none;fill-rule:nonzero;fill:rgb(0%,0%,0%);fill-opacity:1;" d="M 199.960938 20 L 199.960938 0 L 219.960938 0 L 219.960938 20 Z M 199.960938 20 "/>
<path style=" stroke:none;fill-rule:nonzero;fill:rgb(0%,0%,0%);fill-opacity:1;" d="M 235.960938 220 L 235.960938 200 L 255.960938 200 L 255.960938 220 Z M 235.960938 220 "/>
<path style=" stroke:none;fill-rule:nonzero;fill:rgb(0%,0%,0%);fill-opacity:1;" d="M 235.960938 180 L 235.960938 160 L 255.960938 160 L 255.960938 180 Z M 235.960938 180 "/>
<path style=" stroke:none;fill-rule:nonzero;fill:rgb(0%,0%,0%);fill-opacity:1;" d="M 235.960938 140 L 235.960938 120 L 255.960938 120 L 255.960938 140 Z M 235.960938 140 "/>
<path style=" stroke:none;fill-rule:nonzero;fill:rgb(0%,0%,0%);fill-opacity:1;" d="M 235.960938 100 L 235.960938 80 L 255.960938 80 L 255.960938 100 Z M 235.960938 100 "/>
<path style=" stroke:none;fill-rule:nonzero;fill:rgb(0%,0%,0%);fill-opacity:1;" d="M 235.960938 60 L 235.960938 40 L 255.960938 40 L 255.960938 60 Z M 235.960938 60 "/>
<path style=" stroke:none;fill-rule:nonzero;fill:rgb(0%,0%,0%);fill-opacity:1;" d="M 235.960938 20 L 235.960938 0 L 255.960938 0 L 255.960938 20 Z M 235.960938 20 "/>
<path style=" stroke:none;fill-rule:nonzero;fill:rgb(0%,0%,0%);fill-opacity:1;" d="M 271.960938 220 L 271.960938 200 L 291.960938 200 L 291.960938 220 Z M 271.960938 220 "/>
<path style=" stroke:none;fill-rule:nonzero;fill:rgb(0%,0%,0%);fill-opacity:1;" d="M 271.960938 180 L 271.960938 160 L 291.960938 160 L 291.960938 180 Z M 271.960938 180 "/>
<path style=" stroke:none;fill-rule:nonzero;fill:rgb(0%,0%,0%);fill-opacity:1;" d="M 271.960938 140 L 271.960938 120 L 291.960938 120 L 291.960938 140 Z M 271.960938 140 "/>
<path style=" stroke:none;fill-rule:nonzero;fill:rgb(0%,0%,0%);fill-opacity:1;" d="M 271.960938 100 L 271.960938 80 L 291.960938 80 L 291.960938 100 Z M 271.960938 100 "/>
<path style=" stroke:none;fill-rule:nonzero;fill:rgb(0%,0%,0%);fill-opacity:1;" d="M 271.960938 60 L 271.960938 40 L 291.960938 40 L 291.960938 60 Z M 271.960938 60 "/>
<path style=" stroke:none;fill-rule:nonzero;fill:rgb(0%,0%,0%);fill-opacity:1;" d="M 271.960938 20 L 271.960938 0 L 291.960938 0 L 291.960938 20 Z M 271.960938 20 "/>
<path style=" stroke:none;fill-rule:nonzero;fill:rgb(0%,0%,0%);fill-opacity:1;" d="M 307.960938 220 L 307.960938 200 L 327.960938 200 L 327.960938 220 Z M 307.960938 220 "/>
<path style=" stroke:none;fill-rule:nonzero;fill:rgb(0%,0%,0%);fill-opacity:1;" d="M 307.960938 180 L 307.960938 160 L 327.960938 160 L 327.960938 180 Z M 307.960938 180 "/>
<path style=" stroke:none;fill-rule:nonzero;fill:rgb(0%,0%,0%);fill-opacity:1;" d="M 307.960938 140 L 307.960938 120 L 327.960938 120 L 327.960938 140 Z M 307.960938 140 "/>
<path style=" stroke:none;fill-rule:nonzero;fill:rgb(0%,0%,0%);fill-opacity:1;" d="M 307.960938 100 L 307.960938 80 L 327.960938 80 L 327.960938 100 Z M 307.960938 100 "/>
<path style=" stroke:none;fill-rule:nonzero;fill:rgb(0%,0%,0%);fill-opacity:1;" d="M 307.960938 60 L 307.960938 40 L 327.960938 40 L 327.960938 60 Z M 307.960938 60 "/>
<path style=" stroke:none;fill-rule:nonzero;fill:rgb(0%,0%,0%);fill-opacity:1;" d="M 307.960938 20 L 307.960938 0 L 327.960938 0 L 327.960938 20 Z M 307.960938 20 "/>
<path style=" stroke:none;fill-rule:nonzero;fill:rgb(0%,0%,0%);fill-opacity:1;" d="M 343.960938 220 L 343.960938 200 L 363.960938 200 L 363.960938 220 Z M 343.960938 220 "/>
<path style=" stroke:none;fill-rule:nonzero;fill:rgb(0%,0%,0%);fill-opacity:1;" d="M 343.960938 180 L 343.960938 160 L 363.960938 160 L 363.960938 180 Z M 343.960938 180 "/>
<path style=" stroke:none;fill-rule:nonzero;fill:rgb(0%,0%,0%);fill-opacity:1;" d="M 343.960938 140 L 343.960938 120 L 363.960938 120 L 363.960938 140 Z M 343.960938 140 "/>
<path style=" stroke:none;fill-rule:nonzero;fill:rgb(0%,0%,0%);fill-opacity:1;" d="M 343.960938 100 L 343.960938 80 L 363.960938 80 L 363.960938 100 Z M 343.960938 100 "/>
<path style=" stroke:none;fill-rule:nonzero;fill:rgb(0%,0%,0%);fill-opacity:1;" d="M 343.960938 60 L 343.960938 40 L 363.960938 40 L 363.960938 60 Z M 343.960938 60 "/>
<path style=" stroke:none;fill-rule:nonzero;fill:rgb(0%,0%,0%);fill-opacity:1;" d="M 343.960938 20 L 343.960938 0 L 363.960938 0 L 363.960938 20 Z M 343.960938 20 "/>
<path style=" stroke:none;fill-rule:nonzero;fill:rgb(0%,0%,0%);fill-opacity:1;" d="M 379.960938 220 L 379.960938 200 L 399.960938 200 L 399.960938 220 Z M 379.960938 220 "/>
<path style=" stroke:none;fill-rule:nonzero;fill:rgb(0%,0%,0%);fill-opacity:1;" d="M 379.960938 180 L 379.960938 160 L 399.960938 160 L 399.960938 180 Z M 379.960938 180 "/>
<path style=" stroke:none;fill-rule:nonzero;fill:rgb(0%,0%,0%);fill-opacity:1;" d="M 379.960938 140 L 379.960938 120 L 399.960938 120 L 399.960938 140 Z M 379.960938 140 "/>
<path style=" stroke:none;fill-rule:nonzero;fill:rgb(0%,0%,0%);fill-opacity:1;" d="M 379.960938 100 L 379.960938 80 L 399.960938 80 L 399.960938 100 Z M 379.960938 100 "/>
<path style=" stroke:none;fill-rule:nonzero;fill:rgb(0%,0%,0%);fill-opacity:1;" d="M 379.960938 60 L 379.960938 40 L 399.960938 40 L 399.960938 60 Z M 379.960938 60 "/>
<path style=" stroke:none;fill-rule:nonzero;fill:rgb(0%,0%,0%);fill-opacity:1;" d="M 379.960938 20 L 379.960938 0 L 399.960938 0 L 399.960938 20 Z M 379.960938 20 "/>
<path style=" stroke:none;fill-rule:nonzero;fill:rgb(0%,0%,0%);fill-opacity:1;" d="M 14.746094 200 L 14.746094 180 L 34.746094 180 L 34.746094 200 Z M 14.746094 200 "/>
<path style=" stroke:none;fill-rule:nonzero;fill:rgb(0%,0%,0%);fill-opacity:1;" d="M 14.746094 160 L 14.746094 140 L 34.746094 140 L 34.746094 160 Z M 14.746094 160 "/>
<path style=" stroke:none;fill-rule:nonzero;fill:rgb(0%,0%,0%);fill-opacity:1;" d="M 14.746094 120 L 14.746094 100 L 34.746094 100 L 34.746094 120 Z M 14.746094 120 "/>
<path style=" stroke:none;fill-rule:nonzero;fill:rgb(0%,0%,0%);fill-opacity:1;" d="M 14.746094 80 L 14.746094 60 L 34.746094 60 L 34.746094 80 Z M 14.746094 80 "/>
<path style=" stroke:none;fill-rule:nonzero;fill:rgb(0%,0%,0%);fill-opacity:1;" d="M 14.746094 40 L 14.746094 20 L 34.746094 20 L 34.746094 40 Z M 14.746094 40 "/>
<path style=" stroke:none;fill-rule:nonzero;fill:rgb(0%,0%,0%);fill-opacity:1;" d="M 50.746094 200 L 50.746094 180 L 70.746094 180 L 70.746094 200 Z M 50.746094 200 "/>
<path style=" stroke:none;fill-rule:nonzero;fill:rgb(0%,0%,0%);fill-opacity:1;" d="M 50.746094 160 L 50.746094 140 L 70.746094 140 L 70.746094 160 Z M 50.746094 160 "/>
<path style=" stroke:none;fill-rule:nonzero;fill:rgb(0%,0%,0%);fill-opacity:1;" d="M 50.746094 120 L 50.746094 100 L 70.746094 100 L 70.746094 120 Z M 50.746094 120 "/>
<path style=" stroke:none;fill-rule:nonzero;fill:rgb(0%,0%,0%);fill-opacity:1;" d="M 50.746094 80 L 50.746094 60 L 70.746094 60 L 70.746094 80 Z M 50.746094 80 "/>
<path style=" stroke:none;fill-rule:nonzero;fill:rgb(0%,0%,0%);fill-opacity:1;" d="M 50.746094 40 L 50.746094 20 L 70.746094 20 L 70.746094 40 Z M 50.746094 40 "/>
<path style=" stroke:none;fill-rule:nonzero;fill:rgb(0%,0%,0%);fill-opacity:1;" d="M 86.746094 200 L 86.746094 180 L 106.746094 180 L 106.746094 200 Z M 86.746094 200 "/>
<path style=" stroke:none;fill-rule:nonzero;fill:rgb(0%,0%,0%);fill-opacity:1;" d="M 86.746094 160 L 86.746094 140 L 106.746094 140 L 106.746094 160 Z M 86.746094 160 "/>
<path style=" stroke:none;fill-rule:nonzero;fill:rgb(0%,0%,0%);fill-opacity:1;" d="M 86.746094 120 L 86.746094 100 L 106.746094 100 L 106.746094 120 Z M 86.746094 120 "/>
<path style=" stroke:none;fill-rule:nonzero;fill:rgb(0%,0%,0%);fill-opacity:1;" d="M 86.746094 80 L 86.746094 60 L 106.746094 60 L 106.746094 80 Z M 86.746094 80 "/>
<path style=" stroke:none;fill-rule:nonzero;fill:rgb(0%,0%,0%);fill-opacity:1;" d="M 86.746094 40 L 86.746094 20 L 106.746094 20 L 106.746094 40 Z M 86.746094 40 "/>
<path style=" stroke:none;fill-rule:nonzero;fill:rgb(0%,0%,0%);fill-opacity:1;" d="M 122.746094 200 L 122.746094 180 L 142.746094 180 L 142.746094 200 Z M 122.746094 200 "/>
<path style=" stroke:none;fill-rule:nonzero;fill:rgb(0%,0%,0%);fill-opacity:1;" d="M 122.746094 160 L 122.746094 140 L 142.746094 140 L 142.746094 160 Z M 122.746094 160 "/>
<path style=" stroke:none;fill-rule:nonzero;fill:rgb(0%,0%,0%);fill-opacity:1;" d="M 122.746094 120 L 122.746094 100 L 142.746094 100 L 142.746094 120 Z M 122.746094 120 "/>
<path style=" stroke:none;fill-rule:nonzero;fill:rgb(0%,0%,0%);fill-opacity:1;" d="M 122.746094 80 L 122.746094 60 L 142.746094 60 L 142.746094 80 Z M 122.746094 80 "/>
<path style=" stroke:none;fill-rule:nonzero;fill:rgb(0%,0%,0%);fill-opacity:1;" d="M 122.746094 40 L 122.746094 20 L 142.746094 20 L 142.746094 40 Z M 122.746094 40 "/>
<path style=" stroke:none;fill-rule:nonzero;fill:rgb(0%,0%,0%);fill-opacity:1;" d="M 158.746094 200 L 158.746094 180 L 178.746094 180 L 178.746094 200 Z M 158.746094 200 "/>
<path style=" stroke:none;fill-rule:nonzero;fill:rgb(0%,0%,0%);fill-opacity:1;" d="M 158.746094 160 L 158.746094 140 L 178.746094 140 L 178.746094 160 Z M 158.746094 160 "/>
<path style=" stroke:none;fill-rule:nonzero;fill:rgb(0%,0%,0%);fill-opacity:1;" d="M 158.746094 120 L 158.746094 100 L 178.746094 100 L 178.746094 120 Z M 158.746094 120 "/>
<path style=" stroke:none;fill-rule:nonzero;fill:rgb(0%,0%,0%);fill-opacity:1;" d="M 158.746094 80 L 158.746094 60 L 178.746094 60 L 178.746094 80 Z M 158.746094 80 "/>
<path style=" stroke:none;fill-rule:nonzero;fill:rgb(0%,0%,0%);fill-opacity:1;" d="M 158.746094 40 L 158.746094 20 L 178.746094 20 L 178.746094 40 Z M 158.746094 40 "/>
<path style=" stroke:none;fill-rule:nonzero;fill:rgb(0%,0%,0%);fill-opacity:1;" d="M 194.746094 200 L 194.746094 180 L 214.746094 180 L 214.746094 200 Z M 194.746094 200 "/>
<path style=" stroke:none;fill-rule:nonzero;fill:rgb(0%,0%,0%);fill-opacity:1;" d="M 194.746094 160 L 194.746094 140 L 214.746094 140 L 214.746094 160 Z M 194.746094 160 "/>
<path style=" stroke:none;fill-rule:nonzero;fill:rgb(0%,0%,0%);fill-opacity:1;" d="M 194.746094 120 L 194.746094 100 L 214.746094 100 L 214.746094 120 Z M 194.746094 120 "/>
<path style=" stroke:none;fill-rule:nonzero;fill:rgb(0%,0%,0%);fill-opacity:1;" d="M 194.746094 80 L 194.746094 60 L 214.746094 60 L 214.746094 80 Z M 194.746094 80 "/>
<path style=" stroke:none;fill-rule:nonzero;fill:rgb(0%,0%,0%);fill-opacity:1;" d="M 194.746094 40 L 194.746094 20 L 214.746094 20 L 214.746094 40 Z M 194.746094 40 "/>
<path style=" stroke:none;fill-rule:nonzero;fill:rgb(0%,0%,0%);fill-opacity:1;" d="M 230.746094 200 L 230.746094 180 L 250.746094 180 L 250.746094 200 Z M 230.746094 200 "/>
<path style=" stroke:none;fill-rule:nonzero;fill:rgb(0%,0%,0%);fill-opacity:1;" d="M 230.746094 160 L 230.746094 140 L 250.746094 140 L 250.746094 160 Z M 230.746094 160 "/>
<path style=" stroke:none;fill-rule:nonzero;fill:rgb(0%,0%,0%);fill-opacity:1;" d="M 230.746094 120 L 230.746094 100 L 250.746094 100 L 250.746094 120 Z M 230.746094 120 "/>
<path style=" stroke:none;fill-rule:nonzero;fill:rgb(0%,0%,0%);fill-opacity:1;" d="M 230.746094 80 L 230.746094 60 L 250.746094 60 L 250.746094 80 Z M 230.746094 80 "/>
<path style=" stroke:none;fill-rule:nonzero;fill:rgb(0%,0%,0%);fill-opacity:1;" d="M 230.746094 40 L 230.746094 20 L 250.746094 20 L 250.746094 40 Z M 230.746094 40 "/>
<path style=" stroke:none;fill-rule:nonzero;fill:rgb(0%,0%,0%);fill-opacity:1;" d="M 266.746094 200 L 266.746094 180 L 286.746094 180 L 286.746094 200 Z M 266.746094 200 "/>
<path style=" stroke:none;fill-rule:nonzero;fill:rgb(0%,0%,0%);fill-opacity:1;" d="M 266.746094 160 L 266.746094 140 L 286.746094 140 L 286.746094 160 Z M 266.746094 160 "/>
<path style=" stroke:none;fill-rule:nonzero;fill:rgb(0%,0%,0%);fill-opacity:1;" d="M 266.746094 120 L 266.746094 100 L 286.746094 100 L 286.746094 120 Z M 266.746094 120 "/>
<path style=" stroke:none;fill-rule:nonzero;fill:rgb(0%,0%,0%);fill-opacity:1;" d="M 266.746094 80 L 266.746094 60 L 286.746094 60 L 286.746094 80 Z M 266.746094 80 "/>
<path style=" stroke:none;fill-rule:nonzero;fill:rgb(0%,0%,0%);fill-opacity:1;" d="M 266.746094 40 L 266.746094 20 L 286.746094 20 L 286.746094 40 Z M 266.746094 40 "/>
<path style=" stroke:none;fill-rule:nonzero;fill:rgb(0%,0%,0%);fill-opacity:1;" d="M 302.746094 200 L 302.746094 180 L 322.746094 180 L 322.746094 200 Z M 302.746094 200 "/>
<path style=" stroke:none;fill-rule:nonzero;fill:rgb(0%,0%,0%);fill-opacity:1;" d="M 302.746094 160 L 302.746094 140 L 322.746094 140 L 322.746094 160 Z M 302.746094 160 "/>
<path style=" stroke:none;fill-rule:nonzero;fill:rgb(0%,0%,0%);fill-opacity:1;" d="M 302.746094 120 L 302.746094 100 L 322.746094 100 L 322.746094 120 Z M 302.746094 120 "/>
<path style=" stroke:none;fill-rule:nonzero;fill:rgb(0%,0%,0%);fill-opacity:1;" d="M 302.746094 80 L 302.746094 60 L 322.746094 60 L 322.746094 80 Z M 302.746094 80 "/>
<path style=" stroke:none;fill-rule:nonzero;fill:rgb(0%,0%,0%);fill-opacity:1;" d="M 302.746094 40 L 302.746094 20 L 322.746094 20 L 322.746094 40 Z M 302.746094 40 "/>
<path style=" stroke:none;fill-rule:nonzero;fill:rgb(0%,0%,0%);fill-opacity:1;" d="M 338.746094 200 L 338.746094 180 L 358.746094 180 L 358.746094 200 Z M 338.746094 200 "/>
<path style=" stroke:none;fill-rule:nonzero;fill:rgb(0%,0%,0%);fill-opacity:1;" d="M 338.746094 160 L 338.746094 140 L 358.746094 140 L 358.746094 160 Z M 338.746094 160 "/>
<path style=" stroke:none;fill-rule:nonzero;fill:rgb(0%,0%,0%);fill-opacity:1;" d="M 338.746094 120 L 338.746094 100 L 358.746094 100 L 358.746094 120 Z M 338.746094 120 "/>
<path style=" stroke:none;fill-rule:nonzero;fill:rgb(0%,0%,0%);fill-opacity:1;" d="M 338.746094 80 L 338.746094 60 L 358.746094 60 L 358.746094 80 Z M 338.746094 80 "/>
<path style=" stroke:none;fill-rule:nonzero;fill:rgb(0%,0%,0%);fill-opacity:1;" d="M 338.746094 40 L 338.746094 20 L 358.746094 20 L 358.746094 40 Z M 338.746094 40 "/>
<path style=" stroke:none;fill-rule:nonzero;fill:rgb(0%,0%,0%);fill-opacity:1;" d="M 374.746094 200 L 374.746094 180 L 394.746094 180 L 394.746094 200 Z M 374.746094 200 "/>
<path style=" stroke:none;fill-rule:nonzero;fill:rgb(0%,0%,0%);fill-opacity:1;" d="M 374.746094 160 L 374.746094 140 L 394.746094 140 L 394.746094 160 Z M 374.746094 160 "/>
<path style=" stroke:none;fill-rule:nonzero;fill:rgb(0%,0%,0%);fill-opacity:1;" d="M 374.746094 120 L 374.746094 100 L 394.746094 100 L 394.746094 120 Z M 374.746094 120 "/>
<path style=" stroke:none;fill-rule:nonzero;fill:rgb(0%,0%,0%);fill-opacity:1;" d="M 374.746094 80 L 374.746094 60 L 394.746094 60 L 394.746094 80 Z M 374.746094 80 "/>
<path style=" stroke:none;fill-rule:nonzero;fill:rgb(0%,0%,0%);fill-opacity:1;" d="M 374.746094 40 L 374.746094 20 L 394.746094 20 L 394.746094 40 Z M 374.746094 40 "/>
<path style="fill:none;stroke-width:1;stroke-linecap:square;stroke-linejoin:miter;stroke:rgb(100%,0%,0%);stroke-opacity:1;stroke-miterlimit:3.25;" d="M 0 220 L 400 220 "/>
<path style="fill:none;stroke-width:1;stroke-linecap:square;stroke-linejoin:miter;stroke:rgb(100%,0%,0%);stroke-opacity:1;stroke-miterlimit:3.25;" d="M 0 200 L 400 200 "/>
<path style="fill:none;stroke-width:1;stroke-linecap:square;stroke-linejoin:miter;stroke:rgb(100%,0%,0%);stroke-opacity:1;stroke-miterlimit:3.25;" d="M 0 180 L 400 180 "/>
<path style="fill:none;stroke-width:1;stroke-linecap:square;stroke-linejoin:miter;stroke:rgb(100%,0%,0%);stroke-opacity:1;stroke-miterlimit:3.25;" d="M 0 160 L 400 160 "/>
<path style="fill:none;stroke-width:1;stroke-linecap:square;stroke-linejoin:miter;stroke:rgb(100%,0%,0%);stroke-opacity:1;stroke-miterlimit:3.25;" d="M 0 140 L 400 140 "/>
<path style="fill:none;stroke-width:1;stroke-linecap:square;stroke-linejoin:miter;stroke:rgb(100%,0%,0%);stroke-opacity:1;stroke-miterlimit:3.25;" d="M 0 120 L 400 120 "/>
<path style="fill:none;stroke-width:1;stroke-linecap:square;stroke-linejoin:miter;stroke:rgb(100%,0%,0%);stroke-opacity:1;stroke-miterlimit:3.25;" d="M 0 100 L 400 100 "/>
<path style="fill:none;stroke-width:1;stroke-linecap:square;stroke-linejoin:miter;stroke:rgb(100%,0%,0%);stroke-opacity:1;stroke-miterlimit:3.25;" d="M 0 80 L 400 80 "/>
<path style="fill:none;stroke-width:1;stroke-linecap:square;stroke-linejoin:miter;stroke:rgb(100%,0%,0%);stroke-opacity:1;stroke-miterlimit:3.25;" d="M 0 60 L 400 60 "/>
<path style="fill:none;stroke-width:1;stroke-linecap:square;stroke-linejoin:miter;stroke:rgb(100%,0%,0%);stroke-opacity:1;stroke-miterlimit:3.25;" d="M 0 40 L 400 40 "/>
<path style="fill:none;stroke-width:1;stroke-linecap:square;stroke-linejoin:miter;stroke:rgb(100%,0%,0%);stroke-opacity:1;stroke-miterlimit:3.25;" d="M 0 20 L 400 20 "/>
</g>
</svg>
