<?xml version="1.0" encoding="UTF-8"?>
<svg xmlns="http://www.w3.org/2000/svg" xmlns:xlink="http://www.w3.org/1999/xlink" width="400pt" height="220pt" viewBox="0 0 400 220" version="1.1">
<g id="surface826">
<rect x="0" y="0" width="400" height="220" style="fill:rgb(0%,40%,100%);fill-opacity:0.2;stroke:none;"/>
<path style=" stroke:none;fill-rule:nonzero;fill:rgb(0%,0%,0%);fill-opacity:1;" d="M -16.886719 220 L -16.886719 200 L 3.113281 200 L 3.113281 220 Z M -16.886719 220 "/>
<path style=" stroke:none;fill-rule:nonzero;fill:rgb(0%,0%,0%);fill-opacity:1;" d="M -16.886719 180 L -16.886719 160 L 3.113281 160 L 3.113281 180 Z M -16.886719 180 "/>
<path style=" stroke:none;fill-rule:nonzero;fill:rgb(0%,0%,0%);fill-opacity:1;" d="M -16.886719 140 L -16.886719 120 L 3.113281 120 L 3.113281 140 Z M -16.886719 140 "/>
<path style=" stroke:none;fill-rule:nonzero;fill:rgb(0%,0%,0%);fill-opacity:1;" d="M -16.886719 100 L -16.886719 80 L 3.113281 80 L 3.113281 100 Z M -16.886719 100 "/>
<path style=" stroke:none;fill-rule:nonzero;fill:rgb(0%,0%,0%);fill-opacity:1;" d="M -16.886719 60 L -16.886719 40 L 3.113281 40 L 3.113281 60 Z M -16.886719 60 "/>
<path style=" stroke:none;fill-rule:nonzero;fill:rgb(0%,0%,0%);fill-opacity:1;" d="M -16.886719 20 L -16.886719 0 L 3.113281 0 L 3.113281 20 Z M -16.886719 20 "/>
<path style=" stroke:none;fill-rule:nonzero;fill:rgb(0%,0%,0%);fill-opacity:1;" d="M 19.113281 220 L 19.113281 200 L 39.113281 200 L 39.113281 220 Z M 19.113281 220 "/>
<path style=" stroke:none;fill-rule:nonzero;fill:rgb(0%,0%,0%);fill-opacity:1;" d="M 19.113281 180 L 19.113281 160 L 39.113281 160 L 39.113281 180 Z M 19.113281 180 "/>
<path style=" stroke:none;fill-rule:nonzero;fill:rgb(0%,0%,0%);fill-opacity:1;" d="M 19.113281 140 L 19.113281 120 L 39.113281 120 L 39.113281 140 Z M 19.113281 140 "/>
<path style=" stroke:none;fill-rule:nonzero;fill:rgb(0%,0%,0%);fill-opacity:1;" d="M 19.113281 100 L 19.113281 80 L 39.113281 80 L 39.113281 100 Z M 19.113281 100 "/>
<path style=" stroke:none;fill-rule:nonzero;fill:rgb(0%,0%,0%);fill-opacity:1;" d="M 19.113281 60 L 19.113281 40 L 39.113281 40 L 39.113281 60 Z M 19.113281 60 "/>
<path style=" stroke:none;fill-rule:nonzero;fill:rgb(0%,0%,0%);fill-opacity:1;" d="M 19.113281 20 L 19.113281 0 L 39.113281 0 L 39.113281 20 Z M 19.113281 20 "/>
<path style=" stroke:none;fill-rule:nonzero;fill:rgb(0%,0%,0%);fill-opacity:1;" d="M 55.113281 220 L 55.113281 200 L 75.113281 200 L 75.113281 220 Z M 55.113281 220 "/>
<path style=" stroke:none;fill-rule:nonzero;fill:rgb(0%,0%,0%);fill-opacity:1;" d="M 55.113281 180 L 55.113281 160 L 75.113281 160 L 75.113281 180 Z M 55.113281 180 "/>
<path style=" stroke:none;fill-rule:nonzero;fill:rgb(0%,0%,0%);fill-opacity:1;" d="M 55.113281 140 L 55.113281 120 L 75.113281 120 L 75.113281 140 Z M 55.113281 140 "/>
<path style=" stroke:none;fill-rule:nonzero;fill:rgb(0%,0%,0%);fill-opacity:1;" d="M 55.113281 100 L 55.113281 80 L 75.113281 80 L 75.113281 100 Z M 55.113281 100 "/>
<path style=" stroke:none;fill-rule:nonzero;fill:rgb(0%,0%,0%);fill-opacity:1;" d="M 55.113281 60 L 55.113281 40 L 75.113281 40 L 75.113281 60 Z M 55.113281 60 "/>
<path style=" stroke:none;fill-rule:nonzero;fill:rgb(0%,0%,0%);fill-opacity:1;" d="M 55.113281 20 L 55.113281 0 L 75.113281 0 L 75.113281 20 Z M 55.113281 20 "/>
<path style=" stroke:none;fill-rule:nonzero;fill:rgb(0%,0%,0%);fill-opacity:1;" d="M 91.113281 220 L 91.113281 200 L 111.113281 200 L 111.113281 220 Z M 91.113281 220 "/>
<path style=" stroke:none;fill-rule:nonzero;fill:rgb(0%,0%,0%);fill-opacity:1;" d="M 91.113281 180 L 91.113281 160 L 111.113281 160 L 111.113281 180 Z M 91.113281 180 "/>
<path style=" stroke:none;fill-rule:nonzero;fill:rgb(0%,0%,0%);fill-opacity:1;" d="M 91.113281 140 L 91.113281 120 L 111.113281 120 L 111.113281 140 Z M 91.113281 140 "/>
<path style=" stroke:none;fill-rule:nonzero;fill:rgb(0%,0%,0%);fill-opacity:1;" d="M 91.113281 100 L 91.113281 80 L 111.113281 80 L 111.113281 100 Z M 91.113281 100 "/>
<path style=" stroke:none;fill-rule:nonzero;fill:rgb(0%,0%,0%);fill-opacity:1;" d="M 91.113281 60 L 91.113281 40 L 111.113281 40 L 111.113281 60 Z M 91.113281 60 "/>
<path style=" stroke:none;fill-rule:nonzero;fill:rgb(0%,0%,0%);fill-opacity:1;" d="M 91.113281 20 L 91.113281 0 L 111.113281 0 L 111.113281 20 Z M 91.113281 20 "/>
<path style=" stroke:none;fill-rule:nonzero;fill:rgb(0%,0%,0%);fill-opacity:1;" d="M 127.113281 220 L 127.113281 200 L 147.113281 200 L 147.113281 220 Z M 127.113281 220 "/>
<path style=" stroke:none;fill-rule:nonzero;fill:rgb(0%,0%,0%);fill-opacity:1;" d="M 127.113281 180 L 127.113281 160 L 147.113281 160 L 147.113281 180 Z M 127.113281 180 "/>
<path style=" stroke:none;fill-rule:nonzero;fill:rgb(0%,0%,0%);fill-opacity:1;" d="M 127.113281 140 L 127.113281 120 L 147.113281 120 L 147.113281 140 Z M 127.113281 140 "/>
<path style=" stroke:none;fill-rule:nonzero;fill:rgb(0%,0%,0%);fill-opacity:1;" d="M 127.113281 100 L 127.113281 80 L 147.113281 80 L 147.113281 100 Z M 127.113281 100 "/>
<path style=" stroke:none;fill-rule:nonzero;fill:rgb(0%,0%,0%);fill-opacity:1;" d="M 127.113281 60 L 127.113281 40 L 147.113281 40 L 147.113281 60 Z M 127.113281 60 "/>
<path style=" stroke:none;fill-rule:nonzero;fill:rgb(0%,0%,0%);fill-opacity:1;" d="M 127.113281 20 L 127.113281 0 L 147.113281 0 L 147.113281 20 Z M 127.113281 20 "/>
<path style=" stroke:none;fill-rule:nonzero;fill:rgb(0%,0%,0%);fill-opacity:1;" d="M 163.113281 220 L 163.113281 200 L 183.113281 200 L 183.113281 220 Z M 163.113281 220 "/>
<path style=" stroke:none;fill-rule:nonzero;fill:rgb(0%,0%,0%);fill-opacity:1;" d="M 163.113281 180 L 163.113281 160 L 183.113281 160 L 183.113281 180 Z M 163.113281 180 "/>
<path style=" stroke:none;fill-rule:nonzero;fill:rgb(0%,0%,0%);fill-opacity:1;" d="M 163.113281 140 L 163.113281 120 L 183.113281 120 L 183.113281 140 Z M 163.113281 140 "/>
<path style=" stroke:none;fill-rule:nonzero;fill:rgb(0%,0%,0%);fill-opacity:1;" d="M 163.113281 100 L 163.113281 80 L 183.113281 80 L 183.113281 100 Z M 163.113281 100 "/>
<path style=" stroke:none;fill-rule:nonzero;fill:rgb(0%,0%,0%);fill-opacity:1;" d="M 163.113281 60 L 163.113281 40 L 183.113281 40 L 183.113281 60 Z M 163.113281 60 "/>
<path style=" stroke:none;fill-rule:nonzero;fill:rgb(0%,0%,0%);fill-opacity:1;" d="M 163.113281 20 L 163.113281 0 L 183.113281 0 L 183.113281 20 Z M 163.113281 20 "/>
<path style=" stroke:none;fill-rule:nonzero;fill:rgb(0%,0%,0%);fill-opacity:1;" d="M 199.113281 220 L 199.113281 200 L 219.113281 200 L 219.113281 220 Z M 199.113281 220 "/>
<path style=" stroke:none;fill-rule:nonzero;fill:rgb(0%,0%,0%);fill-opacity:1;" d="M 199.113281 180 L 199.113281 160 L 219.113281 160 L 219.113281 180 Z M 199.113281 180 "/>
<path style=" stroke:none;fill-rule:nonzero;fill:rgb(0%,0%,0%);fill-opacity:1;" d="M 199.113281 140 L 199.113281 120 L 219.113281 120 L 219.113281 140 Z M 199.113281 140 "/>
<path style=" stroke:none;fill-rule:nonzero;fill:rgb(0%,0%,0%);fill-opacity:1;" d="M 199.113281 100 L 199.113281 80 L 219.113281 80 L 219.113281 100 Z M 199.113281 100 "/>
<path style=" stroke:none;fill-rule:nonzero;fill:rgb(0%,0%,0%);fill-opacity:1;" d="M 199.113281 60 L 199.113281 40 L 219.113281 40 L 219.113281 60 Z M 199.113281 60 "/>
<path style=" stroke:none;fill-rule:nonzero;fill:rgb(0%,0%,0%);fill-opacity:1;" d="M 199.113281 20 L 199.113281 0 L 219.113281 0 L 219.113281 20 Z M 199.113281 20 "/>
<path style=" stroke:none;fill-rule:nonzero;fill:rgb(0%,0%,0%);fill-opacity:1;" d="M 235.113281 220 L 235.113281 200 L 255.113281 200 L 255.113281 220 Z M 235.113281 220 "/>
<path style=" stroke:none;fill-rule:nonzero;fill:rgb(0%,0%,0%);fill-opacity:1;" d="M 235.113281 180 L 235.113281 160 L 255.113281 160 L 255.113281 180 Z M 235.113281 180 "/>
<path style=" stroke:none;fill-rule:nonzero;fill:rgb(0%,0%,0%);fill-opacity:1;" d="M 235.113281 140 L 235.113281 120 L 255.113281 120 L 255.113281 140 Z M 235.113281 140 "/>
<path style=" stroke:none;fill-rule:nonzero;fill:rgb(0%,0%,0%);fill-opacity:1;" d="M 235.113281 100 L 235.113281 80 L 255.113281 80 L 255.113281 100 Z M 235.113281 100 "/>
<path style=" stroke:none;fill-rule:nonzero;fill:rgb(0%,0%,0%);fill-opacity:1;" d="M 235.113281 60 L 235.113281 40 L 255.113281 40 L 255.113281 60 Z M 235.113281 60 "/>
<path style=" stroke:none;fill-rule:nonzero;fill:rgb(0%,0%,0%);fill-opacity:1;" d="M 235.113281 20 L 235.113281 0 L 255.113281 0 L 255.113281 20 Z M 235.113281 20 "/>
<path style=" stroke:none;fill-rule:nonzero;fill:rgb(0%,0%,0%);fill-opacity:1;" d="M 271.113281 220 L 271.113281 200 L 291.113281 200 L 291.113281 220 Z M 271.113281 220 "/>
<path style=" stroke:none;fill-rule:nonzero;fill:rgb(0%,0%,0%);fill-opacity:1;" d="M 271.113281 180 L 271.113281 160 L 291.113281 160 L 291.113281 180 Z M 271.113281 180 "/>
<path style=" stroke:none;fill-rule:nonzero;fill:rgb(0%,0%,0%);fill-opacity:1;" d="M 271.113281 140 L 271.113281 120 L 291.113281 120 L 291.113281 140 Z M 271.113281 140 "/>
<path style=" stroke:none;fill-rule:nonzero;fill:rgb(0%,0%,0%);fill-opacity:1;" d="M 271.113281 100 L 271.113281 80 L 291.113281 80 L 291.113281 100 Z M 271.113281 100 "/>
<path style=" stroke:none;fill-rule:nonzero;fill:rgb(0%,0%,0%);fill-opacity:1;" d="M 271.113281 60 L 271.113281 40 L 291.113281 40 L 291.113281 60 Z M 271.113281 60 "/>
<path style=" stroke:none;fill-rule:nonzero;fill:rgb(0%,0%,0%);fill-opacity:1;" d="M 271.113281 20 L 271.113281 0 L 291.113281 0 L 291.113281 20 Z M 271.113281 20 "/>
<path style=" stroke:none;fill-rule:nonzero;fill:rgb(0%,0%,0%);fill-opacity:1;" d="M 307.113281 220 L 307.113281 200 L 327.113281 200 L 327.113281 220 Z M 307.113281 220 "/>
<path style=" stroke:none;fill-rule:nonzero;fill:rgb(0%,0%,0%);fill-opacity:1;" d="M 307.113281 180 L 307.113281 160 L 327.113281 160 L 327.113281 180 Z M 307.113281 180 "/>
<path style=" stroke:none;fill-rule:nonzero;fill:rgb(0%,0%,0%);fill-opacity:1;" d="M 307.113281 140 L 307.113281 120 L 327.113281 120 L 327.113281 140 Z M 307.113281 140 "/>
<path style=" stroke:none;fill-rule:nonzero;fill:rgb(0%,0%,0%);fill-opacity:1;" d="M 307.113281 100 L 307.113281 80 L 327.113281 80 L 327.113281 100 Z M 307.113281 100 "/>
<path style=" stroke:none;fill-rule:nonzero;fill:rgb(0%,0%,0%);fill-opacity:1;" d="M 307.113281 60 L 307.113281 40 L 327.113281 40 L 327.113281 60 Z M 307.113281 60 "/>
<path style=" stroke:none;fill-rule:nonzero;fill:rgb(0%,0%,0%);fill-opacity:1;" d="M 307.113281 20 L 307.113281 0 L 327.113281 0 L 327.113281 20 Z M 307.113281 20 "/>
<path style=" stroke:none;fill-rule:nonzero;fill:rgb(0%,0%,0%);fill-opacity:1;" d="M 343.113281 220 L 343.113281 200 L 363.113281 200 L 363.113281 220 Z M 343.113281 220 "/>
<path style=" stroke:none;fill-rule:nonzero;fill:rgb(0%,0%,0%);fill-opacity:1;" d="M 343.113281 180 L 343.113281 160 L 363.113281 160 L 363.113281 180 Z M 343.113281 180 "/>
<path style=" stroke:none;fill-rule:nonzero;fill:rgb(0%,0%,0%);fill-opacity:1;" d="M 343.113281 140 L 343.113281 120 L 363.113281 120 L 363.113281 140 Z M 343.113281 140 "/>
<path style=" stroke:none;fill-rule:nonzero;fill:rgb(0%,0%,0%);fill-opacity:1;" d="M 343.113281 100 L 343.113281 80 L 363.113281 80 L 363.113281 100 Z M 343.113281 100 "/>
<path style=" stroke:none;fill-rule:nonzero;fill:rgb(0%,0%,0%);fill-opacity:1;" d="M 343.113281 60 L 343.113281 40 L 363.113281 40 L 363.113281 60 Z M 343.113281 60 "/>
<path style=" stroke:none;fill-rule:nonzero;fill:rgb(0%,0%,0%);fill-opacity:1;" d="M 343.113281 20 L 343.113281 0 L 363.113281 0 L 363.113281 20 Z M 343.113281 20 "/>
<path style=" stroke:none;fill-rule:nonzero;fill:rgb(0%,0%,0%);fill-opacity:1;" d="M 379.113281 220 L 379.113281 200 L 399.113281 200 L 399.113281 220 Z M 379.113281 220 "/>
<path style=" stroke:none;fill-rule:nonzero;fill:rgb(0%,0%,0%);fill-opacity:1;" d="M 379.113281 180 L 379.113281 160 L 399.113281 160 L 399.113281 180 Z M 379.113281 180 "/>
<path style=" stroke:none;fill-rule:nonzero;fill:rgb(0%,0%,0%);fill-opacity:1;" d="M 379.113281 140 L 379.113281 120 L 399.113281 120 L 399.113281 140 Z M 379.113281 140 "/>
<path style=" stroke:none;fill-rule:nonzero;fill:rgb(0%,0%,0%);fill-opacity:1;" d="M 379.113281 100 L 379.113281 80 L 399.113281 80 L 399.113281 100 Z M 379.113281 100 "/>
<path style=" stroke:none;fill-rule:nonzero;fill:rgb(0%,0%,0%);fill-opacity:1;" d="M 379.113281 60 L 379.113281 40 L 399.113281 40 L 399.113281 60 Z M 379.113281 60 "/>
<path style=" stroke:none;fill-rule:nonzero;fill:rgb(0%,0%,0%);fill-opacity:1;" d="M 379.113281 20 L 379.113281 0 L 399.113281 0 L 399.113281 20 Z M 379.113281 20 "/>
<path style=" stroke:none;fill-rule:nonzero;fill:rgb(0%,0%,0%);fill-opacity:1;" d="M -9.285156 200 L -9.285156 180 L 10.714844 180 L 10.714844 200 Z M -9.285156 200 "/>
<path style=" stroke:none;fill-rule:nonzero;fill:rgb(0%,0%,0%);fill-opacity:1;" d="M -9.285156 160 L -9.285156 140 L 10.714844 140 L 10.714844 160 Z M -9.285156 160 "/>
<path style=" stroke:none;fill-rule:nonzero;fill:rgb(0%,0%,0%);fill-opacity:1;" d="M -9.285156 120 L -9.285156 100 L 10.714844 100 L 10.714844 120 Z M -9.285156 120 "/>
<path style=" stroke:none;fill-rule:nonzero;fill:rgb(0%,0%,0%);fill-opacity:1;" d="M -9.285156 80 L -9.285156 60 L 10.714844 60 L 10.714844 80 Z M -9.285156 80 "/>
<path style=" stroke:none;fill-rule:nonzero;fill:rgb(0%,0%,0%);fill-opacity:1;" d="M -9.285156 40 L -9.285156 20 L 10.714844 20 L 10.714844 40 Z M -9.285156 40 "/>
<path style=" stroke:none;fill-rule:nonzero;fill:rgb(0%,0%,0%);fill-opacity:1;" d="M 26.714844 200 L 26.714844 180 L 46.714844 180 L 46.714844 200 Z M 26.714844 200 "/>
<path style=" stroke:none;fill-rule:nonzero;fill:rgb(0%,0%,0%);fill-opacity:1;" d="M 26.714844 160 L 26.714844 140 L 46.714844 140 L 46.714844 160 Z M 26.714844 160 "/>
<path style=" stroke:none;fill-rule:nonzero;fill:rgb(0%,0%,0%);fill-opacity:1;" d="M 26.714844 120 L 26.714844 100 L 46.714844 100 L 46.714844 120 Z M 26.714844 120 "/>
<path style=" stroke:none;fill-rule:nonzero;fill:rgb(0%,0%,0%);fill-opacity:1;" d="M 26.714844 80 L 26.714844 60 L 46.714844 60 L 46.714844 80 Z M 26.714844 80 "/>
<path style=" stroke:none;fill-rule:nonzero;fill:rgb(0%,0%,0%);fill-opacity:1;" d="M 26.714844 40 L 26.714844 20 L 46.714844 20 L 46.714844 40 Z M 26.714844 40 "/>
<path style=" stroke:none;fill-rule:nonzero;fill:rgb(0%,0%,0%);fill-opacity:1;" d="M 62.714844 200 L 62.714844 180 L 82.714844 180 L 82.714844 200 Z M 62.714844 200 "/>
<path style=" stroke:none;fill-rule:nonzero;fill:rgb(0%,0%,0%);fill-opacity:1;" d="M 62.714844 160 L 62.714844 140 L 82.714844 140 L 82.714844 160 Z M 62.714844 160 "/>
<path style=" stroke:none;fill-rule:nonzero;fill:rgb(0%,0%,0%);fill-opacity:1;" d="M 62.714844 120 L 62.714844 100 L 82.714844 100 L 82.714844 120 Z M 62.714844 120 "/>
<path style=" stroke:none;fill-rule:nonzero;fill:rgb(0%,0%,0%);fill-opacity:1;" d="M 62.714844 80 L 62.714844 60 L 82.714844 60 L 82.714844 80 Z M 62.714844 80 "/>
<path style=" stroke:none;fill-rule:nonzero;fill:rgb(0%,0%,0%);fill-opacity:1;" d="M 62.714844 40 L 62.714844 20 L 82.714844 20 L 82.714844 40 Z M 62.714844 40 "/>
<path style=" stroke:none;fill-rule:nonzero;fill:rgb(0%,0%,0%);fill-opacity:1;" d="M 98.714844 200 L 98.714844 180 L 118.714844 180 L 118.714844 200 Z M 98.714844 200 "/>
<path style=" stroke:none;fill-rule:nonzero;fill:rgb(0%,0%,0%);fill-opacity:1;" d="M 98.714844 160 L 98.714844 140 L 118.714844 140 L 118.714844 160 Z M 98.714844 160 "/>
<path style=" stroke:none;fill-rule:nonzero;fill:rgb(0%,0%,0%);fill-opacity:1;" d="M 98.714844 120 L 98.714844 100 L 118.714844 100 L 118.714844 120 Z M 98.714844 120 "/>
<path style=" stroke:none;fill-rule:nonzero;fill:rgb(0%,0%,0%);fill-opacity:1;" d="M 98.714844 80 L 98.714844 60 L 118.714844 60 L 118.714844 80 Z M 98.714844 80 "/>
<path style=" stroke:none;fill-rule:nonzero;fill:rgb(0%,0%,0%);fill-opacity:1;" d="M 98.714844 40 L 98.714844 20 L 118.714844 20 L 118.714844 40 Z M 98.714844 40 "/>
<path style=" stroke:none;fill-rule:nonzero;fill:rgb(0%,0%,0%);fill-opacity:1;" d="M 134.714844 200 L 134.714844 180 L 154.714844 180 L 154.714844 200 Z M 134.714844 200 "/>
<path style=" stroke:none;fill-rule:nonzero;fill:rgb(0%,0%,0%);fill-opacity:1;" d="M 134.714844 160 L 134.714844 140 L 154.714844 140 L 154.714844 160 Z M 134.714844 160 "/>
<path style=" stroke:none;fill-rule:nonzero;fill:rgb(0%,0%,0%);fill-opacity:1;" d="M 134.714844 120 L 134.714844 100 L 154.714844 100 L 154.714844 120 Z M 134.714844 120 "/>
<path style=" stroke:none;fill-rule:nonzero;fill:rgb(0%,0%,0%);fill-opacity:1;" d="M 134.714844 80 L 134.714844 60 L 154.714844 60 L 154.714844 80 Z M 134.714844 80 "/>
<path style=" stroke:none;fill-rule:nonzero;fill:rgb(0%,0%,0%);fill-opacity:1;" d="M 134.714844 40 L 134.714844 20 L 154.714844 20 L 154.714844 40 Z M 134.714844 40 "/>
<path style=" stroke:none;fill-rule:nonzero;fill:rgb(0%,0%,0%);fill-opacity:1;" d="M 170.714844 200 L 170.714844 180 L 190.714844 180 L 190.714844 200 Z M 170.714844 200 "/>
<path style=" stroke:none;fill-rule:nonzero;fill:rgb(0%,0%,0%);fill-opacity:1;" d="M 170.714844 160 L 170.714844 140 L 190.714844 140 L 190.714844 160 Z M 170.714844 160 "/>
<path style=" stroke:none;fill-rule:nonzero;fill:rgb(0%,0%,0%);fill-opacity:1;" d="M 170.714844 120 L 170.714844 100 L 190.714844 100 L 190.714844 120 Z M 170.714844 120 "/>
<path style=" stroke:none;fill-rule:nonzero;fill:rgb(0%,0%,0%);fill-opacity:1;" d="M 170.714844 80 L 170.714844 60 L 190.714844 60 L 190.714844 80 Z M 170.714844 80 "/>
<path style=" stroke:none;fill-rule:nonzero;fill:rgb(0%,0%,0%);fill-opacity:1;" d="M 170.714844 40 L 170.714844 20 L 190.714844 20 L 190.714844 40 Z M 170.714844 40 "/>
<path style=" stroke:none;fill-rule:nonzero;fill:rgb(0%,0%,0%);fill-opacity:1;" d="M 206.714844 200 L 206.714844 180 L 226.714844 180 L 226.714844 200 Z M 206.714844 200 "/>
<path style=" stroke:none;fill-rule:nonzero;fill:rgb(0%,0%,0%);fill-opacity:1;" d="M 206.714844 160 L 206.714844 140 L 226.714844 140 L 226.714844 160 Z M 206.714844 160 "/>
<path style=" stroke:none;fill-rule:nonzero;fill:rgb(0%,0%,0%);fill-opacity:1;" d="M 206.714844 120 L 206.714844 100 L 226.714844 100 L 226.714844 120 Z M 206.714844 120 "/>
<path style=" stroke:none;fill-rule:nonzero;fill:rgb(0%,0%,0%);fill-opacity:1;" d="M 206.714844 80 L 206.714844 60 L 226.714844 60 L 226.714844 80 Z M 206.714844 80 "/>
<path style=" stroke:none;fill-rule:nonzero;fill:rgb(0%,0%,0%);fill-opacity:1;" d="M 206.714844 40 L 206.714844 20 L 226.714844 20 L 226.714844 40 Z M 206.714844 40 "/>
<path style=" stroke:none;fill-rule:nonzero;fill:rgb(0%,0%,0%);fill-opacity:1;" d="M 242.714844 200 L 242.714844 180 L 262.714844 180 L 262.714844 200 Z M 242.714844 200 "/>
<path style=" stroke:none;fill-rule:nonzero;fill:rgb(0%,0%,0%);fill-opacity:1;" d="M 242.714844 160 L 242.714844 140 L 262.714844 140 L 262.714844 160 Z M 242.714844 160 "/>
<path style=" stroke:none;fill-rule:nonzero;fill:rgb(0%,0%,0%);fill-opacity:1;" d="M 242.714844 120 L 242.714844 100 L 262.714844 100 L 262.714844 120 Z M 242.714844 120 "/>
<path style=" stroke:none;fill-rule:nonzero;fill:rgb(0%,0%,0%);fill-opacity:1;" d="M 242.714844 80 L 242.714844 60 L 262.714844 60 L 262.714844 80 Z M 242.714844 80 "/>
<path style=" stroke:none;fill-rule:nonzero;fill:rgb(0%,0%,0%);fill-opacity:1;" d="M 242.714844 40 L 242.714844 20 L 262.714844 20 L 262.714844 40 Z M 242.714844 40 "/>
<path style=" stroke:none;fill-rule:nonzero;fill:rgb(0%,0%,0%);fill-opacity:1;" d="M 278.714844 200 L 278.714844 180 L 298.714844 180 L 298.714844 200 Z M 278.714844 200 "/>
<path style=" stroke:none;fill-rule:nonzero;fill:rgb(0%,0%,0%);fill-opacity:1;" d="M 278.714844 160 L 278.714844 140 L 298.714844 140 L 298.714844 160 Z M 278.714844 160 "/>
<path style=" stroke:none;fill-rule:nonzero;fill:rgb(0%,0%,0%);fill-opacity:1;" d="M 278.714844 120 L 278.714844 100 L 298.714844 100 L 298.714844 120 Z M 278.714844 120 "/>
<path style=" stroke:none;fill-rule:nonzero;fill:rgb(0%,0%,0%);fill-opacity:1;" d="M 278.714844 80 L 278.714844 60 L 298.714844 60 L 298.714844 80 Z M 278.714844 80 "/>
<path style=" stroke:none;fill-rule:nonzero;fill:rgb(0%,0%,0%);fill-opacity:1;" d="M 278.714844 40 L 278.714844 20 L 298.714844 20 L 298.714844 40 Z M 278.714844 40 "/>
<path style=" stroke:none;fill-rule:nonzero;fill:rgb(0%,0%,0%);fill-opacity:1;" d="M 314.714844 200 L 314.714844 180 L 334.714844 180 L 334.714844 200 Z M 314.714844 200 "/>
<path style=" stroke:none;fill-rule:nonzero;fill:rgb(0%,0%,0%);fill-opacity:1;" d="M 314.714844 160 L 314.714844 140 L 334.714844 140 L 334.714844 160 Z M 314.714844 160 "/>
<path style=" stroke:none;fill-rule:nonzero;fill:rgb(0%,0%,0%);fill-opacity:1;" d="M 314.714844 120 L 314.714844 100 L 334.714844 100 L 334.714844 120 Z M 314.714844 120 "/>
<path style=" stroke:none;fill-rule:nonzero;fill:rgb(0%,0%,0%);fill-opacity:1;" d="M 314.714844 80 L 314.714844 60 L 334.714844 60 L 334.714844 80 Z M 314.714844 80 "/>
<path style=" stroke:none;fill-rule:nonzero;fill:rgb(0%,0%,0%);fill-opacity:1;" d="M 314.714844 40 L 314.714844 20 L 334.714844 20 L 334.714844 40 Z M 314.714844 40 "/>
<path style=" stroke:none;fill-rule:nonzero;fill:rgb(0%,0%,0%);fill-opacity:1;" d="M 350.714844 200 L 350.714844 180 L 370.714844 180 L 370.714844 200 Z M 350.714844 200 "/>
<path style=" stroke:none;fill-rule:nonzero;fill:rgb(0%,0%,0%);fill-opacity:1;" d="M 350.714844 160 L 350.714844 140 L 370.714844 140 L 370.714844 160 Z M 350.714844 160 "/>
<path style=" stroke:none;fill-rule:nonzero;fill:rgb(0%,0%,0%);fill-opacity:1;" d="M 350.714844 120 L 350.714844 100 L 370.714844 100 L 370.714844 120 Z M 350.714844 120 "/>
<path style=" stroke:none;fill-rule:nonzero;fill:rgb(0%,0%,0%);fill-opacity:1;" d="M 350.714844 80 L 350.714844 60 L 370.714844 60 L 370.714844 80 Z M 350.714844 80 "/>
<path style=" stroke:none;fill-rule:nonzero;fill:rgb(0%,0%,0%);fill-opacity:1;" d="M 350.714844 40 L 350.714844 20 L 370.714844 20 L 370.714844 40 Z M 350.714844 40 "/>
<path style=" stroke:none;fill-rule:nonzero;fill:rgb(0%,0%,0%);fill-opacity:1;" d="M 386.714844 200 L 386.714844 180 L 406.714844 180 L 406.714844 200 Z M 386.714844 200 "/>
<path style=" stroke:none;fill-rule:nonzero;fill:rgb(0%,0%,0%);fill-opacity:1;" d="M 386.714844 160 L 386.714844 140 L 406.714844 140 L 406.714844 160 Z M 386.714844 160 "/>
<path style=" stroke:none;fill-rule:nonzero;fill:rgb(0%,0%,0%);fill-opacity:1;" d="M 386.714844 120 L 386.714844 100 L 406.714844 100 L 406.714844 120 Z M 386.714844 120 "/>
<path style=" stroke:none;fill-rule:nonzero;fill:rgb(0%,0%,0%);fill-opacity:1;" d="M 386.714844 80 L 386.714844 60 L 406.714844 60 L 406.714844 80 Z M 386.714844 80 "/>
<path style=" stroke:none;fill-rule:nonzero;fill:rgb(0%,0%,0%);fill-opacity:1;" d="M 386.714844 40 L 386.714844 20 L 406.714844 20 L 406.714844 40 Z M 386.714844 40 "/>
<path style="fill:none;stroke-width:1;stroke-linecap:square;stroke-linejoin:miter;stroke:rgb(100%,0%,0%);stroke-opacity:1;stroke-miterlimit:3.25;" d="M 0 220 L 400 220 "/>
<path style="fill:none;stroke-width:1;stroke-linecap:square;stroke-linejoin:miter;stroke:rgb(100%,0%,0%);stroke-opacity:1;stroke-miterlimit:3.25;" d="M 0 200 L 400 200 "/>
<path style="fill:none;stroke-width:1;stroke-linecap:square;stroke-linejoin:miter;stroke:rgb(100%,0%,0%);stroke-opacity:1;stroke-miterlimit:3.25;" d="M 0 180 L 400 180 "/>
<path style="fill:none;stroke-width:1;stroke-linecap:square;stroke-linejoin:miter;stroke:rgb(100%,0%,0%);stroke-opacity:1;stroke-miterlimit:3.25;" d="M 0 160 L 400 160 "/>
<path style="fill:none;stroke-width:1;stroke-linecap:square;stroke-linejoin:miter;stroke:rgb(100%,0%,0%);stroke-opacity:1;stroke-miterlimit:3.25;" d="M 0 140 L 400 140 "/>
<path style="fill:none;stroke-width:1;stroke-linecap:square;stroke-linejoin:miter;stroke:rgb(100%,0%,0%);stroke-opacity:1;stroke-miterlimit:3.25;" d="M 0 120 L 400 120 "/>
<path style="fill:none;stroke-width:1;stroke-linecap:square;stroke-linejoin:miter;stroke:rgb(100%,0%,0%);stroke-opacity:1;stroke-miterlimit:3.25;" d="M 0 100 L 400 100 "/>
<path style="fill:none;stroke-width:1;stroke-linecap:square;stroke-linejoin:miter;stroke:rgb(100%,0%,0%);stroke-opacity:1;stroke-miterlimit:3.25;" d="M 0 80 L 400 80 "/>
<path style="fill:none;stroke-width:1;stroke-linecap:square;stroke-linejoin:miter;stroke:rgb(100%,0%,0%);stroke-opacity:1;stroke-miterlimit:3.25;" d="M 0 60 L 400 60 "/>
<path style="fill:none;stroke-width:1;stroke-linecap:square;stroke-linejoin:miter;stroke:rgb(100%,0%,0%);stroke-opacity:1;stroke-miterlimit:3.25;" d="M 0 40 L 400 40 "/>
<path style="fill:none;stroke-width:1;stroke-linecap:square;stroke-linejoin:miter;stroke:rgb(100%,0%,0%);stroke-opacity:1;stroke-miterlimit:3.25;" d="M 0 20 L 400 20 "/>
</g>
</svg>
