<?xml version="1.0" encoding="UTF-8"?>
<svg xmlns="http://www.w3.org/2000/svg" xmlns:xlink="http://www.w3.org/1999/xlink" width="400pt" height="220pt" viewBox="0 0 400 220" version="1.1">
<g id="surface646">
<rect x="0" y="0" width="400" height="220" style="fill:rgb(0%,40%,100%);fill-opacity:0.2;stroke:none;"/>
<path style=" stroke:none;fill-rule:nonzero;fill:rgb(0%,0%,0%);fill-opacity:1;" d="M 19.019531 220 L 19.019531 200 L 39.019531 200 L 39.019531 220 Z M 19.019531 220 "/>
<path style=" stroke:none;fill-rule:nonzero;fill:rgb(0%,0%,0%);fill-opacity:1;" d="M 19.019531 180 L 19.019531 160 L 39.019531 160 L 39.019531 180 Z M 19.019531 180 "/>
<path style=" stroke:none;fill-rule:nonzero;fill:rgb(0%,0%,0%);fill-opacity:1;" d="M 19.019531 140 L 19.019531 120 L 39.019531 120 L 39.019531 140 Z M 19.019531 140 "/>
<path style=" stroke:none;fill-rule:nonzero;fill:rgb(0%,0%,0%);fill-opacity:1;" d="M 19.019531 100 L 19.019531 80 L 39.019531 80 L 39.019531 100 Z M 19.019531 100 "/>
<path style=" stroke:none;fill-rule:nonzero;fill:rgb(0%,0%,0%);fill-opacity:1;" d="M 19.019531 60 L 19.019531 40 L 39.019531 40 L 39.019531 60 Z M 19.019531 60 "/>
<path style=" stroke:none;fill-rule:nonzero;fill:rgb(0%,0%,0%);fill-opacity:1;" d="M 19.019531 20 L 19.019531 0 L 39.019531 0 L 39.019531 20 Z M 19.019531 20 "/>
<path style=" stroke:none;fill-rule:nonzero;fill:rgb(0%,0%,0%);fill-opacity:1;" d="M 55.019531 220 L 55.019531 200 L 75.019531 200 L 75.019531 220 Z M 55.019531 220 "/>
<path style=" stroke:none;fill-rule:nonzero;fill:rgb(0%,0%,0%);fill-opacity:1;" d="M 55.019531 180 L 55.019531 160 L 75.019531 160 L 75.019531 180 Z M 55.019531 180 "/>
<path style=" stroke:none;fill-rule:nonzero;fill:rgb(0%,0%,0%);fill-opacity:1;" d="M 55.019531 140 L 55.019531 120 L 75.019531 120 L 75.019531 140 Z M 55.019531 140 "/>
<path style=" stroke:none;fill-rule:nonzero;fill:rgb(0%,0%,0%);fill-opacity:1;" d="M 55.019531 100 L 55.019531 80 L 75.019531 80 L 75.019531 100 Z M 55.019531 100 "/>
<path style=" stroke:none;fill-rule:nonzero;fill:rgb(0%,0%,0%);fill-opacity:1;" d="M 55.019531 60 L 55.019531 40 L 75.019531 40 L 75.019531 60 Z M 55.019531 60 "/>
<path style=" stroke:none;fill-rule:nonzero;fill:rgb(0%,0%,0%);fill-opacity:1;" d="M 55.019531 20 L 55.019531 0 L 75.019531 0 L 75.019531 20 Z M 55.019531 20 "/>
<path style=" stroke:none;fill-rule:nonzero;fill:rgb(0%,0%,0%);fill-opacity:1;" d="M 91.019531 220 L 91.019531 200 L 111.019531 200 L 111.019531 220 Z M 91.019531 220 "/>
<path style=" stroke:none;fill-rule:nonzero;fill:rgb(0%,0%,0%);fill-opacity:1;" d="M 91.019531 180 L 91.019531 160 L 111.019531 160 L 111.019531 180 Z M 91.019531 180 "/>
<path style=" stroke:none;fill-rule:nonzero;fill:rgb(0%,0%,0%);fill-opacity:1;" d="M 91.019531 140 L 91.019531 120 L 111.019531 120 L 111.019531 140 Z M 91.019531 140 "/>
<path style=" stroke:none;fill-rule:nonzero;fill:rgb(0%,0%,0%);fill-opacity:1;" d="M 91.019531 100 L 91.019531 80 L 111.019531 80 L 111.019531 100 Z M 91.019531 100 "/>
<path style=" stroke:none;fill-rule:nonzero;fill:rgb(0%,0%,0%);fill-opacity:1;" d="M 91.019531 60 L 91.019531 40 L 111.019531 40 L 111.019531 60 Z M 91.019531 60 "/>
<path style=" stroke:none;fill-rule:nonzero;fill:rgb(0%,0%,0%);fill-opacity:1;" d="M 91.019531 20 L 91.019531 0 L 111.019531 0 L 111.019531 20 Z M 91.019531 20 "/>
<path style=" stroke:none;fill-rule:nonzero;fill:rgb(0%,0%,0%);fill-opacity:1;" d="M 127.019531 220 L 127.019531 200 L 147.019531 200 L 147.019531 220 Z M 127.019531 220 "/>
<path style=" stroke:none;fill-rule:nonzero;fill:rgb(0%,0%,0%);fill-opacity:1;" d="M 127.019531 180 L 127.019531 160 L 147.019531 160 L 147.019531 180 Z M 127.019531 180 "/>
<path style=" stroke:none;fill-rule:nonzero;fill:rgb(0%,0%,0%);fill-opacity:1;" d="M 127.019531 140 L 127.019531 120 L 147.019531 120 L 147.019531 140 Z M 127.019531 140 "/>
<path style=" stroke:none;fill-rule:nonzero;fill:rgb(0%,0%,0%);fill-opacity:1;" d="M 127.019531 100 L 127.019531 80 L 147.019531 80 L 147.019531 100 Z M 127.019531 100 "/>
<path style=" stroke:none;fill-rule:nonzero;fill:rgb(0%,0%,0%);fill-opacity:1;" d="M 127.019531 60 L 127.019531 40 L 147.019531 40 L 147.019531 60 Z M 127.019531 60 "/>
<path style=" stroke:none;fill-rule:nonzero;fill:rgb(0%,0%,0%);fill-opacity:1;" d="M 127.019531 20 L 127.019531 0 L 147.019531 0 L 147.019531 20 Z M 127.019531 20 "/>
<path style=" stroke:none;fill-rule:nonzero;fill:rgb(0%,0%,0%);fill-opacity:1;" d="M 163.019531 220 L 163.019531 200 L 183.019531 200 L 183.019531 220 Z M 163.019531 220 "/>
<path style=" stroke:none;fill-rule:nonzero;fill:rgb(0%,0%,0%);fill-opacity:1;" d="M 163.019531 180 L 163.019531 160 L 183.019531 160 L 183.019531 180 Z M 163.019531 180 "/>
<path style=" stroke:none;fill-rule:nonzero;fill:rgb(0%,0%,0%);fill-opacity:1;" d="M 163.019531 140 L 163.019531 120 L 183.019531 120 L 183.019531 140 Z M 163.019531 140 "/>
<path style=" stroke:none;fill-rule:nonzero;fill:rgb(0%,0%,0%);fill-opacity:1;" d="M 163.019531 100 L 163.019531 80 L 183.019531 80 L 183.019531 100 Z M 163.019531 100 "/>
<path style=" stroke:none;fill-rule:nonzero;fill:rgb(0%,0%,0%);fill-opacity:1;" d="M 163.019531 60 L 163.019531 40 L 183.019531 40 L 183.019531 60 Z M 163.019531 60 "/>
<path style=" stroke:none;fill-rule:nonzero;fill:rgb(0%,0%,0%);fill-opacity:1;" d="M 163.019531 20 L 163.019531 0 L 183.019531 0 L 183.019531 20 Z M 163.019531 20 "/>
<path style=" stroke:none;fill-rule:nonzero;fill:rgb(0%,0%,0%);fill-opacity:1;" d="M 199.019531 220 L 199.019531 200 L 219.019531 200 L 219.019531 220 Z M 199.019531 220 "/>
<path style=" stroke:none;fill-rule:nonzero;fill:rgb(0%,0%,0%);fill-opacity:1;" d="M 199.019531 180 L 199.019531 160 L 219.019531 160 L 219.019531 180 Z M 199.019531 180 "/>
<path style=" stroke:none;fill-rule:nonzero;fill:rgb(0%,0%,0%);fill-opacity:1;" d="M 199.019531 140 L 199.019531 120 L 219.019531 120 L 219.019531 140 Z M 199.019531 140 "/>
<path style=" stroke:none;fill-rule:nonzero;fill:rgb(0%,0%,0%);fill-opacity:1;" d="M 199.019531 100 L 199.019531 80 L 219.019531 80 L 219.019531 100 Z M 199.019531 100 "/>
<path style=" stroke:none;fill-rule:nonzero;fill:rgb(0%,0%,0%);fill-opacity:1;" d="M 199.019531 60 L 199.019531 40 L 219.019531 40 L 219.019531 60 Z M 199.019531 60 "/>
<path style=" stroke:none;fill-rule:nonzero;fill:rgb(0%,0%,0%);fill-opacity:1;" d="M 199.019531 20 L 199.019531 0 L 219.019531 0 L 219.019531 20 Z M 199.019531 20 "/>
<path style=" stroke:none;fill-rule:nonzero;fill:rgb(0%,0%,0%);fill-opacity:1;" d="M 235.019531 220 L 235.019531 200 L 255.019531 200 L 255.019531 220 Z M 235.019531 220 "/>
<path style=" stroke:none;fill-rule:nonzero;fill:rgb(0%,0%,0%);fill-opacity:1;" d="M 235.019531 180 L 235.019531 160 L 255.019531 160 L 255.019531 180 Z M 235.019531 180 "/>
<path style=" stroke:none;fill-rule:nonzero;fill:rgb(0%,0%,0%);fill-opacity:1;" d="M 235.019531 140 L 235.019531 120 L 255.019531 120 L 255.019531 140 Z M 235.019531 140 "/>
<path style=" stroke:none;fill-rule:nonzero;fill:rgb(0%,0%,0%);fill-opacity:1;" d="M 235.019531 100 L 235.019531 80 L 255.019531 80 L 255.019531 100 Z M 235.019531 100 "/>
<path style=" stroke:none;fill-rule:nonzero;fill:rgb(0%,0%,0%);fill-opacity:1;" d="M 235.019531 60 L 235.019531 40 L 255.019531 40 L 255.019531 60 Z M 235.019531 60 "/>
<path style=" stroke:none;fill-rule:nonzero;fill:rgb(0%,0%,0%);fill-opacity:1;" d="M 235.019531 20 L 235.019531 0 L 255.019531 0 L 255.019531 20 Z M 235.019531 20 "/>
<path style=" stroke:none;fill-rule:nonzero;fill:rgb(0%,0%,0%);fill-opacity:1;" d="M 271.019531 220 L 271.019531 200 L 291.019531 200 L 291.019531 220 Z M 271.019531 220 "/>
<path style=" stroke:none;fill-rule:nonzero;fill:rgb(0%,0%,0%);fill-opacity:1;" d="M 271.019531 180 L 271.019531 160 L 291.019531 160 L 291.019531 180 Z M 271.019531 180 "/>
<path style=" stroke:none;fill-rule:nonzero;fill:rgb(0%,0%,0%);fill-opacity:1;" d="M 271.019531 140 L 271.019531 120 L 291.019531 120 L 291.019531 140 Z M 271.019531 140 "/>
<path style=" stroke:none;fill-rule:nonzero;fill:rgb(0%,0%,0%);fill-opacity:1;" d="M 271.019531 100 L 271.019531 80 L 291.019531 80 L 291.019531 100 Z M 271.019531 100 "/>
<path style=" stroke:none;fill-rule:nonzero;fill:rgb(0%,0%,0%);fill-opacity:1;" d="M 271.019531 60 L 271.019531 40 L 291.019531 40 L 291.019531 60 Z M 271.019531 60 "/>
<path style=" stroke:none;fill-rule:nonzero;fill:rgb(0%,0%,0%);fill-opacity:1;" d="M 271.019531 20 L 271.019531 0 L 291.019531 0 L 291.019531 20 Z M 271.019531 20 "/>
<path style=" stroke:none;fill-rule:nonzero;fill:rgb(0%,0%,0%);fill-opacity:1;" d="M 307.019531 220 L 307.019531 200 L 327.019531 200 L 327.019531 220 Z M 307.019531 220 "/>
<path style=" stroke:none;fill-rule:nonzero;fill:rgb(0%,0%,0%);fill-opacity:1;" d="M 307.019531 180 L 307.019531 160 L 327.019531 160 L 327.019531 180 Z M 307.019531 180 "/>
<path style=" stroke:none;fill-rule:nonzero;fill:rgb(0%,0%,0%);fill-opacity:1;" d="M 307.019531 140 L 307.019531 120 L 327.019531 120 L 327.019531 140 Z M 307.019531 140 "/>
<path style=" stroke:none;fill-rule:nonzero;fill:rgb(0%,0%,0%);fill-opacity:1;" d="M 307.019531 100 L 307.019531 80 L 327.019531 80 L 327.019531 100 Z M 307.019531 100 "/>
<path style=" stroke:none;fill-rule:nonzero;fill:rgb(0%,0%,0%);fill-opacity:1;" d="M 307.019531 60 L 307.019531 40 L 327.019531 40 L 327.019531 60 Z M 307.019531 60 "/>
<path style=" stroke:none;fill-rule:nonzero;fill:rgb(0%,0%,0%);fill-opacity:1;" d="M 307.019531 20 L 307.019531 0 L 327.019531 0 L 327.019531 20 Z M 307.019531 20 "/>
<path style=" stroke:none;fill-rule:nonzero;fill:rgb(0%,0%,0%);fill-opacity:1;" d="M 343.019531 220 L 343.019531 200 L 363.019531 200 L 363.019531 220 Z M 343.019531 220 "/>
<path style=" stroke:none;fill-rule:nonzero;fill:rgb(0%,0%,0%);fill-opacity:1;" d="M 343.019531 180 L 343.019531 160 L 363.019531 160 L 363.019531 180 Z M 343.019531 180 "/>
<path style=" stroke:none;fill-rule:nonzero;fill:rgb(0%,0%,0%);fill-opacity:1;" d="M 343.019531 140 L 343.019531 120 L 363.019531 120 L 363.019531 140 Z M 343.019531 140 "/>
<path style=" stroke:none;fill-rule:nonzero;fill:rgb(0%,0%,0%);fill-opacity:1;" d="M 343.019531 100 L 343.019531 80 L 363.019531 80 L 363.019531 100 Z M 343.019531 100 "/>
<path style=" stroke:none;fill-rule:nonzero;fill:rgb(0%,0%,0%);fill-opacity:1;" d="M 343.019531 60 L 343.019531 40 L 363.019531 40 L 363.019531 60 Z M 343.019531 60 "/>
<path style=" stroke:none;fill-rule:nonzero;fill:rgb(0%,0%,0%);fill-opacity:1;" d="M 343.019531 20 L 343.019531 0 L 363.019531 0 L 363.019531 20 Z M 343.019531 20 "/>
<path style=" stroke:none;fill-rule:nonzero;fill:rgb(0%,0%,0%);fill-opacity:1;" d="M 379.019531 220 L 379.019531 200 L 399.019531 200 L 399.019531 220 Z M 379.019531 220 "/>
<path style=" stroke:none;fill-rule:nonzero;fill:rgb(0%,0%,0%);fill-opacity:1;" d="M 379.019531 180 L 379.019531 160 L 399.019531 160 L 399.019531 180 Z M 379.019531 180 "/>
<path style=" stroke:none;fill-rule:nonzero;fill:rgb(0%,0%,0%);fill-opacity:1;" d="M 379.019531 140 L 379.019531 120 L 399.019531 120 L 399.019531 140 Z M 379.019531 140 "/>
<path style=" stroke:none;fill-rule:nonzero;fill:rgb(0%,0%,0%);fill-opacity:1;" d="M 379.019531 100 L 379.019531 80 L 399.019531 80 L 399.019531 100 Z M 379.019531 100 "/>
<path style=" stroke:none;fill-rule:nonzero;fill:rgb(0%,0%,0%);fill-opacity:1;" d="M 379.019531 60 L 379.019531 40 L 399.019531 40 L 399.019531 60 Z M 379.019531 60 "/>
<path style=" stroke:none;fill-rule:nonzero;fill:rgb(0%,0%,0%);fill-opacity:1;" d="M 379.019531 20 L 379.019531 0 L 399.019531 0 L 399.019531 20 Z M 379.019531 20 "/>
<path style=" stroke:none;fill-rule:nonzero;fill:rgb(0%,0%,0%);fill-opacity:1;" d="M -13.820312 200 L -13.820312 180 L 6.179688 180 L 6.179688 200 Z M -13.820312 200 "/>
<path style=" stroke:none;fill-rule:nonzero;fill:rgb(0%,0%,0%);fill-opacity:1;" d="M -13.820312 160 L -13.820312 140 L 6.179688 140 L 6.179688 160 Z M -13.820312 160 "/>
<path style=" stroke:none;fill-rule:nonzero;fill:rgb(0%,0%,0%);fill-opacity:1;" d="M -13.820312 120 L -13.820312 100 L 6.179688 100 L 6.179688 120 Z M -13.820312 120 "/>
<path style=" stroke:none;fill-rule:nonzero;fill:rgb(0%,0%,0%);fill-opacity:1;" d="M -13.820312 80 L -13.820312 60 L 6.179688 60 L 6.179688 80 Z M -13.820312 80 "/>
<path style=" stroke:none;fill-rule:nonzero;fill:rgb(0%,0%,0%);fill-opacity:1;" d="M -13.820312 40 L -13.820312 20 L 6.179688 20 L 6.179688 40 Z M -13.820312 40 "/>
<path style=" stroke:none;fill-rule:nonzero;fill:rgb(0%,0%,0%);fill-opacity:1;" d="M 22.179688 200 L 22.179688 180 L 42.179688 180 L 42.179688 200 Z M 22.179688 200 "/>
<path style=" stroke:none;fill-rule:nonzero;fill:rgb(0%,0%,0%);fill-opacity:1;" d="M 22.179688 160 L 22.179688 140 L 42.179688 140 L 42.179688 160 Z M 22.179688 160 "/>
<path style=" stroke:none;fill-rule:nonzero;fill:rgb(0%,0%,0%);fill-opacity:1;" d="M 22.179688 120 L 22.179688 100 L 42.179688 100 L 42.179688 120 Z M 22.179688 120 "/>
<path style=" stroke:none;fill-rule:nonzero;fill:rgb(0%,0%,0%);fill-opacity:1;" d="M 22.179688 80 L 22.179688 60 L 42.179688 60 L 42.179688 80 Z M 22.179688 80 "/>
<path style=" stroke:none;fill-rule:nonzero;fill:rgb(0%,0%,0%);fill-opacity:1;" d="M 22.179688 40 L 22.179688 20 L 42.179688 20 L 42.179688 40 Z M 22.179688 40 "/>
<path style=" stroke:none;fill-rule:nonzero;fill:rgb(0%,0%,0%);fill-opacity:1;" d="M 58.179688 200 L 58.179688 180 L 78.179688 180 L 78.179688 200 Z M 58.179688 200 "/>
<path style=" stroke:none;fill-rule:nonzero;fill:rgb(0%,0%,0%);fill-opacity:1;" d="M 58.179688 160 L 58.179688 140 L 78.179688 140 L 78.179688 160 Z M 58.179688 160 "/>
<path style=" stroke:none;fill-rule:nonzero;fill:rgb(0%,0%,0%);fill-opacity:1;" d="M 58.179688 120 L 58.179688 100 L 78.179688 100 L 78.179688 120 Z M 58.179688 120 "/>
<path style=" stroke:none;fill-rule:nonzero;fill:rgb(0%,0%,0%);fill-opacity:1;" d="M 58.179688 80 L 58.179688 60 L 78.179688 60 L 78.179688 80 Z M 58.179688 80 "/>
<path style=" stroke:none;fill-rule:nonzero;fill:rgb(0%,0%,0%);fill-opacity:1;" d="M 58.179688 40 L 58.179688 20 L 78.179688 20 L 78.179688 40 Z M 58.179688 40 "/>
<path style=" stroke:none;fill-rule:nonzero;fill:rgb(0%,0%,0%);fill-opacity:1;" d="M 94.179688 200 L 94.179688 180 L 114.179688 180 L 114.179688 200 Z M 94.179688 200 "/>
<path style=" stroke:none;fill-rule:nonzero;fill:rgb(0%,0%,0%);fill-opacity:1;" d="M 94.179688 160 L 94.179688 140 L 114.179688 140 L 114.179688 160 Z M 94.179688 160 "/>
<path style=" stroke:none;fill-rule:nonzero;fill:rgb(0%,0%,0%);fill-opacity:1;" d="M 94.179688 120 L 94.179688 100 L 114.179688 100 L 114.179688 120 Z M 94.179688 120 "/>
<path style=" stroke:none;fill-rule:nonzero;fill:rgb(0%,0%,0%);fill-opacity:1;" d="M 94.179688 80 L 94.179688 60 L 114.179688 60 L 114.179688 80 Z M 94.179688 80 "/>
<path style=" stroke:none;fill-rule:nonzero;fill:rgb(0%,0%,0%);fill-opacity:1;" d="M 94.179688 40 L 94.179688 20 L 114.179688 20 L 114.179688 40 Z M 94.179688 40 "/>
<path style=" stroke:none;fill-rule:nonzero;fill:rgb(0%,0%,0%);fill-opacity:1;" d="M 130.179688 200 L 130.179688 180 L 150.179688 180 L 150.179688 200 Z M 130.179688 200 "/>
<path style=" stroke:none;fill-rule:nonzero;fill:rgb(0%,0%,0%);fill-opacity:1;" d="M 130.179688 160 L 130.179688 140 L 150.179688 140 L 150.179688 160 Z M 130.179688 160 "/>
<path style=" stroke:none;fill-rule:nonzero;fill:rgb(0%,0%,0%);fill-opacity:1;" d="M 130.179688 120 L 130.179688 100 L 150.179688 100 L 150.179688 120 Z M 130.179688 120 "/>
<path style=" stroke:none;fill-rule:nonzero;fill:rgb(0%,0%,0%);fill-opacity:1;" d="M 130.179688 80 L 130.179688 60 L 150.179688 60 L 150.179688 80 Z M 130.179688 80 "/>
<path style=" stroke:none;fill-rule:nonzero;fill:rgb(0%,0%,0%);fill-opacity:1;" d="M 130.179688 40 L 130.179688 20 L 150.179688 20 L 150.179688 40 Z M 130.179688 40 "/>
<path style=" stroke:none;fill-rule:nonzero;fill:rgb(0%,0%,0%);fill-opacity:1;" d="M 166.179688 200 L 166.179688 180 L 186.179688 180 L 186.179688 200 Z M 166.179688 200 "/>
<path style=" stroke:none;fill-rule:nonzero;fill:rgb(0%,0%,0%);fill-opacity:1;" d="M 166.179688 160 L 166.179688 140 L 186.179688 140 L 186.179688 160 Z M 166.179688 160 "/>
<path style=" stroke:none;fill-rule:nonzero;fill:rgb(0%,0%,0%);fill-opacity:1;" d="M 166.179688 120 L 166.179688 100 L 186.179688 100 L 186.179688 120 Z M 166.179688 120 "/>
<path style=" stroke:none;fill-rule:nonzero;fill:rgb(0%,0%,0%);fill-opacity:1;" d="M 166.179688 80 L 166.179688 60 L 186.179688 60 L 186.179688 80 Z M 166.179688 80 "/>
<path style=" stroke:none;fill-rule:nonzero;fill:rgb(0%,0%,0%);fill-opacity:1;" d="M 166.179688 40 L 166.179688 20 L 186.179688 20 L 186.179688 40 Z M 166.179688 40 "/>
<path style=" stroke:none;fill-rule:nonzero;fill:rgb(0%,0%,0%);fill-opacity:1;" d="M 202.179688 200 L 202.179688 180 L 222.179688 180 L 222.179688 200 Z M 202.179688 200 "/>
<path style=" stroke:none;fill-rule:nonzero;fill:rgb(0%,0%,0%);fill-opacity:1;" d="M 202.179688 160 L 202.179688 140 L 222.179688 140 L 222.179688 160 Z M 202.179688 160 "/>
<path style=" stroke:none;fill-rule:nonzero;fill:rgb(0%,0%,0%);fill-opacity:1;" d="M 202.179688 120 L 202.179688 100 L 222.179688 100 L 222.179688 120 Z M 202.179688 120 "/>
<path style=" stroke:none;fill-rule:nonzero;fill:rgb(0%,0%,0%);fill-opacity:1;" d="M 202.179688 80 L 202.179688 60 L 222.179688 60 L 222.179688 80 Z M 202.179688 80 "/>
<path style=" stroke:none;fill-rule:nonzero;fill:rgb(0%,0%,0%);fill-opacity:1;" d="M 202.179688 40 L 202.179688 20 L 222.179688 20 L 222.179688 40 Z M 202.179688 40 "/>
<path style=" stroke:none;fill-rule:nonzero;fill:rgb(0%,0%,0%);fill-opacity:1;" d="M 238.179688 200 L 238.179688 180 L 258.179688 180 L 258.179688 200 Z M 238.179688 200 "/>
<path style=" stroke:none;fill-rule:nonzero;fill:rgb(0%,0%,0%);fill-opacity:1;" d="M 238.179688 160 L 238.179688 140 L 258.179688 140 L 258.179688 160 Z M 238.179688 160 "/>
<path style=" stroke:none;fill-rule:nonzero;fill:rgb(0%,0%,0%);fill-opacity:1;" d="M 238.179688 120 L 238.179688 100 L 258.179688 100 L 258.179688 120 Z M 238.179688 120 "/>
<path style=" stroke:none;fill-rule:nonzero;fill:rgb(0%,0%,0%);fill-opacity:1;" d="M 238.179688 80 L 238.179688 60 L 258.179688 60 L 258.179688 80 Z M 238.179688 80 "/>
<path style=" stroke:none;fill-rule:nonzero;fill:rgb(0%,0%,0%);fill-opacity:1;" d="M 238.179688 40 L 238.179688 20 L 258.179688 20 L 258.179688 40 Z M 238.179688 40 "/>
<path style=" stroke:none;fill-rule:nonzero;fill:rgb(0%,0%,0%);fill-opacity:1;" d="M 274.179688 200 L 274.179688 180 L 294.179688 180 L 294.179688 200 Z M 274.179688 200 "/>
<path style=" stroke:none;fill-rule:nonzero;fill:rgb(0%,0%,0%);fill-opacity:1;" d="M 274.179688 160 L 274.179688 140 L 294.179688 140 L 294.179688 160 Z M 274.179688 160 "/>
<path style=" stroke:none;fill-rule:nonzero;fill:rgb(0%,0%,0%);fill-opacity:1;" d="M 274.179688 120 L 274.179688 100 L 294.179688 100 L 294.179688 120 Z M 274.179688 120 "/>
<path style=" stroke:none;fill-rule:nonzero;fill:rgb(0%,0%,0%);fill-opacity:1;" d="M 274.179688 80 L 274.179688 60 L 294.179688 60 L 294.179688 80 Z M 274.179688 80 "/>
<path style=" stroke:none;fill-rule:nonzero;fill:rgb(0%,0%,0%);fill-opacity:1;" d="M 274.179688 40 L 274.179688 20 L 294.179688 20 L 294.179688 40 Z M 274.179688 40 "/>
<path style=" stroke:none;fill-rule:nonzero;fill:rgb(0%,0%,0%);fill-opacity:1;" d="M 310.179688 200 L 310.179688 180 L 330.179688 180 L 330.179688 200 Z M 310.179688 200 "/>
<path style=" stroke:none;fill-rule:nonzero;fill:rgb(0%,0%,0%);fill-opacity:1;" d="M 310.179688 160 L 310.179688 140 L 330.179688 140 L 330.179688 160 Z M 310.179688 160 "/>
<path style=" stroke:none;fill-rule:nonzero;fill:rgb(0%,0%,0%);fill-opacity:1;" d="M 310.179688 120 L 310.179688 100 L 330.179688 100 L 330.179688 120 Z M 310.179688 120 "/>
<path style=" stroke:none;fill-rule:nonzero;fill:rgb(0%,0%,0%);fill-opacity:1;" d="M 310.179688 80 L 310.179688 60 L 330.179688 60 L 330.179688 80 Z M 310.179688 80 "/>
<path style=" stroke:none;fill-rule:nonzero;fill:rgb(0%,0%,0%);fill-opacity:1;" d="M 310.179688 40 L 310.179688 20 L 330.179688 20 L 330.179688 40 Z M 310.179688 40 "/>
<path style=" stroke:none;fill-rule:nonzero;fill:rgb(0%,0%,0%);fill-opacity:1;" d="M 346.179688 200 L 346.179688 180 L 366.179688 180 L 366.179688 200 Z M 346.179688 200 "/>
<path style=" stroke:none;fill-rule:nonzero;fill:rgb(0%,0%,0%);fill-opacity:1;" d="M 346.179688 160 L 346.179688 140 L 366.179688 140 L 366.179688 160 Z M 346.179688 160 "/>
<path style=" stroke:none;fill-rule:nonzero;fill:rgb(0%,0%,0%);fill-opacity:1;" d="M 346.179688 120 L 346.179688 100 L 366.179688 100 L 366.179688 120 Z M 346.179688 120 "/>
<path style=" stroke:none;fill-rule:nonzero;fill:rgb(0%,0%,0%);fill-opacity:1;" d="M 346.179688 80 L 346.179688 60 L 366.179688 60 L 366.179688 80 Z M 346.179688 80 "/>
<path style=" stroke:none;fill-rule:nonzero;fill:rgb(0%,0%,0%);fill-opacity:1;" d="M 346.179688 40 L 346.179688 20 L 366.179688 20 L 366.179688 40 Z M 346.179688 40 "/>
<path style=" stroke:none;fill-rule:nonzero;fill:rgb(0%,0%,0%);fill-opacity:1;" d="M 382.179688 200 L 382.179688 180 L 402.179688 180 L 402.179688 200 Z M 382.179688 200 "/>
<path style=" stroke:none;fill-rule:nonzero;fill:rgb(0%,0%,0%);fill-opacity:1;" d="M 382.179688 160 L 382.179688 140 L 402.179688 140 L 402.179688 160 Z M 382.179688 160 "/>
<path style=" stroke:none;fill-rule:nonzero;fill:rgb(0%,0%,0%);fill-opacity:1;" d="M 382.179688 120 L 382.179688 100 L 402.179688 100 L 402.179688 120 Z M 382.179688 120 "/>
<path style=" stroke:none;fill-rule:nonzero;fill:rgb(0%,0%,0%);fill-opacity:1;" d="M 382.179688 80 L 382.179688 60 L 402.179688 60 L 402.179688 80 Z M 382.179688 80 "/>
<path style=" stroke:none;fill-rule:nonzero;fill:rgb(0%,0%,0%);fill-opacity:1;" d="M 382.179688 40 L 382.179688 20 L 402.179688 20 L 402.179688 40 Z M 382.179688 40 "/>
<path style="fill:none;stroke-width:1;stroke-linecap:square;stroke-linejoin:miter;stroke:rgb(100%,0%,0%);stroke-opacity:1;stroke-miterlimit:3.25;" d="M 0 220 L 400 220 "/>
<path style="fill:none;stroke-width:1;stroke-linecap:square;stroke-linejoin:miter;stroke:rgb(100%,0%,0%);stroke-opacity:1;stroke-miterlimit:3.25;" d="M 0 200 L 400 200 "/>
<path style="fill:none;stroke-width:1;stroke-linecap:square;stroke-linejoin:miter;stroke:rgb(100%,0%,0%);stroke-opacity:1;stroke-miterlimit:3.25;" d="M 0 180 L 400 180 "/>
<path style="fill:none;stroke-width:1;stroke-linecap:square;stroke-linejoin:miter;stroke:rgb(100%,0%,0%);stroke-opacity:1;stroke-miterlimit:3.25;" d="M 0 160 L 400 160 "/>
<path style="fill:none;stroke-width:1;stroke-linecap:square;stroke-linejoin:miter;stroke:rgb(100%,0%,0%);stroke-opacity:1;stroke-miterlimit:3.25;" d="M 0 140 L 400 140 "/>
<path style="fill:none;stroke-width:1;stroke-linecap:square;stroke-linejoin:miter;stroke:rgb(100%,0%,0%);stroke-opacity:1;stroke-miterlimit:3.25;" d="M 0 120 L 400 120 "/>
<path style="fill:none;stroke-width:1;stroke-linecap:square;stroke-linejoin:miter;stroke:rgb(100%,0%,0%);stroke-opacity:1;stroke-miterlimit:3.25;" d="M 0 100 L 400 100 "/>
<path style="fill:none;stroke-width:1;stroke-linecap:square;stroke-linejoin:miter;stroke:rgb(100%,0%,0%);stroke-opacity:1;stroke-miterlimit:3.25;" d="M 0 80 L 400 80 "/>
<path style="fill:none;stroke-width:1;stroke-linecap:square;stroke-linejoin:miter;stroke:rgb(100%,0%,0%);stroke-opacity:1;stroke-miterlimit:3.25;" d="M 0 60 L 400 60 "/>
<path style="fill:none;stroke-width:1;stroke-linecap:square;stroke-linejoin:miter;stroke:rgb(100%,0%,0%);stroke-opacity:1;stroke-miterlimit:3.25;" d="M 0 40 L 400 40 "/>
<path style="fill:none;stroke-width:1;stroke-linecap:square;stroke-linejoin:miter;stroke:rgb(100%,0%,0%);stroke-opacity:1;stroke-miterlimit:3.25;" d="M 0 20 L 400 20 "/>
</g>
</svg>
