<?xml version="1.0" encoding="UTF-8"?>
<svg xmlns="http://www.w3.org/2000/svg" xmlns:xlink="http://www.w3.org/1999/xlink" width="400pt" height="220pt" viewBox="0 0 400 220" version="1.1">
<g id="surface876">
<rect x="0" y="0" width="400" height="220" style="fill:rgb(0%,40%,100%);fill-opacity:0.2;stroke:none;"/>
<path style=" stroke:none;fill-rule:nonzero;fill:rgb(0%,0%,0%);fill-opacity:1;" d="M -19.960938 220 L -19.960938 200 L 0.0390625 200 L 0.0390625 220 Z M -19.960938 220 "/>
<path style=" stroke:none;fill-rule:nonzero;fill:rgb(0%,0%,0%);fill-opacity:1;" d="M -19.960938 180 L -19.960938 160 L 0.0390625 160 L 0.0390625 180 Z M -19.960938 180 "/>
<path style=" stroke:none;fill-rule:nonzero;fill:rgb(0%,0%,0%);fill-opacity:1;" d="M -19.960938 140 L -19.960938 120 L 0.0390625 120 L 0.0390625 140 Z M -19.960938 140 "/>
<path style=" stroke:none;fill-rule:nonzero;fill:rgb(0%,0%,0%);fill-opacity:1;" d="M -19.960938 100 L -19.960938 80 L 0.0390625 80 L 0.0390625 100 Z M -19.960938 100 "/>
<path style=" stroke:none;fill-rule:nonzero;fill:rgb(0%,0%,0%);fill-opacity:1;" d="M -19.960938 60 L -19.960938 40 L 0.0390625 40 L 0.0390625 60 Z M -19.960938 60 "/>
<path style=" stroke:none;fill-rule:nonzero;fill:rgb(0%,0%,0%);fill-opacity:1;" d="M -19.960938 20 L -19.960938 0 L 0.0390625 0 L 0.0390625 20 Z M -19.960938 20 "/>
<path style=" stroke:none;fill-rule:nonzero;fill:rgb(0%,0%,0%);fill-opacity:1;" d="M 16.039062 220 L 16.039062 200 L 36.039062 200 L 36.039062 220 Z M 16.039062 220 "/>
<path style=" stroke:none;fill-rule:nonzero;fill:rgb(0%,0%,0%);fill-opacity:1;" d="M 16.039062 180 L 16.039062 160 L 36.039062 160 L 36.039062 180 Z M 16.039062 180 "/>
<path style=" stroke:none;fill-rule:nonzero;fill:rgb(0%,0%,0%);fill-opacity:1;" d="M 16.039062 140 L 16.039062 120 L 36.039062 120 L 36.039062 140 Z M 16.039062 140 "/>
<path style=" stroke:none;fill-rule:nonzero;fill:rgb(0%,0%,0%);fill-opacity:1;" d="M 16.039062 100 L 16.039062 80 L 36.039062 80 L 36.039062 100 Z M 16.039062 100 "/>
<path style=" stroke:none;fill-rule:nonzero;fill:rgb(0%,0%,0%);fill-opacity:1;" d="M 16.039062 60 L 16.039062 40 L 36.039062 40 L 36.039062 60 Z M 16.039062 60 "/>
<path style=" stroke:none;fill-rule:nonzero;fill:rgb(0%,0%,0%);fill-opacity:1;" d="M 16.039062 20 L 16.039062 0 L 36.039062 0 L 36.039062 20 Z M 16.039062 20 "/>
<path style=" stroke:none;fill-rule:nonzero;fill:rgb(0%,0%,0%);fill-opacity:1;" d="M 52.039062 220 L 52.039062 200 L 72.039062 200 L 72.039062 220 Z M 52.039062 220 "/>
<path style=" stroke:none;fill-rule:nonzero;fill:rgb(0%,0%,0%);fill-opacity:1;" d="M 52.039062 180 L 52.039062 160 L 72.039062 160 L 72.039062 180 Z M 52.039062 180 "/>
<path style=" stroke:none;fill-rule:nonzero;fill:rgb(0%,0%,0%);fill-opacity:1;" d="M 52.039062 140 L 52.039062 120 L 72.039062 120 L 72.039062 140 Z M 52.039062 140 "/>
<path style=" stroke:none;fill-rule:nonzero;fill:rgb(0%,0%,0%);fill-opacity:1;" d="M 52.039062 100 L 52.039062 80 L 72.039062 80 L 72.039062 100 Z M 52.039062 100 "/>
<path style=" stroke:none;fill-rule:nonzero;fill:rgb(0%,0%,0%);fill-opacity:1;" d="M 52.039062 60 L 52.039062 40 L 72.039062 40 L 72.039062 60 Z M 52.039062 60 "/>
<path style=" stroke:none;fill-rule:nonzero;fill:rgb(0%,0%,0%);fill-opacity:1;" d="M 52.039062 20 L 52.039062 0 L 72.039062 0 L 72.039062 20 Z M 52.039062 20 "/>
<path style=" stroke:none;fill-rule:nonzero;fill:rgb(0%,0%,0%);fill-opacity:1;" d="M 88.039062 220 L 88.039062 200 L 108.039062 200 L 108.039062 220 Z M 88.039062 220 "/>
<path style=" stroke:none;fill-rule:nonzero;fill:rgb(0%,0%,0%);fill-opacity:1;" d="M 88.039062 180 L 88.039062 160 L 108.039062 160 L 108.039062 180 Z M 88.039062 180 "/>
<path style=" stroke:none;fill-rule:nonzero;fill:rgb(0%,0%,0%);fill-opacity:1;" d="M 88.039062 140 L 88.039062 120 L 108.039062 120 L 108.039062 140 Z M 88.039062 140 "/>
<path style=" stroke:none;fill-rule:nonzero;fill:rgb(0%,0%,0%);fill-opacity:1;" d="M 88.039062 100 L 88.039062 80 L 108.039062 80 L 108.039062 100 Z M 88.039062 100 "/>
<path style=" stroke:none;fill-rule:nonzero;fill:rgb(0%,0%,0%);fill-opacity:1;" d="M 88.039062 60 L 88.039062 40 L 108.039062 40 L 108.039062 60 Z M 88.039062 60 "/>
<path style=" stroke:none;fill-rule:nonzero;fill:rgb(0%,0%,0%);fill-opacity:1;" d="M 88.039062 20 L 88.039062 0 L 108.039062 0 L 108.039062 20 Z M 88.039062 20 "/>
<path style=" stroke:none;fill-rule:nonzero;fill:rgb(0%,0%,0%);fill-opacity:1;" d="M 124.039062 220 L 124.039062 200 L 144.039062 200 L 144.039062 220 Z M 124.039062 220 "/>
<path style=" stroke:none;fill-rule:nonzero;fill:rgb(0%,0%,0%);fill-opacity:1;" d="M 124.039062 180 L 124.039062 160 L 144.039062 160 L 144.039062 180 Z M 124.039062 180 "/>
<path style=" stroke:none;fill-rule:nonzero;fill:rgb(0%,0%,0%);fill-opacity:1;" d="M 124.039062 140 L 124.039062 120 L 144.039062 120 L 144.039062 140 Z M 124.039062 140 "/>
<path style=" stroke:none;fill-rule:nonzero;fill:rgb(0%,0%,0%);fill-opacity:1;" d="M 124.039062 100 L 124.039062 80 L 144.039062 80 L 144.039062 100 Z M 124.039062 100 "/>
<path style=" stroke:none;fill-rule:nonzero;fill:rgb(0%,0%,0%);fill-opacity:1;" d="M 124.039062 60 L 124.039062 40 L 144.039062 40 L 144.039062 60 Z M 124.039062 60 "/>
<path style=" stroke:none;fill-rule:nonzero;fill:rgb(0%,0%,0%);fill-opacity:1;" d="M 124.039062 20 L 124.039062 0 L 144.039062 0 L 144.039062 20 Z M 124.039062 20 "/>
<path style=" stroke:none;fill-rule:nonzero;fill:rgb(0%,0%,0%);fill-opacity:1;" d="M 160.039062 220 L 160.039062 200 L 180.039062 200 L 180.039062 220 Z M 160.039062 220 "/>
<path style=" stroke:none;fill-rule:nonzero;fill:rgb(0%,0%,0%);fill-opacity:1;" d="M 160.039062 180 L 160.039062 160 L 180.039062 160 L 180.039062 180 Z M 160.039062 180 "/>
<path style=" stroke:none;fill-rule:nonzero;fill:rgb(0%,0%,0%);fill-opacity:1;" d="M 160.039062 140 L 160.039062 120 L 180.039062 120 L 180.039062 140 Z M 160.039062 140 "/>
<path style=" stroke:none;fill-rule:nonzero;fill:rgb(0%,0%,0%);fill-opacity:1;" d="M 160.039062 100 L 160.039062 80 L 180.039062 80 L 180.039062 100 Z M 160.039062 100 "/>
<path style=" stroke:none;fill-rule:nonzero;fill:rgb(0%,0%,0%);fill-opacity:1;" d="M 160.039062 60 L 160.039062 40 L 180.039062 40 L 180.039062 60 Z M 160.039062 60 "/>
<path style=" stroke:none;fill-rule:nonzero;fill:rgb(0%,0%,0%);fill-opacity:1;" d="M 160.039062 20 L 160.039062 0 L 180.039062 0 L 180.039062 20 Z M 160.039062 20 "/>
<path style=" stroke:none;fill-rule:nonzero;fill:rgb(0%,0%,0%);fill-opacity:1;" d="M 196.039062 220 L 196.039062 200 L 216.039062 200 L 216.039062 220 Z M 196.039062 220 "/>
<path style=" stroke:none;fill-rule:nonzero;fill:rgb(0%,0%,0%);fill-opacity:1;" d="M 196.039062 180 L 196.039062 160 L 216.039062 160 L 216.039062 180 Z M 196.039062 180 "/>
<path style=" stroke:none;fill-rule:nonzero;fill:rgb(0%,0%,0%);fill-opacity:1;" d="M 196.039062 140 L 196.039062 120 L 216.039062 120 L 216.039062 140 Z M 196.039062 140 "/>
<path style=" stroke:none;fill-rule:nonzero;fill:rgb(0%,0%,0%);fill-opacity:1;" d="M 196.039062 100 L 196.039062 80 L 216.039062 80 L 216.039062 100 Z M 196.039062 100 "/>
<path style=" stroke:none;fill-rule:nonzero;fill:rgb(0%,0%,0%);fill-opacity:1;" d="M 196.039062 60 L 196.039062 40 L 216.039062 40 L 216.039062 60 Z M 196.039062 60 "/>
<path style=" stroke:none;fill-rule:nonzero;fill:rgb(0%,0%,0%);fill-opacity:1;" d="M 196.039062 20 L 196.039062 0 L 216.039062 0 L 216.039062 20 Z M 196.039062 20 "/>
<path style=" stroke:none;fill-rule:nonzero;fill:rgb(0%,0%,0%);fill-opacity:1;" d="M 232.039062 220 L 232.039062 200 L 252.039062 200 L 252.039062 220 Z M 232.039062 220 "/>
<path style=" stroke:none;fill-rule:nonzero;fill:rgb(0%,0%,0%);fill-opacity:1;" d="M 232.039062 180 L 232.039062 160 L 252.039062 160 L 252.039062 180 Z M 232.039062 180 "/>
<path style=" stroke:none;fill-rule:nonzero;fill:rgb(0%,0%,0%);fill-opacity:1;" d="M 232.039062 140 L 232.039062 120 L 252.039062 120 L 252.039062 140 Z M 232.039062 140 "/>
<path style=" stroke:none;fill-rule:nonzero;fill:rgb(0%,0%,0%);fill-opacity:1;" d="M 232.039062 100 L 232.039062 80 L 252.039062 80 L 252.039062 100 Z M 232.039062 100 "/>
<path style=" stroke:none;fill-rule:nonzero;fill:rgb(0%,0%,0%);fill-opacity:1;" d="M 232.039062 60 L 232.039062 40 L 252.039062 40 L 252.039062 60 Z M 232.039062 60 "/>
<path style=" stroke:none;fill-rule:nonzero;fill:rgb(0%,0%,0%);fill-opacity:1;" d="M 232.039062 20 L 232.039062 0 L 252.039062 0 L 252.039062 20 Z M 232.039062 20 "/>
<path style=" stroke:none;fill-rule:nonzero;fill:rgb(0%,0%,0%);fill-opacity:1;" d="M 268.039062 220 L 268.039062 200 L 288.039062 200 L 288.039062 220 Z M 268.039062 220 "/>
<path style=" stroke:none;fill-rule:nonzero;fill:rgb(0%,0%,0%);fill-opacity:1;" d="M 268.039062 180 L 268.039062 160 L 288.039062 160 L 288.039062 180 Z M 268.039062 180 "/>
<path style=" stroke:none;fill-rule:nonzero;fill:rgb(0%,0%,0%);fill-opacity:1;" d="M 268.039062 140 L 268.039062 120 L 288.039062 120 L 288.039062 140 Z M 268.039062 140 "/>
<path style=" stroke:none;fill-rule:nonzero;fill:rgb(0%,0%,0%);fill-opacity:1;" d="M 268.039062 100 L 268.039062 80 L 288.039062 80 L 288.039062 100 Z M 268.039062 100 "/>
<path style=" stroke:none;fill-rule:nonzero;fill:rgb(0%,0%,0%);fill-opacity:1;" d="M 268.039062 60 L 268.039062 40 L 288.039062 40 L 288.039062 60 Z M 268.039062 60 "/>
<path style=" stroke:none;fill-rule:nonzero;fill:rgb(0%,0%,0%);fill-opacity:1;" d="M 268.039062 20 L 268.039062 0 L 288.039062 0 L 288.039062 20 Z M 268.039062 20 "/>
<path style=" stroke:none;fill-rule:nonzero;fill:rgb(0%,0%,0%);fill-opacity:1;" d="M 304.039062 220 L 304.039062 200 L 324.039062 200 L 324.039062 220 Z M 304.039062 220 "/>
<path style=" stroke:none;fill-rule:nonzero;fill:rgb(0%,0%,0%);fill-opacity:1;" d="M 304.039062 180 L 304.039062 160 L 324.039062 160 L 324.039062 180 Z M 304.039062 180 "/>
<path style=" stroke:none;fill-rule:nonzero;fill:rgb(0%,0%,0%);fill-opacity:1;" d="M 304.039062 140 L 304.039062 120 L 324.039062 120 L 324.039062 140 Z M 304.039062 140 "/>
<path style=" stroke:none;fill-rule:nonzero;fill:rgb(0%,0%,0%);fill-opacity:1;" d="M 304.039062 100 L 304.039062 80 L 324.039062 80 L 324.039062 100 Z M 304.039062 100 "/>
<path style=" stroke:none;fill-rule:nonzero;fill:rgb(0%,0%,0%);fill-opacity:1;" d="M 304.039062 60 L 304.039062 40 L 324.039062 40 L 324.039062 60 Z M 304.039062 60 "/>
<path style=" stroke:none;fill-rule:nonzero;fill:rgb(0%,0%,0%);fill-opacity:1;" d="M 304.039062 20 L 304.039062 0 L 324.039062 0 L 324.039062 20 Z M 304.039062 20 "/>
<path style=" stroke:none;fill-rule:nonzero;fill:rgb(0%,0%,0%);fill-opacity:1;" d="M 340.039062 220 L 340.039062 200 L 360.039062 200 L 360.039062 220 Z M 340.039062 220 "/>
<path style=" stroke:none;fill-rule:nonzero;fill:rgb(0%,0%,0%);fill-opacity:1;" d="M 340.039062 180 L 340.039062 160 L 360.039062 160 L 360.039062 180 Z M 340.039062 180 "/>
<path style=" stroke:none;fill-rule:nonzero;fill:rgb(0%,0%,0%);fill-opacity:1;" d="M 340.039062 140 L 340.039062 120 L 360.039062 120 L 360.039062 140 Z M 340.039062 140 "/>
<path style=" stroke:none;fill-rule:nonzero;fill:rgb(0%,0%,0%);fill-opacity:1;" d="M 340.039062 100 L 340.039062 80 L 360.039062 80 L 360.039062 100 Z M 340.039062 100 "/>
<path style=" stroke:none;fill-rule:nonzero;fill:rgb(0%,0%,0%);fill-opacity:1;" d="M 340.039062 60 L 340.039062 40 L 360.039062 40 L 360.039062 60 Z M 340.039062 60 "/>
<path style=" stroke:none;fill-rule:nonzero;fill:rgb(0%,0%,0%);fill-opacity:1;" d="M 340.039062 20 L 340.039062 0 L 360.039062 0 L 360.039062 20 Z M 340.039062 20 "/>
<path style=" stroke:none;fill-rule:nonzero;fill:rgb(0%,0%,0%);fill-opacity:1;" d="M 376.039062 220 L 376.039062 200 L 396.039062 200 L 396.039062 220 Z M 376.039062 220 "/>
<path style=" stroke:none;fill-rule:nonzero;fill:rgb(0%,0%,0%);fill-opacity:1;" d="M 376.039062 180 L 376.039062 160 L 396.039062 160 L 396.039062 180 Z M 376.039062 180 "/>
<path style=" stroke:none;fill-rule:nonzero;fill:rgb(0%,0%,0%);fill-opacity:1;" d="M 376.039062 140 L 376.039062 120 L 396.039062 120 L 396.039062 140 Z M 376.039062 140 "/>
<path style=" stroke:none;fill-rule:nonzero;fill:rgb(0%,0%,0%);fill-opacity:1;" d="M 376.039062 100 L 376.039062 80 L 396.039062 80 L 396.039062 100 Z M 376.039062 100 "/>
<path style=" stroke:none;fill-rule:nonzero;fill:rgb(0%,0%,0%);fill-opacity:1;" d="M 376.039062 60 L 376.039062 40 L 396.039062 40 L 396.039062 60 Z M 376.039062 60 "/>
<path style=" stroke:none;fill-rule:nonzero;fill:rgb(0%,0%,0%);fill-opacity:1;" d="M 376.039062 20 L 376.039062 0 L 396.039062 0 L 396.039062 20 Z M 376.039062 20 "/>
<path style=" stroke:none;fill-rule:nonzero;fill:rgb(0%,0%,0%);fill-opacity:1;" d="M 14.746094 200 L 14.746094 180 L 34.746094 180 L 34.746094 200 Z M 14.746094 200 "/>
<path style=" stroke:none;fill-rule:nonzero;fill:rgb(0%,0%,0%);fill-opacity:1;" d="M 14.746094 160 L 14.746094 140 L 34.746094 140 L 34.746094 160 Z M 14.746094 160 "/>
<path style=" stroke:none;fill-rule:nonzero;fill:rgb(0%,0%,0%);fill-opacity:1;" d="M 14.746094 120 L 14.746094 100 L 34.746094 100 L 34.746094 120 Z M 14.746094 120 "/>
<path style=" stroke:none;fill-rule:nonzero;fill:rgb(0%,0%,0%);fill-opacity:1;" d="M 14.746094 80 L 14.746094 60 L 34.746094 60 L 34.746094 80 Z M 14.746094 80 "/>
<path style=" stroke:none;fill-rule:nonzero;fill:rgb(0%,0%,0%);fill-opacity:1;" d="M 14.746094 40 L 14.746094 20 L 34.746094 20 L 34.746094 40 Z M 14.746094 40 "/>
<path style=" stroke:none;fill-rule:nonzero;fill:rgb(0%,0%,0%);fill-opacity:1;" d="M 50.746094 200 L 50.746094 180 L 70.746094 180 L 70.746094 200 Z M 50.746094 200 "/>
<path style=" stroke:none;fill-rule:nonzero;fill:rgb(0%,0%,0%);fill-opacity:1;" d="M 50.746094 160 L 50.746094 140 L 70.746094 140 L 70.746094 160 Z M 50.746094 160 "/>
<path style=" stroke:none;fill-rule:nonzero;fill:rgb(0%,0%,0%);fill-opacity:1;" d="M 50.746094 120 L 50.746094 100 L 70.746094 100 L 70.746094 120 Z M 50.746094 120 "/>
<path style=" stroke:none;fill-rule:nonzero;fill:rgb(0%,0%,0%);fill-opacity:1;" d="M 50.746094 80 L 50.746094 60 L 70.746094 60 L 70.746094 80 Z M 50.746094 80 "/>
<path style=" stroke:none;fill-rule:nonzero;fill:rgb(0%,0%,0%);fill-opacity:1;" d="M 50.746094 40 L 50.746094 20 L 70.746094 20 L 70.746094 40 Z M 50.746094 40 "/>
<path style=" stroke:none;fill-rule:nonzero;fill:rgb(0%,0%,0%);fill-opacity:1;" d="M 86.746094 200 L 86.746094 180 L 106.746094 180 L 106.746094 200 Z M 86.746094 200 "/>
<path style=" stroke:none;fill-rule:nonzero;fill:rgb(0%,0%,0%);fill-opacity:1;" d="M 86.746094 160 L 86.746094 140 L 106.746094 140 L 106.746094 160 Z M 86.746094 160 "/>
<path style=" stroke:none;fill-rule:nonzero;fill:rgb(0%,0%,0%);fill-opacity:1;" d="M 86.746094 120 L 86.746094 100 L 106.746094 100 L 106.746094 120 Z M 86.746094 120 "/>
<path style=" stroke:none;fill-rule:nonzero;fill:rgb(0%,0%,0%);fill-opacity:1;" d="M 86.746094 80 L 86.746094 60 L 106.746094 60 L 106.746094 80 Z M 86.746094 80 "/>
<path style=" stroke:none;fill-rule:nonzero;fill:rgb(0%,0%,0%);fill-opacity:1;" d="M 86.746094 40 L 86.746094 20 L 106.746094 20 L 106.746094 40 Z M 86.746094 40 "/>
<path style=" stroke:none;fill-rule:nonzero;fill:rgb(0%,0%,0%);fill-opacity:1;" d="M 122.746094 200 L 122.746094 180 L 142.746094 180 L 142.746094 200 Z M 122.746094 200 "/>
<path style=" stroke:none;fill-rule:nonzero;fill:rgb(0%,0%,0%);fill-opacity:1;" d="M 122.746094 160 L 122.746094 140 L 142.746094 140 L 142.746094 160 Z M 122.746094 160 "/>
<path style=" stroke:none;fill-rule:nonzero;fill:rgb(0%,0%,0%);fill-opacity:1;" d="M 122.746094 120 L 122.746094 100 L 142.746094 100 L 142.746094 120 Z M 122.746094 120 "/>
<path style=" stroke:none;fill-rule:nonzero;fill:rgb(0%,0%,0%);fill-opacity:1;" d="M 122.746094 80 L 122.746094 60 L 142.746094 60 L 142.746094 80 Z M 122.746094 80 "/>
<path style=" stroke:none;fill-rule:nonzero;fill:rgb(0%,0%,0%);fill-opacity:1;" d="M 122.746094 40 L 122.746094 20 L 142.746094 20 L 142.746094 40 Z M 122.746094 40 "/>
<path style=" stroke:none;fill-rule:nonzero;fill:rgb(0%,0%,0%);fill-opacity:1;" d="M 158.746094 200 L 158.746094 180 L 178.746094 180 L 178.746094 200 Z M 158.746094 200 "/>
<path style=" stroke:none;fill-rule:nonzero;fill:rgb(0%,0%,0%);fill-opacity:1;" d="M 158.746094 160 L 158.746094 140 L 178.746094 140 L 178.746094 160 Z M 158.746094 160 "/>
<path style=" stroke:none;fill-rule:nonzero;fill:rgb(0%,0%,0%);fill-opacity:1;" d="M 158.746094 120 L 158.746094 100 L 178.746094 100 L 178.746094 120 Z M 158.746094 120 "/>
<path style=" stroke:none;fill-rule:nonzero;fill:rgb(0%,0%,0%);fill-opacity:1;" d="M 158.746094 80 L 158.746094 60 L 178.746094 60 L 178.746094 80 Z M 158.746094 80 "/>
<path style=" stroke:none;fill-rule:nonzero;fill:rgb(0%,0%,0%);fill-opacity:1;" d="M 158.746094 40 L 158.746094 20 L 178.746094 20 L 178.746094 40 Z M 158.746094 40 "/>
<path style=" stroke:none;fill-rule:nonzero;fill:rgb(0%,0%,0%);fill-opacity:1;" d="M 194.746094 200 L 194.746094 180 L 214.746094 180 L 214.746094 200 Z M 194.746094 200 "/>
<path style=" stroke:none;fill-rule:nonzero;fill:rgb(0%,0%,0%);fill-opacity:1;" d="M 194.746094 160 L 194.746094 140 L 214.746094 140 L 214.746094 160 Z M 194.746094 160 "/>
<path style=" stroke:none;fill-rule:nonzero;fill:rgb(0%,0%,0%);fill-opacity:1;" d="M 194.746094 120 L 194.746094 100 L 214.746094 100 L 214.746094 120 Z M 194.746094 120 "/>
<path style=" stroke:none;fill-rule:nonzero;fill:rgb(0%,0%,0%);fill-opacity:1;" d="M 194.746094 80 L 194.746094 60 L 214.746094 60 L 214.746094 80 Z M 194.746094 80 "/>
<path style=" stroke:none;fill-rule:nonzero;fill:rgb(0%,0%,0%);fill-opacity:1;" d="M 194.746094 40 L 194.746094 20 L 214.746094 20 L 214.746094 40 Z M 194.746094 40 "/>
<path style=" stroke:none;fill-rule:nonzero;fill:rgb(0%,0%,0%);fill-opacity:1;" d="M 230.746094 200 L 230.746094 180 L 250.746094 180 L 250.746094 200 Z M 230.746094 200 "/>
<path style=" stroke:none;fill-rule:nonzero;fill:rgb(0%,0%,0%);fill-opacity:1;" d="M 230.746094 160 L 230.746094 140 L 250.746094 140 L 250.746094 160 Z M 230.746094 160 "/>
<path style=" stroke:none;fill-rule:nonzero;fill:rgb(0%,0%,0%);fill-opacity:1;" d="M 230.746094 120 L 230.746094 100 L 250.746094 100 L 250.746094 120 Z M 230.746094 120 "/>
<path style=" stroke:none;fill-rule:nonzero;fill:rgb(0%,0%,0%);fill-opacity:1;" d="M 230.746094 80 L 230.746094 60 L 250.746094 60 L 250.746094 80 Z M 230.746094 80 "/>
<path style=" stroke:none;fill-rule:nonzero;fill:rgb(0%,0%,0%);fill-opacity:1;" d="M 230.746094 40 L 230.746094 20 L 250.746094 20 L 250.746094 40 Z M 230.746094 40 "/>
<path style=" stroke:none;fill-rule:nonzero;fill:rgb(0%,0%,0%);fill-opacity:1;" d="M 266.746094 200 L 266.746094 180 L 286.746094 180 L 286.746094 200 Z M 266.746094 200 "/>
<path style=" stroke:none;fill-rule:nonzero;fill:rgb(0%,0%,0%);fill-opacity:1;" d="M 266.746094 160 L 266.746094 140 L 286.746094 140 L 286.746094 160 Z M 266.746094 160 "/>
<path style=" stroke:none;fill-rule:nonzero;fill:rgb(0%,0%,0%);fill-opacity:1;" d="M 266.746094 120 L 266.746094 100 L 286.746094 100 L 286.746094 120 Z M 266.746094 120 "/>
<path style=" stroke:none;fill-rule:nonzero;fill:rgb(0%,0%,0%);fill-opacity:1;" d="M 266.746094 80 L 266.746094 60 L 286.746094 60 L 286.746094 80 Z M 266.746094 80 "/>
<path style=" stroke:none;fill-rule:nonzero;fill:rgb(0%,0%,0%);fill-opacity:1;" d="M 266.746094 40 L 266.746094 20 L 286.746094 20 L 286.746094 40 Z M 266.746094 40 "/>
<path style=" stroke:none;fill-rule:nonzero;fill:rgb(0%,0%,0%);fill-opacity:1;" d="M 302.746094 200 L 302.746094 180 L 322.746094 180 L 322.746094 200 Z M 302.746094 200 "/>
<path style=" stroke:none;fill-rule:nonzero;fill:rgb(0%,0%,0%);fill-opacity:1;" d="M 302.746094 160 L 302.746094 140 L 322.746094 140 L 322.746094 160 Z M 302.746094 160 "/>
<path style=" stroke:none;fill-rule:nonzero;fill:rgb(0%,0%,0%);fill-opacity:1;" d="M 302.746094 120 L 302.746094 100 L 322.746094 100 L 322.746094 120 Z M 302.746094 120 "/>
<path style=" stroke:none;fill-rule:nonzero;fill:rgb(0%,0%,0%);fill-opacity:1;" d="M 302.746094 80 L 302.746094 60 L 322.746094 60 L 322.746094 80 Z M 302.746094 80 "/>
<path style=" stroke:none;fill-rule:nonzero;fill:rgb(0%,0%,0%);fill-opacity:1;" d="M 302.746094 40 L 302.746094 20 L 322.746094 20 L 322.746094 40 Z M 302.746094 40 "/>
<path style=" stroke:none;fill-rule:nonzero;fill:rgb(0%,0%,0%);fill-opacity:1;" d="M 338.746094 200 L 338.746094 180 L 358.746094 180 L 358.746094 200 Z M 338.746094 200 "/>
<path style=" stroke:none;fill-rule:nonzero;fill:rgb(0%,0%,0%);fill-opacity:1;" d="M 338.746094 160 L 338.746094 140 L 358.746094 140 L 358.746094 160 Z M 338.746094 160 "/>
<path style=" stroke:none;fill-rule:nonzero;fill:rgb(0%,0%,0%);fill-opacity:1;" d="M 338.746094 120 L 338.746094 100 L 358.746094 100 L 358.746094 120 Z M 338.746094 120 "/>
<path style=" stroke:none;fill-rule:nonzero;fill:rgb(0%,0%,0%);fill-opacity:1;" d="M 338.746094 80 L 338.746094 60 L 358.746094 60 L 358.746094 80 Z M 338.746094 80 "/>
<path style=" stroke:none;fill-rule:nonzero;fill:rgb(0%,0%,0%);fill-opacity:1;" d="M 338.746094 40 L 338.746094 20 L 358.746094 20 L 358.746094 40 Z M 338.746094 40 "/>
<path style=" stroke:none;fill-rule:nonzero;fill:rgb(0%,0%,0%);fill-opacity:1;" d="M 374.746094 200 L 374.746094 180 L 394.746094 180 L 394.746094 200 Z M 374.746094 200 "/>
<path style=" stroke:none;fill-rule:nonzero;fill:rgb(0%,0%,0%);fill-opacity:1;" d="M 374.746094 160 L 374.746094 140 L 394.746094 140 L 394.746094 160 Z M 374.746094 160 "/>
<path style=" stroke:none;fill-rule:nonzero;fill:rgb(0%,0%,0%);fill-opacity:1;" d="M 374.746094 120 L 374.746094 100 L 394.746094 100 L 394.746094 120 Z M 374.746094 120 "/>
<path style=" stroke:none;fill-rule:nonzero;fill:rgb(0%,0%,0%);fill-opacity:1;" d="M 374.746094 80 L 374.746094 60 L 394.746094 60 L 394.746094 80 Z M 374.746094 80 "/>
<path style=" stroke:none;fill-rule:nonzero;fill:rgb(0%,0%,0%);fill-opacity:1;" d="M 374.746094 40 L 374.746094 20 L 394.746094 20 L 394.746094 40 Z M 374.746094 40 "/>
<path style="fill:none;stroke-width:1;stroke-linecap:square;stroke-linejoin:miter;stroke:rgb(100%,0%,0%);stroke-opacity:1;stroke-miterlimit:3.25;" d="M 0 220 L 400 220 "/>
<path style="fill:none;stroke-width:1;stroke-linecap:square;stroke-linejoin:miter;stroke:rgb(100%,0%,0%);stroke-opacity:1;stroke-miterlimit:3.25;" d="M 0 200 L 400 200 "/>
<path style="fill:none;stroke-width:1;stroke-linecap:square;stroke-linejoin:miter;stroke:rgb(100%,0%,0%);stroke-opacity:1;stroke-miterlimit:3.25;" d="M 0 180 L 400 180 "/>
<path style="fill:none;stroke-width:1;stroke-linecap:square;stroke-linejoin:miter;stroke:rgb(100%,0%,0%);stroke-opacity:1;stroke-miterlimit:3.25;" d="M 0 160 L 400 160 "/>
<path style="fill:none;stroke-width:1;stroke-linecap:square;stroke-linejoin:miter;stroke:rgb(100%,0%,0%);stroke-opacity:1;stroke-miterlimit:3.25;" d="M 0 140 L 400 140 "/>
<path style="fill:none;stroke-width:1;stroke-linecap:square;stroke-linejoin:miter;stroke:rgb(100%,0%,0%);stroke-opacity:1;stroke-miterlimit:3.25;" d="M 0 120 L 400 120 "/>
<path style="fill:none;stroke-width:1;stroke-linecap:square;stroke-linejoin:miter;stroke:rgb(100%,0%,0%);stroke-opacity:1;stroke-miterlimit:3.25;" d="M 0 100 L 400 100 "/>
<path style="fill:none;stroke-width:1;stroke-linecap:square;stroke-linejoin:miter;stroke:rgb(100%,0%,0%);stroke-opacity:1;stroke-miterlimit:3.25;" d="M 0 80 L 400 80 "/>
<path style="fill:none;stroke-width:1;stroke-linecap:square;stroke-linejoin:miter;stroke:rgb(100%,0%,0%);stroke-opacity:1;stroke-miterlimit:3.25;" d="M 0 60 L 400 60 "/>
<path style="fill:none;stroke-width:1;stroke-linecap:square;stroke-linejoin:miter;stroke:rgb(100%,0%,0%);stroke-opacity:1;stroke-miterlimit:3.25;" d="M 0 40 L 400 40 "/>
<path style="fill:none;stroke-width:1;stroke-linecap:square;stroke-linejoin:miter;stroke:rgb(100%,0%,0%);stroke-opacity:1;stroke-miterlimit:3.25;" d="M 0 20 L 400 20 "/>
</g>
</svg>
