<?xml version="1.0" encoding="UTF-8"?>
<svg xmlns="http://www.w3.org/2000/svg" xmlns:xlink="http://www.w3.org/1999/xlink" width="400pt" height="220pt" viewBox="0 0 400 220" version="1.1">
<g id="surface911">
<rect x="0" y="0" width="400" height="220" style="fill:rgb(0%,40%,100%);fill-opacity:0.2;stroke:none;"/>
<path style=" stroke:none;fill-rule:nonzero;fill:rgb(0%,0%,0%);fill-opacity:1;" d="M -17.527344 220 L -17.527344 200 L 2.472656 200 L 2.472656 220 Z M -17.527344 220 "/>
<path style=" stroke:none;fill-rule:nonzero;fill:rgb(0%,0%,0%);fill-opacity:1;" d="M -17.527344 180 L -17.527344 160 L 2.472656 160 L 2.472656 180 Z M -17.527344 180 "/>
<path style=" stroke:none;fill-rule:nonzero;fill:rgb(0%,0%,0%);fill-opacity:1;" d="M -17.527344 140 L -17.527344 120 L 2.472656 120 L 2.472656 140 Z M -17.527344 140 "/>
<path style=" stroke:none;fill-rule:nonzero;fill:rgb(0%,0%,0%);fill-opacity:1;" d="M -17.527344 100 L -17.527344 80 L 2.472656 80 L 2.472656 100 Z M -17.527344 100 "/>
<path style=" stroke:none;fill-rule:nonzero;fill:rgb(0%,0%,0%);fill-opacity:1;" d="M -17.527344 60 L -17.527344 40 L 2.472656 40 L 2.472656 60 Z M -17.527344 60 "/>
<path style=" stroke:none;fill-rule:nonzero;fill:rgb(0%,0%,0%);fill-opacity:1;" d="M -17.527344 20 L -17.527344 0 L 2.472656 0 L 2.472656 20 Z M -17.527344 20 "/>
<path style=" stroke:none;fill-rule:nonzero;fill:rgb(0%,0%,0%);fill-opacity:1;" d="M 18.472656 220 L 18.472656 200 L 38.472656 200 L 38.472656 220 Z M 18.472656 220 "/>
<path style=" stroke:none;fill-rule:nonzero;fill:rgb(0%,0%,0%);fill-opacity:1;" d="M 18.472656 180 L 18.472656 160 L 38.472656 160 L 38.472656 180 Z M 18.472656 180 "/>
<path style=" stroke:none;fill-rule:nonzero;fill:rgb(0%,0%,0%);fill-opacity:1;" d="M 18.472656 140 L 18.472656 120 L 38.472656 120 L 38.472656 140 Z M 18.472656 140 "/>
<path style=" stroke:none;fill-rule:nonzero;fill:rgb(0%,0%,0%);fill-opacity:1;" d="M 18.472656 100 L 18.472656 80 L 38.472656 80 L 38.472656 100 Z M 18.472656 100 "/>
<path style=" stroke:none;fill-rule:nonzero;fill:rgb(0%,0%,0%);fill-opacity:1;" d="M 18.472656 60 L 18.472656 40 L 38.472656 40 L 38.472656 60 Z M 18.472656 60 "/>
<path style=" stroke:none;fill-rule:nonzero;fill:rgb(0%,0%,0%);fill-opacity:1;" d="M 18.472656 20 L 18.472656 0 L 38.472656 0 L 38.472656 20 Z M 18.472656 20 "/>
<path style=" stroke:none;fill-rule:nonzero;fill:rgb(0%,0%,0%);fill-opacity:1;" d="M 54.472656 220 L 54.472656 200 L 74.472656 200 L 74.472656 220 Z M 54.472656 220 "/>
<path style=" stroke:none;fill-rule:nonzero;fill:rgb(0%,0%,0%);fill-opacity:1;" d="M 54.472656 180 L 54.472656 160 L 74.472656 160 L 74.472656 180 Z M 54.472656 180 "/>
<path style=" stroke:none;fill-rule:nonzero;fill:rgb(0%,0%,0%);fill-opacity:1;" d="M 54.472656 140 L 54.472656 120 L 74.472656 120 L 74.472656 140 Z M 54.472656 140 "/>
<path style=" stroke:none;fill-rule:nonzero;fill:rgb(0%,0%,0%);fill-opacity:1;" d="M 54.472656 100 L 54.472656 80 L 74.472656 80 L 74.472656 100 Z M 54.472656 100 "/>
<path style=" stroke:none;fill-rule:nonzero;fill:rgb(0%,0%,0%);fill-opacity:1;" d="M 54.472656 60 L 54.472656 40 L 74.472656 40 L 74.472656 60 Z M 54.472656 60 "/>
<path style=" stroke:none;fill-rule:nonzero;fill:rgb(0%,0%,0%);fill-opacity:1;" d="M 54.472656 20 L 54.472656 0 L 74.472656 0 L 74.472656 20 Z M 54.472656 20 "/>
<path style=" stroke:none;fill-rule:nonzero;fill:rgb(0%,0%,0%);fill-opacity:1;" d="M 90.472656 220 L 90.472656 200 L 110.472656 200 L 110.472656 220 Z M 90.472656 220 "/>
<path style=" stroke:none;fill-rule:nonzero;fill:rgb(0%,0%,0%);fill-opacity:1;" d="M 90.472656 180 L 90.472656 160 L 110.472656 160 L 110.472656 180 Z M 90.472656 180 "/>
<path style=" stroke:none;fill-rule:nonzero;fill:rgb(0%,0%,0%);fill-opacity:1;" d="M 90.472656 140 L 90.472656 120 L 110.472656 120 L 110.472656 140 Z M 90.472656 140 "/>
<path style=" stroke:none;fill-rule:nonzero;fill:rgb(0%,0%,0%);fill-opacity:1;" d="M 90.472656 100 L 90.472656 80 L 110.472656 80 L 110.472656 100 Z M 90.472656 100 "/>
<path style=" stroke:none;fill-rule:nonzero;fill:rgb(0%,0%,0%);fill-opacity:1;" d="M 90.472656 60 L 90.472656 40 L 110.472656 40 L 110.472656 60 Z M 90.472656 60 "/>
<path style=" stroke:none;fill-rule:nonzero;fill:rgb(0%,0%,0%);fill-opacity:1;" d="M 90.472656 20 L 90.472656 0 L 110.472656 0 L 110.472656 20 Z M 90.472656 20 "/>
<path style=" stroke:none;fill-rule:nonzero;fill:rgb(0%,0%,0%);fill-opacity:1;" d="M 126.472656 220 L 126.472656 200 L 146.472656 200 L 146.472656 220 Z M 126.472656 220 "/>
<path style=" stroke:none;fill-rule:nonzero;fill:rgb(0%,0%,0%);fill-opacity:1;" d="M 126.472656 180 L 126.472656 160 L 146.472656 160 L 146.472656 180 Z M 126.472656 180 "/>
<path style=" stroke:none;fill-rule:nonzero;fill:rgb(0%,0%,0%);fill-opacity:1;" d="M 126.472656 140 L 126.472656 120 L 146.472656 120 L 146.472656 140 Z M 126.472656 140 "/>
<path style=" stroke:none;fill-rule:nonzero;fill:rgb(0%,0%,0%);fill-opacity:1;" d="M 126.472656 100 L 126.472656 80 L 146.472656 80 L 146.472656 100 Z M 126.472656 100 "/>
<path style=" stroke:none;fill-rule:nonzero;fill:rgb(0%,0%,0%);fill-opacity:1;" d="M 126.472656 60 L 126.472656 40 L 146.472656 40 L 146.472656 60 Z M 126.472656 60 "/>
<path style=" stroke:none;fill-rule:nonzero;fill:rgb(0%,0%,0%);fill-opacity:1;" d="M 126.472656 20 L 126.472656 0 L 146.472656 0 L 146.472656 20 Z M 126.472656 20 "/>
<path style=" stroke:none;fill-rule:nonzero;fill:rgb(0%,0%,0%);fill-opacity:1;" d="M 162.472656 220 L 162.472656 200 L 182.472656 200 L 182.472656 220 Z M 162.472656 220 "/>
<path style=" stroke:none;fill-rule:nonzero;fill:rgb(0%,0%,0%);fill-opacity:1;" d="M 162.472656 180 L 162.472656 160 L 182.472656 160 L 182.472656 180 Z M 162.472656 180 "/>
<path style=" stroke:none;fill-rule:nonzero;fill:rgb(0%,0%,0%);fill-opacity:1;" d="M 162.472656 140 L 162.472656 120 L 182.472656 120 L 182.472656 140 Z M 162.472656 140 "/>
<path style=" stroke:none;fill-rule:nonzero;fill:rgb(0%,0%,0%);fill-opacity:1;" d="M 162.472656 100 L 162.472656 80 L 182.472656 80 L 182.472656 100 Z M 162.472656 100 "/>
<path style=" stroke:none;fill-rule:nonzero;fill:rgb(0%,0%,0%);fill-opacity:1;" d="M 162.472656 60 L 162.472656 40 L 182.472656 40 L 182.472656 60 Z M 162.472656 60 "/>
<path style=" stroke:none;fill-rule:nonzero;fill:rgb(0%,0%,0%);fill-opacity:1;" d="M 162.472656 20 L 162.472656 0 L 182.472656 0 L 182.472656 20 Z M 162.472656 20 "/>
<path style=" stroke:none;fill-rule:nonzero;fill:rgb(0%,0%,0%);fill-opacity:1;" d="M 198.472656 220 L 198.472656 200 L 218.472656 200 L 218.472656 220 Z M 198.472656 220 "/>
<path style=" stroke:none;fill-rule:nonzero;fill:rgb(0%,0%,0%);fill-opacity:1;" d="M 198.472656 180 L 198.472656 160 L 218.472656 160 L 218.472656 180 Z M 198.472656 180 "/>
<path style=" stroke:none;fill-rule:nonzero;fill:rgb(0%,0%,0%);fill-opacity:1;" d="M 198.472656 140 L 198.472656 120 L 218.472656 120 L 218.472656 140 Z M 198.472656 140 "/>
<path style=" stroke:none;fill-rule:nonzero;fill:rgb(0%,0%,0%);fill-opacity:1;" d="M 198.472656 100 L 198.472656 80 L 218.472656 80 L 218.472656 100 Z M 198.472656 100 "/>
<path style=" stroke:none;fill-rule:nonzero;fill:rgb(0%,0%,0%);fill-opacity:1;" d="M 198.472656 60 L 198.472656 40 L 218.472656 40 L 218.472656 60 Z M 198.472656 60 "/>
<path style=" stroke:none;fill-rule:nonzero;fill:rgb(0%,0%,0%);fill-opacity:1;" d="M 198.472656 20 L 198.472656 0 L 218.472656 0 L 218.472656 20 Z M 198.472656 20 "/>
<path style=" stroke:none;fill-rule:nonzero;fill:rgb(0%,0%,0%);fill-opacity:1;" d="M 234.472656 220 L 234.472656 200 L 254.472656 200 L 254.472656 220 Z M 234.472656 220 "/>
<path style=" stroke:none;fill-rule:nonzero;fill:rgb(0%,0%,0%);fill-opacity:1;" d="M 234.472656 180 L 234.472656 160 L 254.472656 160 L 254.472656 180 Z M 234.472656 180 "/>
<path style=" stroke:none;fill-rule:nonzero;fill:rgb(0%,0%,0%);fill-opacity:1;" d="M 234.472656 140 L 234.472656 120 L 254.472656 120 L 254.472656 140 Z M 234.472656 140 "/>
<path style=" stroke:none;fill-rule:nonzero;fill:rgb(0%,0%,0%);fill-opacity:1;" d="M 234.472656 100 L 234.472656 80 L 254.472656 80 L 254.472656 100 Z M 234.472656 100 "/>
<path style=" stroke:none;fill-rule:nonzero;fill:rgb(0%,0%,0%);fill-opacity:1;" d="M 234.472656 60 L 234.472656 40 L 254.472656 40 L 254.472656 60 Z M 234.472656 60 "/>
<path style=" stroke:none;fill-rule:nonzero;fill:rgb(0%,0%,0%);fill-opacity:1;" d="M 234.472656 20 L 234.472656 0 L 254.472656 0 L 254.472656 20 Z M 234.472656 20 "/>
<path style=" stroke:none;fill-rule:nonzero;fill:rgb(0%,0%,0%);fill-opacity:1;" d="M 270.472656 220 L 270.472656 200 L 290.472656 200 L 290.472656 220 Z M 270.472656 220 "/>
<path style=" stroke:none;fill-rule:nonzero;fill:rgb(0%,0%,0%);fill-opacity:1;" d="M 270.472656 180 L 270.472656 160 L 290.472656 160 L 290.472656 180 Z M 270.472656 180 "/>
<path style=" stroke:none;fill-rule:nonzero;fill:rgb(0%,0%,0%);fill-opacity:1;" d="M 270.472656 140 L 270.472656 120 L 290.472656 120 L 290.472656 140 Z M 270.472656 140 "/>
<path style=" stroke:none;fill-rule:nonzero;fill:rgb(0%,0%,0%);fill-opacity:1;" d="M 270.472656 100 L 270.472656 80 L 290.472656 80 L 290.472656 100 Z M 270.472656 100 "/>
<path style=" stroke:none;fill-rule:nonzero;fill:rgb(0%,0%,0%);fill-opacity:1;" d="M 270.472656 60 L 270.472656 40 L 290.472656 40 L 290.472656 60 Z M 270.472656 60 "/>
<path style=" stroke:none;fill-rule:nonzero;fill:rgb(0%,0%,0%);fill-opacity:1;" d="M 270.472656 20 L 270.472656 0 L 290.472656 0 L 290.472656 20 Z M 270.472656 20 "/>
<path style=" stroke:none;fill-rule:nonzero;fill:rgb(0%,0%,0%);fill-opacity:1;" d="M 306.472656 220 L 306.472656 200 L 326.472656 200 L 326.472656 220 Z M 306.472656 220 "/>
<path style=" stroke:none;fill-rule:nonzero;fill:rgb(0%,0%,0%);fill-opacity:1;" d="M 306.472656 180 L 306.472656 160 L 326.472656 160 L 326.472656 180 Z M 306.472656 180 "/>
<path style=" stroke:none;fill-rule:nonzero;fill:rgb(0%,0%,0%);fill-opacity:1;" d="M 306.472656 140 L 306.472656 120 L 326.472656 120 L 326.472656 140 Z M 306.472656 140 "/>
<path style=" stroke:none;fill-rule:nonzero;fill:rgb(0%,0%,0%);fill-opacity:1;" d="M 306.472656 100 L 306.472656 80 L 326.472656 80 L 326.472656 100 Z M 306.472656 100 "/>
<path style=" stroke:none;fill-rule:nonzero;fill:rgb(0%,0%,0%);fill-opacity:1;" d="M 306.472656 60 L 306.472656 40 L 326.472656 40 L 326.472656 60 Z M 306.472656 60 "/>
<path style=" stroke:none;fill-rule:nonzero;fill:rgb(0%,0%,0%);fill-opacity:1;" d="M 306.472656 20 L 306.472656 0 L 326.472656 0 L 326.472656 20 Z M 306.472656 20 "/>
<path style=" stroke:none;fill-rule:nonzero;fill:rgb(0%,0%,0%);fill-opacity:1;" d="M 342.472656 220 L 342.472656 200 L 362.472656 200 L 362.472656 220 Z M 342.472656 220 "/>
<path style=" stroke:none;fill-rule:nonzero;fill:rgb(0%,0%,0%);fill-opacity:1;" d="M 342.472656 180 L 342.472656 160 L 362.472656 160 L 362.472656 180 Z M 342.472656 180 "/>
<path style=" stroke:none;fill-rule:nonzero;fill:rgb(0%,0%,0%);fill-opacity:1;" d="M 342.472656 140 L 342.472656 120 L 362.472656 120 L 362.472656 140 Z M 342.472656 140 "/>
<path style=" stroke:none;fill-rule:nonzero;fill:rgb(0%,0%,0%);fill-opacity:1;" d="M 342.472656 100 L 342.472656 80 L 362.472656 80 L 362.472656 100 Z M 342.472656 100 "/>
<path style=" stroke:none;fill-rule:nonzero;fill:rgb(0%,0%,0%);fill-opacity:1;" d="M 342.472656 60 L 342.472656 40 L 362.472656 40 L 362.472656 60 Z M 342.472656 60 "/>
<path style=" stroke:none;fill-rule:nonzero;fill:rgb(0%,0%,0%);fill-opacity:1;" d="M 342.472656 20 L 342.472656 0 L 362.472656 0 L 362.472656 20 Z M 342.472656 20 "/>
<path style=" stroke:none;fill-rule:nonzero;fill:rgb(0%,0%,0%);fill-opacity:1;" d="M 378.472656 220 L 378.472656 200 L 398.472656 200 L 398.472656 220 Z M 378.472656 220 "/>
<path style=" stroke:none;fill-rule:nonzero;fill:rgb(0%,0%,0%);fill-opacity:1;" d="M 378.472656 180 L 378.472656 160 L 398.472656 160 L 398.472656 180 Z M 378.472656 180 "/>
<path style=" stroke:none;fill-rule:nonzero;fill:rgb(0%,0%,0%);fill-opacity:1;" d="M 378.472656 140 L 378.472656 120 L 398.472656 120 L 398.472656 140 Z M 378.472656 140 "/>
<path style=" stroke:none;fill-rule:nonzero;fill:rgb(0%,0%,0%);fill-opacity:1;" d="M 378.472656 100 L 378.472656 80 L 398.472656 80 L 398.472656 100 Z M 378.472656 100 "/>
<path style=" stroke:none;fill-rule:nonzero;fill:rgb(0%,0%,0%);fill-opacity:1;" d="M 378.472656 60 L 378.472656 40 L 398.472656 40 L 398.472656 60 Z M 378.472656 60 "/>
<path style=" stroke:none;fill-rule:nonzero;fill:rgb(0%,0%,0%);fill-opacity:1;" d="M 378.472656 20 L 378.472656 0 L 398.472656 0 L 398.472656 20 Z M 378.472656 20 "/>
<path style=" stroke:none;fill-rule:nonzero;fill:rgb(0%,0%,0%);fill-opacity:1;" d="M 6.363281 200 L 6.363281 180 L 26.363281 180 L 26.363281 200 Z M 6.363281 200 "/>
<path style=" stroke:none;fill-rule:nonzero;fill:rgb(0%,0%,0%);fill-opacity:1;" d="M 6.363281 160 L 6.363281 140 L 26.363281 140 L 26.363281 160 Z M 6.363281 160 "/>
<path style=" stroke:none;fill-rule:nonzero;fill:rgb(0%,0%,0%);fill-opacity:1;" d="M 6.363281 120 L 6.363281 100 L 26.363281 100 L 26.363281 120 Z M 6.363281 120 "/>
<path style=" stroke:none;fill-rule:nonzero;fill:rgb(0%,0%,0%);fill-opacity:1;" d="M 6.363281 80 L 6.363281 60 L 26.363281 60 L 26.363281 80 Z M 6.363281 80 "/>
<path style=" stroke:none;fill-rule:nonzero;fill:rgb(0%,0%,0%);fill-opacity:1;" d="M 6.363281 40 L 6.363281 20 L 26.363281 20 L 26.363281 40 Z M 6.363281 40 "/>
<path style=" stroke:none;fill-rule:nonzero;fill:rgb(0%,0%,0%);fill-opacity:1;" d="M 42.363281 200 L 42.363281 180 L 62.363281 180 L 62.363281 200 Z M 42.363281 200 "/>
<path style=" stroke:none;fill-rule:nonzero;fill:rgb(0%,0%,0%);fill-opacity:1;" d="M 42.363281 160 L 42.363281 140 L 62.363281 140 L 62.363281 160 Z M 42.363281 160 "/>
<path style=" stroke:none;fill-rule:nonzero;fill:rgb(0%,0%,0%);fill-opacity:1;" d="M 42.363281 120 L 42.363281 100 L 62.363281 100 L 62.363281 120 Z M 42.363281 120 "/>
<path style=" stroke:none;fill-rule:nonzero;fill:rgb(0%,0%,0%);fill-opacity:1;" d="M 42.363281 80 L 42.363281 60 L 62.363281 60 L 62.363281 80 Z M 42.363281 80 "/>
<path style=" stroke:none;fill-rule:nonzero;fill:rgb(0%,0%,0%);fill-opacity:1;" d="M 42.363281 40 L 42.363281 20 L 62.363281 20 L 62.363281 40 Z M 42.363281 40 "/>
<path style=" stroke:none;fill-rule:nonzero;fill:rgb(0%,0%,0%);fill-opacity:1;" d="M 78.363281 200 L 78.363281 180 L 98.363281 180 L 98.363281 200 Z M 78.363281 200 "/>
<path style=" stroke:none;fill-rule:nonzero;fill:rgb(0%,0%,0%);fill-opacity:1;" d="M 78.363281 160 L 78.363281 140 L 98.363281 140 L 98.363281 160 Z M 78.363281 160 "/>
<path style=" stroke:none;fill-rule:nonzero;fill:rgb(0%,0%,0%);fill-opacity:1;" d="M 78.363281 120 L 78.363281 100 L 98.363281 100 L 98.363281 120 Z M 78.363281 120 "/>
<path style=" stroke:none;fill-rule:nonzero;fill:rgb(0%,0%,0%);fill-opacity:1;" d="M 78.363281 80 L 78.363281 60 L 98.363281 60 L 98.363281 80 Z M 78.363281 80 "/>
<path style=" stroke:none;fill-rule:nonzero;fill:rgb(0%,0%,0%);fill-opacity:1;" d="M 78.363281 40 L 78.363281 20 L 98.363281 20 L 98.363281 40 Z M 78.363281 40 "/>
<path style=" stroke:none;fill-rule:nonzero;fill:rgb(0%,0%,0%);fill-opacity:1;" d="M 114.363281 200 L 114.363281 180 L 134.363281 180 L 134.363281 200 Z M 114.363281 200 "/>
<path style=" stroke:none;fill-rule:nonzero;fill:rgb(0%,0%,0%);fill-opacity:1;" d="M 114.363281 160 L 114.363281 140 L 134.363281 140 L 134.363281 160 Z M 114.363281 160 "/>
<path style=" stroke:none;fill-rule:nonzero;fill:rgb(0%,0%,0%);fill-opacity:1;" d="M 114.363281 120 L 114.363281 100 L 134.363281 100 L 134.363281 120 Z M 114.363281 120 "/>
<path style=" stroke:none;fill-rule:nonzero;fill:rgb(0%,0%,0%);fill-opacity:1;" d="M 114.363281 80 L 114.363281 60 L 134.363281 60 L 134.363281 80 Z M 114.363281 80 "/>
<path style=" stroke:none;fill-rule:nonzero;fill:rgb(0%,0%,0%);fill-opacity:1;" d="M 114.363281 40 L 114.363281 20 L 134.363281 20 L 134.363281 40 Z M 114.363281 40 "/>
<path style=" stroke:none;fill-rule:nonzero;fill:rgb(0%,0%,0%);fill-opacity:1;" d="M 150.363281 200 L 150.363281 180 L 170.363281 180 L 170.363281 200 Z M 150.363281 200 "/>
<path style=" stroke:none;fill-rule:nonzero;fill:rgb(0%,0%,0%);fill-opacity:1;" d="M 150.363281 160 L 150.363281 140 L 170.363281 140 L 170.363281 160 Z M 150.363281 160 "/>
<path style=" stroke:none;fill-rule:nonzero;fill:rgb(0%,0%,0%);fill-opacity:1;" d="M 150.363281 120 L 150.363281 100 L 170.363281 100 L 170.363281 120 Z M 150.363281 120 "/>
<path style=" stroke:none;fill-rule:nonzero;fill:rgb(0%,0%,0%);fill-opacity:1;" d="M 150.363281 80 L 150.363281 60 L 170.363281 60 L 170.363281 80 Z M 150.363281 80 "/>
<path style=" stroke:none;fill-rule:nonzero;fill:rgb(0%,0%,0%);fill-opacity:1;" d="M 150.363281 40 L 150.363281 20 L 170.363281 20 L 170.363281 40 Z M 150.363281 40 "/>
<path style=" stroke:none;fill-rule:nonzero;fill:rgb(0%,0%,0%);fill-opacity:1;" d="M 186.363281 200 L 186.363281 180 L 206.363281 180 L 206.363281 200 Z M 186.363281 200 "/>
<path style=" stroke:none;fill-rule:nonzero;fill:rgb(0%,0%,0%);fill-opacity:1;" d="M 186.363281 160 L 186.363281 140 L 206.363281 140 L 206.363281 160 Z M 186.363281 160 "/>
<path style=" stroke:none;fill-rule:nonzero;fill:rgb(0%,0%,0%);fill-opacity:1;" d="M 186.363281 120 L 186.363281 100 L 206.363281 100 L 206.363281 120 Z M 186.363281 120 "/>
<path style=" stroke:none;fill-rule:nonzero;fill:rgb(0%,0%,0%);fill-opacity:1;" d="M 186.363281 80 L 186.363281 60 L 206.363281 60 L 206.363281 80 Z M 186.363281 80 "/>
<path style=" stroke:none;fill-rule:nonzero;fill:rgb(0%,0%,0%);fill-opacity:1;" d="M 186.363281 40 L 186.363281 20 L 206.363281 20 L 206.363281 40 Z M 186.363281 40 "/>
<path style=" stroke:none;fill-rule:nonzero;fill:rgb(0%,0%,0%);fill-opacity:1;" d="M 222.363281 200 L 222.363281 180 L 242.363281 180 L 242.363281 200 Z M 222.363281 200 "/>
<path style=" stroke:none;fill-rule:nonzero;fill:rgb(0%,0%,0%);fill-opacity:1;" d="M 222.363281 160 L 222.363281 140 L 242.363281 140 L 242.363281 160 Z M 222.363281 160 "/>
<path style=" stroke:none;fill-rule:nonzero;fill:rgb(0%,0%,0%);fill-opacity:1;" d="M 222.363281 120 L 222.363281 100 L 242.363281 100 L 242.363281 120 Z M 222.363281 120 "/>
<path style=" stroke:none;fill-rule:nonzero;fill:rgb(0%,0%,0%);fill-opacity:1;" d="M 222.363281 80 L 222.363281 60 L 242.363281 60 L 242.363281 80 Z M 222.363281 80 "/>
<path style=" stroke:none;fill-rule:nonzero;fill:rgb(0%,0%,0%);fill-opacity:1;" d="M 222.363281 40 L 222.363281 20 L 242.363281 20 L 242.363281 40 Z M 222.363281 40 "/>
<path style=" stroke:none;fill-rule:nonzero;fill:rgb(0%,0%,0%);fill-opacity:1;" d="M 258.363281 200 L 258.363281 180 L 278.363281 180 L 278.363281 200 Z M 258.363281 200 "/>
<path style=" stroke:none;fill-rule:nonzero;fill:rgb(0%,0%,0%);fill-opacity:1;" d="M 258.363281 160 L 258.363281 140 L 278.363281 140 L 278.363281 160 Z M 258.363281 160 "/>
<path style=" stroke:none;fill-rule:nonzero;fill:rgb(0%,0%,0%);fill-opacity:1;" d="M 258.363281 120 L 258.363281 100 L 278.363281 100 L 278.363281 120 Z M 258.363281 120 "/>
<path style=" stroke:none;fill-rule:nonzero;fill:rgb(0%,0%,0%);fill-opacity:1;" d="M 258.363281 80 L 258.363281 60 L 278.363281 60 L 278.363281 80 Z M 258.363281 80 "/>
<path style=" stroke:none;fill-rule:nonzero;fill:rgb(0%,0%,0%);fill-opacity:1;" d="M 258.363281 40 L 258.363281 20 L 278.363281 20 L 278.363281 40 Z M 258.363281 40 "/>
<path style=" stroke:none;fill-rule:nonzero;fill:rgb(0%,0%,0%);fill-opacity:1;" d="M 294.363281 200 L 294.363281 180 L 314.363281 180 L 314.363281 200 Z M 294.363281 200 "/>
<path style=" stroke:none;fill-rule:nonzero;fill:rgb(0%,0%,0%);fill-opacity:1;" d="M 294.363281 160 L 294.363281 140 L 314.363281 140 L 314.363281 160 Z M 294.363281 160 "/>
<path style=" stroke:none;fill-rule:nonzero;fill:rgb(0%,0%,0%);fill-opacity:1;" d="M 294.363281 120 L 294.363281 100 L 314.363281 100 L 314.363281 120 Z M 294.363281 120 "/>
<path style=" stroke:none;fill-rule:nonzero;fill:rgb(0%,0%,0%);fill-opacity:1;" d="M 294.363281 80 L 294.363281 60 L 314.363281 60 L 314.363281 80 Z M 294.363281 80 "/>
<path style=" stroke:none;fill-rule:nonzero;fill:rgb(0%,0%,0%);fill-opacity:1;" d="M 294.363281 40 L 294.363281 20 L 314.363281 20 L 314.363281 40 Z M 294.363281 40 "/>
<path style=" stroke:none;fill-rule:nonzero;fill:rgb(0%,0%,0%);fill-opacity:1;" d="M 330.363281 200 L 330.363281 180 L 350.363281 180 L 350.363281 200 Z M 330.363281 200 "/>
<path style=" stroke:none;fill-rule:nonzero;fill:rgb(0%,0%,0%);fill-opacity:1;" d="M 330.363281 160 L 330.363281 140 L 350.363281 140 L 350.363281 160 Z M 330.363281 160 "/>
<path style=" stroke:none;fill-rule:nonzero;fill:rgb(0%,0%,0%);fill-opacity:1;" d="M 330.363281 120 L 330.363281 100 L 350.363281 100 L 350.363281 120 Z M 330.363281 120 "/>
<path style=" stroke:none;fill-rule:nonzero;fill:rgb(0%,0%,0%);fill-opacity:1;" d="M 330.363281 80 L 330.363281 60 L 350.363281 60 L 350.363281 80 Z M 330.363281 80 "/>
<path style=" stroke:none;fill-rule:nonzero;fill:rgb(0%,0%,0%);fill-opacity:1;" d="M 330.363281 40 L 330.363281 20 L 350.363281 20 L 350.363281 40 Z M 330.363281 40 "/>
<path style=" stroke:none;fill-rule:nonzero;fill:rgb(0%,0%,0%);fill-opacity:1;" d="M 366.363281 200 L 366.363281 180 L 386.363281 180 L 386.363281 200 Z M 366.363281 200 "/>
<path style=" stroke:none;fill-rule:nonzero;fill:rgb(0%,0%,0%);fill-opacity:1;" d="M 366.363281 160 L 366.363281 140 L 386.363281 140 L 386.363281 160 Z M 366.363281 160 "/>
<path style=" stroke:none;fill-rule:nonzero;fill:rgb(0%,0%,0%);fill-opacity:1;" d="M 366.363281 120 L 366.363281 100 L 386.363281 100 L 386.363281 120 Z M 366.363281 120 "/>
<path style=" stroke:none;fill-rule:nonzero;fill:rgb(0%,0%,0%);fill-opacity:1;" d="M 366.363281 80 L 366.363281 60 L 386.363281 60 L 386.363281 80 Z M 366.363281 80 "/>
<path style=" stroke:none;fill-rule:nonzero;fill:rgb(0%,0%,0%);fill-opacity:1;" d="M 366.363281 40 L 366.363281 20 L 386.363281 20 L 386.363281 40 Z M 366.363281 40 "/>
<path style="fill:none;stroke-width:1;stroke-linecap:square;stroke-linejoin:miter;stroke:rgb(100%,0%,0%);stroke-opacity:1;stroke-miterlimit:3.25;" d="M 0 220 L 400 220 "/>
<path style="fill:none;stroke-width:1;stroke-linecap:square;stroke-linejoin:miter;stroke:rgb(100%,0%,0%);stroke-opacity:1;stroke-miterlimit:3.25;" d="M 0 200 L 400 200 "/>
<path style="fill:none;stroke-width:1;stroke-linecap:square;stroke-linejoin:miter;stroke:rgb(100%,0%,0%);stroke-opacity:1;stroke-miterlimit:3.25;" d="M 0 180 L 400 180 "/>
<path style="fill:none;stroke-width:1;stroke-linecap:square;stroke-linejoin:miter;stroke:rgb(100%,0%,0%);stroke-opacity:1;stroke-miterlimit:3.25;" d="M 0 160 L 400 160 "/>
<path style="fill:none;stroke-width:1;stroke-linecap:square;stroke-linejoin:miter;stroke:rgb(100%,0%,0%);stroke-opacity:1;stroke-miterlimit:3.25;" d="M 0 140 L 400 140 "/>
<path style="fill:none;stroke-width:1;stroke-linecap:square;stroke-linejoin:miter;stroke:rgb(100%,0%,0%);stroke-opacity:1;stroke-miterlimit:3.25;" d="M 0 120 L 400 120 "/>
<path style="fill:none;stroke-width:1;stroke-linecap:square;stroke-linejoin:miter;stroke:rgb(100%,0%,0%);stroke-opacity:1;stroke-miterlimit:3.25;" d="M 0 100 L 400 100 "/>
<path style="fill:none;stroke-width:1;stroke-linecap:square;stroke-linejoin:miter;stroke:rgb(100%,0%,0%);stroke-opacity:1;stroke-miterlimit:3.25;" d="M 0 80 L 400 80 "/>
<path style="fill:none;stroke-width:1;stroke-linecap:square;stroke-linejoin:miter;stroke:rgb(100%,0%,0%);stroke-opacity:1;stroke-miterlimit:3.25;" d="M 0 60 L 400 60 "/>
<path style="fill:none;stroke-width:1;stroke-linecap:square;stroke-linejoin:miter;stroke:rgb(100%,0%,0%);stroke-opacity:1;stroke-miterlimit:3.25;" d="M 0 40 L 400 40 "/>
<path style="fill:none;stroke-width:1;stroke-linecap:square;stroke-linejoin:miter;stroke:rgb(100%,0%,0%);stroke-opacity:1;stroke-miterlimit:3.25;" d="M 0 20 L 400 20 "/>
</g>
</svg>
