<?xml version="1.0" encoding="UTF-8"?>
<svg xmlns="http://www.w3.org/2000/svg" xmlns:xlink="http://www.w3.org/1999/xlink" width="400pt" height="220pt" viewBox="0 0 400 220" version="1.1">
<g id="surface596">
<rect x="0" y="0" width="400" height="220" style="fill:rgb(0%,40%,100%);fill-opacity:0.2;stroke:none;"/>
<path style=" stroke:none;fill-rule:nonzero;fill:rgb(0%,0%,0%);fill-opacity:1;" d="M 19.019531 220 L 19.019531 200 L 39.019531 200 L 39.019531 220 Z M 19.019531 220 "/>
<path style=" stroke:none;fill-rule:nonzero;fill:rgb(0%,0%,0%);fill-opacity:1;" d="M 19.019531 180 L 19.019531 160 L 39.019531 160 L 39.019531 180 Z M 19.019531 180 "/>
<path style=" stroke:none;fill-rule:nonzero;fill:rgb(0%,0%,0%);fill-opacity:1;" d="M 19.019531 140 L 19.019531 120 L 39.019531 120 L 39.019531 140 Z M 19.019531 140 "/>
<path style=" stroke:none;fill-rule:nonzero;fill:rgb(0%,0%,0%);fill-opacity:1;" d="M 19.019531 100 L 19.019531 80 L 39.019531 80 L 39.019531 100 Z M 19.019531 100 "/>
<path style=" stroke:none;fill-rule:nonzero;fill:rgb(0%,0%,0%);fill-opacity:1;" d="M 19.019531 60 L 19.019531 40 L 39.019531 40 L 39.019531 60 Z M 19.019531 60 "/>
<path style=" stroke:none;fill-rule:nonzero;fill:rgb(0%,0%,0%);fill-opacity:1;" d="M 19.019531 20 L 19.019531 0 L 39.019531 0 L 39.019531 20 Z M 19.019531 20 "/>
<path style=" stroke:none;fill-rule:nonzero;fill:rgb(0%,0%,0%);fill-opacity:1;" d="M 55.019531 220 L 55.019531 200 L 75.019531 200 L 75.019531 220 Z M 55.019531 220 "/>
<path style=" stroke:none;fill-rule:nonzero;fill:rgb(0%,0%,0%);fill-opacity:1;" d="M 55.019531 180 L 55.019531 160 L 75.019531 160 L 75.019531 180 Z M 55.019531 180 "/>
<path style=" stroke:none;fill-rule:nonzero;fill:rgb(0%,0%,0%);fill-opacity:1;" d="M 55.019531 140 L 55.019531 120 L 75.019531 120 L 75.019531 140 Z M 55.019531 140 "/>
<path style=" stroke:none;fill-rule:nonzero;fill:rgb(0%,0%,0%);fill-opacity:1;" d="M 55.019531 100 L 55.019531 80 L 75.019531 80 L 75.019531 100 Z M 55.019531 100 "/>
<path style=" stroke:none;fill-rule:nonzero;fill:rgb(0%,0%,0%);fill-opacity:1;" d="M 55.019531 60 L 55.019531 40 L 75.019531 40 L 75.019531 60 Z M 55.019531 60 "/>
<path style=" stroke:none;fill-rule:nonzero;fill:rgb(0%,0%,0%);fill-opacity:1;" d="M 55.019531 20 L 55.019531 0 L 75.019531 0 L 75.019531 20 Z M 55.019531 20 "/>
<path style=" stroke:none;fill-rule:nonzero;fill:rgb(0%,0%,0%);fill-opacity:1;" d="M 91.019531 220 L 91.019531 200 L 111.019531 200 L 111.019531 220 Z M 91.019531 220 "/>
<path style=" stroke:none;fill-rule:nonzero;fill:rgb(0%,0%,0%);fill-opacity:1;" d="M 91.019531 180 L 91.019531 160 L 111.019531 160 L 111.019531 180 Z M 91.019531 180 "/>
<path style=" stroke:none;fill-rule:nonzero;fill:rgb(0%,0%,0%);fill-opacity:1;" d="M 91.019531 140 L 91.019531 120 L 111.019531 120 L 111.019531 140 Z M 91.019531 140 "/>
<path style=" stroke:none;fill-rule:nonzero;fill:rgb(0%,0%,0%);fill-opacity:1;" d="M 91.019531 100 L 91.019531 80 L 111.019531 80 L 111.019531 100 Z M 91.019531 100 "/>
<path style=" stroke:none;fill-rule:nonzero;fill:rgb(0%,0%,0%);fill-opacity:1;" d="M 91.019531 60 L 91.019531 40 L 111.019531 40 L 111.019531 60 Z M 91.019531 60 "/>
<path style=" stroke:none;fill-rule:nonzero;fill:rgb(0%,0%,0%);fill-opacity:1;" d="M 91.019531 20 L 91.019531 0 L 111.019531 0 L 111.019531 20 Z M 91.019531 20 "/>
<path style=" stroke:none;fill-rule:nonzero;fill:rgb(0%,0%,0%);fill-opacity:1;" d="M 127.019531 220 L 127.019531 200 L 147.019531 200 L 147.019531 220 Z M 127.019531 220 "/>
<path style=" stroke:none;fill-rule:nonzero;fill:rgb(0%,0%,0%);fill-opacity:1;" d="M 127.019531 180 L 127.019531 160 L 147.019531 160 L 147.019531 180 Z M 127.019531 180 "/>
<path style=" stroke:none;fill-rule:nonzero;fill:rgb(0%,0%,0%);fill-opacity:1;" d="M 127.019531 140 L 127.019531 120 L 147.019531 120 L 147.019531 140 Z M 127.019531 140 "/>
<path style=" stroke:none;fill-rule:nonzero;fill:rgb(0%,0%,0%);fill-opacity:1;" d="M 127.019531 100 L 127.019531 80 L 147.019531 80 L 147.019531 100 Z M 127.019531 100 "/>
<path style=" stroke:none;fill-rule:nonzero;fill:rgb(0%,0%,0%);fill-opacity:1;" d="M 127.019531 60 L 127.019531 40 L 147.019531 40 L 147.019531 60 Z M 127.019531 60 "/>
<path style=" stroke:none;fill-rule:nonzero;fill:rgb(0%,0%,0%);fill-opacity:1;" d="M 127.019531 20 L 127.019531 0 L 147.019531 0 L 147.019531 20 Z M 127.019531 20 "/>
<path style=" stroke:none;fill-rule:nonzero;fill:rgb(0%,0%,0%);fill-opacity:1;" d="M 163.019531 220 L 163.019531 200 L 183.019531 200 L 183.019531 220 Z M 163.019531 220 "/>
<path style=" stroke:none;fill-rule:nonzero;fill:rgb(0%,0%,0%);fill-opacity:1;" d="M 163.019531 180 L 163.019531 160 L 183.019531 160 L 183.019531 180 Z M 163.019531 180 "/>
<path style=" stroke:none;fill-rule:nonzero;fill:rgb(0%,0%,0%);fill-opacity:1;" d="M 163.019531 140 L 163.019531 120 L 183.019531 120 L 183.019531 140 Z M 163.019531 140 "/>
<path style=" stroke:none;fill-rule:nonzero;fill:rgb(0%,0%,0%);fill-opacity:1;" d="M 163.019531 100 L 163.019531 80 L 183.019531 80 L 183.019531 100 Z M 163.019531 100 "/>
<path style=" stroke:none;fill-rule:nonzero;fill:rgb(0%,0%,0%);fill-opacity:1;" d="M 163.019531 60 L 163.019531 40 L 183.019531 40 L 183.019531 60 Z M 163.019531 60 "/>
<path style=" stroke:none;fill-rule:nonzero;fill:rgb(0%,0%,0%);fill-opacity:1;" d="M 163.019531 20 L 163.019531 0 L 183.019531 0 L 183.019531 20 Z M 163.019531 20 "/>
<path style=" stroke:none;fill-rule:nonzero;fill:rgb(0%,0%,0%);fill-opacity:1;" d="M 199.019531 220 L 199.019531 200 L 219.019531 200 L 219.019531 220 Z M 199.019531 220 "/>
<path style=" stroke:none;fill-rule:nonzero;fill:rgb(0%,0%,0%);fill-opacity:1;" d="M 199.019531 180 L 199.019531 160 L 219.019531 160 L 219.019531 180 Z M 199.019531 180 "/>
<path style=" stroke:none;fill-rule:nonzero;fill:rgb(0%,0%,0%);fill-opacity:1;" d="M 199.019531 140 L 199.019531 120 L 219.019531 120 L 219.019531 140 Z M 199.019531 140 "/>
<path style=" stroke:none;fill-rule:nonzero;fill:rgb(0%,0%,0%);fill-opacity:1;" d="M 199.019531 100 L 199.019531 80 L 219.019531 80 L 219.019531 100 Z M 199.019531 100 "/>
<path style=" stroke:none;fill-rule:nonzero;fill:rgb(0%,0%,0%);fill-opacity:1;" d="M 199.019531 60 L 199.019531 40 L 219.019531 40 L 219.019531 60 Z M 199.019531 60 "/>
<path style=" stroke:none;fill-rule:nonzero;fill:rgb(0%,0%,0%);fill-opacity:1;" d="M 199.019531 20 L 199.019531 0 L 219.019531 0 L 219.019531 20 Z M 199.019531 20 "/>
<path style=" stroke:none;fill-rule:nonzero;fill:rgb(0%,0%,0%);fill-opacity:1;" d="M 235.019531 220 L 235.019531 200 L 255.019531 200 L 255.019531 220 Z M 235.019531 220 "/>
<path style=" stroke:none;fill-rule:nonzero;fill:rgb(0%,0%,0%);fill-opacity:1;" d="M 235.019531 180 L 235.019531 160 L 255.019531 160 L 255.019531 180 Z M 235.019531 180 "/>
<path style=" stroke:none;fill-rule:nonzero;fill:rgb(0%,0%,0%);fill-opacity:1;" d="M 235.019531 140 L 235.019531 120 L 255.019531 120 L 255.019531 140 Z M 235.019531 140 "/>
<path style=" stroke:none;fill-rule:nonzero;fill:rgb(0%,0%,0%);fill-opacity:1;" d="M 235.019531 100 L 235.019531 80 L 255.019531 80 L 255.019531 100 Z M 235.019531 100 "/>
<path style=" stroke:none;fill-rule:nonzero;fill:rgb(0%,0%,0%);fill-opacity:1;" d="M 235.019531 60 L 235.019531 40 L 255.019531 40 L 255.019531 60 Z M 235.019531 60 "/>
<path style=" stroke:none;fill-rule:nonzero;fill:rgb(0%,0%,0%);fill-opacity:1;" d="M 235.019531 20 L 235.019531 0 L 255.019531 0 L 255.019531 20 Z M 235.019531 20 "/>
<path style=" stroke:none;fill-rule:nonzero;fill:rgb(0%,0%,0%);fill-opacity:1;" d="M 271.019531 220 L 271.019531 200 L 291.019531 200 L 291.019531 220 Z M 271.019531 220 "/>
<path style=" stroke:none;fill-rule:nonzero;fill:rgb(0%,0%,0%);fill-opacity:1;" d="M 271.019531 180 L 271.019531 160 L 291.019531 160 L 291.019531 180 Z M 271.019531 180 "/>
<path style=" stroke:none;fill-rule:nonzero;fill:rgb(0%,0%,0%);fill-opacity:1;" d="M 271.019531 140 L 271.019531 120 L 291.019531 120 L 291.019531 140 Z M 271.019531 140 "/>
<path style=" stroke:none;fill-rule:nonzero;fill:rgb(0%,0%,0%);fill-opacity:1;" d="M 271.019531 100 L 271.019531 80 L 291.019531 80 L 291.019531 100 Z M 271.019531 100 "/>
<path style=" stroke:none;fill-rule:nonzero;fill:rgb(0%,0%,0%);fill-opacity:1;" d="M 271.019531 60 L 271.019531 40 L 291.019531 40 L 291.019531 60 Z M 271.019531 60 "/>
<path style=" stroke:none;fill-rule:nonzero;fill:rgb(0%,0%,0%);fill-opacity:1;" d="M 271.019531 20 L 271.019531 0 L 291.019531 0 L 291.019531 20 Z M 271.019531 20 "/>
<path style=" stroke:none;fill-rule:nonzero;fill:rgb(0%,0%,0%);fill-opacity:1;" d="M 307.019531 220 L 307.019531 200 L 327.019531 200 L 327.019531 220 Z M 307.019531 220 "/>
<path style=" stroke:none;fill-rule:nonzero;fill:rgb(0%,0%,0%);fill-opacity:1;" d="M 307.019531 180 L 307.019531 160 L 327.019531 160 L 327.019531 180 Z M 307.019531 180 "/>
<path style=" stroke:none;fill-rule:nonzero;fill:rgb(0%,0%,0%);fill-opacity:1;" d="M 307.019531 140 L 307.019531 120 L 327.019531 120 L 327.019531 140 Z M 307.019531 140 "/>
<path style=" stroke:none;fill-rule:nonzero;fill:rgb(0%,0%,0%);fill-opacity:1;" d="M 307.019531 100 L 307.019531 80 L 327.019531 80 L 327.019531 100 Z M 307.019531 100 "/>
<path style=" stroke:none;fill-rule:nonzero;fill:rgb(0%,0%,0%);fill-opacity:1;" d="M 307.019531 60 L 307.019531 40 L 327.019531 40 L 327.019531 60 Z M 307.019531 60 "/>
<path style=" stroke:none;fill-rule:nonzero;fill:rgb(0%,0%,0%);fill-opacity:1;" d="M 307.019531 20 L 307.019531 0 L 327.019531 0 L 327.019531 20 Z M 307.019531 20 "/>
<path style=" stroke:none;fill-rule:nonzero;fill:rgb(0%,0%,0%);fill-opacity:1;" d="M 343.019531 220 L 343.019531 200 L 363.019531 200 L 363.019531 220 Z M 343.019531 220 "/>
<path style=" stroke:none;fill-rule:nonzero;fill:rgb(0%,0%,0%);fill-opacity:1;" d="M 343.019531 180 L 343.019531 160 L 363.019531 160 L 363.019531 180 Z M 343.019531 180 "/>
<path style=" stroke:none;fill-rule:nonzero;fill:rgb(0%,0%,0%);fill-opacity:1;" d="M 343.019531 140 L 343.019531 120 L 363.019531 120 L 363.019531 140 Z M 343.019531 140 "/>
<path style=" stroke:none;fill-rule:nonzero;fill:rgb(0%,0%,0%);fill-opacity:1;" d="M 343.019531 100 L 343.019531 80 L 363.019531 80 L 363.019531 100 Z M 343.019531 100 "/>
<path style=" stroke:none;fill-rule:nonzero;fill:rgb(0%,0%,0%);fill-opacity:1;" d="M 343.019531 60 L 343.019531 40 L 363.019531 40 L 363.019531 60 Z M 343.019531 60 "/>
<path style=" stroke:none;fill-rule:nonzero;fill:rgb(0%,0%,0%);fill-opacity:1;" d="M 343.019531 20 L 343.019531 0 L 363.019531 0 L 363.019531 20 Z M 343.019531 20 "/>
<path style=" stroke:none;fill-rule:nonzero;fill:rgb(0%,0%,0%);fill-opacity:1;" d="M 379.019531 220 L 379.019531 200 L 399.019531 200 L 399.019531 220 Z M 379.019531 220 "/>
<path style=" stroke:none;fill-rule:nonzero;fill:rgb(0%,0%,0%);fill-opacity:1;" d="M 379.019531 180 L 379.019531 160 L 399.019531 160 L 399.019531 180 Z M 379.019531 180 "/>
<path style=" stroke:none;fill-rule:nonzero;fill:rgb(0%,0%,0%);fill-opacity:1;" d="M 379.019531 140 L 379.019531 120 L 399.019531 120 L 399.019531 140 Z M 379.019531 140 "/>
<path style=" stroke:none;fill-rule:nonzero;fill:rgb(0%,0%,0%);fill-opacity:1;" d="M 379.019531 100 L 379.019531 80 L 399.019531 80 L 399.019531 100 Z M 379.019531 100 "/>
<path style=" stroke:none;fill-rule:nonzero;fill:rgb(0%,0%,0%);fill-opacity:1;" d="M 379.019531 60 L 379.019531 40 L 399.019531 40 L 399.019531 60 Z M 379.019531 60 "/>
<path style=" stroke:none;fill-rule:nonzero;fill:rgb(0%,0%,0%);fill-opacity:1;" d="M 379.019531 20 L 379.019531 0 L 399.019531 0 L 399.019531 20 Z M 379.019531 20 "/>
<path style=" stroke:none;fill-rule:nonzero;fill:rgb(0%,0%,0%);fill-opacity:1;" d="M 9.820312 200 L 9.820312 180 L 29.820312 180 L 29.820312 200 Z M 9.820312 200 "/>
<path style=" stroke:none;fill-rule:nonzero;fill:rgb(0%,0%,0%);fill-opacity:1;" d="M 9.820312 160 L 9.820312 140 L 29.820312 140 L 29.820312 160 Z M 9.820312 160 "/>
<path style=" stroke:none;fill-rule:nonzero;fill:rgb(0%,0%,0%);fill-opacity:1;" d="M 9.820312 120 L 9.820312 100 L 29.820312 100 L 29.820312 120 Z M 9.820312 120 "/>
<path style=" stroke:none;fill-rule:nonzero;fill:rgb(0%,0%,0%);fill-opacity:1;" d="M 9.820312 80 L 9.820312 60 L 29.820312 60 L 29.820312 80 Z M 9.820312 80 "/>
<path style=" stroke:none;fill-rule:nonzero;fill:rgb(0%,0%,0%);fill-opacity:1;" d="M 9.820312 40 L 9.820312 20 L 29.820312 20 L 29.820312 40 Z M 9.820312 40 "/>
<path style=" stroke:none;fill-rule:nonzero;fill:rgb(0%,0%,0%);fill-opacity:1;" d="M 45.820312 200 L 45.820312 180 L 65.820312 180 L 65.820312 200 Z M 45.820312 200 "/>
<path style=" stroke:none;fill-rule:nonzero;fill:rgb(0%,0%,0%);fill-opacity:1;" d="M 45.820312 160 L 45.820312 140 L 65.820312 140 L 65.820312 160 Z M 45.820312 160 "/>
<path style=" stroke:none;fill-rule:nonzero;fill:rgb(0%,0%,0%);fill-opacity:1;" d="M 45.820312 120 L 45.820312 100 L 65.820312 100 L 65.820312 120 Z M 45.820312 120 "/>
<path style=" stroke:none;fill-rule:nonzero;fill:rgb(0%,0%,0%);fill-opacity:1;" d="M 45.820312 80 L 45.820312 60 L 65.820312 60 L 65.820312 80 Z M 45.820312 80 "/>
<path style=" stroke:none;fill-rule:nonzero;fill:rgb(0%,0%,0%);fill-opacity:1;" d="M 45.820312 40 L 45.820312 20 L 65.820312 20 L 65.820312 40 Z M 45.820312 40 "/>
<path style=" stroke:none;fill-rule:nonzero;fill:rgb(0%,0%,0%);fill-opacity:1;" d="M 81.820312 200 L 81.820312 180 L 101.820312 180 L 101.820312 200 Z M 81.820312 200 "/>
<path style=" stroke:none;fill-rule:nonzero;fill:rgb(0%,0%,0%);fill-opacity:1;" d="M 81.820312 160 L 81.820312 140 L 101.820312 140 L 101.820312 160 Z M 81.820312 160 "/>
<path style=" stroke:none;fill-rule:nonzero;fill:rgb(0%,0%,0%);fill-opacity:1;" d="M 81.820312 120 L 81.820312 100 L 101.820312 100 L 101.820312 120 Z M 81.820312 120 "/>
<path style=" stroke:none;fill-rule:nonzero;fill:rgb(0%,0%,0%);fill-opacity:1;" d="M 81.820312 80 L 81.820312 60 L 101.820312 60 L 101.820312 80 Z M 81.820312 80 "/>
<path style=" stroke:none;fill-rule:nonzero;fill:rgb(0%,0%,0%);fill-opacity:1;" d="M 81.820312 40 L 81.820312 20 L 101.820312 20 L 101.820312 40 Z M 81.820312 40 "/>
<path style=" stroke:none;fill-rule:nonzero;fill:rgb(0%,0%,0%);fill-opacity:1;" d="M 117.820312 200 L 117.820312 180 L 137.820312 180 L 137.820312 200 Z M 117.820312 200 "/>
<path style=" stroke:none;fill-rule:nonzero;fill:rgb(0%,0%,0%);fill-opacity:1;" d="M 117.820312 160 L 117.820312 140 L 137.820312 140 L 137.820312 160 Z M 117.820312 160 "/>
<path style=" stroke:none;fill-rule:nonzero;fill:rgb(0%,0%,0%);fill-opacity:1;" d="M 117.820312 120 L 117.820312 100 L 137.820312 100 L 137.820312 120 Z M 117.820312 120 "/>
<path style=" stroke:none;fill-rule:nonzero;fill:rgb(0%,0%,0%);fill-opacity:1;" d="M 117.820312 80 L 117.820312 60 L 137.820312 60 L 137.820312 80 Z M 117.820312 80 "/>
<path style=" stroke:none;fill-rule:nonzero;fill:rgb(0%,0%,0%);fill-opacity:1;" d="M 117.820312 40 L 117.820312 20 L 137.820312 20 L 137.820312 40 Z M 117.820312 40 "/>
<path style=" stroke:none;fill-rule:nonzero;fill:rgb(0%,0%,0%);fill-opacity:1;" d="M 153.820312 200 L 153.820312 180 L 173.820312 180 L 173.820312 200 Z M 153.820312 200 "/>
<path style=" stroke:none;fill-rule:nonzero;fill:rgb(0%,0%,0%);fill-opacity:1;" d="M 153.820312 160 L 153.820312 140 L 173.820312 140 L 173.820312 160 Z M 153.820312 160 "/>
<path style=" stroke:none;fill-rule:nonzero;fill:rgb(0%,0%,0%);fill-opacity:1;" d="M 153.820312 120 L 153.820312 100 L 173.820312 100 L 173.820312 120 Z M 153.820312 120 "/>
<path style=" stroke:none;fill-rule:nonzero;fill:rgb(0%,0%,0%);fill-opacity:1;" d="M 153.820312 80 L 153.820312 60 L 173.820312 60 L 173.820312 80 Z M 153.820312 80 "/>
<path style=" stroke:none;fill-rule:nonzero;fill:rgb(0%,0%,0%);fill-opacity:1;" d="M 153.820312 40 L 153.820312 20 L 173.820312 20 L 173.820312 40 Z M 153.820312 40 "/>
<path style=" stroke:none;fill-rule:nonzero;fill:rgb(0%,0%,0%);fill-opacity:1;" d="M 189.820312 200 L 189.820312 180 L 209.820312 180 L 209.820312 200 Z M 189.820312 200 "/>
<path style=" stroke:none;fill-rule:nonzero;fill:rgb(0%,0%,0%);fill-opacity:1;" d="M 189.820312 160 L 189.820312 140 L 209.820312 140 L 209.820312 160 Z M 189.820312 160 "/>
<path style=" stroke:none;fill-rule:nonzero;fill:rgb(0%,0%,0%);fill-opacity:1;" d="M 189.820312 120 L 189.820312 100 L 209.820312 100 L 209.820312 120 Z M 189.820312 120 "/>
<path style=" stroke:none;fill-rule:nonzero;fill:rgb(0%,0%,0%);fill-opacity:1;" d="M 189.820312 80 L 189.820312 60 L 209.820312 60 L 209.820312 80 Z M 189.820312 80 "/>
<path style=" stroke:none;fill-rule:nonzero;fill:rgb(0%,0%,0%);fill-opacity:1;" d="M 189.820312 40 L 189.820312 20 L 209.820312 20 L 209.820312 40 Z M 189.820312 40 "/>
<path style=" stroke:none;fill-rule:nonzero;fill:rgb(0%,0%,0%);fill-opacity:1;" d="M 225.820312 200 L 225.820312 180 L 245.820312 180 L 245.820312 200 Z M 225.820312 200 "/>
<path style=" stroke:none;fill-rule:nonzero;fill:rgb(0%,0%,0%);fill-opacity:1;" d="M 225.820312 160 L 225.820312 140 L 245.820312 140 L 245.820312 160 Z M 225.820312 160 "/>
<path style=" stroke:none;fill-rule:nonzero;fill:rgb(0%,0%,0%);fill-opacity:1;" d="M 225.820312 120 L 225.820312 100 L 245.820312 100 L 245.820312 120 Z M 225.820312 120 "/>
<path style=" stroke:none;fill-rule:nonzero;fill:rgb(0%,0%,0%);fill-opacity:1;" d="M 225.820312 80 L 225.820312 60 L 245.820312 60 L 245.820312 80 Z M 225.820312 80 "/>
<path style=" stroke:none;fill-rule:nonzero;fill:rgb(0%,0%,0%);fill-opacity:1;" d="M 225.820312 40 L 225.820312 20 L 245.820312 20 L 245.820312 40 Z M 225.820312 40 "/>
<path style=" stroke:none;fill-rule:nonzero;fill:rgb(0%,0%,0%);fill-opacity:1;" d="M 261.820312 200 L 261.820312 180 L 281.820312 180 L 281.820312 200 Z M 261.820312 200 "/>
<path style=" stroke:none;fill-rule:nonzero;fill:rgb(0%,0%,0%);fill-opacity:1;" d="M 261.820312 160 L 261.820312 140 L 281.820312 140 L 281.820312 160 Z M 261.820312 160 "/>
<path style=" stroke:none;fill-rule:nonzero;fill:rgb(0%,0%,0%);fill-opacity:1;" d="M 261.820312 120 L 261.820312 100 L 281.820312 100 L 281.820312 120 Z M 261.820312 120 "/>
<path style=" stroke:none;fill-rule:nonzero;fill:rgb(0%,0%,0%);fill-opacity:1;" d="M 261.820312 80 L 261.820312 60 L 281.820312 60 L 281.820312 80 Z M 261.820312 80 "/>
<path style=" stroke:none;fill-rule:nonzero;fill:rgb(0%,0%,0%);fill-opacity:1;" d="M 261.820312 40 L 261.820312 20 L 281.820312 20 L 281.820312 40 Z M 261.820312 40 "/>
<path style=" stroke:none;fill-rule:nonzero;fill:rgb(0%,0%,0%);fill-opacity:1;" d="M 297.820312 200 L 297.820312 180 L 317.820312 180 L 317.820312 200 Z M 297.820312 200 "/>
<path style=" stroke:none;fill-rule:nonzero;fill:rgb(0%,0%,0%);fill-opacity:1;" d="M 297.820312 160 L 297.820312 140 L 317.820312 140 L 317.820312 160 Z M 297.820312 160 "/>
<path style=" stroke:none;fill-rule:nonzero;fill:rgb(0%,0%,0%);fill-opacity:1;" d="M 297.820312 120 L 297.820312 100 L 317.820312 100 L 317.820312 120 Z M 297.820312 120 "/>
<path style=" stroke:none;fill-rule:nonzero;fill:rgb(0%,0%,0%);fill-opacity:1;" d="M 297.820312 80 L 297.820312 60 L 317.820312 60 L 317.820312 80 Z M 297.820312 80 "/>
<path style=" stroke:none;fill-rule:nonzero;fill:rgb(0%,0%,0%);fill-opacity:1;" d="M 297.820312 40 L 297.820312 20 L 317.820312 20 L 317.820312 40 Z M 297.820312 40 "/>
<path style=" stroke:none;fill-rule:nonzero;fill:rgb(0%,0%,0%);fill-opacity:1;" d="M 333.820312 200 L 333.820312 180 L 353.820312 180 L 353.820312 200 Z M 333.820312 200 "/>
<path style=" stroke:none;fill-rule:nonzero;fill:rgb(0%,0%,0%);fill-opacity:1;" d="M 333.820312 160 L 333.820312 140 L 353.820312 140 L 353.820312 160 Z M 333.820312 160 "/>
<path style=" stroke:none;fill-rule:nonzero;fill:rgb(0%,0%,0%);fill-opacity:1;" d="M 333.820312 120 L 333.820312 100 L 353.820312 100 L 353.820312 120 Z M 333.820312 120 "/>
<path style=" stroke:none;fill-rule:nonzero;fill:rgb(0%,0%,0%);fill-opacity:1;" d="M 333.820312 80 L 333.820312 60 L 353.820312 60 L 353.820312 80 Z M 333.820312 80 "/>
<path style=" stroke:none;fill-rule:nonzero;fill:rgb(0%,0%,0%);fill-opacity:1;" d="M 333.820312 40 L 333.820312 20 L 353.820312 20 L 353.820312 40 Z M 333.820312 40 "/>
<path style=" stroke:none;fill-rule:nonzero;fill:rgb(0%,0%,0%);fill-opacity:1;" d="M 369.820312 200 L 369.820312 180 L 389.820312 180 L 389.820312 200 Z M 369.820312 200 "/>
<path style=" stroke:none;fill-rule:nonzero;fill:rgb(0%,0%,0%);fill-opacity:1;" d="M 369.820312 160 L 369.820312 140 L 389.820312 140 L 389.820312 160 Z M 369.820312 160 "/>
<path style=" stroke:none;fill-rule:nonzero;fill:rgb(0%,0%,0%);fill-opacity:1;" d="M 369.820312 120 L 369.820312 100 L 389.820312 100 L 389.820312 120 Z M 369.820312 120 "/>
<path style=" stroke:none;fill-rule:nonzero;fill:rgb(0%,0%,0%);fill-opacity:1;" d="M 369.820312 80 L 369.820312 60 L 389.820312 60 L 389.820312 80 Z M 369.820312 80 "/>
<path style=" stroke:none;fill-rule:nonzero;fill:rgb(0%,0%,0%);fill-opacity:1;" d="M 369.820312 40 L 369.820312 20 L 389.820312 20 L 389.820312 40 Z M 369.820312 40 "/>
<path style="fill:none;stroke-width:1;stroke-linecap:square;stroke-linejoin:miter;stroke:rgb(100%,0%,0%);stroke-opacity:1;stroke-miterlimit:3.25;" d="M 0 220 L 400 220 "/>
<path style="fill:none;stroke-width:1;stroke-linecap:square;stroke-linejoin:miter;stroke:rgb(100%,0%,0%);stroke-opacity:1;stroke-miterlimit:3.25;" d="M 0 200 L 400 200 "/>
<path style="fill:none;stroke-width:1;stroke-linecap:square;stroke-linejoin:miter;stroke:rgb(100%,0%,0%);stroke-opacity:1;stroke-miterlimit:3.25;" d="M 0 180 L 400 180 "/>
<path style="fill:none;stroke-width:1;stroke-linecap:square;stroke-linejoin:miter;stroke:rgb(100%,0%,0%);stroke-opacity:1;stroke-miterlimit:3.25;" d="M 0 160 L 400 160 "/>
<path style="fill:none;stroke-width:1;stroke-linecap:square;stroke-linejoin:miter;stroke:rgb(100%,0%,0%);stroke-opacity:1;stroke-miterlimit:3.25;" d="M 0 140 L 400 140 "/>
<path style="fill:none;stroke-width:1;stroke-linecap:square;stroke-linejoin:miter;stroke:rgb(100%,0%,0%);stroke-opacity:1;stroke-miterlimit:3.25;" d="M 0 120 L 400 120 "/>
<path style="fill:none;stroke-width:1;stroke-linecap:square;stroke-linejoin:miter;stroke:rgb(100%,0%,0%);stroke-opacity:1;stroke-miterlimit:3.25;" d="M 0 100 L 400 100 "/>
<path style="fill:none;stroke-width:1;stroke-linecap:square;stroke-linejoin:miter;stroke:rgb(100%,0%,0%);stroke-opacity:1;stroke-miterlimit:3.25;" d="M 0 80 L 400 80 "/>
<path style="fill:none;stroke-width:1;stroke-linecap:square;stroke-linejoin:miter;stroke:rgb(100%,0%,0%);stroke-opacity:1;stroke-miterlimit:3.25;" d="M 0 60 L 400 60 "/>
<path style="fill:none;stroke-width:1;stroke-linecap:square;stroke-linejoin:miter;stroke:rgb(100%,0%,0%);stroke-opacity:1;stroke-miterlimit:3.25;" d="M 0 40 L 400 40 "/>
<path style="fill:none;stroke-width:1;stroke-linecap:square;stroke-linejoin:miter;stroke:rgb(100%,0%,0%);stroke-opacity:1;stroke-miterlimit:3.25;" d="M 0 20 L 400 20 "/>
</g>
</svg>
