<?xml version="1.0" encoding="UTF-8"?>
<svg xmlns="http://www.w3.org/2000/svg" xmlns:xlink="http://www.w3.org/1999/xlink" width="400pt" height="220pt" viewBox="0 0 400 220" version="1.1">
<g id="surface781">
<rect x="0" y="0" width="400" height="220" style="fill:rgb(0%,40%,100%);fill-opacity:0.2;stroke:none;"/>
<path style=" stroke:none;fill-rule:nonzero;fill:rgb(0%,0%,0%);fill-opacity:1;" d="M -8.515625 220 L -8.515625 200 L 11.484375 200 L 11.484375 220 Z M -8.515625 220 "/>
<path style=" stroke:none;fill-rule:nonzero;fill:rgb(0%,0%,0%);fill-opacity:1;" d="M -8.515625 180 L -8.515625 160 L 11.484375 160 L 11.484375 180 Z M -8.515625 180 "/>
<path style=" stroke:none;fill-rule:nonzero;fill:rgb(0%,0%,0%);fill-opacity:1;" d="M -8.515625 140 L -8.515625 120 L 11.484375 120 L 11.484375 140 Z M -8.515625 140 "/>
<path style=" stroke:none;fill-rule:nonzero;fill:rgb(0%,0%,0%);fill-opacity:1;" d="M -8.515625 100 L -8.515625 80 L 11.484375 80 L 11.484375 100 Z M -8.515625 100 "/>
<path style=" stroke:none;fill-rule:nonzero;fill:rgb(0%,0%,0%);fill-opacity:1;" d="M -8.515625 60 L -8.515625 40 L 11.484375 40 L 11.484375 60 Z M -8.515625 60 "/>
<path style=" stroke:none;fill-rule:nonzero;fill:rgb(0%,0%,0%);fill-opacity:1;" d="M -8.515625 20 L -8.515625 0 L 11.484375 0 L 11.484375 20 Z M -8.515625 20 "/>
<path style=" stroke:none;fill-rule:nonzero;fill:rgb(0%,0%,0%);fill-opacity:1;" d="M 27.484375 220 L 27.484375 200 L 47.484375 200 L 47.484375 220 Z M 27.484375 220 "/>
<path style=" stroke:none;fill-rule:nonzero;fill:rgb(0%,0%,0%);fill-opacity:1;" d="M 27.484375 180 L 27.484375 160 L 47.484375 160 L 47.484375 180 Z M 27.484375 180 "/>
<path style=" stroke:none;fill-rule:nonzero;fill:rgb(0%,0%,0%);fill-opacity:1;" d="M 27.484375 140 L 27.484375 120 L 47.484375 120 L 47.484375 140 Z M 27.484375 140 "/>
<path style=" stroke:none;fill-rule:nonzero;fill:rgb(0%,0%,0%);fill-opacity:1;" d="M 27.484375 100 L 27.484375 80 L 47.484375 80 L 47.484375 100 Z M 27.484375 100 "/>
<path style=" stroke:none;fill-rule:nonzero;fill:rgb(0%,0%,0%);fill-opacity:1;" d="M 27.484375 60 L 27.484375 40 L 47.484375 40 L 47.484375 60 Z M 27.484375 60 "/>
<path style=" stroke:none;fill-rule:nonzero;fill:rgb(0%,0%,0%);fill-opacity:1;" d="M 27.484375 20 L 27.484375 0 L 47.484375 0 L 47.484375 20 Z M 27.484375 20 "/>
<path style=" stroke:none;fill-rule:nonzero;fill:rgb(0%,0%,0%);fill-opacity:1;" d="M 63.484375 220 L 63.484375 200 L 83.484375 200 L 83.484375 220 Z M 63.484375 220 "/>
<path style=" stroke:none;fill-rule:nonzero;fill:rgb(0%,0%,0%);fill-opacity:1;" d="M 63.484375 180 L 63.484375 160 L 83.484375 160 L 83.484375 180 Z M 63.484375 180 "/>
<path style=" stroke:none;fill-rule:nonzero;fill:rgb(0%,0%,0%);fill-opacity:1;" d="M 63.484375 140 L 63.484375 120 L 83.484375 120 L 83.484375 140 Z M 63.484375 140 "/>
<path style=" stroke:none;fill-rule:nonzero;fill:rgb(0%,0%,0%);fill-opacity:1;" d="M 63.484375 100 L 63.484375 80 L 83.484375 80 L 83.484375 100 Z M 63.484375 100 "/>
<path style=" stroke:none;fill-rule:nonzero;fill:rgb(0%,0%,0%);fill-opacity:1;" d="M 63.484375 60 L 63.484375 40 L 83.484375 40 L 83.484375 60 Z M 63.484375 60 "/>
<path style=" stroke:none;fill-rule:nonzero;fill:rgb(0%,0%,0%);fill-opacity:1;" d="M 63.484375 20 L 63.484375 0 L 83.484375 0 L 83.484375 20 Z M 63.484375 20 "/>
<path style=" stroke:none;fill-rule:nonzero;fill:rgb(0%,0%,0%);fill-opacity:1;" d="M 99.484375 220 L 99.484375 200 L 119.484375 200 L 119.484375 220 Z M 99.484375 220 "/>
<path style=" stroke:none;fill-rule:nonzero;fill:rgb(0%,0%,0%);fill-opacity:1;" d="M 99.484375 180 L 99.484375 160 L 119.484375 160 L 119.484375 180 Z M 99.484375 180 "/>
<path style=" stroke:none;fill-rule:nonzero;fill:rgb(0%,0%,0%);fill-opacity:1;" d="M 99.484375 140 L 99.484375 120 L 119.484375 120 L 119.484375 140 Z M 99.484375 140 "/>
<path style=" stroke:none;fill-rule:nonzero;fill:rgb(0%,0%,0%);fill-opacity:1;" d="M 99.484375 100 L 99.484375 80 L 119.484375 80 L 119.484375 100 Z M 99.484375 100 "/>
<path style=" stroke:none;fill-rule:nonzero;fill:rgb(0%,0%,0%);fill-opacity:1;" d="M 99.484375 60 L 99.484375 40 L 119.484375 40 L 119.484375 60 Z M 99.484375 60 "/>
<path style=" stroke:none;fill-rule:nonzero;fill:rgb(0%,0%,0%);fill-opacity:1;" d="M 99.484375 20 L 99.484375 0 L 119.484375 0 L 119.484375 20 Z M 99.484375 20 "/>
<path style=" stroke:none;fill-rule:nonzero;fill:rgb(0%,0%,0%);fill-opacity:1;" d="M 135.484375 220 L 135.484375 200 L 155.484375 200 L 155.484375 220 Z M 135.484375 220 "/>
<path style=" stroke:none;fill-rule:nonzero;fill:rgb(0%,0%,0%);fill-opacity:1;" d="M 135.484375 180 L 135.484375 160 L 155.484375 160 L 155.484375 180 Z M 135.484375 180 "/>
<path style=" stroke:none;fill-rule:nonzero;fill:rgb(0%,0%,0%);fill-opacity:1;" d="M 135.484375 140 L 135.484375 120 L 155.484375 120 L 155.484375 140 Z M 135.484375 140 "/>
<path style=" stroke:none;fill-rule:nonzero;fill:rgb(0%,0%,0%);fill-opacity:1;" d="M 135.484375 100 L 135.484375 80 L 155.484375 80 L 155.484375 100 Z M 135.484375 100 "/>
<path style=" stroke:none;fill-rule:nonzero;fill:rgb(0%,0%,0%);fill-opacity:1;" d="M 135.484375 60 L 135.484375 40 L 155.484375 40 L 155.484375 60 Z M 135.484375 60 "/>
<path style=" stroke:none;fill-rule:nonzero;fill:rgb(0%,0%,0%);fill-opacity:1;" d="M 135.484375 20 L 135.484375 0 L 155.484375 0 L 155.484375 20 Z M 135.484375 20 "/>
<path style=" stroke:none;fill-rule:nonzero;fill:rgb(0%,0%,0%);fill-opacity:1;" d="M 171.484375 220 L 171.484375 200 L 191.484375 200 L 191.484375 220 Z M 171.484375 220 "/>
<path style=" stroke:none;fill-rule:nonzero;fill:rgb(0%,0%,0%);fill-opacity:1;" d="M 171.484375 180 L 171.484375 160 L 191.484375 160 L 191.484375 180 Z M 171.484375 180 "/>
<path style=" stroke:none;fill-rule:nonzero;fill:rgb(0%,0%,0%);fill-opacity:1;" d="M 171.484375 140 L 171.484375 120 L 191.484375 120 L 191.484375 140 Z M 171.484375 140 "/>
<path style=" stroke:none;fill-rule:nonzero;fill:rgb(0%,0%,0%);fill-opacity:1;" d="M 171.484375 100 L 171.484375 80 L 191.484375 80 L 191.484375 100 Z M 171.484375 100 "/>
<path style=" stroke:none;fill-rule:nonzero;fill:rgb(0%,0%,0%);fill-opacity:1;" d="M 171.484375 60 L 171.484375 40 L 191.484375 40 L 191.484375 60 Z M 171.484375 60 "/>
<path style=" stroke:none;fill-rule:nonzero;fill:rgb(0%,0%,0%);fill-opacity:1;" d="M 171.484375 20 L 171.484375 0 L 191.484375 0 L 191.484375 20 Z M 171.484375 20 "/>
<path style=" stroke:none;fill-rule:nonzero;fill:rgb(0%,0%,0%);fill-opacity:1;" d="M 207.484375 220 L 207.484375 200 L 227.484375 200 L 227.484375 220 Z M 207.484375 220 "/>
<path style=" stroke:none;fill-rule:nonzero;fill:rgb(0%,0%,0%);fill-opacity:1;" d="M 207.484375 180 L 207.484375 160 L 227.484375 160 L 227.484375 180 Z M 207.484375 180 "/>
<path style=" stroke:none;fill-rule:nonzero;fill:rgb(0%,0%,0%);fill-opacity:1;" d="M 207.484375 140 L 207.484375 120 L 227.484375 120 L 227.484375 140 Z M 207.484375 140 "/>
<path style=" stroke:none;fill-rule:nonzero;fill:rgb(0%,0%,0%);fill-opacity:1;" d="M 207.484375 100 L 207.484375 80 L 227.484375 80 L 227.484375 100 Z M 207.484375 100 "/>
<path style=" stroke:none;fill-rule:nonzero;fill:rgb(0%,0%,0%);fill-opacity:1;" d="M 207.484375 60 L 207.484375 40 L 227.484375 40 L 227.484375 60 Z M 207.484375 60 "/>
<path style=" stroke:none;fill-rule:nonzero;fill:rgb(0%,0%,0%);fill-opacity:1;" d="M 207.484375 20 L 207.484375 0 L 227.484375 0 L 227.484375 20 Z M 207.484375 20 "/>
<path style=" stroke:none;fill-rule:nonzero;fill:rgb(0%,0%,0%);fill-opacity:1;" d="M 243.484375 220 L 243.484375 200 L 263.484375 200 L 263.484375 220 Z M 243.484375 220 "/>
<path style=" stroke:none;fill-rule:nonzero;fill:rgb(0%,0%,0%);fill-opacity:1;" d="M 243.484375 180 L 243.484375 160 L 263.484375 160 L 263.484375 180 Z M 243.484375 180 "/>
<path style=" stroke:none;fill-rule:nonzero;fill:rgb(0%,0%,0%);fill-opacity:1;" d="M 243.484375 140 L 243.484375 120 L 263.484375 120 L 263.484375 140 Z M 243.484375 140 "/>
<path style=" stroke:none;fill-rule:nonzero;fill:rgb(0%,0%,0%);fill-opacity:1;" d="M 243.484375 100 L 243.484375 80 L 263.484375 80 L 263.484375 100 Z M 243.484375 100 "/>
<path style=" stroke:none;fill-rule:nonzero;fill:rgb(0%,0%,0%);fill-opacity:1;" d="M 243.484375 60 L 243.484375 40 L 263.484375 40 L 263.484375 60 Z M 243.484375 60 "/>
<path style=" stroke:none;fill-rule:nonzero;fill:rgb(0%,0%,0%);fill-opacity:1;" d="M 243.484375 20 L 243.484375 0 L 263.484375 0 L 263.484375 20 Z M 243.484375 20 "/>
<path style=" stroke:none;fill-rule:nonzero;fill:rgb(0%,0%,0%);fill-opacity:1;" d="M 279.484375 220 L 279.484375 200 L 299.484375 200 L 299.484375 220 Z M 279.484375 220 "/>
<path style=" stroke:none;fill-rule:nonzero;fill:rgb(0%,0%,0%);fill-opacity:1;" d="M 279.484375 180 L 279.484375 160 L 299.484375 160 L 299.484375 180 Z M 279.484375 180 "/>
<path style=" stroke:none;fill-rule:nonzero;fill:rgb(0%,0%,0%);fill-opacity:1;" d="M 279.484375 140 L 279.484375 120 L 299.484375 120 L 299.484375 140 Z M 279.484375 140 "/>
<path style=" stroke:none;fill-rule:nonzero;fill:rgb(0%,0%,0%);fill-opacity:1;" d="M 279.484375 100 L 279.484375 80 L 299.484375 80 L 299.484375 100 Z M 279.484375 100 "/>
<path style=" stroke:none;fill-rule:nonzero;fill:rgb(0%,0%,0%);fill-opacity:1;" d="M 279.484375 60 L 279.484375 40 L 299.484375 40 L 299.484375 60 Z M 279.484375 60 "/>
<path style=" stroke:none;fill-rule:nonzero;fill:rgb(0%,0%,0%);fill-opacity:1;" d="M 279.484375 20 L 279.484375 0 L 299.484375 0 L 299.484375 20 Z M 279.484375 20 "/>
<path style=" stroke:none;fill-rule:nonzero;fill:rgb(0%,0%,0%);fill-opacity:1;" d="M 315.484375 220 L 315.484375 200 L 335.484375 200 L 335.484375 220 Z M 315.484375 220 "/>
<path style=" stroke:none;fill-rule:nonzero;fill:rgb(0%,0%,0%);fill-opacity:1;" d="M 315.484375 180 L 315.484375 160 L 335.484375 160 L 335.484375 180 Z M 315.484375 180 "/>
<path style=" stroke:none;fill-rule:nonzero;fill:rgb(0%,0%,0%);fill-opacity:1;" d="M 315.484375 140 L 315.484375 120 L 335.484375 120 L 335.484375 140 Z M 315.484375 140 "/>
<path style=" stroke:none;fill-rule:nonzero;fill:rgb(0%,0%,0%);fill-opacity:1;" d="M 315.484375 100 L 315.484375 80 L 335.484375 80 L 335.484375 100 Z M 315.484375 100 "/>
<path style=" stroke:none;fill-rule:nonzero;fill:rgb(0%,0%,0%);fill-opacity:1;" d="M 315.484375 60 L 315.484375 40 L 335.484375 40 L 335.484375 60 Z M 315.484375 60 "/>
<path style=" stroke:none;fill-rule:nonzero;fill:rgb(0%,0%,0%);fill-opacity:1;" d="M 315.484375 20 L 315.484375 0 L 335.484375 0 L 335.484375 20 Z M 315.484375 20 "/>
<path style=" stroke:none;fill-rule:nonzero;fill:rgb(0%,0%,0%);fill-opacity:1;" d="M 351.484375 220 L 351.484375 200 L 371.484375 200 L 371.484375 220 Z M 351.484375 220 "/>
<path style=" stroke:none;fill-rule:nonzero;fill:rgb(0%,0%,0%);fill-opacity:1;" d="M 351.484375 180 L 351.484375 160 L 371.484375 160 L 371.484375 180 Z M 351.484375 180 "/>
<path style=" stroke:none;fill-rule:nonzero;fill:rgb(0%,0%,0%);fill-opacity:1;" d="M 351.484375 140 L 351.484375 120 L 371.484375 120 L 371.484375 140 Z M 351.484375 140 "/>
<path style=" stroke:none;fill-rule:nonzero;fill:rgb(0%,0%,0%);fill-opacity:1;" d="M 351.484375 100 L 351.484375 80 L 371.484375 80 L 371.484375 100 Z M 351.484375 100 "/>
<path style=" stroke:none;fill-rule:nonzero;fill:rgb(0%,0%,0%);fill-opacity:1;" d="M 351.484375 60 L 351.484375 40 L 371.484375 40 L 371.484375 60 Z M 351.484375 60 "/>
<path style=" stroke:none;fill-rule:nonzero;fill:rgb(0%,0%,0%);fill-opacity:1;" d="M 351.484375 20 L 351.484375 0 L 371.484375 0 L 371.484375 20 Z M 351.484375 20 "/>
<path style=" stroke:none;fill-rule:nonzero;fill:rgb(0%,0%,0%);fill-opacity:1;" d="M 387.484375 220 L 387.484375 200 L 407.484375 200 L 407.484375 220 Z M 387.484375 220 "/>
<path style=" stroke:none;fill-rule:nonzero;fill:rgb(0%,0%,0%);fill-opacity:1;" d="M 387.484375 180 L 387.484375 160 L 407.484375 160 L 407.484375 180 Z M 387.484375 180 "/>
<path style=" stroke:none;fill-rule:nonzero;fill:rgb(0%,0%,0%);fill-opacity:1;" d="M 387.484375 140 L 387.484375 120 L 407.484375 120 L 407.484375 140 Z M 387.484375 140 "/>
<path style=" stroke:none;fill-rule:nonzero;fill:rgb(0%,0%,0%);fill-opacity:1;" d="M 387.484375 100 L 387.484375 80 L 407.484375 80 L 407.484375 100 Z M 387.484375 100 "/>
<path style=" stroke:none;fill-rule:nonzero;fill:rgb(0%,0%,0%);fill-opacity:1;" d="M 387.484375 60 L 387.484375 40 L 407.484375 40 L 407.484375 60 Z M 387.484375 60 "/>
<path style=" stroke:none;fill-rule:nonzero;fill:rgb(0%,0%,0%);fill-opacity:1;" d="M 387.484375 20 L 387.484375 0 L 407.484375 0 L 407.484375 20 Z M 387.484375 20 "/>
<path style=" stroke:none;fill-rule:nonzero;fill:rgb(0%,0%,0%);fill-opacity:1;" d="M -1.902344 200 L -1.902344 180 L 18.097656 180 L 18.097656 200 Z M -1.902344 200 "/>
<path style=" stroke:none;fill-rule:nonzero;fill:rgb(0%,0%,0%);fill-opacity:1;" d="M -1.902344 160 L -1.902344 140 L 18.097656 140 L 18.097656 160 Z M -1.902344 160 "/>
<path style=" stroke:none;fill-rule:nonzero;fill:rgb(0%,0%,0%);fill-opacity:1;" d="M -1.902344 120 L -1.902344 100 L 18.097656 100 L 18.097656 120 Z M -1.902344 120 "/>
<path style=" stroke:none;fill-rule:nonzero;fill:rgb(0%,0%,0%);fill-opacity:1;" d="M -1.902344 80 L -1.902344 60 L 18.097656 60 L 18.097656 80 Z M -1.902344 80 "/>
<path style=" stroke:none;fill-rule:nonzero;fill:rgb(0%,0%,0%);fill-opacity:1;" d="M -1.902344 40 L -1.902344 20 L 18.097656 20 L 18.097656 40 Z M -1.902344 40 "/>
<path style=" stroke:none;fill-rule:nonzero;fill:rgb(0%,0%,0%);fill-opacity:1;" d="M 34.097656 200 L 34.097656 180 L 54.097656 180 L 54.097656 200 Z M 34.097656 200 "/>
<path style=" stroke:none;fill-rule:nonzero;fill:rgb(0%,0%,0%);fill-opacity:1;" d="M 34.097656 160 L 34.097656 140 L 54.097656 140 L 54.097656 160 Z M 34.097656 160 "/>
<path style=" stroke:none;fill-rule:nonzero;fill:rgb(0%,0%,0%);fill-opacity:1;" d="M 34.097656 120 L 34.097656 100 L 54.097656 100 L 54.097656 120 Z M 34.097656 120 "/>
<path style=" stroke:none;fill-rule:nonzero;fill:rgb(0%,0%,0%);fill-opacity:1;" d="M 34.097656 80 L 34.097656 60 L 54.097656 60 L 54.097656 80 Z M 34.097656 80 "/>
<path style=" stroke:none;fill-rule:nonzero;fill:rgb(0%,0%,0%);fill-opacity:1;" d="M 34.097656 40 L 34.097656 20 L 54.097656 20 L 54.097656 40 Z M 34.097656 40 "/>
<path style=" stroke:none;fill-rule:nonzero;fill:rgb(0%,0%,0%);fill-opacity:1;" d="M 70.097656 200 L 70.097656 180 L 90.097656 180 L 90.097656 200 Z M 70.097656 200 "/>
<path style=" stroke:none;fill-rule:nonzero;fill:rgb(0%,0%,0%);fill-opacity:1;" d="M 70.097656 160 L 70.097656 140 L 90.097656 140 L 90.097656 160 Z M 70.097656 160 "/>
<path style=" stroke:none;fill-rule:nonzero;fill:rgb(0%,0%,0%);fill-opacity:1;" d="M 70.097656 120 L 70.097656 100 L 90.097656 100 L 90.097656 120 Z M 70.097656 120 "/>
<path style=" stroke:none;fill-rule:nonzero;fill:rgb(0%,0%,0%);fill-opacity:1;" d="M 70.097656 80 L 70.097656 60 L 90.097656 60 L 90.097656 80 Z M 70.097656 80 "/>
<path style=" stroke:none;fill-rule:nonzero;fill:rgb(0%,0%,0%);fill-opacity:1;" d="M 70.097656 40 L 70.097656 20 L 90.097656 20 L 90.097656 40 Z M 70.097656 40 "/>
<path style=" stroke:none;fill-rule:nonzero;fill:rgb(0%,0%,0%);fill-opacity:1;" d="M 106.097656 200 L 106.097656 180 L 126.097656 180 L 126.097656 200 Z M 106.097656 200 "/>
<path style=" stroke:none;fill-rule:nonzero;fill:rgb(0%,0%,0%);fill-opacity:1;" d="M 106.097656 160 L 106.097656 140 L 126.097656 140 L 126.097656 160 Z M 106.097656 160 "/>
<path style=" stroke:none;fill-rule:nonzero;fill:rgb(0%,0%,0%);fill-opacity:1;" d="M 106.097656 120 L 106.097656 100 L 126.097656 100 L 126.097656 120 Z M 106.097656 120 "/>
<path style=" stroke:none;fill-rule:nonzero;fill:rgb(0%,0%,0%);fill-opacity:1;" d="M 106.097656 80 L 106.097656 60 L 126.097656 60 L 126.097656 80 Z M 106.097656 80 "/>
<path style=" stroke:none;fill-rule:nonzero;fill:rgb(0%,0%,0%);fill-opacity:1;" d="M 106.097656 40 L 106.097656 20 L 126.097656 20 L 126.097656 40 Z M 106.097656 40 "/>
<path style=" stroke:none;fill-rule:nonzero;fill:rgb(0%,0%,0%);fill-opacity:1;" d="M 142.097656 200 L 142.097656 180 L 162.097656 180 L 162.097656 200 Z M 142.097656 200 "/>
<path style=" stroke:none;fill-rule:nonzero;fill:rgb(0%,0%,0%);fill-opacity:1;" d="M 142.097656 160 L 142.097656 140 L 162.097656 140 L 162.097656 160 Z M 142.097656 160 "/>
<path style=" stroke:none;fill-rule:nonzero;fill:rgb(0%,0%,0%);fill-opacity:1;" d="M 142.097656 120 L 142.097656 100 L 162.097656 100 L 162.097656 120 Z M 142.097656 120 "/>
<path style=" stroke:none;fill-rule:nonzero;fill:rgb(0%,0%,0%);fill-opacity:1;" d="M 142.097656 80 L 142.097656 60 L 162.097656 60 L 162.097656 80 Z M 142.097656 80 "/>
<path style=" stroke:none;fill-rule:nonzero;fill:rgb(0%,0%,0%);fill-opacity:1;" d="M 142.097656 40 L 142.097656 20 L 162.097656 20 L 162.097656 40 Z M 142.097656 40 "/>
<path style=" stroke:none;fill-rule:nonzero;fill:rgb(0%,0%,0%);fill-opacity:1;" d="M 178.097656 200 L 178.097656 180 L 198.097656 180 L 198.097656 200 Z M 178.097656 200 "/>
<path style=" stroke:none;fill-rule:nonzero;fill:rgb(0%,0%,0%);fill-opacity:1;" d="M 178.097656 160 L 178.097656 140 L 198.097656 140 L 198.097656 160 Z M 178.097656 160 "/>
<path style=" stroke:none;fill-rule:nonzero;fill:rgb(0%,0%,0%);fill-opacity:1;" d="M 178.097656 120 L 178.097656 100 L 198.097656 100 L 198.097656 120 Z M 178.097656 120 "/>
<path style=" stroke:none;fill-rule:nonzero;fill:rgb(0%,0%,0%);fill-opacity:1;" d="M 178.097656 80 L 178.097656 60 L 198.097656 60 L 198.097656 80 Z M 178.097656 80 "/>
<path style=" stroke:none;fill-rule:nonzero;fill:rgb(0%,0%,0%);fill-opacity:1;" d="M 178.097656 40 L 178.097656 20 L 198.097656 20 L 198.097656 40 Z M 178.097656 40 "/>
<path style=" stroke:none;fill-rule:nonzero;fill:rgb(0%,0%,0%);fill-opacity:1;" d="M 214.097656 200 L 214.097656 180 L 234.097656 180 L 234.097656 200 Z M 214.097656 200 "/>
<path style=" stroke:none;fill-rule:nonzero;fill:rgb(0%,0%,0%);fill-opacity:1;" d="M 214.097656 160 L 214.097656 140 L 234.097656 140 L 234.097656 160 Z M 214.097656 160 "/>
<path style=" stroke:none;fill-rule:nonzero;fill:rgb(0%,0%,0%);fill-opacity:1;" d="M 214.097656 120 L 214.097656 100 L 234.097656 100 L 234.097656 120 Z M 214.097656 120 "/>
<path style=" stroke:none;fill-rule:nonzero;fill:rgb(0%,0%,0%);fill-opacity:1;" d="M 214.097656 80 L 214.097656 60 L 234.097656 60 L 234.097656 80 Z M 214.097656 80 "/>
<path style=" stroke:none;fill-rule:nonzero;fill:rgb(0%,0%,0%);fill-opacity:1;" d="M 214.097656 40 L 214.097656 20 L 234.097656 20 L 234.097656 40 Z M 214.097656 40 "/>
<path style=" stroke:none;fill-rule:nonzero;fill:rgb(0%,0%,0%);fill-opacity:1;" d="M 250.097656 200 L 250.097656 180 L 270.097656 180 L 270.097656 200 Z M 250.097656 200 "/>
<path style=" stroke:none;fill-rule:nonzero;fill:rgb(0%,0%,0%);fill-opacity:1;" d="M 250.097656 160 L 250.097656 140 L 270.097656 140 L 270.097656 160 Z M 250.097656 160 "/>
<path style=" stroke:none;fill-rule:nonzero;fill:rgb(0%,0%,0%);fill-opacity:1;" d="M 250.097656 120 L 250.097656 100 L 270.097656 100 L 270.097656 120 Z M 250.097656 120 "/>
<path style=" stroke:none;fill-rule:nonzero;fill:rgb(0%,0%,0%);fill-opacity:1;" d="M 250.097656 80 L 250.097656 60 L 270.097656 60 L 270.097656 80 Z M 250.097656 80 "/>
<path style=" stroke:none;fill-rule:nonzero;fill:rgb(0%,0%,0%);fill-opacity:1;" d="M 250.097656 40 L 250.097656 20 L 270.097656 20 L 270.097656 40 Z M 250.097656 40 "/>
<path style=" stroke:none;fill-rule:nonzero;fill:rgb(0%,0%,0%);fill-opacity:1;" d="M 286.097656 200 L 286.097656 180 L 306.097656 180 L 306.097656 200 Z M 286.097656 200 "/>
<path style=" stroke:none;fill-rule:nonzero;fill:rgb(0%,0%,0%);fill-opacity:1;" d="M 286.097656 160 L 286.097656 140 L 306.097656 140 L 306.097656 160 Z M 286.097656 160 "/>
<path style=" stroke:none;fill-rule:nonzero;fill:rgb(0%,0%,0%);fill-opacity:1;" d="M 286.097656 120 L 286.097656 100 L 306.097656 100 L 306.097656 120 Z M 286.097656 120 "/>
<path style=" stroke:none;fill-rule:nonzero;fill:rgb(0%,0%,0%);fill-opacity:1;" d="M 286.097656 80 L 286.097656 60 L 306.097656 60 L 306.097656 80 Z M 286.097656 80 "/>
<path style=" stroke:none;fill-rule:nonzero;fill:rgb(0%,0%,0%);fill-opacity:1;" d="M 286.097656 40 L 286.097656 20 L 306.097656 20 L 306.097656 40 Z M 286.097656 40 "/>
<path style=" stroke:none;fill-rule:nonzero;fill:rgb(0%,0%,0%);fill-opacity:1;" d="M 322.097656 200 L 322.097656 180 L 342.097656 180 L 342.097656 200 Z M 322.097656 200 "/>
<path style=" stroke:none;fill-rule:nonzero;fill:rgb(0%,0%,0%);fill-opacity:1;" d="M 322.097656 160 L 322.097656 140 L 342.097656 140 L 342.097656 160 Z M 322.097656 160 "/>
<path style=" stroke:none;fill-rule:nonzero;fill:rgb(0%,0%,0%);fill-opacity:1;" d="M 322.097656 120 L 322.097656 100 L 342.097656 100 L 342.097656 120 Z M 322.097656 120 "/>
<path style=" stroke:none;fill-rule:nonzero;fill:rgb(0%,0%,0%);fill-opacity:1;" d="M 322.097656 80 L 322.097656 60 L 342.097656 60 L 342.097656 80 Z M 322.097656 80 "/>
<path style=" stroke:none;fill-rule:nonzero;fill:rgb(0%,0%,0%);fill-opacity:1;" d="M 322.097656 40 L 322.097656 20 L 342.097656 20 L 342.097656 40 Z M 322.097656 40 "/>
<path style=" stroke:none;fill-rule:nonzero;fill:rgb(0%,0%,0%);fill-opacity:1;" d="M 358.097656 200 L 358.097656 180 L 378.097656 180 L 378.097656 200 Z M 358.097656 200 "/>
<path style=" stroke:none;fill-rule:nonzero;fill:rgb(0%,0%,0%);fill-opacity:1;" d="M 358.097656 160 L 358.097656 140 L 378.097656 140 L 378.097656 160 Z M 358.097656 160 "/>
<path style=" stroke:none;fill-rule:nonzero;fill:rgb(0%,0%,0%);fill-opacity:1;" d="M 358.097656 120 L 358.097656 100 L 378.097656 100 L 378.097656 120 Z M 358.097656 120 "/>
<path style=" stroke:none;fill-rule:nonzero;fill:rgb(0%,0%,0%);fill-opacity:1;" d="M 358.097656 80 L 358.097656 60 L 378.097656 60 L 378.097656 80 Z M 358.097656 80 "/>
<path style=" stroke:none;fill-rule:nonzero;fill:rgb(0%,0%,0%);fill-opacity:1;" d="M 358.097656 40 L 358.097656 20 L 378.097656 20 L 378.097656 40 Z M 358.097656 40 "/>
<path style=" stroke:none;fill-rule:nonzero;fill:rgb(0%,0%,0%);fill-opacity:1;" d="M 394.097656 200 L 394.097656 180 L 414.097656 180 L 414.097656 200 Z M 394.097656 200 "/>
<path style=" stroke:none;fill-rule:nonzero;fill:rgb(0%,0%,0%);fill-opacity:1;" d="M 394.097656 160 L 394.097656 140 L 414.097656 140 L 414.097656 160 Z M 394.097656 160 "/>
<path style=" stroke:none;fill-rule:nonzero;fill:rgb(0%,0%,0%);fill-opacity:1;" d="M 394.097656 120 L 394.097656 100 L 414.097656 100 L 414.097656 120 Z M 394.097656 120 "/>
<path style=" stroke:none;fill-rule:nonzero;fill:rgb(0%,0%,0%);fill-opacity:1;" d="M 394.097656 80 L 394.097656 60 L 414.097656 60 L 414.097656 80 Z M 394.097656 80 "/>
<path style=" stroke:none;fill-rule:nonzero;fill:rgb(0%,0%,0%);fill-opacity:1;" d="M 394.097656 40 L 394.097656 20 L 414.097656 20 L 414.097656 40 Z M 394.097656 40 "/>
<path style="fill:none;stroke-width:1;stroke-linecap:square;stroke-linejoin:miter;stroke:rgb(100%,0%,0%);stroke-opacity:1;stroke-miterlimit:3.25;" d="M 0 220 L 400 220 "/>
<path style="fill:none;stroke-width:1;stroke-linecap:square;stroke-linejoin:miter;stroke:rgb(100%,0%,0%);stroke-opacity:1;stroke-miterlimit:3.25;" d="M 0 200 L 400 200 "/>
<path style="fill:none;stroke-width:1;stroke-linecap:square;stroke-linejoin:miter;stroke:rgb(100%,0%,0%);stroke-opacity:1;stroke-miterlimit:3.25;" d="M 0 180 L 400 180 "/>
<path style="fill:none;stroke-width:1;stroke-linecap:square;stroke-linejoin:miter;stroke:rgb(100%,0%,0%);stroke-opacity:1;stroke-miterlimit:3.25;" d="M 0 160 L 400 160 "/>
<path style="fill:none;stroke-width:1;stroke-linecap:square;stroke-linejoin:miter;stroke:rgb(100%,0%,0%);stroke-opacity:1;stroke-miterlimit:3.25;" d="M 0 140 L 400 140 "/>
<path style="fill:none;stroke-width:1;stroke-linecap:square;stroke-linejoin:miter;stroke:rgb(100%,0%,0%);stroke-opacity:1;stroke-miterlimit:3.25;" d="M 0 120 L 400 120 "/>
<path style="fill:none;stroke-width:1;stroke-linecap:square;stroke-linejoin:miter;stroke:rgb(100%,0%,0%);stroke-opacity:1;stroke-miterlimit:3.25;" d="M 0 100 L 400 100 "/>
<path style="fill:none;stroke-width:1;stroke-linecap:square;stroke-linejoin:miter;stroke:rgb(100%,0%,0%);stroke-opacity:1;stroke-miterlimit:3.25;" d="M 0 80 L 400 80 "/>
<path style="fill:none;stroke-width:1;stroke-linecap:square;stroke-linejoin:miter;stroke:rgb(100%,0%,0%);stroke-opacity:1;stroke-miterlimit:3.25;" d="M 0 60 L 400 60 "/>
<path style="fill:none;stroke-width:1;stroke-linecap:square;stroke-linejoin:miter;stroke:rgb(100%,0%,0%);stroke-opacity:1;stroke-miterlimit:3.25;" d="M 0 40 L 400 40 "/>
<path style="fill:none;stroke-width:1;stroke-linecap:square;stroke-linejoin:miter;stroke:rgb(100%,0%,0%);stroke-opacity:1;stroke-miterlimit:3.25;" d="M 0 20 L 400 20 "/>
</g>
</svg>
