<?xml version="1.0" encoding="UTF-8"?>
<svg xmlns="http://www.w3.org/2000/svg" xmlns:xlink="http://www.w3.org/1999/xlink" width="400pt" height="220pt" viewBox="0 0 400 220" version="1.1">
<g id="surface811">
<rect x="0" y="0" width="400" height="220" style="fill:rgb(0%,40%,100%);fill-opacity:0.2;stroke:none;"/>
<path style=" stroke:none;fill-rule:nonzero;fill:rgb(0%,0%,0%);fill-opacity:1;" d="M -14.578125 220 L -14.578125 200 L 5.421875 200 L 5.421875 220 Z M -14.578125 220 "/>
<path style=" stroke:none;fill-rule:nonzero;fill:rgb(0%,0%,0%);fill-opacity:1;" d="M -14.578125 180 L -14.578125 160 L 5.421875 160 L 5.421875 180 Z M -14.578125 180 "/>
<path style=" stroke:none;fill-rule:nonzero;fill:rgb(0%,0%,0%);fill-opacity:1;" d="M -14.578125 140 L -14.578125 120 L 5.421875 120 L 5.421875 140 Z M -14.578125 140 "/>
<path style=" stroke:none;fill-rule:nonzero;fill:rgb(0%,0%,0%);fill-opacity:1;" d="M -14.578125 100 L -14.578125 80 L 5.421875 80 L 5.421875 100 Z M -14.578125 100 "/>
<path style=" stroke:none;fill-rule:nonzero;fill:rgb(0%,0%,0%);fill-opacity:1;" d="M -14.578125 60 L -14.578125 40 L 5.421875 40 L 5.421875 60 Z M -14.578125 60 "/>
<path style=" stroke:none;fill-rule:nonzero;fill:rgb(0%,0%,0%);fill-opacity:1;" d="M -14.578125 20 L -14.578125 0 L 5.421875 0 L 5.421875 20 Z M -14.578125 20 "/>
<path style=" stroke:none;fill-rule:nonzero;fill:rgb(0%,0%,0%);fill-opacity:1;" d="M 21.421875 220 L 21.421875 200 L 41.421875 200 L 41.421875 220 Z M 21.421875 220 "/>
<path style=" stroke:none;fill-rule:nonzero;fill:rgb(0%,0%,0%);fill-opacity:1;" d="M 21.421875 180 L 21.421875 160 L 41.421875 160 L 41.421875 180 Z M 21.421875 180 "/>
<path style=" stroke:none;fill-rule:nonzero;fill:rgb(0%,0%,0%);fill-opacity:1;" d="M 21.421875 140 L 21.421875 120 L 41.421875 120 L 41.421875 140 Z M 21.421875 140 "/>
<path style=" stroke:none;fill-rule:nonzero;fill:rgb(0%,0%,0%);fill-opacity:1;" d="M 21.421875 100 L 21.421875 80 L 41.421875 80 L 41.421875 100 Z M 21.421875 100 "/>
<path style=" stroke:none;fill-rule:nonzero;fill:rgb(0%,0%,0%);fill-opacity:1;" d="M 21.421875 60 L 21.421875 40 L 41.421875 40 L 41.421875 60 Z M 21.421875 60 "/>
<path style=" stroke:none;fill-rule:nonzero;fill:rgb(0%,0%,0%);fill-opacity:1;" d="M 21.421875 20 L 21.421875 0 L 41.421875 0 L 41.421875 20 Z M 21.421875 20 "/>
<path style=" stroke:none;fill-rule:nonzero;fill:rgb(0%,0%,0%);fill-opacity:1;" d="M 57.421875 220 L 57.421875 200 L 77.421875 200 L 77.421875 220 Z M 57.421875 220 "/>
<path style=" stroke:none;fill-rule:nonzero;fill:rgb(0%,0%,0%);fill-opacity:1;" d="M 57.421875 180 L 57.421875 160 L 77.421875 160 L 77.421875 180 Z M 57.421875 180 "/>
<path style=" stroke:none;fill-rule:nonzero;fill:rgb(0%,0%,0%);fill-opacity:1;" d="M 57.421875 140 L 57.421875 120 L 77.421875 120 L 77.421875 140 Z M 57.421875 140 "/>
<path style=" stroke:none;fill-rule:nonzero;fill:rgb(0%,0%,0%);fill-opacity:1;" d="M 57.421875 100 L 57.421875 80 L 77.421875 80 L 77.421875 100 Z M 57.421875 100 "/>
<path style=" stroke:none;fill-rule:nonzero;fill:rgb(0%,0%,0%);fill-opacity:1;" d="M 57.421875 60 L 57.421875 40 L 77.421875 40 L 77.421875 60 Z M 57.421875 60 "/>
<path style=" stroke:none;fill-rule:nonzero;fill:rgb(0%,0%,0%);fill-opacity:1;" d="M 57.421875 20 L 57.421875 0 L 77.421875 0 L 77.421875 20 Z M 57.421875 20 "/>
<path style=" stroke:none;fill-rule:nonzero;fill:rgb(0%,0%,0%);fill-opacity:1;" d="M 93.421875 220 L 93.421875 200 L 113.421875 200 L 113.421875 220 Z M 93.421875 220 "/>
<path style=" stroke:none;fill-rule:nonzero;fill:rgb(0%,0%,0%);fill-opacity:1;" d="M 93.421875 180 L 93.421875 160 L 113.421875 160 L 113.421875 180 Z M 93.421875 180 "/>
<path style=" stroke:none;fill-rule:nonzero;fill:rgb(0%,0%,0%);fill-opacity:1;" d="M 93.421875 140 L 93.421875 120 L 113.421875 120 L 113.421875 140 Z M 93.421875 140 "/>
<path style=" stroke:none;fill-rule:nonzero;fill:rgb(0%,0%,0%);fill-opacity:1;" d="M 93.421875 100 L 93.421875 80 L 113.421875 80 L 113.421875 100 Z M 93.421875 100 "/>
<path style=" stroke:none;fill-rule:nonzero;fill:rgb(0%,0%,0%);fill-opacity:1;" d="M 93.421875 60 L 93.421875 40 L 113.421875 40 L 113.421875 60 Z M 93.421875 60 "/>
<path style=" stroke:none;fill-rule:nonzero;fill:rgb(0%,0%,0%);fill-opacity:1;" d="M 93.421875 20 L 93.421875 0 L 113.421875 0 L 113.421875 20 Z M 93.421875 20 "/>
<path style=" stroke:none;fill-rule:nonzero;fill:rgb(0%,0%,0%);fill-opacity:1;" d="M 129.421875 220 L 129.421875 200 L 149.421875 200 L 149.421875 220 Z M 129.421875 220 "/>
<path style=" stroke:none;fill-rule:nonzero;fill:rgb(0%,0%,0%);fill-opacity:1;" d="M 129.421875 180 L 129.421875 160 L 149.421875 160 L 149.421875 180 Z M 129.421875 180 "/>
<path style=" stroke:none;fill-rule:nonzero;fill:rgb(0%,0%,0%);fill-opacity:1;" d="M 129.421875 140 L 129.421875 120 L 149.421875 120 L 149.421875 140 Z M 129.421875 140 "/>
<path style=" stroke:none;fill-rule:nonzero;fill:rgb(0%,0%,0%);fill-opacity:1;" d="M 129.421875 100 L 129.421875 80 L 149.421875 80 L 149.421875 100 Z M 129.421875 100 "/>
<path style=" stroke:none;fill-rule:nonzero;fill:rgb(0%,0%,0%);fill-opacity:1;" d="M 129.421875 60 L 129.421875 40 L 149.421875 40 L 149.421875 60 Z M 129.421875 60 "/>
<path style=" stroke:none;fill-rule:nonzero;fill:rgb(0%,0%,0%);fill-opacity:1;" d="M 129.421875 20 L 129.421875 0 L 149.421875 0 L 149.421875 20 Z M 129.421875 20 "/>
<path style=" stroke:none;fill-rule:nonzero;fill:rgb(0%,0%,0%);fill-opacity:1;" d="M 165.421875 220 L 165.421875 200 L 185.421875 200 L 185.421875 220 Z M 165.421875 220 "/>
<path style=" stroke:none;fill-rule:nonzero;fill:rgb(0%,0%,0%);fill-opacity:1;" d="M 165.421875 180 L 165.421875 160 L 185.421875 160 L 185.421875 180 Z M 165.421875 180 "/>
<path style=" stroke:none;fill-rule:nonzero;fill:rgb(0%,0%,0%);fill-opacity:1;" d="M 165.421875 140 L 165.421875 120 L 185.421875 120 L 185.421875 140 Z M 165.421875 140 "/>
<path style=" stroke:none;fill-rule:nonzero;fill:rgb(0%,0%,0%);fill-opacity:1;" d="M 165.421875 100 L 165.421875 80 L 185.421875 80 L 185.421875 100 Z M 165.421875 100 "/>
<path style=" stroke:none;fill-rule:nonzero;fill:rgb(0%,0%,0%);fill-opacity:1;" d="M 165.421875 60 L 165.421875 40 L 185.421875 40 L 185.421875 60 Z M 165.421875 60 "/>
<path style=" stroke:none;fill-rule:nonzero;fill:rgb(0%,0%,0%);fill-opacity:1;" d="M 165.421875 20 L 165.421875 0 L 185.421875 0 L 185.421875 20 Z M 165.421875 20 "/>
<path style=" stroke:none;fill-rule:nonzero;fill:rgb(0%,0%,0%);fill-opacity:1;" d="M 201.421875 220 L 201.421875 200 L 221.421875 200 L 221.421875 220 Z M 201.421875 220 "/>
<path style=" stroke:none;fill-rule:nonzero;fill:rgb(0%,0%,0%);fill-opacity:1;" d="M 201.421875 180 L 201.421875 160 L 221.421875 160 L 221.421875 180 Z M 201.421875 180 "/>
<path style=" stroke:none;fill-rule:nonzero;fill:rgb(0%,0%,0%);fill-opacity:1;" d="M 201.421875 140 L 201.421875 120 L 221.421875 120 L 221.421875 140 Z M 201.421875 140 "/>
<path style=" stroke:none;fill-rule:nonzero;fill:rgb(0%,0%,0%);fill-opacity:1;" d="M 201.421875 100 L 201.421875 80 L 221.421875 80 L 221.421875 100 Z M 201.421875 100 "/>
<path style=" stroke:none;fill-rule:nonzero;fill:rgb(0%,0%,0%);fill-opacity:1;" d="M 201.421875 60 L 201.421875 40 L 221.421875 40 L 221.421875 60 Z M 201.421875 60 "/>
<path style=" stroke:none;fill-rule:nonzero;fill:rgb(0%,0%,0%);fill-opacity:1;" d="M 201.421875 20 L 201.421875 0 L 221.421875 0 L 221.421875 20 Z M 201.421875 20 "/>
<path style=" stroke:none;fill-rule:nonzero;fill:rgb(0%,0%,0%);fill-opacity:1;" d="M 237.421875 220 L 237.421875 200 L 257.421875 200 L 257.421875 220 Z M 237.421875 220 "/>
<path style=" stroke:none;fill-rule:nonzero;fill:rgb(0%,0%,0%);fill-opacity:1;" d="M 237.421875 180 L 237.421875 160 L 257.421875 160 L 257.421875 180 Z M 237.421875 180 "/>
<path style=" stroke:none;fill-rule:nonzero;fill:rgb(0%,0%,0%);fill-opacity:1;" d="M 237.421875 140 L 237.421875 120 L 257.421875 120 L 257.421875 140 Z M 237.421875 140 "/>
<path style=" stroke:none;fill-rule:nonzero;fill:rgb(0%,0%,0%);fill-opacity:1;" d="M 237.421875 100 L 237.421875 80 L 257.421875 80 L 257.421875 100 Z M 237.421875 100 "/>
<path style=" stroke:none;fill-rule:nonzero;fill:rgb(0%,0%,0%);fill-opacity:1;" d="M 237.421875 60 L 237.421875 40 L 257.421875 40 L 257.421875 60 Z M 237.421875 60 "/>
<path style=" stroke:none;fill-rule:nonzero;fill:rgb(0%,0%,0%);fill-opacity:1;" d="M 237.421875 20 L 237.421875 0 L 257.421875 0 L 257.421875 20 Z M 237.421875 20 "/>
<path style=" stroke:none;fill-rule:nonzero;fill:rgb(0%,0%,0%);fill-opacity:1;" d="M 273.421875 220 L 273.421875 200 L 293.421875 200 L 293.421875 220 Z M 273.421875 220 "/>
<path style=" stroke:none;fill-rule:nonzero;fill:rgb(0%,0%,0%);fill-opacity:1;" d="M 273.421875 180 L 273.421875 160 L 293.421875 160 L 293.421875 180 Z M 273.421875 180 "/>
<path style=" stroke:none;fill-rule:nonzero;fill:rgb(0%,0%,0%);fill-opacity:1;" d="M 273.421875 140 L 273.421875 120 L 293.421875 120 L 293.421875 140 Z M 273.421875 140 "/>
<path style=" stroke:none;fill-rule:nonzero;fill:rgb(0%,0%,0%);fill-opacity:1;" d="M 273.421875 100 L 273.421875 80 L 293.421875 80 L 293.421875 100 Z M 273.421875 100 "/>
<path style=" stroke:none;fill-rule:nonzero;fill:rgb(0%,0%,0%);fill-opacity:1;" d="M 273.421875 60 L 273.421875 40 L 293.421875 40 L 293.421875 60 Z M 273.421875 60 "/>
<path style=" stroke:none;fill-rule:nonzero;fill:rgb(0%,0%,0%);fill-opacity:1;" d="M 273.421875 20 L 273.421875 0 L 293.421875 0 L 293.421875 20 Z M 273.421875 20 "/>
<path style=" stroke:none;fill-rule:nonzero;fill:rgb(0%,0%,0%);fill-opacity:1;" d="M 309.421875 220 L 309.421875 200 L 329.421875 200 L 329.421875 220 Z M 309.421875 220 "/>
<path style=" stroke:none;fill-rule:nonzero;fill:rgb(0%,0%,0%);fill-opacity:1;" d="M 309.421875 180 L 309.421875 160 L 329.421875 160 L 329.421875 180 Z M 309.421875 180 "/>
<path style=" stroke:none;fill-rule:nonzero;fill:rgb(0%,0%,0%);fill-opacity:1;" d="M 309.421875 140 L 309.421875 120 L 329.421875 120 L 329.421875 140 Z M 309.421875 140 "/>
<path style=" stroke:none;fill-rule:nonzero;fill:rgb(0%,0%,0%);fill-opacity:1;" d="M 309.421875 100 L 309.421875 80 L 329.421875 80 L 329.421875 100 Z M 309.421875 100 "/>
<path style=" stroke:none;fill-rule:nonzero;fill:rgb(0%,0%,0%);fill-opacity:1;" d="M 309.421875 60 L 309.421875 40 L 329.421875 40 L 329.421875 60 Z M 309.421875 60 "/>
<path style=" stroke:none;fill-rule:nonzero;fill:rgb(0%,0%,0%);fill-opacity:1;" d="M 309.421875 20 L 309.421875 0 L 329.421875 0 L 329.421875 20 Z M 309.421875 20 "/>
<path style=" stroke:none;fill-rule:nonzero;fill:rgb(0%,0%,0%);fill-opacity:1;" d="M 345.421875 220 L 345.421875 200 L 365.421875 200 L 365.421875 220 Z M 345.421875 220 "/>
<path style=" stroke:none;fill-rule:nonzero;fill:rgb(0%,0%,0%);fill-opacity:1;" d="M 345.421875 180 L 345.421875 160 L 365.421875 160 L 365.421875 180 Z M 345.421875 180 "/>
<path style=" stroke:none;fill-rule:nonzero;fill:rgb(0%,0%,0%);fill-opacity:1;" d="M 345.421875 140 L 345.421875 120 L 365.421875 120 L 365.421875 140 Z M 345.421875 140 "/>
<path style=" stroke:none;fill-rule:nonzero;fill:rgb(0%,0%,0%);fill-opacity:1;" d="M 345.421875 100 L 345.421875 80 L 365.421875 80 L 365.421875 100 Z M 345.421875 100 "/>
<path style=" stroke:none;fill-rule:nonzero;fill:rgb(0%,0%,0%);fill-opacity:1;" d="M 345.421875 60 L 345.421875 40 L 365.421875 40 L 365.421875 60 Z M 345.421875 60 "/>
<path style=" stroke:none;fill-rule:nonzero;fill:rgb(0%,0%,0%);fill-opacity:1;" d="M 345.421875 20 L 345.421875 0 L 365.421875 0 L 365.421875 20 Z M 345.421875 20 "/>
<path style=" stroke:none;fill-rule:nonzero;fill:rgb(0%,0%,0%);fill-opacity:1;" d="M 381.421875 220 L 381.421875 200 L 401.421875 200 L 401.421875 220 Z M 381.421875 220 "/>
<path style=" stroke:none;fill-rule:nonzero;fill:rgb(0%,0%,0%);fill-opacity:1;" d="M 381.421875 180 L 381.421875 160 L 401.421875 160 L 401.421875 180 Z M 381.421875 180 "/>
<path style=" stroke:none;fill-rule:nonzero;fill:rgb(0%,0%,0%);fill-opacity:1;" d="M 381.421875 140 L 381.421875 120 L 401.421875 120 L 401.421875 140 Z M 381.421875 140 "/>
<path style=" stroke:none;fill-rule:nonzero;fill:rgb(0%,0%,0%);fill-opacity:1;" d="M 381.421875 100 L 381.421875 80 L 401.421875 80 L 401.421875 100 Z M 381.421875 100 "/>
<path style=" stroke:none;fill-rule:nonzero;fill:rgb(0%,0%,0%);fill-opacity:1;" d="M 381.421875 60 L 381.421875 40 L 401.421875 40 L 401.421875 60 Z M 381.421875 60 "/>
<path style=" stroke:none;fill-rule:nonzero;fill:rgb(0%,0%,0%);fill-opacity:1;" d="M 381.421875 20 L 381.421875 0 L 401.421875 0 L 401.421875 20 Z M 381.421875 20 "/>
<path style=" stroke:none;fill-rule:nonzero;fill:rgb(0%,0%,0%);fill-opacity:1;" d="M -6.308594 200 L -6.308594 180 L 13.691406 180 L 13.691406 200 Z M -6.308594 200 "/>
<path style=" stroke:none;fill-rule:nonzero;fill:rgb(0%,0%,0%);fill-opacity:1;" d="M -6.308594 160 L -6.308594 140 L 13.691406 140 L 13.691406 160 Z M -6.308594 160 "/>
<path style=" stroke:none;fill-rule:nonzero;fill:rgb(0%,0%,0%);fill-opacity:1;" d="M -6.308594 120 L -6.308594 100 L 13.691406 100 L 13.691406 120 Z M -6.308594 120 "/>
<path style=" stroke:none;fill-rule:nonzero;fill:rgb(0%,0%,0%);fill-opacity:1;" d="M -6.308594 80 L -6.308594 60 L 13.691406 60 L 13.691406 80 Z M -6.308594 80 "/>
<path style=" stroke:none;fill-rule:nonzero;fill:rgb(0%,0%,0%);fill-opacity:1;" d="M -6.308594 40 L -6.308594 20 L 13.691406 20 L 13.691406 40 Z M -6.308594 40 "/>
<path style=" stroke:none;fill-rule:nonzero;fill:rgb(0%,0%,0%);fill-opacity:1;" d="M 29.691406 200 L 29.691406 180 L 49.691406 180 L 49.691406 200 Z M 29.691406 200 "/>
<path style=" stroke:none;fill-rule:nonzero;fill:rgb(0%,0%,0%);fill-opacity:1;" d="M 29.691406 160 L 29.691406 140 L 49.691406 140 L 49.691406 160 Z M 29.691406 160 "/>
<path style=" stroke:none;fill-rule:nonzero;fill:rgb(0%,0%,0%);fill-opacity:1;" d="M 29.691406 120 L 29.691406 100 L 49.691406 100 L 49.691406 120 Z M 29.691406 120 "/>
<path style=" stroke:none;fill-rule:nonzero;fill:rgb(0%,0%,0%);fill-opacity:1;" d="M 29.691406 80 L 29.691406 60 L 49.691406 60 L 49.691406 80 Z M 29.691406 80 "/>
<path style=" stroke:none;fill-rule:nonzero;fill:rgb(0%,0%,0%);fill-opacity:1;" d="M 29.691406 40 L 29.691406 20 L 49.691406 20 L 49.691406 40 Z M 29.691406 40 "/>
<path style=" stroke:none;fill-rule:nonzero;fill:rgb(0%,0%,0%);fill-opacity:1;" d="M 65.691406 200 L 65.691406 180 L 85.691406 180 L 85.691406 200 Z M 65.691406 200 "/>
<path style=" stroke:none;fill-rule:nonzero;fill:rgb(0%,0%,0%);fill-opacity:1;" d="M 65.691406 160 L 65.691406 140 L 85.691406 140 L 85.691406 160 Z M 65.691406 160 "/>
<path style=" stroke:none;fill-rule:nonzero;fill:rgb(0%,0%,0%);fill-opacity:1;" d="M 65.691406 120 L 65.691406 100 L 85.691406 100 L 85.691406 120 Z M 65.691406 120 "/>
<path style=" stroke:none;fill-rule:nonzero;fill:rgb(0%,0%,0%);fill-opacity:1;" d="M 65.691406 80 L 65.691406 60 L 85.691406 60 L 85.691406 80 Z M 65.691406 80 "/>
<path style=" stroke:none;fill-rule:nonzero;fill:rgb(0%,0%,0%);fill-opacity:1;" d="M 65.691406 40 L 65.691406 20 L 85.691406 20 L 85.691406 40 Z M 65.691406 40 "/>
<path style=" stroke:none;fill-rule:nonzero;fill:rgb(0%,0%,0%);fill-opacity:1;" d="M 101.691406 200 L 101.691406 180 L 121.691406 180 L 121.691406 200 Z M 101.691406 200 "/>
<path style=" stroke:none;fill-rule:nonzero;fill:rgb(0%,0%,0%);fill-opacity:1;" d="M 101.691406 160 L 101.691406 140 L 121.691406 140 L 121.691406 160 Z M 101.691406 160 "/>
<path style=" stroke:none;fill-rule:nonzero;fill:rgb(0%,0%,0%);fill-opacity:1;" d="M 101.691406 120 L 101.691406 100 L 121.691406 100 L 121.691406 120 Z M 101.691406 120 "/>
<path style=" stroke:none;fill-rule:nonzero;fill:rgb(0%,0%,0%);fill-opacity:1;" d="M 101.691406 80 L 101.691406 60 L 121.691406 60 L 121.691406 80 Z M 101.691406 80 "/>
<path style=" stroke:none;fill-rule:nonzero;fill:rgb(0%,0%,0%);fill-opacity:1;" d="M 101.691406 40 L 101.691406 20 L 121.691406 20 L 121.691406 40 Z M 101.691406 40 "/>
<path style=" stroke:none;fill-rule:nonzero;fill:rgb(0%,0%,0%);fill-opacity:1;" d="M 137.691406 200 L 137.691406 180 L 157.691406 180 L 157.691406 200 Z M 137.691406 200 "/>
<path style=" stroke:none;fill-rule:nonzero;fill:rgb(0%,0%,0%);fill-opacity:1;" d="M 137.691406 160 L 137.691406 140 L 157.691406 140 L 157.691406 160 Z M 137.691406 160 "/>
<path style=" stroke:none;fill-rule:nonzero;fill:rgb(0%,0%,0%);fill-opacity:1;" d="M 137.691406 120 L 137.691406 100 L 157.691406 100 L 157.691406 120 Z M 137.691406 120 "/>
<path style=" stroke:none;fill-rule:nonzero;fill:rgb(0%,0%,0%);fill-opacity:1;" d="M 137.691406 80 L 137.691406 60 L 157.691406 60 L 157.691406 80 Z M 137.691406 80 "/>
<path style=" stroke:none;fill-rule:nonzero;fill:rgb(0%,0%,0%);fill-opacity:1;" d="M 137.691406 40 L 137.691406 20 L 157.691406 20 L 157.691406 40 Z M 137.691406 40 "/>
<path style=" stroke:none;fill-rule:nonzero;fill:rgb(0%,0%,0%);fill-opacity:1;" d="M 173.691406 200 L 173.691406 180 L 193.691406 180 L 193.691406 200 Z M 173.691406 200 "/>
<path style=" stroke:none;fill-rule:nonzero;fill:rgb(0%,0%,0%);fill-opacity:1;" d="M 173.691406 160 L 173.691406 140 L 193.691406 140 L 193.691406 160 Z M 173.691406 160 "/>
<path style=" stroke:none;fill-rule:nonzero;fill:rgb(0%,0%,0%);fill-opacity:1;" d="M 173.691406 120 L 173.691406 100 L 193.691406 100 L 193.691406 120 Z M 173.691406 120 "/>
<path style=" stroke:none;fill-rule:nonzero;fill:rgb(0%,0%,0%);fill-opacity:1;" d="M 173.691406 80 L 173.691406 60 L 193.691406 60 L 193.691406 80 Z M 173.691406 80 "/>
<path style=" stroke:none;fill-rule:nonzero;fill:rgb(0%,0%,0%);fill-opacity:1;" d="M 173.691406 40 L 173.691406 20 L 193.691406 20 L 193.691406 40 Z M 173.691406 40 "/>
<path style=" stroke:none;fill-rule:nonzero;fill:rgb(0%,0%,0%);fill-opacity:1;" d="M 209.691406 200 L 209.691406 180 L 229.691406 180 L 229.691406 200 Z M 209.691406 200 "/>
<path style=" stroke:none;fill-rule:nonzero;fill:rgb(0%,0%,0%);fill-opacity:1;" d="M 209.691406 160 L 209.691406 140 L 229.691406 140 L 229.691406 160 Z M 209.691406 160 "/>
<path style=" stroke:none;fill-rule:nonzero;fill:rgb(0%,0%,0%);fill-opacity:1;" d="M 209.691406 120 L 209.691406 100 L 229.691406 100 L 229.691406 120 Z M 209.691406 120 "/>
<path style=" stroke:none;fill-rule:nonzero;fill:rgb(0%,0%,0%);fill-opacity:1;" d="M 209.691406 80 L 209.691406 60 L 229.691406 60 L 229.691406 80 Z M 209.691406 80 "/>
<path style=" stroke:none;fill-rule:nonzero;fill:rgb(0%,0%,0%);fill-opacity:1;" d="M 209.691406 40 L 209.691406 20 L 229.691406 20 L 229.691406 40 Z M 209.691406 40 "/>
<path style=" stroke:none;fill-rule:nonzero;fill:rgb(0%,0%,0%);fill-opacity:1;" d="M 245.691406 200 L 245.691406 180 L 265.691406 180 L 265.691406 200 Z M 245.691406 200 "/>
<path style=" stroke:none;fill-rule:nonzero;fill:rgb(0%,0%,0%);fill-opacity:1;" d="M 245.691406 160 L 245.691406 140 L 265.691406 140 L 265.691406 160 Z M 245.691406 160 "/>
<path style=" stroke:none;fill-rule:nonzero;fill:rgb(0%,0%,0%);fill-opacity:1;" d="M 245.691406 120 L 245.691406 100 L 265.691406 100 L 265.691406 120 Z M 245.691406 120 "/>
<path style=" stroke:none;fill-rule:nonzero;fill:rgb(0%,0%,0%);fill-opacity:1;" d="M 245.691406 80 L 245.691406 60 L 265.691406 60 L 265.691406 80 Z M 245.691406 80 "/>
<path style=" stroke:none;fill-rule:nonzero;fill:rgb(0%,0%,0%);fill-opacity:1;" d="M 245.691406 40 L 245.691406 20 L 265.691406 20 L 265.691406 40 Z M 245.691406 40 "/>
<path style=" stroke:none;fill-rule:nonzero;fill:rgb(0%,0%,0%);fill-opacity:1;" d="M 281.691406 200 L 281.691406 180 L 301.691406 180 L 301.691406 200 Z M 281.691406 200 "/>
<path style=" stroke:none;fill-rule:nonzero;fill:rgb(0%,0%,0%);fill-opacity:1;" d="M 281.691406 160 L 281.691406 140 L 301.691406 140 L 301.691406 160 Z M 281.691406 160 "/>
<path style=" stroke:none;fill-rule:nonzero;fill:rgb(0%,0%,0%);fill-opacity:1;" d="M 281.691406 120 L 281.691406 100 L 301.691406 100 L 301.691406 120 Z M 281.691406 120 "/>
<path style=" stroke:none;fill-rule:nonzero;fill:rgb(0%,0%,0%);fill-opacity:1;" d="M 281.691406 80 L 281.691406 60 L 301.691406 60 L 301.691406 80 Z M 281.691406 80 "/>
<path style=" stroke:none;fill-rule:nonzero;fill:rgb(0%,0%,0%);fill-opacity:1;" d="M 281.691406 40 L 281.691406 20 L 301.691406 20 L 301.691406 40 Z M 281.691406 40 "/>
<path style=" stroke:none;fill-rule:nonzero;fill:rgb(0%,0%,0%);fill-opacity:1;" d="M 317.691406 200 L 317.691406 180 L 337.691406 180 L 337.691406 200 Z M 317.691406 200 "/>
<path style=" stroke:none;fill-rule:nonzero;fill:rgb(0%,0%,0%);fill-opacity:1;" d="M 317.691406 160 L 317.691406 140 L 337.691406 140 L 337.691406 160 Z M 317.691406 160 "/>
<path style=" stroke:none;fill-rule:nonzero;fill:rgb(0%,0%,0%);fill-opacity:1;" d="M 317.691406 120 L 317.691406 100 L 337.691406 100 L 337.691406 120 Z M 317.691406 120 "/>
<path style=" stroke:none;fill-rule:nonzero;fill:rgb(0%,0%,0%);fill-opacity:1;" d="M 317.691406 80 L 317.691406 60 L 337.691406 60 L 337.691406 80 Z M 317.691406 80 "/>
<path style=" stroke:none;fill-rule:nonzero;fill:rgb(0%,0%,0%);fill-opacity:1;" d="M 317.691406 40 L 317.691406 20 L 337.691406 20 L 337.691406 40 Z M 317.691406 40 "/>
<path style=" stroke:none;fill-rule:nonzero;fill:rgb(0%,0%,0%);fill-opacity:1;" d="M 353.691406 200 L 353.691406 180 L 373.691406 180 L 373.691406 200 Z M 353.691406 200 "/>
<path style=" stroke:none;fill-rule:nonzero;fill:rgb(0%,0%,0%);fill-opacity:1;" d="M 353.691406 160 L 353.691406 140 L 373.691406 140 L 373.691406 160 Z M 353.691406 160 "/>
<path style=" stroke:none;fill-rule:nonzero;fill:rgb(0%,0%,0%);fill-opacity:1;" d="M 353.691406 120 L 353.691406 100 L 373.691406 100 L 373.691406 120 Z M 353.691406 120 "/>
<path style=" stroke:none;fill-rule:nonzero;fill:rgb(0%,0%,0%);fill-opacity:1;" d="M 353.691406 80 L 353.691406 60 L 373.691406 60 L 373.691406 80 Z M 353.691406 80 "/>
<path style=" stroke:none;fill-rule:nonzero;fill:rgb(0%,0%,0%);fill-opacity:1;" d="M 353.691406 40 L 353.691406 20 L 373.691406 20 L 373.691406 40 Z M 353.691406 40 "/>
<path style=" stroke:none;fill-rule:nonzero;fill:rgb(0%,0%,0%);fill-opacity:1;" d="M 389.691406 200 L 389.691406 180 L 409.691406 180 L 409.691406 200 Z M 389.691406 200 "/>
<path style=" stroke:none;fill-rule:nonzero;fill:rgb(0%,0%,0%);fill-opacity:1;" d="M 389.691406 160 L 389.691406 140 L 409.691406 140 L 409.691406 160 Z M 389.691406 160 "/>
<path style=" stroke:none;fill-rule:nonzero;fill:rgb(0%,0%,0%);fill-opacity:1;" d="M 389.691406 120 L 389.691406 100 L 409.691406 100 L 409.691406 120 Z M 389.691406 120 "/>
<path style=" stroke:none;fill-rule:nonzero;fill:rgb(0%,0%,0%);fill-opacity:1;" d="M 389.691406 80 L 389.691406 60 L 409.691406 60 L 409.691406 80 Z M 389.691406 80 "/>
<path style=" stroke:none;fill-rule:nonzero;fill:rgb(0%,0%,0%);fill-opacity:1;" d="M 389.691406 40 L 389.691406 20 L 409.691406 20 L 409.691406 40 Z M 389.691406 40 "/>
<path style="fill:none;stroke-width:1;stroke-linecap:square;stroke-linejoin:miter;stroke:rgb(100%,0%,0%);stroke-opacity:1;stroke-miterlimit:3.25;" d="M 0 220 L 400 220 "/>
<path style="fill:none;stroke-width:1;stroke-linecap:square;stroke-linejoin:miter;stroke:rgb(100%,0%,0%);stroke-opacity:1;stroke-miterlimit:3.25;" d="M 0 200 L 400 200 "/>
<path style="fill:none;stroke-width:1;stroke-linecap:square;stroke-linejoin:miter;stroke:rgb(100%,0%,0%);stroke-opacity:1;stroke-miterlimit:3.25;" d="M 0 180 L 400 180 "/>
<path style="fill:none;stroke-width:1;stroke-linecap:square;stroke-linejoin:miter;stroke:rgb(100%,0%,0%);stroke-opacity:1;stroke-miterlimit:3.25;" d="M 0 160 L 400 160 "/>
<path style="fill:none;stroke-width:1;stroke-linecap:square;stroke-linejoin:miter;stroke:rgb(100%,0%,0%);stroke-opacity:1;stroke-miterlimit:3.25;" d="M 0 140 L 400 140 "/>
<path style="fill:none;stroke-width:1;stroke-linecap:square;stroke-linejoin:miter;stroke:rgb(100%,0%,0%);stroke-opacity:1;stroke-miterlimit:3.25;" d="M 0 120 L 400 120 "/>
<path style="fill:none;stroke-width:1;stroke-linecap:square;stroke-linejoin:miter;stroke:rgb(100%,0%,0%);stroke-opacity:1;stroke-miterlimit:3.25;" d="M 0 100 L 400 100 "/>
<path style="fill:none;stroke-width:1;stroke-linecap:square;stroke-linejoin:miter;stroke:rgb(100%,0%,0%);stroke-opacity:1;stroke-miterlimit:3.25;" d="M 0 80 L 400 80 "/>
<path style="fill:none;stroke-width:1;stroke-linecap:square;stroke-linejoin:miter;stroke:rgb(100%,0%,0%);stroke-opacity:1;stroke-miterlimit:3.25;" d="M 0 60 L 400 60 "/>
<path style="fill:none;stroke-width:1;stroke-linecap:square;stroke-linejoin:miter;stroke:rgb(100%,0%,0%);stroke-opacity:1;stroke-miterlimit:3.25;" d="M 0 40 L 400 40 "/>
<path style="fill:none;stroke-width:1;stroke-linecap:square;stroke-linejoin:miter;stroke:rgb(100%,0%,0%);stroke-opacity:1;stroke-miterlimit:3.25;" d="M 0 20 L 400 20 "/>
</g>
</svg>
