<?xml version="1.0" encoding="UTF-8"?>
<svg xmlns="http://www.w3.org/2000/svg" xmlns:xlink="http://www.w3.org/1999/xlink" width="400pt" height="220pt" viewBox="0 0 400 220" version="1.1">
<g id="surface571">
<rect x="0" y="0" width="400" height="220" style="fill:rgb(0%,40%,100%);fill-opacity:0.2;stroke:none;"/>
<path style=" stroke:none;fill-rule:nonzero;fill:rgb(0%,0%,0%);fill-opacity:1;" d="M 16.179688 220 L 16.179688 200 L 36.179688 200 L 36.179688 220 Z M 16.179688 220 "/>
<path style=" stroke:none;fill-rule:nonzero;fill:rgb(0%,0%,0%);fill-opacity:1;" d="M 16.179688 180 L 16.179688 160 L 36.179688 160 L 36.179688 180 Z M 16.179688 180 "/>
<path style=" stroke:none;fill-rule:nonzero;fill:rgb(0%,0%,0%);fill-opacity:1;" d="M 16.179688 140 L 16.179688 120 L 36.179688 120 L 36.179688 140 Z M 16.179688 140 "/>
<path style=" stroke:none;fill-rule:nonzero;fill:rgb(0%,0%,0%);fill-opacity:1;" d="M 16.179688 100 L 16.179688 80 L 36.179688 80 L 36.179688 100 Z M 16.179688 100 "/>
<path style=" stroke:none;fill-rule:nonzero;fill:rgb(0%,0%,0%);fill-opacity:1;" d="M 16.179688 60 L 16.179688 40 L 36.179688 40 L 36.179688 60 Z M 16.179688 60 "/>
<path style=" stroke:none;fill-rule:nonzero;fill:rgb(0%,0%,0%);fill-opacity:1;" d="M 16.179688 20 L 16.179688 0 L 36.179688 0 L 36.179688 20 Z M 16.179688 20 "/>
<path style=" stroke:none;fill-rule:nonzero;fill:rgb(0%,0%,0%);fill-opacity:1;" d="M 52.179688 220 L 52.179688 200 L 72.179688 200 L 72.179688 220 Z M 52.179688 220 "/>
<path style=" stroke:none;fill-rule:nonzero;fill:rgb(0%,0%,0%);fill-opacity:1;" d="M 52.179688 180 L 52.179688 160 L 72.179688 160 L 72.179688 180 Z M 52.179688 180 "/>
<path style=" stroke:none;fill-rule:nonzero;fill:rgb(0%,0%,0%);fill-opacity:1;" d="M 52.179688 140 L 52.179688 120 L 72.179688 120 L 72.179688 140 Z M 52.179688 140 "/>
<path style=" stroke:none;fill-rule:nonzero;fill:rgb(0%,0%,0%);fill-opacity:1;" d="M 52.179688 100 L 52.179688 80 L 72.179688 80 L 72.179688 100 Z M 52.179688 100 "/>
<path style=" stroke:none;fill-rule:nonzero;fill:rgb(0%,0%,0%);fill-opacity:1;" d="M 52.179688 60 L 52.179688 40 L 72.179688 40 L 72.179688 60 Z M 52.179688 60 "/>
<path style=" stroke:none;fill-rule:nonzero;fill:rgb(0%,0%,0%);fill-opacity:1;" d="M 52.179688 20 L 52.179688 0 L 72.179688 0 L 72.179688 20 Z M 52.179688 20 "/>
<path style=" stroke:none;fill-rule:nonzero;fill:rgb(0%,0%,0%);fill-opacity:1;" d="M 88.179688 220 L 88.179688 200 L 108.179688 200 L 108.179688 220 Z M 88.179688 220 "/>
<path style=" stroke:none;fill-rule:nonzero;fill:rgb(0%,0%,0%);fill-opacity:1;" d="M 88.179688 180 L 88.179688 160 L 108.179688 160 L 108.179688 180 Z M 88.179688 180 "/>
<path style=" stroke:none;fill-rule:nonzero;fill:rgb(0%,0%,0%);fill-opacity:1;" d="M 88.179688 140 L 88.179688 120 L 108.179688 120 L 108.179688 140 Z M 88.179688 140 "/>
<path style=" stroke:none;fill-rule:nonzero;fill:rgb(0%,0%,0%);fill-opacity:1;" d="M 88.179688 100 L 88.179688 80 L 108.179688 80 L 108.179688 100 Z M 88.179688 100 "/>
<path style=" stroke:none;fill-rule:nonzero;fill:rgb(0%,0%,0%);fill-opacity:1;" d="M 88.179688 60 L 88.179688 40 L 108.179688 40 L 108.179688 60 Z M 88.179688 60 "/>
<path style=" stroke:none;fill-rule:nonzero;fill:rgb(0%,0%,0%);fill-opacity:1;" d="M 88.179688 20 L 88.179688 0 L 108.179688 0 L 108.179688 20 Z M 88.179688 20 "/>
<path style=" stroke:none;fill-rule:nonzero;fill:rgb(0%,0%,0%);fill-opacity:1;" d="M 124.179688 220 L 124.179688 200 L 144.179688 200 L 144.179688 220 Z M 124.179688 220 "/>
<path style=" stroke:none;fill-rule:nonzero;fill:rgb(0%,0%,0%);fill-opacity:1;" d="M 124.179688 180 L 124.179688 160 L 144.179688 160 L 144.179688 180 Z M 124.179688 180 "/>
<path style=" stroke:none;fill-rule:nonzero;fill:rgb(0%,0%,0%);fill-opacity:1;" d="M 124.179688 140 L 124.179688 120 L 144.179688 120 L 144.179688 140 Z M 124.179688 140 "/>
<path style=" stroke:none;fill-rule:nonzero;fill:rgb(0%,0%,0%);fill-opacity:1;" d="M 124.179688 100 L 124.179688 80 L 144.179688 80 L 144.179688 100 Z M 124.179688 100 "/>
<path style=" stroke:none;fill-rule:nonzero;fill:rgb(0%,0%,0%);fill-opacity:1;" d="M 124.179688 60 L 124.179688 40 L 144.179688 40 L 144.179688 60 Z M 124.179688 60 "/>
<path style=" stroke:none;fill-rule:nonzero;fill:rgb(0%,0%,0%);fill-opacity:1;" d="M 124.179688 20 L 124.179688 0 L 144.179688 0 L 144.179688 20 Z M 124.179688 20 "/>
<path style=" stroke:none;fill-rule:nonzero;fill:rgb(0%,0%,0%);fill-opacity:1;" d="M 160.179688 220 L 160.179688 200 L 180.179688 200 L 180.179688 220 Z M 160.179688 220 "/>
<path style=" stroke:none;fill-rule:nonzero;fill:rgb(0%,0%,0%);fill-opacity:1;" d="M 160.179688 180 L 160.179688 160 L 180.179688 160 L 180.179688 180 Z M 160.179688 180 "/>
<path style=" stroke:none;fill-rule:nonzero;fill:rgb(0%,0%,0%);fill-opacity:1;" d="M 160.179688 140 L 160.179688 120 L 180.179688 120 L 180.179688 140 Z M 160.179688 140 "/>
<path style=" stroke:none;fill-rule:nonzero;fill:rgb(0%,0%,0%);fill-opacity:1;" d="M 160.179688 100 L 160.179688 80 L 180.179688 80 L 180.179688 100 Z M 160.179688 100 "/>
<path style=" stroke:none;fill-rule:nonzero;fill:rgb(0%,0%,0%);fill-opacity:1;" d="M 160.179688 60 L 160.179688 40 L 180.179688 40 L 180.179688 60 Z M 160.179688 60 "/>
<path style=" stroke:none;fill-rule:nonzero;fill:rgb(0%,0%,0%);fill-opacity:1;" d="M 160.179688 20 L 160.179688 0 L 180.179688 0 L 180.179688 20 Z M 160.179688 20 "/>
<path style=" stroke:none;fill-rule:nonzero;fill:rgb(0%,0%,0%);fill-opacity:1;" d="M 196.179688 220 L 196.179688 200 L 216.179688 200 L 216.179688 220 Z M 196.179688 220 "/>
<path style=" stroke:none;fill-rule:nonzero;fill:rgb(0%,0%,0%);fill-opacity:1;" d="M 196.179688 180 L 196.179688 160 L 216.179688 160 L 216.179688 180 Z M 196.179688 180 "/>
<path style=" stroke:none;fill-rule:nonzero;fill:rgb(0%,0%,0%);fill-opacity:1;" d="M 196.179688 140 L 196.179688 120 L 216.179688 120 L 216.179688 140 Z M 196.179688 140 "/>
<path style=" stroke:none;fill-rule:nonzero;fill:rgb(0%,0%,0%);fill-opacity:1;" d="M 196.179688 100 L 196.179688 80 L 216.179688 80 L 216.179688 100 Z M 196.179688 100 "/>
<path style=" stroke:none;fill-rule:nonzero;fill:rgb(0%,0%,0%);fill-opacity:1;" d="M 196.179688 60 L 196.179688 40 L 216.179688 40 L 216.179688 60 Z M 196.179688 60 "/>
<path style=" stroke:none;fill-rule:nonzero;fill:rgb(0%,0%,0%);fill-opacity:1;" d="M 196.179688 20 L 196.179688 0 L 216.179688 0 L 216.179688 20 Z M 196.179688 20 "/>
<path style=" stroke:none;fill-rule:nonzero;fill:rgb(0%,0%,0%);fill-opacity:1;" d="M 232.179688 220 L 232.179688 200 L 252.179688 200 L 252.179688 220 Z M 232.179688 220 "/>
<path style=" stroke:none;fill-rule:nonzero;fill:rgb(0%,0%,0%);fill-opacity:1;" d="M 232.179688 180 L 232.179688 160 L 252.179688 160 L 252.179688 180 Z M 232.179688 180 "/>
<path style=" stroke:none;fill-rule:nonzero;fill:rgb(0%,0%,0%);fill-opacity:1;" d="M 232.179688 140 L 232.179688 120 L 252.179688 120 L 252.179688 140 Z M 232.179688 140 "/>
<path style=" stroke:none;fill-rule:nonzero;fill:rgb(0%,0%,0%);fill-opacity:1;" d="M 232.179688 100 L 232.179688 80 L 252.179688 80 L 252.179688 100 Z M 232.179688 100 "/>
<path style=" stroke:none;fill-rule:nonzero;fill:rgb(0%,0%,0%);fill-opacity:1;" d="M 232.179688 60 L 232.179688 40 L 252.179688 40 L 252.179688 60 Z M 232.179688 60 "/>
<path style=" stroke:none;fill-rule:nonzero;fill:rgb(0%,0%,0%);fill-opacity:1;" d="M 232.179688 20 L 232.179688 0 L 252.179688 0 L 252.179688 20 Z M 232.179688 20 "/>
<path style=" stroke:none;fill-rule:nonzero;fill:rgb(0%,0%,0%);fill-opacity:1;" d="M 268.179688 220 L 268.179688 200 L 288.179688 200 L 288.179688 220 Z M 268.179688 220 "/>
<path style=" stroke:none;fill-rule:nonzero;fill:rgb(0%,0%,0%);fill-opacity:1;" d="M 268.179688 180 L 268.179688 160 L 288.179688 160 L 288.179688 180 Z M 268.179688 180 "/>
<path style=" stroke:none;fill-rule:nonzero;fill:rgb(0%,0%,0%);fill-opacity:1;" d="M 268.179688 140 L 268.179688 120 L 288.179688 120 L 288.179688 140 Z M 268.179688 140 "/>
<path style=" stroke:none;fill-rule:nonzero;fill:rgb(0%,0%,0%);fill-opacity:1;" d="M 268.179688 100 L 268.179688 80 L 288.179688 80 L 288.179688 100 Z M 268.179688 100 "/>
<path style=" stroke:none;fill-rule:nonzero;fill:rgb(0%,0%,0%);fill-opacity:1;" d="M 268.179688 60 L 268.179688 40 L 288.179688 40 L 288.179688 60 Z M 268.179688 60 "/>
<path style=" stroke:none;fill-rule:nonzero;fill:rgb(0%,0%,0%);fill-opacity:1;" d="M 268.179688 20 L 268.179688 0 L 288.179688 0 L 288.179688 20 Z M 268.179688 20 "/>
<path style=" stroke:none;fill-rule:nonzero;fill:rgb(0%,0%,0%);fill-opacity:1;" d="M 304.179688 220 L 304.179688 200 L 324.179688 200 L 324.179688 220 Z M 304.179688 220 "/>
<path style=" stroke:none;fill-rule:nonzero;fill:rgb(0%,0%,0%);fill-opacity:1;" d="M 304.179688 180 L 304.179688 160 L 324.179688 160 L 324.179688 180 Z M 304.179688 180 "/>
<path style=" stroke:none;fill-rule:nonzero;fill:rgb(0%,0%,0%);fill-opacity:1;" d="M 304.179688 140 L 304.179688 120 L 324.179688 120 L 324.179688 140 Z M 304.179688 140 "/>
<path style=" stroke:none;fill-rule:nonzero;fill:rgb(0%,0%,0%);fill-opacity:1;" d="M 304.179688 100 L 304.179688 80 L 324.179688 80 L 324.179688 100 Z M 304.179688 100 "/>
<path style=" stroke:none;fill-rule:nonzero;fill:rgb(0%,0%,0%);fill-opacity:1;" d="M 304.179688 60 L 304.179688 40 L 324.179688 40 L 324.179688 60 Z M 304.179688 60 "/>
<path style=" stroke:none;fill-rule:nonzero;fill:rgb(0%,0%,0%);fill-opacity:1;" d="M 304.179688 20 L 304.179688 0 L 324.179688 0 L 324.179688 20 Z M 304.179688 20 "/>
<path style=" stroke:none;fill-rule:nonzero;fill:rgb(0%,0%,0%);fill-opacity:1;" d="M 340.179688 220 L 340.179688 200 L 360.179688 200 L 360.179688 220 Z M 340.179688 220 "/>
<path style=" stroke:none;fill-rule:nonzero;fill:rgb(0%,0%,0%);fill-opacity:1;" d="M 340.179688 180 L 340.179688 160 L 360.179688 160 L 360.179688 180 Z M 340.179688 180 "/>
<path style=" stroke:none;fill-rule:nonzero;fill:rgb(0%,0%,0%);fill-opacity:1;" d="M 340.179688 140 L 340.179688 120 L 360.179688 120 L 360.179688 140 Z M 340.179688 140 "/>
<path style=" stroke:none;fill-rule:nonzero;fill:rgb(0%,0%,0%);fill-opacity:1;" d="M 340.179688 100 L 340.179688 80 L 360.179688 80 L 360.179688 100 Z M 340.179688 100 "/>
<path style=" stroke:none;fill-rule:nonzero;fill:rgb(0%,0%,0%);fill-opacity:1;" d="M 340.179688 60 L 340.179688 40 L 360.179688 40 L 360.179688 60 Z M 340.179688 60 "/>
<path style=" stroke:none;fill-rule:nonzero;fill:rgb(0%,0%,0%);fill-opacity:1;" d="M 340.179688 20 L 340.179688 0 L 360.179688 0 L 360.179688 20 Z M 340.179688 20 "/>
<path style=" stroke:none;fill-rule:nonzero;fill:rgb(0%,0%,0%);fill-opacity:1;" d="M 376.179688 220 L 376.179688 200 L 396.179688 200 L 396.179688 220 Z M 376.179688 220 "/>
<path style=" stroke:none;fill-rule:nonzero;fill:rgb(0%,0%,0%);fill-opacity:1;" d="M 376.179688 180 L 376.179688 160 L 396.179688 160 L 396.179688 180 Z M 376.179688 180 "/>
<path style=" stroke:none;fill-rule:nonzero;fill:rgb(0%,0%,0%);fill-opacity:1;" d="M 376.179688 140 L 376.179688 120 L 396.179688 120 L 396.179688 140 Z M 376.179688 140 "/>
<path style=" stroke:none;fill-rule:nonzero;fill:rgb(0%,0%,0%);fill-opacity:1;" d="M 376.179688 100 L 376.179688 80 L 396.179688 80 L 396.179688 100 Z M 376.179688 100 "/>
<path style=" stroke:none;fill-rule:nonzero;fill:rgb(0%,0%,0%);fill-opacity:1;" d="M 376.179688 60 L 376.179688 40 L 396.179688 40 L 396.179688 60 Z M 376.179688 60 "/>
<path style=" stroke:none;fill-rule:nonzero;fill:rgb(0%,0%,0%);fill-opacity:1;" d="M 376.179688 20 L 376.179688 0 L 396.179688 0 L 396.179688 20 Z M 376.179688 20 "/>
<path style=" stroke:none;fill-rule:nonzero;fill:rgb(0%,0%,0%);fill-opacity:1;" d="M 4.246094 200 L 4.246094 180 L 24.246094 180 L 24.246094 200 Z M 4.246094 200 "/>
<path style=" stroke:none;fill-rule:nonzero;fill:rgb(0%,0%,0%);fill-opacity:1;" d="M 4.246094 160 L 4.246094 140 L 24.246094 140 L 24.246094 160 Z M 4.246094 160 "/>
<path style=" stroke:none;fill-rule:nonzero;fill:rgb(0%,0%,0%);fill-opacity:1;" d="M 4.246094 120 L 4.246094 100 L 24.246094 100 L 24.246094 120 Z M 4.246094 120 "/>
<path style=" stroke:none;fill-rule:nonzero;fill:rgb(0%,0%,0%);fill-opacity:1;" d="M 4.246094 80 L 4.246094 60 L 24.246094 60 L 24.246094 80 Z M 4.246094 80 "/>
<path style=" stroke:none;fill-rule:nonzero;fill:rgb(0%,0%,0%);fill-opacity:1;" d="M 4.246094 40 L 4.246094 20 L 24.246094 20 L 24.246094 40 Z M 4.246094 40 "/>
<path style=" stroke:none;fill-rule:nonzero;fill:rgb(0%,0%,0%);fill-opacity:1;" d="M 40.246094 200 L 40.246094 180 L 60.246094 180 L 60.246094 200 Z M 40.246094 200 "/>
<path style=" stroke:none;fill-rule:nonzero;fill:rgb(0%,0%,0%);fill-opacity:1;" d="M 40.246094 160 L 40.246094 140 L 60.246094 140 L 60.246094 160 Z M 40.246094 160 "/>
<path style=" stroke:none;fill-rule:nonzero;fill:rgb(0%,0%,0%);fill-opacity:1;" d="M 40.246094 120 L 40.246094 100 L 60.246094 100 L 60.246094 120 Z M 40.246094 120 "/>
<path style=" stroke:none;fill-rule:nonzero;fill:rgb(0%,0%,0%);fill-opacity:1;" d="M 40.246094 80 L 40.246094 60 L 60.246094 60 L 60.246094 80 Z M 40.246094 80 "/>
<path style=" stroke:none;fill-rule:nonzero;fill:rgb(0%,0%,0%);fill-opacity:1;" d="M 40.246094 40 L 40.246094 20 L 60.246094 20 L 60.246094 40 Z M 40.246094 40 "/>
<path style=" stroke:none;fill-rule:nonzero;fill:rgb(0%,0%,0%);fill-opacity:1;" d="M 76.246094 200 L 76.246094 180 L 96.246094 180 L 96.246094 200 Z M 76.246094 200 "/>
<path style=" stroke:none;fill-rule:nonzero;fill:rgb(0%,0%,0%);fill-opacity:1;" d="M 76.246094 160 L 76.246094 140 L 96.246094 140 L 96.246094 160 Z M 76.246094 160 "/>
<path style=" stroke:none;fill-rule:nonzero;fill:rgb(0%,0%,0%);fill-opacity:1;" d="M 76.246094 120 L 76.246094 100 L 96.246094 100 L 96.246094 120 Z M 76.246094 120 "/>
<path style=" stroke:none;fill-rule:nonzero;fill:rgb(0%,0%,0%);fill-opacity:1;" d="M 76.246094 80 L 76.246094 60 L 96.246094 60 L 96.246094 80 Z M 76.246094 80 "/>
<path style=" stroke:none;fill-rule:nonzero;fill:rgb(0%,0%,0%);fill-opacity:1;" d="M 76.246094 40 L 76.246094 20 L 96.246094 20 L 96.246094 40 Z M 76.246094 40 "/>
<path style=" stroke:none;fill-rule:nonzero;fill:rgb(0%,0%,0%);fill-opacity:1;" d="M 112.246094 200 L 112.246094 180 L 132.246094 180 L 132.246094 200 Z M 112.246094 200 "/>
<path style=" stroke:none;fill-rule:nonzero;fill:rgb(0%,0%,0%);fill-opacity:1;" d="M 112.246094 160 L 112.246094 140 L 132.246094 140 L 132.246094 160 Z M 112.246094 160 "/>
<path style=" stroke:none;fill-rule:nonzero;fill:rgb(0%,0%,0%);fill-opacity:1;" d="M 112.246094 120 L 112.246094 100 L 132.246094 100 L 132.246094 120 Z M 112.246094 120 "/>
<path style=" stroke:none;fill-rule:nonzero;fill:rgb(0%,0%,0%);fill-opacity:1;" d="M 112.246094 80 L 112.246094 60 L 132.246094 60 L 132.246094 80 Z M 112.246094 80 "/>
<path style=" stroke:none;fill-rule:nonzero;fill:rgb(0%,0%,0%);fill-opacity:1;" d="M 112.246094 40 L 112.246094 20 L 132.246094 20 L 132.246094 40 Z M 112.246094 40 "/>
<path style=" stroke:none;fill-rule:nonzero;fill:rgb(0%,0%,0%);fill-opacity:1;" d="M 148.246094 200 L 148.246094 180 L 168.246094 180 L 168.246094 200 Z M 148.246094 200 "/>
<path style=" stroke:none;fill-rule:nonzero;fill:rgb(0%,0%,0%);fill-opacity:1;" d="M 148.246094 160 L 148.246094 140 L 168.246094 140 L 168.246094 160 Z M 148.246094 160 "/>
<path style=" stroke:none;fill-rule:nonzero;fill:rgb(0%,0%,0%);fill-opacity:1;" d="M 148.246094 120 L 148.246094 100 L 168.246094 100 L 168.246094 120 Z M 148.246094 120 "/>
<path style=" stroke:none;fill-rule:nonzero;fill:rgb(0%,0%,0%);fill-opacity:1;" d="M 148.246094 80 L 148.246094 60 L 168.246094 60 L 168.246094 80 Z M 148.246094 80 "/>
<path style=" stroke:none;fill-rule:nonzero;fill:rgb(0%,0%,0%);fill-opacity:1;" d="M 148.246094 40 L 148.246094 20 L 168.246094 20 L 168.246094 40 Z M 148.246094 40 "/>
<path style=" stroke:none;fill-rule:nonzero;fill:rgb(0%,0%,0%);fill-opacity:1;" d="M 184.246094 200 L 184.246094 180 L 204.246094 180 L 204.246094 200 Z M 184.246094 200 "/>
<path style=" stroke:none;fill-rule:nonzero;fill:rgb(0%,0%,0%);fill-opacity:1;" d="M 184.246094 160 L 184.246094 140 L 204.246094 140 L 204.246094 160 Z M 184.246094 160 "/>
<path style=" stroke:none;fill-rule:nonzero;fill:rgb(0%,0%,0%);fill-opacity:1;" d="M 184.246094 120 L 184.246094 100 L 204.246094 100 L 204.246094 120 Z M 184.246094 120 "/>
<path style=" stroke:none;fill-rule:nonzero;fill:rgb(0%,0%,0%);fill-opacity:1;" d="M 184.246094 80 L 184.246094 60 L 204.246094 60 L 204.246094 80 Z M 184.246094 80 "/>
<path style=" stroke:none;fill-rule:nonzero;fill:rgb(0%,0%,0%);fill-opacity:1;" d="M 184.246094 40 L 184.246094 20 L 204.246094 20 L 204.246094 40 Z M 184.246094 40 "/>
<path style=" stroke:none;fill-rule:nonzero;fill:rgb(0%,0%,0%);fill-opacity:1;" d="M 220.246094 200 L 220.246094 180 L 240.246094 180 L 240.246094 200 Z M 220.246094 200 "/>
<path style=" stroke:none;fill-rule:nonzero;fill:rgb(0%,0%,0%);fill-opacity:1;" d="M 220.246094 160 L 220.246094 140 L 240.246094 140 L 240.246094 160 Z M 220.246094 160 "/>
<path style=" stroke:none;fill-rule:nonzero;fill:rgb(0%,0%,0%);fill-opacity:1;" d="M 220.246094 120 L 220.246094 100 L 240.246094 100 L 240.246094 120 Z M 220.246094 120 "/>
<path style=" stroke:none;fill-rule:nonzero;fill:rgb(0%,0%,0%);fill-opacity:1;" d="M 220.246094 80 L 220.246094 60 L 240.246094 60 L 240.246094 80 Z M 220.246094 80 "/>
<path style=" stroke:none;fill-rule:nonzero;fill:rgb(0%,0%,0%);fill-opacity:1;" d="M 220.246094 40 L 220.246094 20 L 240.246094 20 L 240.246094 40 Z M 220.246094 40 "/>
<path style=" stroke:none;fill-rule:nonzero;fill:rgb(0%,0%,0%);fill-opacity:1;" d="M 256.246094 200 L 256.246094 180 L 276.246094 180 L 276.246094 200 Z M 256.246094 200 "/>
<path style=" stroke:none;fill-rule:nonzero;fill:rgb(0%,0%,0%);fill-opacity:1;" d="M 256.246094 160 L 256.246094 140 L 276.246094 140 L 276.246094 160 Z M 256.246094 160 "/>
<path style=" stroke:none;fill-rule:nonzero;fill:rgb(0%,0%,0%);fill-opacity:1;" d="M 256.246094 120 L 256.246094 100 L 276.246094 100 L 276.246094 120 Z M 256.246094 120 "/>
<path style=" stroke:none;fill-rule:nonzero;fill:rgb(0%,0%,0%);fill-opacity:1;" d="M 256.246094 80 L 256.246094 60 L 276.246094 60 L 276.246094 80 Z M 256.246094 80 "/>
<path style=" stroke:none;fill-rule:nonzero;fill:rgb(0%,0%,0%);fill-opacity:1;" d="M 256.246094 40 L 256.246094 20 L 276.246094 20 L 276.246094 40 Z M 256.246094 40 "/>
<path style=" stroke:none;fill-rule:nonzero;fill:rgb(0%,0%,0%);fill-opacity:1;" d="M 292.246094 200 L 292.246094 180 L 312.246094 180 L 312.246094 200 Z M 292.246094 200 "/>
<path style=" stroke:none;fill-rule:nonzero;fill:rgb(0%,0%,0%);fill-opacity:1;" d="M 292.246094 160 L 292.246094 140 L 312.246094 140 L 312.246094 160 Z M 292.246094 160 "/>
<path style=" stroke:none;fill-rule:nonzero;fill:rgb(0%,0%,0%);fill-opacity:1;" d="M 292.246094 120 L 292.246094 100 L 312.246094 100 L 312.246094 120 Z M 292.246094 120 "/>
<path style=" stroke:none;fill-rule:nonzero;fill:rgb(0%,0%,0%);fill-opacity:1;" d="M 292.246094 80 L 292.246094 60 L 312.246094 60 L 312.246094 80 Z M 292.246094 80 "/>
<path style=" stroke:none;fill-rule:nonzero;fill:rgb(0%,0%,0%);fill-opacity:1;" d="M 292.246094 40 L 292.246094 20 L 312.246094 20 L 312.246094 40 Z M 292.246094 40 "/>
<path style=" stroke:none;fill-rule:nonzero;fill:rgb(0%,0%,0%);fill-opacity:1;" d="M 328.246094 200 L 328.246094 180 L 348.246094 180 L 348.246094 200 Z M 328.246094 200 "/>
<path style=" stroke:none;fill-rule:nonzero;fill:rgb(0%,0%,0%);fill-opacity:1;" d="M 328.246094 160 L 328.246094 140 L 348.246094 140 L 348.246094 160 Z M 328.246094 160 "/>
<path style=" stroke:none;fill-rule:nonzero;fill:rgb(0%,0%,0%);fill-opacity:1;" d="M 328.246094 120 L 328.246094 100 L 348.246094 100 L 348.246094 120 Z M 328.246094 120 "/>
<path style=" stroke:none;fill-rule:nonzero;fill:rgb(0%,0%,0%);fill-opacity:1;" d="M 328.246094 80 L 328.246094 60 L 348.246094 60 L 348.246094 80 Z M 328.246094 80 "/>
<path style=" stroke:none;fill-rule:nonzero;fill:rgb(0%,0%,0%);fill-opacity:1;" d="M 328.246094 40 L 328.246094 20 L 348.246094 20 L 348.246094 40 Z M 328.246094 40 "/>
<path style=" stroke:none;fill-rule:nonzero;fill:rgb(0%,0%,0%);fill-opacity:1;" d="M 364.246094 200 L 364.246094 180 L 384.246094 180 L 384.246094 200 Z M 364.246094 200 "/>
<path style=" stroke:none;fill-rule:nonzero;fill:rgb(0%,0%,0%);fill-opacity:1;" d="M 364.246094 160 L 364.246094 140 L 384.246094 140 L 384.246094 160 Z M 364.246094 160 "/>
<path style=" stroke:none;fill-rule:nonzero;fill:rgb(0%,0%,0%);fill-opacity:1;" d="M 364.246094 120 L 364.246094 100 L 384.246094 100 L 384.246094 120 Z M 364.246094 120 "/>
<path style=" stroke:none;fill-rule:nonzero;fill:rgb(0%,0%,0%);fill-opacity:1;" d="M 364.246094 80 L 364.246094 60 L 384.246094 60 L 384.246094 80 Z M 364.246094 80 "/>
<path style=" stroke:none;fill-rule:nonzero;fill:rgb(0%,0%,0%);fill-opacity:1;" d="M 364.246094 40 L 364.246094 20 L 384.246094 20 L 384.246094 40 Z M 364.246094 40 "/>
<path style="fill:none;stroke-width:1;stroke-linecap:square;stroke-linejoin:miter;stroke:rgb(100%,0%,0%);stroke-opacity:1;stroke-miterlimit:3.25;" d="M 0 220 L 400 220 "/>
<path style="fill:none;stroke-width:1;stroke-linecap:square;stroke-linejoin:miter;stroke:rgb(100%,0%,0%);stroke-opacity:1;stroke-miterlimit:3.25;" d="M 0 200 L 400 200 "/>
<path style="fill:none;stroke-width:1;stroke-linecap:square;stroke-linejoin:miter;stroke:rgb(100%,0%,0%);stroke-opacity:1;stroke-miterlimit:3.25;" d="M 0 180 L 400 180 "/>
<path style="fill:none;stroke-width:1;stroke-linecap:square;stroke-linejoin:miter;stroke:rgb(100%,0%,0%);stroke-opacity:1;stroke-miterlimit:3.25;" d="M 0 160 L 400 160 "/>
<path style="fill:none;stroke-width:1;stroke-linecap:square;stroke-linejoin:miter;stroke:rgb(100%,0%,0%);stroke-opacity:1;stroke-miterlimit:3.25;" d="M 0 140 L 400 140 "/>
<path style="fill:none;stroke-width:1;stroke-linecap:square;stroke-linejoin:miter;stroke:rgb(100%,0%,0%);stroke-opacity:1;stroke-miterlimit:3.25;" d="M 0 120 L 400 120 "/>
<path style="fill:none;stroke-width:1;stroke-linecap:square;stroke-linejoin:miter;stroke:rgb(100%,0%,0%);stroke-opacity:1;stroke-miterlimit:3.25;" d="M 0 100 L 400 100 "/>
<path style="fill:none;stroke-width:1;stroke-linecap:square;stroke-linejoin:miter;stroke:rgb(100%,0%,0%);stroke-opacity:1;stroke-miterlimit:3.25;" d="M 0 80 L 400 80 "/>
<path style="fill:none;stroke-width:1;stroke-linecap:square;stroke-linejoin:miter;stroke:rgb(100%,0%,0%);stroke-opacity:1;stroke-miterlimit:3.25;" d="M 0 60 L 400 60 "/>
<path style="fill:none;stroke-width:1;stroke-linecap:square;stroke-linejoin:miter;stroke:rgb(100%,0%,0%);stroke-opacity:1;stroke-miterlimit:3.25;" d="M 0 40 L 400 40 "/>
<path style="fill:none;stroke-width:1;stroke-linecap:square;stroke-linejoin:miter;stroke:rgb(100%,0%,0%);stroke-opacity:1;stroke-miterlimit:3.25;" d="M 0 20 L 400 20 "/>
</g>
</svg>
