<?xml version="1.0" encoding="UTF-8"?>
<svg xmlns="http://www.w3.org/2000/svg" xmlns:xlink="http://www.w3.org/1999/xlink" width="400pt" height="220pt" viewBox="0 0 400 220" version="1.1">
<g id="surface716">
<rect x="0" y="0" width="400" height="220" style="fill:rgb(0%,40%,100%);fill-opacity:0.2;stroke:none;"/>
<path style=" stroke:none;fill-rule:nonzero;fill:rgb(0%,0%,0%);fill-opacity:1;" d="M 7.363281 220 L 7.363281 200 L 27.363281 200 L 27.363281 220 Z M 7.363281 220 "/>
<path style=" stroke:none;fill-rule:nonzero;fill:rgb(0%,0%,0%);fill-opacity:1;" d="M 7.363281 180 L 7.363281 160 L 27.363281 160 L 27.363281 180 Z M 7.363281 180 "/>
<path style=" stroke:none;fill-rule:nonzero;fill:rgb(0%,0%,0%);fill-opacity:1;" d="M 7.363281 140 L 7.363281 120 L 27.363281 120 L 27.363281 140 Z M 7.363281 140 "/>
<path style=" stroke:none;fill-rule:nonzero;fill:rgb(0%,0%,0%);fill-opacity:1;" d="M 7.363281 100 L 7.363281 80 L 27.363281 80 L 27.363281 100 Z M 7.363281 100 "/>
<path style=" stroke:none;fill-rule:nonzero;fill:rgb(0%,0%,0%);fill-opacity:1;" d="M 7.363281 60 L 7.363281 40 L 27.363281 40 L 27.363281 60 Z M 7.363281 60 "/>
<path style=" stroke:none;fill-rule:nonzero;fill:rgb(0%,0%,0%);fill-opacity:1;" d="M 7.363281 20 L 7.363281 0 L 27.363281 0 L 27.363281 20 Z M 7.363281 20 "/>
<path style=" stroke:none;fill-rule:nonzero;fill:rgb(0%,0%,0%);fill-opacity:1;" d="M 43.363281 220 L 43.363281 200 L 63.363281 200 L 63.363281 220 Z M 43.363281 220 "/>
<path style=" stroke:none;fill-rule:nonzero;fill:rgb(0%,0%,0%);fill-opacity:1;" d="M 43.363281 180 L 43.363281 160 L 63.363281 160 L 63.363281 180 Z M 43.363281 180 "/>
<path style=" stroke:none;fill-rule:nonzero;fill:rgb(0%,0%,0%);fill-opacity:1;" d="M 43.363281 140 L 43.363281 120 L 63.363281 120 L 63.363281 140 Z M 43.363281 140 "/>
<path style=" stroke:none;fill-rule:nonzero;fill:rgb(0%,0%,0%);fill-opacity:1;" d="M 43.363281 100 L 43.363281 80 L 63.363281 80 L 63.363281 100 Z M 43.363281 100 "/>
<path style=" stroke:none;fill-rule:nonzero;fill:rgb(0%,0%,0%);fill-opacity:1;" d="M 43.363281 60 L 43.363281 40 L 63.363281 40 L 63.363281 60 Z M 43.363281 60 "/>
<path style=" stroke:none;fill-rule:nonzero;fill:rgb(0%,0%,0%);fill-opacity:1;" d="M 43.363281 20 L 43.363281 0 L 63.363281 0 L 63.363281 20 Z M 43.363281 20 "/>
<path style=" stroke:none;fill-rule:nonzero;fill:rgb(0%,0%,0%);fill-opacity:1;" d="M 79.363281 220 L 79.363281 200 L 99.363281 200 L 99.363281 220 Z M 79.363281 220 "/>
<path style=" stroke:none;fill-rule:nonzero;fill:rgb(0%,0%,0%);fill-opacity:1;" d="M 79.363281 180 L 79.363281 160 L 99.363281 160 L 99.363281 180 Z M 79.363281 180 "/>
<path style=" stroke:none;fill-rule:nonzero;fill:rgb(0%,0%,0%);fill-opacity:1;" d="M 79.363281 140 L 79.363281 120 L 99.363281 120 L 99.363281 140 Z M 79.363281 140 "/>
<path style=" stroke:none;fill-rule:nonzero;fill:rgb(0%,0%,0%);fill-opacity:1;" d="M 79.363281 100 L 79.363281 80 L 99.363281 80 L 99.363281 100 Z M 79.363281 100 "/>
<path style=" stroke:none;fill-rule:nonzero;fill:rgb(0%,0%,0%);fill-opacity:1;" d="M 79.363281 60 L 79.363281 40 L 99.363281 40 L 99.363281 60 Z M 79.363281 60 "/>
<path style=" stroke:none;fill-rule:nonzero;fill:rgb(0%,0%,0%);fill-opacity:1;" d="M 79.363281 20 L 79.363281 0 L 99.363281 0 L 99.363281 20 Z M 79.363281 20 "/>
<path style=" stroke:none;fill-rule:nonzero;fill:rgb(0%,0%,0%);fill-opacity:1;" d="M 115.363281 220 L 115.363281 200 L 135.363281 200 L 135.363281 220 Z M 115.363281 220 "/>
<path style=" stroke:none;fill-rule:nonzero;fill:rgb(0%,0%,0%);fill-opacity:1;" d="M 115.363281 180 L 115.363281 160 L 135.363281 160 L 135.363281 180 Z M 115.363281 180 "/>
<path style=" stroke:none;fill-rule:nonzero;fill:rgb(0%,0%,0%);fill-opacity:1;" d="M 115.363281 140 L 115.363281 120 L 135.363281 120 L 135.363281 140 Z M 115.363281 140 "/>
<path style=" stroke:none;fill-rule:nonzero;fill:rgb(0%,0%,0%);fill-opacity:1;" d="M 115.363281 100 L 115.363281 80 L 135.363281 80 L 135.363281 100 Z M 115.363281 100 "/>
<path style=" stroke:none;fill-rule:nonzero;fill:rgb(0%,0%,0%);fill-opacity:1;" d="M 115.363281 60 L 115.363281 40 L 135.363281 40 L 135.363281 60 Z M 115.363281 60 "/>
<path style=" stroke:none;fill-rule:nonzero;fill:rgb(0%,0%,0%);fill-opacity:1;" d="M 115.363281 20 L 115.363281 0 L 135.363281 0 L 135.363281 20 Z M 115.363281 20 "/>
<path style=" stroke:none;fill-rule:nonzero;fill:rgb(0%,0%,0%);fill-opacity:1;" d="M 151.363281 220 L 151.363281 200 L 171.363281 200 L 171.363281 220 Z M 151.363281 220 "/>
<path style=" stroke:none;fill-rule:nonzero;fill:rgb(0%,0%,0%);fill-opacity:1;" d="M 151.363281 180 L 151.363281 160 L 171.363281 160 L 171.363281 180 Z M 151.363281 180 "/>
<path style=" stroke:none;fill-rule:nonzero;fill:rgb(0%,0%,0%);fill-opacity:1;" d="M 151.363281 140 L 151.363281 120 L 171.363281 120 L 171.363281 140 Z M 151.363281 140 "/>
<path style=" stroke:none;fill-rule:nonzero;fill:rgb(0%,0%,0%);fill-opacity:1;" d="M 151.363281 100 L 151.363281 80 L 171.363281 80 L 171.363281 100 Z M 151.363281 100 "/>
<path style=" stroke:none;fill-rule:nonzero;fill:rgb(0%,0%,0%);fill-opacity:1;" d="M 151.363281 60 L 151.363281 40 L 171.363281 40 L 171.363281 60 Z M 151.363281 60 "/>
<path style=" stroke:none;fill-rule:nonzero;fill:rgb(0%,0%,0%);fill-opacity:1;" d="M 151.363281 20 L 151.363281 0 L 171.363281 0 L 171.363281 20 Z M 151.363281 20 "/>
<path style=" stroke:none;fill-rule:nonzero;fill:rgb(0%,0%,0%);fill-opacity:1;" d="M 187.363281 220 L 187.363281 200 L 207.363281 200 L 207.363281 220 Z M 187.363281 220 "/>
<path style=" stroke:none;fill-rule:nonzero;fill:rgb(0%,0%,0%);fill-opacity:1;" d="M 187.363281 180 L 187.363281 160 L 207.363281 160 L 207.363281 180 Z M 187.363281 180 "/>
<path style=" stroke:none;fill-rule:nonzero;fill:rgb(0%,0%,0%);fill-opacity:1;" d="M 187.363281 140 L 187.363281 120 L 207.363281 120 L 207.363281 140 Z M 187.363281 140 "/>
<path style=" stroke:none;fill-rule:nonzero;fill:rgb(0%,0%,0%);fill-opacity:1;" d="M 187.363281 100 L 187.363281 80 L 207.363281 80 L 207.363281 100 Z M 187.363281 100 "/>
<path style=" stroke:none;fill-rule:nonzero;fill:rgb(0%,0%,0%);fill-opacity:1;" d="M 187.363281 60 L 187.363281 40 L 207.363281 40 L 207.363281 60 Z M 187.363281 60 "/>
<path style=" stroke:none;fill-rule:nonzero;fill:rgb(0%,0%,0%);fill-opacity:1;" d="M 187.363281 20 L 187.363281 0 L 207.363281 0 L 207.363281 20 Z M 187.363281 20 "/>
<path style=" stroke:none;fill-rule:nonzero;fill:rgb(0%,0%,0%);fill-opacity:1;" d="M 223.363281 220 L 223.363281 200 L 243.363281 200 L 243.363281 220 Z M 223.363281 220 "/>
<path style=" stroke:none;fill-rule:nonzero;fill:rgb(0%,0%,0%);fill-opacity:1;" d="M 223.363281 180 L 223.363281 160 L 243.363281 160 L 243.363281 180 Z M 223.363281 180 "/>
<path style=" stroke:none;fill-rule:nonzero;fill:rgb(0%,0%,0%);fill-opacity:1;" d="M 223.363281 140 L 223.363281 120 L 243.363281 120 L 243.363281 140 Z M 223.363281 140 "/>
<path style=" stroke:none;fill-rule:nonzero;fill:rgb(0%,0%,0%);fill-opacity:1;" d="M 223.363281 100 L 223.363281 80 L 243.363281 80 L 243.363281 100 Z M 223.363281 100 "/>
<path style=" stroke:none;fill-rule:nonzero;fill:rgb(0%,0%,0%);fill-opacity:1;" d="M 223.363281 60 L 223.363281 40 L 243.363281 40 L 243.363281 60 Z M 223.363281 60 "/>
<path style=" stroke:none;fill-rule:nonzero;fill:rgb(0%,0%,0%);fill-opacity:1;" d="M 223.363281 20 L 223.363281 0 L 243.363281 0 L 243.363281 20 Z M 223.363281 20 "/>
<path style=" stroke:none;fill-rule:nonzero;fill:rgb(0%,0%,0%);fill-opacity:1;" d="M 259.363281 220 L 259.363281 200 L 279.363281 200 L 279.363281 220 Z M 259.363281 220 "/>
<path style=" stroke:none;fill-rule:nonzero;fill:rgb(0%,0%,0%);fill-opacity:1;" d="M 259.363281 180 L 259.363281 160 L 279.363281 160 L 279.363281 180 Z M 259.363281 180 "/>
<path style=" stroke:none;fill-rule:nonzero;fill:rgb(0%,0%,0%);fill-opacity:1;" d="M 259.363281 140 L 259.363281 120 L 279.363281 120 L 279.363281 140 Z M 259.363281 140 "/>
<path style=" stroke:none;fill-rule:nonzero;fill:rgb(0%,0%,0%);fill-opacity:1;" d="M 259.363281 100 L 259.363281 80 L 279.363281 80 L 279.363281 100 Z M 259.363281 100 "/>
<path style=" stroke:none;fill-rule:nonzero;fill:rgb(0%,0%,0%);fill-opacity:1;" d="M 259.363281 60 L 259.363281 40 L 279.363281 40 L 279.363281 60 Z M 259.363281 60 "/>
<path style=" stroke:none;fill-rule:nonzero;fill:rgb(0%,0%,0%);fill-opacity:1;" d="M 259.363281 20 L 259.363281 0 L 279.363281 0 L 279.363281 20 Z M 259.363281 20 "/>
<path style=" stroke:none;fill-rule:nonzero;fill:rgb(0%,0%,0%);fill-opacity:1;" d="M 295.363281 220 L 295.363281 200 L 315.363281 200 L 315.363281 220 Z M 295.363281 220 "/>
<path style=" stroke:none;fill-rule:nonzero;fill:rgb(0%,0%,0%);fill-opacity:1;" d="M 295.363281 180 L 295.363281 160 L 315.363281 160 L 315.363281 180 Z M 295.363281 180 "/>
<path style=" stroke:none;fill-rule:nonzero;fill:rgb(0%,0%,0%);fill-opacity:1;" d="M 295.363281 140 L 295.363281 120 L 315.363281 120 L 315.363281 140 Z M 295.363281 140 "/>
<path style=" stroke:none;fill-rule:nonzero;fill:rgb(0%,0%,0%);fill-opacity:1;" d="M 295.363281 100 L 295.363281 80 L 315.363281 80 L 315.363281 100 Z M 295.363281 100 "/>
<path style=" stroke:none;fill-rule:nonzero;fill:rgb(0%,0%,0%);fill-opacity:1;" d="M 295.363281 60 L 295.363281 40 L 315.363281 40 L 315.363281 60 Z M 295.363281 60 "/>
<path style=" stroke:none;fill-rule:nonzero;fill:rgb(0%,0%,0%);fill-opacity:1;" d="M 295.363281 20 L 295.363281 0 L 315.363281 0 L 315.363281 20 Z M 295.363281 20 "/>
<path style=" stroke:none;fill-rule:nonzero;fill:rgb(0%,0%,0%);fill-opacity:1;" d="M 331.363281 220 L 331.363281 200 L 351.363281 200 L 351.363281 220 Z M 331.363281 220 "/>
<path style=" stroke:none;fill-rule:nonzero;fill:rgb(0%,0%,0%);fill-opacity:1;" d="M 331.363281 180 L 331.363281 160 L 351.363281 160 L 351.363281 180 Z M 331.363281 180 "/>
<path style=" stroke:none;fill-rule:nonzero;fill:rgb(0%,0%,0%);fill-opacity:1;" d="M 331.363281 140 L 331.363281 120 L 351.363281 120 L 351.363281 140 Z M 331.363281 140 "/>
<path style=" stroke:none;fill-rule:nonzero;fill:rgb(0%,0%,0%);fill-opacity:1;" d="M 331.363281 100 L 331.363281 80 L 351.363281 80 L 351.363281 100 Z M 331.363281 100 "/>
<path style=" stroke:none;fill-rule:nonzero;fill:rgb(0%,0%,0%);fill-opacity:1;" d="M 331.363281 60 L 331.363281 40 L 351.363281 40 L 351.363281 60 Z M 331.363281 60 "/>
<path style=" stroke:none;fill-rule:nonzero;fill:rgb(0%,0%,0%);fill-opacity:1;" d="M 331.363281 20 L 331.363281 0 L 351.363281 0 L 351.363281 20 Z M 331.363281 20 "/>
<path style=" stroke:none;fill-rule:nonzero;fill:rgb(0%,0%,0%);fill-opacity:1;" d="M 367.363281 220 L 367.363281 200 L 387.363281 200 L 387.363281 220 Z M 367.363281 220 "/>
<path style=" stroke:none;fill-rule:nonzero;fill:rgb(0%,0%,0%);fill-opacity:1;" d="M 367.363281 180 L 367.363281 160 L 387.363281 160 L 387.363281 180 Z M 367.363281 180 "/>
<path style=" stroke:none;fill-rule:nonzero;fill:rgb(0%,0%,0%);fill-opacity:1;" d="M 367.363281 140 L 367.363281 120 L 387.363281 120 L 387.363281 140 Z M 367.363281 140 "/>
<path style=" stroke:none;fill-rule:nonzero;fill:rgb(0%,0%,0%);fill-opacity:1;" d="M 367.363281 100 L 367.363281 80 L 387.363281 80 L 387.363281 100 Z M 367.363281 100 "/>
<path style=" stroke:none;fill-rule:nonzero;fill:rgb(0%,0%,0%);fill-opacity:1;" d="M 367.363281 60 L 367.363281 40 L 387.363281 40 L 387.363281 60 Z M 367.363281 60 "/>
<path style=" stroke:none;fill-rule:nonzero;fill:rgb(0%,0%,0%);fill-opacity:1;" d="M 367.363281 20 L 367.363281 0 L 387.363281 0 L 387.363281 20 Z M 367.363281 20 "/>
<path style=" stroke:none;fill-rule:nonzero;fill:rgb(0%,0%,0%);fill-opacity:1;" d="M -1.40625 200 L -1.40625 180 L 18.59375 180 L 18.59375 200 Z M -1.40625 200 "/>
<path style=" stroke:none;fill-rule:nonzero;fill:rgb(0%,0%,0%);fill-opacity:1;" d="M -1.40625 160 L -1.40625 140 L 18.59375 140 L 18.59375 160 Z M -1.40625 160 "/>
<path style=" stroke:none;fill-rule:nonzero;fill:rgb(0%,0%,0%);fill-opacity:1;" d="M -1.40625 120 L -1.40625 100 L 18.59375 100 L 18.59375 120 Z M -1.40625 120 "/>
<path style=" stroke:none;fill-rule:nonzero;fill:rgb(0%,0%,0%);fill-opacity:1;" d="M -1.40625 80 L -1.40625 60 L 18.59375 60 L 18.59375 80 Z M -1.40625 80 "/>
<path style=" stroke:none;fill-rule:nonzero;fill:rgb(0%,0%,0%);fill-opacity:1;" d="M -1.40625 40 L -1.40625 20 L 18.59375 20 L 18.59375 40 Z M -1.40625 40 "/>
<path style=" stroke:none;fill-rule:nonzero;fill:rgb(0%,0%,0%);fill-opacity:1;" d="M 34.59375 200 L 34.59375 180 L 54.59375 180 L 54.59375 200 Z M 34.59375 200 "/>
<path style=" stroke:none;fill-rule:nonzero;fill:rgb(0%,0%,0%);fill-opacity:1;" d="M 34.59375 160 L 34.59375 140 L 54.59375 140 L 54.59375 160 Z M 34.59375 160 "/>
<path style=" stroke:none;fill-rule:nonzero;fill:rgb(0%,0%,0%);fill-opacity:1;" d="M 34.59375 120 L 34.59375 100 L 54.59375 100 L 54.59375 120 Z M 34.59375 120 "/>
<path style=" stroke:none;fill-rule:nonzero;fill:rgb(0%,0%,0%);fill-opacity:1;" d="M 34.59375 80 L 34.59375 60 L 54.59375 60 L 54.59375 80 Z M 34.59375 80 "/>
<path style=" stroke:none;fill-rule:nonzero;fill:rgb(0%,0%,0%);fill-opacity:1;" d="M 34.59375 40 L 34.59375 20 L 54.59375 20 L 54.59375 40 Z M 34.59375 40 "/>
<path style=" stroke:none;fill-rule:nonzero;fill:rgb(0%,0%,0%);fill-opacity:1;" d="M 70.59375 200 L 70.59375 180 L 90.59375 180 L 90.59375 200 Z M 70.59375 200 "/>
<path style=" stroke:none;fill-rule:nonzero;fill:rgb(0%,0%,0%);fill-opacity:1;" d="M 70.59375 160 L 70.59375 140 L 90.59375 140 L 90.59375 160 Z M 70.59375 160 "/>
<path style=" stroke:none;fill-rule:nonzero;fill:rgb(0%,0%,0%);fill-opacity:1;" d="M 70.59375 120 L 70.59375 100 L 90.59375 100 L 90.59375 120 Z M 70.59375 120 "/>
<path style=" stroke:none;fill-rule:nonzero;fill:rgb(0%,0%,0%);fill-opacity:1;" d="M 70.59375 80 L 70.59375 60 L 90.59375 60 L 90.59375 80 Z M 70.59375 80 "/>
<path style=" stroke:none;fill-rule:nonzero;fill:rgb(0%,0%,0%);fill-opacity:1;" d="M 70.59375 40 L 70.59375 20 L 90.59375 20 L 90.59375 40 Z M 70.59375 40 "/>
<path style=" stroke:none;fill-rule:nonzero;fill:rgb(0%,0%,0%);fill-opacity:1;" d="M 106.59375 200 L 106.59375 180 L 126.59375 180 L 126.59375 200 Z M 106.59375 200 "/>
<path style=" stroke:none;fill-rule:nonzero;fill:rgb(0%,0%,0%);fill-opacity:1;" d="M 106.59375 160 L 106.59375 140 L 126.59375 140 L 126.59375 160 Z M 106.59375 160 "/>
<path style=" stroke:none;fill-rule:nonzero;fill:rgb(0%,0%,0%);fill-opacity:1;" d="M 106.59375 120 L 106.59375 100 L 126.59375 100 L 126.59375 120 Z M 106.59375 120 "/>
<path style=" stroke:none;fill-rule:nonzero;fill:rgb(0%,0%,0%);fill-opacity:1;" d="M 106.59375 80 L 106.59375 60 L 126.59375 60 L 126.59375 80 Z M 106.59375 80 "/>
<path style=" stroke:none;fill-rule:nonzero;fill:rgb(0%,0%,0%);fill-opacity:1;" d="M 106.59375 40 L 106.59375 20 L 126.59375 20 L 126.59375 40 Z M 106.59375 40 "/>
<path style=" stroke:none;fill-rule:nonzero;fill:rgb(0%,0%,0%);fill-opacity:1;" d="M 142.59375 200 L 142.59375 180 L 162.59375 180 L 162.59375 200 Z M 142.59375 200 "/>
<path style=" stroke:none;fill-rule:nonzero;fill:rgb(0%,0%,0%);fill-opacity:1;" d="M 142.59375 160 L 142.59375 140 L 162.59375 140 L 162.59375 160 Z M 142.59375 160 "/>
<path style=" stroke:none;fill-rule:nonzero;fill:rgb(0%,0%,0%);fill-opacity:1;" d="M 142.59375 120 L 142.59375 100 L 162.59375 100 L 162.59375 120 Z M 142.59375 120 "/>
<path style=" stroke:none;fill-rule:nonzero;fill:rgb(0%,0%,0%);fill-opacity:1;" d="M 142.59375 80 L 142.59375 60 L 162.59375 60 L 162.59375 80 Z M 142.59375 80 "/>
<path style=" stroke:none;fill-rule:nonzero;fill:rgb(0%,0%,0%);fill-opacity:1;" d="M 142.59375 40 L 142.59375 20 L 162.59375 20 L 162.59375 40 Z M 142.59375 40 "/>
<path style=" stroke:none;fill-rule:nonzero;fill:rgb(0%,0%,0%);fill-opacity:1;" d="M 178.59375 200 L 178.59375 180 L 198.59375 180 L 198.59375 200 Z M 178.59375 200 "/>
<path style=" stroke:none;fill-rule:nonzero;fill:rgb(0%,0%,0%);fill-opacity:1;" d="M 178.59375 160 L 178.59375 140 L 198.59375 140 L 198.59375 160 Z M 178.59375 160 "/>
<path style=" stroke:none;fill-rule:nonzero;fill:rgb(0%,0%,0%);fill-opacity:1;" d="M 178.59375 120 L 178.59375 100 L 198.59375 100 L 198.59375 120 Z M 178.59375 120 "/>
<path style=" stroke:none;fill-rule:nonzero;fill:rgb(0%,0%,0%);fill-opacity:1;" d="M 178.59375 80 L 178.59375 60 L 198.59375 60 L 198.59375 80 Z M 178.59375 80 "/>
<path style=" stroke:none;fill-rule:nonzero;fill:rgb(0%,0%,0%);fill-opacity:1;" d="M 178.59375 40 L 178.59375 20 L 198.59375 20 L 198.59375 40 Z M 178.59375 40 "/>
<path style=" stroke:none;fill-rule:nonzero;fill:rgb(0%,0%,0%);fill-opacity:1;" d="M 214.59375 200 L 214.59375 180 L 234.59375 180 L 234.59375 200 Z M 214.59375 200 "/>
<path style=" stroke:none;fill-rule:nonzero;fill:rgb(0%,0%,0%);fill-opacity:1;" d="M 214.59375 160 L 214.59375 140 L 234.59375 140 L 234.59375 160 Z M 214.59375 160 "/>
<path style=" stroke:none;fill-rule:nonzero;fill:rgb(0%,0%,0%);fill-opacity:1;" d="M 214.59375 120 L 214.59375 100 L 234.59375 100 L 234.59375 120 Z M 214.59375 120 "/>
<path style=" stroke:none;fill-rule:nonzero;fill:rgb(0%,0%,0%);fill-opacity:1;" d="M 214.59375 80 L 214.59375 60 L 234.59375 60 L 234.59375 80 Z M 214.59375 80 "/>
<path style=" stroke:none;fill-rule:nonzero;fill:rgb(0%,0%,0%);fill-opacity:1;" d="M 214.59375 40 L 214.59375 20 L 234.59375 20 L 234.59375 40 Z M 214.59375 40 "/>
<path style=" stroke:none;fill-rule:nonzero;fill:rgb(0%,0%,0%);fill-opacity:1;" d="M 250.59375 200 L 250.59375 180 L 270.59375 180 L 270.59375 200 Z M 250.59375 200 "/>
<path style=" stroke:none;fill-rule:nonzero;fill:rgb(0%,0%,0%);fill-opacity:1;" d="M 250.59375 160 L 250.59375 140 L 270.59375 140 L 270.59375 160 Z M 250.59375 160 "/>
<path style=" stroke:none;fill-rule:nonzero;fill:rgb(0%,0%,0%);fill-opacity:1;" d="M 250.59375 120 L 250.59375 100 L 270.59375 100 L 270.59375 120 Z M 250.59375 120 "/>
<path style=" stroke:none;fill-rule:nonzero;fill:rgb(0%,0%,0%);fill-opacity:1;" d="M 250.59375 80 L 250.59375 60 L 270.59375 60 L 270.59375 80 Z M 250.59375 80 "/>
<path style=" stroke:none;fill-rule:nonzero;fill:rgb(0%,0%,0%);fill-opacity:1;" d="M 250.59375 40 L 250.59375 20 L 270.59375 20 L 270.59375 40 Z M 250.59375 40 "/>
<path style=" stroke:none;fill-rule:nonzero;fill:rgb(0%,0%,0%);fill-opacity:1;" d="M 286.59375 200 L 286.59375 180 L 306.59375 180 L 306.59375 200 Z M 286.59375 200 "/>
<path style=" stroke:none;fill-rule:nonzero;fill:rgb(0%,0%,0%);fill-opacity:1;" d="M 286.59375 160 L 286.59375 140 L 306.59375 140 L 306.59375 160 Z M 286.59375 160 "/>
<path style=" stroke:none;fill-rule:nonzero;fill:rgb(0%,0%,0%);fill-opacity:1;" d="M 286.59375 120 L 286.59375 100 L 306.59375 100 L 306.59375 120 Z M 286.59375 120 "/>
<path style=" stroke:none;fill-rule:nonzero;fill:rgb(0%,0%,0%);fill-opacity:1;" d="M 286.59375 80 L 286.59375 60 L 306.59375 60 L 306.59375 80 Z M 286.59375 80 "/>
<path style=" stroke:none;fill-rule:nonzero;fill:rgb(0%,0%,0%);fill-opacity:1;" d="M 286.59375 40 L 286.59375 20 L 306.59375 20 L 306.59375 40 Z M 286.59375 40 "/>
<path style=" stroke:none;fill-rule:nonzero;fill:rgb(0%,0%,0%);fill-opacity:1;" d="M 322.59375 200 L 322.59375 180 L 342.59375 180 L 342.59375 200 Z M 322.59375 200 "/>
<path style=" stroke:none;fill-rule:nonzero;fill:rgb(0%,0%,0%);fill-opacity:1;" d="M 322.59375 160 L 322.59375 140 L 342.59375 140 L 342.59375 160 Z M 322.59375 160 "/>
<path style=" stroke:none;fill-rule:nonzero;fill:rgb(0%,0%,0%);fill-opacity:1;" d="M 322.59375 120 L 322.59375 100 L 342.59375 100 L 342.59375 120 Z M 322.59375 120 "/>
<path style=" stroke:none;fill-rule:nonzero;fill:rgb(0%,0%,0%);fill-opacity:1;" d="M 322.59375 80 L 322.59375 60 L 342.59375 60 L 342.59375 80 Z M 322.59375 80 "/>
<path style=" stroke:none;fill-rule:nonzero;fill:rgb(0%,0%,0%);fill-opacity:1;" d="M 322.59375 40 L 322.59375 20 L 342.59375 20 L 342.59375 40 Z M 322.59375 40 "/>
<path style=" stroke:none;fill-rule:nonzero;fill:rgb(0%,0%,0%);fill-opacity:1;" d="M 358.59375 200 L 358.59375 180 L 378.59375 180 L 378.59375 200 Z M 358.59375 200 "/>
<path style=" stroke:none;fill-rule:nonzero;fill:rgb(0%,0%,0%);fill-opacity:1;" d="M 358.59375 160 L 358.59375 140 L 378.59375 140 L 378.59375 160 Z M 358.59375 160 "/>
<path style=" stroke:none;fill-rule:nonzero;fill:rgb(0%,0%,0%);fill-opacity:1;" d="M 358.59375 120 L 358.59375 100 L 378.59375 100 L 378.59375 120 Z M 358.59375 120 "/>
<path style=" stroke:none;fill-rule:nonzero;fill:rgb(0%,0%,0%);fill-opacity:1;" d="M 358.59375 80 L 358.59375 60 L 378.59375 60 L 378.59375 80 Z M 358.59375 80 "/>
<path style=" stroke:none;fill-rule:nonzero;fill:rgb(0%,0%,0%);fill-opacity:1;" d="M 358.59375 40 L 358.59375 20 L 378.59375 20 L 378.59375 40 Z M 358.59375 40 "/>
<path style=" stroke:none;fill-rule:nonzero;fill:rgb(0%,0%,0%);fill-opacity:1;" d="M 394.59375 200 L 394.59375 180 L 414.59375 180 L 414.59375 200 Z M 394.59375 200 "/>
<path style=" stroke:none;fill-rule:nonzero;fill:rgb(0%,0%,0%);fill-opacity:1;" d="M 394.59375 160 L 394.59375 140 L 414.59375 140 L 414.59375 160 Z M 394.59375 160 "/>
<path style=" stroke:none;fill-rule:nonzero;fill:rgb(0%,0%,0%);fill-opacity:1;" d="M 394.59375 120 L 394.59375 100 L 414.59375 100 L 414.59375 120 Z M 394.59375 120 "/>
<path style=" stroke:none;fill-rule:nonzero;fill:rgb(0%,0%,0%);fill-opacity:1;" d="M 394.59375 80 L 394.59375 60 L 414.59375 60 L 414.59375 80 Z M 394.59375 80 "/>
<path style=" stroke:none;fill-rule:nonzero;fill:rgb(0%,0%,0%);fill-opacity:1;" d="M 394.59375 40 L 394.59375 20 L 414.59375 20 L 414.59375 40 Z M 394.59375 40 "/>
<path style="fill:none;stroke-width:1;stroke-linecap:square;stroke-linejoin:miter;stroke:rgb(100%,0%,0%);stroke-opacity:1;stroke-miterlimit:3.25;" d="M 0 220 L 400 220 "/>
<path style="fill:none;stroke-width:1;stroke-linecap:square;stroke-linejoin:miter;stroke:rgb(100%,0%,0%);stroke-opacity:1;stroke-miterlimit:3.25;" d="M 0 200 L 400 200 "/>
<path style="fill:none;stroke-width:1;stroke-linecap:square;stroke-linejoin:miter;stroke:rgb(100%,0%,0%);stroke-opacity:1;stroke-miterlimit:3.25;" d="M 0 180 L 400 180 "/>
<path style="fill:none;stroke-width:1;stroke-linecap:square;stroke-linejoin:miter;stroke:rgb(100%,0%,0%);stroke-opacity:1;stroke-miterlimit:3.25;" d="M 0 160 L 400 160 "/>
<path style="fill:none;stroke-width:1;stroke-linecap:square;stroke-linejoin:miter;stroke:rgb(100%,0%,0%);stroke-opacity:1;stroke-miterlimit:3.25;" d="M 0 140 L 400 140 "/>
<path style="fill:none;stroke-width:1;stroke-linecap:square;stroke-linejoin:miter;stroke:rgb(100%,0%,0%);stroke-opacity:1;stroke-miterlimit:3.25;" d="M 0 120 L 400 120 "/>
<path style="fill:none;stroke-width:1;stroke-linecap:square;stroke-linejoin:miter;stroke:rgb(100%,0%,0%);stroke-opacity:1;stroke-miterlimit:3.25;" d="M 0 100 L 400 100 "/>
<path style="fill:none;stroke-width:1;stroke-linecap:square;stroke-linejoin:miter;stroke:rgb(100%,0%,0%);stroke-opacity:1;stroke-miterlimit:3.25;" d="M 0 80 L 400 80 "/>
<path style="fill:none;stroke-width:1;stroke-linecap:square;stroke-linejoin:miter;stroke:rgb(100%,0%,0%);stroke-opacity:1;stroke-miterlimit:3.25;" d="M 0 60 L 400 60 "/>
<path style="fill:none;stroke-width:1;stroke-linecap:square;stroke-linejoin:miter;stroke:rgb(100%,0%,0%);stroke-opacity:1;stroke-miterlimit:3.25;" d="M 0 40 L 400 40 "/>
<path style="fill:none;stroke-width:1;stroke-linecap:square;stroke-linejoin:miter;stroke:rgb(100%,0%,0%);stroke-opacity:1;stroke-miterlimit:3.25;" d="M 0 20 L 400 20 "/>
</g>
</svg>
